<svg xmlns="http://www.w3.org/2000/svg" xmlns:xlink="http://www.w3.org/1999/xlink" width="307.2" height="230.4" viewBox="0 0 230.4 172.8"><defs><style>*{stroke-linejoin:round;stroke-linecap:butt}</style></defs><g id="figure_1"><path id="patch_1" d="M0 172.8h230.4V0H0z" style="fill:#fff"/><g id="axes_1"><path id="patch_2" d="M38.05 142.76h183.71V8.64H38.05z" style="fill:#fff"/><g id="matplotlib.axis_1"><g id="xtick_1"><g id="line2d_1"><defs><path id="mb591414a53" d="M0 0v3.5" style="stroke:#000;stroke-width:.8"/></defs><use xlink:href="#mb591414a53" x="72.662" y="142.76" style="stroke:#000;stroke-width:.8"/></g><g id="text_1" transform="matrix(.08 0 0 -.08 70.117 155.839)"><defs><path id="DejaVuSans-31" d="M794 531h1031v3560L703 3866v575l1116 225h631V531h1031V0H794z" transform="scale(.01563)"/></defs><use xlink:href="#DejaVuSans-31"/></g></g><g id="xtick_2"><use xlink:href="#mb591414a53" id="line2d_2" x="125.911" y="142.76" style="stroke:#000;stroke-width:.8"/><g id="text_2" transform="matrix(.08 0 0 -.08 123.366 155.839)"><defs><path id="DejaVuSans-32" d="M1228 531h2203V0H469v531q359 372 979 998 621 627 780 809 303 340 423 576 121 236 121 464 0 372-261 606-261 235-680 235-297 0-627-103-329-103-704-313v638q381 153 712 231 332 78 607 78 725 0 1156-363 431-362 431-968 0-288-108-546-107-257-392-607-78-91-497-524-418-433-1181-1211" transform="scale(.01563)"/></defs><use xlink:href="#DejaVuSans-32"/></g></g><g id="xtick_3"><use xlink:href="#mb591414a53" id="line2d_3" x="179.161" y="142.76" style="stroke:#000;stroke-width:.8"/><g id="text_3" transform="matrix(.08 0 0 -.08 176.616 155.839)"><defs><path id="DejaVuSans-33" d="M2597 2516q453-97 707-404 255-306 255-756 0-690-475-1069Q2609-91 1734-91q-293 0-604 58T488 141v609q262-153 574-231 313-78 654-78 593 0 904 234t311 681q0 413-289 645-289 233-804 233h-544v519h569q465 0 712 186t247 536q0 359-255 551-254 193-729 193-260 0-557-57-297-56-653-174v562q360 100 674 150t592 50q719 0 1137-327 419-326 419-882 0-388-222-655t-631-370" transform="scale(.01563)"/></defs><use xlink:href="#DejaVuSans-33"/></g></g><g id="text_4" transform="matrix(.08 0 0 -.08 114.392 163.581)"><defs><path id="DejaVuSans-74" d="M1172 4494v-994h1184v-447H1172V1153q0-428 117-550t477-122h590V0h-590q-666 0-919 248-253 249-253 905v1900H172v447h422v994z" transform="scale(.01563)"/><path id="DejaVuSans-69" d="M603 3500h575V0H603zm0 1363h575v-729H603z" transform="scale(.01563)"/><path id="DejaVuSans-6d" d="M3328 2828q216 388 516 572t706 184q547 0 844-383 297-382 297-1088V0h-578v2094q0 503-179 746-178 244-543 244-447 0-707-297-259-296-259-809V0h-578v2094q0 506-178 748t-550 242q-441 0-701-298-259-298-259-808V0H581v3500h578v-544q197 322 472 475t653 153q382 0 649-194 267-193 395-562" transform="scale(.01563)"/><path id="DejaVuSans-65" d="M3597 1894v-281H953q38-594 358-905t892-311q331 0 642 81t618 244V178Q3153 47 2828-22t-659-69q-838 0-1327 487-489 488-489 1320 0 859 464 1363 464 505 1252 505 706 0 1117-455 411-454 411-1235m-575 169q-6 471-264 752-258 282-683 282-481 0-770-272t-333-766z" transform="scale(.01563)"/><path id="DejaVuSans-28" d="M1984 4856q-418-718-622-1422-203-703-203-1425 0-721 205-1429t620-1424h-500Q1016-109 783 600T550 2009q0 697 231 1403 232 707 703 1444z" transform="scale(.01563)"/><path id="DejaVuSans-73" d="M2834 3397v-544q-243 125-506 187-262 63-544 63-428 0-642-131t-214-394q0-200 153-314t616-217l197-44q612-131 870-370t258-667q0-488-386-773Q2250-91 1575-91q-281 0-586 55T347 128v594q319-166 628-249 309-82 613-82 406 0 624 139 219 139 219 392 0 234-158 359-157 125-692 241l-200 47q-534 112-772 345-237 233-237 639 0 494 350 762 350 269 994 269 318 0 599-47 282-46 519-140" transform="scale(.01563)"/><path id="DejaVuSans-29" d="M513 4856h500q468-737 701-1444 233-706 233-1403 0-700-233-1409T1013-844H513q415 716 620 1424t205 1429q0 722-205 1425-205 704-620 1422" transform="scale(.01563)"/></defs><use xlink:href="#DejaVuSans-74"/><use xlink:href="#DejaVuSans-69" x="39.209"/><use xlink:href="#DejaVuSans-6d" x="66.992"/><use xlink:href="#DejaVuSans-65" x="164.404"/><use xlink:href="#DejaVuSans-28" x="257.715"/><use xlink:href="#DejaVuSans-73" x="296.729"/><use xlink:href="#DejaVuSans-29" x="348.828"/></g></g><g id="matplotlib.axis_2"><g id="ytick_1"><g id="line2d_4"><defs><path id="me20476a203" d="M0 0h-3.5" style="stroke:#000;stroke-width:.8"/></defs><use xlink:href="#me20476a203" x="38.05" y="137.731" style="stroke:#000;stroke-width:.8"/></g><g id="text_5" transform="matrix(.08 0 0 -.08 25.96 140.77)"><defs><path id="DejaVuSans-30" d="M2034 4250q-487 0-733-480-245-479-245-1442 0-959 245-1439 246-480 733-480 491 0 736 480 246 480 246 1439 0 963-246 1442-245 480-736 480m0 500q785 0 1199-621 414-620 414-1801 0-1178-414-1799Q2819-91 2034-91q-784 0-1198 620-414 621-414 1799 0 1181 414 1801 414 621 1198 621" transform="scale(.01563)"/></defs><use xlink:href="#DejaVuSans-30"/></g></g><g id="ytick_2"><use xlink:href="#me20476a203" id="line2d_5" x="38.05" y="120.966" style="stroke:#000;stroke-width:.8"/><g id="text_6" transform="matrix(.08 0 0 -.08 20.87 124.005)"><defs><path id="DejaVuSans-35" d="M691 4666h2478v-532H1269V2991q137 47 274 70 138 23 276 23 781 0 1237-428 457-428 457-1159 0-753-469-1171Q2575-91 1722-91q-294 0-599 50Q819 9 494 109v635q281-153 581-228t634-75q541 0 856 284 316 284 316 772 0 487-316 771-315 285-856 285-253 0-505-56-251-56-513-175z" transform="scale(.01563)"/></defs><use xlink:href="#DejaVuSans-35"/><use xlink:href="#DejaVuSans-30" x="63.623"/></g></g><g id="ytick_3"><use xlink:href="#me20476a203" id="line2d_6" x="38.05" y="104.201" style="stroke:#000;stroke-width:.8"/><g id="text_7" transform="matrix(.08 0 0 -.08 15.78 107.24)"><use xlink:href="#DejaVuSans-31"/><use xlink:href="#DejaVuSans-30" x="63.623"/><use xlink:href="#DejaVuSans-30" x="127.246"/></g></g><g id="ytick_4"><use xlink:href="#me20476a203" id="line2d_7" x="38.05" y="87.436" style="stroke:#000;stroke-width:.8"/><g id="text_8" transform="matrix(.08 0 0 -.08 15.78 90.475)"><use xlink:href="#DejaVuSans-31"/><use xlink:href="#DejaVuSans-35" x="63.623"/><use xlink:href="#DejaVuSans-30" x="127.246"/></g></g><g id="ytick_5"><use xlink:href="#me20476a203" id="line2d_8" x="38.05" y="70.671" style="stroke:#000;stroke-width:.8"/><g id="text_9" transform="matrix(.08 0 0 -.08 15.78 73.71)"><use xlink:href="#DejaVuSans-32"/><use xlink:href="#DejaVuSans-30" x="63.623"/><use xlink:href="#DejaVuSans-30" x="127.246"/></g></g><g id="ytick_6"><use xlink:href="#me20476a203" id="line2d_9" x="38.05" y="53.906" style="stroke:#000;stroke-width:.8"/><g id="text_10" transform="matrix(.08 0 0 -.08 15.78 56.945)"><use xlink:href="#DejaVuSans-32"/><use xlink:href="#DejaVuSans-35" x="63.623"/><use xlink:href="#DejaVuSans-30" x="127.246"/></g></g><g id="ytick_7"><use xlink:href="#me20476a203" id="line2d_10" x="38.05" y="37.141" style="stroke:#000;stroke-width:.8"/><g id="text_11" transform="matrix(.08 0 0 -.08 15.78 40.18)"><use xlink:href="#DejaVuSans-33"/><use xlink:href="#DejaVuSans-30" x="63.623"/><use xlink:href="#DejaVuSans-30" x="127.246"/></g></g><g id="ytick_8"><use xlink:href="#me20476a203" id="line2d_11" x="38.05" y="20.375" style="stroke:#000;stroke-width:.8"/><g id="text_12" transform="matrix(.08 0 0 -.08 15.78 23.415)"><use xlink:href="#DejaVuSans-33"/><use xlink:href="#DejaVuSans-35" x="63.623"/><use xlink:href="#DejaVuSans-30" x="127.246"/></g></g><g id="text_13" transform="matrix(0 -.08 -.08 0 14.116 105.261)"><defs><path id="DejaVuSans-66" d="M2375 4863v-479h-550q-309 0-430-125-120-125-120-450v-309h947v-447h-947V0H697v3053H147v447h550v244q0 584 272 851 272 268 862 268z" transform="scale(.01563)"/><path id="DejaVuSans-72" d="M2631 2963q-97 56-211 82-114 27-251 27-488 0-749-317t-261-911V0H581v3500h578v-544q182 319 472 473 291 155 707 155 59 0 131-8 72-7 159-23z" transform="scale(.01563)"/><path id="DejaVuSans-71" d="M947 1747q0-634 261-995t717-361 718 361q263 361 263 995t-263 995q-262 361-718 361t-717-361-261-995M2906 525q-181-312-458-464-276-152-664-152-634 0-1033 506-398 507-398 1332t398 1331q399 506 1033 506 388 0 664-152 277-151 458-463v531h575v-4831h-575z" transform="scale(.01563)"/><path id="DejaVuSans-75" d="M544 1381v2119h575V1403q0-497 193-746 194-248 582-248 465 0 735 297 271 297 271 810v1984h575V0h-575v538q-209-319-486-474-276-155-642-155-603 0-916 375-312 375-312 1097m1447 2203" transform="scale(.01563)"/><path id="DejaVuSans-6e" d="M3513 2113V0h-575v2094q0 497-194 743-194 247-581 247-466 0-735-297-269-296-269-809V0H581v3500h578v-544q207 316 486 472 280 156 646 156 603 0 912-373 310-373 310-1098" transform="scale(.01563)"/><path id="DejaVuSans-63" d="M3122 3366v-538q-244 135-489 202t-495 67q-560 0-870-355-309-354-309-995t309-996q310-354 870-354 250 0 495 67t489 202V134Q2881 22 2623-34q-257-57-548-57-791 0-1257 497-465 497-465 1341 0 856 470 1346 471 491 1290 491 265 0 518-55 253-54 491-163" transform="scale(.01563)"/><path id="DejaVuSans-79" d="M2059-325q-243-625-475-815-231-191-618-191H506v481h338q237 0 368 113 132 112 291 531l103 262L191 3500h609L1894 763l1094 2737h609z" transform="scale(.01563)"/><path id="DejaVuSans-48" d="M628 4666h631V2753h2294v1913h631V0h-631v2222H1259V0H628z" transform="scale(.01563)"/><path id="DejaVuSans-7a" d="M353 3500h2731v-525L922 459h2162V0H275v525l2163 2516H353z" transform="scale(.01563)"/></defs><use xlink:href="#DejaVuSans-66"/><use xlink:href="#DejaVuSans-72" x="35.205"/><use xlink:href="#DejaVuSans-65" x="74.068"/><use xlink:href="#DejaVuSans-71" x="135.592"/><use xlink:href="#DejaVuSans-75" x="199.068"/><use xlink:href="#DejaVuSans-65" x="262.447"/><use xlink:href="#DejaVuSans-6e" x="323.971"/><use xlink:href="#DejaVuSans-63" x="387.35"/><use xlink:href="#DejaVuSans-79" x="442.33"/><use xlink:href="#DejaVuSans-28" x="533.297"/><use xlink:href="#DejaVuSans-48" x="572.311"/><use xlink:href="#DejaVuSans-7a" x="647.506"/><use xlink:href="#DejaVuSans-29" x="699.996"/></g></g><path id="line2d_12" d="M19.413 137.73h25.56l.266-41.876.798-24.418.267-1.933.266.29.266.688.266 2.075.533 5.827.266 1.46.266.774.267.42.266.195.266-.362 1.331-5.699.267-.06.532.316.266.005.533-.32.266-.198.266-.035.267.456.266 1.283.532 3.613.267.334.798-2.246.799 2.32.266.197.267-1.127.266-3.097 1.065-22.098.266-1.252.266.345.799 2.127.266.255.266-.061.533-.55.266.055.266.852.8 5.161.265.56.267.022.266-.36.532-1.505.8-3.129.265-.645.267-.345.266-.088.266.113.533.613 1.597 2.29.799.944.532 1.241.533 1.252 1.597 1.855.8.558 1.597.93.798.984 1.065 1.295.533.284.532-.229.533-.537 1.065-1.387 1.597-1 .799-.54 1.597-1.657.533-.144.266.197.266.942.267 2.356.798 12.359.267 1.314.266-.003.799-4.243.266.322.532 2.677.267-.047.798-4.439.267-.18.266.594.532 1.963.267-1.562 1.33-13.812.267-.588.266.357.267.675.266-.55.532-4.081.267-.111.532 3.256.533 2.798.532 1.118.533.98.266 1.033.532 3.797.266 1.951.267.916.266-.116.266-.324.266-.115.8.033.265-.138.267-.463 1.065-3.705.266-.202 1.065.209 1.331-.42.266.545.267 1.327.266 2.486.532 7.51.267 1.92.266-.852.532-4.727.267-1.06.266.484.532 3.284.267.102.266-1.694.532-7.017.533-6.708.532-3.029.267.064.266 1.18.266 1.686.266 2.447 1.065 13.88.267.974.266-.061.266-1.365.799-6.454 1.065-13.056.266-.865.266.431 1.864 5.614.266.828.266 1.22.267 2.068 1.065 12.613.266-.705.266-3.118.533-7.748.266-.094.799 10.22.266-1.414.532-8.285.267-4.356.266-2.366.266-.633.266.343 1.598 4.375.532.534.8.274.532-.001 2.396-.705.532.136.267.288.266.583.266 1.04.266 1.733 1.065 9.874.267.816.266.283.266-.039.266-.68.267-1.936 1.065-11.313.266-1.53.266-.877.266-.33.266.096.267.389.532 1.383.533 2.628.532 5.067.533 5.134.266.191.266-1.75.533-4.587.266-.267.266 1.97.533 7.767.266 1.917.266-1.201.533-6.061.266 1.046.799 14.525.266-3.114.799-16.834.266-2.88.266-.462.266 1.087 1.332 8.232.266.415.266-.196.799-2.808.532 2.746.267-.243 1.065-6.302.266-.089.532.413.267.411.532 1.437.799 2.162.532.83.533.654.532 1.476.533 1.676.266.112.266-.66.533-3.336.266-1.586.266-.629.533.062.266-1.107.532-3.386.267.856.266 2.057.266 1.07.533-.609.266 62.316h9.052l.267-56.247.266 1.052.266 3.316.266 4.779.267 2.423.266-2.628.799-20.662.798-8.258.267-4.176.532-13.651.266-1.906.267 4.424.532 12.757.266 3.203.266 1.266.267-.312.798-2.802.267-.458.532-.302 1.065-.206.533.217.798.514.533.364.532.84.533 1.087.266.87.266 1.554.267 2.611.798 11.242.267 1.819.266-.595.532-4.979.267.602.266 2.493.266 1.214.266-1.285 1.065-8.512.267-.987.266-.294.266.517.266 1.394.533 5.168.532 5.798.267 1.386.266-.61.532-4.87.267.172.266 1.501.266.762.266.137.267 1.344.532 6.907.266.368 1.065-19.255.267.886.798 7.112.533 2.055 1.065 2.629.266 1.512.799 6.087.266-.282.266-.848.266-.385.533-.175.266-.368.799-1.657.266-.32.266-.135.267.066.266.3.266.62.533 2.325.532 2.765.266.884.267.393.266-.036.532-.769.533-1.33.532-2.132.533-2.246.266-.513.266.05.533 1.076.532 1.28.533.75.532.504 1.065.67 1.598 1.644.799 1.325.532.04.266.252.533 1.09 1.065 2.427 1.597 3.119.533 2.27.532 2.286.266-.142.8-4.64.265-.167 1.332 1.5 1.065.728.266-.657.266-2.072.799-10.9 1.065-8.063.532-1.404.533-1.249.266.302.533 1.232.266-.258.532-2.362.267-.412.798.843.267-.735.266-2.666.532-6.949.267-1.4.266.323.266 2.684.266 4.064.267 2.213.266-1.025.266-3.327.266-5.322.267 73.534H231.4" clip-path="url(#p9180c60333)" style="fill:none;stroke:#1f77b4;stroke-linecap:square"/><path id="line2d_13" d="M19.413 137.73h24.76l.267-32.005 1.065-18.483.532-7.844.533-11.202.266-1.136 1.065 11.709.266-.547.533-2.256.799-2.145.532-1.021.266-.297.267-.018.266.29 1.331 2.601.266.923.799 4.832.266-.223.533-3.788.266.638.533 3.599.266.032.266-.987.533-4.18.266-2.678.532-9.742.266-5.383.267-2.998.266-.675.266.378.799 1.673.266.207.266-.12 1.065-1.28.267.158.532 1.067.533 1.101.266.036.532-.213.8.461.265-.08.8-.603.532.062.798.265.533.5.799 1.066 1.33 2.045.267.189.533.807.532.894.266.057.267-.33.798-1.55.267-.203.266-.03.266.152.266.369 1.332 2.939.532.47.266.087.267-.043.798-.472.266.106.8.874.265-.38 1.332-4.29.532-.81.533-.235.532.218.266.141.267.007.266-.201.532-.745.267-.071.266.48.266 1.106 1.065 6.4.266.277.267 1.102.798 9.25.267.94.266-.375.266-1.812.533-6.864.532-10.627.266 78.435h1.065l.267-54.585.532-7.639.266-.588.267 1.46.266-.662.266-4.994.533-15.442.266-2.82.266 2.432.533 7.205.532 3.922.533 1.342 1.863 4.471.533 2.064.532.668.266.114.267-.23.532-1.358.799-2.453.266-.404.266-.093.533.261.799.923.266-.162.532-1.546.533-1.433.266.25.266 1.342 1.065 9.76.267.945.266.227.266-.275.533-.786.266-.257.266-.73.266-1.685.533-5.915.532-5.967.267-1.351.266-.33 1.331.731.266.591.267 1.11.532 4.153.799 7.853.266 1.4.266.226.267-.957.532-4.385 1.331-13.73.533-3.085.266-.78.266-.255.266.144.267.42.266.709.266 1.189.266 2.072.533 7.595.532 9.3.267 2.336.266-1.294.532-6.413.267-.858.532 1 .266-.858.533-3.643.266-.475.266.183.267-1.584.532-5.74.266-.243.533 2.499 1.597 8.384.267.207.266-.157.266-.564.533-2.608.532-2.629.266-.724.267-.374.532-.213 1.065-.237.266.18.267.372.266.642.266 1.224.266 2.27.799 9.48.266-.886.267-1.376.266-.236.266-.394 1.598-9.009.532-4.687.266-.586.266.461.533 2.013.532 2.692.267 2.024.532 6.864.533 5.964.266.14.799-3.607.266-.094.266.337.266-.726.8-6.2.532-4.457.266-.757.266.444.799 3.38.799 4.942.798 4.876.267.77.266-.02.266-.763 1.331-5.95.267-.009.532 2.861.266-.211 1.065-4.877.267-.016.266.46.532 1.867.799 2.875.533 1.351.798 1.652 1.864 5.851.532 2.552.267.543.266-.499 1.065-3.907.266-1.9.266-4.189 1.332-29.332.266-3.327.266-.927.266 2.126.267 3.73.266 88.022h8.254l.266-41.709.799-1.878.266-1.47.266-4.868.799-24.997.266-.117.533 3.448.266.558.532-2.56.267.948.532 7.261.266.64 1.065-9.743.799-3.32.532-1.738.267-.51.266-.154.266.18 1.065 1.74.266-.057.267-.214.266.02.532.587.267.098.266-.055.266.168.266.98.267 2.445 1.065 16.364.266-.486.266-.768.533-.235.532-.867.266-1.21 1.065-11.225.267-1.154.266-.085.266.631.533 2.584.798 5.257.533 5.455.532 4.839.267-.58.532-4.979.266-.62.267.116.266-.033.266.087.266.761.267.403.266-1.225.266-2.26.266-.47.533 6.965.266.256.799-4.78.266.655.799 4.534.532 2.334 1.065 5.439.266.339.267-.09.532-.535.266-.457 1.332-3.128.266-.284.266-.122.266.153.267.46.266.768.532 2.607.533 3.1.266.43.266-.902 1.065-6.583.267-.803.266-.429.266-.048 1.065.952.533.666.532.846.266.255.533.132 1.331.22.266.44 1.065 3.235.267-.178.266-.616.532-1.903.267-.323.266.517.532 1.759.533.972.532.767.799 1.321.532.404.267-.017 1.065-.67.798.068.267.179.532.723.533.774.266.232.266.016.533-.219.266.201.266.637.533 2.847.266 1.336.266.39.266-.005.267.787.532 4.608.266 2.318.267 1.119.266 29.348H231.4" clip-path="url(#p9180c60333)" style="fill:none;stroke:#ff7f0e;stroke-linecap:square"/><path id="line2d_14" d="m38.047 120.955.865.021.413-.015.14-.004.459.025.562-.024.19-.007.156.007.336.033.5-.039.143.003.908.028.433-.017.869.023.356-.046.163.006.14.012 3.138.108.04-.006.033-.07.1-.171.053.085.1.184.05-.106.1-.18.043.072.14.31.03-.101.066-.38.074.157.116.449.037-.148.073-.427.063.109.16.576-.133-.617.173.373.166-.674h.004l.04.456.05.946.053-.97.076.224.073-1.229.02.334.087 2.144.037-1.666.123-1.453-.047 2.595.053-2.512.133 3.804.027-2.45.113-2.19-.04 4.142.054-3.681.133 4.687.02-2.06.113-3.446-.037 4.949.047-4.381.146 5.114.01-1.012.117-4.804-.037 5.035.047-4.256.15 5.286.02-3.45.106-2.713-.033 5.191.043-4.223.143 4.913.007.41.033-5.444.06 4.439.023-4.03.01-1.266.07 2.536.027-.526.066 4.47.027-5.262.006-.316.054 4.45.003.22.027-5.2.003-.32.023 2.39.067-.451.017.788.06 3.693.026-4.958.093-1.018-.03 4.955.044-3.647.153 4.672-.114-5.185.12 4.663.11-4.907.02 1.282.003.038.02-.89.007.011.007-.177.053 1.616.06 3.262.026-4.075.007-.145.053 2.269.09-3.052.053 2.235.05 2.44.04-3.465.014.384.04.696.016-.937.07-1.212-.033 1.264.073-.209.063 3.07.054-2.66.04.129.016-.548.07-.526.037.657.066 2.507.047-2.322.016-.209.044.38.043-.008.003.001.01-.07.047-.412.046.632.064.97.06-.67.096-1.081.053.326.104 1.235.073-.527.07-.79.063.414.056.326.077-.128.07-.164.066-.197.047.165.087.277.05-.137.086-.243.057.137.08.315.06-.164.096-.145.05.054.153.166.04-.084.1-.126.03.047.106.117.043-.056.137-.128.026.054.097.102.03-.044.14-.09.003.019.027-.008.116.21.023.08.057-.175.09-.197.023.053.113.367.007-.092.06-.357-.043.4.1-.255.083.184-.034-.246.057.069.003-.036.083.289.017-.214.063.366.04-.529.027-.197.047.363.033-.116.076.646.054-.43.073-.835.036.543.09 2.828-.07-2.832.104.772.036-3 .063 3.343.06 2.723.03-4.275.014 1.264.043-3.977.043 4.344.03-3.218.043 7.213.06-8.6.004-.078.016 1.513.027 4.172-.01-5.871.103 4.804.073-5.417-.033 10.102.073-7.986.07-1.877.047 9.37.166-9.876-.156 11.002.18-8.333.036 9.007.047-12.245.026 3.895.02 4.47.057-5.426.066 10.157.047-13.736.046 9.365.077-6.755.003-.04.004.578.04 11.657.05-15.556.013 1.806.003-.275.023 6.01.067-5.761.05 9.793.003-.038.004.749.006 3.152.047-15.179.05 7.314.06-5.776-.047 8.652.09-.72.017 5.297.05-15.326.03 4.706.01 2.626.07-4.56.046 9.253.063-11.905-.05 15.428.183-10.085.034 9.04.05-13.672.013 2.444.003-1.358.043 8.631.06-6.763.064 9.798.033-11.689.013 2.053.003-1.708.044 7.655.06-5.904.06 9.475.036-10.189.013.926.004-1.373.043 5.657.06-4.052.057 8.162.053-8.068.003-.57.057 3.087.043-1.956.057 5.866.053-5.619.02-.441.056 1.78.027-.876.003-.006.004.206.053 3.36.063-2.647.04-.926.077.23.06 3.315.066-2.57.09-1.322.027.865.046 3.22.07-2.662.083-1.635.033 1.04.057 3.28.06-2.55.05-1.858.073 1.572.047 2.903.066-2.626.047-1.956.07 1.224.06 3.473.056-2.728.053-2.028.067 1.476.053 3.353.064-2.795.046-2.18.07 1.623.06 3.582.056-3.177.064-2.234.053 1.872.053 3.603.06-2.957.073-2.746.044 2.186.046 3.748.067-3.496.07-2.558.043 2.287.043 4.385.067-4.396.07-2.461.04 2.016.043 5.974.066-5.54.097-2.659.017 1.972.04 7.058.066-6.24.097-3.305-.084 4.248.1-2.389.04 8.106.067-7.903.093-2.28-.083 5.021.1-3.47.04 8.795.066-7.61.093-2.733-.08 5.145.1-3.567.04 8.746.067-9.129.01 4.484.036-5.44.08 3.298.023 6.755.07-9.76.014 3.438.033-4.084.07 5.178.006-1.746.004-.098.003 2.685.02 5.04.07-10.815.013 3.997.034-4.42.006 5.23.07-1.65.003-.05.027 7.39.05-10.271.03 4.792.05-5.169.06 3.306.026 5.428.004 3.066.05-11.625.05 2.47.123 9.29-.09-11.807.093 7.721.047-8.58-.037 8.94.103-6.869.107 11.085-.094-12.937.097 8.099.047-8.413-.034 9.815.1-7.265.107 11.117-.094-13.739.097 8.657.067-8.567-.054 10.492.1-7.95.107 11.338-.074-14.707.08 5.628.064-4.583-.054 11.137.1-8.956.11 10.948-.093-13.476.096 11.27.087-10.849-.073 11.482.1-9.05.11 10.21-.094-12.407.1 5.864.083-5.125-.07 10 .1-7.392.11 8.535-.097-11.529.1 8.556.047-8.673-.033 9.362.1-7.414.113 8.81-.074-10.276.08 4.71.01 2.556.127-7.104.086 9.598-.073-10.25.103 3.164.113-3.682-.1 5.91.104-4.266.083 8.22-.07-10.21.1 4.975.113-4.683-.063 5.539.066-5.13.063 9.878-.046-10.282.1 4.834.113-4.227-.067 4.477.074-2.453.06 7.003-.05-8.799.113 3.667.103-3.223-.087 3.688.11-2.68.047 6.298.076-3.843.09-2.927.037 1.743.033 4.673.08-3.869.103-2.545-.09 2.612.11-1.065.033 4.63.084-3.872.1-2.326.02 1.436.05 4.717.062-3.819.104-2.229.02 1.212.046 4.81.07-3.88.103-1.877.02 1.285.04 4.43.073-3.781.11-1.741.017 1.132.043 4.554.07-3.744.067-1.836-.054 1.897.117-.949.043 4.919.07-4.033.067-1.98-.054 2.332.117-1.126.043 5.284.053-5.323.017.87.013.496.057-2.52.01.113.003-.087.047.975.046 5.735.07-4.411.01.82.057-3.166.033.91.017-.669.013.99.043 5.858.03-5.915.04 1.156.01 1.533.05-3.904.04 1.083.017-.876.02 2.104.04 4.987.03-7.188.05 4.582.106-4.925.017 1.366.043 6.092.03-7.824.04 3.229.01 2.35.026-5.072.06.951.02-1.25.023 4.198.04 3.243.027-8.408.037 4.635.04-4.007-.027 6.034.11-5.437.06 7.31.026-9.314.037 5.657.04-4.82-.027 6.715.11-5.46.06 7.301.027-10.012.036 6.022.04-4.877-.023 6.867.106-5.565.064 7.277.023-9.768.033 5.823.02 2.26.017-4.041.01-2.838.046 4.379.05-1.093.047 5.132.026-9.82.037 5.094.04-4.074-.023 7.573.103-6.187.063 7.51.027-9.734.03 6.323.116-5.647-.09 7.563.094-7.295.07 8.872.03-9.248.033 4.168.043-2.926-.02 5.975.067-1.902.103 4.28-.084-10.369.09 7.661.017-8.066.02 10.788.073-2.568.053-8.122.024 8.64.03-1.746.023 3.693.027-9.806.06 6.289.086-6.871.02 8.337.003.155.014-4.541.02 4.458.02 1.388.026-9.768.004.006.023 11.273.113-5.958.09 5.191.026-11.257.024 11.784.11-3.617.103 2.729.016-10.888.024 13.009.116-8.085.113-5.696-.026 12.324.03-11.677.02 12.9.096-10.124.04-1.17-.023 7.164.066-2.386.077 6.34-.023-13.288.06 9.006.003.43.023-6.409.033.245.04-1.067.047 6.956.076 4.686-.026-14.528.043 6.635.117-3.21-.097 6.785.1-6.29.12 10.688-.024-14.459.027 13.778.06-9.677.063 1.02.007-1.099.05 6.246.01-1.27.063 5.377-.023-14.36.066 8.2.09-4.055.01 4.007.07 3.965-.043-5.693.053.103.01-6.08.023 13.503.077-7.535.043-2.267.027 4.036.026-.587.084 5.46-.024-12.486.043 5.433.097-1.97-.07 3.612.083-2.362.08 6.45.014-7.76.006-3.071.027 11.75.073-6.325.043-2.6-.03 3.835.05-.477.063 5.245.027-11.452.003-.025.024 11.623.103-6.436.01-2.725.076 7.685.01 1.52.027-11.825.043 5.575.097-3.942-.03 7.412.046-4.18.124 7.2-.027-12.31.03 12.27.106-11.17.017 4.076.067 7.07.026-12.077.004-.33.013 9.323.017 3.484.05-9.107.036 3.023.02-5.71.067 10.554.006-.682.007.834.063 1.297-.03-12.991.053 5.658.084-4.822-.03 9.835.05-4.01.09-6.734.03 12.925.003.29.013-8.116.007 1.492.083-5.605-.027 9.814.05-3.882.09-7.457.03 13.861.107-12.59.04 6.142.103 6.536-.03-14.146.036 8.397.097-6.69-.027 9.96.04-4.43.007-.434.05 5.991.01-.32.063 1.961-.03-14.43.053 6.144.08-4.158-.027 9.76.05-3.844.12 6.799-.03-15.041.033 13.574.1-10.906.014 5.83.026-1.714.024 4.445.066 3.957-.017-15.032.05 6.412.004.04.003-1.254.077-2.16-.027 8.18.037-3.91.076 6.837.017-12.007.01-2.586.016 15.663.064-10.631.053-1.168.07 8.854.013 1.493.01-7.213.017-5.572.016 15.048.074-7.27.13 5.804-.084-10.961.087 9.843.02-13.27.02 15.67.073-6.02.126 4.112-.083-9.785.087 8.608.02-11.86.02 15.167.073-6.424.013.268.007-1.698.023-3.922.073 7.819.054 3.47-.02-15.275.04 6.98.096-3.119-.043 6.76.056-4.596.004-.144.026 3.285.08 5.816-.023-14.506.043 8.333.1-5.747-.047 7.304.06-4.423.067 7.666.01-9.945.006-3.088.024 13.527.07-5.028.116 4.193-.066-10.333.07 9.907.003-.032.006.93.017-12.813.1 8.748.04-7.106.06 8.97.006 2.168.03-12.626.064 5.739.08-4.902-.03 8.44.056-1.031.01-2.052.023 4.757.02 1.486.024-11.936.053 6.93.013-6.596.04 8.38.057-1.499.01-.75.006 2.102.01-.288.024 4.192.026-12.821.054 6.892.023-5.808.026 8.119.06-2.25.01.795.04 5.128.027-12.199.047 8.95.03-9.073.09 6.352.043 5.564.026-11.287.05 8.509.027-8.598.093 5.176.04 6.031.03-10.062.05 6.996.026-6.116.104 4.383.033 2.83.03-5.258.036.725.08 1.276-.03-1.725.057.319.033.918.043.72.02-1.158.044.432.11-1.015-.037 1.415.053-.977.047.45.03-.752.043.647.013.15.064.93.05-.819.08-.966.056.545.106.886.047-.396.086-.672.05.316.107.293.027-.123.17-.256-.137.32.14-.309.15.322.023-.043.113-.31.05.14.096.198.04-.12.1-.209.037.114.1.272.073-.204.056-.15.064.128.093.152.063-.108.1-.097.03.05.11.087.033-.032.226-.012.103.015.02-.024.107-.059.033.04.093.089.057-.05.113-.053.037.038.113.021.026-.025.403-.009.2-.003.133.037.376-.001.316-.017.163-.03.187.005.552.026.253.026.246-.04.376-.007.113.08.02-.026.117-.036.027.034.106.068.02-.028.13-.112.016.03.04.134.037-.15.04.076.083-.223.05.121.003.021.08-.185.053-.168.02.347.027.328.053-.754.01-.341.084 1.192.093.102-.047-.782.053.471.06-.65-.046 1.13.083-.358.106 1.01-.043-1.2.06.967.057-2.072-.047 2.201.133-1.387.063 3.92-.043-4.36.073.459.05 1.089.063-3.257.077 8.186-.06-8.492.087 2.244.07 4.658.043-9.296.083 11.222.037-5.588.006-7.402.047 12.946.06-11.72.1 11.62.026-9.456.004-2.995.046 12.518.06-11.276.1 12.719.027-9.48.093-4.382-.044 11.422.064-9.102.1 11.781.023-7.266.1-7.294-.044 11.712.06-7.533.004-.688.073 5.605.026 5.767.047-13.358.04 9.294.037-11.782.086 7.742.033 8.071.047-13.975.047 9.272.033-11.217.09 8.05.033 7.146.043-12.765.044 9.942.036-11.902.09 7.02.03 6.822.047-10.67.053 6.783.026-9.03.084 7.768.036 5.131.02-8.905.024-1.41.016 2.549.01 4.991.06-8.85.04 4.099.003-.045.004.85.076 5.963-.063-9.052.086 1.088.03-.51.034 4.946.01-.31.006.538.027-6.478.057 3.344.006-.749.063 5.023.037-3.742.02-1.45.043 2.754.007.44.03-2.954.06 1.176.08 1.608-.067-1.968.113.802.09-1.228-.046 1.811.086-1.722.037-.226.046 1.897.04.875.057-1.173.11-1.705.02.15.086 2.933.057-1.701.093-1.51.046.729.08 2.451.054-1.766.103-1.285.03.376.09 2.534.05-1.517.1-1.38.033.352.093 2.539.05-1.583.096-1.267.037.38.086 2.439.06-1.637.09-1.19.043.586.077 2.313.06-1.71.093-1.268.043.737.074 2.174.06-1.522.086-1.303.05.717.083 2.044.057-1.644.086-.899.047.168.053 2.399.103-1.331.07-1.493.05.916.047 3.677.053-4.429.003-.096.02 2.1.007.807.053-4.213.033.94.004-.138.053 2.224.04 3.255.023-6.926.03 2.662.073-1.957-.05 5.39.07-2.025.113 3.418-.093-6.956.1 4.875.013-6.899.05 7.399.05-3.579.044-2.682.05 4.869.043 2.922.016-9.339.004-.118.006 2.512.017 6.207.05-7.027.05 4.453.01-1.581.01-3.715.09 8.617.003.941.02-11.109.066 4.318.077-3.292-.053 7.446.083-3.147.01-.812.013 3.603.027-.548.013 4.06.02-12.63.063 5.154.08-3.574-.053 8.712.08-4.153.013-.657.014 3.852.026-.473.013 4.52.02-13.442.064 5.436.08-4.114-.05 8.553.076-3.198.014-1.65.043 5.999.01 3.079.02-15.913.063 6.103.08-3.474-.053 10.113.08-4.834.01-1.07.05 8.199.003.478.016-12.055.004-1.885.026 10.539.064-.324.003.205.01-5.101.043-3.423.05 7.32.01-1.717.03 6.108.017-11.56.003-1.344.027 10.187.063-1.605.003.432.05-7.91.093 11.857.014-10.217.006-2.315.023 9.335.07-1.534.05-6.433.064 5.984.02 3.09.006 1.5.023-11.08.06 3.558.08-2.17-.046 4.95.07-1.085.07 5.044-.054-6.257.063.796.01-4.36.024 7 .076-2.351.04-3.297.03 3.785.023-.103.04 4.336.024-8.262.053 5.133.09-4.123.033 1.985.003-.1.03 2.366.024 2.9.023-6.903.056 3.415.087-2.756.03 1.227.01-.238.007.532.043 3.954.05-4.913.006-.14.02 1.843.074-1.385.116 2.267-.1-2.548.133 1.616.02-.957.1.19.08-.436-.056.517.073-.081.076.692.047-.304.116-.53-.096.581.11-.466.02-.141.016.222.04-.013.107.599.036-.314.133-.491.004.016.12.676.033-.073.106-.592.057.282.086.351.057-.202.083-.279.077.131.07.242.06-.108.096-.201.07.165.043.105.073-.09.104-.115.03.033.136.086.02-.048.14-.084.01.013.15.105.006-.004.063-.034.024-.038.146.05.053.076.047-.118.196.108.104.01-.064-.08.07.068.147-.083.033.078.053.059.053-.087.05-.117.07.08.083.156.04-.12.047-.183.06.21.103.233-.063-.405.076.248.057-.533.076.426.097.347-.063-.493.08.282.046-.75.047.795.013-.125.103.849-.05-1.234.064 1.082.003.02.013-.473.034-1.268.076 1.212.013-.59.06 2.29.007.531.063-3.68.023 1.201.03-2.902.07 4.112.027 3.098.05-8.255.033 4.838.057-4.048-.044 6.008.1-3.973.04 6.26.033-9.384.047 6.947.06-6.26-.047 6.747.104-4.411.043 6.943.03-9.636.033 2.993.077-2.333-.064 6.574.097-4.426.066 6.836-.046-7.723.073 1.317.007-2.759.043 6.015.063-4.832.1 6.699.03-4.404.017-2.019.046 2.81.047-1.475.106 2.108-.06-2.654.084 1.939.156-1.5.133 1.421.04-.265.093-.857.047.094.03-.25.04.553.066.657.054-.345.013-.09.086-.789.057.326.11.812.023-.216.16-.666.003.015.147.627.043-.26.057-.31.08.06.116.49.033-.154.08-.378.06.176.066.292.077-.176.063-.238.067.144.103.235.037-.085.08-.235.07.119.113.187.023-.107.11-.174.023.022.203-.012.003.025.04.165.03-.243.047.161.01.039.05-.277h.003l.013.11.087.193.033-.092.13-.477-.077.618.084-.436.11.55.01-.185.013.398.036-.56.024-.385.043 1.01.036-.33.06 1.406-.05-1.54.094.058.103-.985-.043 1.259.06-.93.06 3.58.03-5.183.01.78.006-.166.023 3.146.007.603.043-5.562.037 1.646.016-.403-.01.625.014-.117.046 6.53.03-8.63.054 6.918.04-7.977.08 5.015.026 6.154.03-11.213.06 6.675.036-5.83.017 7.697.06-3.576.027 6.25.003.858.027-12.98.06 8.166.03-6.703.026 8.607.06-4.639.003-.124.02 3.316.007 4.387.03-12.49.066 3.33.02-2.974.027 9.318.053-4.226.04 6.981.027-11.702.05 8.159.04-8.58.026 8.666.054-4.274.04 6.266.036-9.787.043 6.551.04-7.271.024 7.714.07-3.568.04 5.827.026-8.965.05 5.186.03-6.39.023 7.957.063-3.178.007-.19.017 2.756.03 2.674.02-8.12.053 4.38.033-5.955.02 7.467.06-2.779.01-.327.01.819.037 4.348.023-6.925.05 3.17.036-5.731.02 6.62.06-2.206.01-.732.044 5.454.003.241.02-6.287.013 1.104.077-3.939-.043 7.105.063-1.024.006-.557.04-3.547.064 4.895.01 1.318.046-5.431.037 1.695.03-2.637.02 3.267.066-1.105.01-.24.037 2.356.013.938.043-3.924.037 1.26.03-.965.087.601.07 2.015.04-2.03.033-.231.02.808.056-.615.017-.056.006.12.11.727-.05-.85.067.664.043.21.083-.432.004.002.016-.09.03-.348.09.219.097.551.036-.184.107-.428.026.083.1.34.054-.114.16-.136.023-.038.046.122.093.082.05-.086.067-.139.056.1.087.176.043-.078.057-.28.073.193.073.194.05-.117.067-.222.066.135.034.001.026.083.013.049.08-.149.12-.009-.05.06.053-.046.117.075.003-.026.04-.069.047.152.016-.003.04.006.01-.093h.027l.007-.086.05.173.05-.026.033.094.046-.168.037.047.09-.132-.073.174.096-.076.023.108.067-.305.017.108.046.136.08-.054.117-.089-.104.142.127-.08.063.114-.05-.147.1.032.103-.118-.05.254.06-.171.04.217.09-.175.023-.018.034.217.01-.019.02.082.053-.28.03.108.07-.35.033.435.083.453-.073-.609.083.576.023.247.057-1.801.176 2.992-.16-3.002.167 2.125.043-2.846.087.682.103 4.035-.083-4.266.106 1.72.03-2.506.093.96.08 5.294-.066-5.946.096 1.184.02-2.689.053 4.58.04-2.218.1 5.714-.063-7.378.09 4.136.026-6.683.054 7.447.033-4.359.023-1.202.034 3.08.01-.53.04 6.2.053-11.64.003-.59.03 10.572.04-3.48.04-4.576.033 5.143.013-.312.06 4.856.03-13.032.004-.198.003 5.088.027 7.14-.014-11.094.094 1.326.003.056.086 11.076.024-8.567.026-6.359.01 14.286.07-4.71.033-6.61.05 9.297.014-.341.043 2.94.01-10.817.017 3.581.006-7.364.047 13.933.056-4.93.007-5.834.093 11.266.01-8.853.05 8.477-.01-14.22.07 8.569.043-4.855.05 7.61.007-.525.086-10.214-.05 14.029.054-7.953.043 7.407-.03-12.09.097 3.087.093 9.611.02-6.463.026-7.998.01 14.482.074-6.462.03-3.785.073 8.81.05-9.031-.027 10.192.043-9.089.004-5.481.01 15.026.096-8.486.007-1.967.076 8.386.01-.455.067 2.002-.01-14.481.05 13.458.063-9.302-.05 10.065.1-2.824.01-1.307.033 4.337.02 1.234.033-15.531.014 5.523.003-3.271.03 11.49.077-7.671.1 9.274-.007-10.984.013 2.334.027-7.263.01 15.092.073-7.902.03-2.294.07 7.357.043 3.896.03-15.347.013 12.079.007-10.352.03 11.807.076-8.029.1 9.87-.006-10.504.013.4.027-6.14.01 14.64.063-4.49.026-4.896.09 8.788.067-14.705-.033 16.751.076-4.604.003 2.897.054-8.855.05 4.029.003-.068.01 1.636.007-.28.053 5.313.01-11.797.016 5.59.007-10.572.01 16.362.093-9.463.007-.567.003.123.11 10.227-.007-10.879.01 8.938.03-14.26.01 15.562.074-7.606.026-2.331.073 8.038.074-13.403-.034 15.826.077-4.36.003 2.597.06-9.275.043 3.638.074 7.17.01-10.671.016 3.932.007-8.327.06 13.77.046-9.801.007 1.656.093 8.862.02-4.427.03-9.414.06 13.29.023-6.913.024-3.363.073 9.374.003-1.032.004-.006.02 2.128.046-13.56.017 4.82.093-1.923-.047 10.014.057-6.315.086 6.558-.073-7.865.097 2.54.026-7.878.047 12.672.03-3.475.033-6.624.083 10.871.064-12.424.056 9.262.004 1.915.05-9.597.056 7.057.027 3.561.06-9.964.003-1 .06 9.606.033-6.84.113 7.784-.096-9.296.1 7.488.046-6.924.06 6.998.01-5.126.037-1.533.1 7.986.03-7.059.09 1.675.036-2.088.1 7.278.046-6.08.077 1.867.133 4.032-.1-6.133.103 5.733.047-4.963.073 1.516.133 3.278-.083-4.901.087 4.744.063-4.023.093.084.113 3.246-.1-3.606.137 1.907.133-1.4.003-.039.04.626.077 1.508.046-.788.113-.895.017.058.127 1.303.056-.583.11-.79.033.11.13.982.063-.447.077-.629.056.202.124.811.04-.252.113-.865.053.431.096.553.04-.066.13-.845.043.326.107.47.02-.071.11-.48-.1.5.106-.488.034-.15.066.302.004-.024.02-.037.046.295.007-.02.05.35.056-.477.087-.476.043.214.1 1.192.046-.72.07-.896.1.507.05 1.389.07-1.225.04-.708.11.283.053 2.166.067-1.67.006-.006.007-.087.093-1.167.03.588.05 3.168.053-3.178.033 1.183.084-1.8.043 1.239.04 3.135.046-4.152.077-.501-.047 2.708.064-1.532.11 3.798-.08-4.598.096 1.644.107-2.446-.044 3.351.054-2.21.116 4.726-.076-5.213.09 2.203.11-3.13-.044 3.938.05-2.974.116 5.528-.073-5.766.087 3.19.11-4.219-.044 4.723.05-4.085.12 6.294.01-1.16.116-5.694.004.506.126 5.957-.073-6.015.077 5.64.023-6.047.103 1.611.123 4.548-.08-5.722.087 4.93.023-4.787.1 1.11.126 4.035-.083-5.595.093 4.406.024-3.289.096.54.133 3.954-.09-5.37.104 3.52.03-2.473.093.399.01.185.016-.987.007-.14.043 1.607.02-.15.034 2.806.04-3.328.043 1.158.093-1.699.03.896.07 2.011-.043-2.013.096.295.02.486.067-.728.026-.606.077.6.06 1.13.076-.654.15-.695.017.256.103.645.026-.173.12-.709.047.165.126.512.047-.126.1-.377.05.158.096.314.043-.109.104-.316.033.1.093.316.047-.14.106-.233.043.107.087.15.033-.072.007.01.027-.096.026.003.047-.085.06.119.083.058.036-.044.117-.07.003.017.137.121-.13-.127.133.124.087-.001-.024-.048.027.012.046-.034-.02.046.087-.038h2.53l.003.126.083-.189.023.08.047-.084-.01.152.073-.077.107.09-.097-.178.1.113.056-.154.007.224.047-.141.06-.047.056.162.067-.225-.047.268.11-.131.083.154-.073-.172.103.12.003.038.077-.321.003-.063.094.268.06.814.053-.705.05-.756.08.288.07 1.707.05-1.504.132-.982-.07 1.022.09-.782.064 2.738.056-2.31.133-1.064-.07 1.79.084-1.643.073 3.398.063-2.69.013.075.044.976.05-1.364.02-.391.05 1.663.036 1.29.063-1.75.147-.642-.1.887.123-.69.073 1.734.077-.93.133-1.025.03.356.073 1.514.07-.751.116-1.03.037.24.083 1.509.07-.834.1-.82.047.161.1 1.38.073-.797.076-.753.06.363.117.946.046-.393.07-.663.073.28.08.3.067-.083.016.017.05-.134.074-.069.033.102.046.144.047-.213.047-.131.026-.08.043.225.104.331.033-.05.153-.802.04.538.05.845.066-.553.124-1.31-.06 1.44.106-1.044.097 2.075.05-1.416.02-.296.046.803.003.021.01-.58.044-1.674.066 1.608.057 2.577.043-2.613.12-1.782-.057 3.305.067-2.986.113 4.488.023-2.466.114-3.07-.044 5.147.06-3.917.007.096.126 4.812-.083-5.018.097 2.578.106-4.67-.05 6.853.06-5.308.12 4.362-.057-5.017.067 3.916.027 2.552.01-4.52.106-2.314-.053 7.328.056-6.609.067-.867.056 5.062.004.016.003-.295.05-5.39-.017 8.225.06-.517.004.963.026-7.407.06 1.293.007-1.572.086 4.822.014-1.9.023 4.694.017-9.398.063 3.743.08-2.511-.02 4.644.056-2.861.087 6.4.013-9.113.003-.317.024 7.87.016-2.56.007 2.836.027-6.61.07.568.123 7.556.006-3.011.01-7.49.027 10.008.073-3.223.04-3.7.083 2.218.05 5.583.01-8.216.007-2.851.023 11.734.067-1.314.003.219.017-5.262.07-2.89.013 3.404.027-1.746.056 7.564.01-10.276.007-3.975.023 17.671.067-1.325.003.618.023-14.818.04 6.075.024-3.36.066 5.977.017-1.876.06 9.799-.027-20.874.067 7.404.05-3.938-.024 16.358.07-10.457.12 8.752-.103-11.721.11 7.633.01-14.238.026 22.103.073-7.233.017-11.197.103 4.168.067 10.805.01-12.33.006-6.94.027 22.28.07-4.494.02-13.986.103 5.353.063 8.145.047 4.97-.023-22.833.07 8.872.046-5.233-.027 17.014.08-8.402.014-3.55.066 4.606.017-1.391.063 13.524-.027-28.563.07 15.171.05-9.392-.026 18.195.093-13.242.106 14.436.007-10.968.007-14.674.03 31.216.073-12.691.016-12.61.017 13.756.093-6.868.11 19.323-.027-30.967.034 19.815.083-14.715-.023 16.153.05-4.535.003.083.003-1.849.073-5.604.024 7.452.016-5.007.09 14.689-.03-24.538.04 8.869.08-2.08-.03 10.135.05-3.9.043-3.236-.033 4.457.097-2.5.05 4.464.03-6.23.033 4.745.023-5.23.103 2.799.017.345-.007-.439.01.113.013-1.89.087 3.56.007-.886.006.811.054 5.459-.02-13.835.073 7.873.046-3.807-.023 5.473.097-3.014.066 1.866-.023-4.198.07 3.13.066-2.32-.026 3.217.076-2.325.093 1.585-.023-2.198.053 1.214.027 1.979.027-2.491.053.596.013-1.052.023 2.275.067-.009.083-2.183.063 1.478.074 1.489-.024-3.615.037 1.254.083-1.484.017 3.224.003.3.02-2.869.063 1.03.064-.909-.027 3.18.067-1.44.006-.059.07-1.325-.023 1.861.066-.74.05.55-.023-1.51.077.681.01.073.03-.44.033.237.083-.346.017.464.006-.028.02-.234.05.349.02-.044.053.174-.02-.328.074.093.006-.106.09.392.003.045.024-.438.07.218.07.138-.024-.227.037-.005.07-.15-.03.196.066-.006.054.183-.024-.277.09.178.073-.214.037.227.013-.128.01-.104.027.284.063-.023.007.05.023-.224.07.084.033.075.093-.205.017.102.05.093-.02-.209.063.01.004-.002.013.109.01.112.027-.332.066.116.003-.004.014.12.013.09.027-.259.056.039.007-.008.02.202.066.106-.03-.312.057.025.07-.068-.027.313.047-.127.08.148-.027-.263.05.056.07-.007-.023.153.036-.09.014.097.093-.13.006-.017.027.092.067-.03.093-.008-.063-.052.073.033.12-.04.006.011.087-.003-.05-.024.073-.006.137.004.003.008.133.033.14.029-.11-.054.12.039.106.015-.07.01.077-.003.15.01.24-.01.545-.052.4.012.126.009.163.027.206-.026 11.406-.1.03-.112.07.185.096.122-.06-.138.097.058.143-.195.003.002.01-.03.043.31.06.805.04-.763.06-1.357.05 1.13.05 1.56.046-2.014.007.123.057.789.02-1.085.05-.972.033 2.683.033 1.631.047-3.838.043 1.735.013.629.067-3.459.003-.007.004.076.06 5.484.103-1.72.07-3.976.03 4.098.03 1.903.043-5.4.01.341.05 3.171.033-3.556.02.056.013-.532.03 3.587.03 2.471.047-5.366.016.443.04 2.842.034-3.592.02.257.016-.79.023 3.03.037 3.294.043-5.319.024.692.023 1.677.01.64.063-3.948.007-.165.023 3.206.037 3.245.04-5.142.023.526.037 2.08.023-3.127.043-.641.033 3.827.03 2.483.04-4.886.024.248.033 1.922.026-2.962.044-.683.03 3.493.03 3.053.043-5.061.023.369.033 1.675.02-2.156.05-1.327.034 4.028.026 2.515.04-4.96.027.456.1-2.007-.07 3.222.09-1.443.04 4.788.056-5.002.013.243.1-1.966-.07 3.25.087-1.63.043 5.282.067-5.15.003-.05.02 1.106.007.422.07-3.31.003.045.033 3.874.027 3.042.053-5.085.003.065.01-.169.007.675.02.675.063-2.826.007-.201.03 2.754.036 4.05.064-5.143.01.919.086-2.55-.07 2.772.097-.732.04 4.593.063-4.95.01.82.09-2.532-.073 2.606.1-.444.04 4.463.06-4.673.01.678.09-2.576.026 1.825.04 4.589.073-3.99.09-2.376.026 1.863.04 4.226.074-3.894.09-1.936.023 1.201.04 4.216.076-3.52.09-1.927.027 1.347.05 4.112.063-3.623.09-1.951.026 1.59.05 4.194.064-3.794.09-1.916.026 1.655.053 4.079.06-3.829.073-1.842.044 1.446.053 4.302.06-3.69.076-2.19.04 1.273.057 4.746.06-3.786.076-2.175.04 1.134.06 4.918.057-3.675.04-2.348.076 1.076.063 4.865.057-3.768.04-2.208.076 1.165.064 4.752.056-3.655.044-2.238.073 1.203.056 4.401.064-3.397.046-2.055.073 1.255.07 3.714.054-2.916.043-1.82.07 1.476.086 1.605.05-.893.083-1.068.047.57.146.698.024.124.053-.467.116-.75.034.148.09 1.353.063-.7.066-1.105.064.65.096.912.05-.442.07-.654.07.202.163.497.043-.113.1-.497.063.3.07.445.063-.271.09-.455.05.268.073.378.054-.237.09-.315.053.21.063.186.053-.107.083-.29.047.11.15.303.003-.052.087-.328-.074.335.1-.105.063-.421-.043.502.05-.125.103-.39.01.902.054.087.063-1.287.083 1.171-.047-1.25.084 1.099.026-.768.027 1.065.053-.298.003.159.064-.923.03.475.006-.361.1.705.017.026.126-.784.177 1.142-.14-1.281.166 1 .1-1.336.05.426.003-.011.02.276.063 1.484.054-1.216.11-.908.03.235.003-.005.006.165.064 2.39.05-2.265.033-.755.047.763.05-.664.076 3.442.05-2.97.007-.136.073.627.046-1.477.08 4.398.047-3.787.02-.794.066 1.715.027-1.18.02-.416.027 1.246.04 3.303.056-3.236.027-1.594.063 2.286.023-1.179.027-1.107.06 4.215.01.66.056-3.522.024-1.017.066 1.794.024-1.075.026-.895.05 2.786.027 1.578.06-3.167.086.677.03-1.352.11 3.081-.093-3.493.143 1.9.143-1.514.013.207.007-.147.023.687.077 1.87.05-.971.133-1.211.15 2.034-.14-2.056.18 1.322.13-1.17.01-.096.116 1.556.06.241.063-1.475.066.663-.006-1.192.056.956.034-.428.006 1.187.067-.51.023.489.063-1.07.02.089.077.437-.007-.592.047.533.03.07.083-.829.017.674.026-.75.073.714.007-.315.043.461.057-.295.003.213.084-.647.016.426.017-.448.093.58.103-.319.007.386.003-.27.017.203.076-.335.01.07.004-.09.093.22.01-.055.063.184-.007-.24.057.108.096-.228-.09.239.124-.1.006-.067.11.27.113-.285.107.42-.087-.528.097.523.007-.363.083.401.023-.215.037.176.023-.353.047.25.053-.26.053.389.057-.31.006.494.047-.269.076.17-.026-.415.06.342.02.052.096-.43.03.214.047-.314.016.097.004-.212.076.582.027-.256.036.297-.006-.343.08.065.073-.276-.047.432.087-.292.073.414-.063-.46.103.306.106-.2-.096.23.106-.211.097.249.013-.182.004-.001.073.229.04-.069.05.09.063-.202.033-.072.15.257.047-.32.08.044.006.029.003-.099.024-.088.053.757.03.465.053-1.119.043-.569.08.155.08 1.81.057-1.192.14-1.273-.064 1.442.067-1.373.1 2.627.04-1.004.076.03.063-1.875.004-.074.043 1.422.08 1.756.033-1.304.14-2.453-.067 2.77.084-2.326.103 3.294.043-1.689.133-2.47-.05 3.306.063-2.987.007.258.117 3.793.02-.791.136-3.308-.05 3.46.053-3.297.004-.01.01-1.102.063 3.976.013-.125.06 1.535.04-2.246.117-2.164-.047 3.333.05-3.184.013-.94.01 1.205.01-.045.117 4.462.006-1.046.06-2.985-.046 3.263.103-1.322.006.533.047-4.133.05 3.46.027-.638.046 2.303.013-.05.007.676.067-4.482.026 2.002.087-3.038-.067 4.076.107-1.642.103 2.495.02-.873.046-2.653.08 1.12.007-.115.03-1.797.067 2.636.006-.159.007.026.007-.09.006-.191.063 1.804.017-.627.01-.574.043-2.032.067 2.12.05-1.686.083.993.033-.675.057.929.043.63.06-.807.1-.897.043.344.137 1.203.01-.108.22-1.482.003.06.116 1.888.043-.984.13-.886.02-.37.043 1.002.13 1.68-.076-1.967.08 1.901.066-2.58.06 1.386.007.132.046-1.785.027.578.14 2.422.04-1.486.023-1.392.066 2.139.02-.657.044-1.891.073 1.378.096 2.21-.076-2.408.103.48.023-1.288.067 2.243.03-1.78.02-.896.046 1.371.12 2.38-.066-2.447.086 1.802.043-2.63.074 1.747.053-2.166.063 1.84.013-.385.04.419.047 2.082.043-3.23.07 2.027.047-3.084.006.113.01-.125.02.914.14 3.498.017-1.471.15-3.089-.047 3.378.063-2.939.153 4.175.01-.364.05-3.598.093.099.017-.794.06 2.39.006-.069.03-.68.04 1.586.034 1.375.05-3.217.013-.434.046 2.54.007.176.04-2.866.013-.495.057 1.954.023-.454.027-.306.03 1.196.036 1.55.057-2.858.01-.173.043 1.907.014.307.04-2.552.013-.248.053 1.52.007-.04.04-.65.043 1.22.037 1.086.056-2.07.013-.203.05 1.394.004.02.02-.482.043-1.343.08.737.013-.16.057.865.036.817.054-1.27.073.538.05-.96.023-.314.05.73.033-.337.007-.021.036.418.064.898.053-.72.146-.86.004.002.166 1.14.027.313.06-.71.14-.65.02.193.17 1.202.012-.11.19-1.11.02.15.163 1.118-.086-1.196.093 1.13.19-1.252.006-.014.023.249.157 1.188-.09-1.383.107 1.044.056-.868.07.343.027-.679.096.369.023-.291.03.63.057 1.41.037-1.777.026-.14.02.536.013.36.067-1.304.013.161.057.413.037-.532.006-.066.04.956.05 1.847.033-2.963.004-.081.043 1.455.02.846.056-2.416.007.005.003.068.134 1.23.05 2.42.026-3.879.007-.376.06 3.333.033-2.168.053.54-.02-1.442.073.885.01-.38.064 1.912.036 2.177.027-6.181.003-.045.007.939.05 3.73.063-2.235.05-.94.02 1.94.037-.517.086 3.41-.057-4.24.07.535.014-3.92.023 6.921.07-3.033.013 3.132.027-5.597.07 2.524.026-1.212.07 4.175.004-.307.043-5.869.026 6.413.064-2.655.016 2.882.027-6.762.057 2.82.023-.635.073 2.181.037 3.15.023-9.109.003-1.009.027 11.267.06-5.038.016 4.057.044-7.29.043.446.143 5.953.053 1.838-.026-11.225.063 7.508.01-5.689.027 8.404.07-1.155.02-5.576.103 2.177.053 4.627.013-10.092.003-.863.024 12.713.06-5.88.013 5.515.05-9.835.036 1.51.004-.515.023 3.91.057-.274.08 4.257.01-6.043.01-5.585.023 13.626.07-.908.003.008.047-10.927.073 4.15.13 6.178-.094-8.831.1 7.5.014-11.342.023 13.643.07-1.36.003.86.047-12.015.033 6.019.007-3.685.046 6.408.057-2.357.08-7.21-.017 12.242.033-2.613.007 2.933.047-10.91.053 6.962.02-7.853.023 10.94.06-2.346.003.132.014-3.239.01-2.602.086 6.904.01 1.717.017-11.516.063 6.202.08-5.879-.047 9.698.07-.312.087-6.19.046 4.445.05 3.066.02-9.65.047 8.658.096-9.128.024 7.5.003.066.007-1.965.036-2.17.017 4.177.06-2.967.056 5.443.027-8.055.05 6.328.093-6.898-.023 7.32.056-3.212.004-.021.003.655.007 1.326.023-4.101.073 1.17.063 4.598.027-5.857.057 4.154.086-4.326-.02 4.85.053-2.485.014 1.429.056-2.555.037.624.066 3.648.02-3.426.01-1.538.054 3.762.05-2.744.016 2.498.024-3.323.08 1.85.126 2.463-.103-3.798.113 3.334.023-2.926.103.15.087 1.45-.047-1.777.064.344.04-.48-.02 1.464.073-.143.053 1.69.03-1.917.106-.287-.056 1.277.063-1.173.013.417.017-.705.083.422.137 1.941-.11-2.445.13 1.627.15-1.452.003.047.053.536-.027-.662.077.049.02-.405.056 1.188.037 1.561.06-1.8.003.002.05.554.043-.517.014-.61.056.728.047-.597.03-.472.05.968.043 1.606.077-1.35.1-.727-.064.95.097-.692.033.293.023-.523.04-.643.05 1.026.043 1.54.077-1.184.116-.712-.083.736.1-.499.043.276.044-.699.02-.478.063 1.246.03 1.11.076-1.127.123-.479-.093.522.1-.463.053.445.044-.687.04-.48.046 1.087.05 1.114.063-.956.004.022.066-.283.004.001.046-.15.047.183.01.076.05-.63.043-.55.047 1.186.05.96.06-.872.04-.313.08.068.056.256.033-.32.05-.983.06.936.066 1.291.057-1.067.03-.138.043.357h.017l.08.031-.054-.123.064.025.043-.754.043-.76.057.984.066 1.532.057-1.022.017-.228.056.354.03.001.06.059-.047-.092.067-.004.087-1.599.066 1.027.07 1.618.053-1.15.024-.33.063.545.016-.048.057.083.073-1.311.033-.438.064.775.09 1.733.053-.94.03-.408.07.62.036.11.047-.24.106-1.293.057.639.11.863.043-.187.047-.173.066.148.013.027.05-.159.207-.623.03.128.05.143.103.855.063-.238.246-1.359.01.057.107 1.554.103-.2.213-1.807-.16 1.902.19-1.466.09 2.29.033-1.951.013-.29.037 2.156.043-1.362.037 1.015.043-1.117.047.403.1-1.775.03.877.093 2.245.023-1.958.013-.655.04 2.28.047-.845.023 1.116.037-1.706.05.82.113-1.762.023.146.107 2.209.023-1.832.01-.522.036 2.115.05-.504.02 1.139.034-2.04.053.82.126-1.596.01.075.12 2.062.02-1.383.013-.584.034 2.001.05-.372.02.975.03-1.83.053.596.13-1.653-.094 1.813.107-1.444.12 1.742.013-.433.02-1.242.033 1.575.05-.017.02.74.033-1.623.05.352.127-1.396-.093 1.733.11-1.218.12 1.466-.077-1.573.093.824.01-.45.09 1.106.08.531-.027-1.368.047.23.13-1.089-.087 1.574.096-1.365.127 1.399.01-.315.013-.464.043.544.05-.027.014.583.09-.964.023.446.04-.653.063-.346-.03.365.083-.12.004-.005.013.151.076.422.054-.066.07.333-.04-.369.056.024.08-.455-.053.641.086-.282.057.2-.023-.486.066.198.07-.323-.033.691.073-.383.007.004.01-.089.013-.203.023.507.064-.144.12.422-.09-.725.093.663.083-.784-.04 1.136.063-.23.003.068.027-1.067.053.73.017-1.01.093 1.047.11-.865-.043 1.379.053-.868.013.93.09-1.261.003.03.124.574.003-.022.126-.413-.09.643.094-.608.12.327-.02-.43.023.43.01-.08.05.507.076.395-.023-1.493.037.415.08-.717-.027 1.377.056-.597.037-.408.023 1.107.037-.447.08 1.158-.023-2.557.046 1.12.073-.656-.026 1.712.066-1.115.03-.318.017 1.04.073.287-.05-1.065.063.17.01-.493.02 1 .08-.397.027-.394.053.592.027-.226.013.32.053-.513.04.166.083-.427-.026.8.05-.33.046-.3.02.374.027-.069.05.22-.02-.411.083.241.007.056.056-.404.027.054.007-.051.076.377.07.15.03-.33.07-.08-.04.23.057-.082.11.074-.087-.187.093.17.007-.015.02.098.063-.005.007.016.056-.222.077-.17.016.337.107.055-.087-.292.09.273.13-.24.007-.03.05.153.03.002.01.065.096-.107 6.097.024h0" clip-path="url(#p9180c60333)" style="fill:none;stroke:#2ca02c;stroke-width:.5;stroke-linecap:square"/><path id="patch_3" d="M38.05 142.76V8.64" style="fill:none;stroke:#000;stroke-width:.8;stroke-linejoin:miter;stroke-linecap:square"/><path id="patch_4" d="M221.76 142.76V8.64" style="fill:none;stroke:#000;stroke-width:.8;stroke-linejoin:miter;stroke-linecap:square"/><path id="patch_5" d="M38.05 142.76h183.71" style="fill:none;stroke:#000;stroke-width:.8;stroke-linejoin:miter;stroke-linecap:square"/><path id="patch_6" d="M38.05 8.64h183.71" style="fill:none;stroke:#000;stroke-width:.8;stroke-linejoin:miter;stroke-linecap:square"/><g id="legend_1"><path id="line2d_15" d="M164.938 15.919h16" style="fill:none;stroke:#ff7f0e;stroke-linecap:square"/><g id="text_14" transform="matrix(.08 0 0 -.08 187.338 18.719)"><defs><path id="DejaVuSans-46" d="M628 4666h2681v-532H1259V2759h1850v-531H1259V0H628z" transform="scale(.01563)"/><path id="DejaVuSans-70" d="M1159 525v-1856H581v4831h578v-531q182 312 458 463 277 152 661 152 638 0 1036-506 399-506 399-1331T3314 415Q2916-91 2278-91q-384 0-661 152-276 152-458 464m1957 1222q0 634-261 995t-717 361q-457 0-718-361t-261-995 261-995 718-361q456 0 717 361t261 995" transform="scale(.01563)"/><path id="DejaVuSans-64" d="M2906 2969v1894h575V0h-575v525q-181-312-458-464-276-152-664-152-634 0-1033 506-398 507-398 1332t398 1331q399 506 1033 506 388 0 664-152 277-151 458-463M947 1747q0-634 261-995t717-361 718 361q263 361 263 995t-263 995q-262 361-718 361t-717-361-261-995" transform="scale(.01563)"/></defs><use xlink:href="#DejaVuSans-46"/><use xlink:href="#DejaVuSans-30" x="57.52"/><use xlink:href="#DejaVuSans-70" x="152.93"/><use xlink:href="#DejaVuSans-72" x="216.406"/><use xlink:href="#DejaVuSans-65" x="255.27"/><use xlink:href="#DejaVuSans-64" x="316.793"/></g><path id="line2d_16" d="M164.938 27.661h16" style="fill:none;stroke:#1f77b4;stroke-linecap:square"/><g id="text_15" transform="matrix(.08 0 0 -.08 187.338 30.461)"><defs><path id="DejaVuSans-6f" d="M1959 3097q-462 0-731-361t-269-989 267-989q268-361 733-361 460 0 728 362 269 363 269 988 0 622-269 986-268 364-728 364m0 487q750 0 1178-488 429-487 429-1349 0-859-429-1349Q2709-91 1959-91q-753 0-1180 489-426 490-426 1349 0 862 426 1349 427 488 1180 488" transform="scale(.01563)"/><path id="DejaVuSans-67" d="M2906 1791q0 625-258 968-257 344-723 344-462 0-720-344-258-343-258-968 0-622 258-966t720-344q466 0 723 344 258 344 258 966m575-1357q0-893-397-1329-396-436-1215-436-303 0-572 45t-522 139v559q253-137 500-202 247-66 503-66 566 0 847 295t281 892v285q-178-310-456-463T1784 0Q1141 0 747 490 353 981 353 1791q0 812 394 1302 394 491 1037 491 388 0 666-153t456-462v531h575z" transform="scale(.01563)"/></defs><use xlink:href="#DejaVuSans-46"/><use xlink:href="#DejaVuSans-30" x="57.52"/><use xlink:href="#DejaVuSans-6f" x="152.93"/><use xlink:href="#DejaVuSans-72" x="214.111"/><use xlink:href="#DejaVuSans-69" x="255.225"/><use xlink:href="#DejaVuSans-67" x="283.008"/></g></g></g></g><defs><clipPath id="p9180c60333"><path d="M38.05 8.64h183.71v134.12H38.05z"/></clipPath></defs></svg>