<svg xmlns="http://www.w3.org/2000/svg" xmlns:xlink="http://www.w3.org/1999/xlink" width="307.2" height="230.4" viewBox="0 0 230.4 172.8"><defs><style>*{stroke-linejoin:round;stroke-linecap:butt}</style></defs><g id="figure_1"><path id="patch_1" d="M0 172.8h230.4V0H0z" style="fill:#fff"/><g id="axes_1"><path id="patch_2" d="M38.05 142.76h183.71V8.64H38.05z" style="fill:#fff"/><g id="matplotlib.axis_1"><g id="xtick_1"><g id="line2d_1"><defs><path id="m7e84e1edf0" d="M0 0v3.5" style="stroke:#000;stroke-width:.8"/></defs><use xlink:href="#m7e84e1edf0" x="67.63" y="142.76" style="stroke:#000;stroke-width:.8"/></g><g id="text_1" transform="matrix(.08 0 0 -.08 65.085 155.839)"><defs><path id="DejaVuSans-31" d="M794 531h1031v3560L703 3866v575l1116 225h631V531h1031V0H794z" transform="scale(.01563)"/></defs><use xlink:href="#DejaVuSans-31"/></g></g><g id="xtick_2"><use xlink:href="#m7e84e1edf0" id="line2d_2" x="129.905" y="142.76" style="stroke:#000;stroke-width:.8"/><g id="text_2" transform="matrix(.08 0 0 -.08 127.36 155.839)"><defs><path id="DejaVuSans-32" d="M1228 531h2203V0H469v531q359 372 979 998 621 627 780 809 303 340 423 576 121 236 121 464 0 372-261 606-261 235-680 235-297 0-627-103-329-103-704-313v638q381 153 712 231 332 78 607 78 725 0 1156-363 431-362 431-968 0-288-108-546-107-257-392-607-78-91-497-524-418-433-1181-1211" transform="scale(.01563)"/></defs><use xlink:href="#DejaVuSans-32"/></g></g><g id="xtick_3"><use xlink:href="#m7e84e1edf0" id="line2d_3" x="192.18" y="142.76" style="stroke:#000;stroke-width:.8"/><g id="text_3" transform="matrix(.08 0 0 -.08 189.635 155.839)"><defs><path id="DejaVuSans-33" d="M2597 2516q453-97 707-404 255-306 255-756 0-690-475-1069Q2609-91 1734-91q-293 0-604 58T488 141v609q262-153 574-231 313-78 654-78 593 0 904 234t311 681q0 413-289 645-289 233-804 233h-544v519h569q465 0 712 186t247 536q0 359-255 551-254 193-729 193-260 0-557-57-297-56-653-174v562q360 100 674 150t592 50q719 0 1137-327 419-326 419-882 0-388-222-655t-631-370" transform="scale(.01563)"/></defs><use xlink:href="#DejaVuSans-33"/></g></g><g id="text_4" transform="matrix(.08 0 0 -.08 114.392 163.581)"><defs><path id="DejaVuSans-74" d="M1172 4494v-994h1184v-447H1172V1153q0-428 117-550t477-122h590V0h-590q-666 0-919 248-253 249-253 905v1900H172v447h422v994z" transform="scale(.01563)"/><path id="DejaVuSans-69" d="M603 3500h575V0H603zm0 1363h575v-729H603z" transform="scale(.01563)"/><path id="DejaVuSans-6d" d="M3328 2828q216 388 516 572t706 184q547 0 844-383 297-382 297-1088V0h-578v2094q0 503-179 746-178 244-543 244-447 0-707-297-259-296-259-809V0h-578v2094q0 506-178 748t-550 242q-441 0-701-298-259-298-259-808V0H581v3500h578v-544q197 322 472 475t653 153q382 0 649-194 267-193 395-562" transform="scale(.01563)"/><path id="DejaVuSans-65" d="M3597 1894v-281H953q38-594 358-905t892-311q331 0 642 81t618 244V178Q3153 47 2828-22t-659-69q-838 0-1327 487-489 488-489 1320 0 859 464 1363 464 505 1252 505 706 0 1117-455 411-454 411-1235m-575 169q-6 471-264 752-258 282-683 282-481 0-770-272t-333-766z" transform="scale(.01563)"/><path id="DejaVuSans-28" d="M1984 4856q-418-718-622-1422-203-703-203-1425 0-721 205-1429t620-1424h-500Q1016-109 783 600T550 2009q0 697 231 1403 232 707 703 1444z" transform="scale(.01563)"/><path id="DejaVuSans-73" d="M2834 3397v-544q-243 125-506 187-262 63-544 63-428 0-642-131t-214-394q0-200 153-314t616-217l197-44q612-131 870-370t258-667q0-488-386-773Q2250-91 1575-91q-281 0-586 55T347 128v594q319-166 628-249 309-82 613-82 406 0 624 139 219 139 219 392 0 234-158 359-157 125-692 241l-200 47q-534 112-772 345-237 233-237 639 0 494 350 762 350 269 994 269 318 0 599-47 282-46 519-140" transform="scale(.01563)"/><path id="DejaVuSans-29" d="M513 4856h500q468-737 701-1444 233-706 233-1403 0-700-233-1409T1013-844H513q415 716 620 1424t205 1429q0 722-205 1425-205 704-620 1422" transform="scale(.01563)"/></defs><use xlink:href="#DejaVuSans-74"/><use xlink:href="#DejaVuSans-69" x="39.209"/><use xlink:href="#DejaVuSans-6d" x="66.992"/><use xlink:href="#DejaVuSans-65" x="164.404"/><use xlink:href="#DejaVuSans-28" x="257.715"/><use xlink:href="#DejaVuSans-73" x="296.729"/><use xlink:href="#DejaVuSans-29" x="348.828"/></g></g><g id="matplotlib.axis_2"><g id="ytick_1"><g id="line2d_4"><defs><path id="m21dbbecae7" d="M0 0h-3.5" style="stroke:#000;stroke-width:.8"/></defs><use xlink:href="#m21dbbecae7" x="38.05" y="137.731" style="stroke:#000;stroke-width:.8"/></g><g id="text_5" transform="matrix(.08 0 0 -.08 25.96 140.77)"><defs><path id="DejaVuSans-30" d="M2034 4250q-487 0-733-480-245-479-245-1442 0-959 245-1439 246-480 733-480 491 0 736 480 246 480 246 1439 0 963-246 1442-245 480-736 480m0 500q785 0 1199-621 414-620 414-1801 0-1178-414-1799Q2819-91 2034-91q-784 0-1198 620-414 621-414 1799 0 1181 414 1801 414 621 1198 621" transform="scale(.01563)"/></defs><use xlink:href="#DejaVuSans-30"/></g></g><g id="ytick_2"><use xlink:href="#m21dbbecae7" id="line2d_5" x="38.05" y="120.966" style="stroke:#000;stroke-width:.8"/><g id="text_6" transform="matrix(.08 0 0 -.08 20.87 124.005)"><defs><path id="DejaVuSans-35" d="M691 4666h2478v-532H1269V2991q137 47 274 70 138 23 276 23 781 0 1237-428 457-428 457-1159 0-753-469-1171Q2575-91 1722-91q-294 0-599 50Q819 9 494 109v635q281-153 581-228t634-75q541 0 856 284 316 284 316 772 0 487-316 771-315 285-856 285-253 0-505-56-251-56-513-175z" transform="scale(.01563)"/></defs><use xlink:href="#DejaVuSans-35"/><use xlink:href="#DejaVuSans-30" x="63.623"/></g></g><g id="ytick_3"><use xlink:href="#m21dbbecae7" id="line2d_6" x="38.05" y="104.201" style="stroke:#000;stroke-width:.8"/><g id="text_7" transform="matrix(.08 0 0 -.08 15.78 107.24)"><use xlink:href="#DejaVuSans-31"/><use xlink:href="#DejaVuSans-30" x="63.623"/><use xlink:href="#DejaVuSans-30" x="127.246"/></g></g><g id="ytick_4"><use xlink:href="#m21dbbecae7" id="line2d_7" x="38.05" y="87.436" style="stroke:#000;stroke-width:.8"/><g id="text_8" transform="matrix(.08 0 0 -.08 15.78 90.475)"><use xlink:href="#DejaVuSans-31"/><use xlink:href="#DejaVuSans-35" x="63.623"/><use xlink:href="#DejaVuSans-30" x="127.246"/></g></g><g id="ytick_5"><use xlink:href="#m21dbbecae7" id="line2d_8" x="38.05" y="70.671" style="stroke:#000;stroke-width:.8"/><g id="text_9" transform="matrix(.08 0 0 -.08 15.78 73.71)"><use xlink:href="#DejaVuSans-32"/><use xlink:href="#DejaVuSans-30" x="63.623"/><use xlink:href="#DejaVuSans-30" x="127.246"/></g></g><g id="ytick_6"><use xlink:href="#m21dbbecae7" id="line2d_9" x="38.05" y="53.906" style="stroke:#000;stroke-width:.8"/><g id="text_10" transform="matrix(.08 0 0 -.08 15.78 56.945)"><use xlink:href="#DejaVuSans-32"/><use xlink:href="#DejaVuSans-35" x="63.623"/><use xlink:href="#DejaVuSans-30" x="127.246"/></g></g><g id="ytick_7"><use xlink:href="#m21dbbecae7" id="line2d_10" x="38.05" y="37.141" style="stroke:#000;stroke-width:.8"/><g id="text_11" transform="matrix(.08 0 0 -.08 15.78 40.18)"><use xlink:href="#DejaVuSans-33"/><use xlink:href="#DejaVuSans-30" x="63.623"/><use xlink:href="#DejaVuSans-30" x="127.246"/></g></g><g id="ytick_8"><use xlink:href="#m21dbbecae7" id="line2d_11" x="38.05" y="20.375" style="stroke:#000;stroke-width:.8"/><g id="text_12" transform="matrix(.08 0 0 -.08 15.78 23.415)"><use xlink:href="#DejaVuSans-33"/><use xlink:href="#DejaVuSans-35" x="63.623"/><use xlink:href="#DejaVuSans-30" x="127.246"/></g></g><g id="text_13" transform="matrix(0 -.08 -.08 0 14.116 105.261)"><defs><path id="DejaVuSans-66" d="M2375 4863v-479h-550q-309 0-430-125-120-125-120-450v-309h947v-447h-947V0H697v3053H147v447h550v244q0 584 272 851 272 268 862 268z" transform="scale(.01563)"/><path id="DejaVuSans-72" d="M2631 2963q-97 56-211 82-114 27-251 27-488 0-749-317t-261-911V0H581v3500h578v-544q182 319 472 473 291 155 707 155 59 0 131-8 72-7 159-23z" transform="scale(.01563)"/><path id="DejaVuSans-71" d="M947 1747q0-634 261-995t717-361 718 361q263 361 263 995t-263 995q-262 361-718 361t-717-361-261-995M2906 525q-181-312-458-464-276-152-664-152-634 0-1033 506-398 507-398 1332t398 1331q399 506 1033 506 388 0 664-152 277-151 458-463v531h575v-4831h-575z" transform="scale(.01563)"/><path id="DejaVuSans-75" d="M544 1381v2119h575V1403q0-497 193-746 194-248 582-248 465 0 735 297 271 297 271 810v1984h575V0h-575v538q-209-319-486-474-276-155-642-155-603 0-916 375-312 375-312 1097m1447 2203" transform="scale(.01563)"/><path id="DejaVuSans-6e" d="M3513 2113V0h-575v2094q0 497-194 743-194 247-581 247-466 0-735-297-269-296-269-809V0H581v3500h578v-544q207 316 486 472 280 156 646 156 603 0 912-373 310-373 310-1098" transform="scale(.01563)"/><path id="DejaVuSans-63" d="M3122 3366v-538q-244 135-489 202t-495 67q-560 0-870-355-309-354-309-995t309-996q310-354 870-354 250 0 495 67t489 202V134Q2881 22 2623-34q-257-57-548-57-791 0-1257 497-465 497-465 1341 0 856 470 1346 471 491 1290 491 265 0 518-55 253-54 491-163" transform="scale(.01563)"/><path id="DejaVuSans-79" d="M2059-325q-243-625-475-815-231-191-618-191H506v481h338q237 0 368 113 132 112 291 531l103 262L191 3500h609L1894 763l1094 2737h609z" transform="scale(.01563)"/><path id="DejaVuSans-48" d="M628 4666h631V2753h2294v1913h631V0h-631v2222H1259V0H628z" transform="scale(.01563)"/><path id="DejaVuSans-7a" d="M353 3500h2731v-525L922 459h2162V0H275v525l2163 2516H353z" transform="scale(.01563)"/></defs><use xlink:href="#DejaVuSans-66"/><use xlink:href="#DejaVuSans-72" x="35.205"/><use xlink:href="#DejaVuSans-65" x="74.068"/><use xlink:href="#DejaVuSans-71" x="135.592"/><use xlink:href="#DejaVuSans-75" x="199.068"/><use xlink:href="#DejaVuSans-65" x="262.447"/><use xlink:href="#DejaVuSans-6e" x="323.971"/><use xlink:href="#DejaVuSans-63" x="387.35"/><use xlink:href="#DejaVuSans-79" x="442.33"/><use xlink:href="#DejaVuSans-28" x="533.297"/><use xlink:href="#DejaVuSans-48" x="572.311"/><use xlink:href="#DejaVuSans-7a" x="647.506"/><use xlink:href="#DejaVuSans-29" x="699.996"/></g></g><path id="line2d_12" d="M5.356 137.73h28.646l.312-44.984.31.128.312-.633.312-.906.311-.387.311.333.312.162.311-.517.312.097.622 4.175.312 42.533h5.916l.311-35.176.311 1.314.312-.59.311-3.843 1.246-25.366.311-1.493.311.3.623 3.566.312-1.162.622-5.859.623-3.215.311-.734.312-.273.623-.11.622-.615.623-1.348.623-1.29.311-.263h.312l.31.247.312.531.623 1.91.623 3.508 1.245 8.817.312 3.855.622 10.491.312 2.654.311-.51.311 44.654h3.737l.311-63.347.934-14.448.623-3.679.312-1.17.31.546.312 1.804.312.815.311-1.48.934-8.083.312-1.35.31-.41.312.657.312 1.897.622 5.849.312 1.1.311-1.015.623-3.97.311-1.087.312-.252.311.302 1.246 2.02 1.245 1.206.623 1.047.623 1.537.622 2.77.623 2.74.623 1.223.622 1.853.935 3.017.311.692.311.32.312.092.311.235 1.557 2.581.311.727.312 1.099.622 3.485.623 3.629.312 1.07.31.514.312-.124.312-1.047.934-5.709.623-3.42.31-1.015.312-.61.312-.214.311.197.311.547.935 2.569 1.556 4.237.935 4.905.622 3.434.312 1.27.311.724.311.076.312-.535.623-2.242.31-1.197.312-.71.312-.049.311.493.623 2.33.622 2.502.623 1.655.934 1.702.934.853.312.165.311-.302.312-1.064.311-1.703.311-2.726.623-9.874.311-1.561.312 2.07.623 6.318.622 3.146.623 2.347.623 4.654.311 2.288.312.643.31-1.384.312-2.115.312-1.276.311.922.623 7.098.623 6.134.31 31.062h7.785l.312-51.017.311-3.787.623-4.555.622-8.033.312-1.638.623 2.332.311.233.311-.22.312-2.182.622-10.695.312-1.569.311 3.333.623 11.632.311 1.028.312-4.664.622-11.998.312-3.058.311-.478.312 2.041.622 9.142.623 11.707.311 8.67.312 4.8.311-1.233.312-4.96.934-19.252.311-2.85.311-.392.312 1.304.311 2.676.934 10.782.312.455.311-1.988 1.246-15.344.622-3.359.623-1.699.623-.99.622-.485.312-.045.311.131.312.37.311.652.623 2.12 3.113 12.939.623 1.689.312.484.31.695.312 1.444.934 7.4.312 1.01.311.036.312-.762.622-2.647.312.055.934 3.054.311-.077.312-1.624 1.245-11.612.311-.793.312-1.147.623-3.357.31-.892.312-.071.312.465 1.245 2.51.934 1.405 1.246 1.658.622.396 1.557.403.623.537.623.797.311.633.312 1.111.311 2.006.934 8.783.311-.338.935-6.81.31-.292.312 1.537.623 6.236.311.276.935-6.28.31.88.624 4.357.311.354.311-.847.935-5.104.31.008.312.474.312-.458.622-3.159.312-.666.311.067.312.663.622 2.57.934 5.112.312.906.311-.115.623-1.376.934-.497.311.154.312-.553.311-1.857.623-6.2.311-1.544.623.781.311-.612.312-.359.311.422 1.246 3.483.934 1.74 1.245 3.176.623 2.325.623 2.635.311.71.311.243.935.185.622-.276.934-.696.312-.062.623.243 1.556 1.182.623.01 1.246-.451.622-.766.623-.756.312-.012.31.238.935 1.37.623.844.311.284.311.124.312-.05.623-.546.622-.713.312-.079.311.276.623 1.493.934 2.54 1.868 3.84.623 2.086.311-.116.623-1.596.623-.774.623-.455.31.013 1.246.532.623.028.312.181.31.702.312 1.65 1.246 10.636.311-.164.312-2.745.622-8.103.312-1.595.311.048.623 1.169.934 2.206.311-1.377.934-11.002.312.956.934 5.524.623 1.602.622.796.623.318 1.557.29.623.6.622.55.312-.248.311-1.18.312-2.573.934-10.349.311-2.395.311-.876.623.09.312.573.31 1.42.312.397.312-1.94.311-2.742.311-1.445.312.51.311 3.023.934 18.503.312 1.327.311-1.761.623-4.645.311.241.934 8.55.623 3.764.311 3.274.312 32.813H231.4" clip-path="url(#pfa21e09ad6)" style="fill:none;stroke:#1f77b4;stroke-linecap:square"/><path id="line2d_13" d="M5.356 137.73h4.048l.311-33.854.623.928.934 3.041.311.54.312 29.346h30.514l.312-52.247.311-.61.934-11.854.311-.16.623 6.222.312 1.024.31-1.698.624-4.397.934-2.922.623-3.093.31-1.056.624-1.078.934-1.161.934-1.547.623-.488.311-.08.311.222.312.83.311 1.66.934 8.757.312.66.311-2.341.623-7.872.311-.051.312 1.536.31.97.312-.205.623-1.674.311-.31.312.04.311.548.311 1.501.312 3.487.934 17.026.311 2.709.312.39.311 47.262h1.246l.311-80.284.311-.403.312.154.311-.682.934-5.84.312-.335.31.29.312.912.312 2.136.934 10.99.311.822.312-.075.31-.523.312-.967.623-3.245.623-3.062.311-.748.312-.295.31-.029.624.29.622.453.312.444.623 1.653.622 2.156.312.507.311.016.623-.461 1.245-1.338.312.161.311.825.623 2.313.622 1.188.623 1.348.934 2.92.623 2.782.623 2.723.311.304.312-.66.622-2.29.312-.321.622.648.312-.107.623-1.126 1.245-2.634.311-.289.312.002.311.28.623 1.112.623 1.402.934 2.749.623 2.39.622 3.518.934 6.117.312.79.311-.39.934-4.708.312-.232.311.663 2.491 8.32.311.245.623.013.311.315.935 1.963.311-1.028.311-3.164.312-4.458.311-2.833.311.669 1.246 10.034.311-.02.312-.735.622-2.447.312-1.756.311-2.41.312 53.278h21.796l.311-59.554.934-10.292.312-1.17.31-.56.312.089.312 1.033.311 1.558.311.881.312-.674 1.245-8.663.934-2.599.312-.539.311-.295.312-.012.31.248.935 1.324 1.245 2.023.935 1.005 2.18 1.867.31.697.312 1.426.311 2.766.934 12.1.312 1.016.311.338.312-.02.31-.983.624-3.129.311.851.311 1.36.312-.98.623-4.935.31.074.624 1.714.311-1.724.934-10.895.312-1.47.31-.17.935 1.145.311.001 1.246-.671.934-.592.311-.077.312.043 1.868.886.311.116.312.269.622 1.026.312.688.311.984.312 1.729.311 2.935.623 8.037.311 2.105.311.819.312.369.311-1.075.312-3.548.622-9.367.312-3.37.311-.779.934 3.279.623-.927.311-.478.312-.003.311 1.748.311 3.83.312 5.742.311 61.43h.934l.312-29.696.622-17.178.623-17.168.312-3.565.31-.543.312 1.103 1.557 8.668.312.658.31-.426.935-3.871.311.38.935 3.643.622 1.047.623 2.892.311-1.695.623-11.714.311-2.988.312-.116 1.557 6.418.934 2.956 1.245 4.684.312.647.311.18.623-.189.311.074.312.315 1.245 1.997.311.031.935-.537.31.07.935.466.623-.222.623-.157 1.245.017.934.384.623.465.623.538 3.113 1.196.312.044.311.162.311.383.312.751.311 1.295.934 4.938.312.316.311-.424L190 89.872l.311-.066 1.869.592.622.19.934.321 1.246.05.311.345.312.826.311 1.526 1.246 9.275.622 2.453.623 1.237.311-.736.312-3.69.623-9.67.31-1.282.312.52.312 1.232.311.685.311-.66.312-2.72.623-8.693.31-.265 1.246 8.237.623 1.527.623 1.053.623.62.622.445.312.04.311-.49.311-1.479 1.246-9.771.311.052.312.726.311.403.311-.409.623-1.4.312.09.31 1.65.935 8.533.311 1.316.312.685.311.013.623-.731.311-.746.312-1.554.622-4.074.312 51.653h16.49" clip-path="url(#pfa21e09ad6)" style="fill:none;stroke:#ff7f0e;stroke-linecap:square"/><path id="line2d_14" d="M38.046 120.965h.436l8.968-.11.058-.095.031.208.027-.045.102.366.023.09.054-.287.117-.91-.101.914.171-.616.113 2.449.05-1.448.117-2.461.024.517.093 4.055.059-2.03.12-3.087.035.381.028 1.657.066 3.854.05-2.912.152-3.398.02 1.117.07 5.458.054-3.118.144-3.827.012.308.074 8.309.062-6.208.008-.23.03 3.391.009.944.039-6.59.035 1.138.011-.148.008 1.029.09 7.918-.055-8.025.082 3.03.117-9.441-.031 12.171.035-11.77.132 14.645.023-1.205.031-15.503.024 16.418.081-9.913.059-2.638.07 11.606.035-2.906.02-10.748.03 15.271.082-8.594.117 7.589-.054-12.327.058 11.695.05-15.844.032 21.786.042-10.672.012-4.033.09-4.397-.055 9.822.07-5.18.062 8.894.028-11.327.008-4.954.03 21.54.07-15.844.075-2.8.078 13.623.027-12.55.008-3.67.027 21.275.07-15.368.156 12.382-.082-15.476.085 15.143.028-20.412.03 23.908.075-13.174.07-4.717.062 14.457.008.578.015-6.841.016-13.925.031 25.064.07-18.006.074-3.326.062 17.336.008.881.024-13.487.011-7.505.031 23.922.067-20.636.097 12.525L52 113.12l.05 11.83.082 8.454-.031-24.671.043 12.632.05-10.14.031 11.439.04-8.111.007-1.14.05 11.533.02 7.928.031-24.862.05 12.54.063 5.022-.02-16.177.063 10.486.015-7.343.074 20.57.008-4.399.113-21.916-.058 24.76.074-9.468.011 3.738.05-13.003.048 8.227.027 9.147.035-16.619.05 10.864.035-13.54.09 7.454.062 11.921.04-14.65.003-.182.012 2.965.02 7.974.046-14.229.047 8.829.035-4.559.05 6.93.027 5.222.04-11.068.042 6.518.031-9.006.004-1.09.035 8.016.055-3.044.078 9.174.03-8.325.079-5.218-.035 11.037.062-5.791.14 7.48-.086-9.373.094 9.186.02-4.315.085-6.564-.031 7.966.066-3.99.015 1.115.02-2.585.031.03.008-.427.047 5.445.027 2.483.043-7.857.007.71.02 3.472.039-4.614.074 2.402.02-1.662.054 4.56.042.98.035-3.103.078-2.314.035 2.158.051-1.402.031 1.784.012-.028.05 2.121.055-2.404.047-.75.019 1.03.023-.23.008.57.059-1.154.038.04.004-.334.082 2.106.004-.08.031-1.114.094.7.007.31.02-1.226.004.197.078-1.206-.067 1.374.102-.449.062 1.213.05-.242.024.309.097-2.026.183 1.715-.171-2.055.245 1.49.097-1.13.008 1.414.008-1.207.101 1.043-.031-1.24.043 1.203.066-.908.047.595.05.495-.031-1.148.078.593.101-1.205-.054 1.879.066-1.736.054 1.86-.008-2.162.067 1.183.074-1.602.007 2.84.028-1.781.007 1.504.074-1.83.02 1.039.027-1.376.008 2.04.074-1.948.054 1.782-.03-1.87.089 1.139.085-1.13.008 1.456.02-1.182.066 1.386.05-.394.082-.68-.016 1.138.02-.334.027.816-.008-1.906.09 1.463.004-1.43.09 1.84.015-1.422.09 1.545-.008-1.827.03 1.692.075-1.408.039.647.062.818-.008-1.3.059.714.027.079.081-.686.032.962.03-1.1.051.721.067-.751-.008 1.3.054-1.166.04 1.01.03-1.326.043.8.047-.852-.031 1.164.035-.66.004 1.047.007-1.506.098.637.027-.382.039.742.039-.223.035-.922.02 1.692.054-1.965-.031 2.338.09-1.204.096-.654.008 1.266.098-1.3-.032 1.463.047-.745.047.77.008-1.48.054.809.05-.88-.03 1.82.09-1.713.096 1.324.008-1.372.008.974.039-1.052.008 1.668.066-1.034.058.854.008-1.473.043 1.244.066.146.043-1.191.113 1.235.02-1.421-.009 1.48.102-1.089.073.816.032-.997.007.977.004-.911.008.963.101-.571.09-.426.02 1.131.042-1.271.047 1.407.02-1.289.054 1.57-.02-1.87.078.964.086-.684-.05 1.267.073-1.24.043 3.005-.008-4.516.074 2.016.082-.84.008 2.16.007-2.061.082 2.073-.07-2.534.097 1.817.004-1.74.031 2.311.074-2.19.074 2.984.031-4.322.008 3.973.004-3.66.02 4.382.085-3.255.055 2.049-.02-2.25.074 1.21.047-.738.008 1.37.054-1.324.09 2.212-.008-2.927.031 2.343.058.292.051-3.236.02 3.756.093-.807.027-1.98.02 2.187.066-1.34.062 1.482-.02-2.435.059 1.35.004-1.385.05 1.871.055-1.016.101 1.464-.02-1.893.024.27.027-.517-.02 1.961.098-1.72.031 2.221.02-3.433.054 2.294.016-1.9.008 2.798.085-2.435.09 2.716-.008-3.047.031 2.67.105.177.008-2.429.004 2.087.105-.908.101.653.008-1.809.02 2.536-.008-2.976.1 2.03.082-1.597.008 2.118.02-1.644.062 1.483.008-1.866.043 1.47.07-1.945.03 2.858.009-2.227.003 1.822.11-.858.003.739.008-1.686.101 1.624.031-1.624.082.646.016.977.066-1.736.02 1.256.038-1.46.031 2.198.04-1.236.089 1.133.008-1.787.007 1.282.055-1.433.008 1.941.046-1.178.004.892.063-1.393.042.907.043-1.077-.008 1.535.074-1.112.008.929.008-1.056.093.648.047-.558-.008 1.093.07-.383.102-.82-.078.891.093-.738.11 1.13-.102-1.168.113 1.033.14-1.71-.105 1.775.132-1.47.09 3.162.027-.74.082-4.207.042 1.562.004-.175.043 3.044.043 1.003.012-1.438.004.031.09-4.605-.079 5.102.125-2.982.09 4.581-.075-4.622.105 2.134.07-4.9-.054 5.21.097-4.28.074 7.838.047-2.075.074-7.969.043 1.619.054 7.28.062-1.144.074-7.113.043.949.055 8.024.062-3.56.07-5.107.035 5.72.012-3.974.054 7.123.059-3.635.054-5.385.05 5.627.016-2.396.05 5.76.067-3.597.086-4.415.03 2.987.051 4.603.07-3.306.055-3.976.062 2.688.004-.204.043 3.505.043-1.669.082-4.328-.055 4.423.105-1.95.094 3.431-.078-4.055.1 1.952.07-2.849-.054 3.673.106-2.235.093 3.153-.078-3.777.11 1.75.01 1.997.036-3.282.015.507.031-1.416-.011 2.062.09-.292.007-.799.059 2.944.035-1.154.003.316.063-2.209.015.033.047-1.142.05 2.455.047 1.871.055-2.176.008.25.019.364.004-.434.093-2.495.02 1.144.074 5.103-.055-5.632.101 2.13.117-3.24.004.809.078 5.666-.062-5.933.097.894.008.814.074 2.052-.012-5.162.039 1.678.027-1.817.031 7.065.008-.837.012 2.229.039-4.372.004.302.015-4.575.082 5.348.031-4.16.066 7.845-.046-8.113.093 1.882.012-4.683.054 8.137.05-5.461.005-.946.062 11.282.004.018.004-.293.058-14.886.078 6.449.097 11.466-.062-15.57.078 7.37.046-11.62.055 14.74.004.25.008-5.484.05-5.766.047 11.66.015 6.433.059-22.272.004-1.224.054 17.262.031-9.352.094 16.497-.059-19.68.074 4.986.047-9.988.05 15.316.13 9.66-.102-21.075.105 19.92.058-23.68.063 13.55.02-10.264.08 12.363.02 8.756.059-23.538.03 16.078.051-14.192.063 11.173.039 10.392.023-17.225.027 2.802.012-8.005.023 16.555.074-7.251.086 12.869-.055-17.856.07 4.287.047-7.378.027 15.04.035-7.087.02-7.215.078 10.772.023 8.897.055-15.884.007-3.914.028 14.325.066-9.087.09 14.256-.055-16.76.074 3.09.12-5.465-.046 13.918.05-13.708.101 19.013.035-12.861.004.195.02-3.233.082-2.589-.047 12.733.066-7.19.09 12.074-.059-15.738.074 4.62.05-4.4.028 10.447.039-10.135.008-1.73.081 7.76.028 7.542.062-13.089.031 9.214.047-10.988.078 5.873.03 7.83.063-11.693.031 9.19.047-10.83.082 6.638.03 6.94.024-11.245.035.181.078-2.224-.047 10.866.066-8.124.098 10.836-.063-13.202.078 3.25.008-2.181.062 9.71.043-8.631.02-3.267.077 6.57.028 8.874.023-13.841.035.565.004-.325.016 6.793.007 3.705.063-13.069.03 5.53.012-4.858.063 15.687.035-11.206.054 8.603-.027-10.884.078.514.011-4.168.09 8.476.016 8.473.027-14.405.07 9.589.054-12.717.063 7.795.046 9.397.024-11.718.03 1.935.098-5.81-.062 11.875.074-7.585.105 8.991-.074-12.151.093 5.778.004-.036.008.859.055.86-.024-5.236.07 3.22.059-4.065.054 2.872.035 6.438.066-6.694.024 2.14.004.114.015-1.905.031.212.059-3.982.046 3.443.055 6.268.058-4.987.113-4.034.016.701.007-.207.024 2.41.047 6.398.066-5.873.124-3.689.035 1.976.063 7.595.058-5.752.12-3.624-.073 3.693.081-3.538.094 9.228.062-5.957.117-3.322-.07 3.918.085-3.576.094 8.72.054-5.96.004.08.024-1.813.007.205.02 2.4.07-3.716.012.328.066 6.915.03 1.276.044-5.258.074.463.07-3.57.074 6.978.011 1.27.063-5.501.035-1.758.042 2.797.024-.403.023-1.372.023-1.992.063 4.702.027 3.211.07-5.898.008.142.054 1.69-.03-2.125.08.82.032-1.792.062 3.649.024 3.232.066-5.69.008.201.058 1.972-.031-2.343.085.812.028-2.107.066 3.687.027 3.439.062-5.517.012.633.058 1.57-.03-2.227.077.712.035-2.524.066 3.593.028 4.76.054-6.614.008-1.292.066 5.423.031-3.244.02-2.485.011-1.169.074 4.296.04 8.009.023-11.618.003-.205.016 4.836.047 5.203-.028-9.933.07 5.356.063-6.356.05 3.6.063 9.925-.05-10.043.065.323.012-6.164.062 12.83.035-5.527.047 2.589.027-8.38.027 2.775.012-.711.004 1.07.066 10.972.027-16.49.028 11.383.054-9.927-.027 11.676.09-3.461.003.825.028-7.243.062 3.502.004-.053.011 1.247.035 9.292.024-19.001.062 12.798.062-10.097-.015 11.622.105-7.159.082 11.176.011-12.214.008-7.467.027 19.38.07-6.047.012 1.938.008-5.734.008-6.716.023 14.337.078-6.713.058 8.405-.039-10.351.063.685.007-8.808.028 19.204.07-6.68.054 4.64-.023-14.45.035 5.16.011-5.768.09 12.341.082 3.555-.024-15.668.04 7.935.081-5.347.02 8.29.007 1.706.02-12.288.066 5.819h.004l.004-.286.02 6.217.038 3.48.012-9.365.011-5.081.024 13.54.07-3.909.004.04.004-.499.066-7.706-.024 8.753.078-5.291.031 2.535.051 6.348.023-11.385.04 5.614.077-4.277.027 4.86.02-3.96.015-1.27.028 3.502.042-.134.067 5.643.02-7.045.003-.51.027 5.132.059-1.86.011-.962.086-3.156-.043 3.729.062-.403.125 2.263-.097-5.014.1 4.784.14-3.912.024 2.062.094-1.613.004-.082.019 1.2.031-.405.066 2.77.063-.92.14-3.043.015 1.044.117 1.339-.093-1.85.1 1.619.07-.74-.019 1.1.028-.29.004.25.027-1.211.07.393.004.043.054-.504.008.107.008-.22.058.8.04-.346.023.618.05-.63.031.106.008-.51.09 1.241.007.224.02-1.135.054.467.059-1.253-.02 1.603.074-.598.05.618-.023-1.584.078.68.094 1.166.05-.292.164-1.783.015.895.125 1.412-.086-1.737.09 1.733.02.629.034-1.548.016.303.054-1.975.094.414.136 3.628.023-.925.183-3.764.027 1.265.074 3.673-.058-4 .163 2.076.129-3.086.004.001.105 8.266.02-6.885.081-1.86-.027 5.118.058-3.784.074-2.141-.05 2.963.097-1.332.062 8.29.027-9.24.047 5.343.004.192.012-3.565.035 1.156.081-4.152.11 10.92.015-8.62.008-2.022.027 7.452.066-3.04.004.268.062-2.927.02-2.498.07 6.065.027 4.377.008 2.085.023-14.805.059 7.433.116-5.073-.077 5.995.085-5.847.105 13.14.012-8.804.012-9.297.027 17.694.07-5.703.004.037.004-.788.07-6.732.062 2.42.05 11.981.024-20.813.047 12.128.054 2.5-.02-9.397.04 4.356.05-3.592-.03 7.281.085-2.861.004.032.085-13.107-.023 23.46.039-11.304.012 12.892.054-18.978.043 3.753.043-2.863-.024 10.323.078-4.227.078 10.817-.055-14.093.063 2.253.011-12.348.028 25.497.066-11.58.015 6.495.059-14.799.03 6.385.013-3.52.077 11.281.016 5.452.012-18.897.007-6.882.028 25.988.066-12.18.02 7.067.054-14.755.031 5.776.012-3.518.058 10.663.02-.002.019 6.831.02-23.929.066 16.947.015-14 .059 14.19.042-2.954.028-6.551.058 8.362.02-2.004.019 8.73.023-19.823.07 13.194.098-10.043-.028 11.574.047-6.26.02-2.925.062 6.702.015-2.72.024 8.55.027-14.536.07 9.753.101-8.236.024 2.738.015-1.532.05 3.501.051 6.672.028-10.387.027 2.995.093-2.667-.058 7.67.074-4.899.015.772.059-2.984.097 6.363.008 1.591.062-6.788.031 3.946.113-5.037.012 1.536.132 4.721-.117-5.703.144 4.117.164-4.86.008.44.175 5.473.004-.008.167-4.032.023-1.247.063 1.48.124 3.48.04-1.143.058-2.806.062 1.58.004.021.008-.344.054-1.828.054 1.861.129 1.965-.058-2.677.081 2.285.07-2.679.082 1.224.023-.509.024-1.13.07 1.738.008-.133.05-1.023.035 1.184.027 1.507.063-2.554.015-.464.07 1.761.02.201.043-1.1.027-.933.058 1.555.028-.716.011-.096.004.006.02-.716.05 2.272.016.61.058-2.283.008-.276.062 1.886.012-.204.09-2.163-.063 2.279.125-.704.007-.186.051-1.359.047 1.954.023 1.623.058-2.82.016-.988.058 3.508.106-3.705.12.807.07 4.328.043-4.118.02-1.502.035 4.173.015-.438.004.004.004.24.05-3.468.012-.436.059 1.845.023-.525.132 5.656-.101-6.326.12 3.028.032-4.039.043 6.466.039-3.83.003.131.016-2.957.004-.595.027 3.34.066-1.592.129 9.908-.059-10.726.07 8.071.04-11.102.034 12.86.067-7.319.027 2.843.02-7.54.062 5.15.027-4.286.078 6.597.116 6.17-.058-16.905.062 15.283.11-16.57.011 6.162.043 6.462.03-10.867.04 5.877.012-.88.038 9.803.012 1.62.012-2.788.011-20.04.059 25.472.043-13.3.097 10.016-.031-21.304.043 14.658.05-9.983.012 11.766.047-.773.085-15.736-.035 21.019.059-8.767.011 10.88.059-20.31.039 13.85.035-15.625.03 21.277.051-12.957.008-1.124.008 4.672.008 5.499.015-9.502.086 5.575.05-14.953-.03 22.564.054-4.37.082 7.7-.02-20.353.043 9.409.035-10.128.031 14.774.05-6.51.024 3.911.02-8.858.058 3.37.043 6.318.07 9.474-.031-29.522.062 15.808.027-12.105.016 25.864.066-16.941.023 8.832.04-10.703.046 3.104.02-5.51.077 9.298.035 5.953-.015-7.6.035 1.944.011-17.138.035 26.247.063-12.717.011 13.933.059-18.946.039 6.418.081-6.082-.015 9.037.043-2.231.1 6.084-.054-9.077.07 7.032.012-20.887.031 31.442.066-16 .012 17.353.031-23.884.066 5.852.008-6.88.031 10.776.07-1.878.066-3.774.055 7.517.004.023.004-.549.015-15.022.035 22.496.067-9.126.011 8.343.031-16.81.063 7.249.011-5.556.031 8.085.07-4.664.102 6.056-.035-7.372.054 4.982.012-1.658.015-9.716.032 20.21.062-12.915.015 10.79.031-16.055.067 7.644.058-5.425-.027 7.277.082-3.764.1 6.596-.034-7.58.05 4.129.02-12.486.03 21.74.063-13.696.016 11.134.027-14.992.066 6.099.012-4.361.031 8.8.07-5.801.093 4.67-.023-5.992.05 5.052.012 1.659.012-3.497.012-11.109.03 22.748.067-12.04.012 8.181.03-15.62.067 9.004.058-7.432-.015 11.061.07-5.606.008 3.805.027-6.541.074 2.987.09-1.43-.059 3.004.07-1.612.012 2.726.027-4.225.066 1.152.012-.765.02 1.814.077-.981.004-.137.035 1.307.039-.023.093 3.077-.03-6.649.042 3.806.016-4.742.03 6.117.063-3.322.016 4.272.027-5.719.066 2.587.012-2.842.027 4.633.07-2.694.101 1.892-.023-2.33.035 1.124.097-1.241-.02 2.286.032-1.024.05 1.093.028-2.343.03 1.408.051-.791.02 1.256.035-.388.012.565.023-1.251.07.337.078-.421-.047 1.097.078-.681.012-.287.066.726.039.605.015-1.855.012-.963.027 4.02.066-2.359.016 2.319.027-3.747.066 1.572.016-1.028.031 1.869.062-.76.02 1.129.035-1.827.054.909.02-1.233.03 1.636.06-.688.015.482.047-.531.05.165.082-.186-.039.38.07-.238.062-.253-.023.308.078-.153.023-.109.04.202.057-.119.032.235.105-.083.105-.081.015.062.18.13-.149-.165.156.136.097-.077.02.034.093.004-.023-.049.031.03.059-.057-.02.066.074-.04.058.029-.03-.068.077.029.07-.01-.035.051.074-.032.062-.003-.023-.024h.066l.105-.019.016.023.148.022.004-.003.381.012.14-.013.806-.006 13.65.092.042.03.008-.076.055.03.011.005.117-.053.09-.061.02.151.03-.2.008.21.074-.113.055-.188-.008.276.062-.114.016.114.077-.299.008.272.031-.31-.02.384.102-.296.09.304-.008-.41.031.34.008-.265.109.068.043.288-.008-.313.078.106.093.32-.008-.527.02.52.02-.52-.009.534.098-.35.105-.188.008.538.003-.582.008.702.101-.668.02.803.02-1.046.07.903.007-.812.008.847.097-.272.016-.496.043.664.05-.31.09.385.004-.758.004-.004.003.741.02-.765.086.395.015-.437.008.77.086-.721.105-.062.007.801.032-1.237.019 1.6.062-.685.004-.372.031.644.078-.534.066.506-.007-.56.054.485.07-.699-.008.963.05-.523.087-.08.019.308.093.17.02-.848.074 1.344-.008-1.623.047 1.256.05-1.002.008 1.095.055-.457.035-.554-.008.875.082-.281.085-.905-.008 1.467.024-.797.004.782.042-1.282.063.396.1-.352.009 1.184.07-1.514.008 1.662.035-1.217.042 1.531-.019-2.55.086 2 .007-1.364.004 1.375.098-.909.007 1.01.008-1.385.097.864.07-.54-.007.783.046-.131.016.56.008-1.558.039.35.004-.083.007 1.094.063-.31.046.688.008-1.711.008.612.004-.596.062 1.484.043-1.044.086 1.102-.074-1.765.097 1.32.066-1.417-.031 2.16.078-.99.058-.643-.02.968.043-.782.004 1.03.008-1.586.097.77.082-.61-.02 1.346.044-1.075.066 1.003-.008-1.211.054.519.051-.419.031 1 .02-.453.081 1.385-.007-2.524.035 1.358.003-1.229.032 1.906.074-.483.1 1.057.009-2.976.007 2.584.105-1.555.024 1.601-.008-2.41.097 2.183.098-2.45.007 2.968.008-2.06.105-.808.008 2.876.055-3.153.054 2.054.027.752-.02-1.937.094.402.059-1.07-.008 3.114.023-1.232.004.915.008-2.713.097 1.337.027-1.554-.007 2.907.09-1.279.093 1.243-.059-2.15.062.838.004-1.09.082 2.005.023-.498.082 1.198-.008-3.294.024 1.744.081-1.3-.03 2.678.058-1.53.046 1.247.008-2.057.059 1.134.07-.865-.008 1.479.047-1.157.054 1.192.008-1.627.05.783.004-.007.082.646.008-1.156.02.54.003.007.024-.66.054 1.164.035-.79.09 1.047-.047-1.288.074 1.161.117-1.776.015-.086.148 3.452.004.046.023-.671.078-4.568.05 2.295.102 3.244.05-1.783.055-2.854.066.7.113 5.282.031-2.47.05-3.82.067 1.553.113 5.058-.074-6.102.097 5.453.07-6.238.066 1.796.129 5.247-.113-5.998.12 5.148.07-6.488.082 2.04.028-.696.046 2.543.04 2.902.058-4.713.027-1.614.086 1.264.015-.437.047 1.647.054 2.877.055-2.853.124-1.256.004.08.008-.14.008-.13.054 1.62.09 1.226.047-.752.1-2.006.067.873.105 1.868.062-.922.137-1.67.03.25.094 2.26.101-.988h.004l.004-.025.09-1.873.062.886.07 2.298.086-1.136.093-2.694.05 1.707.086 2.366.031-1.446.16-2.336-.148 2.472.163-1.975.063 5.202.054-4.442.031-1.439.043 2.034.04-1.392.108 7.645-.086-8.812.117 4.153.031-5.467.09 2.666.105 8.875-.082-11.25.113 6.8.035-7.957.094 3.353.019-3.441.062 11.32.02 2.781.05-13.355.012-2.015.043 8.89.043-5.824.105 12.78-.078-14.481.093 7.095.047-8.69.043 9.771.039-8.026.105 14.66.031-10.769.031-5.204.039 9.718.02-4.698.023-4.315.074 7.037.03 7.683.055-13.722.008-1.148.035 10.524.055-7.963.039-.816.039 11.863.007 1.257.055-13.8.02-.897-.008 1.24.011-.21.027 10.538.043-11.744.043 3.766.008-1.724.047 13.022.007-.338.137-15.46.066 5.546.035 10.199.054-13.633.008.873.074-3.604-.039 14.483.07-8.799.031-2.175.031 9.03.012 3.728.07-15.165.004-.672.027 14.352.035-14.926.094 12.073.015 4.573.066-15.208.067-1.217-.035 14.677.066-9.551.035-2.004.02 5.396.023 8.074.07-16.91.027 14.843.093-10.348.059 12.772.062-17.57.035 15.208.086-10.891.004-1.198.054 14.416.047-13.243.05 10.582-.035-15.088.09 4.06.004-.01.085 14.115-.054-15.297.078 1.547.039-4.584.011 5.873.024 8.632.042-13.552.043 2.902.004-1.086.05 14.298.009 2.025.054-17.49.008-2.764.035 15.128.062-8.929.086 14.265-.059-16.133.082 2.267.008 1.446.02-2.97.007-5.498.039 15.201.062-8.196.078 13.311-.054-15.648.097 5.208.023-9.171.043 14.73.047-9.106.027.658-.012-1.513.016.428.004-1.23.058 15.732.008-1.651.004.494.023-10.805.008 1.432.027-8.652.04 15.337.046-8.96.02-3.67.05 5.827.039 10.87.054-20 .008 2.139.035 13.51.062-13.68.016 3.057.027-1.894.028 9.92.027 6.846.058-19.531.02 9.314.081-7.034-.062 12.319.105-11.767.055 17.196.039-18.332.011 2.302.008-4.408.039 15.552.066-12.296.097 16.953-.081-18.239.109 9.62.03-11.957.04 15.175.039-5.72.042-8.046.082 19.485.004.544.031-11.033.027-10.844.059 14.947.02-3.123.062-9.614.07 19.337.039-15.39.023-4.02.062 12.695.012-3.535.062-9.356.062 15.2.016 6.627.039-19.417.012 2.976.007-6.637.082 14.253.016-5.35.004.519.035-7.767.023 1.006.008 1.385.05 18.323.055-19.396.023-2.83.062 14.93.012-5.248.008.794.031-6.406.023-2.8.055 15.783.031 5.227.039-22.73.012 5.834.011-6.026.059 15.12.035-5.456.004.035.035-9.83.054 15.388.035 6.535.059-21.684.015 5.833.062 8.453-.05-13.08.085 5.901.035-5.187.059 17.49.004-.358.085-19.832-.058 21.916.113-11.588.008 5.342.074-12.527.023 3.286.004-.621.039 9.17.035 7.193.039-21.275.015 5.71.008-7.435.058 15.754.04-2.54.034-9.514.07 11.493.035 6.018.016-10.318.016.896.03-11.114.06 14.243.019-1.888.003.262.043-4.132.024-3.219.07 12.725.023 3.426.016-12.205.011 10.393.059-19.71.054 11.744.008 1.177.062-7.741.016 2.46.008-1.305.046 10.133.024 6.019.062-21.61.012 10.955.011-11.066.066 12.375.035-6.04.121 15.513-.097-18.313.101 12.962.055-14.71-.036 16.08.094-9.853.031 4.31.062-7.386.012 2.344.004-.867.058 8.911.016-3.297.008 6.2.085-12.475.012 3.084.113-2.192-.059 4.063.063-3.69.097 7.106.031-2.303.113-3.562.004.727.004.717.082-1.897.019.22.082 3.398.046-.671.191-2.837.024.085.144 3.238.05-.722.101-2.586.047.204.152 3.03.027-.242.156-2.791.011.148.008-.08.05.72.121 1.92.028-.203.132-2.174.05.334.121 1.41.105-.65.086-.605.062.402.078.504.074-.198.109-.475.055.225.073.254.094-.03.074-.191.058-.11.063.06.124.289.078-.178.093-.209.05.104.125.327.055-.1.12-.356.047.084.156.4.058-.148.11-.369.058.119.132.333.05-.144.149-.263.07.17.1.068.02-.016.148-.145.008.038.035.1.132.203.04.049.023-.154.011.025.035-.144.059.218.007-.04.055.495.062-.406.105-.773-.05 1.24.074-.889.027.575.054-1.092.016.406.027-.945.055 1.357.03-1.096.044-.727-.031 1.023.058-.38.07 1.563.047-.414.007-.326.036.888.058-.226.004-.002.011-.514.047 1.004.055-.77.12 1.426.02-.404.113-2.541.039.75.116 3.763.031-1.833.067-3.995.066 1.924.117 6.312-.098-6.553.129 2.882.046-4.29.074 2.016.004.066.012-1.334.012.157.007-.635.051 5.978.027 2.37.055-9.039.008.326.011-1.378.055 3.637.035-1.07.035-2.437.03 4.645.044 6.004.043-8.834.027-2.237.058 4.837.02-1.677.046-3.027.004-.33.031 6.186.028 6.783.066-14.061.004-.173.027 2.815.047 4.053.05-6.21.008 1.396.012-1.686.05 11.93.008 2.971.07-16.065.012 2.732.03 3.322.032 1.746.05-6.398.016 1.087.004-1.63.07 15.888.031-10.038.031-8.014.07 9.696.008-1.887.066-6.121.035 8.683.035 8.717.04-17.467.011 4.128.008-6.52.07 11.319.035-8.172.117 18.567-.094-19.47.121 9.06.031-13.201.07 14.948.012-8.121.14 17.25-.117-21.365.125 12.645.05-16.948-.035 20.933.098-11.405.011 8.238.031-14.071.074 12.006.105-16.708-.058 26.495.082-17.745.047 10.816.035-15.131.027 2.767.093 19.91.027-12.851.032-14.538.07 20.235.011-12.84.144 19.343-.12-21.237.128 12.09.05-16.611-.034 23.49.097-11.214.012 4.79.039-12.55.042 5.498.086-2.383-.012 16.918.016-13.297.008 9.891.035-20.667.07 15.333.004.973.039-12.692.042 5.545.004-1.13.043 12.152.02-.39.007 2.52.04-19.365.015 3.872.004-5.593.054 16.44.05-11.32.005-1.572.066 9.89.015-1.293.043 8.655.04-18.896.01 8.06.009-9.818.054 16.08.05-11.62.005-1.022.066 9.58.012-1.562.046 8.717.04-18.063.01 6.145.009-7.341.054 15.7.05-13.609.005-.05.124 15.45.004-.914.055-16.612.058 13.344.05-12.4-.038 14.413.1-4.951.055 7.919.024-11.23.011 2.128.031-9.38.07 15.926.012-9.434.027-5.068.07 10.144.004-.134.113-12.533-.066 19.393.074-11.124.062 9.75.04-15.514.007 4.695.109 11.915-.093-15.69.109 13.242.054-16.603-.039 17.244.097-2.78.051-11.883-.039 15.387.105-5.936.05 6.303.024-10.786.012 5.788.035-12.954.07 16.651.008-7.899.03-6.712.07 10.81.009-3.497.039 8.575.05-14.358.012 5.885.008-8.82.054 16.172.05-13.483.005-1.263.07 11.039.011-2.057.035 7.36.067-16.07.003-.932.04 15.014.011-1.523.004 1.955.054-14.823.04 7.105.007-2.57.07 11.221.012-2.224.004.655.035-12.289.011 5.874.008-8.211.055 15.452.05-13.856.004-1.315.07 11.72.012-3.172.035 7.227.05-13.605.016 1.443.059 11.26.054-15.049.12 15.385.02-7.294.05-7.616.036 14.364.015-1.492.004 1.504.055-14.822.03 6.537.009-.663.015 3.135.012-.428.031 6.489.07-13.965.078 13.903-.055-14.976.098 8.31.011-8.085.074 12.777.016-1.563.043 3.929.035-14.28.015 7.821.008-8.965.055 15.686.05-11.635.004-2.86.078 11.857.016-.104.042 2.129.031-10.287.028-3.508.054 13.065.02-3.184.058-8.714.05 8.468.063 3.939.012-7.373.015 2.586.031-6.693.059 8.574.02-1.394.058-6.732.054 6.42.039 3.708.05-5.232.032-3.898.054 5.853.024-.759.054-5.583.055 4.893.038 3.275.059-3.913.008.27.03-1.314.06 1.413.022-.519.063-2.118.039 2.186.039 2.115.085-1.22.129-1.336.05-.614.05.667.102 1.737.055-.194.14-1.957.023.16.109 1.178.054.375.059-.31.097-.853.035-.134.05.316.114.578.027-.032.144-.694.062.241.117.434.043-.073.05-.298.055-.21.058.198.11.323.065-.127.098-.257.058.142.144.09.047-.06.09-.064.046.058.144.042.093-.11.035.011.176.079.011-.034.105.056.121-.086-.093.108.097-.105.074.065-.035-.122.074.102.015-.017.043.08.035-.034.082.19.113-.393.004.064.097.333.02-.056.003.004.008-.192.07.243.035-.224.078-.26.035.478.094-.556-.008.584.03-.425.11.593-.012-.87.016.591.004-.503.011.766.098-.606.007-.027.004.01.105.475-.007-.613.015.266.027-.21.008.55.078-.445.043-.18.023.278.035-.105.016-.008.097.296.012-.184.054.32.035-.026.086.089-.055-.442.074.282.051-.223.027.45.024-.1.1.419.02-.06.02.105.16-.722.007.092.086-.249.008.003.124-.46.039.043.163.21.012-.028.117.132.004-.01.12-.097-.07.123.086-.082.074.014-.062-.041.09-.008h.058l-.032.107.055-.037.132.144.253.238-.241-.26.245.253.062-.024.016.046.031-.021.078.006.023-.048.697-.07.008.006.047-.116.015-.069.05.248.102.217-.07-.282.085.171.117-.374-.085.413.097-.296.078.453.023-.488.02-.275.07.728.081.517.07-.249.074-1.679.063 1.226.109 2.96-.082-3.044.113.81.16-2.858.007.119.113 6.093.027-4.771.133-3.272-.059 6.5.062-6.39.152 9.84.016-4.719.02-4.407.065 7.237.024-2.967.03-6.154.102 3.689.055 7.007.039-9.103.003-.623.055 7.864.008.979.054-10.119.008-.398.023 5.603.035-1.115.11 6.204-.075-6.715.086 2.476.02-5.175.058 8.745.035-4.543.031-5.4.035 6.129.066-1.667.004-.03.012.682.054 5.036.024-5.542.011-3.059.07 8.056.024-3.283.03-5.883.094 3.193.09 6.944.023-5.75.008-1.912.078 5.784.015-1.152.035-6.27.125 3.64.004.007.054 5.914.035-6.71.012.3.027-.444.012 1.271.023 2.996.055-5.677.011.468.008.292.05 2.036-.03-2.57.113 2.06.054 4.01.062-3.761.117-1.084-.074 2.971.078-2.96.26 2.906.047-.898.133-1.236.023.215.05.803.118-.063.003.008.032-.192.038-.261.051.336.109.046-.031-.108.043.08.202-.394.012.008.167.491.074-.094.055-.165.035-.148.085.07.047.1.054.119.07-.054.098-.242.082.1.132.24.062-.098.117-.198.058.057.129.227.058-.123.14-.129.008.013.16.212.074-.142.077-.097.067.095.128.073.012-.027.109-.12.042.04.16.07.004-.019.074-.088.047.098.132.138-.062-.214.09.146.034-.137.062.185.004-.004.032.043.035-.2.027-.026.02.127.03.14.055-.258.031.178.062-.189-.039.275.105-.152.012.034.047-.252.023.085.027.035.121.431-.031-.462.035.462.113-1.723-.094 1.867.121-1.453.082-.211.035 1.133.117-.899-.078 1.834.082-1.801.093.85-.078-1.523.101 1.432.008-.614.074 3.885.016.871.042-3.892.129-3.28-.055 4.839.063-4.32h.004l.007-.187.035 2.512.004-.103.004-.035.012.861.066 4.941.023-6.263.031-2.487.051 7.898.016-2.986.004.115.007-2.03.028-5.47.077 7.02.004-1.062.004-.338.043 5.474.012 1.668.027-6.956.012-4.083.074 10.212.019-3.964.035-9.865.093 7.897.012-1.45.023 4.457.028 3.415.03-11.187.04 2.973.004-.15.004 2.35.027 6.357.054-14.847.028 7.592.077-2.602.051 10.713.004.337.008-7.917.023-6.753.07 13.718.004 1.086.054-15.507.016 4.639.07-.64-.054 5.179.077-4.052.051 10.424.031-15.512.035 7.961.074-6.815-.035 13.733.078-9.184.136 9.357-.07-10.802.074 10.398.031-15.147.07 15.228.035-14.01.004-.428.043 5.918.128 8.59-.066-10.863.074 10.515.027-11.561.008-3.08.066 14.485.04-12.571.007-.974.055 7.64.035-4.4.02-.297.01 2.327.06 8.664.023-10.307.015-4.453.066 13.183.008.285.008-2.66.027-9.827.093 3.76.016-1.148.039 4.724.02 3.758.019 2.544.035-13.12.039 6.995.004-.13.02 2.915.01 1.917.04-10.813.035 2.8.012-.359.019 2.454.125 6.932-.086-10.12.097 6.563.024-8.962.077 11.266.008-1.76.031-8.421.098 2.626.007-.668.059 5.317.02 4.836.042-12.18.039 4.761.035 5.18.039-8.702.031-1.198.05 5.554.016-2.394.02-.807.043 1.951.03 7.682.047-10.698.028 2.557.003-.059.008 1.037.043 3.696.039-7.646.02-2.172.046 6.106.117 5.405-.078-6.905.101 3.673.028-4.23.081 4.177.043-4.904.012-1.58.09 3.523.089 4.352.039-3.213.144-2.335-.117 2.36.14-1.956.175 4.073-.12-4.38.144 3.619.167-3.02.058-.686.028.845.112 3.529.035-1.456.199-2.691.004.003.023.436.12 3.864.044-1.948.007.008.012-.165.129-2.155.035.096.011-.125.031.845.117 3.459.031-1.847.156-2.56.02.266.03-.103.125 3.198.02 1.228.074-2.776.116-1.913-.046 2.13.066-1.71.175 4.721-.136-4.912.167 2.18.066-1.32.047 1.048.047-2.492.085 1.81.11 4.193-.075-4.228.098 1.49.02-1.78.093 1.234.023-1.157.031-1.814.078 1.589.113 4.949.023-3.23.02-2.605.03 2.956.063-.87.008-.22.043-2.7.081 1.437.004-.003.11 5.484.023-4.466.015-2.489.035 4.476.058-1.812.036-2.26.109 1.292.105 5.376.02-4.5.015-2.99.03 5.479.067-3.252.062-2.03.031 2.564.028-1.986.124 7.01.02-4.462.015-3.686.027 6.313.074-5.066.086 2.021-.027-3.267.05 1.4.008-.288.027 2.14.032-.389.07 5.968.023-8.107.008-1.018.027 6.254.074-5.087.004.019.027 2.476.027-2.945.063 1.777.066 1.44.062 4.656.02-6.046.011-2.026.027 4.733.07-2.716.07-1.318-.05 2.273.093-1.267.094 3.614.046 2.797.012-3.232.023-4.363.094 1.48.023.877.035-2.117.05 1.251.009-.314.074 1.352.066 4.744.03-6.352.005-.24.054 3.422.004.011.094-4.102.03 1.587.055-.456-.03 1.007.073-.387.058 5.378.047-5.845.004-.016.054 2.85.059-1.98.004.01.03-2.198.09 1.18.055 2.35.043 3.962.05-5.93.055 2.426.062-2.031.031-2.17.055 2.352.027-.437.012-.218.039.771.054 5.01.05-5.47.055 2.213-.035-2.685.094.707.035-2.27.05 2.343.031-.346.035-.097.047 2.347.02 2.863.07-5.204.003-.153.055 2.046.012-.435.003.216.051-3.109.008-.44.082 2.286.035-.069.046 1.972.028 2.368.07-4.51.007-.176.051 1.431.008.216.047-2.756.019-.785.07 2.474.086 2.13.02 1.405.07-3.404.135-2.338-.066 2.734.074-2.62.18 5.23.042-1.814.152-3.228.027.513.148 4.45.062-2.467.14-2.246.004.015.117 3.017.047 1.777.05-2.051.148-2.629.016.086.163 4.46.05-2.068.141-2.188.012.045.07 1.331.097 2.653.047-1.436.155-2.446.008.09.07 1.156.101 2.497.043-1.262.078-2.44.094.355.038.216.129 2.796.05-1.136.067-2.14.09.464.03-.045.078 1.278.07 1.41.055-1.142.062-1.76.086.48.05-.11.047.53.093 1.907.05-.917.079-1.677.078.266.007-.003.012-.11.02-.104.046.397.11 2.082.054-1.212.05-1.306.082.385.058-.44.04.448.108 2.221.05-1.127.06-1.532.07.437.058-.584.05.536.102 2.478.05-1.173.062-1.675.078.182.008-.05.043-.51.05.745.098 2.96.043-1.163.17-2.513.016-.191.04.46.12 4.008.05-2.6.051-1.902.062 1.365.07-1.595-.058 1.602.113-.403.101 3.386.035-2.226.012-.29.05-2.032.059 1.95.074-2.231.05 1.328.094 3.479.043-1.723.054-2.973.059 2.524.019.17.02-.848.054-2.267.058 1.97.008.363.082 2.833.039-1.96.004.194.035-3.06.015.63.008-.883.058 3.466.035-1.524.055-2.285.05 2.421.098 2.65-.086-2.95.113 2.316.078-4.309.043 2.654.015 1.279.059-2.846.027-1.223.058 2.631.008-.082.117 2.78.027-1.575.055-3.131.054 3.341.02.302.019-1.253.047-3.17.074 2.638.109 2.934.023-.453.074-4.75.047 3.382.015 1.08.035-2.162.047-2.933.058 3.026.004-.048.05-.351.028.706.043 2.53.054-3.14.043-1.802.043 3.167.027 1.167.047-3.905.035-1.48.054 3.54.012.007.055-1.584.035 2.246.039 2.724.05-4.624.031-1.907.059 5.039.011.45.043-3.493.035-2.735.063 4.422.011.067.031-1.838.031-1.275.043 4.565.028 1.827.054-5.755.027-1.754.055 5.594.023.844.05-5.879.016-1.233.059 4.792.007.398.063-3.662.008-.164.027 1.563.054 5.27.055-5.449.03-2 .055 5.717.012.428.047-3.947.035-2.351.054 4.152.008.5.07-2.914.004.038.016-.054.027 1.095.05 1.61.067-.772.136-1.051-.098 1.354.172-.91.004.033.05-.528.027-.192.067.604.128 1.413.027-.218.144-1.32.063-.376.05.35.16 1.677.011-.394.055-1.036-.043 1.134.117-.522.004.203.058-1.688.016.046.008-.352.054 1.34.047-.929.023-.344.043 1.425.004-.072.05 2.304.04-2.588.007.427.031-2.407.059 4.212.011-1.114.008 1.199.062-4.68.02.273.062 2.889.055-2.601.003-.064.024 1.212.062 5.133.047-4.057.031-3.916.058 7.21.016-.95.004.615.066-6.629.004.158.054 4.964.063-4.224.011-1.186.059 6.878.007.188.028 1.238.046-5.955.008-3.58.078 9.776.02-1.972.003.537.059-6.738.004-.065.02 1.514.042 4.189.054-5.513.004.254.016-1.642.008 2.744.066 6.593-.055-7.364.102 1.99.027-3.825.054 8.244.016-2.389.008 2.965.062-7.84.031 1.07.055 4.34.046-5.153.027-1.106.036 6.22.003-.005.035 2.24.043-2.947.031-5.3.055 7.6.02-1.129.003 1.318.066-7.116.024.426.058 4.84.047-4.898.027-1.031.043 6.366.027 2.036.05-4.39.028-3.789.058 7.307.016-1.536.004 1.48.066-6.595.031 1.35.05 3.51.051-5.145.004-.16.035 3.013.008-.41.047 5.118.058-5.71.012 2.821.011-4.41.078 7.007.016-2.521.004 1.154.05-5.11.055 3.562.004.183.046-2.807.043-1.903.04 5.196.003-.38.004-.009.05 2.8.036-5.13.011 1.432.031-3.179.055 6.244.02-.743.054-5.6.07 3.794.004.428.054-4.53.016.44.004-.421.05 5.45.028 1.686.066-4.215.008-1.278.074 4.097.019-.517.004.185.035-2.923.008.172.011-1.055.074 2.158.031-1.856.043-1.16.024 1.339.058 4.161.062-2.616.031-.79.055 1.43.012-.178.007.044.024-.654.054-1.124.07.668.004.013.016-.308.008.061.03-.217.059.617.008-.168.124 1.116.032-.19.252-.94.028.06.03.134.055-.188.028.09.16.71.015-.04.004.006.035-.142.09-.164.042.045.047.098.046-.166.164-.472.004.007.307.477.269-.225.105.2.058.014.055-.037.28.008.16.04.3-.067.159.01.19-.12.152.15.051.011.054-.041.218-.087.012.023.358-.016.066.044.059-.055.276.128.008-.06.066-.09-.054.098.1-.016.012.05.051-.17.043.08.035.11.058-.198.098.331.046-.258.09-.103-.012.342.035-.295.059.543.03-.71.016.323.062.522.055-1.456.074 1.747.043-.593.02.347.097-1.361.12 1.294.008-.279.047-.347.035.738.007-.18.012.613.07-1.4.02.34.09-1.665.042.228.05 1.877.051 4.827.035-8.434.004.25.012-.44.027 4.698.012 2.736.05-7.117.043 2.244.012 2.527.03-4.748.067 2.105.004.042.008-.606.03-1.116.044 5.34.027 4.842.031-12.432.031 3.96.008-.187.012 5.76.004 1.723.054-10.004.043 4.274.074 2.015-.031-9.061.058 6.785.027-4.664.055 5.346.027-.177.074-9.45-.031 15.335.078-7.687.011 10.123.028-15.418.07 5.888.043-4.982.027 8.908.046-7.043.148 9.007-.097-9.493.11 6.737.015-10.37.054 15.063.043-6.277.074-6.866-.031 12.886.066-5.94.015 1.917.024-8.312.062 3.533.02-4.195.05 7.52.05 4.988.024-14.1.035 8.873.055-8.59-.031 14.083.073-4.058.012 2.437.027-11.61.063 7.308.015-6.247.027 6.73.067-.718.09 6.286-.055-8.482.066 3.19.015-9.678.059 13.318.039-6.432.023 5.54.043-10.15.047 7.656.035-6.953.09 2.456.096 8.34.016-7.135.012-6.99.03 13.761.067-5.9.016 5.977.054-11.067.039 6.773.043-5.547.023 6.835.055-4.877.023 2.456.082 4.75-.059-6.653.07 2.769.016-9.392.031 15.435.062-9.686.02 9.438.054-10.77.04 4.759.097-5.047-.028 7.019.047-4.388.05-.48-.011 2.664.02-.964.104 9.27-.027-18.075.04 12.587.046-9.58.027 13.972.047-9.4.058-1.982-.027 7.645.074-5.419.012 2.917.027-6.306.07 3.053.058 7.135.016-9.06.012-6.053.027 18.772.066-10.704.02 10.3.023-13.208.07 4.959.011-5.54.028 6.861.074-2.873.113 6.49-.086-6.842.093 3.184.02-11.62.03 19.61.063-11.887.02 10.623.027-14.53.066 6.978.016-6.638.027 10.068.066-5.466.105 6.25-.07-8.369.086 6.844.035-10.708.03 15.787.06-9.044.023 6.89.027-12.81.062 6.69.016-4.781.03 7.184.063-2.911.12 5.279-.085-8.05.09 7.362.027-11.703.035 14.231.058-8.183.024 7.385.023-12.723.066 7.683.016-6.178.027 8.759.07-4.186.105 3.307-.07-5.214.082 3.688.128-2.128.012 2.004.058-2.52.04.864.097-2.002-.035 2.898.046-.797.11 2.714-.032-3.43.043 1.465.047-2.615.027 5.025.039-2.914.043 2.278.023-4.842.039 2.171.043-1.692.027 2.617.023-.773.055 2.124-.028-2.498.074.51.012-3.499.027 8.15.067-4.648.015 2.637.023-5.818.074 3.764.016-2.836.058 3.014.035-.356.09 2.213-.027-4.344.042 1.41.012-1.61.05 3.312.047-1.311.098.85-.066-1.951.077 1.183.059-2.458-.027 4.806.085-2.866.02-.507.062-1.38-.027 4.701.05-1.972.024 1.093.03-3.267.055 2.046.024-1.21.03 2.002.06-1.073.01.69.06-1.354.034.55.012-.51.062.979.035-.5.098.375.015-.248.004-.026.02.533.007.127.027-1.118.063.626.011-.105.098-.567-.028.847.043-.467.09.465-.031-.765.058.529.027-.466.024.696.07-.336.011.39.028-.732.07.351.093-.166-.066.34.082-.133.09.03-.028-.254.035.201.05-.096.024.152.031-.008.05.142-.023-.173.082.018.132-.175-.105.313.113-.287.02.17.1-.042.184-.06h.074l-.04.05.063-.002.093.01.02-.022.163-.008.004.007.137.024.451.008.128.006.503-.046.646.025.249.008.152-.018.144.01.003-.006.172-.01h.128l.004-.005.241.022.48.013.186-.017.004.006.576-.031.124.01 1.02.025.164-.025 1.938.01h0" clip-path="url(#pfa21e09ad6)" style="fill:none;stroke:#2ca02c;stroke-width:.5;stroke-linecap:square"/><path id="patch_3" d="M38.05 142.76V8.64" style="fill:none;stroke:#000;stroke-width:.8;stroke-linejoin:miter;stroke-linecap:square"/><path id="patch_4" d="M221.76 142.76V8.64" style="fill:none;stroke:#000;stroke-width:.8;stroke-linejoin:miter;stroke-linecap:square"/><path id="patch_5" d="M38.05 142.76h183.71" style="fill:none;stroke:#000;stroke-width:.8;stroke-linejoin:miter;stroke-linecap:square"/><path id="patch_6" d="M38.05 8.64h183.71" style="fill:none;stroke:#000;stroke-width:.8;stroke-linejoin:miter;stroke-linecap:square"/><g id="legend_1"><path id="line2d_15" d="M164.938 15.919h16" style="fill:none;stroke:#ff7f0e;stroke-linecap:square"/><g id="text_14" transform="matrix(.08 0 0 -.08 187.338 18.719)"><defs><path id="DejaVuSans-46" d="M628 4666h2681v-532H1259V2759h1850v-531H1259V0H628z" transform="scale(.01563)"/><path id="DejaVuSans-70" d="M1159 525v-1856H581v4831h578v-531q182 312 458 463 277 152 661 152 638 0 1036-506 399-506 399-1331T3314 415Q2916-91 2278-91q-384 0-661 152-276 152-458 464m1957 1222q0 634-261 995t-717 361q-457 0-718-361t-261-995 261-995 718-361q456 0 717 361t261 995" transform="scale(.01563)"/><path id="DejaVuSans-64" d="M2906 2969v1894h575V0h-575v525q-181-312-458-464-276-152-664-152-634 0-1033 506-398 507-398 1332t398 1331q399 506 1033 506 388 0 664-152 277-151 458-463M947 1747q0-634 261-995t717-361 718 361q263 361 263 995t-263 995q-262 361-718 361t-717-361-261-995" transform="scale(.01563)"/></defs><use xlink:href="#DejaVuSans-46"/><use xlink:href="#DejaVuSans-30" x="57.52"/><use xlink:href="#DejaVuSans-70" x="152.93"/><use xlink:href="#DejaVuSans-72" x="216.406"/><use xlink:href="#DejaVuSans-65" x="255.27"/><use xlink:href="#DejaVuSans-64" x="316.793"/></g><path id="line2d_16" d="M164.938 27.661h16" style="fill:none;stroke:#1f77b4;stroke-linecap:square"/><g id="text_15" transform="matrix(.08 0 0 -.08 187.338 30.461)"><defs><path id="DejaVuSans-6f" d="M1959 3097q-462 0-731-361t-269-989 267-989q268-361 733-361 460 0 728 362 269 363 269 988 0 622-269 986-268 364-728 364m0 487q750 0 1178-488 429-487 429-1349 0-859-429-1349Q2709-91 1959-91q-753 0-1180 489-426 490-426 1349 0 862 426 1349 427 488 1180 488" transform="scale(.01563)"/><path id="DejaVuSans-67" d="M2906 1791q0 625-258 968-257 344-723 344-462 0-720-344-258-343-258-968 0-622 258-966t720-344q466 0 723 344 258 344 258 966m575-1357q0-893-397-1329-396-436-1215-436-303 0-572 45t-522 139v559q253-137 500-202 247-66 503-66 566 0 847 295t281 892v285q-178-310-456-463T1784 0Q1141 0 747 490 353 981 353 1791q0 812 394 1302 394 491 1037 491 388 0 666-153t456-462v531h575z" transform="scale(.01563)"/></defs><use xlink:href="#DejaVuSans-46"/><use xlink:href="#DejaVuSans-30" x="57.52"/><use xlink:href="#DejaVuSans-6f" x="152.93"/><use xlink:href="#DejaVuSans-72" x="214.111"/><use xlink:href="#DejaVuSans-69" x="255.225"/><use xlink:href="#DejaVuSans-67" x="283.008"/></g></g></g></g><defs><clipPath id="pfa21e09ad6"><path d="M38.05 8.64h183.71v134.12H38.05z"/></clipPath></defs></svg>