<svg xmlns="http://www.w3.org/2000/svg" xmlns:xlink="http://www.w3.org/1999/xlink" width="307.2" height="230.4" viewBox="0 0 230.4 172.8"><defs><style>*{stroke-linejoin:round;stroke-linecap:butt}</style></defs><g id="figure_1"><path id="patch_1" d="M0 172.8h230.4V0H0z" style="fill:#fff"/><g id="axes_1"><path id="patch_2" d="M38.05 142.76h183.71V8.64H38.05z" style="fill:#fff"/><g id="matplotlib.axis_1"><g id="xtick_1"><g id="line2d_1"><defs><path id="m6845d73e33" d="M0 0v3.5" style="stroke:#000;stroke-width:.8"/></defs><use xlink:href="#m6845d73e33" x="69.1" y="142.76" style="stroke:#000;stroke-width:.8"/></g><g id="text_1" transform="matrix(.08 0 0 -.08 66.555 155.839)"><defs><path id="DejaVuSans-31" d="M794 531h1031v3560L703 3866v575l1116 225h631V531h1031V0H794z" transform="scale(.01563)"/></defs><use xlink:href="#DejaVuSans-31"/></g></g><g id="xtick_2"><use xlink:href="#m6845d73e33" id="line2d_2" x="120.849" y="142.76" style="stroke:#000;stroke-width:.8"/><g id="text_2" transform="matrix(.08 0 0 -.08 118.304 155.839)"><defs><path id="DejaVuSans-32" d="M1228 531h2203V0H469v531q359 372 979 998 621 627 780 809 303 340 423 576 121 236 121 464 0 372-261 606-261 235-680 235-297 0-627-103-329-103-704-313v638q381 153 712 231 332 78 607 78 725 0 1156-363 431-362 431-968 0-288-108-546-107-257-392-607-78-91-497-524-418-433-1181-1211" transform="scale(.01563)"/></defs><use xlink:href="#DejaVuSans-32"/></g></g><g id="xtick_3"><use xlink:href="#m6845d73e33" id="line2d_3" x="172.598" y="142.76" style="stroke:#000;stroke-width:.8"/><g id="text_3" transform="matrix(.08 0 0 -.08 170.053 155.839)"><defs><path id="DejaVuSans-33" d="M2597 2516q453-97 707-404 255-306 255-756 0-690-475-1069Q2609-91 1734-91q-293 0-604 58T488 141v609q262-153 574-231 313-78 654-78 593 0 904 234t311 681q0 413-289 645-289 233-804 233h-544v519h569q465 0 712 186t247 536q0 359-255 551-254 193-729 193-260 0-557-57-297-56-653-174v562q360 100 674 150t592 50q719 0 1137-327 419-326 419-882 0-388-222-655t-631-370" transform="scale(.01563)"/></defs><use xlink:href="#DejaVuSans-33"/></g></g><g id="text_4" transform="matrix(.08 0 0 -.08 114.392 163.581)"><defs><path id="DejaVuSans-74" d="M1172 4494v-994h1184v-447H1172V1153q0-428 117-550t477-122h590V0h-590q-666 0-919 248-253 249-253 905v1900H172v447h422v994z" transform="scale(.01563)"/><path id="DejaVuSans-69" d="M603 3500h575V0H603zm0 1363h575v-729H603z" transform="scale(.01563)"/><path id="DejaVuSans-6d" d="M3328 2828q216 388 516 572t706 184q547 0 844-383 297-382 297-1088V0h-578v2094q0 503-179 746-178 244-543 244-447 0-707-297-259-296-259-809V0h-578v2094q0 506-178 748t-550 242q-441 0-701-298-259-298-259-808V0H581v3500h578v-544q197 322 472 475t653 153q382 0 649-194 267-193 395-562" transform="scale(.01563)"/><path id="DejaVuSans-65" d="M3597 1894v-281H953q38-594 358-905t892-311q331 0 642 81t618 244V178Q3153 47 2828-22t-659-69q-838 0-1327 487-489 488-489 1320 0 859 464 1363 464 505 1252 505 706 0 1117-455 411-454 411-1235m-575 169q-6 471-264 752-258 282-683 282-481 0-770-272t-333-766z" transform="scale(.01563)"/><path id="DejaVuSans-28" d="M1984 4856q-418-718-622-1422-203-703-203-1425 0-721 205-1429t620-1424h-500Q1016-109 783 600T550 2009q0 697 231 1403 232 707 703 1444z" transform="scale(.01563)"/><path id="DejaVuSans-73" d="M2834 3397v-544q-243 125-506 187-262 63-544 63-428 0-642-131t-214-394q0-200 153-314t616-217l197-44q612-131 870-370t258-667q0-488-386-773Q2250-91 1575-91q-281 0-586 55T347 128v594q319-166 628-249 309-82 613-82 406 0 624 139 219 139 219 392 0 234-158 359-157 125-692 241l-200 47q-534 112-772 345-237 233-237 639 0 494 350 762 350 269 994 269 318 0 599-47 282-46 519-140" transform="scale(.01563)"/><path id="DejaVuSans-29" d="M513 4856h500q468-737 701-1444 233-706 233-1403 0-700-233-1409T1013-844H513q415 716 620 1424t205 1429q0 722-205 1425-205 704-620 1422" transform="scale(.01563)"/></defs><use xlink:href="#DejaVuSans-74"/><use xlink:href="#DejaVuSans-69" x="39.209"/><use xlink:href="#DejaVuSans-6d" x="66.992"/><use xlink:href="#DejaVuSans-65" x="164.404"/><use xlink:href="#DejaVuSans-28" x="257.715"/><use xlink:href="#DejaVuSans-73" x="296.729"/><use xlink:href="#DejaVuSans-29" x="348.828"/></g></g><g id="matplotlib.axis_2"><g id="ytick_1"><g id="line2d_4"><defs><path id="md917148bdc" d="M0 0h-3.5" style="stroke:#000;stroke-width:.8"/></defs><use xlink:href="#md917148bdc" x="38.05" y="137.731" style="stroke:#000;stroke-width:.8"/></g><g id="text_5" transform="matrix(.08 0 0 -.08 25.96 140.77)"><defs><path id="DejaVuSans-30" d="M2034 4250q-487 0-733-480-245-479-245-1442 0-959 245-1439 246-480 733-480 491 0 736 480 246 480 246 1439 0 963-246 1442-245 480-736 480m0 500q785 0 1199-621 414-620 414-1801 0-1178-414-1799Q2819-91 2034-91q-784 0-1198 620-414 621-414 1799 0 1181 414 1801 414 621 1198 621" transform="scale(.01563)"/></defs><use xlink:href="#DejaVuSans-30"/></g></g><g id="ytick_2"><use xlink:href="#md917148bdc" id="line2d_5" x="38.05" y="120.966" style="stroke:#000;stroke-width:.8"/><g id="text_6" transform="matrix(.08 0 0 -.08 20.87 124.005)"><defs><path id="DejaVuSans-35" d="M691 4666h2478v-532H1269V2991q137 47 274 70 138 23 276 23 781 0 1237-428 457-428 457-1159 0-753-469-1171Q2575-91 1722-91q-294 0-599 50Q819 9 494 109v635q281-153 581-228t634-75q541 0 856 284 316 284 316 772 0 487-316 771-315 285-856 285-253 0-505-56-251-56-513-175z" transform="scale(.01563)"/></defs><use xlink:href="#DejaVuSans-35"/><use xlink:href="#DejaVuSans-30" x="63.623"/></g></g><g id="ytick_3"><use xlink:href="#md917148bdc" id="line2d_6" x="38.05" y="104.201" style="stroke:#000;stroke-width:.8"/><g id="text_7" transform="matrix(.08 0 0 -.08 15.78 107.24)"><use xlink:href="#DejaVuSans-31"/><use xlink:href="#DejaVuSans-30" x="63.623"/><use xlink:href="#DejaVuSans-30" x="127.246"/></g></g><g id="ytick_4"><use xlink:href="#md917148bdc" id="line2d_7" x="38.05" y="87.436" style="stroke:#000;stroke-width:.8"/><g id="text_8" transform="matrix(.08 0 0 -.08 15.78 90.475)"><use xlink:href="#DejaVuSans-31"/><use xlink:href="#DejaVuSans-35" x="63.623"/><use xlink:href="#DejaVuSans-30" x="127.246"/></g></g><g id="ytick_5"><use xlink:href="#md917148bdc" id="line2d_8" x="38.05" y="70.671" style="stroke:#000;stroke-width:.8"/><g id="text_9" transform="matrix(.08 0 0 -.08 15.78 73.71)"><use xlink:href="#DejaVuSans-32"/><use xlink:href="#DejaVuSans-30" x="63.623"/><use xlink:href="#DejaVuSans-30" x="127.246"/></g></g><g id="ytick_6"><use xlink:href="#md917148bdc" id="line2d_9" x="38.05" y="53.906" style="stroke:#000;stroke-width:.8"/><g id="text_10" transform="matrix(.08 0 0 -.08 15.78 56.945)"><use xlink:href="#DejaVuSans-32"/><use xlink:href="#DejaVuSans-35" x="63.623"/><use xlink:href="#DejaVuSans-30" x="127.246"/></g></g><g id="ytick_7"><use xlink:href="#md917148bdc" id="line2d_10" x="38.05" y="37.141" style="stroke:#000;stroke-width:.8"/><g id="text_11" transform="matrix(.08 0 0 -.08 15.78 40.18)"><use xlink:href="#DejaVuSans-33"/><use xlink:href="#DejaVuSans-30" x="63.623"/><use xlink:href="#DejaVuSans-30" x="127.246"/></g></g><g id="ytick_8"><use xlink:href="#md917148bdc" id="line2d_11" x="38.05" y="20.375" style="stroke:#000;stroke-width:.8"/><g id="text_12" transform="matrix(.08 0 0 -.08 15.78 23.415)"><use xlink:href="#DejaVuSans-33"/><use xlink:href="#DejaVuSans-35" x="63.623"/><use xlink:href="#DejaVuSans-30" x="127.246"/></g></g><g id="text_13" transform="matrix(0 -.08 -.08 0 14.116 105.261)"><defs><path id="DejaVuSans-66" d="M2375 4863v-479h-550q-309 0-430-125-120-125-120-450v-309h947v-447h-947V0H697v3053H147v447h550v244q0 584 272 851 272 268 862 268z" transform="scale(.01563)"/><path id="DejaVuSans-72" d="M2631 2963q-97 56-211 82-114 27-251 27-488 0-749-317t-261-911V0H581v3500h578v-544q182 319 472 473 291 155 707 155 59 0 131-8 72-7 159-23z" transform="scale(.01563)"/><path id="DejaVuSans-71" d="M947 1747q0-634 261-995t717-361 718 361q263 361 263 995t-263 995q-262 361-718 361t-717-361-261-995M2906 525q-181-312-458-464-276-152-664-152-634 0-1033 506-398 507-398 1332t398 1331q399 506 1033 506 388 0 664-152 277-151 458-463v531h575v-4831h-575z" transform="scale(.01563)"/><path id="DejaVuSans-75" d="M544 1381v2119h575V1403q0-497 193-746 194-248 582-248 465 0 735 297 271 297 271 810v1984h575V0h-575v538q-209-319-486-474-276-155-642-155-603 0-916 375-312 375-312 1097m1447 2203" transform="scale(.01563)"/><path id="DejaVuSans-6e" d="M3513 2113V0h-575v2094q0 497-194 743-194 247-581 247-466 0-735-297-269-296-269-809V0H581v3500h578v-544q207 316 486 472 280 156 646 156 603 0 912-373 310-373 310-1098" transform="scale(.01563)"/><path id="DejaVuSans-63" d="M3122 3366v-538q-244 135-489 202t-495 67q-560 0-870-355-309-354-309-995t309-996q310-354 870-354 250 0 495 67t489 202V134Q2881 22 2623-34q-257-57-548-57-791 0-1257 497-465 497-465 1341 0 856 470 1346 471 491 1290 491 265 0 518-55 253-54 491-163" transform="scale(.01563)"/><path id="DejaVuSans-79" d="M2059-325q-243-625-475-815-231-191-618-191H506v481h338q237 0 368 113 132 112 291 531l103 262L191 3500h609L1894 763l1094 2737h609z" transform="scale(.01563)"/><path id="DejaVuSans-48" d="M628 4666h631V2753h2294v1913h631V0h-631v2222H1259V0H628z" transform="scale(.01563)"/><path id="DejaVuSans-7a" d="M353 3500h2731v-525L922 459h2162V0H275v525l2163 2516H353z" transform="scale(.01563)"/></defs><use xlink:href="#DejaVuSans-66"/><use xlink:href="#DejaVuSans-72" x="35.205"/><use xlink:href="#DejaVuSans-65" x="74.068"/><use xlink:href="#DejaVuSans-71" x="135.592"/><use xlink:href="#DejaVuSans-75" x="199.068"/><use xlink:href="#DejaVuSans-65" x="262.447"/><use xlink:href="#DejaVuSans-6e" x="323.971"/><use xlink:href="#DejaVuSans-63" x="387.35"/><use xlink:href="#DejaVuSans-79" x="442.33"/><use xlink:href="#DejaVuSans-28" x="533.297"/><use xlink:href="#DejaVuSans-48" x="572.311"/><use xlink:href="#DejaVuSans-7a" x="647.506"/><use xlink:href="#DejaVuSans-29" x="699.996"/></g></g><path id="line2d_12" d="M17.35 137.73h25.875l.259-48.405.258-.181.26.705.258.013.259-2.221.776-12.714.259-1.236.517 1.868.776 3.895.26.18h.258l.517.472.26-.231.258-1.213 1.294-11.006.258-.683.26-.267 1.034-.18.259-.322.259-.603.517-1.988 1.294-5.652.776-2.306.259-.549.259-.27.517.02.259-.303.776-1.345.517-.44.777-.26.258.117.26.49.258 1.126.517 4.324.518 4.588.259.923.258-.803.26-2.922.775-11.907.26-1.459.258-.188.517.765.518.236.517.243 2.588 2.084.776.294.518.037.258.171.26.617.258 1.401.517 5.715.518 5.425.259.233.258-1.44.26-.696.258 1.762.517 5.968.26 1.526.258.498.517.311.259-1.302.259-5.256.517-15.801.259-5.036.259-1.98.259.174 1.035 4.057 1.034 3.13.777 3.857 1.293 6.898 1.553 6.741.517 5.676.518 7.073.259 1.852.258.226.26-1.64.517-4.65.258 1.105.26 2.456.258 1.223.259-.367.517-3.06.259-1.43.259-.314.258.517.26-.1.258-2.984.517-9.802.26-.822.517 4.888.258 1.243.26-.085 1.034-4.332.259-.318.259.016.517.568.776 1.168.518 1.405 1.294 4.336 1.035 2.583.517 2.524.776 5.031.259.828.259-.842.517-3.816.259.272.259.762.258.124.26-.304.258.766.259 3.161.517 8.257.259 1.568.259-.169.258-1.604 1.035-13.57.26.58 1.034 6.774.776 2.915.518 1.217.517 1.037.777 2.677.258-.127.518-1.255.259-.307.258.01.518.607.517.579 1.035.494.26.414.258.847 1.035 5.302.259.284.258-.2.518-1.102.776-1.883 1.035-1.28.259-.068.259.26.517 1.378.518 1.28.258.28.259.114.517-.106.518-.413.259-.437.258-.738.518-2.686.517-4.436 1.035-14.065.26-.403.517 3.238.258.116.518-2.065.259-1.298.258-.659 1.035 2.44.26 61.568h13.713l.258-58.467.26.79.258-1.088.259-2.092.258-.951.26.726.517 2.883.258.814.777 1.191.517 1.045.259.2.259-.378.258-1.196 1.035-8.264.26-.55.258 1.095.776 7.993.259-.352.776-4.364.259-.134.517.596.26.464.258-.307.259-2.21.776-10.69.259-2.018.258-1.065.26-.35.258.177.517 1.248.777 2.22.517.95.518.653.517.388.518.352.517.92.776 1.438.518.652.517.288 1.811.46.26.197.517.938 1.293 3.226.777 1.487.517 1.257.518 1.604.258.174.777-1.293 1.81-.708.26-.237.776-1.31.259-.01.258.385.518 1.69.517 1.925.26.33.258-.418.517-1.898.26-.34.258.258.517 1.078.26-.098.258-.919.517-4.039.777-7.542.517-3.098.259-.217.259.34.517 1.34 1.035 3.1.259.385.517.254.776.222.518.405.517.627.518 1 .517 1.533.518 2.951.776 6.185.259-.493.517-4.043.26.6.517 4.569.258 1.156.26-.522.258-1.267.517-1.255.26-2.725.517-10.308.258-2.378.26 2.38.775 15.462.518 4.758.517 2.24 1.035 3.434.26-.095.517-1.19.258-.218.26.196 1.552 2.626.517.227.518-.156.517-.175 1.035-.197 1.035-.343.517.15.518.544.517.682.26.123.258-.183.776-1.015.518-.344.258.074.26.653.258 1.572.776 5.983.776 2.723.26-.768.517-6.713.258-1.599.26-.415.258-.02.259.337.258.883.518 4.006.259.355.258-1.127.26 37.985h1.034l.259-70.074.517-6.36.26 1.29.775 14.131.26 2.146.258.864.517.593.26.694.258 1.455.517 5.485.26 3.016.258 1.141.259-1.792.776-9.84.259-1.563.258-.528.259-.014.259-.646.259-2.517.258-5.568.518-15.855.259 3.513.517 16.955.517 7.792.518 2.906 1.294 3.958.776 2.42.259.287.258-.069.26.233 1.034 2.13.518.243.258.039.26-.106.517-.47.258-.077.26.172.517 1.055.258.648.26.33.258-.566.259-2.074.517-5.542.518-1.052.258-1.496.777-7.807.258-.07.26.682.258-.01.259-.526.517.598.259-.806.259-1.192.258.413.26.727.258-2.087 1.035-23.488.259 86.279H231.4" clip-path="url(#p4143e8fa72)" style="fill:none;stroke:#1f77b4;stroke-linecap:square"/><path id="line2d_13" d="M17.35 137.73h26.134l.258-43.828.518-19.358.517-9.131.26-2.91.258-.881.259.765.517 3.075.518 6.718.517 5.756.518 2.557.258.623.26.033.258-.778.259-1.77 1.035-10.091.776-2.878 3.622-10.098.259-.222.259-.024.259-.264.517-1.462.259-.232.517.376.518.351.776.042.517.39.26.353.258.587.259.927 1.035 4.864.258.183.26-.08.258-.278.259-.623.258-1.172 1.294-8.898.259-.155.517.68.777.948.776.912.517.643.26.11.258-.089.776-.763.259.128.259.57.258 1.035.26 1.603.258 2.408.517 8.255.518 10.658.259 1.29.258-3.69.518-11.104.259-.853.517 3.965.259-.218.259-1.448.258-2.275 1.035-15.665.259.14.518 2.56.517 2.683.518 1.742.776 2.105.776 2.957 1.552 6.748.777 3.824.776 2.754.517 4.06.518 4.428.259.417.258-1.493.518-5.451.259-.52.258 2.077.518 10.048.517 8.857.26.725.775-2.053.518.944.259-1.452.517-7.07.776-15.54.26-1.89.258-.756.259.09.517 1.752.518 1.611.517.664.518.51.517 1.23.776 2.223.518.548.517.142.259.192.259.394.517 1.456 1.035 4.22.259-.458.517-3.164.26-.492.258-.05.259.274.258.06.26.386.258.658.259-.323.258-1.174.26.015.258 2.87.517 6.971.26-1.205.775-16.55.26.616.775 11.07.518 2.705 1.294 3.89.517 1.832.259.153.259-.721.776-4.73.259-.127 1.552 3.155.259.35 1.035.639.259.606.517 2.448.518 2.298.258.227.777-1.226.258-.105.259-.465.518-2.677.258-1.33.259-.666.259-.005.259.481 1.293 3.69.259.16.517-.09.518-.296.259-.383.517-1.84.518-2.622.258-2.156.777-9.939.258-.315.777 3.104.258.156.26-.512.258-1.073.259.224.258 2.66.518 9.301.259 2.493.258-1.482.777-13.864.258-2.518.26 63.624h12.419l.259-54.498.517-4.177.259-.025 1.035 2.744.517 3.297.518 3.755.259 1.09.258-.111.518-2.697.776-4.987.259-1.098.259-.326.258.338.777 2.182.258-.262.26 54.775h2.07l.258-43.917.259-3.13 1.035-22.403.258-2.99.26-.932.258.47 1.035 3.7.776 1.34.776 1.176.777 1.27.258.06.259-.38.518-1.22.258-.263 1.035-.079.518-.254.517.306.518.272.776-.034.259-.005.258.125.518.69.517.751.777.438.258.371.26.58.517 2.003.517 2.223.259.682.259.26.258-.1.518-.37.517-.252.26-.393.258-.767 1.811-7.394.518-.987.258.213.26 1.239.517 6.123.258 3.426.26 1.642.258-.155.517-2.575 1.035-7.481 1.035-10.793.259-.031.776 9.594.259.432.776-5.078.259-.202.517.768 1.035 1.687.26.119.258-.063.517-.509.518-.607.259-.092.258.086.26.271.258.517.259.886.258 1.393.518 4.662.517 5.16.518 2.598.776 2.453.518 2.55.258.518.26-.264.258-.818.517-2.943.518-2.867.259-.259.258.707.777 4.897 1.81 10.047.26-.919.776-5.262.259-.426.258.332.518 1.009 1.035 1.245.517.793.518.398.259.023.258-.125.518-.688.517-.604.259.04.517.724.777 1.105.517.124 1.035-.18.259.292.259.552.258.924.518 3.096.776 6.461.518 4.326.517 2.22.259.585.259.203.517-.814.259.243.259 26.225h4.398l.26-61.037.258 2.601.259 1.233.258-.376.26-.585.258.223.517 2.742.518 3.585.517 5.188.777 8.418.517 3.937.259.994.259-.932.776-9.836.259-.62.258.217.259-1.374.259-5.175.517-16.006.259.094.776 14.096.518 2.362.517 2.044.776 3.42.518 1.292.517.563.518.071 1.294-.553.517.348 2.329 2.267.259-.044.258-.914.26-2.584 1.034-16.373.259-.659.259 1.527 1.035 15.383.517 3.15.259-.65 1.035-6.285.259 48.248H231.4" clip-path="url(#p4143e8fa72)" style="fill:none;stroke:#ff7f0e;stroke-linecap:square"/><path id="line2d_14" d="m38.047 120.96.23-.015.53.028 6.62-.103.052-.09.049.141.097.436.032-.325.055-.984.055.915.075.7.042-.548.035-.513.084.282.126-.276-.061.325.078-.28.09 1.014.068-.71.074-.464.052.3.081.899.052-.679.077-.468.055.15.052.08.071.741.058-.513.107-.568.046.18.09 1.25.058-.765.097-.785.046.228.093 1.354.059-.871.11-.806.025.25.097 1.547.059-.92.087-.874.055.33.065.893.029.47.068-.74.077-.865.072.143.093 1.51.065-.837.1-1.1.04.448.077 1.698.055-.698.132-1.675.01-.12.013-.484.048 2.865.046 1.4.039-2.82.122-2.649-.061 4.282.078-2.832.087 5.529.039-4.034.113-3.84-.052 6.335.065-4.763.094 7.953.026-5.674.093-4.998-.029 7.885.062-5.748.087 7.392.013 1.945.052-9.709.032 5.675.032-8.215.084 6.773.052 4.671.02-9.307.006-.879.042 10.548.003.417.026-10.414.007-1.011.029 7.463.055-3.692.061 6.316.026-12.037.026 8.577.042-9.63-.026 13.142.107-5.263.078 5.8.01-6.174.083-8.799-.051 14.498.074-1.437.042-9.785.052 10.908.022-3.017.107-10.726-.052 15.996.062-7.745.01 6.294.022-11.277.081 9.204h.003l.03 1.557.01-9.202.08-2.823-.052 14.323.068-2.06.026-11.467.104 8.617.048 5.042-.026-13.603.071 3.108.046-3.685-.023 11.006.08-3.047.072-6.575.023 11.521.003.472.026-10.556.02 1.592.044-4.22-.022 9.306.08-1.53.033 3.934.026-6.99.006-3.534.03 10.642.067-3.666.004.08.006-1.289.013-5.387.087 9.378.004-.276.01 1.291.009-4.05.01-7.02.029 10.699.07-4.163.017-4.005.074 7.538.013-1.515.004-.132.01 3.774.003.614.022-14.433.042 5.815.026-3.883.02 8.754.064-5.18.104 9.264-.023-14.895.036 8.502.035-6.037.016 8.057.065-6.042.026 8.21.048-11.846.004-1.02.026 15.316.055-8.723.068-3.51.051 10.616.003.017.026-12.768.023 13.248.097-7.984.078 8.646-.052-13.373.068 3.41.01-5.232.022 13.96.075-6.185.048-4.883.03 10.467.006-.275.01 1.933.028-13.572.04 7.17.032-5.899.084 2.092.032 10.92.032-13.878.049 3.997.023-2.674.055 4.52.029-1.836.029 9.935.032-13.172.049 3.392.016-2.973.029 4.333.058-1.939.039 9.932.026-12.06.048 3.107.016-2.78.088 3.31.032 8.48.032-11.255.046 2.419.084-2.393-.01 2.465.026-.563.03 8.69.038-9.936.045 2.374.026-2.908.075 2.953.035 6.797.026-8.487.048 1.747.004.01.003-.308.02-2.134.077 3.741.023 4.76.035-7.114.045.85.007.143.055-1.946.003-.074.03 1.322.032 5.92.077-5.692.003-.003.13 4.958-.055-6.244.08 3.273.13-2.777.016.523.04 4.387.07-4.434.042-.663.058 1.054.072 3.937.035-3.82.046-1.598.058 1.816.064 3.935.042-3.965.049-2.43.055 2.557.061 4.25.046-4.506.032-2.716.068 3.021.061 4.438.046-4.78.032-2.793.065 2.914.064 4.778.042-4.824.036-2.936.065 3.304.061 4.31.042-4.338.039-3.147.065 3.518.061 3.781.042-4.389.039-2.942.061 3.624.052 3.636.052-4.097.042-3.13.058 3.592.055 3.515.049-4.044.045-3.105.055 3.443.058 3.567.049-4.106.045-2.902.052 3.421.058 3.608.048-4.205.046-2.841.052 3.385.058 3.659.048-4.112.046-2.844.051 3.226.059 3.677.048-4.06.036-2.734.061 3.173.058 3.652.049-4.009.039-2.814.061 3.407.052 3.392.052-3.782.042-2.92.061 3.335.055 3.318.049-3.585.042-2.895.064 3.049.058 3.228.049-3.264.045-2.733.065 2.729.058 3.115.052-3.117.065-2.551.045 2.24.061 3.249.055-2.8.065-2.706.052 2.318.058 3.17.058-2.75.062-2.84.055 2.316.064 3.249.055-2.753.062-2.7.055 2.022.061 3.12.058-2.326.065-2.69.052 1.937.065 2.738.058-1.786.064-2.671.059 1.959.048 3.091.055-3.284.033-2.163.077 1.901.045 6.105.046-6.167.016.048.029-1.292.074 1.463.036 6.744.039-8.606.035 2.149.068-2.249.02 2.199.029 6.98.039-11.016.045 4.781.058-2.797.03 4.388.019 5.046.038-12.61.046 6.17.064-2.635.023 4.471.023 5.044.035-13.766.046 6.717.064-2.375.023 4.484.022 5.289.036-14.376.042 7.418.068-2.768.026 5.052.02 5.08.038-15.065.042 7.285.023-2.757.071 5.486.02 5.262.035-15.329.045 7.309.02-3.256.074 6.103.02 5.388.035-15.585.045 7.27.02-3.275.074 6.331.02 5.092.032-15.553.048 7.223.017-3.036.077 6.715.016 4.666.036-15.814.048 7.085.017-2.672.074 5.642.02 5.752.035-15.848.048 6.826.017-2.487.074 6.3.016 5.523.036-16.456.048 7.47.016-2.995.078 6.808.016 5.341.036-16.518.048 7.044.017-2.772.077 6.61.02 5.572.032-16.452.048 6.606.017-2.328.077 6.343.02 6.251.029-17.202.051 6.688.017-1.99.077 5.773.02 7.067.032-17.724.049 6.717.016-1.707.077 5.313.02 7.624.032-18.056.052 5.946.013-.911.013 2.577.042-2.25.039 11.825.003 1.125.032-18.381.045 8.928.02-3.648.08 5.897.02 7.451.03-18.499.051 6.623.013-1.346.029 3.143.049-.289.022 10.22.032-18.325.052 6.541.013-1.212.03 2.898.045-1.077.025 10.99.033-18.018.048 6.885.016-1.516.078 3.367.023 9.379.032-18.422.049 7.089.013-1.116.08 2.948.023 9.46.032-18.315.049 6.911.071-.605.023 2.039.022 9.989.033-18.574.048 7.1.078-.604-.049 1.78.065-.366.026 10.902.029-18.538.052 6.632.116 11.58-.035-12.133.051 2.05.013-7.772.03 10.405.067-4.56.071 11.949-.035-12.147.055.321.013-5.678.026 9.64.07-3.556.069 11.022-.036-11.944.055 1.637.013-6.482.03 9.004.067-3.276.071 10.716-.039-11.642.059.436.01-4.744.028 8.156.068-3.023.072 10.534.022-11.718.01-3.719.029 7.688.068-2.415.071 9.848-.042-11.118.061 1.062.01-4.773.03 7.43.07-1.978.072 9.12-.042-11.051.058 2.705.013-6.07.029 7.025.068-1.847.07 8.962-.041-10.976.061 2.418.013-5.35.026 6.538.071-1.576.026-2.021.016 2.928.03 7.679.029-13.29.048 4.567.013.852.058-2.074.003-.403.04 8.918.006.972.032-12.418.036 4.594.087-1.877-.061 2.204.074-.556.036 7.257.032-10.475.039 2.786.077-1.17.02 2.285.035 5.696.033-8.665.035 1.808.081-.828-.045 2.025.064-.066.04 4.502.035-6.305.029.95.078-.643-.046 1.512.068-.562.049 4.051.048-4.466.007.103.1-.258-.061.777.07-.572.069 3.493.045-2.962.016-.75.049.798.048-.347.068 2.869.052-2.236.061-.592.052.3.01.098.006-.06.081 1.362.039-.63.052-.983.067.537.081.485-.061-.7.094.604.045-.578-.036.633.107-.51.042.54.062-.686.006.155.026-.177.016.32.042-.06.045.471-.029-.507.1.256.075-.43.045.133.078.497.045-.22.036-.282-.026.29.116-.192.04.222-.03-.292.104.167.022-.155.036.258.051-.097.004.055.045-.269.058.142.042-.056.055.223.02.052.029-.146.116-.22.084.399-.064-.477.093.256.017-.115.051.236.03-.12.084.18-.065-.36.09.29.104-.18-.03.449.033-.27.023.204.052-.346.029.08.048-.077.039.345.016-.244.007.265.061-.306.039.033.003-.05.045.322.055-.227.033.19.061-.274.007.033.11-.131-.03.178.033-.114.065.15-.026-.374.07.3.017-.094.058.232.033-.103.032.044.02-.458.006.011.01.247.077.327-.042-.405.08.388.024-.169.019.42.003.057.068-.656.007-.102.061.612.016-.029.155-1.333-.126 1.86.146-1.362.068 2.006.032-2.296.065-1.773.039 2.615.045 3.542.029-7.075.032 3.44.026-3.882.068 5.92.023 2.306.029-9.429.039 4.834.026-4.44.067 6.857.023 3.614.03-12.663.045 6.194.019-4.787.074 8.661.016 3.918.03-14.683.048 6.369.016-5.38.075 9.369.02 6.176.018-15.64.007-3.314.029 15.163.061-2.454.02-5.752.042 8.613.01 4.956.026-21.84.055 8.255.012-6.122.085 14.827.01 6.29.025-23.347.058 5.94.01-6.1.087 18.563.01 5.51.026-24.092.055 9.636.01-10.997.093 22.27.007 3.403.023-24.665.058 9.794.01-11.49.093 22.261.071 3.937-.042-24.76.062 6.153.01-8.297.09 20.788.074 7.995-.042-27.464.059 10.547.01-11.969.093 21.031.075 9.108-.043-29.15.059 11.035.013-10.901.084 21.371.039-21.892-.017 27.373.055-3.181.004 5.687.029-27.55.068 6.068.042 18.607.013-25.47.003-1.562.042 30.653.048-22.91.091 19.502.016-27.558.045 30.888.094-23.23.062-8.287-.017 27.8.049-12.977.013 14.603.039-27.021.052 7.166.064-8.447-.013 27.809.049-12.31.01 12.063.042-25.453.051 6.686.065-6.98-.013 25.404.049-12.35.012 10.23.04-21.83.048 6.585.003.056.006-1.576.085-6.37-.033 23.443.042-11.603.016 10.41.033-19.469.052 6.79.103-7.737-.036 23.405.043-16.945.019 14.62.048-19.388.042 4.057.062 16.865.016-22.13.016.926.004-4.389.045 23.305.052-7.715.087 11.123-.049-20.827.055 6.361.026-12.765.046 24.403.038-19.208.104 21.092.006-12.24.03-13.512.041 24.295.042-19.123.098 18.474.016-11.907.026-12.088.045 23.99.042-16.701.107 15.254.006-7.604.026-13.038.045 20.668.042-15.15.11 15.156.007-6.089.026-13.478.045 18.63.042-14.32.113 16.484.007-6.836.025-13.619.046 17.895.042-14.582.116 16.39.007-6.902.026-12.11.045 16.533.042-13.804.12 15.432.006-6.888.026-9.56.045 14.318.042-11.686.12 12.416-.097-13.233.11 5.21.026-4.834.042 9.587.003.404.039-8.238.022-1.368.059 6.412.042 4.513.039-10.76.019 2.032.003-.093.003 1.875.023 3.79.074-6.91.01 2.286.01-2.361.061 8.986.004.473.045-8.957.013 2.213.022-2.25.01 5.64.081-5.053.097 6.941.032-3.147.007-.421.022-2.062.065 2.127.026-.615.042-.936.052 1.683.01-.197.042 1.444.061-1.469.078-1.247.045.078.116 2.414-.1-2.606.162 1.629.077-1.749.052.734.13 1.474-.12-1.499.178.826.084-1.026.045.355.149.611.02-.004.003.01.042-.224.074-.323.048.196.059.384.061-.296.078-.416.045.198.087.562.052-.287.078-.406.052.226.07.274.065-.138.068-.19.023-.019.061.113.162.168.055-.131.055-.113.062.11.093.15.042-.071.088-.148.048.043.146.116.035-.076.094-.131.042.053.11.167.058-.102.071-.076.049.066.078.105.064-.058.078-.065.048.031.091.079.039-.04.09-.156.036.043.113.11.016-.02.004.01.068-.142.003-.001.016-.078.061.168.017-.041.097.095-.026-.11.035.022.04-.132-.03.262.1-.195.113.354-.061-.457.065.362.013-.255.07.338.027-.029.013.102-.007-.294.026.202.074-.493-.064.551.1-.485.074.627-.006-.728.045.702.081-.677.032.296.11.565-.09-.684.094.337.08-.33-.064.618.094-.385.055-.506-.004.779.007-.444.013.638.045-1.063.052.286.016-.271.1.902.084-.94-.055 1.04.084-.904.12 1.337-.08-1.604.09 1.588.132-2.183-.103 2.363.142-1.765.075 2.073.045-1.026.006.001.004-.112.1-1.608.039.667.074 2.528.042-1.865.11-1.578.013.37.08 3.726-.07-3.795.113 1.073.026-1.287.093.017.007-.275.042 3.082.032 1.653.055-4.335.004.143.01-.998.032 1.78.068-.956.006-.032.013 1.23.052 4.2.045-4.757.023-2.247.064 3.057.026-1.348.003-.284.052 4.83.02 1.833.048-6.364.023-2.698.064 4.356.017-1.014.084 6.32-.071-7.741.1 2.22.039-4.388.064 4.922.013-2.993.09 7.73-.074-8.135.1 4.23.043-6.379.077 1.778.09 8.898.027-4.578.042-6.793.045 8.153.023-1.366.01-5.037.074 9.966.013-.723.006 1.05.049-11.35.013 1.711.006-2.344.045 9.647.059-7.58.003-.115.013 3.243.032 7.682.065-13.059.003-.833.065 11.805.048-11.202.046 11.838.022 3.283.033-13.256.006 1.258.023-4.629.045 12.714.042-8.95.094 12.985-.068-16.754.09 7.74.023-8.09.062 14.166.022-4.627.094 6.752-.078-15.703.104 10.872.039-11.553.068 13.559.003-1.41.032-11.378.071 14.105.004 1.557.067-15.544.03 8.869.019 3.598.055-11.637.026 4.007.1-3.995-.048 13.916.064-11.7.049 8.778.035-10.124.026.979.007-.965.045 8.836.016-.123.01 3.434.045-11.974.055 8.971.007.74.016-5.323.013.654.01-5.451.096 9.124.01 2.442.055-10.822.049 9.6.003.078.006-1.62.046-8.82.064 7.422.033 3.505.055-10.222.016 5.829.087-6.899-.052 11.176.078-6.956.078 6.154.032-6.56.02-2.346.048 8.797.003.489.032-9.195.013.709.007-1.87.084 7.141.023 3.065.051-9.033.036 6.579.048-7.317-.032 9.728.133-4.796.026 4.909.051-8.456.042 5.822.01.867.003.41.03-8.755.054 6.31.13-4.83-.052 9.193.055-8.85.03 8.006.05-10.346.036 5.024.004-.021.003.457.087 6.144-.052-7.156.072.251.035-2.52.023 6.593.006 2.054.055-10.567.036 4.737.042-.959.032 4.003.107 3.877-.055-9.582.061 7.83.049-9.673.074 3.815.007-.265.035 4.414.02 2.53.029-8.712.061 7.03.049-7.068.078 1.334.061 6.738.058-5.792.007.665.022 4.025.052-6.666.036 2.352.042-1.273.048 4.003.016 2.077.046-5.214.048 3.499.007-.356.042-4.137.09.78.071 5.755.049-4.774.042 1.743.039-2.303.055-1.054.045 1.294.078 4.243.038-3.59.117-1.251-.058 1.566.077-1.363.114 1.787.042 1.328.045-1.779.1-.958.026.398.126.726.02-.063.155-.283.003-.009.052.162.022.077.065-.24.045-.165.068.142.107.528.045-.258.097-.402.049.096.113.274.032-.048.123-.252.03.055.116.312.061-.169.068-.186.065.106.103.184.065-.124.042-.046.065.078.679-.01.068.026-.016-.044.058.013.078-.065-.046.077.084-.04.007.057.061-.082.046.055.126.181-.104-.207.14.108.035-.064.052.11.022-.048.104.041-.065-.113.078.059.08-.068-.051.115.08-.037.175-.421.062.08.016-.023.123.559.02-.022-.007-.068.01.02.132-.509.007.132.016.091.045.403.071-.048.088-.535-.072.649.123-.544.107.241-.013-.401.016.221.004-.269.074 1.821.02-.476.051-2.258.116.992.052 3.503.046-3.278.025-2.187.033 2.799.058-2.312.026-.336.032 2.452.01-.555.071 3.157.036-3.842.003.357.068 1.895-.052-3.881.09 1.185.023-1.538.071 3.67.01-1.074.055 4.624.03-4.596.025-3.846.052 6.376.032-2.683.03-3.304.054 4.934.036-2.636.003-.025.01.639.048 6.196.033-9.496.013 2.673.006-5.135.049 10.36.058-7.743.006-.743.049 6.701.042-3.817.01-1.004.029 3.547.032 5.359.036-11.485.016.562.003-2.476.032 12.317.071-7.992.01-1.756.052 7.118.048-5.617.046 8.006.058-10.682.003-1.804.052 12.762.048-7.114.046 4.441-.033-7.8.094 2.271.026-.616.032 6.928.01-1.204.01 2.707.058-11.123.036 6.592.077-4.42-.048 8.65.077-3.736.071-4.124-.051 5.745.09-2.02.049 4.342.029-7.632.013 1.691.006-5.151.065 11.708.036-5.922.061 3.305-.049-7.652.091 2.173.023-1.2.013 3.515.013-.093.055 5.084.045-8.656.003-.57.049 8.65.012-1.425.004 1.234.048-7.258.055 4.484.058-4.513.046 4.989.039 3.4.025-6.62.01 2.194.01-5.146.065 8.658.035-5.204.062 2.702-.049-4.539.094 1.412.003-.003.03-.665.028 2.827.033 3.205.058-6.855.003-.379.045 6.25.017-.641.003 1.01.064-5.469.033 2.419.084-1.313-.068 2.235.097-1.342.006-.072.023 1.12.039 1.061.045-1.521.016.345.013.358.11-1.54.068.702-.048-1.032.09.54.007-.686.074 3.527.007-.024.01.423.045-3.532.006-1.318.065 4.384.035-2.172.01-2.223.061 2.836.049-2.676.084 6.159.042-4.638.026-3.374.045 7.785.036-4.176.074 2.82-.061-5.643.094 2.036.113 5.223-.084-7.567.106 6.414.026-7.784.065 9.932.02-2.029.028-7.234.091 2.396.016-2.2.042 3.656.058 3.149.033-5.196.013 1.02.026-3.394.045 8.757.039-4.61.01-3.548.045 6.46.061-6.051.12 6.776.003-.148.049-7.366.045 7.894.026-5.017.022-1.473.042 4.61.046-3.8.142 6.303-.126-7.824.13 7.404.048-8.693.045 9.627.023-4.907.022-3.293.062 5.711.029-4.576.123 5.975-.107-7.645.113 6.329.065-6.752-.049 8.86.091-1.19.003 1.297.049-7.638.051 4.043.007.796.048-5.409.055 4.55.072 2.792.01-3.874.041-3.52.046 8.037.016-2.318.003.63.03-5.87.07 4.224.036-4.303.058 4.118.065 2.133.035-4.719.023-.366.042 4.841.003.965.049-6.082.055 3.969.064-5.017.049 4.764.061 1.459.02-3.114.016.024.006-1.843.065 4.864.042-3.852.058 2.124.068-3.446.107 4.66.055-2.535.01-.433.055 2.106.003.005.003-.126.058-2.176.088.531.029-.409.068.825.026.726.035.772.055-1.362.007.04.029-.147.029.383.006-.05.052-.602.081.14.055-.503.058.462.081 1.248.049-.791.12-.616.019.173.042.448.055-.638.032-.19.045.384.084 1.068.065-.509.084-.6.058.282.013.005.03-.143.067-.366.042.335.065.757.074-.24.227-1.025.052.296.077 1.139.104-.202.194-1.268.039.38.064 1.599.123-.656.194-1.69.042.767.049 2.106.013.613.032-3.21.058 2.16.181-2.968.042.382.094 4.64.02-3.525.013-1.872.055 4.083.042-2.488.055 1.009.029-1.205h.022l.065-.964.026 1.583.003-.046.016-.375.013 1.17.046 2.903.025-6.659.004-.363.029 5.821.061-4.38.023 4.43.094-3.184.02-1.183.067 1.515.02-.173.058 4.194.02-5.226.009-2.613.029 8.161.065-3.402.016 2.472.026-5.564.058 1.081.003-.024.016.526.094.845-.039-1.614.055.731.003-.096.023 2.336.032 1.757.026-6.351.004-.29.025 7.534.017-3.945.093-2.386-.029 4.582.042-1.523.013 2.605.026-5.186.065.436.01-1.085.077 3.248.013-.906.003-.043.023 1.166.023 3.031.025-7.945.046 3.709.087-2.036-.026 4.577.039-2.14.013 3.46.029-5.341.065.901.013-1.7.077 3.593.02-1.766.045 4.376.016-5.471.01-3.026.026 9.207.064-2.421.004.16.032-3.893.003-.04.01 1.206.02 3.525.025-4.482.065 1.482.023-1.773.067 2.772.023-1.662.045 4.725.017-6.183.01-3.319.025 10.86.065-3.256.003.015.007-.382.022-3.386.036 3.936.07-3.296.114 1.782-.065-2.761.078 1.657.003-.15.036 2.67.058 4.148-.023-12.114.068 6.455.088 1.745-.036-4.5.052 2.234.113-2.69-.074 3.751.08-2.954.11 4.758.013-2.46.013-5.16.026 10.536.068-3.982.023-3.35.006-.342.033 4.107.045-1.814.006.234.068-2.15.007-.305.058 2.706.03-1.327.073 6.112-.022-10.63.039 3.446.01-1.818.045 5.132.045-.47.006.447.078-3.205.003-.109.023 1.803.048-.61.097 1.403-.07-1.87.087 1.173.016-1.511.026 2.744.064-.906.12-2.004.016 1.321.113.897-.084-2.086.09 1.757.043-2.647.022 4.461.055-2.257.017.721.032-2.164.042.413.003-.09.052 1.149.03-.456.08 2.566.013-3.29.01-2.604.022 7.719.068-2.27.003.248.026-4.775.04 1.73.009-.71.065 2.138.025-.638.084 3.145-.022-5.355.039 1.286.006-.834.049 3.068.045-.693.113.793-.084-2.716.087 2.687.026-3.086.023 3.64.068-1.331.006.794.023-3.07.078 1.947.064 1.572-.026-2.53.04.852.08-1.467.023 2.307.006-.62.045-1.027.02 1.46.048-1.033.004-.017.012.474.01.26.084-.913.007-.047.032.988.032-.59.085 1.08-.026-1.606.051.55.04.97.022-1.295.052.511.013-.777.09 1.146.003-.087.04-.648.077.256.08.355.02-.545.006-.082.085.45.01.132.041-.387.049.007.103-.067-.077.24.084-.184.08.252.036-.115.09.123-.041-.155.055-.006.01-.103.019.173.077-.016.091-.061.01.07.013.077.02-.147h.07l.075-.047-.023.162.036-.043.016.08.032-.174.055.048.013-.084.023.13.07-.016.02-.078.094.078.08.004-.019-.06.036-.004.007-.02.045.044.055-.002.194.018.006-.014.013-.026.023.053.065.013.129.03.013-.028.09-.006.02.028.113-.006.162-.061.24.006.138.012h.14l14.078-.1.084-.278.046.193.087.88.052-.525.07-.863.056.428.084 1.335.055-.847.084-1.28.052.681.084 1.598.055-.859.087-1.393.055.58.09 1.499.056-.584.097-1.395.052.348.093 1.62.052-.453.097-1.519.062.406.11 1.675.045-.668.097-1.485.042.38.061 1.175.046.587.055-.706.097-1.41.042.347.12 1.697.054-.745.094-1.438.032.468.14 1.571.132-1.724.01.08.01-.178.11 1.558.122-1.148-.07 1.917.074-1.534.003.086.074-.846.016.671.007-.45.055 1.277.039-.273.045.87.049-1.469.006.507.09-1.44-.08 1.53.103-.985.1 1.502-.09-2.012.103 1.658.04.67.006-.956.016.376.1-1.54-.09 1.868.103-1.495.007-.28.126 1.833.106-1.707-.084 2.141.1-1.96.052-.576.04.91.012-.055.003-.101.065 1.366.003-.154.03.633.058-1.628.006.022.036-1.036.08.532.007-.26.035 1.361.055 1.709-.048-1.947.094.046.061-1.664.058.343.017-.21.038 1.674.042 2.109.059-2.853.006-.1.12-1.2.016.23.078 4.315.042-3.04.042-1.373.077.23.013-.475.02.838.064 3.826.046-3.65.016-.742.061 1.623.13 2.35-.078-4.443.084 4.066.181-3.326.036.858.045 1.186.078-.09.003.023.036-.399.061-1.289.071.248.01-.012.026.24.074 1.63.058-1.075.084-.96.049.516.116.811.026-.164.107-.598.045.078.033.182.055.284.067-.173.094-.38.055.206.081.358.055-.192.084-.382.055.184.084.345.058-.203.098-.248.038.095.104.246.045-.048.1-.223.062.111.097.15.035-.092.062-.119.061.065.114.106.022-.04.14-.164.006.01.061.125.078.06-.068-.072.103.046.12-.41.055.25.107.37-.075-.495.084.329.117-.416-.097.557.116-.322.084.966.042-.64.097-1.1.023.602.104 2.48.029-1.843.074-1.977.045 1.05.007-.232.01-.641.055 4.688.006.398.042-5.162.007-.042.012.739.026 1.59.03-2.978.045.835.01-.778.054 6.153.013 1.132.036-7.392.074-1.331-.042 5.571.062-3.305.1 8.825-.068-10.043.08 2.379.095-4.82-.042 9.28.058-4.83.103 8.892-.064-12.173.074 7.087.09-9.934-.035 12.269.055-5.534.104 8.29-.059-12.705.072 9.488.09-13.548-.032 14.3.055-3.922.1 6.645-.065-12.45.081 8.747.09-13.775-.028 14.903.051-3.717.1 5.406-.06-12.39.077 10.069.016-15.052.1 11.722.013-3.195.023-4.411.048 11.373.007 2.058.042-18.431.052 13.71.022-13.15.016 14.571.081-9.006.02 12.793.042-18.89.003-1.288.023 19.863.058-9.197.107 9.02-.052-15.89.058 14.686.042-18.817-.016 21.083.097-9.147.107 7.634-.052-15.705.058 14.534.042-18.736-.016 22.944.097-13.034.11 9.792-.052-15.403.055 14.403.045-19.053-.016 24.489.094-17.913.113 12.57-.055-13.366.059 12.677.045-18.139-.016 23.75.093-17.353.114 10.735.003-.09.048-15.875-.016 21.288.097-10.423.11 4.22-.058-8.589.065 7.677.045-11.886-.016 17.429.097-10.441.061-3.044.071 9.438.013 2.798.01-7.995.01-7.082.022 13.525.075-2.478.042-8.853.065 9.587.019 2.492.01-4.817.013-9.062.022 12.188.075-2.855.038-7.504.065 9.224.023 2.35.01-5.442.012-7.18.02 10.828.077-2.99.04-7.164.057 8.771.023 3.218.02-9.43.006-2.175.023 9.26.07-2.383.046-6.472.055 7.556.02 2.617.032-9.224.055 6.849.084-7.11.039 4.12.02 2.875.025 2.483.023-8.511.01 2.262.012 4.46.055-6.593.042 3.033.003.02.004-.275.016-3.81.074 8.464.01 1.546.023-8.837.061 5.186.084-5.932.036 2.734.042 6.651.003.629.026-9.105.061 4.856.078-5.48.045 2.54.042 7.182.026-8.827.058 4.673.081-5.535.049 3.008.042 6.747.026-8.55.051 4.117.004.021.006-.32.078-4.861.045 2.262.042 7.01.032-8.229.049 3.624.01.186.01-1.145.022-3.714.023 4.173.07-1.533.043 6.539.029-8.462.048 3.64.004-.001.003.07.006.22.03-4.717.006.466.13 8.702-.088-9.12.097 7.553.113-7.728.013 2.35.12 7-.084-8.914.094 7.87.113-8.277.013 1.598.12 7.57-.085-8.99.09 8.751.12-8.997.017 3.133.116 6.2-.084-9.156.094 7.909.116-8.095.013 2.016.12 7.324-.084-9.058.09 8.397.12-8.47.013 1.802.12 7.333-.084-9.054.09 8.374.12-8.512.013 1.735.12 7.366-.085-9.236.09 8.725.124-8.794.01 1.608.116 7.441-.081-9.13.09 8.625.123-8.46.01 1.94.117 6.701-.081-8.88.094 8.201.12-8.065.009 1.547.12 6.816-.084-8.656.09 8.334.013-2.39.113-5.26-.064 6.347.074-4.273.12 5.022-.084-7.816.09 7.77.007.284.019-6.11.1-1.07-.068 6.747.075-5.714.042-1.675.087 7.164.01 1.04.016-4.977.013-2.554.022 7.226.075-6.04.045-1.466.09 7.114.007.423.026-7.104.045 3.017.017 1.068.022-2.749.045 1.33.02-2.747.068 5.055.01-.142.019 2.544.023-7.424.064 4.724.09-5.005.043 1.976.055 5.667.026-7.577.058 5.618.094-5.694.048 2.626.052 5.247.026-7.884.039 3.71.116-4.017-.097 6.401.12-3.339.013-1.05.016 1.977.094 4.347-.023-7.84.039 3.51.116-3.99-.097 6.29.11-4.616.087 6.326.02-5.904.003-.951.026 6.823.074-3.83.059-3.544.055 2.981.048 4.59.026-6.579.039 2.952.126-3.607-.11 5.266.123-4.612.084 6.1.09-2.796.088-3.819.032 1.16.078 4.987.055-1.175.123-4.503.026.497.045 2.575.042 2.403.032-3.393.033.858.123-2.786-.1 3.016.132-1.648.08 3.326.062-1.834.078-2.318.039-1.006.045 1.925.071 3.786.065-2.503.103-3.072.045 1.358.078 4.091.062-2.184.113-3.243.035.932.084 4.664.062-2.553.113-3.112.032.981.088 4.705.058-2.453.116-3.236.026.719.09 5.074.06-2.387.112-3.45.03.724.09 5.18.058-2.449.113-3.526.033.891.084 5.189.068-2.887.116-3.112.023.731.084 5.287.071-3.011.08-3.017.06.98.077 5.133.068-2.748.08-3.352.062.88.078 5.267.074-3.129.074-3.083.065 1.04.078 5.223.07-3.034.072-3.365.068 1.38.074 4.961.075-3.163.106-3.13.03 1.244.064 5.147.078-2.79.11-3.622.029 1.536.068 4.751.071-2.384.003.003.003-.128.11-3.7.03 1.912.067 4.198.078-2.833.094-2.924.048 1.792.068 3.657.059-2.839.035-.757.039-1.286.078.764.084 3.603.058-2.316.103-1.679.062.785.071 2.59.074-1.717.084-1.69.062.728.09 1.965.078-1.23.068-1.151.058.684.094.997.061-.308.091-.833.058.439.078.587.055-.326.1-.548.045.247.088.502.055-.209.09-.428.059.195.09.286.049-.134.087-.31.052.132.113.348.042-.133.094-.36.055.166.1.317.052-.16.087-.261.049.104.106.255.065-.13.084-.154.049.08.084.15.064-.088.084-.146.068.07.081.143.055-.114.062-.12.074.075.071.266.016.03.049-.193.003.004.084-.165-.058.191.116-.053.12.236.02-.142.07-.433.036.423.033.315.045-.58.045.49.058-.829.097.286.065.41.045-.376.01-.135.016-.15.081.463.003.002.007-.125.022-.307.03.725.042 1.842.042-2.984.058-.45.029 1.298.026-.331.029 1.175.032 2.87.052-5.583.003-.083.03 1.911.019.882.055-3.152.01.122.038 4.157.03 4.378.045-11.088.016 1.949.032 5.627.065-6.706.013 1.12.058 10.3.036-10.878.016-3.057.048 9.908.049-7.719.003-.46.058 6.59.026 6.226.052-14.523.032 8.042.016 2.022.052-8.89.026 2.877.058 10.281.033-10.578.013-3.679.058 9.527.045-8.09.006-.522.055 6.399.03 6.542.045-13.656.039 7.802.022 1.355.03-5.018.019-3.248.068 8.18.02 4.002.044-12.972.042 8.146.02.99.029-4.807.02-3.599.067 7.904.023 3.536.045-11.992.04 7.818.022 1.328.022-2.732.026-6.177.078 9.41.016 1.361.036-7.873.077 6.424.039-9.316.006.545.091 9.845.036-6.887.077 5.956.042-9.655.094 10.43.039-6.608.078 5.784.038-9.388.004-.304.048 5.475.045 4.843.04-6.792.064 5.903.052-9.319.003-.024.09 9.968.036-5.837.003-.021.078 5.187.042-9.532.087 9.812.049-6.842.074 6.295.042-9.178.107 9.72.026-5.509.11-3.999-.046 8.863.052-8.74.007.65.087 9.014.039-5.295.113-4.564-.045 9.177.061-7.34.1 8.346.026-5.721.065 4.57.052-9.384.113 10.85.026-7.512.113-3.482-.065 9.621.068-9.45.11 11.041.023-5.072.116-6.633-.048 9.991.055-9.122.113 11.224.02-5.202.12-7.171-.053 10.666.055-9.673.114 11.652.016-2.91.123-9.551-.049 10.4.052-10.318.123 12.909.016-5.768.113-6.75-.058 9.743.071-9.248.12 13.002.013-4.006.12-9.62-.046 10.238.049-9.982.129 13.592.02-7.2.022-6.414.03 9.51.067-9.097.003-.122.01 2.31.12 10.676.01-1.949.132-10.864.006 1.504.13 10.847.003-.493.136-10.464.003-.028.003.476.136 7.525.003-.074.075-5.17.064.979.017.235.013-.415.019-.987.071 2.232.068 1.822-.036-2.168.075.284.152-1.884-.087 2.435.1-1.641.126 2.028.006-.025.11-1.804.078.403.045.44.075-.225.058-.127-.03.132.085-.037.087.2.036-.115.097-.25.039.144.116.062.02-.009.19-.057.02.047.113.065.026-.01.149-.146.029.083.12.113.051-.037.136-.128.048.066.091.03.036-.031.313-.016.036-.008.071.043.395.009.132-.036.136-.01.178.026.013-.03.09-.04-.029.1.052-.065.036.064.084-.07.003-.001.03.077.022.005.097.112.02-.05.07-.211.042.145.081.322-.032-.34.071.162.036-.384.051.443.026-.09.007.133.055-.717.032.256.042-.172.03.62.019-.048.01.202.035-.477h.055l.045-.576.068.46.049.954.074-.324.146-1.83-.085 1.84.088-1.743.136 4.173.013-2.024.016-3.968.022 4.96.072-.868.048-2.917.08 1.32.06 4.427.022-4.77.013-3.538.022 8.076.065-1.136.006.593.046-5.366.035 1.632.01-1.147.087 2.322.007-.028.032 3.378.007 1.074.029-9.424.058 5.277.078-3.495-.042 5.376.08-3.334.036-1.384.055 2.342.016-.677.052 4.836.013-5.028.01-4.715.093 8.498.046-6.484.1 2.738.013-1.14.055 3.172.01-.473.003-.04.006.778.013 3.47.026-9.571.065 4.47.077-3.271-.048 4.99.08-1.79.04-2.395-.02 3.226.09-1.106.075 3.118.016-4.173.007-.857.051 4.514.04-1.169.051-3.231.113 1.112.117 3.264.013-2.01.01-1.86.054 3.378.049-2.414.039-1.042-.02 2.168.068-.078.003.15.055-2.002.02.433.013-.18.003.166.08 3.33.023-3.765.017 1.445h.003l.12-1.778-.085 3.511.088-3.134.055 1.799.048-2.759.023 2.124.077 4.263.023-6.115.003-.948.049 6.74.055-5.464.016 4.081.09-4.2.004.124.139 5.96-.117-7.171.127 5.05.016-6.288.048 9.052.052-5.7.016 4.59.045-6.197.049 1.942.016-2.577.042 3.079.049-.117.042 4.702.022-7.996.052 5.897.1-6.299.017 3.37.064-2.782-.042 5.77.084-2.737.023-1.642.032 2.837.036 3.555.026-8.023.052 6.034.097-5.714.022 1.647.007.58.013 3.121.042-5.503.051 1.915.01-.518.045 3.78.013-.493.013 2.027.036-5.866.058 3.254.09-2.998-.032 4.313.058-2.97.013 2.557.042-4.532.055 1.838.004.004.003-.045.068 4.246.032-4.676.007-.959.048 5.583.049-3.619.02 2.135.054-3.613.039 2.339.003.055.01-1.275.006-1.372.097 2.815.004.005.003-.079.026 2.366.055-4.974.006-.45.026 5.74.065-4.099.022 2.559.036-3.365.052 1.958.029-2.035.077 2.418.004-.225.087-2.887-.045 4.804.068-2.274.006 2.39.061-3.872.043 1.754.003.044.016-1.187.094-.764-.046 1.85.068-1.39.084 3.511.026-3.337.023-1.361.03 4.408.05-2.48.036 1.017-.025-1.65.074.128.08-.59-.044 1.647.067-1.067.078 3.456.03-3.766.006.74.016-1.94.045 4.159.049-2.337.038.895.04-1.193.032.78.029-1.301.074 1.655.003-.283.03 2.61.038-4.281.013.26.007-1.503.045 5.195.055-2.902.035 1.032.04-1.217.035.506.023-1.223.077 1.79.007-.104.035 2.33.049-5.455.032 4.74.042-3.069-.029 3.907.103-3.088.104-1.167-.065 1.858.071-.965.052 1.145-.042-1.642.049 1.5.035 2.254.049-5.395.032 4.684.042-3.685-.029 4.31.107-3.888.039 2.313.038-3.048.036 1.42.003-.121.055 1.774.033 1.713.029-4.448.003.15.006-.525.036 4.447.052-2.792.02 2.362.044-4.062.049 2.913.035-2.865.078 1.942.045 3.49.03-5.522.051 3.698.107-3.72-.042 4.77.052-2.979.019 1.716.032-3.4.059 1.642.01-.436.006.018.103-1.866-.029 6.065.039-4.598.039 4.309.026-5.49.051 2.656.091-3.237-.039 5.765.062-3.264.132 4.142-.1-5.528.113 2.649.016-5.124.046 7.58.048-2.119.084 2.73-.039-7.274.055 1.985.004-.758.042 3.603.058-1.133.01-.701.045 2.816.023-.247.006.732.026-6.907.052 3.613.006-2.481.039 6.17.061-1.44.097-3.849.068 1.905.059 3.299.012-3.225.013-4.293.042 6.856.049-1.087.01 1.32.029-5.983.055 3.05.068-1.459-.036 2.203.08-1.18.01-.176.075 2.74.01 2.51.022-9.29.068 3.357.036 4.367.026-6.819.052 3.515.074-1.447-.045 2.778.08-1.369.023-.234.03 2.582.035 2.377.01-3.37.012-7.02.081 10.318.016-3.109.013 1.534.013-5.57.004-1.667.025 7.02.081-4.93.007 1.012.113 4.094-.084-4.621.09 3.515.04-7.752.045 10.63.029-5.243.006 4.606.049-7.612.055 4.211.025.235.023-2.581.003-.303.059 2.708.025-.57.052 3.451.02-5.813.003-1.486.048 7.23.049-2.19.02 1.048.012-4.308.065 2.642.042-2.775.061 3.333.01-1.756.062 4.632.025-6.524.03 3.412.042-2.494-.026 4.899.097-4.646.045 2.656.058-3.319.013 2.432.026-1.375.062 2.876.019 1.53.023-3.374.022-.955.026 2.708.062-2.146.01.962.06-1.04.05.662.022-1.063.084 1.136.003-.025.003-.092.084.649.007-.136.013-.175.006-.217.097.384.01-.37.039-.031-.013.3.032-.143.004.063.084-.526.074-.181-.048.264.08-.113.133.754.003-.019.117-.377.02.08.015-.086.016.005.13-.324.016.058.02-.006.012.11.107.151.013-.05.01-.01.013.056.032.036.042.026.058-.08.146-.01-.136.022.142-.015.307-.014.1.046.353-.049.152.015.204-.066.19.123.004-.005.217-.054.223.037.252-.06.935.037.692.002.44.023.844-.026.12.082.006-.009h.133l.006-.018.11-.066-.051.108.064-.093.03.118.054-.208.023.06.006-.091.098.172.003-.03.048.036-.035-.219.055.106.051-.344.042.588.017-.441.097.651-.046-.86.052.27.09-1.021-.08 1.537.103-1.115.13 1.892.045-1.564.08.518.027-.164.045.952.08 1.422-.057-1.533.087.29.116-3.016.01.49.007-.46.061 2.151.013-.234.058 2.927.039-3.667.003.04.026-.9.026 1.86.006.657.065-3.393.032 1.69.1 4.529.03-2.275.136-4.455.136 7.014.029-2.682.135-4.446-.061 4.605.068-4.141.13 6.552.019-1.076.149-5.929.003.184.149 6.31.019-1.06.142-4.558.007.043.006-.027.007.331.139 4.065.032-1.095.045-2.283.075.98.029-.354.048.46.004-.013.148.865.04-.513.032-.41.087.193.139-.333.003.013.13.87.051-.372.062-.532.074.237.14.235.015-.017.133-.212.026.052.13.203.015-.008.162-.21.03.054.09.126.045-.049.055-.1.065.077.333.007.045.02.052-.076.13.003.009.009.165.01.385.042.113.047.01-.013.11-.093.01.056.106.046-.084-.153.107.127.123-.191-.049.2.052-.186.013.087.016-.19.08.118.046-.13-.016.196.074-.043.104.163.01-.064.006-.044.049.236.032.001.162-.219.016.142.132-.123.049-.09.045.172.003-.005.256-.316.03.114.083 1.342.042-1.229.133-.999.01-.002.006.102.09 2.82.052-1.87.13-1.5.01.048.016.277.122 3.665.03-1.48.145-3.27.003.062.152 5.219.042-3.555.13-2.104-.055 3.663.058-3.636.158 5.75.02-1.718.042-3.45.055 3.6.042-3.393.02-.79.06 2.892.004-.04.042-.632.032 1.928.026 1.457.04-3.535.07 2.647.055-4.623.033.886.152 4.446.003-.038.165-5.222.02.77.174 4.156.02-1.76.09 1.066.052-3.921.006-.25.055 2.395.14 2.463-.075-3.409.087 2.66.045-3.294.078 1.971.036-2.314.09 1.45.032-.24.042 1.305.043 1.507.045-2.548.013-.935.058 2.425.042-1.695.016-.696.075 1.882.003-.035.132-1.092.017.258.064 1.224.065-.663.123-.884.029.043.171 1.356.026-.149.156-1.279.025.231.03.166.038-.472.013-.116.042.894.046.964.067-.807.04.263.038-.517.146-.632.016-.105.042.767.055 1.213.061-.952.123-1 .068.36.042-.391.039.538.055 1.57.058-1.352.136-.636-.068 1.16.078-1.092.035.39.049-.557.02-.17.038.876.052 1.37.055-1.474.013-.14.058.92.026-.237.158-1.486.01.053.074 2.378.065-1.833.007-.02.022.447.039.936.055-1.373.126-.855-.061 1.328.077-1.133.065 2.832.058-2.563.01-.045.023.846.038 1.504.055-2.21.01-.076.042 1.022.01.123.039-1.12.022-.663.049 1.89.035 1.223.052-2.412.01-.304.048 2.134.02.47.048-2.061.126-1.042-.061 2.028.068-1.947.087 2.958.052-2.184.013-.175.042 1.583.02.56.067-1.935.01.096.042 1 .045-1.504.016-.355.052 1.775.039.95.052-1.71.016-.338.058 1.702.007.02.025-.484.159-1.603.003-.015.023.336.065 1.922.058-1.517.003-.018.032.382.042.552.075-.37.132-1.018.026.531.046 1.393.061-1.525.006-.049.03.555.029.512.064-.519.023.164.042-.21.094-.474.032.292.049.933.061-.915.01-.016.02.15.045.358.054-.533.017-.027.058.24.013-.043.003-.006.023.145.048.673.042-.887.02-.379.058.931.02-.167.041-.63.11.192.059 1.03.045-1.1.016-.246.061.844.01-.092.052-.72.068.58.029-.205.035.413.03.357.048-1.014.117-.243-.052.77.061-.72.062 1.178.106-.488.02.079.039-.322.026-.18.067.412.046.17.039-.243.038-.272.09.044.01-.02.04.285.041.44.055-.604.133-.348-.061.564.064-.56.165.677.055-.316.078-.1.035.082.072.22.09-.042.353-.223.042.1.103.18.046-.094.12-.146.028.039.143.096.003-.002.194-.044.003.004.136.003.343.008.145.013.004-.004.171-.015.142-.007.21-.006.185.04.362.002.505-.031.142-.002.294.017.443-.025.98.046.195-.033.734.006.132.022.152-.008.198-.028.3-.024.04.004h0" clip-path="url(#p4143e8fa72)" style="fill:none;stroke:#2ca02c;stroke-width:.5;stroke-linecap:square"/><path id="patch_3" d="M38.05 142.76V8.64" style="fill:none;stroke:#000;stroke-width:.8;stroke-linejoin:miter;stroke-linecap:square"/><path id="patch_4" d="M221.76 142.76V8.64" style="fill:none;stroke:#000;stroke-width:.8;stroke-linejoin:miter;stroke-linecap:square"/><path id="patch_5" d="M38.05 142.76h183.71" style="fill:none;stroke:#000;stroke-width:.8;stroke-linejoin:miter;stroke-linecap:square"/><path id="patch_6" d="M38.05 8.64h183.71" style="fill:none;stroke:#000;stroke-width:.8;stroke-linejoin:miter;stroke-linecap:square"/><g id="legend_1"><path id="line2d_15" d="M164.938 15.919h16" style="fill:none;stroke:#ff7f0e;stroke-linecap:square"/><g id="text_14" transform="matrix(.08 0 0 -.08 187.338 18.719)"><defs><path id="DejaVuSans-46" d="M628 4666h2681v-532H1259V2759h1850v-531H1259V0H628z" transform="scale(.01563)"/><path id="DejaVuSans-70" d="M1159 525v-1856H581v4831h578v-531q182 312 458 463 277 152 661 152 638 0 1036-506 399-506 399-1331T3314 415Q2916-91 2278-91q-384 0-661 152-276 152-458 464m1957 1222q0 634-261 995t-717 361q-457 0-718-361t-261-995 261-995 718-361q456 0 717 361t261 995" transform="scale(.01563)"/><path id="DejaVuSans-64" d="M2906 2969v1894h575V0h-575v525q-181-312-458-464-276-152-664-152-634 0-1033 506-398 507-398 1332t398 1331q399 506 1033 506 388 0 664-152 277-151 458-463M947 1747q0-634 261-995t717-361 718 361q263 361 263 995t-263 995q-262 361-718 361t-717-361-261-995" transform="scale(.01563)"/></defs><use xlink:href="#DejaVuSans-46"/><use xlink:href="#DejaVuSans-30" x="57.52"/><use xlink:href="#DejaVuSans-70" x="152.93"/><use xlink:href="#DejaVuSans-72" x="216.406"/><use xlink:href="#DejaVuSans-65" x="255.27"/><use xlink:href="#DejaVuSans-64" x="316.793"/></g><path id="line2d_16" d="M164.938 27.661h16" style="fill:none;stroke:#1f77b4;stroke-linecap:square"/><g id="text_15" transform="matrix(.08 0 0 -.08 187.338 30.461)"><defs><path id="DejaVuSans-6f" d="M1959 3097q-462 0-731-361t-269-989 267-989q268-361 733-361 460 0 728 362 269 363 269 988 0 622-269 986-268 364-728 364m0 487q750 0 1178-488 429-487 429-1349 0-859-429-1349Q2709-91 1959-91q-753 0-1180 489-426 490-426 1349 0 862 426 1349 427 488 1180 488" transform="scale(.01563)"/><path id="DejaVuSans-67" d="M2906 1791q0 625-258 968-257 344-723 344-462 0-720-344-258-343-258-968 0-622 258-966t720-344q466 0 723 344 258 344 258 966m575-1357q0-893-397-1329-396-436-1215-436-303 0-572 45t-522 139v559q253-137 500-202 247-66 503-66 566 0 847 295t281 892v285q-178-310-456-463T1784 0Q1141 0 747 490 353 981 353 1791q0 812 394 1302 394 491 1037 491 388 0 666-153t456-462v531h575z" transform="scale(.01563)"/></defs><use xlink:href="#DejaVuSans-46"/><use xlink:href="#DejaVuSans-30" x="57.52"/><use xlink:href="#DejaVuSans-6f" x="152.93"/><use xlink:href="#DejaVuSans-72" x="214.111"/><use xlink:href="#DejaVuSans-69" x="255.225"/><use xlink:href="#DejaVuSans-67" x="283.008"/></g></g></g></g><defs><clipPath id="p4143e8fa72"><path d="M38.05 8.64h183.71v134.12H38.05z"/></clipPath></defs></svg>