<svg xmlns="http://www.w3.org/2000/svg" xmlns:xlink="http://www.w3.org/1999/xlink" width="307.2" height="230.4" viewBox="0 0 230.4 172.8"><defs><style>*{stroke-linejoin:round;stroke-linecap:butt}</style></defs><g id="figure_1"><path id="patch_1" d="M0 172.8h230.4V0H0z" style="fill:#fff"/><g id="axes_1"><path id="patch_2" d="M38.05 142.76h183.71V8.64H38.05z" style="fill:#fff"/><g id="matplotlib.axis_1"><g id="xtick_1"><g id="line2d_1"><defs><path id="m8e40ad7111" d="M0 0v3.5" style="stroke:#000;stroke-width:.8"/></defs><use xlink:href="#m8e40ad7111" x="67.21" y="142.76" style="stroke:#000;stroke-width:.8"/></g><g id="text_1" transform="matrix(.08 0 0 -.08 64.665 155.839)"><defs><path id="DejaVuSans-31" d="M794 531h1031v3560L703 3866v575l1116 225h631V531h1031V0H794z" transform="scale(.01563)"/></defs><use xlink:href="#DejaVuSans-31"/></g></g><g id="xtick_2"><use xlink:href="#m8e40ad7111" id="line2d_2" x="125.531" y="142.76" style="stroke:#000;stroke-width:.8"/><g id="text_2" transform="matrix(.08 0 0 -.08 122.986 155.839)"><defs><path id="DejaVuSans-32" d="M1228 531h2203V0H469v531q359 372 979 998 621 627 780 809 303 340 423 576 121 236 121 464 0 372-261 606-261 235-680 235-297 0-627-103-329-103-704-313v638q381 153 712 231 332 78 607 78 725 0 1156-363 431-362 431-968 0-288-108-546-107-257-392-607-78-91-497-524-418-433-1181-1211" transform="scale(.01563)"/></defs><use xlink:href="#DejaVuSans-32"/></g></g><g id="xtick_3"><use xlink:href="#m8e40ad7111" id="line2d_3" x="183.852" y="142.76" style="stroke:#000;stroke-width:.8"/><g id="text_3" transform="matrix(.08 0 0 -.08 181.307 155.839)"><defs><path id="DejaVuSans-33" d="M2597 2516q453-97 707-404 255-306 255-756 0-690-475-1069Q2609-91 1734-91q-293 0-604 58T488 141v609q262-153 574-231 313-78 654-78 593 0 904 234t311 681q0 413-289 645-289 233-804 233h-544v519h569q465 0 712 186t247 536q0 359-255 551-254 193-729 193-260 0-557-57-297-56-653-174v562q360 100 674 150t592 50q719 0 1137-327 419-326 419-882 0-388-222-655t-631-370" transform="scale(.01563)"/></defs><use xlink:href="#DejaVuSans-33"/></g></g><g id="text_4" transform="matrix(.08 0 0 -.08 114.392 163.581)"><defs><path id="DejaVuSans-74" d="M1172 4494v-994h1184v-447H1172V1153q0-428 117-550t477-122h590V0h-590q-666 0-919 248-253 249-253 905v1900H172v447h422v994z" transform="scale(.01563)"/><path id="DejaVuSans-69" d="M603 3500h575V0H603zm0 1363h575v-729H603z" transform="scale(.01563)"/><path id="DejaVuSans-6d" d="M3328 2828q216 388 516 572t706 184q547 0 844-383 297-382 297-1088V0h-578v2094q0 503-179 746-178 244-543 244-447 0-707-297-259-296-259-809V0h-578v2094q0 506-178 748t-550 242q-441 0-701-298-259-298-259-808V0H581v3500h578v-544q197 322 472 475t653 153q382 0 649-194 267-193 395-562" transform="scale(.01563)"/><path id="DejaVuSans-65" d="M3597 1894v-281H953q38-594 358-905t892-311q331 0 642 81t618 244V178Q3153 47 2828-22t-659-69q-838 0-1327 487-489 488-489 1320 0 859 464 1363 464 505 1252 505 706 0 1117-455 411-454 411-1235m-575 169q-6 471-264 752-258 282-683 282-481 0-770-272t-333-766z" transform="scale(.01563)"/><path id="DejaVuSans-28" d="M1984 4856q-418-718-622-1422-203-703-203-1425 0-721 205-1429t620-1424h-500Q1016-109 783 600T550 2009q0 697 231 1403 232 707 703 1444z" transform="scale(.01563)"/><path id="DejaVuSans-73" d="M2834 3397v-544q-243 125-506 187-262 63-544 63-428 0-642-131t-214-394q0-200 153-314t616-217l197-44q612-131 870-370t258-667q0-488-386-773Q2250-91 1575-91q-281 0-586 55T347 128v594q319-166 628-249 309-82 613-82 406 0 624 139 219 139 219 392 0 234-158 359-157 125-692 241l-200 47q-534 112-772 345-237 233-237 639 0 494 350 762 350 269 994 269 318 0 599-47 282-46 519-140" transform="scale(.01563)"/><path id="DejaVuSans-29" d="M513 4856h500q468-737 701-1444 233-706 233-1403 0-700-233-1409T1013-844H513q415 716 620 1424t205 1429q0 722-205 1425-205 704-620 1422" transform="scale(.01563)"/></defs><use xlink:href="#DejaVuSans-74"/><use xlink:href="#DejaVuSans-69" x="39.209"/><use xlink:href="#DejaVuSans-6d" x="66.992"/><use xlink:href="#DejaVuSans-65" x="164.404"/><use xlink:href="#DejaVuSans-28" x="257.715"/><use xlink:href="#DejaVuSans-73" x="296.729"/><use xlink:href="#DejaVuSans-29" x="348.828"/></g></g><g id="matplotlib.axis_2"><g id="ytick_1"><g id="line2d_4"><defs><path id="m942031c601" d="M0 0h-3.5" style="stroke:#000;stroke-width:.8"/></defs><use xlink:href="#m942031c601" x="38.05" y="137.731" style="stroke:#000;stroke-width:.8"/></g><g id="text_5" transform="matrix(.08 0 0 -.08 25.96 140.77)"><defs><path id="DejaVuSans-30" d="M2034 4250q-487 0-733-480-245-479-245-1442 0-959 245-1439 246-480 733-480 491 0 736 480 246 480 246 1439 0 963-246 1442-245 480-736 480m0 500q785 0 1199-621 414-620 414-1801 0-1178-414-1799Q2819-91 2034-91q-784 0-1198 620-414 621-414 1799 0 1181 414 1801 414 621 1198 621" transform="scale(.01563)"/></defs><use xlink:href="#DejaVuSans-30"/></g></g><g id="ytick_2"><use xlink:href="#m942031c601" id="line2d_5" x="38.05" y="120.966" style="stroke:#000;stroke-width:.8"/><g id="text_6" transform="matrix(.08 0 0 -.08 20.87 124.005)"><defs><path id="DejaVuSans-35" d="M691 4666h2478v-532H1269V2991q137 47 274 70 138 23 276 23 781 0 1237-428 457-428 457-1159 0-753-469-1171Q2575-91 1722-91q-294 0-599 50Q819 9 494 109v635q281-153 581-228t634-75q541 0 856 284 316 284 316 772 0 487-316 771-315 285-856 285-253 0-505-56-251-56-513-175z" transform="scale(.01563)"/></defs><use xlink:href="#DejaVuSans-35"/><use xlink:href="#DejaVuSans-30" x="63.623"/></g></g><g id="ytick_3"><use xlink:href="#m942031c601" id="line2d_6" x="38.05" y="104.201" style="stroke:#000;stroke-width:.8"/><g id="text_7" transform="matrix(.08 0 0 -.08 15.78 107.24)"><use xlink:href="#DejaVuSans-31"/><use xlink:href="#DejaVuSans-30" x="63.623"/><use xlink:href="#DejaVuSans-30" x="127.246"/></g></g><g id="ytick_4"><use xlink:href="#m942031c601" id="line2d_7" x="38.05" y="87.436" style="stroke:#000;stroke-width:.8"/><g id="text_8" transform="matrix(.08 0 0 -.08 15.78 90.475)"><use xlink:href="#DejaVuSans-31"/><use xlink:href="#DejaVuSans-35" x="63.623"/><use xlink:href="#DejaVuSans-30" x="127.246"/></g></g><g id="ytick_5"><use xlink:href="#m942031c601" id="line2d_8" x="38.05" y="70.671" style="stroke:#000;stroke-width:.8"/><g id="text_9" transform="matrix(.08 0 0 -.08 15.78 73.71)"><use xlink:href="#DejaVuSans-32"/><use xlink:href="#DejaVuSans-30" x="63.623"/><use xlink:href="#DejaVuSans-30" x="127.246"/></g></g><g id="ytick_6"><use xlink:href="#m942031c601" id="line2d_9" x="38.05" y="53.906" style="stroke:#000;stroke-width:.8"/><g id="text_10" transform="matrix(.08 0 0 -.08 15.78 56.945)"><use xlink:href="#DejaVuSans-32"/><use xlink:href="#DejaVuSans-35" x="63.623"/><use xlink:href="#DejaVuSans-30" x="127.246"/></g></g><g id="ytick_7"><use xlink:href="#m942031c601" id="line2d_10" x="38.05" y="37.141" style="stroke:#000;stroke-width:.8"/><g id="text_11" transform="matrix(.08 0 0 -.08 15.78 40.18)"><use xlink:href="#DejaVuSans-33"/><use xlink:href="#DejaVuSans-30" x="63.623"/><use xlink:href="#DejaVuSans-30" x="127.246"/></g></g><g id="ytick_8"><use xlink:href="#m942031c601" id="line2d_11" x="38.05" y="20.375" style="stroke:#000;stroke-width:.8"/><g id="text_12" transform="matrix(.08 0 0 -.08 15.78 23.415)"><use xlink:href="#DejaVuSans-33"/><use xlink:href="#DejaVuSans-35" x="63.623"/><use xlink:href="#DejaVuSans-30" x="127.246"/></g></g><g id="text_13" transform="matrix(0 -.08 -.08 0 14.116 105.261)"><defs><path id="DejaVuSans-66" d="M2375 4863v-479h-550q-309 0-430-125-120-125-120-450v-309h947v-447h-947V0H697v3053H147v447h550v244q0 584 272 851 272 268 862 268z" transform="scale(.01563)"/><path id="DejaVuSans-72" d="M2631 2963q-97 56-211 82-114 27-251 27-488 0-749-317t-261-911V0H581v3500h578v-544q182 319 472 473 291 155 707 155 59 0 131-8 72-7 159-23z" transform="scale(.01563)"/><path id="DejaVuSans-71" d="M947 1747q0-634 261-995t717-361 718 361q263 361 263 995t-263 995q-262 361-718 361t-717-361-261-995M2906 525q-181-312-458-464-276-152-664-152-634 0-1033 506-398 507-398 1332t398 1331q399 506 1033 506 388 0 664-152 277-151 458-463v531h575v-4831h-575z" transform="scale(.01563)"/><path id="DejaVuSans-75" d="M544 1381v2119h575V1403q0-497 193-746 194-248 582-248 465 0 735 297 271 297 271 810v1984h575V0h-575v538q-209-319-486-474-276-155-642-155-603 0-916 375-312 375-312 1097m1447 2203" transform="scale(.01563)"/><path id="DejaVuSans-6e" d="M3513 2113V0h-575v2094q0 497-194 743-194 247-581 247-466 0-735-297-269-296-269-809V0H581v3500h578v-544q207 316 486 472 280 156 646 156 603 0 912-373 310-373 310-1098" transform="scale(.01563)"/><path id="DejaVuSans-63" d="M3122 3366v-538q-244 135-489 202t-495 67q-560 0-870-355-309-354-309-995t309-996q310-354 870-354 250 0 495 67t489 202V134Q2881 22 2623-34q-257-57-548-57-791 0-1257 497-465 497-465 1341 0 856 470 1346 471 491 1290 491 265 0 518-55 253-54 491-163" transform="scale(.01563)"/><path id="DejaVuSans-79" d="M2059-325q-243-625-475-815-231-191-618-191H506v481h338q237 0 368 113 132 112 291 531l103 262L191 3500h609L1894 763l1094 2737h609z" transform="scale(.01563)"/><path id="DejaVuSans-48" d="M628 4666h631V2753h2294v1913h631V0h-631v2222H1259V0H628z" transform="scale(.01563)"/><path id="DejaVuSans-7a" d="M353 3500h2731v-525L922 459h2162V0H275v525l2163 2516H353z" transform="scale(.01563)"/></defs><use xlink:href="#DejaVuSans-66"/><use xlink:href="#DejaVuSans-72" x="35.205"/><use xlink:href="#DejaVuSans-65" x="74.068"/><use xlink:href="#DejaVuSans-71" x="135.592"/><use xlink:href="#DejaVuSans-75" x="199.068"/><use xlink:href="#DejaVuSans-65" x="262.447"/><use xlink:href="#DejaVuSans-6e" x="323.971"/><use xlink:href="#DejaVuSans-63" x="387.35"/><use xlink:href="#DejaVuSans-79" x="442.33"/><use xlink:href="#DejaVuSans-28" x="533.297"/><use xlink:href="#DejaVuSans-48" x="572.311"/><use xlink:href="#DejaVuSans-7a" x="647.506"/><use xlink:href="#DejaVuSans-29" x="699.996"/></g></g><path id="line2d_12" d="M8.89 137.73h37.908l.292-83.393.291-1.622.292-.89.292.898.291 2.698.583 7.69.292 1.244.292-.158.583-1.147.291-.08.292 2.395.583 8.89.292 1.205.291-1.002.292-1.57.292-.597.583.684.291-.115.875-.978.583-.48.875-1.104.583-.88.875-1.622.292-.02.291.728.584 2.711.291.346.583-2.91.292.31.292.879.291-1.167.583-5.784.292.218 1.166 15.363.292 59.26h1.458l.292-81.724.291-4.128.875-27.852.292-2.236.291 3.288.584 12.28.291 2.75.292-1.437.583-4.637.583-3.1.292-.559.583-.014.583.12.292.15.291.295.292.528.292.137.291-1.147.583-4.269.875-7.441.583-2.68.584-1.419.583-.65.291-.054.292.118.292.282.291.475.292.718.291 1.06.584 3.464.291 1.777.292.861.291.253.292.769 1.166 5.891.292.356.583-.714.292.446.875 3.059 1.166 2.303.583 2.008.875 3.31.875 2.817.583 3.963.583 3.708.292.719.292.056.291-.45.583-1.901.584-2.251.291-.693.583-.554.292-.07.292.344.291 1.023.292 1.811.583 5.745.875 9.484.875 7.313.291 1.114.292.057.583-2.548.292-.503.583-.125.291.393.875 3.089.583.894.584.598 1.166.946.875.977 1.166 1.642.583.245.292.146.583.816.875 1.77.292-.08.291-1.094.292-2.344 1.458-19.326.292-1.184.291.588.292.288.583-2.121.292 1.417.291 3.677.292 76.968h15.455l.291-85.198.584-.293.291-.901.292-.405.291 1.912.584 5.64.583 4.918 1.458 15.184.291.93.292-.31.292-1.426.583-6.152.875-10.507 2.04-14.63 1.167-11.184.583-5.296.584-2.927.583-1.7.583-1.024.292-.231.291.054.292.42.583 1.765.292 1.306.291 2.077.292 3.43.875 16.893.291 1.852.292-.845.583-3.93.292-1.123.291-.235.584 1.711.291.179.292.37.291.122.292-.803.292-.276.291 1.828.292.355.291-3.512.584-10.532.291-3.825.292-1.917.291-.552.584-.055.583.211.291.36.292.714.583 2.718.583 3.136.292.995.292.535 1.458 1.277.291.449.292.68.291 1.696.292 3.87.875 16.202.291.96.584-1.261.291.261.292-.188.291-1.744.875-6.85.292.687.291 4.403.292 6.11.292 73.622h5.54l.292-96.18.291-9.299.292-1.405 1.166 26.456.584 3.986.583 2.67.583 4.853.292 2.382.291-.669.292-5.582.583-15.69.292.123.583 11.51.583 10.025.292 1.944.291-1.024.875-8.636.875-12.96.291-.458.584 2.219.874 3.105.875 3.393.583 2.01.584 1.156.291.204.292-.418.875-2.323 1.166-1.984.292-.85.583-3.01.583-3.293.583-2.078.292-.526.292-.218.291.037.292.202.291.358.584 1.249.874 2.684.584 2.422.291 1.372.292.701.291.048.292.207 1.166 1.902.584.072.291.798 2.625 11.218 1.458 6.775.583 2.058.291.485.292.18.292-.006.291-.245 1.167-1.762.291-.145.583.062.584.071 1.166-.09.292.24.583 1.23.292.674.291.155.875-2.503.292-.13.291.002.583-.199.292.126.583.412.292-.038.875-.61.291.05.292.315.583.798.292-.154.291-.449.292-.009.291.872.584 3.842.291 2.328.292.895.291-4.223.875-26.778.292-1.189.291 4.402.584 11.01.583 5.799.291 1.355.292.555.875.484 1.75.788.583-.028.874-.159.292.18.292.443.874 2.52.292-.22.292-1.902.583-5.605.292 1.655.583 13.627.291 49.353H231.4" clip-path="url(#pdaeafa6147)" style="fill:none;stroke:#1f77b4;stroke-linecap:square"/><path id="line2d_13" d="M8.89 137.73h34.992l.292-78.513.291-1.448.583-1.575.584-2.292.291-.575.292-.298.291-.042.292.816.292 1.312.291.528.292-.498.583-1.626.292-.46.291.17.292 1.403.875 8.311.583 8.2.292 2.85.291 1.72.292.722.291.029.292-.145.292.36.291.75.292.418.291-.344.584-2.482.583-2.344.583-.836.292-.306.291-.501.292-.904.583-3.157.583-3.88.292-1.117.291.14.292 1.385.583 4.741.292.767.291-2.051.584-7.456.291-2.41.292-1.077.291 1.753.292 4.448.292 75.515h.874l.292-87.186.583-9.316.292.4.875 11.94.291 1.419.292.548.291.04.292-1.262.292-1.91.291.267.292 2.182.292.852.291-3.834.875-22.187.292-4.348.291-2.172.292-.77.291-.212.292.06.875.588.583.709.583.822.292.082.291-.377 1.167-3.384.291-.2.584.071.583-.255.875-.525.291.025.292.25.291.61 1.167 3.74.291.053.292-.22.292.009.291.553.583 2.617.292 1.245.292.54.291-.055.292.16.875 3.455.291-.392.583-2.36 1.167-5.252.291-.337.292.441.292 1.299.291 2.139.584 6.75L85.29 42l.291 1.928.292.543.292-.559 1.458-5.143.291-.698.292-.134.291.646.292 1.554.583 5.856 2.333 27.465.583 3.42.875 1.502.292.093.291-1.315.875-7.293.292-.091.874 3.06 1.75 3.291.583.24.292.101.291.288.292.603.292.993.583 3.245.583 3.11.292-.005.291-1.424.292 54.455h20.412l.292-48.542.583 3.703.292-1.55.583-9.477.875-14.518.291-2.654.292-1.216.291.236.875 3.694 1.167 5.614.291.25.292-.197.291-1.15.584-6.301.583-6.494.583-4.468.583-3.604.583-5.312 1.167-13.92.583-3.439.875-2.583.583-.872 1.166-1.52.292-.104.292.693.291 2.49.292 5.302.875 22.369.291 4.192.292 1.788.291-1.412.584-6.497.291-1.134.292.736.583 1.792.292.442.291.017.292.56.292 1.283.291.692.292-1.535.291-4.75.584-13.796.291-1.545.875 2.852 1.166 1.583.584.348 1.166 1.006.292.09.291.247.583 1.086 1.167 2.372.875 2.782.291 1.218.583 4.355.292 2.492.292 1.278.291-.068.583-.943.292-.423.292-1.406.583-4.354.291.623.584 5.267.291.482.292-1.257.583-3.79.292-.388.291 1.201.583 4.37.584 4.488.291-.91.584-7.98.291-2.042.292 88.158h1.75l.29-98.2.293 2.299.583 8.561.583 4.675.583 2.107.292.798.291 1.211.875 7.201.583.647.292 1.546.292 2.276.291 1.079.292-1.415.583-4.318.292-.686.291-1.125.292-2.967.583-8.935.292.307.583 5.617.291 1.617.292.674.292.11.291-.171.583-.695 1.458-2.431.292-.304.292-.674.583-1.798.291-.56.584-.486.583-.474.583-.94.292-.653.583-2.148.875-3.61.583-1.595.292-.48.291-.15.292.142.875.833.291.517.583 1.98.875 3.86.875 4.959.292.527.291.043.292.31.291.823.584 3.018.874 5.223.292.855.292.29.874-.117.292.29.583 1.15 2.916 7.252.583.655.584.27.583-.017 1.166-.345.583.082 1.75.824.583.898.292.573.292.274.291-.732.583-3.642.292-.8.292.16.583 1.087.875.968.291.704.583 2.637.292 1.267.292.21.874-1.864.292-.253.292.02.874-.638.292-.131.292-.737.291-1.263.292-1.825.291-2.773.584-7.758.291.49.875 11.87.292 1.884.291 1.118.583 1.125 2.333 3.423.583 2.14.292.315.292-1.932.583-11.582.583-11.8.292-1.504.291 2.672.584 10.95.291 2.78.292-.265.583-5.348.583-5.058.292-4.143.583-16.31.583-15.004.292 108.463H231.4" clip-path="url(#pdaeafa6147)" style="fill:none;stroke:#ff7f0e;stroke-linecap:square"/><path id="line2d_14" d="m38.046 120.878.974.028.233-.129.004.003.317.202.237.171.27-.238.582.19.03.022.062-.048.014.002.361-.135.004.006.13.038.008-.012.073.077.007-.001.19.129.452-.236.138-.161.004.002.244.044.212.223.003-.005.004-.01.051.06.051-.02.157.012.211-.138.164-.113.19.074.375.176.24-.09.004.005.77-.002.138-.09-.124.105.135-.099.175-.07.01.013.172.087.182.162.135.042.226-.213.183-.21.003.002.27.11.23.248.003-.006.073.027.044-.028.102.005.01-.006.682-.168.117.085.124.025.266-.11.266-.053.135.038.037.017.025.047.018.01.157.08.437-.067.037-.022.022-.055.01-.008.074-.12.05.109.08.163.045-.123.054-.163.062.146.099.503.04-.258.054-.424.08.207.08.896.055-.72.103-.81.036.336.066 1.247.062-.85.076-.898.058.4.08.766.052-.46.05-.398.063.293.08.853.054-.599.059-.495.047.528.062 1.202.058-.787.095-1.21.051.463.113.616.03-.091.054-.573.102-.532.03.264.109 1.129.007.08.066-.602.072-.48.07.332.033.322.058.66.07-.314.138-1.311.029.577.01-.117.012.334.109.674.01-.482.1-1.485.032.172.007.108.055 3.53.07-2.381.12-1.832-.084 2.167.098-1.52.102 4.356.015-3.157.01-2.47.037 4.75.062-1.904.015.402.033-2.493.003-.28.051 2.608.033-.787.03-.01.018 3.36.01.82.026-7.725.04 2.925.095-1.993-.033 3.318.051-2.967.12 6.331.008-2.024.018-6.202.025 9.482.066-3.886.062-3.793.058 2.19.062 5.711.022-9.13.004-1.23.025 11.38.066-4.685.076-4.372.048 2.943.058 5.551.015-9.046.01-2.972.023 13.254.061-5.442.004.852.08-5.56.015 2.307.087 6.693-.062-6.974.073.455.015-6.094.025 13.406.066-3.686.026-6.582.109 4.73.047 4.827.011-9.38.011-2.96.026 12.688.062-4.342.003.697.077-6.054.014 2.595.088 7.37-.062-8.127.073 1.344.01-6.15.026 12.903.07-3.693.003.18.015-3.937.058-2.537.022 3.573.025-.15.051 7.511.022-14.378.04 9.385.088-6.442-.026 7.448.062-7.184.004-.61.058 5.573.022-1.91.022 8.638.022-14.886.058 4.472.106-1.567-.062 7.27.07-6.294.094 10.435.015-8.146.01-5.122.03 10.877.065-2.32.004.238.022-5.592.036-.608.026 2.91.029-.06.047 7.352.03-11.757.043 6.974.106-6.86.018 3.136.091 8.299-.062-8.557.08.668.08-3.385-.036 7.777.062-2.312.037-3.258.018-2.561.062 5.229.014-.586.026 6.583.033-9.12.05 3.45.1-5.368.017 3.52.084 6.81.026-6.473.076-1.33-.036 4.033.084-3.833.003.01.004-.04.022-1.538.062 3.406.036 4.375.04-4.675.04 1.177.103-3.433.04 1.985.054 4.081.073-3.22.018-.496.048-1.636.065 1.05.077 3.768.055-1.735.08-2.133.058.712.095 2.451.07-1.673.087-.893.04.327.084.87.04-.389.16-.862.004.07.127.547.004-.083.131-.444-.113.542.15-.286.09.185-.065-.368.08.104.004-.008.007.225.004.106.076-.496.019.164.003-.38.008.409.098-.167.011.084.044-.367.033.203.076-.593-.044.718.084-.473.007.33.051-.494.055.323.044-.354-.03.504.103-.485.138.463.008-.242.076.358.022-.022.004.146.029-.413.073.214.04-.189.007.416.058-.164.015.125.03-.348.061.231.113-.321.04.331-.007-.53.08.367.062.233.018-.612.019.485.003-.458.095.609.01-.113.005-.215.04.394.062-.232.116.365.11-.276-.019.413.022-.26.004.312.029-.526.077.108.04.423-.008-.552.077.207.062-.394-.03.627.08-.538.045.521.007-.725.055.275.058-.283.03.688.017-.509.095.397-.073-.421.088.174.003-.11.059.37.036-.13.04.277-.007-.4.08.243.099-.15-.008.314.018-.232.055.454-.029-.54.087.396.103-.319-.008.41.018-.24.015.226.055-.494.033.127.09-.273-.083.397.106-.38.098-.158.007.452.004-.465.007.485.099-.135.054-.269.008.389.047-.153.095.556-.073-.744.098.55.004-.505.007.674.099-.186.076.391-.03-.651.067.507.116-.596.004.06.003.652.095-1.077.011.28.018.76-.007-1.009.099.468.054-.5-.029.679.088-.58.043.407.008-.58.058.385.05-.53-.028 1.037.087-.483.106.403-.007-.743.014.454.004.005.004-.273.007.664.095-.316.08.48.018-.677.007.613.004-.725.007.758.099-.267.076-.353-.018.604.044-.295.069.24-.007-.514.043.335.106-.444.004.097.003.237.084-.559.018.053.059-.388-.007.841.032-.336.059.329-.008-.591.062.54.091.346-.007-.664.026.238.018-.223.029.788.047-.27.066.323-.007-.648.05.503.026-.618.077.8.007-.519.015.483.08-1.104.01.745.1-.713.014.223.098-.495-.007.893.015-.41.04.521.029-1.126.036.598.004-.387.073 1 .029-.437.08.966-.007-1.228.047.952.004-.575.087.908.015-.498.098.579-.007-.835.018.721.095-1.02.007 1.358.011-1.105.048.804-.008-1.284.07.79.029-.967.007 1.36.073-1.062.04.727-.007-1.01.076.186.051.514.04-.628.03.327.025-.348.007.86.077-.736.051.54-.007-.725.069.68.007-.192.008.107.018-.396-.008.917.095-.143.048-.666.007.999.058-.644.044.572.007-.75.062.531.04-.53-.007.75.073-.382.084.802-.018-1.278.043.62.026-.885-.007 1.362.087-.51.036.391-.007-1.139.08.598.095.347-.055-.7.066.284.044-.405.018.908.047-.63.037.916.07-.788.072-.615-.062.907.098-.29.037 1.254.058-1.98.04-1.13.044 1.691.047 3.496.048-4.845.036-1.397.055 3.367.007-.77.037 3.334.047-5.357.007-.222.022 1.062.011-.326.095 6.767-.055-7.736.077 3.997.033-4.964.08 2.86.047 6.34.048-8.22.003-1.394.088 4.624.014-1.64.03 7.514.05-11.291.019 2.565.003-1.83.07 5.19.029-.049.01 5.528.052-11.343.044 3.878.036-2.634.01 5.508.026-.513.019 6.267.007-11.708.004-1.888.007 12.387.095-8.118.069 9.595.01-15.563.02 5.006.043-4.025.033 7.953.029-3.255.047 10.055.011-16.093.055 8.577.007-7.347.095 10.205.007-1.046.03 6.303-.012-16.018.084 6.917.037-3.227.047 8.052.026 3.906-.011-14.377.087 5.17.007.988.099 6.481-.008-11.142.015 3.548.047-4.369.011 8.866.051-5.663.048 6.045.01-8.639.055 5.277.011-3.447.008 5.09.09-2.986.03 2.605-.011-4.812.095 3.712.09-3.267-.054 4.053.08-1.405.106 1.125-.095-1.876.099 1.042.069-1.512-.055 1.92.095-.775.026 1.103.01-1.523.063.25.043-.539.03 1.142.029-.31.036 1.22.055-2.093.014.783.022-.95.051 1.87.033-.86.01.736.045-1.631.04.1.054 1.711.051-1.232.008-.695.036 1.33.066-.444.08-.955-.026 1.83.055-1.16.088 1.794-.055-2.392.084 1 .044.693-.022-1.678.04.975.025-1.163.051 3.025.033-1.866.099-1.54-.055 2.242.07-.812.032 2.807.036-4.506.037 1.87.033-2.1.054 5.438.004.172.01-3.413.026-2.642.033 3.944.055-2.994.04 6.223.036-7.943.04 3.385.033-2.39.051 7.479.008.195.003-1.298.03-7.747.087 1.464.04 8.35.036-10.492.055 5.755.106-6.305-.033 10.865.051-9.177.011 3.67.098 5.34-.062-8.98.07 5.023.025-6.97.037 8.367.05-5.925.04 9.304.015-10.624.015.492.004-1.99.036 9.484.062-5.168.03 8.433.032-12.497.047 5.189.019-3.786.043 7.61.019 3.784.007-8.096.022-5.118.04 10.6.047-6.592.04 9.91.015-13.768.01 1.843.004-2.114.04 10.828.059-5.24.033 8.722.029-14.708.047 6.662.018-4.905.059 10.339.003 2.858.03-15.744.062 4.792.094-5.18-.025 15.92.033-9.787.062-3.433.058 11.024.004 2.335.025-16.211.066 3.7.003-.833.059 9.6.003 3.223.03-16.116.065 3.265.03 4.721.036 9.1.025-17.87.048 9.958.109-10.73-.026 19.114.03-15.728.036 11.779.077-1.224.04-13.953-.026 18.3.11-12.107.05 12.06.026-18.185.044 13.559.113-13.713-.026 17.655.03-15.006.04 12.67.076-2.686.04-11.573-.025 16.043.109-10.777.051 10.093.026-14.576.047 9.742.113-9.186-.026 13.567.03-10.675.04 9.513.032-10.517.04 8.807.044-10.784-.025 14.268.11-11.372.05 10.967.026-13.013.047 9.946.117-9.737-.026 13.15.03-10.908.04 8.966.036-9.561.036 5.616.019 5.278.025-10.364.004-.417.04 7.931.091 1.936-.051-9.37.062 7.612.055-6.794.062 1.964.102-1.004-.07 5.777.073-5.227.106 3.038-.04-3.056.047 1.08.026 1.697.069-2.1.011.5.022-1.005.047 2.48.026-.602.003.63.088-3.079.007.266.007-.106.019 1.438.043 1.79.026-2.215.04.52.036-1.835.044 3.04.011-.282.007.691.088-2.801.01-.263.004-.242.062 3.125.004-.182.102-2.826.033 1.821.036 1.041.07-1.154.036-1.648.062 2.532.011.214.058-1.046.037-1.716.05 2.045.012-.017.022.797.073-1.76.025-1.134.055 2.167.029.624.044-.92.05-1.837.052 1.968.036.918.051-1.28.04-1.643.059 2.229.025.712.058-1.373.037-1.402.05 1.885.037 1.129.059-1.44.036-1.489.058 2.133.037.523.055-1.062.032-1.999.062 2.76.008-.14.025.531.058-1.513.033-1.48.059 2.634.025.76-.014-.884.032.05.084-2.94.03 1.999.018 2.046.058-2.892.029 1.019.04-2.832.044 5.356.033-3.769.032 3.433.059-4.934.007.22.011-1.028.015 2.886.025 5.524.026-8.19.058 5.518.102 3.78.022-12.433.16 13.161.004-.204.022-14.906.044 15.017.047-5.549.07 6.605.01-11.98.007 1.574.008-6.125.025 16.032.077-9.099.058 9.7.026-16.989.032 10.404.037-9.48-.026 14.126.095-6.835.026 8.739.021-16.802.059 6.681.01-5.575.026 10.306.048-.038.073 5.88-.03-16.15.059 4.985.105 9.772-.094-13.956.102 7.153.018-7.921.025 16.37.062-8.671.077 6.326.022-12.553.014 9.701.055-9.984-.044 13.95.113-7.11.077 7.073-.026-12.91.059 5.432.01-5.974.077 9.825.015-.414.05 2.472-.021-9.71.058 4.304.011-5.263.095 8.343.095-7.592-.048 9.174.08-7.87.113 7.021.019-2.487.025-5.134.077 6.133.007-1.509.011 2.006.026-4.822.058 2.14.01-3.2.092 4.627.007 1.27.088-4.571.003-.895.091 4.177.015 1.004.08-2.641.04-2.456.062 3.956.015 1.864.076-3.45.044-2.277.062 3.072.015 2.425.084-3.78.04-1.657.058 2.482.018 2.884.084-4.094.01-1.384.088 2.408.019 2.471.083-3.545.048-1.537.025 2.944.03-.25.018 1.806.084-3.042.047-1.211.026 3.05.029-.955.014 2.163.088-3.155.01-.915.063 2.579.029-.392.018 1.638.084-2.511.01-1.2.063 2.083.029-.009.022 1.19.08-1.847.01-1.15.092 1.736.015 1.136.087-1.494.058-1.107.03 1.567.018-.179.025 1.237.073-1.42.07-1.197.025 1.752.018-.656.026 1.41.084-1.382.025.13.026-1.027.007-.05.014.595.062 1.482.07-.543.076-1.604.044 1.011.007-.104.03 1.241.036-.544.014.532.08-1.503.012-.7.083 1.93.033-.316.015.496.007.16.073-1.328.026-.58.047.96.076.891.03-1.07.01.185.055-.914.004-.04.022.74.022-.066.083 1.151.033-.864.073-.956.033.989.007-.082.004-.038.029.744.036-.29.015.386.062-1.373.011.294.025-1.014.03 1.585.022-.325.08.832.022-1.087.021.071.037-.413.014-.573.07 1.738.058.544.026-1.394.098.66-.03-1.306.048.839.026 1.166.007.087.062-.955.08-1.556.026 1.769.018-.804.03 1.852.01.099.036-.833.008.026.087-2.545.055 1.749.036 1.978.07-2.246.05-1.7.052 1.864.054 2.19.048-2.251.058-2.14-.036 2.22.087-.226.047 2.662.059-2.702.05-1.984-.032 2.5.087-.474.055 3.078.058-2.945.019.462.01-.89.019-2.774.08 4.625.022 2.071.062-2.878.018.015.033-4.033.073 3.955.029 3.484.077-3.512.032-3.955.073 3.934.03 4.226.032-4.502.048.711.032-4.524.066 4.592.007-.043.03 5.258.025-7.511.055 2.351.025-4.717.07 5.172.014-.584.022 6.736.025-10.033.059 3.065.069-4.314.036 4.53.026 7.177.025-11.36.055 3.571.08-4.437.026 4.485.033 8.568.029-13.138.047 4.98.022-4.367.022 6.415.066-3.405.036 8.843.03-13.295.043 5.196.106-3.418-.059 6.434.07-3.598.036 10.127.03-15.137.047 6.342.102-5.237-.059 6.735.077-2.5.04 9.548.03-14.785.046 7.747.106-6.614-.062 6.63.08-1.223.04 7.374.019-9.884.007-2.547.055 7.707.043-3.624.059-2.546-.015 4.168.062-2.648.026 7.352.04-9.75.047 4.729.004.101.014-2.547.077-1.871-.015 4.193.055-3.677.047 6.99.091-3.685.08-3.444-.058 4.31.099-3.268.05 5.656.074-3.875.113-1.241-.088 1.628.131-.883.048 2.762.058-3.351.091 1.296.018-1.078.04-.533.044 1.542.044.763.062-.887.004.002.007-.1.128-.647.018.241.087 1.255.059-.904.036-.476.088.255.061.383.044.345.055-.495.117-.325.01.088.143.846.04-.376.062-.59.08.23.014-.048.026.232.04.502.07-.39.054-.635.073.221.084.393.04-.163.124-.6.05.275.1.58-.085-.698.168.365.062-.44-.044.466.088-.145.11.992.01-.42.139-.733-.048.783.055-.731.003-.031.037.613.047.672.04-1.2.066.635-.036-.955.062.281.029-.867.076 1.101.044 2.574.047-4.083.062 3.148.055-4.467.047 2.651.095 6.07-.033-6.791.044 1.622.044-3.97.044 6.881.021-2.515.059-3.762.036 4.125.03-2.838.021-.038.03 7.419.007 4.469.036-15.62.062 8.645.102-7.626.018 2.403.084 12.795.015-18.473.014 9.178.055-7.864-.01 14.946.061-8.316.004 3.775.054-9.512.051 3.935.08-7.791-.014 20.808.04-14.62.03 13.671.014-17.426.07 6.224.076 2.874-.04-7.708.058 2.64.004-.054.007.882.047 14.092.015-23.265.062 16.575.01-12.889.055 14.856.048-11.198.003-.36.022 5.547.048-2.47.047 12.651.018-23.745.059 17.738.01-14.744.055 17.281.048-11.394.003-.47.022 5.054.051-1.64.048 12.046.014-25.21.058 21.013.011-18.242.055 19.305.047-10.335.048-1.558.04 6.47.015-2.269.01 3.787.011 6.758.019-25.232.062 9.64.007-7.407.055 18.788.047-8.925.044-2.13.05 6.181.004-.206.04-15.62-.014 25.443.062-11.004.007 8.926.018-20.149.08 5.563.146 16.148.008-8.276.01-16.533.052 21.924.047-3.07.047-10.786.073 1.993.08 15.154.008-11.852.007-13.738.055 22.683.043-2.343.051-12.432.077 4.716.077 12.637.01-20.805.004-3.878.03 21.933.061-6.652.008 4.058.047-12.108.047 4 .059-1.277.025 6.168.004-.123.04-15.557-.018 24.316.065-7.105.004 2.745.025-17.352.066 4.544.004-.196.014 4.731.088-3.115.033 6.978.003-.002.037-16.247-.019 26.042.106-14.665.015 9.79.05-12.024.045.996.003-.852.084 5.876.026 9.912.014-25.925.062 11.822.018-6.203.022 15.987.062-8.72.015 2.903.018-5.92.08 4.166.047-14.605-.014 25.744.036-7.66.008 7.881.05-19.71.048 5.514.051 6.663.022-10.222.047 7.723.07 8.058-.048-12.52.051 9.043.011-17.833.03 22.197.069-5.187.007 1.916.05-11.829.03 4.847.015-5.577.087 8.803.07 7.075-.03-21.08.062 9.485.015-5.851.029 13.49.058-7.387.008 4.086.025-7.99.077 4.21.04 10.817.007-14.202.007-6.689.026 21.517.07-8.072.006 3.617.055-9.241.036.842.008-2.723.036 7.273.055-.198.022 7.807.018-22.417.062 11.968.018-7.087.022 14.251.066-6.335.01 2.115.022-5.946.062 1.148.008-.983.025 6.61.066 5.715-.026-19.648.062 10.289.019-6.799.021 13.585.066-6.902.011 3.143.025-6.191.066.4.047 9.844.015-13.487.007-2.527.026 18.268.062-10.556.014 8.313.022-11.175.07 2.037.007-1.524.087 5.087.03 4.17.014-8.237.011-4.757.025 13.915.066-4.28.007 3.49.026-8.867.07 1.119.006-.95.055 5.328.033-2.14.091 3.184-.025-5.889.043 3.401.033-3.145.026 4.369.062-2.396.032-1.01.099 4.334.033-5.195.029 5.283.069-2.43.091 1.342-.058-3.537.07 1.443.01-1.882.091 3.457.007.605.022-2.964.066.96.087-1.565-.054 2.387.073-.42.018-.524.036-1.133.048 3.868.007 1.363.025-7.023.062 2.086.011-4.503.026 9.88.07-3.3.006.974.055-3.01.04.847.022-.621.03 1.67.054-.873.014.906.059-1.74.029.584.015-.88.025 1.53.066-.32.01.976.026-1.56.07.327.01-.51.048 1.043.043-.306.088.539-.03-.853.055.666.026-.559.058.958.04-.645.004-.004.007.1.022 1.364.03-2.76.054 1.693.022-1.824.095 1.136.014.66.048-1.131.047.495.033-.415.022.448.058-.116.087.245.026-.156.007-.064.026.381.062-.166.116.282.008-.023.014-.124.022.243.08-.15.022.033.026-.188.007-.014.044.204.036-.123.04.08.059-.174.28-.35.015.068.12.089.011-.033.011-.037.058.084.033.005.091.128.04-.009.164.144.004-.01.018.016.099-.029.127-.094.285-.218.003.005.011-.006.157.095.102.093.175.145.004-.01.251-.043.237-.104.091-.007.018-.01.197.058.15.043.127.023.135.006.131-.055.401-.053.139.068.146.084.12-.01.507-.22.149.087.251.141.132-.037.164-.056.007.01.047-.049.04-.012.139-.075.004.006.153.032.003-.003.492.213.18-.163.196-.149.762.201.641.014.15.089.23-.205.003.006.117-.145.12-.106.018.007.273.366.139.13.102.1.04-.043.153-.185.376-.303.244.177.259.039.113-.022.142-.055.131.083.179-.022.266.1.04.024.065-.038.106-.028.015.008.43-.062.364.164.66-.247.47.386.004-.003.153-.192.004.013.084-.11.317-.261.003.029.011-.033.11.221.003-.06.095.2.007-.048.128.197.004-.004.01.025.103-.064.014.04.084-.126.16-.219-.15.245.154-.236.04.08.018-.18.051.095.102.083-.05-.163.054.105.004-.1.09.172.015-.027.022-.062.15.31.04-.229.018.295.051-.015.058.046.059-.323.007.26.062-.38.04.27.084-.413.007.478.022-.195.066.187-.008-.629.033.32.07-.35.007.652.033-.624.098.623-.073-.637.088.328.08.616-.048-.985.051.667.004-.816.03 1.233.072-.374.091.67.007-1.335.008.925.102-1.162-.007 1.862.018-1.806.018 1.728.07-1.74.021.362.007 1.08.008-1.29.09.987.066-1.317-.007 1.619.051-1.164.051.665-.029-1.055.091.804.018-.743-.007.96.099-.309.04-.53.029 1.027.036-.493.04.833.008-1.37.058.898.04-.964-.018 1.45.087-.178.004.002.004-1.128.007 1.418.098-1.01.099-.49.007 1.4.03-1.695-.02 1.96.103-1.354.073-.456-.007 1.172.01-.202.026.259.007-1.114.062.455.091-.447-.069.984.084-.483.036.514.03-1.1.04.765.05-1.093-.007 1.678.07-1.472.073-.053.04 1.947.007-1.892.106.734.084 1.072-.008-1.667.033.89.004-.832.05 1.43.055-.63.051-.52-.007.777.033-.397.004.553.007-1.003.098.55.102-.796-.007 1.12.011-.332.091.143-.084-.81.088.385.025-.459.07.884.01-.272.026.145-.007-.595.033.329.003-.29.095.638.01-.243.015.257.092-.487.13.9-.109-.932.113.735.12-1.551-.101 1.591.138-1.09.08 2.598.048-2.001.073-2.34.054 1.723.07 3.294.05-2.806.044-1.858.084.087.084 5.514.055-4.3.029-1.69.05 2.845.012-.418.007.006.004-.084.033-3.182.062 5.49.029 2.611.05-6.594.012.18.007-1.208.073 3.952.036-3.782.004.037.007-.545.008-.77.061 6.402.03 2.122.054-6.31.008.488.01-.94.07 3.1.014-1.25.128 3.342-.073-6.064.077 5.597.083-3.772-.069 4.323.117-3.083.025.207.051-1.428.015.38.004-.162.069 1.761.065.646.04-.692.14-1.38.006.193.004.003.004-.102.003-.097.07 1.004.065.827.044-.636.131-1.544.007.072.015-.203.03.409.08 1.678.058-.776.025-.293.066-.668.065.374.135 1.026.044-.2.102-.927.022.05h.004l.127.983-.087-1.267.09 1.213.121-1.064.007.338.055-1.199.037 1.41.01-.126.08 1.046.03-.61.062.257.062-2.847.124 4.54.08-3.238.033 1.67.083-3.832-.061 3.968.09-.822.04 4.543.052-6.483.007-1.108.058 6.352.044-5 .015-3.303.043 4.822.019 5.931.076-9.722.004-.14.01 3.292.048 4.179.037-6.652.014.027.008-2.492.061 13.19.033-7.214.08 3.779-.054-9.571.08 6.987.047-5.904.051 8.483.026 3.39.04-11.991.036 5.27.103-4.95-.077 8.385.095-6.105.007-.413.015 6.598.014 5.666.059-16.346.029 7.168.087-5.626-.062 9.566.099-5.562.029 11.82.054-17.263.033 7.058.018 3.125.03-9.787.036 3.076.007-2.528.055 15.592.047-12.956.004.038.004-.97.007-1.853.011 8.694.087-5.365.07 10.876-.051-13.48.09 2.92.019-5.689.015 10.635.018-.82.025.673.044-5.378.011-2.914.051 14.907.033-8.247.025-10.288.059 12.205.065-6.794.033 13.836.055-17.515.029 7.29.036 3.37.033-8.619.018 1.75.008-.844.022 9.092.014 7.609.058-22.351.033 10.555.019 2.117.098 12.5-.058-22.235.069 13.096.047-17.866.059 19.818.01-9.208.022-8.698.059 25.971.033-21.31.01 1.153.008-3.625.007-4.344.055 19.785.04-11.371.047 20.4.055-25.827.003-2.822.026 18.075.07-9.69.047 18.98.054-27.61.139 24.619.022-14.736.036-6.813.026 13.715.05-9.953.008-.696.036 10.652.011 6.13.055-18.98.037 10.278.04-6.562.047 10.975.007 4.71.055-19.64.04 6.882.051-2.914.033 10.046.004 4.314.054-16.71.044 5.274.047-2.781.033 11.865.004 3.039.054-18.237.04 7.668.088 10.082.026-16.22.08 8.557-.051-9.281.084 6.28.094-7.125L133 130.33l.062-7.47.065-7.707-.022 9.072.044-.867.026 6.882.058-17.073.022 9.797.05-7.176.045 14.503.007-4.988.05-12.704-.036 12.712.099-7.981.055 13.278.032-14.308.019 1.35.007-4.995.05 11.985.045-1.906.021 7.704.059-16.316.025 7.77.051-4.838.04 12.978.015-8.655.004 4.682.036-10.829.07 6.542.105-5.872-.058 14.461.062-12.791.113 12.455-.04-13.498.043 8.863.026-9.064-.011 11.674.098-8.977.055 11.09-.04-13.392.091 2.139.007-2.706.084 7.025.011-1.25.018 7.684.059-14.07.029 4.364.047-2.883.04 11.33.011-9.535.008 11.07.04-14.962.062 6.54.003.11.004-3.088.102-3.942-.04 15.288.044-11.984.109 10.368-.095-10.9.099 9.78.054-13.466-.04 15.151.099-9.043.076 10.068-.062-12.732.091 2.768.008-6.235.098 11.163.04 5.179-.01-12.987.014 4.349.029-7.495.01 10.137.07-4.037.058 13.213.037-21.642.014 9.252.008-7.395.062 12.336.036-.364.018 7.846-.007-16.28.015.441.029-5.546.01 14.957.066-9.252.066 15.807.007-21.444.04 8.45.008-6.76.084 10.959.014-2.059.022 10.282.01-20.232.074 4.438.098 16.042-.01-17.109.014 5.534.003-8.396.011 12.896.095-4.34.066 13.296.01-22.646.019 9.663.007-8.655.008 13.55.094-2.052.055-10.8-.01 17.315.065-8.423.003 1.966.011-9.756.091 6.942.026-6.377-.007 12.891.102-11.144.084 9.384.01-9.91.019 5.323.025-5.136-.007 8.201.091-2.684.011-4.035.033 4.723.065-1.05.106-2.621-.084 2.881.11-1.507.087 2.138-.051-2.677.08 1.478.102-1.924.026.206.07 2.04.046-.753.048-1.186.022-.348.065.932.044 1.058.062-1.099.066-.993.047.84.051 1.086.062-.865.04-.568.073.886.007-.082.033.742.058-.43.004.031.037-.554.007.096.007-.209.077.79.007-.13.015.2.072-.58.044-.274.062.329.048.125.04-.21.003.003.077-.387.065.197.033.077.07-.162.025-.033.066.175.062.09.058-.119.025-.011.048.124.058.078.047-.108.062-.127.059.111.084.01.021-.073.088-.091.036.105.07.06.054-.087.03-.024.054.164.066.089.058-.08.047.01.019.051.01.002.059.054.055-.052.073-.043.043.036.452-.144.128.081.007-.031.077.095.014-.002.215.279.004-.003.237-.087.084-.433.043.08.037.192.066-.332.01.212.019.052-.008-.163.011.074.077-.824.044.417.167-.957-.15 1.181.165-.669.106.765-.066-.951.077.686.025-.673.066 1.23.01-.185.008.104.004-.201.003-.388.088 1.61.007-.578.047.87.03-1.048.036.632.12 1.167.004-.406.124-2.17-.113 2.405.116-2.233.073 3.742.03-4.15.029-2.053.069 3.53.03 4.506.061-9.325.007 1.169.008-1.54.083 6.095.008-.003.029 2.467.062-7.89.007 1.93.048-.397.021 3.34.03 4.883.058-9.59.007 1.863.117 7.969-.106-10 .124 8.405.04-9.215.08 4.198.004.008.004-.26.036 6.593.044-8.496.007.258.007-3.262.095 6.19.026 5.22.058-11.566.015 3.114.003-2.25.095 9.003.01 2.463.052-9.881.007-2.383.033 6.44.062-.77.03 7.095.054-12.795.018 2.048.004-1.339.084 8.986.003-.05.004.542.01 2.953.06-13.437.014 4.612.058-3.02.04 9.735.007 1.587.044-10.143.007.136.008-2.95.033 7.383.061-1.97.03 8.47.058-14.119.015 4.408.058-2.795.04 9.167.01 3.465.056-14.229.018 3.178.003-1.639.092 8.743.01 4.013.059-13.778.033 6.943.036-4.622.11-2.608-.055 14.802.058-14.153.124 13.55.004-1.835.05-12.335.066 4.605.062 10.057.059-14.14.13 16.305-.058-16.721.062 12.737.026-14.488-.011 15.597.098-7.798.004.25.004-3.234.095-6.738-.03 21.39.048-17.93.142 19.215-.058-19.661.062 11.875.05-13.456-.036 20.434.095-10.987.076 14.039-.062-21.353.07 5.255.05-10.228-.04 24.937.095-12.243.008 1.413.003-2.973.026-6.594.062 21.456.025-17.562.048 8.174-.033-17.486.087 6.867.004-1.079.044 19.468.014-9.624.004 9.605.04-25.477.066 16.243.102-10.747-.011 22.15.022-17.526.08 8.033-.062-18.676.07 9.532.003-4.517.062 22.018.044-17.007.08 10.094-.062-18.808.07 4.895.003-2.36.062 23.053.014-9.276.004 10.021.04-26.774.066 19 .01-16.277.08 23.515.026-18.758.08 10.701-.065-18.306.09 6.918.005-1.394.043 19.487.015-7.847.004 8.681.04-25.007.065 16.133.011-13.92.062 21.391.044-16.473.05 10.178-.036-16.922.092 7.542.105-6.62-.058 21.675.066-16.272.032 11.606.037-15.62.044 10.377.003-.22.008 5.616.01 5.62.055-21.925.004-1.39.036 18.896.062-14.271.044 19.165.055-23.928.007 4.129.033 13.459.058-13.888.026 9.059.036 11.4.01-21.243.023 2.858.007-5.462.037 15.478.065-10.078.007-.005.004 1.793.047 17.834.04-24.18.022 5.289.004.02.113 13.305.007-4.406.055-11.92-.04 20.305.098-11.54.102 7.603-.054-11.952.058 8.627.044-9.881.07 4.247.003.107.007-2.589.018.51.106-2.113-.07 9.408.077-8.235.062 3.519.037-3.86.018 2.473.084-.938-.07 3.57.095-2.926.011 1.292.066-2.52.036 1.614.008-.202.04 1.2.032-.133.015.227.055-1.04.047-.981.066.888.01-.037.019.864.033.673.047-1.247.007.078.099-1.04.033.467.032 1.171.11-.319.043-.844.037-.34.062.642.07.794.054-.434.069-1.085.055.668.076.663.044-.445.062-.467.062.355.07.476.047-.36.09-.264.033.072.07.26.05-.112.1-.22.058.096.09.191.048-.094.077-.137.043.107.077.308.062-.174.062-.168.05.16.074.235.054-.185.07-.185.05.123.048.1.055-.131.08-.24.07.111.058.052.05-.094.077-.02.03.052.327.432.219-.17.193-.276.084-.174.022-.018.073.077.11.09.025-.012.113.166.113.127.047-.052.142-.05.059-.098.094-.224.048.058.025.036.044-.067.04.015.011.027.047-.131.008-.039.073.287h.003l.066-.088.135-.435.087-.34.058.181.019-.041.13.827.263.981-.255-.984.328.845.562-.865.069.17.273.619.011-.01.102-.253.343-1.434.07-.041.043.065.16.52.23.6.055-.005.036-.055.058-.114.332-.703.237.609.19.385.094-.023.015-.043.273-.326.15.192.025-.055.059-.032.025.1.007-.014.139.291.044-.08.036.13.091.288-.036-.317.076.203.03.095.007-.2.018.029.098-.31.015.068.004.274.087-.69.018.285.117-.916-.106 1.23.11-.989.003.383.08-1.477.019.391.08-1.069-.04 1.265.073-.675.047-.092.073 1.732.007-1.317.084 2.653.018-.94.106 1.291-.095-1.335.102.951.07.716-.052-1.064.092.282.003.17.018-.711.084.406.08-1.155-.047 1.425.095-.88.087.81-.022-.942.044.121.051-3.499.048 3.711.058 2.701.04-2.915.084-3.003-.051 3.262.076-.088.019-1.165.036 3.877.015 2.71.054-7.58.03 2.993.09-5.135.022 4.653.033 6.835.037-10.858.047 5.89.095-6.492.033 5.708.029 5.683.025-11.547.004-.454.051 6.712.007.882.062-7.034.019 1.554.007.104.003-.2.008-1.643.058 11.096.004 1.278.029-13.365.062 8.048.098-7.094.022 3.505.044 8.984.029-12.83.055 7.969.105-7.063.022 1.908.026 6.306.018 4.179.033-13.25.055 8.06.109-8.237.025 3.98.037 9.422.05-13.55.037 8.733.113-8.727.026 4.408.04 9.003.03-13.535.032 2.166.004-.178.01 4.27.019 2.224.065-7.61.08 5.775.026 4.43.033-9.324.047 3.68.12-2.764-.105 4.08.135-2.348.036 2.957.033-3 .05.698.136-1.871-.12 2.165.13-1.82.1 1.967.101-1.017.033-.836.07.856.007-.061.058.693.062.441.04-.487.117-.54.014.022.062.51.073-.155.117-.342-.066.425.117-.377.09-.066-.076.091.106-.032.08-.17.062.19.084.029-.055-.054.084.02.31.22.007-.017.051.019.08-.065.154-.087.164-.134.003.004.062.035.051-.035.179.064.342.29.813-.382.008.04.098.122-.073-.164.099.139.021.024.019-.098.018-.093.05.299.02-.003.12.29-.033-.422.036.323.106-.778-.084.808.098-.298.022.197.037-.842.076.411.04-1.377.15 1.172-.11-1.805.12 1.597.019-.559.073 1.592.007-.116.044-.495.073 1.302.047-.706.04 1.35.026.736.058-1.647.007.048.022.434.026-.702.033-.98.043 2.978.026 2.156.036-4.64.11-2.784.021 1.432.048 8.25.033-10.61.036 3.14.011 1.086.033-4.423.036 1.205.011-.387.044 3.148.022 7.272.033-11.763.054 4.062.066-2.289.036 2.966.03 5.424.01 2.035.03-11.674.05 4.661.03-2.674.084 2.426.007.347.025 7.233.033-12.394.048 4.152.014.095.015-1.57.055-1.014.032 3.221.011.863.022 5.65.033-12.76.047 5.088.091-2.571.019 2.072.043 7.219.033-12.487.04 7.152.051-3.583.066 1.673.044 7.524.032-12.362.044 7.476.095-3.434.022 1.546.04 7.101.033-12.475.003-.309.019 6.878.014 2.959.062-5.486.03.55.018-1.156.029 3.298.033 5.495.032-13.277.044 8.852.022-4.98.098.918.04 8.167.037-13.015.047 7.486.106-4.156.01.899.041 9.486.04-13.011.044 8.092.113-5.72.007.695.044 10.861.04-14.237.047 8.09.113-5.646.011 1.664.037 10.574.04-15.076.047 9.617.117-6.92.014 2.314.033 9.731.044-14.834.047 9.912.117-6.749.015 2.049.032 9.556.044-13.432.044 7.804.066-5.894.069 3.055.033 7.134.043-10.286.04 4.742.07-4.03-.04 4.915.109-2.162.03 4.204.046-4.708.033.53.004-.013.01.273.02.982.04-2.843.021.15.026-.664.036 1.993.066 2.463.05-1.727.103-2.61.033 1.698.065 3.777.055-2.715.102-3.205.029 2.11.066 4.029.058-2.932.095-3.743.033 2.685.061 3.787.059-2.667.095-4.377.036 2.915.062 4.088.062-2.776.087-3.896.037 2.976.066 3.601.058-2.582.087-3.715.037 2.91.065 3.421.055-2.303.088-3.876.036 2.663.066 3.424.058-2.387.084-3.773.036 2.718.062 3.324.062-2.293.084-3.561.036 2.514.062 3.136.062-2.145.08-3.477.037 2.723.058 3.027.066-2.107.08-3.438.037 2.556.058 2.707.062-1.934.05-3.387.07 2.32.07 2.998.05-2.28.037-3.242.073 3.118.062 2.16.054-1.321.037-3.542.073 3.538.09 1.691-.036-2.51.051 1.149.026-3.767.098 1.697.03 5.883.029-8.86.05 3.185.023-3.906.058 5.746.033-4.943.087 12.21-.025-15.671.047 4.234.011-4.446.073 8.564.025-5.707.088 15.4-.03-20.224.048 7.211.015-7.312.069 12.467.03-9.027.021 14.173.066 4.616-.03-23.162.052 2.684.007-2.177.073 14.703.029-12.173.084 21.53-.03-25.75.052 3.683.003-1.889.077 16.275.029-15.307.084 21.698-.03-26.099.055 4.804.008 2.13.127 17.98-.033-20.147.037 19.533.025-23.509.102 6.864.088 16.003-.04-17.86.058 2.855.007-7.464.026 21.9.076-14.233.095 14.902-.047-16.826.058 3.506.011-9.434.026 21.215.069-12.831.098 16.458-.044-16.608.055 1.833.015-9.448.022 17.582.073-7.824.094 12.567-.036-15.753.047 8.734.008-11.372.058 14.697.047-11.315.095 13.338-.084-13.834.099 4.716.003-6.635.059 12.339.05-11.4.103 14.74.007-12.596.004-4.091.054 13.029.051-12.694.106 16.485.007-14.525.004-2.947.05 13.048.056-12.785.105 16.232.008-10.001.003-4.77.008 11.998.098-10.505.11 14.027.003-6.737.004-7.776.01 11.646.099-9.61.106 11.599.007-7.772.004-6.025.01 12.615.095-9.915.113 9.751-.054-10.051.058 6.062.022-9.129-.007 15.159.098-11.243.098 7.719-.043-9.705.062 5.193.021-6.848-.01 14.592.102-9.389.109 5.999-.055-9.754.062 6.303.022-5.499-.01 10.788.101-6.749.11 3.786-.055-8.61.058 8.435.08-5.671-.065 6.406.102-4.304.004.59.069-4.234.025 2.342.004-.287.066 3.521.032.385.033-2.455.07-2.776.05 2.202.044 2.877.022.725.047-3.136.07-2.417.058 1.65.058 4.136.055-3.699.044-1.922.076.825.073 4.673.048-3.56.105-1.974.03 1.397.05 4.25.066-3.985.098-1.534.022.735.062 4.868.059-3.785.102-1.983.025 1.243.059 4.447.058-3.53.091-2.188.04 1.455.055 3.862.062-3.123.069-2.355.066 1.91.065 3.745.048-3.097.102-2.419.018.688.004-.018.007.445.058 4.772.055-3.121.113-3.362.003.705.051 7.393.07-4.42.073.108.058-4.37.058 10.98.059-8.24.003-3.934.011 6.629.099-5.389.029-1.874.033 7.248.025 8.402.062-15.442.011 5.066.007-6.072.059 9.004.043-5.987.073 15.141-.058-18.271.106 5.704.094 4.01-.062-11.447.066 7.46.055-5.191.043 11.801.008-4.984.007 10.04.08-17.6.018 2.321.04 7.486.063-10.048.01 6.64.11-5.369-.059 19.05.062-17.725.077 7.504-.062-10.794.095 5.303.095 15.57-.062-17.634.109 6.253.03-9.249.061 10.392.026-4.948.032-3.254.059 11.117.094-15.037-.076 22.8.113-14.78.022 5.526.08-11.044.01 7.236.11-6.852-.043 17.076.047-13.402.073 6.77-.058-13.592.094 7.68.044-3.996.011 6.53.01-1.61.045 12.58.058-17.118.022-3.322.007 11.994.026-6.42.025 6.474.055-8.233.033 3.959.069-1.486-.007 12.555.01-11.342.008 10.802.058-15.684.044 8.415.095-7.152-.077 7.87.095-4.752.004-.18.014 3.808.011-1.198.03 9.017.054-17.607.014 5.157.004-3.435.062 9.833.044-5.64.116 8.127-.062-10.873.07 5.452.05-6.32-.04 14.79.1-11.023.021 4.568.025-7.023.062 3.356.008-2.516.073 10.307.018 4.224.058-17.301.018 3.214.051-2.763-.007 9.627.062-4.926.113 10.129-.076-13.28.08 9.66.022-11.786-.008 18.24.099-13.597.022 4.95.007-9.086.08 5.544.099 7.202.007-11.966.007 15.008.04-16.202.066 6.65.022-6.71-.008 9.23.099-6.179.095 13.096.007-16.874.01 13.883.008-12.014.106 3.258.003 4.725.011-7.58.095 3.287.018-.716.033 3.493.007-1.035.037 7.295.055-12.243.014 2.684.03-3.47.01 8.776.066-4.32.025 3.508-.01-7.429.098 7.408.058-9.383-.007 17.84.014-4.805.004 5.548.007-18.684.092 3.21.029-2.785.007 9.845.044-4.189.113 3.632-.077-6.824.08 6.178.04-10.608-.01 18.408.014-9.536.004 9.373.036-16.578.066 2.9.025-2.182-.007 9.019.015-1.583.003 2.65.08-8.63.019 1.587.003-.146.019 3.687.01-1.067.059 10.82.007-19.841.04 12.789.007-12.824.011 17.297.092-4.461.083-7.434.03 3.6.069 9.899.01-16.872.023 4.467.025-6.51-.01 16.388.083-7.794.007 3.322.084-6.337.018 1.8.008-.81.058 6.613.033 2.963.033-12.105.018 2.391.003-5.01.011 12.625.092-2.684.003.624.055-7.08.05 6.362.056-4.092-.011 9.018.018-2.07.003 3.568.059-14.62.04 5.984.018 3.246.099-7.003.116 10.044.004-4.119.05-7.487-.01 9.74.07-1.468.076-7.118.043 3.09.095 7.03.004-3.766.05-7.047-.032 9.035.091-.959.077-7.713.047 4.224.066 5.834.014-6.203.015 1.874.03-5.627-.012 8.035.091-1.041.077-7.154.04 4.232.073 5.345.014-5.394.015 1.48.007-4.802.011 6.695.091-.995.077-6.102.047 4.069.066 5.153.014-5.468.015 1.464.007-4.625.011 6.051.091-.995.08-5.539.037 4.963.011-1.088.033 3.594.007 1.555.058-7.907.037 3.379.07 1.402.046-3.615.026-2.48.04 5.602.015-.373.058 3.705.033-7.603.014 3.69.011-3.858.084 4.931.015-2.212.058-4.021.062 6.325.106-4.771-.059 7.638.084-6.034.062 3.12.037-4.502.007.404.03-2.17.014 3.405.014-.122.08 6.18.03-4.63.029-2.955.058 5.038.018-.938.008.557.054-5.182.022-.547.055 5.135.054 3.358.03-5.046.029-2.398.054 4.813.022-.621.008.28.032-4.55.026-1.358.044 3.043.084 5.458.029-4.793.029-1.964.076 3.901.03-2.154.032-3.225.062 4.903.008-.006.083 1.309.008-1.475.014.87.11-2.377.01.165.004-.265.03-.645.058 1.719.014-.192.117.59-.058-1.15.065.965.015.444.047-.565.011.02.102-2.143.04 1.162.004-.014.007.153.011-.008.113 2.154.018-.556.128-2.069.004.2.109 1.238-.095-1.95.106 1.43.076 2.653.03-2.818.025-1.793.073 2.677.011-1.199.01.639.026-2.478.022.059.004-.258.051 4.136.062 2.714.01-6.305.02.324.021-1.393.066 6.237.014-3.042.113 2.182-.073-6.996.077 6.899.116-5.483-.036 10.016.04-9.256.07 5.519-.055-6.865.094 2.471.04-4.498.052 8.48.076-5.432-.01 8.691.014-4.192.007 5.673.007-11.405.095 6.183.004.543.062-6.81.003-.011.004.272.004-.138.007-1.485.066 7.433.018-1.269.018-.23-.007 1.866.01-1.417.03 7.244.01-12.972.066 3.557.044 3.492.04-6.167.007.595.022-1.347.015 4.321.015-.576.109 10.52-.011-12.908.015 5.908.007-9.487.08 9.554.022-1.428.004 1.066.036-6.696.058 3.434.048-1.08.025 5.683.007-1.502.033 9.729.011-19.25.066 9.496.025 2.317.033-6.872.011.5.004-1.189.007-1.541.051 6.467.044-1.495.01-2.331.037 7.235.03 6.958.01-18.866.066 9.068.025 3.214.037-8.804.003.884.011-3.382.037 5.086.01-.415.107 11.916-.048-13.035.055 3.235.05-7.58-.036 17.153.092-8.742.007 3.574.05-10.842.045 4.185.003-.112.004 1.862.102 9.584-.051-12.507.058 6.268.051-10.9-.036 17.097.095-5.315.003 1.213.062-11.285.03 5.17.061-3.38-.047 7.523.073-2.15.025 8.11.055-17.771.018 4.638.008.3.036 9.16.062-12.57.015 4.358.08-1.975-.051 7.857.069-6.331.047 10.978.037-15.65.025 3.606.037 9.719.065-12.45.157 13.51.007-5.522.03-6.746.062 10.174.014-1.547.004.674.05-9.907.015 2.574.004-.72.018 6.254.07-2.986.029 5.945.069-8.627.025 2.146.026 3.999.062-6.277.007-.95.066 5.185.025-1.45.066 3.167.044-3.065.01-.935.044 1.834.062-1.812.004-.116.047 1.345.019-.017.094.839-.065-1.233.094 1.062.154-1.185-.07 1.424.073-1.248.12.659.019.281.065-.423.099-.725-.077.885.142-.409.095.217-.04-.316.07.265.138-.45.003.043.106.414-.076-.435.109.384.01-.04.07.123.018-.037.07-.056.036.023.233.162.019-.042.182-.184.153-.09.131-.026.12.096.38.178.174-.163.004.002.704.052.003-.039.113-.102-.04.14.044-.123.076.07-.062-.113.088-.006.084.13-.07-.177.084-.004.073-.182-.033.43.077-.33.011.394.047-.631.051.218.059-.902.05.847.06-.622.006-.123.019 1 .069-.367.022-.419.022.684.05-.005.022-.13.03.611.124.944-.092-1.076.099.778.12-1.017.007-.202.048 1.027.087 2.187-.029-2.726.048.676.098-2.031.018.104.084 9.14-.047-10.294.062.887.018-2.617.044 7.902.05-6.838.026 5.541.04-6.784.058 3.461.095-5.113-.029 15.392.044-9.695.036 4.989.022-6.909.011-.734.026 3.849.014 2.723.03-9.915.065 7.126.095-8.782-.022 17.955.04-10.727.03 4.651.028-7.752.055 6.816.03-9.817.094 7.143.044 9.617.018-20.375.055 14.094.109-10.398-.055 10.496.07-2.975.029-6.883.098 16.955.018-23.012.164 6.68.142 17.467-.102-18.528.106 15.976.015-22.297.094 16.188.011 4.66.055-13.478.037 4.42.007-5.811.09 16.022.008 2.704.022-25.93.058 12.781.019-5.784.025 15.404.066-11.53.135 15.54-.099-19.74.102 19.353.018-26.363.099 21.043.007 3.087.022-15.322.066 5.118.01-6.88.088 13.298.058 6.539-.025-27.118.062 12.564.018-4.745.018 12.842.008 3.682.021-15.002.066 4.164.011-6.215.088 12.54.061 6.787-.025-25.585.055 11.623.01-.12.015-4.648.026 16.004.062-11.216.134 10.812-.102-15.247.11 14.611.014-20.994.026 25.086.073-7.699.007 4.618.026-13.883.065 1.351.007-2.23.088 10.6.062 7.452-.026-24.87.048 10.627.033-4.484.025 15.039.048-8.793.047-5.343.03 6.332.032-1.806.047 9.626.015-20.862.003-.562.015 11.362.011 13.47.051-17.19.047 2.482.077-2.838.022 5.544.076 9.433-.04-11.721.055 3.57.015-14.14.029 25.091.065-10.86.008 4.635.094-10.978.004-.284.022 5.976.073 9.89.018-15.5.015-8.33.025 24.893.066-10.83.007 4.373.095-8.988.003-.712.03 5.84.05-.668.074 10.742-.026-24.977.051 8.222.007 1.408.044 9.77.07-8.37.123 12.796-.084-13.857.095 10.425.018-20.375.026 24.772.07-10.055.01 4.91.026-10.589.065 3.071.015-2.306.076 7.374.066 7.118-.026-24.07.062 10.868.044 7.761.03-8.753.05 5.166.088-5.571.014 5.79.015 7.72.03-21.925.057 8.851.055 8.174.03-8.35.05 4.913.015-5.007.084 5.47.014 6.708.033-19.186.051 7.49.004-.258.044 3.946.014 3.203.026-6.534.065 1.765.015-3.313.022 6.86.065-1.522.073 5.58-.025-15.784.05 6.59.004-.546.055 7.038.004.906.033-9.79.058 5.54.058-3.29.026 4.186.036-2.963.007-.2.022 3.374.07 2.298-.03-9.459.055 3.094.004-.285.054 4.222.011-.194.113-4.148.011.709.026 2.856.095-.883.072-2.222-.029 3.014.055-.383.025 3.408.03-8.167.05 4.354.04-2.176.03 3.921.047-2.873.004-.019.018.406.026 1.598.036-2.14.055 1.333.022-.603.094-.548-.036 1.422.055-1.206.032.627.059-.728.04.58.014-.294.066.414.03-.116.017-.173.066.418.062.267-.03-.677.077.468.019-.173.047.253.036-.018.019-.091.01-.097.03.444.044-.2.007.066.022-.268.069.085.102-.177-.062.243.073-.202.007.116.08-.307.015.036.018.105.033-.182.058.096.132-.151.047.062.138.125.019-.024.007-.025.073.108.117.148.032-.064.106.066.037-.035 1.578-.115.127.07.008-.004.386-.007.416-.283.007.015.284.37.259-.108.357-.25.142.103.008-.013.062.067.025.007.226.1.004-.007.63-.148.394.19.594-.15.004.013.197.114-.186-.123.193.112.015.02.105-.01.602-.137h0" clip-path="url(#pdaeafa6147)" style="fill:none;stroke:#2ca02c;stroke-width:.5;stroke-linecap:square"/><path id="patch_3" d="M38.05 142.76V8.64" style="fill:none;stroke:#000;stroke-width:.8;stroke-linejoin:miter;stroke-linecap:square"/><path id="patch_4" d="M221.76 142.76V8.64" style="fill:none;stroke:#000;stroke-width:.8;stroke-linejoin:miter;stroke-linecap:square"/><path id="patch_5" d="M38.05 142.76h183.71" style="fill:none;stroke:#000;stroke-width:.8;stroke-linejoin:miter;stroke-linecap:square"/><path id="patch_6" d="M38.05 8.64h183.71" style="fill:none;stroke:#000;stroke-width:.8;stroke-linejoin:miter;stroke-linecap:square"/><g id="legend_1"><path id="line2d_15" d="M164.938 15.919h16" style="fill:none;stroke:#ff7f0e;stroke-linecap:square"/><g id="text_14" transform="matrix(.08 0 0 -.08 187.338 18.719)"><defs><path id="DejaVuSans-46" d="M628 4666h2681v-532H1259V2759h1850v-531H1259V0H628z" transform="scale(.01563)"/><path id="DejaVuSans-70" d="M1159 525v-1856H581v4831h578v-531q182 312 458 463 277 152 661 152 638 0 1036-506 399-506 399-1331T3314 415Q2916-91 2278-91q-384 0-661 152-276 152-458 464m1957 1222q0 634-261 995t-717 361q-457 0-718-361t-261-995 261-995 718-361q456 0 717 361t261 995" transform="scale(.01563)"/><path id="DejaVuSans-64" d="M2906 2969v1894h575V0h-575v525q-181-312-458-464-276-152-664-152-634 0-1033 506-398 507-398 1332t398 1331q399 506 1033 506 388 0 664-152 277-151 458-463M947 1747q0-634 261-995t717-361 718 361q263 361 263 995t-263 995q-262 361-718 361t-717-361-261-995" transform="scale(.01563)"/></defs><use xlink:href="#DejaVuSans-46"/><use xlink:href="#DejaVuSans-30" x="57.52"/><use xlink:href="#DejaVuSans-70" x="152.93"/><use xlink:href="#DejaVuSans-72" x="216.406"/><use xlink:href="#DejaVuSans-65" x="255.27"/><use xlink:href="#DejaVuSans-64" x="316.793"/></g><path id="line2d_16" d="M164.938 27.661h16" style="fill:none;stroke:#1f77b4;stroke-linecap:square"/><g id="text_15" transform="matrix(.08 0 0 -.08 187.338 30.461)"><defs><path id="DejaVuSans-6f" d="M1959 3097q-462 0-731-361t-269-989 267-989q268-361 733-361 460 0 728 362 269 363 269 988 0 622-269 986-268 364-728 364m0 487q750 0 1178-488 429-487 429-1349 0-859-429-1349Q2709-91 1959-91q-753 0-1180 489-426 490-426 1349 0 862 426 1349 427 488 1180 488" transform="scale(.01563)"/><path id="DejaVuSans-67" d="M2906 1791q0 625-258 968-257 344-723 344-462 0-720-344-258-343-258-968 0-622 258-966t720-344q466 0 723 344 258 344 258 966m575-1357q0-893-397-1329-396-436-1215-436-303 0-572 45t-522 139v559q253-137 500-202 247-66 503-66 566 0 847 295t281 892v285q-178-310-456-463T1784 0Q1141 0 747 490 353 981 353 1791q0 812 394 1302 394 491 1037 491 388 0 666-153t456-462v531h575z" transform="scale(.01563)"/></defs><use xlink:href="#DejaVuSans-46"/><use xlink:href="#DejaVuSans-30" x="57.52"/><use xlink:href="#DejaVuSans-6f" x="152.93"/><use xlink:href="#DejaVuSans-72" x="214.111"/><use xlink:href="#DejaVuSans-69" x="255.225"/><use xlink:href="#DejaVuSans-67" x="283.008"/></g></g></g></g><defs><clipPath id="pdaeafa6147"><path d="M38.05 8.64h183.71v134.12H38.05z"/></clipPath></defs></svg>