<svg xmlns="http://www.w3.org/2000/svg" xmlns:xlink="http://www.w3.org/1999/xlink" width="307.2" height="230.4" viewBox="0 0 230.4 172.8"><defs><style>*{stroke-linejoin:round;stroke-linecap:butt}</style></defs><g id="figure_1"><path id="patch_1" d="M0 172.8h230.4V0H0z" style="fill:#fff"/><g id="axes_1"><path id="patch_2" d="M38.05 142.76h183.71V8.64H38.05z" style="fill:#fff"/><g id="matplotlib.axis_1"><g id="xtick_1"><g id="line2d_1"><defs><path id="me7c498b766" d="M0 0v3.5" style="stroke:#000;stroke-width:.8"/></defs><use xlink:href="#me7c498b766" x="73.607" y="142.76" style="stroke:#000;stroke-width:.8"/></g><g id="text_1" transform="matrix(.08 0 0 -.08 71.062 155.839)"><defs><path id="DejaVuSans-31" d="M794 531h1031v3560L703 3866v575l1116 225h631V531h1031V0H794z" transform="scale(.01563)"/></defs><use xlink:href="#DejaVuSans-31"/></g></g><g id="xtick_2"><use xlink:href="#me7c498b766" id="line2d_2" x="132.868" y="142.76" style="stroke:#000;stroke-width:.8"/><g id="text_2" transform="matrix(.08 0 0 -.08 130.323 155.839)"><defs><path id="DejaVuSans-32" d="M1228 531h2203V0H469v531q359 372 979 998 621 627 780 809 303 340 423 576 121 236 121 464 0 372-261 606-261 235-680 235-297 0-627-103-329-103-704-313v638q381 153 712 231 332 78 607 78 725 0 1156-363 431-362 431-968 0-288-108-546-107-257-392-607-78-91-497-524-418-433-1181-1211" transform="scale(.01563)"/></defs><use xlink:href="#DejaVuSans-32"/></g></g><g id="xtick_3"><use xlink:href="#me7c498b766" id="line2d_3" x="192.129" y="142.76" style="stroke:#000;stroke-width:.8"/><g id="text_3" transform="matrix(.08 0 0 -.08 189.584 155.839)"><defs><path id="DejaVuSans-33" d="M2597 2516q453-97 707-404 255-306 255-756 0-690-475-1069Q2609-91 1734-91q-293 0-604 58T488 141v609q262-153 574-231 313-78 654-78 593 0 904 234t311 681q0 413-289 645-289 233-804 233h-544v519h569q465 0 712 186t247 536q0 359-255 551-254 193-729 193-260 0-557-57-297-56-653-174v562q360 100 674 150t592 50q719 0 1137-327 419-326 419-882 0-388-222-655t-631-370" transform="scale(.01563)"/></defs><use xlink:href="#DejaVuSans-33"/></g></g><g id="text_4" transform="matrix(.08 0 0 -.08 114.392 163.581)"><defs><path id="DejaVuSans-74" d="M1172 4494v-994h1184v-447H1172V1153q0-428 117-550t477-122h590V0h-590q-666 0-919 248-253 249-253 905v1900H172v447h422v994z" transform="scale(.01563)"/><path id="DejaVuSans-69" d="M603 3500h575V0H603zm0 1363h575v-729H603z" transform="scale(.01563)"/><path id="DejaVuSans-6d" d="M3328 2828q216 388 516 572t706 184q547 0 844-383 297-382 297-1088V0h-578v2094q0 503-179 746-178 244-543 244-447 0-707-297-259-296-259-809V0h-578v2094q0 506-178 748t-550 242q-441 0-701-298-259-298-259-808V0H581v3500h578v-544q197 322 472 475t653 153q382 0 649-194 267-193 395-562" transform="scale(.01563)"/><path id="DejaVuSans-65" d="M3597 1894v-281H953q38-594 358-905t892-311q331 0 642 81t618 244V178Q3153 47 2828-22t-659-69q-838 0-1327 487-489 488-489 1320 0 859 464 1363 464 505 1252 505 706 0 1117-455 411-454 411-1235m-575 169q-6 471-264 752-258 282-683 282-481 0-770-272t-333-766z" transform="scale(.01563)"/><path id="DejaVuSans-28" d="M1984 4856q-418-718-622-1422-203-703-203-1425 0-721 205-1429t620-1424h-500Q1016-109 783 600T550 2009q0 697 231 1403 232 707 703 1444z" transform="scale(.01563)"/><path id="DejaVuSans-73" d="M2834 3397v-544q-243 125-506 187-262 63-544 63-428 0-642-131t-214-394q0-200 153-314t616-217l197-44q612-131 870-370t258-667q0-488-386-773Q2250-91 1575-91q-281 0-586 55T347 128v594q319-166 628-249 309-82 613-82 406 0 624 139 219 139 219 392 0 234-158 359-157 125-692 241l-200 47q-534 112-772 345-237 233-237 639 0 494 350 762 350 269 994 269 318 0 599-47 282-46 519-140" transform="scale(.01563)"/><path id="DejaVuSans-29" d="M513 4856h500q468-737 701-1444 233-706 233-1403 0-700-233-1409T1013-844H513q415 716 620 1424t205 1429q0 722-205 1425-205 704-620 1422" transform="scale(.01563)"/></defs><use xlink:href="#DejaVuSans-74"/><use xlink:href="#DejaVuSans-69" x="39.209"/><use xlink:href="#DejaVuSans-6d" x="66.992"/><use xlink:href="#DejaVuSans-65" x="164.404"/><use xlink:href="#DejaVuSans-28" x="257.715"/><use xlink:href="#DejaVuSans-73" x="296.729"/><use xlink:href="#DejaVuSans-29" x="348.828"/></g></g><g id="matplotlib.axis_2"><g id="ytick_1"><g id="line2d_4"><defs><path id="mdb8b948b8c" d="M0 0h-3.5" style="stroke:#000;stroke-width:.8"/></defs><use xlink:href="#mdb8b948b8c" x="38.05" y="137.731" style="stroke:#000;stroke-width:.8"/></g><g id="text_5" transform="matrix(.08 0 0 -.08 25.96 140.77)"><defs><path id="DejaVuSans-30" d="M2034 4250q-487 0-733-480-245-479-245-1442 0-959 245-1439 246-480 733-480 491 0 736 480 246 480 246 1439 0 963-246 1442-245 480-736 480m0 500q785 0 1199-621 414-620 414-1801 0-1178-414-1799Q2819-91 2034-91q-784 0-1198 620-414 621-414 1799 0 1181 414 1801 414 621 1198 621" transform="scale(.01563)"/></defs><use xlink:href="#DejaVuSans-30"/></g></g><g id="ytick_2"><use xlink:href="#mdb8b948b8c" id="line2d_5" x="38.05" y="120.966" style="stroke:#000;stroke-width:.8"/><g id="text_6" transform="matrix(.08 0 0 -.08 20.87 124.005)"><defs><path id="DejaVuSans-35" d="M691 4666h2478v-532H1269V2991q137 47 274 70 138 23 276 23 781 0 1237-428 457-428 457-1159 0-753-469-1171Q2575-91 1722-91q-294 0-599 50Q819 9 494 109v635q281-153 581-228t634-75q541 0 856 284 316 284 316 772 0 487-316 771-315 285-856 285-253 0-505-56-251-56-513-175z" transform="scale(.01563)"/></defs><use xlink:href="#DejaVuSans-35"/><use xlink:href="#DejaVuSans-30" x="63.623"/></g></g><g id="ytick_3"><use xlink:href="#mdb8b948b8c" id="line2d_6" x="38.05" y="104.201" style="stroke:#000;stroke-width:.8"/><g id="text_7" transform="matrix(.08 0 0 -.08 15.78 107.24)"><use xlink:href="#DejaVuSans-31"/><use xlink:href="#DejaVuSans-30" x="63.623"/><use xlink:href="#DejaVuSans-30" x="127.246"/></g></g><g id="ytick_4"><use xlink:href="#mdb8b948b8c" id="line2d_7" x="38.05" y="87.436" style="stroke:#000;stroke-width:.8"/><g id="text_8" transform="matrix(.08 0 0 -.08 15.78 90.475)"><use xlink:href="#DejaVuSans-31"/><use xlink:href="#DejaVuSans-35" x="63.623"/><use xlink:href="#DejaVuSans-30" x="127.246"/></g></g><g id="ytick_5"><use xlink:href="#mdb8b948b8c" id="line2d_8" x="38.05" y="70.671" style="stroke:#000;stroke-width:.8"/><g id="text_9" transform="matrix(.08 0 0 -.08 15.78 73.71)"><use xlink:href="#DejaVuSans-32"/><use xlink:href="#DejaVuSans-30" x="63.623"/><use xlink:href="#DejaVuSans-30" x="127.246"/></g></g><g id="ytick_6"><use xlink:href="#mdb8b948b8c" id="line2d_9" x="38.05" y="53.906" style="stroke:#000;stroke-width:.8"/><g id="text_10" transform="matrix(.08 0 0 -.08 15.78 56.945)"><use xlink:href="#DejaVuSans-32"/><use xlink:href="#DejaVuSans-35" x="63.623"/><use xlink:href="#DejaVuSans-30" x="127.246"/></g></g><g id="ytick_7"><use xlink:href="#mdb8b948b8c" id="line2d_10" x="38.05" y="37.141" style="stroke:#000;stroke-width:.8"/><g id="text_11" transform="matrix(.08 0 0 -.08 15.78 40.18)"><use xlink:href="#DejaVuSans-33"/><use xlink:href="#DejaVuSans-30" x="63.623"/><use xlink:href="#DejaVuSans-30" x="127.246"/></g></g><g id="ytick_8"><use xlink:href="#mdb8b948b8c" id="line2d_11" x="38.05" y="20.375" style="stroke:#000;stroke-width:.8"/><g id="text_12" transform="matrix(.08 0 0 -.08 15.78 23.415)"><use xlink:href="#DejaVuSans-33"/><use xlink:href="#DejaVuSans-35" x="63.623"/><use xlink:href="#DejaVuSans-30" x="127.246"/></g></g><g id="text_13" transform="matrix(0 -.08 -.08 0 14.116 105.261)"><defs><path id="DejaVuSans-66" d="M2375 4863v-479h-550q-309 0-430-125-120-125-120-450v-309h947v-447h-947V0H697v3053H147v447h550v244q0 584 272 851 272 268 862 268z" transform="scale(.01563)"/><path id="DejaVuSans-72" d="M2631 2963q-97 56-211 82-114 27-251 27-488 0-749-317t-261-911V0H581v3500h578v-544q182 319 472 473 291 155 707 155 59 0 131-8 72-7 159-23z" transform="scale(.01563)"/><path id="DejaVuSans-71" d="M947 1747q0-634 261-995t717-361 718 361q263 361 263 995t-263 995q-262 361-718 361t-717-361-261-995M2906 525q-181-312-458-464-276-152-664-152-634 0-1033 506-398 507-398 1332t398 1331q399 506 1033 506 388 0 664-152 277-151 458-463v531h575v-4831h-575z" transform="scale(.01563)"/><path id="DejaVuSans-75" d="M544 1381v2119h575V1403q0-497 193-746 194-248 582-248 465 0 735 297 271 297 271 810v1984h575V0h-575v538q-209-319-486-474-276-155-642-155-603 0-916 375-312 375-312 1097m1447 2203" transform="scale(.01563)"/><path id="DejaVuSans-6e" d="M3513 2113V0h-575v2094q0 497-194 743-194 247-581 247-466 0-735-297-269-296-269-809V0H581v3500h578v-544q207 316 486 472 280 156 646 156 603 0 912-373 310-373 310-1098" transform="scale(.01563)"/><path id="DejaVuSans-63" d="M3122 3366v-538q-244 135-489 202t-495 67q-560 0-870-355-309-354-309-995t309-996q310-354 870-354 250 0 495 67t489 202V134Q2881 22 2623-34q-257-57-548-57-791 0-1257 497-465 497-465 1341 0 856 470 1346 471 491 1290 491 265 0 518-55 253-54 491-163" transform="scale(.01563)"/><path id="DejaVuSans-79" d="M2059-325q-243-625-475-815-231-191-618-191H506v481h338q237 0 368 113 132 112 291 531l103 262L191 3500h609L1894 763l1094 2737h609z" transform="scale(.01563)"/><path id="DejaVuSans-48" d="M628 4666h631V2753h2294v1913h631V0h-631v2222H1259V0H628z" transform="scale(.01563)"/><path id="DejaVuSans-7a" d="M353 3500h2731v-525L922 459h2162V0H275v525l2163 2516H353z" transform="scale(.01563)"/></defs><use xlink:href="#DejaVuSans-66"/><use xlink:href="#DejaVuSans-72" x="35.205"/><use xlink:href="#DejaVuSans-65" x="74.068"/><use xlink:href="#DejaVuSans-71" x="135.592"/><use xlink:href="#DejaVuSans-75" x="199.068"/><use xlink:href="#DejaVuSans-65" x="262.447"/><use xlink:href="#DejaVuSans-6e" x="323.971"/><use xlink:href="#DejaVuSans-63" x="387.35"/><use xlink:href="#DejaVuSans-79" x="442.33"/><use xlink:href="#DejaVuSans-28" x="533.297"/><use xlink:href="#DejaVuSans-48" x="572.311"/><use xlink:href="#DejaVuSans-7a" x="647.506"/><use xlink:href="#DejaVuSans-29" x="699.996"/></g></g><path id="line2d_12" d="M14.345 137.73h33.483l.296-107.892.593 19.457.296 1.87.297-1.442.889-8.154.592-6.898.593-7.304.296-.653.889 7.838.296-.937.297 1.197.592 7.963.593 2.891.296 1.459.296.816.297 89.79h1.185l.296-124.843.593 8.395.593 4.26 1.185 6.145.592 3.452 1.482 6.224.889 3.48.592 1.55.593.627.296.202.297.428 1.777 4.414.593 2.175 1.482 7.388.296.16.296-.25.297-.035.296.276.592 1.132 1.186 2.871.592 1.395.593 2.237.296.62.297.205 2.666.362 1.186.232 1.481.06.593-.053.592.131 2.667 1.164.296.528.89 2.453.296-.362.296-1.27.296-2.32.593-8.426.592-8.34.297-1.093.592 3.872.297-.035.296-.713.296.273.297 81.029h.888l.297-77.318.592 1.256.297-1.463.592-5.01.297.136.296 2.813.593 7.327.296 1.876.592 1.753.593 1.361.593 1.775.296.377.296-.526.297-.835.296-.453.296.065.89 1.168 1.48 2.397.593.62.593.471.889.352 1.481.413.297-.036.296-.271.593-.834.296.242.889 1.918.296-.295.593-1.321.296-.191.296-1.101.593-6.157.593-7.92.296-1.735.296 1.315.89 8.033.592 2.293.592 2.032.297.421.296-.85.296-2.276.593-5.929.296-.332.296 1.509.593 6.102.593 8.194.296.39.296-5.708.593-16.4.296-3.625.297.016.296 3.71.592 9.494.297 2.508.296 1.063.296.332.593.288.296.296.297.464 1.185 2.47.296.337.296.531.297.186.296-1.315.593-5.868.296.94.296 1.63.297.222.296-.463.296-1.293.296-4.375.89-27.397.296 1.011.889 24.609.296.242 1.185-8.874.296-.64.297.33.296 1.388.593 5.667.592 5.623.297 1.07.296-.007.593-1.48 1.185-3.542.592-1.656.297-1.525.592-6.2.297-3.393.296-1.522.296 1.089.593 5.816.296 1.442.296-.44.593-3.66.296 1.1.593 7.524.296-1.105.297-6.26.592-20.874.297-5.012 2.074 15.984 1.481 15.13.296.26.297-.298.296-.107.296-.569.297-1.95.889-8.92.296.18.296 5.284.297 8.617.296 4.783.296-1.655.593-7.368.296-2.03.296-.66.593-.155.296.053.297.244.592.875.297.61.296.97.592 3.718.297 2.227.296 1.355.296-.062.297-1.143.889-5.719.296-.126.296.844.297.49.296-.574.592-2.167.593-1.163.593-.723.296-.669.296-1.13 1.186-6.966.296.364.592 3.902.593 5.066.296 1.465.297-.286.296-2.075.296-2.962.297-.857.296 3.807.593 9.531.296.918.296-.561.593-2.555.592-3.925 1.186-10.161.592-3.994.593-2.157.296-.222.296.566.297 1.454.592 3.913.297 1.075.296.156.296-.54 1.185-3.54.297-.17.592-.04.297-.192.296-.516.593-1.968.592-2.717.89-4.394.295-.51.297.46.296 1.457.593 5.268.592 6.128.297 1.9.296.153.296-1.709 1.185-10.659.297-1.403.296 2.41.296 3.464.297.514.592-5.032.297-.15.296.71.296-.273.297-.995.296-.58.296.95.296 3.112.89 15.565.296 1.403.296-2.441.593-7.938.296.004.889 7.602.296-1.747.593-6.583.889-12.854.296 3.867.593 15.284.296 3.608.889 4.897 1.185 9.284.593 2.692.296-.046.296-.812.297-.438.296.126.592.505.297-.106 1.185-1.794.296-.052 1.186.457.296.284.296.478.296.76.593 2.691.593 3.258.296.972.296.128.297-.626.592-2.086.89-3.618.295-.606.297-.169.296.134 1.185 1.26.593.572 1.185.724.889.973.889 1.102.593.389.888.31.297.343.592 1.172.593 1.21.889 1.34.296.722.297 1.151.592 4.033.89 8.6.295 42.426h1.482l.296-51.254.297.264.296-.379.592-1.274.297-.33.296-.058.296.164.297.385.889 1.73.296-.139.296-1.185.297-2.521.592-6.988.296-1.762.297-.316.296-1.231.296-3.84 1.186-22.448.296-2.899.296.632.593 9.741.296.956.296-4.395.297-9.708.296 96.855H231.4" clip-path="url(#pd82eb95bbc)" style="fill:none;stroke:#1f77b4;stroke-linecap:square"/><path id="line2d_13" d="M14.345 137.73h28.742l.297-56.277.296-3.539.592-11.981.593-15.9.296-4.884.297-1.294.296 1.914.296 4.504.89 22.097.296-.808.592-10.752.889-8.068.593-5.334.592-5.66 1.185-12.957.297-.073.296 3.418.593 10.553.592 4.947.297.615.296-.666.593-1.903.296-.272.296 1.2.593 3.996.296-1.627.296-4.922.89-21.439.296-2.869.296-.36.593 1.523.592 1.52.593.975.592.468.593.51.296.525.297.859.592 3.158.593 3.73.296.816.593.497.592.466.297.596.296 1.254.593 4.935.592 5.077 1.482 7.663 1.185 8.423.593 1.735.592 1.345.89 2.404.592.604.296.212.296.357.593 1.199 1.481 3.134.89 1.33.888 1.002.593.773.296.166.89.016.295.285.89 1.513.296.004.296-.383.889-2.072 1.185-2.822.296-.372.297-.177.296.06.296.896.89 5.93.296-.693.296-4.013.593-16.902.296-8.806.296-3.86.296 2.403.89 21.702.296-.064.592-5.344.297.855.296 72.93h1.778l.296-66.787.593-18.583.296-3.728.296 1.113.89 16.156.295 2.212.297.814.889.627.592 1.462.89 2.972.296.044.592-1.072.296-.065.593.474.593 1.077.592 1.096.593.586.889.136.296.243 1.185 1.488.593.305.296.452.297.883.592 2.198.296-.319.593-2.646.593-1.185.296-1.254.296-.408.297.773.296 1.829.296 2.674.297 1.314.296-2.617.592-8.201.297-.879.296.304.593.937.889 1.016 1.481 4.166.89 1.744.295.505.297-.131.296-1.372.296-4.564.89-26.764.296-1.81.296 2.057.592 12.133.297 5.864.296 3.578.296 1.786.297.845.296.435.296.213.297-.029.296-.354.889-2.318.296-.772.296-.334.297.566.296 1.577.296 2.606.593 7.671.296 1.881.297-2.218.592-11.854.89-19.71.295-2.519.89 11.144.296-.123.296-1.327.296-.468.297.403.296 1.857.889 7.756.592 2.236.593 1.425.296.452.297.237.296.025.296-.184.297-.36.296-.543.592-1.862.593-3.288.593-4.133.296-1.072.296-.45.297-1.028.889-5.628.296-1.889.296-.712.296 1.26.593 5.457.593 5.183.296-1.59.296-3.033.297-1.718.296.017.296.936.297.03.296-1.411.296-2.259.296-3.78.593-9.041.296-1.926.297-.438.296.92.593 5.02 1.777 18 .297-.98.889-11.525.296.812.593 4.059.296 1.374.296-.181.296-2.63.89-14.49.296 1.023.889 8.592.296.582.296-.005.297.248.296 1.294.296 2.877.593 8.007.296 1.897.593.919.592 2.526.297.51.296-.982.593-6.268.592-5.514.296-1.459.297-.8.592-.618.297-.285.296-.54.296-1.002.593-3.32.593-3.543.296-.674.296.768.296 2.093 1.186 12.824.296 1.28.296-1.371.297-3.158.296-1.392.296 2.173.297 3.799.296 1.563.296-1.603.889-10.33.296-.736.297 2.395.592 7.582.297 1.6.296-.957.296-1.925.296-.643.297.504.296-.418.593-5.947.592-5.84.593-3.671.296-.919.297-.16.888 1.3.297-.117.889-1.273.592-.247.297-.128.296-.39.889-2.18.296-.245.296.263 1.186 2.387.889 1.5.592 1.452.297 1.527.296 2.685.889 11.05.296 1.901.593 2.358.592 3.844.297-.55.296-4.446.593-11.348.296-1.717.296.254.296.666.297-.172.889-2.993.296-.135.296.287.593 1.373.296.715.296.243.297-.38.296-.72.296-.372.297.497.296.989.889 4.304.296-.638.297-1.217.296.05.296 1.943.593 6.227.296 1.304.296-.776.593-2.79.296-.545.297.418.296 1.653 1.185 9.164.89 4.822.295 1.251.297.663.296-.3.593-1.308.296-.046.593.434.888.786.593.229.296.566.297 1.318.889 6.721.296 1.023.296.064.296-1.349.297-2.121.296-1.182.593.633.592-2.08.297-.206.296.625.889 2.692.296.503.296.14 1.482-.606.296.287.593 1.156.889 2.292.296.12.296-.483.593-1.382.296-.463.89-.866.296-.807.296-1.67.296-2.317.297-1.41.296.904.592 4.89.297 1.39.592.918.89 1.46.296-.154.592-1.054.297.138.888 1.368.89.56 2.073 3.666.593 1.786.296-.147.593-2.566.296 52.308H231.4" clip-path="url(#pd82eb95bbc)" style="fill:none;stroke:#ff7f0e;stroke-linecap:square"/><path id="line2d_14" d="m38.046 120.947.326.093.393-.11.204-.064.288.151.19.08.248-.063.544-.042.14.015.916-.014.174.041.859-.009.148.017.374-.11.293-.072.237.074.096.045.004.005.337-.02.53-.037.192.079.367-.06.166-.01 1.445.108.133.03.615-.148.004.01.018-.005.041-.083.019-.045.063.172.122.14-.074-.25.078.237.033-.414.067.486.007.04.04-.54.004-.022.037.432.015.125.06-.48.007-.079.04.493.034-.018.004.002.01-.114.023-.299.037.47.056-.238.014-.017.045.15.022.083.056-.241.014.028.012.015.014-.158.011-.082.034.455.026-.04.01.056.034-.388.026.108.037-.224.022.259.034-.1.044 1.775.04-3.025.012-.54.056 2.135.014-.07.008-.032.015.378.026 1.622.033-3.332.044 1.514.123-2.609-.03 2.974.044-1.74.034 4.815.033-5.027.063 3.166.085-4.12.022 2.959.019 2.974.033-5.402.06 2.922.007.273.015-2.346.01-1.607.086 4.978.011.707.033-5.865.012 1.041.018 3.052.07-3.709.034 3.293.089-5.025-.03 8.054.048-3.128.011 1.54.067-4.208.033 2.741.086-5.734-.03 10.363.048-4.817.011 1.799.07-4.46.026 2.406.026-1.865.026 6.328.004 1.277.026-11.934.063 4.475.122 7.813-.078-9.61.086 5.967.018-9.286.104 3.407.074 9.716.022-11.053.007-2.649.026 8.765.075-5.12.062 8.058.008 2.7.03-14.562.062 7.587.104 5.67-.066-9.788.077 5.279.019-7.387.048 7.586.052-4.884.055 9.822.034-11.596.007.444.004-.248.033 4.568.115 6.58-.052-9.299.063 5.514.026-6.408.096 3.187.048 5.064.037-6.372.008.545.022-1.24.07 3.508.03.914-.007-1.148.026.047.018-2.246.096.932.041 2.063.037-2.867.004-.07.026 1.402.026 1.28.055-1.971.03.895.044-1.334.049 1.9.014.116.045-1.123.004.011.081-.587-.063.621.093-.09.018.32.008.148.088-.433.038-.313.003-.042.067.477.048.08.022-.102.034.002.048-.174.033.24.026-.015.07.097.034-.13.04-.069.052.13.093-.096.196-.087.015.036.022.03.052-.052.037.013.052-.082.067.092.137-.046.018.003.026.058.026.02.426.057.478-.081.392.182.145-.045.581-.077.008.136.007-.266.096.183.1-.114-.051.21.063-.094.04.146.041-.303.011.015.004-.112.078.533.03-.447.096.309-.078-.466.089.218.115-.632-.023.643.037-.437.056.384.037-.71.007.198.008-.388.026 1.328.074-.858.01-.148.034 1.302.004.288.078-2.239.03 1.975.014 2.242.045-2.685.044-2.795.044 6.071.03 3.17.04-9.025.008-3.256.093 10.357.074-9.725-.045 11.216.1-7.282.067 9.486-.007-13.694.048 2.338.004-2.727.096 10.219.007-1.658.004 1.876.019 6.507.044-19.929.044 13.639.078-13.312-.01 17.017.014-.304.004 7.28.044-26.245.06 15.944.11-16.428-.04 26.533.044-26.155.111 23.777.004-1.483.06-22.388-.045 27.46.096-22.367.082 21.27.007-27.256.026 15.293.007-15.477.011 20.42.093-9.965.007 7.142.026 9.472.041-27.629.04 18.698.034-14.907.04 19.229.02-10.005.003 12.952.04-23.744.068 13.82.074 10.385.04-24.549.119 21.319.007-4.823.056-17.315-.04 27.005.095-19.267.09 17.395-.071-23.726.096 12.076.085-14.057-.059 21.1.09-9.976.043 14.262.008-24.745.048 9.031.056-10.524.044 20.934.007-7.638.008 12.95.026-24.387.074 11.562.015-4.856.007 8.317.004-6.857.089-10.275-.008 29.769.026-20.755.026 19.128.063-25.96.026 11.703.06-15.528-.008 29.71.044-17.108.008 13.586.007-22.302.096 15.161.045-16.278-.008 26.619.078-15.291.097 11.068-.063-17.872.07 4.438.052-6.99-.04 23.812.095-17.204.1 14.953-.081-18.981.089 1.739.022 9.044.022 5.368-.01-18.378.088 7.056.007.381.004-1.118.067-2.896-.011 15.396.03-7.57.022 6.776-.012-16.07.097 5.078.063 9.713.01-10.691.027 2.295.003-4.805.012 10.998.096-6.764.052 7.008.04-9.007.019 2.66.044 3.008.008-5.068.004-.491.062 5.601.015-2.045.008 2.438.096-3.362.007 1.116.023-2.1.074 2.704.01-.16.042 1.46.044-2.207.007.116.034-1.731.063 2.5.007-.2.045 1.139.055-1.627.052-1.617.052 2.33.074.706.026-1.166.037-1.692.011-.364.06 2.317.051 1.143.052-1.161.06-2.36.051 2.12.048 1.45.056-1.57.055-1.905.052 1.889.056 1.648.052-1.628.051-1.972.056 1.845.06 1.81.051-1.785.052-1.758.056 1.96.055 1.67.052-1.758.06-1.83.047 1.932.052 1.74.056-1.826.07-1.67.037 1.61.056 1.944.055-1.889.06-1.854.048 1.51.07 2.17.04-1.572.068-2.23.044 1.562.063 2.384.048-2.375.048-2.12.052 1.968.03 3.64.063-4.053.014 1.325.082-3.304.03 2.808.037 5.614.007-7.964.067 4.045.059-5.647.052 3.314.04 6.828.008-11.02.063 8.342.06-8.136.051 4.12.04 8.407.012-12.213.063 5.032.055-5.235-.037 7.272.09-2.69.044 9.636.007-14.39.048 3.208.074-3.211-.059 8.35.096-5.687.004-.264.033 4.902.023 8.862.01-17.358.067 2.825.075-1.847-.06 9.114.085-4.632.052 13.02.008-19.774.044 7.336.078-4.985-.06 9.34.09-3.847.07 11.809-.06-16.26.064 6.772.003-10.768.011 13.122.097-5.994.096 7.4-.081-12.234.088 4.477.023-7.617-.011 20.036.092-6.461.04-9.247.075 7.236.026 8.318.011-20.207.067 8.225.096-4.416-.081 11.572.092-5.082.052 9.582.011-18.085.037 9.93.104-9.383-.06 13.179.067-5.897.078 7.913.011-17.088.015 7.443.107-3.796-.04 10.135.044-7.317.107 8.929-.088-11.33.092 3.579.004-6.534.037 12.477.07-6.78.111 5.29-.096-7.362.1 5.33.022-6.724-.007 12.374.096-6.341.067-3.8.04 4.338.045 4.082-.011-6.606.015 3.018.033-4.918.011 5.79.07-4.412.004-.058.004.804.104 4.854-.063-6.8.085 6.489.037-5.129.081.325.115 3.912-.052-4.88.09 2.776.114-2.254-.052 2.494.056-2.468.11 2.991.016-.176.2-2.817-.152 2.952.16-2.672.077 3.538.063-2.735.104-1.242.022.8.06 3.332.062-2.15.096-2.141.037.955.067 3.309.06-2.127.077-2.066.052.823.074 3.456.06-2.37.055-1.89.07.78.078 3.563.06-2.54.055-1.66.07.582.082 3.671.055-2.571.048-1.616.078.366.085 3.868.06-3.052.037-1.104.085.196.089 3.993.059-3.178.04-.941.086.224.085 3.945.06-3.075.085-1.043.044.22.074 3.887.07-3.056.082-1.048.052.14.055 3.07.026.804.048-2.104.093-1.984.06.41.07 3.61.059-2.252.093-2.08.059.836.066 3.064.052-1.932.115-2.133.019.72.077 4.755-.066-4.867.085.715.03 2.898.085-4.86.159 9.025-.063-9.61.067 8.512.022-13.329.026 13.691.07-9.676.022 5.86.093-3.54.048 6.557.063 2.229-.026-15.326.048 7.666.045-2.333.026 5.108.04-3.372.008-.205.044-1.388.034 5.538.078 5.744-.026-18.375.044 9.439.085-3.01-.026 5.914.048-2.316.056-3.984.019 3.968.092 9.926-.026-21.5.04 12.798.09-5.096-.026 5.507.048-1.103.115 6.642-.056-11.15.063 7.4.022-15.135.023 22.418.066-12.516.011 3.986.026-6.925.07 2.02.016-1.176.022 6.483.01-.112.075 9.49-.026-24.805.045 11.279.081-3.962-.026 8.436.048-1.096.122 6.521-.055-12.42.06 10.029.021-18.398.026 23.188.067-11.177.056 3.968-.023-9.709.074 3.746.07 11.395.016-15.226.01-6.284.023 23.965.055-9.777.019 2.13.022-8.306.004-2.468.026 11.18.07-4.644.1 11.767-.026-23.638.034 15.038.092-10.39-.026 12.161.045-3.16.07-7.486.045 11.198.01 4.16.023-19.006.004-3.273.026 24.062.066-11.101.056 5.458-.022-13.023.074 5.64.07 11.627.015-16.213.01-6.211.016 17.693.007 5.692.03-15.342.063 4.123.007-8.132.026 14.958.074-5.79.074-13.373-.026 23.091.037-5.61.004.071.007 6.367.03-15.883.063 3.956.007-8.01.026 14.943.074-6.016.004-.409.037 6.205.056 5.574-.022-23.82.066 12.526.056-9.1.026 14.813.03-7.74.092 12.305-.06-16.307.067 5.487.019-12.695.022 24.495.067-12.209.059 6.96-.026-15.407.074 7.589.074 11.99-.059-16.323.067 6.399.018-14.03.026 25.056.063-12.34.06 7.055-.027-15.355.074 7.823.075 11.233-.06-15.76.067 7.2.018-14.741.026 25.349.063-12.768.06 7.183-.026-15.536.077 8.69.012-5.489.048 10.078.01 5.426.023-18.033.004-4.508.026 25.36.07-7.417.004.39.018-8.204.004-5.427.026 13.886.078-6.865.096 13.48-.026-24.805.04 11.887.086-8.19-.026 14.755.04-9.305.008 9.403.063-11.645.045 9.393.003-.033.004.664.06 8.159-.023-25.087.063 13.555.06-10.054-.027 14.959.078-9.36.096 12.588-.063-14.96.075 1.839.007-1.313.007-7.683.026 24.938.067-8.43.056 2.594-.026-15.368.074 8.47.074 9.326-.06-14.612.07 3.364.016-9.849.026 25.04.063-12.89.059 5.99-.022-14.138.07 6.799.074 10.748.022-15.886.004-5.862.026 25.76.07-8.279.056.964-.026-14.933.044 8.283.041-5.734.056 12.731.055 6.65-.022-25.589.063 13.234.06-9.67.025 15.26.026-9.75.096 13.268-.063-15.692.075 1.492.014-8.871.019 18.817.007 7.433.026-20.545.067 3.24.004-4.623.025 15.194.078-7.668.097 15.187-.026-27.23.04 13.86.086-9.293-.026 15.203.044-5.31.004 4.64.063-11.933.044 11.606.045-17.842.022 25.206.052-10.655.022 5.388.026-16.936.048 8.444.04-5.249.027 11.626.026-1.265.059 10.097-.026-28.672.07 13.13.03 9.566.022-15.915.004-1.356.026 14.953.063-12.206.11 20.08-.025-28.698.03 23.587.096-17.503-.026 17.76.04-9.68.097 6.31-.026-12.737.048 11.567.015 6.006.007-9.148.019-14.609.026 25.523.063-11.6.011 8.394.026-16.927.067 9.203.107-13.085-.022 21.697.03-12.477.018 13.446.052-14.984.04 1.896.008-4.64.063 10.447.033-2.728.104 9.15-.026-20.689.033 14.649.045-9.5.022 14.08.044-7.494.008.274.007-3.503.052-4.192.026 11.45.015-3.556.026 6.471.01-17.675.012.208.004-.837.022 18.708.055-13.605.023 12.005.092-7.59.108-8.963-.041 18.097.044-14.724.023 12.772.089-5.67.092-5.15-.074 6.603.089-1.966.037 8.028.03-13.675.003.132.008-2.712.048 14.011.044-7.071.041 4.213.063-5.435.007-.967.06 10.149.037-11.912.13 5.512.01 1.441.063-4.672.041 4.27.026 2.965.03-5.749.059 3.453.037-1.305.115-1.889-.063 2.177.07-1.485.048 1.665.078-.113.015.661.063-1.87.022.767.067-1.208.048 1.082.096.446-.066-.968.089.833.13-1.076.014.41.13.618-.063-.843.077.72.141-.612-.066.863.085-.7.059-.084.126.651.018.01.041-.132.048-.391.093.135.085.34.045-.173.085-.39.074.115.066.161.07-.09.086-.048.033.031.149.063.233.055.16-.01h.407l.307.008.185-.01 1.096.04.375-.08.166.053.448.066.593-.138.004.01.152.057.181.107.052-.053.07.048.197-.204.018.029.067-.003-.052-.013.074-.045.122-.074.037.075.137.118.063-.044-.044.09.07.005.048.114-.033-.151.093.05.13-.167-.112.235.115-.234.067.18-.052-.263.085.014.011-.26.052.55.048-.364.033-.27.015.012.034-.085.037.44.022-.058.074.603-.06-.712.086.246.033-.887.078.862.007-.243.03 2.21.011.798.067-3.421.01-.69.068 3.21.03-2.346.095 5.946-.074-7.686.112 2.79.03-4.344.062 7.43.015-1.857.063-6.041.044 6.11.03 4.16.048-9.985.011 2.129.008-1.913.051 7.033.052-5.84.011-.945.008-1.296.081 7.69.082-6.677-.067 9.467.108-3.958.007 2.417.074-8.767.019 2.024.088 8.237.026-4.177.03-6.047.056 9.102.026-4.428.092.26-.048-3.754.052 3.052.115-5.157-.056 11.668.06-10.044.051 8.372.06-6.728.122 7.687-.108-8.413.111 6.339.052-7.87-.033 8.448.092-1.185.052-5.963.07 1.174.056 7.48.037-9.223.015 2.346.008-1.855.033 6.647.067-3.504.037-2.363.059 3.622.004-.242.096-3.055-.06 6.956.067-4.464.03 1.606.074-2.681.052-1.311.04 2.745.004-.034.037 1.797.048-2.46.108-1.17-.063 2.215.074-1.76.037.793.081-.328.078 1.94.052-1.572.119-1.21.007.29.122 2.84-.107-2.98.148 1.707.056-1.845.077.36.115 2.913.056-1.949.107-1.178.033.147.045.952.055 2.001.052-1.898.111-1.165.026.119.1 2.767.015.287.034-1.332.048-1.8.089.133.01-.046.023.133.1 2.89.048-2.144.13-1.03.003.011.074 1.728.049 1.554.048-2.335.107-1.063.034.222.007.012.004.07.103 3.097.037-2.032.123-1.265.037.279.11 3.08.045-2.004.03-1.236.111.21.126 2.82.033-1.566.145-1.494.007.172.011-.144.008.433.103 2.386-.092-2.406.137 1.062.033-1.737.115.235.063 1.438.055 1.349.052-1.372.03-1.827.122.409.115 3.195.022-1.89.085.422.041-3.412.126 7.307.007-4.626.019-3.823.022 7.763.074-6.143.03 4.476.048-6.03.037 5.02.111-7.636-.026 14.494.034-10.97.014 10.332.026-12.343.074 5.972.019-5.274.055 6.89.041-3.628.108 12.047-.023-19.101.03 9.685.019-10.207.055 14.771.04-7.745.053 4.903.022-7.705.037 3.782.052-9.17.033 19.292.004 1.144.026-19.894.06 13.718.018-10.662.096 4.936.07 10.399.015-21.172.011 7.126.052-3.056-.03 18.183.078-8.13.008 3.692.018-13.166.078 6.579.015-3.562.074 12.741.003.713.012-16.394.003-5.854.034 23.085.063-7.366.003 5.974.037-15.363.067 5.327.104 10.577-.078-13.295.085 4.57.008-13.479.1 22.367.037-15.29.096 4.05.074 11.857.015-23.6.03 19.178.07 3.728-.056-16.31.085 9.512.1-7.604-.055 8.108.07-3.942.06 7.87.01-12.814.004-4.956.056 18.968.044-4.36.13-7.21-.1 9.223.107-6.935.07 6.364.012-10.412.022 4.453.052-3.27-.019 8.072.07-2.93.004 1.397.056-5.106.048 2.394.074 2.511-.037-3.656.07 1.394.008-1.426.06 2.627.044-1.508.044-1.485.06 1.77.029-.622.093 2.262.151-2.924.045 1.06.118 1.35-.088-1.362.1 1.168.133-1.654.015-.228.055.886.074.806.049-.556.14-.9.008.09.126 1.142.033-.263.052-.681.092.118.141.596.022-.182.123-.459.037.063.14.224-.133-.234.17.117.09-.162.055.053.096.09.052.12.078-.066.11-.004.012.014.07.043.011.031.07.037.049-.043.181-.116.004.01.07.06.052-.035.112-.11.018.058.056.022.026.053.13.024.007-.018.074.09.133.141.019-.014.14-.099.034-.054.04.125.037-.073.086.021-.049-.092.06.02.196-.202.015.038.107.093-.01-.134.014.076.104-.172-.037.19.044-.055.1.249-.085-.293.115.237.07-.13-.052.268.085-.08.004.032.085-.174.008-.068.055.435.015-.08.007.06.056-.313.04.187.112-.17-.096.215.1-.198.03.337.055-.657.015.13.092-.51-.048.76.074-.584.037 1.9.07-2.045.112-1.26-.037 1.611.048-.698.052 3.759-.041-3.871.089.328.01-1 .082 2.355.019-1.699.007.135.004-.082.033-1.332.048 3.98.023 1.67.059-5.496.015 2.07.044 1.597.078-4.016.081 6.063.052-4.647.008-1.18.04 3.87.06-2.871.126 5.366-.082-6.756.096 4.324.049-4.878.037 5.538.037-2.797.159 4.685-.085-6.655.089 5.492.052-6.618.059 4.892.089-3.528.044 2.532.04 4.103.038-7.76.018 1.637.004-1.767.04 5.294.064-2.468.04-1.608.052 2.7.037 3.182.041-6.075.015 1.508.007-1.508.037 3.99.063-2.332.041-.73.052 1.314.044 2.214.056-2.377.015 1.039.111-1.16-.093 1.445.104-1.265.033-.423.041.645.119.802.022-.055.063-.951.081.171.026-.097.07.272.034.248.052-.404.096-.171-.037.206.056-.185.159.357.033-.098.063-.112.048.092.049.1.074-.022.114-.013.004-.003.137-.05-.118.06.122-.054.04-.065.104.11.163-.041.004-.01.06.007.044.033.1.07.037-.05.133-.002.004.007.096.041.033-.035.263-.019.27.005.249.043.13-.017.148-.04.174-.04.292-.038.36.23.026-.054.077-.033.015.109.004.028.085-.147.06.108.07-.3.055.2.008.077.022-.264.06.02.118-.194-.078.237.081-.189.104.287.007-.136.082.162.048-.91.13 1.3.018-.954.097-.538-.037.893.044-.595.052 4.766.04-5.937.049 4.472.11-5.259.016 2.145.04 8.473.023-13.42.063 8.567.1-5.761.018.943.082 9.27-.056-10.464.07.6.008-6.195.052 14.98.048-7.213.07-2.539-.044 5.482.063-1.92.078 5.71-.038-8.82.056 3.904.007-8.262.056 12.429.048-5.225.067-3.07-.045 5.785.09-3.034.066 6.669-.052-10.066.056 6.91.01-10.91.053 13.474.048-6.306.066-2.601-.04 5.702.085-3.174.067 6.376.01-10.396.004-3.259.052 12.949.048-5.968.07-2.742-.055 5.726.07-1.938.097 5.879-.052-9.42.06 5.008.007-8.003.051 10.864.052-6.088.011 3.548.052-5.24.056 3.286.074-5.55-.015 11.402.048-7.467.019 5.682.052-6.122.04 3.296.023-3.49.081 3.632.008-.557.01 2.01.015 2.719.015-9.658.07 4.65.13-2.852-.118 4.035.122-3.591.078 6.59.018-6.799.019 1.626.007-2.717.052 4.713.052-3.444.148 6.01.007-.866.041-4.897.074 3.11.052-3.036.085.958.004-.01.007.148.034 2.483.081-2.218.041.678.037-1.182.019-.162.04.815.045-.503.059 1.366.004.07.066-.732.011.165.086-.872.055.205.111 1.294.048-.466.078-.727.063.173.108.612.085-.346.081-.286.06.115.063.157.033.033.063-.109.092-.141.041.07.234.045.003-.008.067-.025.052.032.189-.001.274-.028.226.024.14.033.156.008.219-.016.255-.042.167.003.615.07.122-.066-.108.081.112-.078.01-.01.108.01.13-.101.089.069-.067-.086.096.075.115.031.004-.043.04-.07.06.164.137-.061-.119.141.122-.077.108.135-.074-.264.078.176.063-.142-.019.166.07-.147.09.154-.008-.231.022.152.037-.275.06.4.014-.13.026.034.03-.422.018.184.019-.223.04.537.052-.454.03.442.007-.558.075.398.01-.267.03.442.074-.385.056.514.007-.67.052.518.04-.399.06.591.008-.449.03.579.073-.68.008.535.1-.427.014.085.052.277.06-.046.103-.418.019.026.004-.087.07.589.022-.169.011-.086.052.4.004.038.044-.582.004.044.085-.739.033.447.075 2.804.04-2.184.056-1.452.063.838.004-.156.059 2.154.026 1.183.044-2.834.126-1.959.004.106.078 5.55-.063-5.668.103.924.082 1.306.052-2.972.052 7.181.059-6.44.01-.94.06 3.774.037-2.64.015-.982.03 2.877.033 4.76.056-7.258.022-.324.037 3.11.01.641.053-3.686.003-.034.004.427.06 6.778.048-6.535.01-.831.06 4.237.037-3.238.018-.937.023 2.575.037 4.724.055-7.72.004.178.06 4.463.051-4.063.008-.866.051 7.826.012 1.02.025-4.601.03-4.538.06 5.853.018-.969.04-4.855.041 5.887.019 3.419.04-6.103.03-3.522.06 7.025.018-1.787.037-5.41.048 6.833.03 3.568.04-10.644.012 1.42.007-2.175.06 8.474.044-6.525.018-1.468.048 7.93.023 2.788.055-11.537.015 3.804.119-2.96-.07 9.118.073-8.883.108 11.766.007-10.074.004-5.515.085 14.37.019-4.095.007 1.59.03-9.32.066 6.148.078-9.965-.011 19.272.04-14.785.056 10.341-.037-11.906.093 2.64.03-.923.033 6.91.015-2.276.059 10.834.007-20.452.04 13.515.012-10.714.033 14.09.07-10.075.097 11.23-.081-12.747.092.983.004-.52.004 8.852.003 7.739.011-23.556.093 13.823.078-7.556-.06 9.405.1-5.565.06 13.955.01-23.335.023 1.985.004-1.284.06 16.907.018-6.322.007 3.187.06-9.92.044 6.918.015 3.302.01-.225.027 7.07.01-21.633.045 6.18.004-4.82.037 17.379.067-13.72.018-.402.096 14.631.008-18.466.103 9.941.008 4.367.037-11.316.067 8.178.048 10.47.007-20.572.004-1.608.06 15.151.018-1.13.003 4.126.063-13.642.037 5.074.004.034.082-10.041-.008 22.737.04-15.431.053 11.703-.037-15.303.092 3.172.004-1.57.078 10.807.007-.62.03 8.56.033-23.807.019 8.284.003-5.322.037 14.681.07-12.618.1 18.06.004-10.054.034-12.403.055 17.246.023-7.4.048-6.704.066 11.812.008 1.98.022 4.529.037-21.561.04 13.55.086-9.102-.067 10.86.097-7.41.066 12.778.011-17.446.023 1.538.003-2.945.06 13.048.04-6.17.026-4.033.045 6.705.048 7.438.037-16.874.015 7.885.01-6.125.034 10.751.07-9.791.063 14.403.056-12.461.011-2.828.06 9.44.029-3.953.004.047.007-1.145.022-2.026.052 9.173.052-6.841.011-3.025.063 6.152.033-2.705.034-.85.033 5.419.004.135.03-2.404.048-3.89.07 2.172.082 3.103-.063-4.233.096 1.487.037-1.99.048 2.667.033-1.213.063 2.651.045-2.384.03-1.35.051 1.949.022-.167.008-.089.033 1.14.022.78.045-1.782.033-1.373.082.827.007-.108.04 1.573.027.975.052-2.38.03-.66.047 1.378.03-.533.011-.336.052 1.676.015.378.055-1.425.115-.516-.052.71.06-.692.022.419.052.847.066-.562.086-.834-.063.895.114-.356.03.208.044-.285.038.125.014.03.026-.202.056-.496.055.492.019.09.052-.204.01.017.105-.235-.075.259.123-.09.04.157.052-.17.015.019h.104l-.048.061.055-.057.048.05-.014.013.022.032.007.033.078-.13h.007l.119-.044.004.022.003.021.052-.126.04.023h.112l-.033-.064.037.057.1-.19.063.075.103-.004-.074-.084.078.078.104-.054.01.038.016-.014.144.173.063-.134.048.058.115.114.111-.092-.085.142.104-.083.01-.014.12.156.077-.114-.04.172.08-.146.134.405.063-.273.052.193.037-.123.052.17.007-.048.008.144.078-.381.022.137.04.228.049-.286.096-.11-.022.395.033-.275.026.316.04-.423.056.298.048-.228.03.255.033-.066.086.18-.037-.272.063.11.003-.058.085.321.019-.209.081.287-.048-.33.078.108.048-.074-.04.156.055.006.111.27-.085-.282.093.147.163-.332.022.645.063-1.117.033-.368.026 1.235.037-.57.037 1.794.04-2.484.027-.812.048 1.326.026-.203.04 2.735.045-3.317.011.148.033-.73.045 1.16.067 3.602-.052-3.86.074.062.074-.983.03 1.157.003-.011.045-.103.007.754.019 3.793.051-5.353.034.194.007-.664.052 2.226.037-.091.019 4.393.051-6.676.034 1.67.007-1.485.096 2.129.019 5.159.052-7.71.037 1.57.092-1.174-.025 2.034.033-.915.018 5.78.056-7.422.037 2.055.096-1.957-.026 2.557.034-1.405.022 6.016.052-7.057.04 2.345.1-2.009-.025 2.062.033-.962.026 5.223.052-6.41.037 2.679.044-2.291.067 1.192.026 4.188.052-5.284.033 1.937.019.5.048-1.666.03-.495.025 1.329.026 2.457.056-3.643.033 1.585.004.066.052-.941.014-.495.067 1.458.007.105.052-1.063.034.495.03.4.025-.764.119-.266-.03.5.033-.496.078 1.293.082-.882.026.12.014-.208.056-.322.037.575.052.248.06-.202.044-.595.07.53.093.192-.045-.359.063.223.06-.438.055.338.011.004.022-.095.019-.041.044.289.008.004.033-.123.044-.134.082.075.011-.017.044.144.037.025.075-.046.092-.095.07.076.093-.068.404-.048.118-.07.097.08.344-.019.452-.07.14.004.253.01.14.032.004-.012.122-.054.004.003.133.015-.115-.045.123.033.296-.021.007.045.052.05-.033-.083.096.038.06-.085.007-.09.093.256.07-.15.048.154.004.023.048-.39.011-.13.052.492.022-.02.104.136-.07-.267.077.188.09-.596.029.413.055.974.037-1.583.004-.02.015.356.037.517.055-1.098.015.541.022.798.015 1.413.052-2.886.03.778.096-1.761-.055 2.842.081-2.274.04 4.574.056-5.01.023.98.014 1.004.03 1.444.06-4.27.007 1.12.01-.455.023 2.158.018 4.047.06-7.372.033 3.378.019 2.514.07-5.75.011 1.525.007-.26.015 2.2.008-.325.015 4.8.063-8.444.037 5.05.014 1.29.049-5.488.014.646.008-.926.055 8.151.045-6.552.007-.5.008-1.73.051 6.257.052-5.49.078 8.583-.06-9.027.097 2.23.022-2.453.041 6.332.06-6.086.08 9.302-.058-9.469.096 2.444.063 4.222.055-6.771.086 9.713-.06-9.872.097 3.158.063 4.15.055-7.07.085 9.326-.055-9.955.092 4.317.048-3.303.015 6.468.052-5.888.004-.09.007 1.459.078 5.981-.056-9.209.093 5.828.048-4.18.045 5.317.022-4.13.011.662.081 4.653-.055-7.628.093 4.734.01-2.758.082 4.554.019-3.294.014.282.008-.4.018-2.044.06 5.424.003-.046.015-.609.011.049.037-3.642.082 1.553.126 1.95-.09-3.735.093 3.448.041-2.592.078 1.27.004.11.055-1.5.004-.153.052 2.204.01.383.064-1.812.015.162.01.188.023.306.074-.85.004-.088.052 1.257.037.426.052-1.118.037-.119.022.362.03.188.04-.572.011-.199.052 1 .033.206.041-.67.07.166.06-.635.018-.025.023.16.055.862.067-.508.04-.003.03-.089.06-.372.033.444.055.514.052-.517.108-.252-.086.283.104-.25.063.588.089-.336.044-.19.07.078.086.32.044-.08.082-.44.044.03.09.716.04-.478.044-.502.056.616.019-.395.081.963.044-.803.123-1.176-.056 1.996.063-1.608.052 2.155.081-1.127.093-1.52-.07 2.173.103-1.18.03 1.748.037-2.463.04.718.004-.043.008.742.033 1.07.06-3.058.007.282.018-.581.045 3.103.015 2.473.051-5.923.038 1.775.074-2.26-.056 6.617.096-5.35.06 6.832.037-8.305.003-.595.056 8.405.037-6.528.115 9.506-.052-10.227.06 4.722.033-7.395.03 10.465.047-6.865.13 10.529-.115-13.052.119 9.215.01-10.146.056 12.654.048-8.603.126 11.387-.114-15.462.118 9.975.015-11.968.052 16.197.044-11.088.126 14.606-.06-18.166.064 16.969.01-22.675.105 11.504.122 12.231-.06-17.673.067 10.838.008-19.194.059 23.474.044-7.816.123 11.288-.06-18.482.063 17.463.011-26.201.104 18.03.004.058.06-9.342.047 11.036.011 7.885.015-28.105.074 9.188.03 10.22-.011-10.932.11 8.04.038-15.682-.019 26.964.07-7.605.005 1.184.033-12.811.044 2.223.004-.77.06 7.87.007-.559.014 9.359.019-25.59.063 12.218.011-5.871.026 12.733.07-6.184.049 12.432-.034-14.502.04 5.474.012-16.104.03 19.908.066-2.093.004.475.015-9.045.037 2.685.085-8.83-.022 19.598.037-9.613.011 4.702.044-12.057.049 3.878.085 9.116.015-9.056.007-2.998.026 11.923.067-4.243.107 1.137-.078-6.231.082 6.211.089-6.535-.037 7.379.092-5.456.022 4.693.115-.637.026-6.24.089 5.473.093 1.453-.026-4.217.037 2.839.03-5.082.08 4.886.023 1.026.037-2.986.037 1.57.04-3.729.071 3.693.037 1.652.03-3.183.03 1.284.025-2.734.078 3.317.022-.927.019 1.492.011.617.06-2.974.018.576.026-2.087.052 2.801.026-.53.04 2.59.063-2.682.052-1.637.037 1.991.03-.674.033 2.691.078-2.439.015-.657.089 1.087.007-.169.04 1.759.053-1.527.018.708.034-1.811.051.864.023-.344.022.843.033.566.07-.727.045-.733.067.705.055.714.056-.653.015.044.018-.282.048-.542.078.263.093.623.03-.543.062-.2-.022.44.048-.043.074.422.048-.187.008.03.037-.432.066-.11-.033.172.052-.016.078.577.052-.095.096-.249.018.22.075.58.048-.193.159-.85.004.006.014.037.06-.342.063-.107-.045.114.09.003.084.055-.033-.271.04.14.02-.288.047.522.034-.095.015.227.07-.441.011.042.056-.206.051.242.067.243.04-.213.064-.34.052.273.007-.05.063.418.063.285.044-.303.104-.643.03.317.07.2.048-.103.015-.119.067-.408.063.224.04.126.056.304.052-.326.093-.46.037.27.077.462.048-.162.097-.603.055.41.07.378.045-.324.082-.337.052.222.07.503.063-.214.048-.367.074.29.078.574.063-.34.055-.34.052.405.104.41.03-.264.081-.641.037.402.078.82.04-.558.071-.84.063.601.052.952.063-.803.07-1.343.045 1.106.051 1.452.067-1.076.06-1.94.051 1.775.056 1.727.055-1.607.026-.813.034-1.463.059 2.594.04 1.773.06-2.203.022-.503.045-1.895.048 2.735.04 2.384.063-2.935.067-2.371.037 2.28.045 3.545.063-3.565.066-2.505.037 2.54.045 3.751.063-3.965.07-2.116.033 2.072.037 4.312.067-4.485.067-1.718.037 2.062.037 4.408.066-4.686.049-1.799.055 2.122.022 2.776.015 1.594.07-5.239.023-1.196.07 1.523.04 5.093.068-4.518.03-2.222.077 2.435.033 4.004.067-4.249.026-2.305.081 2.75.03 3.473.074-3.872.048-2.005.056 2.613.03 3.29.048-3.44.026.148.066-2.775.04 2.703.034 3.945.048-4.94.03 1.14.052-2.824.052 2.967.022 3.223.052-4.705.033 1.642.07-2.791.041 2.291.026 3.502.052-4.435.033 1.046.041-2.678.067 2.14.03 3.703.062-4.191.019.6.044-2.085.067 1.603.04 4.312.053-4.728.018.496.033.287-.007-1.995.052 1.738.007-1.83.063 5.982.037-4.359.008 1.862.055-3.37.037 1.46.041-1.725.056 6.371.085-6 .044.528.09 5.902-.056-6.81.085 3.74.115-3.615.07 6.732.048-4.157.096-2.796.019.66.052 6.267.063-4.999.081-1.589-.055 2.177.077-.527.049 4.037.033-5.025.03 1.099.077-1.897.056 4.675.115-4.626-.1 5.72.103-4.888.108 4.113-.07-5.214.085 3.71.11-3.501-.1 4.754.108-3.396.008-1.404.07 4.53.019-1.932.007 2.2.096-4.761.111 5.016-.092-5.126.115 4.187.092-4.09-.074 4.163.119-1.733.048 2.294.055-2.957.008 1.319.052-3.303.051 3.724.012-1.217.033 2.167.07-3.432.137 3.225-.096-4.159.126 3.226.085-3.175-.074 4.123.115-2.74.092 2.659.026-1.356.049-2.472.062 2.156.075 1.643.03-2.018.04-1.747.055 2.19.012-.204.07 1.955.033-2.704.011.59.026-2.095.019.753.004-.498.074 3.799.01-.957.03 1.518.052-4.475.011 1.712.008-2.015.092 4.27.004-.457.107-3.716-.07 4.775.093-4.167.092 4.019.03-2.326.011.69.048-2.8.04 1.42.005-.376.07 3.187.015-.958.004.311.07-3.335.115 3.581.033-1.74.004.072.03-1.319.018-.401.067 2.38.026.724.07-2.202.022-.82.048 1.58.008-.138.048 1.524.063-1.461.033-1.176.067 1.792.033.803.06-1.429.025-1.143.074 1.744.03.697.063-1.501.026-1.003.07 1.747.03.687.063-1.393.03-1.115.066 1.731.03.907.066-1.598.03-1.164.067 2.004.03.87.066-1.75.026-1.049.067 1.843.03.959.07-1.696.037-.928.055 1.652.03.967.067-1.514.044-1.164.056 1.721.037.89.051-1.2.056-1.312.048 1.257.06 1.098.048-1.232.044-1.042.06 1.2.051 1.005.052-1.122.044-.958.06.97.052.978.059-.974.052-.782.055.856.052.723.056-.727.055-.661.056.545.059.61.056-.499.055-.475.056.398.055.34.063-.29.048-.195.06.212.063.201.063-.141.048-.083.055.11.067.106.044-.12.067-.106.044.097.026.054.067-.146.06-.113.059.104.03.032.055-.116.052-.086.051.106.056.113.067-.09.026-.026.055.098.07.099.06-.064.033-.03.056.091.048.042.055-.076.126.016.008.014.066-.087.012.01.118-.034.1-.055.026.028.007.034.086-.094.01.022.041-.04.052.113.011-.015.008-.008.107.015.063-.07.04.098.008-.056.03.142.081-.167.004-.046.082.168.014-.042.052.108.037-.241.015.05.048-.102.041.299.015-.104.078.124-.008-.379.037.252.09-.23.014.342.067.168-.056-.607.089.236.026-.392.067.849.007-.081.022.233.041-.685.007.055.037-.839.052 1.23.034 1.06.063-1.904.007.181.007-.353.026-.648.067 2.293.022 1.059.06-2.847.014.723.056-1.89.037 2.712.015-.66.033 2.57.033-3.594.041 1.466.052-3.07.04 3.93.016-.111.025 2.011.034-4.682.04 1.34.034-2.076.06 3.804.01-1.265.008 2.144.055-4.214.04.41.034-1.541.011 3.803.034-.553.044 2.846.011-4.053.019.692.078-3.26.01 4.898.02-1.41.055 3.43.033-5.546.019 2.19.055-3.827.037 6.649.015-3.535.033 4.872.06-7.088.014 2.097.012-2.911.059 6.216.018-1.087.026 1.663.06-4.813.014.957.126 2.737-.115-4.87.119 4.17.07-3.338-.055 3.526.1-2.71.055 3.088.07-2.424.049-1.016.037 1.405.011-.215.037 1.986.07-2.15.045-.846.052 1.332.063 1.547-.052-1.7.092.131.049-1.174.066.858.063 1.48.048-1.143.03-.794.085.196.082 1.474.066-1.08.093-.675-.078.708.108-.276.066 1.104.052-.575.011.194.034-.637.051-.283.037.49.008-.115.063.761.055-.434.074-.48.045.271.04.274.052-.287.015.035.011-.062.067.293.022-.165.019.153.04-.42.041.2.004-.14.074.312.026-.01.015.075.055-.362.015.006.015-.043.03.324.018-.174.04.245-.029-.247.1.067.108.08-.048-.275.055.243.122-.174-.107.345.111-.26.011-.046.1.168.078-.244-.067.307.108-.283.1.22.014-.082.093-.116-.052.207.07-.14.09.078.007-.17.018.12.004-.027.063.217.03-.09.055-.154.011.034.026-.127.056.271.026-.054.018.118.086-.226.096.191-.04-.362.062.31.1-.176-.067.25.082-.243.1.297-.03-.44.052.413.085-.299-.063.356.093-.326.078.337-.052-.396.089.369.007-.393.008.42.096-.06.004-.002.018-.338.074.541.019-.384.003.234.008-.377.096.208.015-.24.063.471.026-.272.018.273.03-.382.063.144.044.212-.03-.333.097.175.089-.24-.056.356.078-.185.026.116.052-.26.03.16.03-.154.051.281.03-.247.107.176-.096-.242.1.201.1-.17-.09.183.1-.083.016-.062.107.159.107.113-.051-.317.055.306.056-.143.007.193.045-.033.003.058.03-.277.063.04.004-.011.044.173.096.118-.04-.267.055.159.008.02.003-.1.037-.215.052.32.019-.133.003.169.104-.31.048-.113.03.364.018-.195.008.137.074-.67.018.349.004-.08.06.969.01-.152.015.206.052-1.023.056-1.056.048 1.08.07 1.812.041-1.603.081-1.328.052.614.052 3.136.056-3.064.137-1.768-.052 2.445.055-2.44.056 5.75.06-5.124.007-.718.052 3.834.044-2.203.04-2.589.03 5.847.026 3.47.06-9.973.055 7.375.06-6.902.007-1.28.066 9.13.015 2.314.034-6.67.03-4.336.062 9.183.015-3.876.122 4.172-.055-10.56.059 10.31.056-10.358-.041 12.157.11-5.72.008 3.562.082-9.476.015 2.47.07 10.014.033-10.848.026-2.148.06 11.603.014-5.437.119 2.959-.052-9.577.056 9.358.092-8.87-.063 11.978.089-5.313.033 5.423.056-12.088.015 3.996.01-3.8.086 10.31.004.544.04-8.974.015 1.956.026-3.14.041 10.05.037-4.14.04-5.717.06 6.607.015-2.487.007 2.595.056-3.306.044.007.015 2 .082-2.524.207 3.585.007-.966.074-2.205-.055 2.41.104-2.201.148 2.966-.104-3.574.13 3.047.118-2.499.004.16.118 2.368-.1-2.831.112 1.824.003-.004.011 1.021.086-2.73.059 1.118.037-1.215.018.47.004-.051.026 1.054.033 1.415.078-1.295.008.109.025-.58.108-1.278-.056 1.466.067-.471.07 2.61-.059-3.02.107 1.907.078-2.42-.059 2.876.093-.812.059-3.04-.011 3.122.059-.077.044 3.41.012-5.304.018 1.562.052-3.355.033 5.164.019-.425.004 1.63.081-7.164.015 2.61.004-.787.055 6.495.019-1.64.003 3.032.06-11.315.04 4.916.097-4.37-.056 8.646.078-7.612.085 10.979.015-12.797.015 3.227.03-3.86.059 11.328.014-3.554.008 2.666.037-9.474.066 7.992.056 6.102-.011-14.521.015 8.98.007-12.322.06 16.95.044-5.361.037-9.573-.015 9.77.085-2.86.07 10.323.012-20.7.026 7.64.033 13.496-.011-18.018.081 8.338.008-9.73.081 14.053.019-2.928.022 4.497.004-1.935.03-14.407.055 20.095.022-5.863.004.691.052-10.923.003-2.951.082 13.814.015-2.71.026 4.194.003-2.914.008-11.426.077 17.59.023-7.337.007 2.128.052-12.252.033 4.568.015 3.063.07 6.343.015-12.792.015 5.791.052-6.64.011 15.726.045-6.455.037-9.356.055 9.582.019-1.829.044 5.76.015-12.014.055 9.6.012-10.204.01 13.638.093-7.548.056-4.057.022 7.045.03 3.69.015-11.056.059 4.557.1-5.66-.082 11.743.093-6.644.055-3.61.026 8.714.004.069.004-1.316.078-9.075-.056 13.075.081-7.476.008 5.986.081-11.418.019 3.262.104 9.391-.056-10.954.063 3.865.048-5.73.033 10.097.023-.31.007-2.136.052-6.83-.037 7.809.1-4.25.06 7.15.058-10.199.056 8.577.056-8.04.003-.142.011 2.88.012-.381.1 5.996-.056-6.297.07 2.676.1 1.917-.059-5.692.067 4.703.052-4.481.07 1.279.056 4.349.055-4.01.007-.298.056 2.634.044-2.157.008.057.004-.1.007-.285.037 1.47.06-.942.033 2.186.081-1.525.015.572.052-.813.104-.443-.041.679.055-.626.09 1.407.066-.542.14-.767.027.16.1 1.18.077-.689.082-.518.074.199.007-.018.03.236.055.704.067-.422.119-.689.077.278.075 1.02.059-.809.007-.01.026.255.004.012.026-.262.04-.781.097.438.004-.01.014.182.048.998.056-1.123.022.425.015.187.06-1.066.014-.284.04.794.038-.07.022-.07.022.588.052.697.041-1.27.011.27.015.343.067-1.02.014-.241.074.78.012-.195.007-.13.033 1.835.026-.612.015.522.037-1.943.033.771.123-1.408-.082 1.972.096-1.407.063 3.306.06-2.537.018-1.478.067 2.615.037-2.4.018-.961.052 2.664.015-.137.022 2.285.015 1.682.03-7.362.044 1.941.004-.151.026 3.335.004.234.025-3.207.041.425.019-1.787.074 4.152.004-.007.003-.12.019 2.898.01.792.005-1.448.025-10.799.034 11.386.06-7.808.007-.42.018 5.781.007 1.46.037-7.64.067 6.614.04 2.511.008-3.993.023-8.64.033 14.296.06-9.54.032 7.483.037-9.94.045 2.962.067 8.924.01-10.949.016-5.276.022 16.267.007-.578.004 1.468.055-10.401.041 6.17.022-8.728.09 8.45.018 3.686.037-14.6.007-2.954.034 20.281.055-9.644.089 4.837-.03-9.703.045 5.676.11-11.376-.062 16.191.07-8.784.015 15.097.034-19.326.062 6.65.03-1.919.026 6.094.004.427.026-9.328.003-.954.03 11.767.037-.97.052 7.577-.022-21.963.081 15.378.004.685.022-8.718.056 3.576.04-4.729.034 6.638.026-.764.066 10.619-.022-23.05.045 4.649.003-2.58.037 13.702.06-3.393.059-4.692.052 3.58.074 10.884-.023-21.367.041 7.886.008-5.119.037 11.24.059-1.005.067-6.555.051 5.025.07 9.324-.025-21.274.048 4.65.004-1.026.033 10.518.048-3.251.015 2.76.063-6.547.03 3.723.066-9.718-.022 16.52.037-3.223.011 6.551.026-16.7.056 4.818.018-2.883.022 7.242.07-5.886.06 9.274.026-13.22.007-1.063.008 6.134.018 10.582.026-14.687.063 2.913.011-1.825.023 7.848.07-5.103.056 8.026.025-12.574.008.435.004-1.094.026 14.779.051-5.901.019 1.31.03-7.619.03 3.088.003-1.722.026 6.436.074-2.86.078 6.519-.026-13.386.048 3.586.078-1.504-.03 7.797.052-2.119.011-5.032.026 6.886.074-3.004.03 6.23.014-11.025.004.016.008-2.546.022 13.728.063-5.03.003-.011.008 3.03.026-9.025.066 5.686.1 5.032.015-10.296.011-2.782.023 12.418.051-7.437.023 6.726.063-9.006.026 6.754.01-5.563.093 9.336.026-12.897.093 8.56.003 1.947.063-8.033.034 2.893.037-1.503.052 6.408.01 2.255.02-8.72.003-1.723.048 7.798.048-1.586.037.837.026-5.503.034 2.81.04-1.855.056 5.303.007.842.023-6.204.062 3.26.012-3.458.059 3.736.048-3.115.115 4.41.007-1.544.09-2.727-.045 3.751.07-1.598.004.088.007-2.176.034.908.022-.953.078 1.665.01-1.14.093 3.257.026-2.553.022-.88-.01 1.92.1-1.627.144 2.36-.13-2.672.137 1.921.096-1.94-.066 3.231.089-2.72.03.731.047-1.068.037.815.082 1.546-.052-2.05.067 1.718.022.937.067-3.075.01 1.019.086-1.046-.044 1.08.077-.703.13 2.475-.078-2.542.1 1.67.045-1.778.077.094.015-.197.04.517.127 2.467-.074-2.752.078 2.12.081-2.103-.067 2.452.104-2.067.04-.548.064.851.007-.165.026-.477.048 1.875.022.64.07-2.57.008.751.09-.838.029.613.14 2.186-.07-2.815.093 2.029.048-1.845.07.167.008-.363.07 1.01.033-.89.09 2.711-.075-2.812.115 1.178.107-1.166.008.288.063.752-.048-.974.092.214.008-.213.052 2.298.007-.2.011.418.033-1.382.008.166.11-1.336.023.08.156 1.986.148-1.817-.13 1.978.2-1.536.004.016.03-.288.01.051.008-.193.067 1.199.03.599.062-1.135.048-.784.063.606.019.063.044-.313.019-.159.052.602.055.832.045-.822.063-.966.055.596.034.188.059-.292.011.031.007-.06.052.673.037.503.052-.635.011-.147.045-.672.066.627.041.174.06-.212.029-.172.048.45.04.393.056-.527.063-.525.056.371.052.348.048-.374.044-.461.056.543.056.478.051-.46.06-.586.063.463.066.384.048-.269.078-.573.045.402.077.555.052-.256.074-.409.067.232.107.211.041-.083.1-.248.052.08.1.067.019-.05.037-.068.081.043.108.122.025-.045.112-.026-.041.06.044-.041.123.115h.003l.011.022.034-.168.007-.051.067.232.033-.158.06.148-.02-.216.06.01.107-.448.019.187.04.304.038-.625.033.328.008.117.096.242-.026-.485.04.37.034-1.063.063 1.25.033 2.007.056-3.087.033 2.239.13-2.77.004.228.055 3.64.037-4.692.026 2.766.011-1.18.06 3.68.08.745-.058-7.132.07 4.895.096-3.854-.026 5.18.045-4.515.037 4.654.026-5.444.055 2.988.093-6.18-.019 10.334.037-6.127.037 4.364.026-7.49.049 5.6.063 1.246-.03-6.001.06 3.226.018-1.853.037 3.553.048-.195.052-8.202-.022 12.415.044-3.05.085 2.62-.026-9.51.045 4.64.04-3.1.023 7.066.055-5.202.108 6.416-.06-7.764.074 4.855.012-10.499.025 14.496.07-4.816.012 3.784.055-7.589.041 2.108.019-2.117.04 3.284.049-.802.048 5.365-.026-6.114.033 2.474.011-10.802.026 16.705.07-6.176.012 3.21.055-6.999.037 2.298.023-2.453.025 2.96.06-.554.052 5.335-.026-5.939.033 1.425.011-9.386.026 17.584.07-7.122.012 2.479.025-6.603.067 2.061.019-2.328.018 3.374.07-.745.052 5.034.011-6.792.008-5.598.03 15.448.07-6.435.011 2.23.03-6.77.063 2.178.018-2.243.019 4.068.066-.986.06 4.618-.026-5.357.033 1.102.011-6.96.03 13.472.066-6.697.015 3.782.026-7.16.067 3.149.018-2.095.019 3.024.07-1.017.06 4.586-.026-5.182.037 1.445.01-6.802.03 11.312.07-5.253.012 2.785.03-5.155.066 1.903.015-2.398.033 3.69.056-1.041.06 3.762.01-6.27.008-2.76.03 11.256.066-5.977.015 3.316.03-5.885.062 3.083.023-3.108.033 3.986.055-1.936.097 4.917-.026-7.99.044 3.88.011-2.693.052 5.017.048-2.716.011.716.049-1.619.051 1.066.023 2.465.022-3.412.018-2.444.023 6.774.07-4.507.015 3.467.026-3.807.074 2.252.026-2.284.03 2.519.059-1.627.026 1.489.033-1.528.055.788.07-1.524.03 2.47.004.179.052-2.672.004-.137.022 2.973.089.248-.045-2.57.052 2 .023-2.538.096.928.122 2.212-.03-3.483.037 2.868.112-2.092-.034 2.763.041-2.423.048 1.453.093-.405.003.008.008-.264.107-.575-.03.696.038-.593.033.437.089-.067.018.036.011-.115.104-.152-.052.323.06-.21.022.313.104-.173.103-.04-.026.143.034-.111.022.086.03-.142.059.107.059.03.063-.111.067-.026-.045.08.085-.033h.786l.126-.002.003.004.893.012.426-.058.67.07 3.67-.043h0" clip-path="url(#pd82eb95bbc)" style="fill:none;stroke:#2ca02c;stroke-width:.5;stroke-linecap:square"/><path id="patch_3" d="M38.05 142.76V8.64" style="fill:none;stroke:#000;stroke-width:.8;stroke-linejoin:miter;stroke-linecap:square"/><path id="patch_4" d="M221.76 142.76V8.64" style="fill:none;stroke:#000;stroke-width:.8;stroke-linejoin:miter;stroke-linecap:square"/><path id="patch_5" d="M38.05 142.76h183.71" style="fill:none;stroke:#000;stroke-width:.8;stroke-linejoin:miter;stroke-linecap:square"/><path id="patch_6" d="M38.05 8.64h183.71" style="fill:none;stroke:#000;stroke-width:.8;stroke-linejoin:miter;stroke-linecap:square"/><g id="legend_1"><path id="line2d_15" d="M164.938 15.919h16" style="fill:none;stroke:#ff7f0e;stroke-linecap:square"/><g id="text_14" transform="matrix(.08 0 0 -.08 187.338 18.719)"><defs><path id="DejaVuSans-46" d="M628 4666h2681v-532H1259V2759h1850v-531H1259V0H628z" transform="scale(.01563)"/><path id="DejaVuSans-70" d="M1159 525v-1856H581v4831h578v-531q182 312 458 463 277 152 661 152 638 0 1036-506 399-506 399-1331T3314 415Q2916-91 2278-91q-384 0-661 152-276 152-458 464m1957 1222q0 634-261 995t-717 361q-457 0-718-361t-261-995 261-995 718-361q456 0 717 361t261 995" transform="scale(.01563)"/><path id="DejaVuSans-64" d="M2906 2969v1894h575V0h-575v525q-181-312-458-464-276-152-664-152-634 0-1033 506-398 507-398 1332t398 1331q399 506 1033 506 388 0 664-152 277-151 458-463M947 1747q0-634 261-995t717-361 718 361q263 361 263 995t-263 995q-262 361-718 361t-717-361-261-995" transform="scale(.01563)"/></defs><use xlink:href="#DejaVuSans-46"/><use xlink:href="#DejaVuSans-30" x="57.52"/><use xlink:href="#DejaVuSans-70" x="152.93"/><use xlink:href="#DejaVuSans-72" x="216.406"/><use xlink:href="#DejaVuSans-65" x="255.27"/><use xlink:href="#DejaVuSans-64" x="316.793"/></g><path id="line2d_16" d="M164.938 27.661h16" style="fill:none;stroke:#1f77b4;stroke-linecap:square"/><g id="text_15" transform="matrix(.08 0 0 -.08 187.338 30.461)"><defs><path id="DejaVuSans-6f" d="M1959 3097q-462 0-731-361t-269-989 267-989q268-361 733-361 460 0 728 362 269 363 269 988 0 622-269 986-268 364-728 364m0 487q750 0 1178-488 429-487 429-1349 0-859-429-1349Q2709-91 1959-91q-753 0-1180 489-426 490-426 1349 0 862 426 1349 427 488 1180 488" transform="scale(.01563)"/><path id="DejaVuSans-67" d="M2906 1791q0 625-258 968-257 344-723 344-462 0-720-344-258-343-258-968 0-622 258-966t720-344q466 0 723 344 258 344 258 966m575-1357q0-893-397-1329-396-436-1215-436-303 0-572 45t-522 139v559q253-137 500-202 247-66 503-66 566 0 847 295t281 892v285q-178-310-456-463T1784 0Q1141 0 747 490 353 981 353 1791q0 812 394 1302 394 491 1037 491 388 0 666-153t456-462v531h575z" transform="scale(.01563)"/></defs><use xlink:href="#DejaVuSans-46"/><use xlink:href="#DejaVuSans-30" x="57.52"/><use xlink:href="#DejaVuSans-6f" x="152.93"/><use xlink:href="#DejaVuSans-72" x="214.111"/><use xlink:href="#DejaVuSans-69" x="255.225"/><use xlink:href="#DejaVuSans-67" x="283.008"/></g></g></g></g><defs><clipPath id="pd82eb95bbc"><path d="M38.05 8.64h183.71v134.12H38.05z"/></clipPath></defs></svg>