<svg xmlns="http://www.w3.org/2000/svg" xmlns:xlink="http://www.w3.org/1999/xlink" width="307.2" height="230.4" viewBox="0 0 230.4 172.8"><defs><style>*{stroke-linejoin:round;stroke-linecap:butt}</style></defs><g id="figure_1"><path id="patch_1" d="M0 172.8h230.4V0H0z" style="fill:#fff"/><g id="axes_1"><path id="patch_2" d="M38.05 142.76h181.145V8.64H38.05z" style="fill:#fff"/><g id="matplotlib.axis_1"><g id="xtick_1"><g id="line2d_1"><defs><path id="m5ab5963325" d="M0 0v3.5" style="stroke:#000;stroke-width:.8"/></defs><use xlink:href="#m5ab5963325" x="65.029" y="142.76" style="stroke:#000;stroke-width:.8"/></g><g id="text_1" transform="matrix(.08 0 0 -.08 62.484 155.839)"><defs><path id="DejaVuSans-31" d="M794 531h1031v3560L703 3866v575l1116 225h631V531h1031V0H794z" transform="scale(.01563)"/></defs><use xlink:href="#DejaVuSans-31"/></g></g><g id="xtick_2"><use xlink:href="#m5ab5963325" id="line2d_2" x="116.418" y="142.76" style="stroke:#000;stroke-width:.8"/><g id="text_2" transform="matrix(.08 0 0 -.08 113.873 155.839)"><defs><path id="DejaVuSans-32" d="M1228 531h2203V0H469v531q359 372 979 998 621 627 780 809 303 340 423 576 121 236 121 464 0 372-261 606-261 235-680 235-297 0-627-103-329-103-704-313v638q381 153 712 231 332 78 607 78 725 0 1156-363 431-362 431-968 0-288-108-546-107-257-392-607-78-91-497-524-418-433-1181-1211" transform="scale(.01563)"/></defs><use xlink:href="#DejaVuSans-32"/></g></g><g id="xtick_3"><use xlink:href="#m5ab5963325" id="line2d_3" x="167.806" y="142.76" style="stroke:#000;stroke-width:.8"/><g id="text_3" transform="matrix(.08 0 0 -.08 165.261 155.839)"><defs><path id="DejaVuSans-33" d="M2597 2516q453-97 707-404 255-306 255-756 0-690-475-1069Q2609-91 1734-91q-293 0-604 58T488 141v609q262-153 574-231 313-78 654-78 593 0 904 234t311 681q0 413-289 645-289 233-804 233h-544v519h569q465 0 712 186t247 536q0 359-255 551-254 193-729 193-260 0-557-57-297-56-653-174v562q360 100 674 150t592 50q719 0 1137-327 419-326 419-882 0-388-222-655t-631-370" transform="scale(.01563)"/></defs><use xlink:href="#DejaVuSans-33"/></g></g><g id="xtick_4"><use xlink:href="#m5ab5963325" id="line2d_4" x="219.195" y="142.76" style="stroke:#000;stroke-width:.8"/><g id="text_4" transform="matrix(.08 0 0 -.08 216.65 155.839)"><defs><path id="DejaVuSans-34" d="M2419 4116 825 1625h1594zm-166 550h794V1625h666v-525h-666V0h-628v1100H313v609z" transform="scale(.01563)"/></defs><use xlink:href="#DejaVuSans-34"/></g></g><g id="text_5" transform="matrix(.08 0 0 -.08 113.11 163.581)"><defs><path id="DejaVuSans-74" d="M1172 4494v-994h1184v-447H1172V1153q0-428 117-550t477-122h590V0h-590q-666 0-919 248-253 249-253 905v1900H172v447h422v994z" transform="scale(.01563)"/><path id="DejaVuSans-69" d="M603 3500h575V0H603zm0 1363h575v-729H603z" transform="scale(.01563)"/><path id="DejaVuSans-6d" d="M3328 2828q216 388 516 572t706 184q547 0 844-383 297-382 297-1088V0h-578v2094q0 503-179 746-178 244-543 244-447 0-707-297-259-296-259-809V0h-578v2094q0 506-178 748t-550 242q-441 0-701-298-259-298-259-808V0H581v3500h578v-544q197 322 472 475t653 153q382 0 649-194 267-193 395-562" transform="scale(.01563)"/><path id="DejaVuSans-65" d="M3597 1894v-281H953q38-594 358-905t892-311q331 0 642 81t618 244V178Q3153 47 2828-22t-659-69q-838 0-1327 487-489 488-489 1320 0 859 464 1363 464 505 1252 505 706 0 1117-455 411-454 411-1235m-575 169q-6 471-264 752-258 282-683 282-481 0-770-272t-333-766z" transform="scale(.01563)"/><path id="DejaVuSans-28" d="M1984 4856q-418-718-622-1422-203-703-203-1425 0-721 205-1429t620-1424h-500Q1016-109 783 600T550 2009q0 697 231 1403 232 707 703 1444z" transform="scale(.01563)"/><path id="DejaVuSans-73" d="M2834 3397v-544q-243 125-506 187-262 63-544 63-428 0-642-131t-214-394q0-200 153-314t616-217l197-44q612-131 870-370t258-667q0-488-386-773Q2250-91 1575-91q-281 0-586 55T347 128v594q319-166 628-249 309-82 613-82 406 0 624 139 219 139 219 392 0 234-158 359-157 125-692 241l-200 47q-534 112-772 345-237 233-237 639 0 494 350 762 350 269 994 269 318 0 599-47 282-46 519-140" transform="scale(.01563)"/><path id="DejaVuSans-29" d="M513 4856h500q468-737 701-1444 233-706 233-1403 0-700-233-1409T1013-844H513q415 716 620 1424t205 1429q0 722-205 1425-205 704-620 1422" transform="scale(.01563)"/></defs><use xlink:href="#DejaVuSans-74"/><use xlink:href="#DejaVuSans-69" x="39.209"/><use xlink:href="#DejaVuSans-6d" x="66.992"/><use xlink:href="#DejaVuSans-65" x="164.404"/><use xlink:href="#DejaVuSans-28" x="257.715"/><use xlink:href="#DejaVuSans-73" x="296.729"/><use xlink:href="#DejaVuSans-29" x="348.828"/></g></g><g id="matplotlib.axis_2"><g id="ytick_1"><g id="line2d_5"><defs><path id="mf85d140660" d="M0 0h-3.5" style="stroke:#000;stroke-width:.8"/></defs><use xlink:href="#mf85d140660" x="38.05" y="137.731" style="stroke:#000;stroke-width:.8"/></g><g id="text_6" transform="matrix(.08 0 0 -.08 25.96 140.77)"><defs><path id="DejaVuSans-30" d="M2034 4250q-487 0-733-480-245-479-245-1442 0-959 245-1439 246-480 733-480 491 0 736 480 246 480 246 1439 0 963-246 1442-245 480-736 480m0 500q785 0 1199-621 414-620 414-1801 0-1178-414-1799Q2819-91 2034-91q-784 0-1198 620-414 621-414 1799 0 1181 414 1801 414 621 1198 621" transform="scale(.01563)"/></defs><use xlink:href="#DejaVuSans-30"/></g></g><g id="ytick_2"><use xlink:href="#mf85d140660" id="line2d_6" x="38.05" y="120.966" style="stroke:#000;stroke-width:.8"/><g id="text_7" transform="matrix(.08 0 0 -.08 20.87 124.005)"><defs><path id="DejaVuSans-35" d="M691 4666h2478v-532H1269V2991q137 47 274 70 138 23 276 23 781 0 1237-428 457-428 457-1159 0-753-469-1171Q2575-91 1722-91q-294 0-599 50Q819 9 494 109v635q281-153 581-228t634-75q541 0 856 284 316 284 316 772 0 487-316 771-315 285-856 285-253 0-505-56-251-56-513-175z" transform="scale(.01563)"/></defs><use xlink:href="#DejaVuSans-35"/><use xlink:href="#DejaVuSans-30" x="63.623"/></g></g><g id="ytick_3"><use xlink:href="#mf85d140660" id="line2d_7" x="38.05" y="104.201" style="stroke:#000;stroke-width:.8"/><g id="text_8" transform="matrix(.08 0 0 -.08 15.78 107.24)"><use xlink:href="#DejaVuSans-31"/><use xlink:href="#DejaVuSans-30" x="63.623"/><use xlink:href="#DejaVuSans-30" x="127.246"/></g></g><g id="ytick_4"><use xlink:href="#mf85d140660" id="line2d_8" x="38.05" y="87.436" style="stroke:#000;stroke-width:.8"/><g id="text_9" transform="matrix(.08 0 0 -.08 15.78 90.475)"><use xlink:href="#DejaVuSans-31"/><use xlink:href="#DejaVuSans-35" x="63.623"/><use xlink:href="#DejaVuSans-30" x="127.246"/></g></g><g id="ytick_5"><use xlink:href="#mf85d140660" id="line2d_9" x="38.05" y="70.671" style="stroke:#000;stroke-width:.8"/><g id="text_10" transform="matrix(.08 0 0 -.08 15.78 73.71)"><use xlink:href="#DejaVuSans-32"/><use xlink:href="#DejaVuSans-30" x="63.623"/><use xlink:href="#DejaVuSans-30" x="127.246"/></g></g><g id="ytick_6"><use xlink:href="#mf85d140660" id="line2d_10" x="38.05" y="53.906" style="stroke:#000;stroke-width:.8"/><g id="text_11" transform="matrix(.08 0 0 -.08 15.78 56.945)"><use xlink:href="#DejaVuSans-32"/><use xlink:href="#DejaVuSans-35" x="63.623"/><use xlink:href="#DejaVuSans-30" x="127.246"/></g></g><g id="ytick_7"><use xlink:href="#mf85d140660" id="line2d_11" x="38.05" y="37.141" style="stroke:#000;stroke-width:.8"/><g id="text_12" transform="matrix(.08 0 0 -.08 15.78 40.18)"><use xlink:href="#DejaVuSans-33"/><use xlink:href="#DejaVuSans-30" x="63.623"/><use xlink:href="#DejaVuSans-30" x="127.246"/></g></g><g id="ytick_8"><use xlink:href="#mf85d140660" id="line2d_12" x="38.05" y="20.375" style="stroke:#000;stroke-width:.8"/><g id="text_13" transform="matrix(.08 0 0 -.08 15.78 23.415)"><use xlink:href="#DejaVuSans-33"/><use xlink:href="#DejaVuSans-35" x="63.623"/><use xlink:href="#DejaVuSans-30" x="127.246"/></g></g><g id="text_14" transform="matrix(0 -.08 -.08 0 14.116 105.261)"><defs><path id="DejaVuSans-66" d="M2375 4863v-479h-550q-309 0-430-125-120-125-120-450v-309h947v-447h-947V0H697v3053H147v447h550v244q0 584 272 851 272 268 862 268z" transform="scale(.01563)"/><path id="DejaVuSans-72" d="M2631 2963q-97 56-211 82-114 27-251 27-488 0-749-317t-261-911V0H581v3500h578v-544q182 319 472 473 291 155 707 155 59 0 131-8 72-7 159-23z" transform="scale(.01563)"/><path id="DejaVuSans-71" d="M947 1747q0-634 261-995t717-361 718 361q263 361 263 995t-263 995q-262 361-718 361t-717-361-261-995M2906 525q-181-312-458-464-276-152-664-152-634 0-1033 506-398 507-398 1332t398 1331q399 506 1033 506 388 0 664-152 277-151 458-463v531h575v-4831h-575z" transform="scale(.01563)"/><path id="DejaVuSans-75" d="M544 1381v2119h575V1403q0-497 193-746 194-248 582-248 465 0 735 297 271 297 271 810v1984h575V0h-575v538q-209-319-486-474-276-155-642-155-603 0-916 375-312 375-312 1097m1447 2203" transform="scale(.01563)"/><path id="DejaVuSans-6e" d="M3513 2113V0h-575v2094q0 497-194 743-194 247-581 247-466 0-735-297-269-296-269-809V0H581v3500h578v-544q207 316 486 472 280 156 646 156 603 0 912-373 310-373 310-1098" transform="scale(.01563)"/><path id="DejaVuSans-63" d="M3122 3366v-538q-244 135-489 202t-495 67q-560 0-870-355-309-354-309-995t309-996q310-354 870-354 250 0 495 67t489 202V134Q2881 22 2623-34q-257-57-548-57-791 0-1257 497-465 497-465 1341 0 856 470 1346 471 491 1290 491 265 0 518-55 253-54 491-163" transform="scale(.01563)"/><path id="DejaVuSans-79" d="M2059-325q-243-625-475-815-231-191-618-191H506v481h338q237 0 368 113 132 112 291 531l103 262L191 3500h609L1894 763l1094 2737h609z" transform="scale(.01563)"/><path id="DejaVuSans-48" d="M628 4666h631V2753h2294v1913h631V0h-631v2222H1259V0H628z" transform="scale(.01563)"/><path id="DejaVuSans-7a" d="M353 3500h2731v-525L922 459h2162V0H275v525l2163 2516H353z" transform="scale(.01563)"/></defs><use xlink:href="#DejaVuSans-66"/><use xlink:href="#DejaVuSans-72" x="35.205"/><use xlink:href="#DejaVuSans-65" x="74.068"/><use xlink:href="#DejaVuSans-71" x="135.592"/><use xlink:href="#DejaVuSans-75" x="199.068"/><use xlink:href="#DejaVuSans-65" x="262.447"/><use xlink:href="#DejaVuSans-6e" x="323.971"/><use xlink:href="#DejaVuSans-63" x="387.35"/><use xlink:href="#DejaVuSans-79" x="442.33"/><use xlink:href="#DejaVuSans-28" x="533.297"/><use xlink:href="#DejaVuSans-48" x="572.311"/><use xlink:href="#DejaVuSans-7a" x="647.506"/><use xlink:href="#DejaVuSans-29" x="699.996"/></g></g><path id="line2d_13" d="M13.64 137.73h2.57l.257-40.725.257-1.742.257.338.257 1.448.513 5.7.257 34.982h30.32l.257-100.188.514 18.517.257 2.815.256.022.257-.744.257.43 1.028 8.026.257-.173.77-2.238.772-2.748.77-3.966 1.285-7.113.257-.786.257-.336.257-.054.257-.2.514-1.04 1.542-3.999.257-.28.256-.007.257.328.257.79.514 3.245.771 7.64.257 1.089.257-.467.257-1.653.257-2.667 1.285-19.385.256-1.802.257-.922.257-.093.514 1.262.514 1.042.257.03 1.028-.693.257.164.514.897.514.95.257.037.256-.56.257-1.353.771-5.365.257.152.514 2.588.257.007.514-2.136.257-.027.514 1.872.257-.587.257-.29.257 2.088.513 8.987.257-.85.514-8.489.257-1.769 1.028-13.274.257.143.257 1.784 1.285 14.272.77 4.403.514 2.204.257.653.257.235.514-.04.257.351.514 1.938 1.799 9.024.256 3.371.514 9.499.257 2.023.257.315.257-.586.257-1.78.514-5.361.257-.83.257 1.752.514 8.111.257 2.058.257.503.257-1.35.77-10.767.514-2.04.257-.243.514.782.257.014.257.388 1.028 3.937 1.285 6.826.513 1.059.257.18.514-.048.771-.049.257.111.257.24.514.941.514 1.184.257.244.257.056.257-.087.77-1.176.257-.233.257.554.514 2.829.257.27.257-2.191.257-3.157.257-.523.257 2.094.257-.757.514-8.732.257-2.112.257-.06.513 2.67.771 4.028 1.028 4.267.257.575.257.235.514-.12.257.214 1.541 2.706.514.829.514 1.177.257.844.514 3.05.257 1.739.257.438.257-1.123.257-1.898.257-1.003.257-.007.257-1.823.257-5.574 1.027-32.782.257-1.975.257 6.488.514 27.044.257 7.919.257 3.234.257.84.514.328 1.542 2.171.513 1.452.514 2.387.514 3.701.771 9.8.257 39.219h9.507l.257-83.748.257.937.257 1.372.514 3.967.257.706.256-.69.514-4.83.257-.845.257 1.857.514 5.888.257 1.077.257-1.646.257-2.445.257-1.128.257 1.31 1.028 15.224.514 4.784.256.904.257-.18.514-1.68.257-.848.257.343.514 4.432.257-.393.257-5.217.77-29.237.258-2.22.77 3.257.257 1.763 1.028 12.862.257.078.771-1.697 1.285-3.226.77-2.552.771-2.982.771-1.762.514-.699.514-.216.514.04.514.45.257.226.257-.033.257-.333.514-1.179.513-1.691.514-1.758.257-.393.257-.073.514.25.514.508.77 1.182.515 1.066.257.76.257 1.157.256 1.935 1.028 10.781.257.69.514.272.514.402.257.428.514 1.679.77 3.087 1.8 4.4.513 1.379.514 1.36.514-.123.257.36.77 3.037.258-.318.257-.505.257-.055.256-.481.257-3.507.771-22.764.771-8.061.257-.724.514 2.794.257-.64.514-5.706.514-4.767.257-.954.513-.671.257-.348 1.285-2.825.514-.35.514-.253.514-.73.257-.413.257-.034.257.935.257 2.709.77 13.765.257.294.514-1.837.257-.256.514-1.16.257.757.77 5.72.258.088.257-2.003.514-10.281.256-4.746.257-1.104.257 1.478.771 5.725.771 3.494 1.028 3.549.257 1.516.257 2.404.77 10.449.257.175.514-1.786.257.098.257.804.514 2.774 1.028 6.455.514 1.896.77 1.675 1.028 1.84 1.028 1.04.257.124.257-.163.514-.712.257.09.257.666.77 3.096.515.771.256.028.514-.526.514-1.028.514-1.176.257.01.77 1.807.258.194.257-.194.257-.56.514-2.679.257-.241.257 2.426.513 8.353.257 52.173h2.056l.257-71.2.257-7.631.257-3.304.257.727.514 4.505.77 9.74.514 2.474.514 2.086.771 5.15.257-.302.514-1.52.514-1.188.514-.906.257-1.198.256 62.567h1.028l.257-80.774.514-5.773.257-1.37.257 1.426.77 9.215 1.286 9.197 1.027 7.517.771 1.945.257.24.257-.899.514-3.018.257-.368.257.705 1.541 7.818.257-.075.257-2.494.257-4.203.257 60.91H231.4" clip-path="url(#p3a139e2da0)" style="fill:none;stroke:#1f77b4;stroke-linecap:square"/><path id="line2d_14" d="M13.64 137.73h29.55l.257-71.148.514-14.238.257-.994.257 1.887.513 6.343.257.41.771-6.178.514.243.257-.073.257.332.77 3.463.258-.483 1.028-3.642.257-.221.256-.416.257-.146.257.332.257 84.53h.771l.257-90.728.514 19.36.257 3.265.257-.393 1.285-9.503 2.055-12.755.257-.328.514 2.37.257-.257.77-4.51.258-.444.257.248.77 1.356.257.386.257.698.514 2.947 1.028 8.477.257.548.257-.65.257-2.718.514-12.792.514-10.966.513-5.042.257-1.403.257-.767.257-.386.257-.156.257.046.771.406.514-.05.514.004.77.433.258-.124.513-.69 1.028-1.984.514-.644.514-.876.257.052.257 1.075.514 6.284.514 10.863.514 11.403.256.513.771-7.14.257-.913.257-1.683.514-7.53.514-9.217.257-2.58.257-1.303.257-.16.257.917.514 3.636 1.027 8.603.514 2.183.514 1.388 2.056 9.099.514 1.835.257 1.794 1.027 11.758.514 2.779.257.462.257-1.413.514-4.534.257-1.006.257.249.257.716.257-.24.514-1.01.257-1.096.77-6.274.257.007.514 1.994.257.188.514-1.079.257.104.514.852.257.79.514 2.715 1.027 7.008.514 1.834 1.028 2.542.257.108.257-.23.514-1.114.77-2.383.515-2.255.77-3.64.257-.182.257.49.257 1.09.514 4.445.514 4.401.257-.267 1.542-10.154.257.914.77 9.76.257-2.159.514-9.735.257.334 1.028 9.527.514 2.196.514 1.157.257.325.257.096.514-.137.256.204.257.512 1.028 2.87.514.129 1.028 1.267.257.585.257 1.066 1.028 5.975.256-.842.514-2.615.257-.407.257.096.257.862 1.028 5.511.257-.39.514-1.936.257-.375.257-.06.77.193.771-.238.257.135.514.72.257.629.257 1.068 1.028 6.655.257.543.257-.96.514-6.888.513-10.542 1.285-46.503.257-5.698.257-2.188.257 2.112.257 117.08h4.625l.257-79.639.257-1.871.514-5.132.257-1.515.257-.284.77 3.222.257-1.58.514-8.645.257.386 1.028 17.458.514 6.585.257 1.827.514 1.638.514.93.257.38.256.698.257 1.392.514 4.159.257.944.257-.074.514-1.146.514-1.279.257.133.257 1.622.257 2.968.257.584.257-7.578.514-35.399.256-5.826.257 6.184.514 20.44.257 4.293.257 1.058.257-.456 1.542-6.247 2.055-11.473.514-1.46.514-.796.514-.229.257-.106.77-.83.258.134.514.805.257.118.257-.183.513-1.007 1.028-2.428.514-.48 1.285-.157.514.116.514.402.513.783.771 1.519.771 1.734.257.34.257.797.514 5.023.514 4.642.257.995.257.242.257-.037.257.237.256.913.257 1.852 1.542 15.308.514 3.846.257.375.77-1.801.515-1.87.257-.2.257.134.256-1.91.771-17.224.257-1.305.257.92.257 1.449.257.092.514-6.216.514-4.618.514-2.711.77-3.38.514-1.218.514-2.14 1.028-4.855.514-1.756 1.028-2.198 1.284-2.652.257.943.257 3.255.771 17.473.771 3.639.514 4.288.257-.931.257-3.697.514-11.358.257-2.548.257 2.965.256 4.722.257-.051.771-13.542.257.608.771 4.82.77 3.024 1.029 6.102 1.027 6.692.514 2.06.514 2.084.514 4.169 1.285 11.342.257 1.692.77 1.958.258.595.77 1.002 1.028 3.104.514.535.257.666.514 2.691.257.298.257-2.75 1.027-25.012.257-.8.514-2.185.257 1.237.257 3.543.257 79.6h8.222l.257-63.488.257-.917.257.047 1.028 2.313.257.12.257-.042.257.19.257.947.514 3.235.257.735.256-.393.514-2.553.257.1.257 1.42.257 2.74.257 55.547h1.028l.257-85.141.77 15.828.515 4.893.513 2.013.514.712.257.315.257.633.514 2.863.257 1.68.257.689.257-.706.514-2.328.514-1.469.257-.257.257.148.513 1.347.514 1.172.514.626.771.612.257.427.257.8.77 3.757.258-2.139.77-15.111.258.082.513 7.936.771 13.869.257 46.749h17.6" clip-path="url(#p3a139e2da0)" style="fill:none;stroke:#ff7f0e;stroke-linecap:square"/><path id="line2d_15" d="m38.05 120.966 11.913-.104.08-.048-.02.12.033-.014.035.058.055-.171.019.118.07-.082-.016.17.036.002.109.149-.07-.208.076.152.065-.154-.013.183.067-.09.013.162.045-.233.055.088.077-.614.029.617.032.629.025-1.275.052 1.007.11-1.824.009.967.038 2.318.036-3.38.051 1.917.106-1.64.01.691.048 2.45.022-4 .007-.534.045 4.263.038-.85.003.563.049-2.625.054 1.868.048-4.138-.016 6.455.061-1.149.004.234.012-4.177.055 1.397.026-.754.06 2.805.065 2.665-.026-8.085.055 3.16.02-1.205.015 5.075.074-3.311.003.005.07-4.162-.015 8.06.035-1.317.007 2.572.086-7.452.013 2.518.093 3.092-.067-4.652.074 2.987.013-5.895.022 9.952.074-4.34.016-4.438.083 6.007.02.223.006-2.02.01-5.835.026 11.197.073-5.217.013-4.812.087 7.062.022-3.915.007-4.086.029 11.066.074-5.655.01-4.305.086 7.259.006-.211.049 2.323-.023-10.645.045 3.547.103-1.435-.061 4.92.067-3.95.093 8.004-.022-11.83.042 5.743.106-3.703-.065 5.903.071-4.235.09 7.858-.02-11.758.043 4.57.025-.247.007 2.05.07-4.05.052 8.698.022-10.647.02 10.774.131-7.25.087 7.417-.02-10.65.046 3.858.093-1.075.029 4.203.041-6.838.023 9.657.06-4.252.104 3.558-.049-6.22.058 3.156.016-5.883.02 9.59.073-4.107.007-.811.106-4.606-.026 8.841.032-5.983.013 6.696.096-6.494.004-.128.035 2.69.02 3.927.025-9.6.064 5.473.061-2.174.032 3.111.02 3.991.025-10.375.058 5.253.003.113.016-1.59.049.275.073-2.996-.028 8.56.041-3.556.01 1.97.055-4.606.038 1.34.077-2.679-.026 7.086.042-3.08.007.872.057-3.5.039 1.4.013-1.455.035 4.58.042-2.393.006.658.058-2.103.039.648.013-.887.035 3.163.038-1.545.01.716.023-1.816.07.262.093 1.507-.08-2.237.103.93.087-.952-.074 1.387.096-.537.058 1.513.051-1.15.074-1.464.029 1.867.006-.274.026 1.073.058-1.474.07-1.099.026 1.506.052 1.168.041-1.358.071-1.03.032 1.325.045 1.176.048-1.41.049-.924.048 1.045.045 1.132.054-1.444.039-.908.06 1.373.036.743.055-1.32.038-.89.061 1.382.036.611.051-1.075.042-.91.054 1.286.036.783.06-1.291.036-.68.055 1.234.035.906.061-1.397.035-.757.055 1.264.035.91.061-1.468.039-.747.054 1.386.033.762.054-1.258.042-1.018.058 1.418.029.795.057-1.329.039-.87.058 1.367.029.837.06-1.382.036-.705.055 1.181.029.997.067-1.46.035-.596.052 1.047.029.95.067-1.375.039-.616.054 1.16.023.716.07-1.416.039-.499.048 1.025.029.852.067-1.327.036-.484.054 1.061.03.75.067-1.258.038-.426.052.96.045.704.051-1.2.039-.489.054.887.042.68.055-1.165.038-.427.055.805.051.712.048-1.037.032-.34.058.594.058.846.048-.895.03-.322.063.486.058.703.048-.774.036-.328.064.402.051.459.052-.554.041-.305.071.258.055.352.051-.364.077-.308.032.299.052.414.057-.381.049-.194.054.293.055.506.054-.506.068-.214.032.288.045.46.058-.545.038-.324.068.374.051.246.042-.42.054-.34.049.402.067.328.035-.385.033-.253.07.384.023.163.029.197.051-.454.02-.17.073.472.016.131.07-.4.01.088.049-.4.048.558.006-.037.02.212.045-.768.032.141.102 1.169-.093-1.226.11.324.019-.948.07 2.237.004-.029.006.371.032-2.788.042 1.329.016-1.286.07 3.582.01.498.036-5.715.041 2.884.087 3.811.035-8.1.126 8.479.003-.737.029-8.183.096 4.119.029 4.542.032-8.236.003-.935.036 8.166.057-3.808.033 5.03.035-9.61.045 6.036.116-5.744-.036 9.182.042-6.377.003-.09.007 2.698.109 3.55-.064-6.255.067 5.003.029-7.523.035 8.282.055-3.196.074-4.85-.036 8.394.052-3.207.109 3.078-.064-6.022.067 5.324.032-7.582.023 7.587.06-2.149.078-4.986-.032 7.645.051-2.605.11 2.837-.065-5.929.068 5.104.032-7.23.083 4.794.08-4.644-.035 7.89.052-4.122.041-1.294.071 5.379.035-7.742.08 4.264.046 3.685.022-6.592.01.728.003-1.965.022 6.28.08-2.45.062-3.88-.036 7.826.09-4.91.007.09.003-.037.064 4.912.023-6.72.006 1.785.006-3.079.023 6.166.08-2.48.061-3.64-.035 8.009.064-2.735.097 2.985-.036-5.478.052 2.934.019-5.848.022 6.701.071-4.058.035 6.033.036-8.824.045 4.09.045-1.226.032 4.369.003 1.436.035-8.531.065 3.432.064 5.452.022-8.427.007 1.747.006-2.452.023 7.134.077-3.313.064-3.437-.035 8.652.05-3.558.11 3.837-.035-7.08.038 6.323.032-8.34.084 3.991.067-4.06-.022 9.097.051-4.264.074-2.771.039 7.073.022-9.212.1 2.528.077-2.655-.035 9.11.05-4.271.075-2.557.038 6.919.036-9.336.09 2.639.038 6.678.035-9.388.042 4.277.048-1.565.036 5.213.003 1.541.038-9.03.062 4.147.067 4.964.022-8.618.007 2.25.006-3.074.023 7.612.08-3.719.026 5.496.035-9.314.058 4.48.11-4.42-.04 9.005.042-6.557.02 4.442.067-4.774.029 3.879.01 2.606.035-8.113.058 3.665.032-1.287-.023 2.23.039-.522.02 3.496.034-6.668.055 3.408.035-1.48.026 3.492.007-.43.006 2.044.035-6.973.065 3.079.06 3.102.023-5.925.006.828.004-.084.016 2.36.1 2.968-.04-4.306.052 2.627.023-4.414.093 2.4.025 3.868.036-6.224.054 3.284.1-3.034-.039 6.04.058-4.183.093 3.3-.035-3.952.055 1.595.019-1.6.093 1.185.023 1.915.064-2.518.022.707.03-.721.025 1.217.01.585.05-1.415.04.376.032-.59.057 1.085.023-.543.132.344-.058-.453.06.436.084-.24-.042.304.074-.196.013-.09.068.286.032-.23.119.293.016-.14.019-.097.067.16.023-.064.385-.342-.363.403.373-.394.1.04.019-.02.119.05.003.008.122.053.006-.014.29-.156.173-.098.247.137.006-.014.074.08.007-.014.128.075.6-.188.007.07.013-.055.1.206.025-.267.058.33.03-.103.022.18.06-.278.03.157.093-.154-.007.31.026-.203.035.259.026-.513.051.36.004.107.025-.52.077.316.032-.273.055.532.016-.185.1.118-.058-.576.06.571.043-.441.07.108.077.38.039-.176.01-.128.064-.139-.02.481.052-.17.045.467.02-.553.034.067.017-.47.073.92.016-.37.017.9.032-2.375.048.564.016.73.035 2.083.036-4.463.032 1.935.112-1.772-.038 4.77.045-4.358.096 5.078.016-4.248.013-1.184.029 3.447.057-.502.026 2.778.026-6.483.042 2.802.1-3.371-.027 7.74.039-5.235.103 5.272-.064-6.194.073 1.365.013-3.233.026 5.804.07-1.95.02 5.629.022-10.08.045 2.44.094-3.002-.017 11.926.03-9.262.115 10.78-.07-12.62.073 8.821.01-10.382.103 4.35.041-5.786-.01 14.64.046-6.212.1 6.129-.071-12.777.08 10.883.006-13.794.042 14.403.064-7.237.048-8.821-.01 18.413.062-5.32.01-8.803.083 11.525.003.473.007-13.053.003-2.579.035 16.39.058-6.761.055 6.528.01-16.645.047 12.103.03-6.448.067 8.254.003 2.34.01-16.977.086 9.76.074-8.996-.006 15.703.038-4.507.004 3.382.038-9.13.07 8.025.01 2.677.007-13.738.003-2.051.035 13.605.058-5.274.061 6.989.007-14.493.041 8.658.036-2.935-.023 6.36.087-4.217.032 7.707-.006-15.817.083 7.523.007-.949.01 4.634.04-.911.033 5.616-.01-16.332.08 7.08.081 8.67-.051-9.279.054 1.915.003-8.658.01 17.311.096-9.96.08-6.651-.009 18.19.035-12.567.116 9.673-.051-9.778.054 9.771.023-14.546-.007 16.071.1-10.719.07 10.764.01-15.85.035 12.893.007-9.66.103 11.675.025-13.969.094 3.986.07 10.567.01-15.204.035 12.484.01-9.034.1 8.87.028-11.216-.01 12.392.107-4.855.003.018.074-5.992-.007 9.746.039-3.151.003 2.047.01-7.86.1 7.132.018 2.101.01-10.359.042 2.096.003-.765.01 7.26.077-2.792.032 5.592.006-11.93.058 6.94.048-4.444.055 7.922.003 2.397.007-12.19.096 6.409.077-6.315-.01 10.918.042-4.523.003.046.01-5.373.006 7.246.094-2.277.025 4.912.007-10.702.074 5.753.106-5.282-.01 11.517.013-8.24.048 4.034-.01-7.038.07 4.76.065-6.333-.006 12.975.054-8.198.11 4.647-.052-7.496.055 5.214.022-7.951-.01 14.395.1-9.276.084 9.278.01-13.97.015 4.223.087-2.844-.051 8.217.054-6.601.068 10.11.01-13.393.035 8.454.07-6.425-.054 7.908.096-3.24.029 6.706.01-12.885.057 4.249.004-2.566.01 6.91.099-5.76.006 8.415.01-10.844.096 5.402.084 5.623-.074-9.748.077 6.66.006-6.706.052 6.94.054-6.443.074 8.396.042-3.356.074-4.62-.055 4.91.093-1.736.03-.59-.01 2.68.013-1.526.006 2.632.096-4.906.007 1.643.087 2.74-.074-5.097.1 2.566.09-1.92.022.418.054 3.106.07-1.835.052-1.01.048 1.499.026.76.08-1.283.007.391.051-.92.052.623.01-.09.054.518.02-.106.002.077.074-.786.052-.365.045.63.038.473.07-.49.007.038.023-.384.032-.372.054.798.074.395.039-.306.054-.504.061.391.058.4.068-.328.064-.144.048.133.048.099.065-.085.295-.133.119.097.035-.03.074-.028.048.056.055.048.051-.073.084-.006.029.037.102-.07.049-.028.057.06 1.802-.101.016-.047.074.152.007-.014.08.007-.07-.05.092.008.004-.025.073.13.023-.029.173-.095-.167.113.17-.043.062.12.035-.172.016.098.003-.093.074.116.032-.06.058.06.042-.11.135-.034-.122.08.125-.02.08.042-.006-.132.025.08.016-.065.023.1.074-.09.112.144.003-.035.01-.066.045.155.055-.127.045.2.064-.222.003-.003.032.1.11.172-.052-.249.058.144.067-.346-.054.363.125-.194.07.572.036-.641.032-.516.067.567.055.956.045-1.277.006.101.013-.285.045.356.045-.096.036 1.503.067-1.661.006.11.03.218.054-.611.006-.179.042 2.052.026.42.048-2.23.016.084.01-.346.032 1.013.058-.382.051 1.926.045-2.371.026-.67.032 1.809.051-1.434.061 3.356.045-3.545.003-.404.055 2.108.048-1.603.064 3.909.042-3.65.106-1.224-.035 3.122.042-2.423.064 4.493-.052-4.675.097.014.109-1.204-.035 3.812.038-3.347.068 5.468.041-5.184.013-.272.032 3.977.013-.374.116 2.48-.061-6.934.064 6.681.048-7.316.064 5.323.055-4.795.067 8.118.049-8.89.067 5.668.051-5.007.071 8.048.052-9.465-.033 9.679.155-8.357.067 8.346.045-5.32.006-4.186.049 8.54.057-5.919.013-1.548.032 3.32.042 5.248.035-8.94.013.02.004-.17.006 4.853.013-1.56.029 4.55.048-7.632.032 2.88.112-2.831-.048 8.837.052-8.835.048 7.393.048-7.466.016 3.448.006-2.967.074 8.374.036-7.676.048 6.371-.032-7.902.093 2.5.006-1.638.09 7.004.003.715.052-8.83.038 5.128.042-3.638-.032 6.337.1-2.58.045 3.483.048-6.401.003-1.911.048 7.182.058-5.81.087 7.035-.071-7.38.096 1.403.026-2.347.035 7.162.01-2.671.006 2.29.071-5.77.032 3.989.09-4.956-.051 8.429.074-4.914.012 3.506.071-6.095.013.53.003-.817.07 7.714.03-6.28.058 5.099-.036-6.718.09 3.231.032-2.855.048 5.502.01-.844.013 2.826.013-6.435.022 1.14.016-2.53.036 6.518.057-3.775.013-2.437.068 5.339.013-.18.006 2.074.051-7.16.055 5.728.051-5.957.061 4.371.026 2.65.055-6.509.032 4.799.07-5.11-.05 5.402.095-2.31.045 3.323.052-5.951.013 2.206.01-.331.006 1.021.029 1.734.048-4.441.029 1.219.06 4.233-.05-4.53.099.19.003-.297.058 3.031.035-1.65.103 1.947-.09-3.048.106 1.805.125-1.018-.115 1.045.119-.831.112.774-.1-1.178.103 1.063.125-.749-.09.934.094-.904.128.997-.112-1.19.16.91.087-.697.042.199.032.238.048.422.061-.443.061-.343.064.18.093.397.039-.22.074-.307.058.22.051.234.068-.183.067-.115.048.11.061.106.064-.077.1-.077.048.047.145-.032.003-.005.06-.046.05.062.07.02.038-.037h.106l.02.03.096.039.035-.029.508-.026.096.009.013.01.138.056.003-.01.106-.01-.096.026.11-.02.201-.014.103-.034.003.029.004.036.1-.084.002.008.09.072-.048-.107.074.047.11-.044-.088.081.094-.075.109-.08-.052.185.061-.104.058.132-.045-.213.08.034.11-.055-.052.362.055-.313.035.537-.006-.679.08.207.023-.493.006 1.079.084-.63.067.271.048-.152.145-.34.067.584.045-.414.03-.55.063 1.505.026.596.035-1.737.01.062.061 1.11.051-1.783.052 3.626.054-3.7.02-1.071.032 3.532.058-2.286.048 4.316.051-5.203.003.252.052 2.878-.032-3.45.077 1.125.1-1.54-.033 7.182.039-4.545.003-.013.064 2.323.052-5.182.064 8.375.032-8.557.016 1.01.006-.547.026 2.943.026 2.51.054-5.723.03 2.981.035 5.6.032-9.957.038 4.455.07-3.264-.034 5.801.077-3.196.045 5.161.032-9.441.038 5.816.074-4.916-.058 6.758.097-3.055.003-.016.045 4.987.032-10.422.039 6.83.073-5.28-.057 6.712.1-2.99.047 5.406.032-10.207.039 7.155.058-5.143-.039 5.43.093-1.421.007-.477.022 2.131.007 1.81.029-9.205.064 5.23.055-3.102-.045 4.603.1-1.477.054 3.575.006-5.622.026-2.824.06 6.345.02-1.322.035-3.372.061 5.416.007-.54.029 1.894.01-9.003.064 6.466.074-4.417-.058 5.397.096-2.52.039 3.856.025-6.56.004-1.404.077 6.214.022-1.988.119 4.141-.077-6.895.08 5.685.026-6.899-.01 7.397.097-2.41.057-3.491.052 3.625.022 2.361.013-4.243.01 3.03.029-6.47.083 4.81.042-3.2.055 4.175.022 1.802.006-3.74.042-4.508-.032 8.081.09-1.458.003.58.064-5.22.033 2.697.07-4.107-.035 7.725.08-4.052.035 2.835.049-4.585.016.034.003-.138.035 2.833.007-.344.048 4.188.01-9.877.06 7.943.055-4.778-.035 4.915.109-2.632.051 3.845.01-8.725.061 7.319.055-4.657.067 1.722.058 5.007.006-6.092.004-3.181.06 7.47.046-3.49.016-1.444.077 2.863.003-.001.026 4.1.01-6.906.012 1.845.003-4.142.061 7 .045-3.282.016-1.869.052 3.408.032-.416.042 4.074-.007-6.265.013.14.003-2.92.058 7.146.048-3.682.013-1.562.032 3.411.045-.288.01-.552.013 3.022.006-.184.006 1.474.052-9.011.045 6.466.048-4.306-.035 4.768.109-2.398.042 5.206.048-10.222.02 4.514.012 4.127.048-5.27.01.315.003-.803.093 3.1.026 4.378.051-10.613.036 7.573.057-4.788-.048 5.488.106-4.03.061 5.958.03-9.493.015 3.496.007-3.383.032 7.454.07-3.012.058-1.47.026 2.632.026 3.974.028-10.055.058 7.23.058-4.506-.045 5.168.103-3.24.06 4.923-.047-6.585.074 2.44.006-5.216.07 7.727.036-4.3.132 5.41-.12-6.32.126 4.86.026-5.803-.01 6.345.097-2.31.032-2.638.083 1.5.039 3.472.054-5.062.013 1.635.003-.774.032 3.228.074-2.613.084 2.243-.048-2.975.086 1.899.01-1.223.048 1.515.058-.92.029.616.058-1.261.022.458.097.857-.052-.897.077.596.12-.797.002.027.138.75.007-.15.038-.066-.029.12.049-.01.029.243.048-.547.019.046.058-.014-.045.14.06-.076.062.497.064-.278.068-.336.064.125.003-.006.032.142.013-.032.006.06.087-.263.023-.063.07.104.013-.02.132.142.28.121.192-.13.25-.1.004.007.205.093.003-.003.193.07.007.016.086-.071.007.001.122.006.003-.004.112-.103.013.012.052.063-.03-.099.09.036.017-.073.086.103.01-.075.112.149.023-.06.042.019.016.065.003.024.048-.177.052.095.022.024-.01-.075.013.003.11-.212-.062.24.065-.221.086-.155.036.399.016.166.019-.282.103-.724-.042 1.247.067-.97.058 1.656.032-2.233.042 1.581.122-2.556-.048 3.382.067-2.145.065 2.92.029-4.063.003-.603.02 4.759.073-1.613.02 1.369.031-5.079.068 4.432.07-4.345-.022 6.282.067-4.015.068 2.364.035-5.158.116 7.668.006-3.97.016-4.468.02 8.076.07-2.065.01.63.045-5.81.038 3.097.026-.366.035 1.742.061 3.962-.016-9.992.055 5.197.022-2.697.013 5.572.068-1.464.112 3.113-.083-6.679.086 4.997.02-7.703.016 9.687.074-2.652.096-5.088.022 3.411.065 4.001.013-8.79.006.358.003-.754.02 9.54.064-4.142.013 1.348.086-4.783.013 1.58.08 5.975.01-7.92.013-1.829.02 9.534.063-2.829.004.487.057-4.576.03 1.963.009-2.7.083 6.371.052 2.027-.026-10.713.068 4.342.006-.32.013 1.29.006 3.075.097-5.436.003.004.096 6.473.007-6.872.003-2.695.029 11.004.07-2.088.023-6.33.096 2.356.016-.81.01 1.739.026-.127.06 5.468-.025-10.989.07 4.209.004-.161.02 4.122.002.898.023-6.931.067 1.384.11 5.624-.062-5.755.068.716.016-4.018.02 10.497.07-3.209.02-4.868.092 3.563.007-.447.106-5.824-.023 8.992.026-6.744.013 8.037.1-5.8.012 3.149.013-4.172.083.641.071 5.5.016-7.837.01-1.976.016 10.449.058-4.844.01 3.21.022-6.298.074 1.504.051-.337-.032 3.953.055-1.88.054 4.617.026-10.397.029 7.22.08-3.36-.026 3.745.058-1.596.068.952-.026-3.518.042 1.585.01-.933.025 2.52.042-.663.06 3.704-.018-8.907.064 4.067.022 3.158.023-4.396.064 1.543.013-1.062.02 3.082.076-1.722.01-.447.064 2.863.055 1.362-.023-7.396.052 2.667.038 3.001.023-3.452.057 2.127.013-2.116.087 2.96.013-1.306.01-.83.048.98.054-.742.042 2.021.013-2.166.01-2.059.022 5.294.067-.462.007-.384.016-3.171.103 1.66.038-1.387.02 2.331.057-1.207.013 1.045.09-1.717.003.119.016 1.15.106-.119.154-.933.01.26.084.668-.026-.688.055.154.038.463.026-.582.054.256.013-.235.03.413.063-.124.065.08-.026-.284.054.038.01-.044.026.33.054-.162.016.06.026-.241.055.151.083-.165.023.224.003.005.038-.14.007-.012.02.154.06-.051.01.049.026-.123.064.013.077-.019-.055.067.074.008 11.097-.027.003.143.007-.21.1.109.134-.175-.112.2.125-.098.06.05-.015-.165.058.057.346.167.007-.065.035.1.07-.141.004.05.042.052-.007-.15.065.12.019.067.093-.18.061-.12.045.193.02.033.092-.235.094.214-.065-.276.084.253.038-.214.042.372.007-.078.022.189.058-.515.022.083.036-.116.041.383.039.702.064-.908.003.084.042.375.042-.739.026-.287.051 1.427.02.275.047-1.063.132-.844-.064 1.22.087-.99.06 1.861.062-1.457.128-.56-.064 1.144.074-1.048.058 1.786.01.154.054-1.126.135-.501-.064.612.073-.607.074.865.103-.444.135-.28.02.059.083.327.064-.19.042-.076.06.114.13.201.044-.056.103-.118.064.05.064.06.052-.064.154-.125.016.015.312.058.144.016 2.913-.108.093-.135-.016.258.03-.107.057.222-.039-.315.097.23.016-.192.1.12.019.199.077-.246.02.175.038-.385.06.61.007-.054.132-.686-.048.714.077-.386.025 1.374.045-1.811.058 1.522.007-.31.054-1.778.048 2.27.02.57.038-2.914.003-.458.052 3.251.051-2.14.09 4.29-.067-5.029.08 1.228.029-3.892.048 7.29.035-5.353.11 7.672.01-5.517.028-4.151.026 7.794.058-5.124.106 7.665-.052-10.21.061 7.126.007-7.617.051 10.16.055-8.085.112 8.979-.058-11.758.061 10.767.01-12.863.048 13.97.058-7.513.109 7.434-.058-11.717.064 8.79.01-11.71.048 15.73.055-8.708.106 7.875-.052-11.131.061 7.417.007-11.486.051 16.138.055-8.016.103 6.85-.052-10.802.061 8.503.01-13.26.048 16.236.055-7.653.103 6.687-.055-11.1.064 7.386.007-10.84.048 14.48.058-6.888.045-4.151-.026 6.592.06-2.184.02 6.797.02-14.585.064 5.325.006-2.598.016 8.116.08-1.326.052-9.921-.013 15.573.058-3.728.003 1.418.022-10.44.068 3.15.08-5.374-.013 15.126.032-7.514.03 4.608.025-10.173.055 6.518.09-8.386-.013 15.495.032-6.638.006 3.36.045-10.39.058 6.16.087-8.654-.013 16.04.029-9.003.01 5.774.044-10.578.058 7.04.087-10.235-.013 16.274.029-6.092.01 4.276.045-11.19.054 7.544.016-7.231.048 11.314.007 1.443.016-15.52.061 8.51.013-5.707.02 9.73.073-1.638.048-11.104-.02 16.571.094-10.308.112 7.279-.045-9.423.049 8.924.019-12.275.02 12.842.073-3.566.112-7.317-.028 10.538.035-6.154.016 5.256.087-5.945.006.215.003-.073.01 2.212.045 5.932.013-8.409.016-3.48.02 9.107.07-2.736.016-2.222.064 6.193.006 1.559.026-13.333.058 7.59.01-2.679.09 4.605.064 3.685-.023-13.52.061 8.536.058-3.711.045 6.434.013 1.64.01-9.393.006.657.006-4.459.023 13.904.074-4.933.08 4.244.01-8.489.003.364.01-4.917.019 13.875.07-6.907.084 5.472.016-6.973.006-4.478.023 12.118.077-3.966.096-6.896-.022 9.489.038-3.31.007 2.872.067-5.968.032 1.713.01-1.432.032 5.319.007-.324.003.458.022-7.396.071 4.966.022-3.476.08 5.441.023-5.529.106 2.442.068 2.369.022-3.313.029 1.84.042.33-.03-1.644.04.347.05-1.079.027 2.671.006.303.074-2.097.01.202.019.891.022-1.567.03.287.009-.604.041 2.226.03-.81.015.538.071-1.561.01.416.01.211.015-.487.004-.202.035 1.571.048-.149.003.183.074-1.319.02.388.019-.525.038 1.305.036-.217.01.407.073-1.338.016.535h.003l.02-.636.077 1.12.006.229.074-1.305.016.54.003.02.013-.484.007-.21.08 1.208.006.092.068-.982.045-.242.035.78.058.439.022-.664.03.198.054-.702.045.918.01.21.057-.704.032.337.058-.82.042 1.057.01.157.057-.859.033.464.054-.96.045 1.26.007.092.057-.808.032.504.055-.993.048 1.27.016-.135.135-.953.003.063.033 1.036.1-.229.057-.793.045.882.048.225.045-.646.013-.46.07.7.01-.024.058.56.032-1.019.007.016.003.01.01-.28.003-.07.025 1.024.052-.425.019 1.242.061-1.802.022.294.013-.657.023 1.642.058-.188.012 1.45.087-2.688.007-.7.083 2.573.01 1.82.022-4.531.064.473.01-.99.02 3.876.06-.794.01 2.635.022-6.145.068.203.003-.316.026 5.755.054-3.209.016 4.902.023-8.725.064 1.108.007-.466.022 7.386.055-4.403.016 6.45.022-11.722.064 2.248.007-.547.026 8.54.051-5.095.016 7.408.026-13.484.06 3.149.007-.53.026 9.5.051-5.811.02 7.599.022-14.79.061 4.165.006-.85.03 9.663.05-4.92.017 6.49.022-14.336.061 4.235.007-1.256.029 9.822.054-4.366.016 5.877.023-14.631.06 4.246.007-.962.03 9.276.05-4.9.02 6.724.022-14.016.061 3.505.007-.699.019 9.405.061-4.689.058 6.642-.02-13.639.065 2.624.003-.402.023 9.515.057-6.356.061 8.015-.025-13.156.067 2.896.007-.969.022 9.418.061-4.497.016 5.948.016-12.685.07 1.568.007-.227.01 4.71.087 6.497.016-12.344.025 10.726-.016-10.756.129 4.156.006-.401.023 7.767.006.971.026-12.41.051 5.507.02-4.94.022 9.033.058-1.827.013 4.735.028-12.62.058 3.4.01-2.234.022 7.53.061-.236.01 3.931.032-11.882.058 3.386.01-1.889.083 6.007.02 4.094.022-11.005.06 3.241.01-1.215.08 3.996.02 5.043.026-9.935.06 3.414.01-1.614.087 4.448.013 2.988.026-8.558.064 3.067.042-1.222.054 3.988.01 1.677.026-6.315.067 2.602.045-2.352.051 3.38.01 1.175.064-3.796.03 1.387.047-1.603-.028 1.898.083-.228.055.203-.023-.72.07.484.049-1.078.087.567.058.865.048-.932.019.011.02-.465.041-.117.039.843.032.678.077-.683.054-.775.055.651.08.86.036-.667.06-.831.058.5.077.942.039-.77.064-.734.052.586.051.973.067-.715.061-.865.055.695.07.955.046-.78.064-.975.055.775.064 1.03.051-.888.064-.989.055.77.061 1.162.055-.933.064-.993.054.766.058 1.282.058-1.02.07-.993.049.677.061 1.338.058-1.067.064-.923.055.59.064 1.277.058-1.007.07-.851.048.525.068 1.338.058-1.012.067-.78.052.475.077 1.37.048-.912.074-.84.051.378.074 1.352.055-1.004.064-.769.06.351.075 1.358.058-.985.073-.783.049.342.07 1.436.061-1.016.11-.645.022.214.051 1.622.077-1.398.08-.734-.054 1.23.096-1.005.061 2.498.049-2.235.115-1.269-.058 2.786.065-2.525.1 3.953.028-2.355.003.06.016-1.345.113-1.079-.058 4.048.061-3.964.106 4.747.026-2.56.074 2.104-.049-4.133.074 1.924.032-2.281.055 2.927.023-.863.032 2.734.051-4.442.026 1.727.003-.013.003.327.02 2.071.057-4.491.026 1.81.006-.772.077 3.37.013-1.396.09 1.018-.051-3.202.07 2.039.042-2.473.061 2.638.013-.408.032 1.47.055-2.522.01.14.109-.946-.058 2.574.067-1.91.032 1.112.065 1.057.041-1.026.068.397.054-1.371.148 1.61.055-.712.07-.615.097.354.058.764.06-.48.065-.47.074.148.086.749.061-.525.074-.32.052.148.093.414.06-.275.072-.25.057.173.087.218.058-.095.074-.126.058.062.23.02.065-.032.058.046.103.02.025-.025.145-.019.144.013.007-.01.193.03.17-.023 1.455.08.006.067.077-.283.03.268.018-.244.026.32.074-.206.02.215.063-.373.03.24.015-.128.074-.39-.025.66h.045l.006.16.029-.714.067.329.065-.425-.026.623.087-.453.07.605-.029-.915.084.91.074-.935-.026 1.23.087-.7.016.675.022-.957.08.818.023-.99.103.341.029.708.074-.79.006.053.003-.053.077.53.023.301.054-.519.055-.922.051 1.026.026.937.048-1.42.026.11.026-.442.06.536.033 2.003.035-2.792.03.522.018-.723.077 1.663.023 2.12.029-4.676.051 1.612.003-.02.01.552.003-.04.074 3.407-.048-4.878.064 1.727.016-3.149.061 3.374.036-2.003.035 4.59.003.43.035-6.63.045 3.15.045-2.015.033 4.44.012 1.458.033-7.276.044 3.503.049-2.11.025 3.298.016 2.752.033-7.576.057 3.9.077 3.78-.041-6.321.057 3.38.017-4.818.096 2.066.038 5.77.033-7.97.05 3.504.043-2.077.029 4.754.012 1.895.033-8.39.057 4.649.004-.016.106-4.964-.033 8.92.042-6.43.003-.125.02 3.234.022-1.394.077 5.116-.042-7.71.062 1.304.016-3.233.019 6.26.074-3.854.038 7.405.023-9.847.058 5.02.106-5.07-.023 10.202.035-9.892.129 9.734.003-1.001.02-9.236.102 2.601.035 7.53.026-10.506.058 5.186.106-5.105-.026 10.696.039-9.517.125 9.78.023-11.228.102 3.143.036 8.326.022-11.363.058 5.27.103-5.27-.023 11.704.039-9.489.122 9.752.003-1.553.02-10.44.096 5.465.074-5.439-.033 12.055.061-5.173.1 4.985-.035-8.554.048 4.571.01-7.888.032 8.735.073-5.343.033 8.496.032-12.113.048 5.243.112-5.272-.032 11.898.036-11.317.122 10.412.003.662.032-11.588.038 5.436.09 5.992.032-11.538.126 11.923.003-.978.032-11.046.084 6.468.073-6.859-.032 12.59.061-4.48.097 4.589-.071-9.516.087 5.422.019-8.794.02 10.199.073-5.848.032 8.465.032-12.672.049 4.806.109-4.28-.032 11.991.035-11.865.122 11.119.01-3.643.006.562.02-8.25.019 9.138.074-4.74.01-.525.015 4.133.007 3.226.032-10.985.07 6.948.09-6.05-.035 9.156.051-2.619.11 1.573-.074-6.094.077 5.558.029-6.365.103 1.906.028 3.582.08-3.734.004-.16.02 3.226.047-1.22.007.773.083-2.129.02 1.23.112.549-.074-1.324.077 1.27.084-1.142.064.481.061.467.032-.631.02.303.031-.407.065.552.01.099.08-.359.035-.161.045.33.006-.03.02.11.077-.297.045-.134.041.3.01-.034.032.137.058-.282h.006l.016-.09.078.265.016.076.07-.301h.003l.132.284.02-.11.057-.137.058.12.026.08.07-.13.058-.058.036.092.016-.016.109-.122-.087.148.145-.069.064.019.026-.045.016.005.09.077.189.076.003-.003.177-.062.196-.08.16-.001.26.086.01-.012.977-.07.022-.07.029.284.058-.191.038.209.045-.308.016.05.058-.016-.042.238.068-.138.035-.124.077.254.08-.617.052.255.022.35.033-.378.054.045.032-.174.042.5.08.318-.029-.783.052.401.119-.458-.045 1.453.048-1.392.115 2.722-.032-3.108.055.933.103-1.834-.052 2.42.065-1.803.032 5.102.045-6.25.041 2.322.02.038.006-.798.016-1.014.042 6.7.003.152.007-4.26.028-4.108.023 5.061.061-3.157.006-.284.036 3.375.013 4.962.032-10.274.058 2.556.083 7.666-.022-8.197.028 3.28.026-6.2.029 7.85.058-3.554.07-4.81-.01 11.094.046-5.921.013 4.159.029-8.697.054 3.657.048-5.904-.012 12.43.057-2.41.004 1.417.028-10.113.065 3.438.003-.022.003.452.023 6.88.01-12.635.073 4.288.003-1.843.09 10.072.007 1.148.01-15.717.067 6.477.106 10.097-.097-11.524.1 6.461.006-12.806.049 16.006.054-4.24.08-12.062-.01 18.803.033-10.411.026 7.914.01-10.554.073 3.41.055-8.135-.013 18.558.054-6.379.007 2.639.01-11.424.09 4.712.025 10.877.013-19.497.064 5.877.113 14.844.003-5.382.006-15.948.103 12.941.006-.951.08-12.287-.009 21.187.035-8.124.023 3.326.01-12.667.073 8.017.062-12.589-.013 21.52.051-5.075.006 1.743.013-13.962.074 7.85.061-11.805-.01 20.493.046-6.68.006 3.78.016-12.972.084 5.267.054-8.232-.01 19.018.045-5.955.013 2.71.013-10.844.077 5.156.064-8.622-.012 15.896.051-3.503.003 1.699.016-9.59.08 2.507.062-3.294-.013 11.153.054-4.07.004.686.012-4.29.08.846.01-1.145.042 3.019.058-1.585.07-.87-.038 2.028.077-1.17.116 1.272-.077-2.299.08 1.975.093-1.437.023.513.077 1.232-.065-1.698.106.98.116-1.017-.042 1.06.048-.881.055 1.723-.045-1.802.096.165.1-1.177-.064 1.966.08-1.17.006.36.033 3.526.041-5.018.049 3.488.096-2.717.016 2.567.022 4.125.01-7.933.003-.238.039 3.557.006 2.294.042-5.874.058 1.79.022-1.035.036 5.609.006 3.22.013-12.635.08 4.379.087-1.292-.039 4.986.052-2.273.032 6.954.01-10.216.003-4.067.051 11.629.055-5.592.112 8.39-.064-11.34.067 8.79.007-12.473.106 7.077.119 7.77-.065-10.558.068 7.859.006-12.323.106 8.6.023 2.201.01-3.583.025-2.81.061 8.933.003 1.768.013-16.315.084 8.326.083-2.77-.042 7.096.065-2.775.041 5.657.03-14.754.041 10.325.032-4.675.035 5.389.045-4.31.084 7.402-.01-11.798.016.644.004-2.16.035 13.086.06-6.16.065-1.712.064 8.258.026-14.988-.01 15.948.103-10.275.12 6.516.002-.15.013 3.835.003-2.566.023-12.96.054 14.94.036-9.896.138 10.577.006-4.486.023-10.459-.01 14.555.1-8.696.048 3.683-.035-5.753.106 5.558.038 4.99.01-12.313.019 1.466.003-.173.007 3.985.022 5.677.055-9.124.035 5.357.051-3.612.042 7.917.013-3.357.003 3.764.01-10.495.096 6.583.01-5.666.103 3.639.029 5.238.025-9.019.02 1.533.006-1.23.029 7.487.074-5.693.109 6.06-.07-6.682.08 2.583.064-3.736-.055 8.018.1-4.298.006 2.081.01-4.558.093 2.081.112-3.08-.051 7.25.055-5.6.048 3.989.054-4.084.01 1.333.006-2.162.074 6.159.016-.21.004.455.05-6.761.036 3.901.087-3.277-.07 4.282.109-2.887.054 4.571.032-5.08.013.875.007-2.75.07 5.469.032-3.472.12 5.386-.1-6.364.102 3.521.049-4.31-.039 5.736.1-3.74.006 3.52.07-4.77.036 3.038.1-4.102-.052 8.098.068-7.223.051 4.756.064-2.667.023-1.99.07 6.619.013-3.224.003 1.658.02-5.975.086 5.275.08-4.15.033 1.925.051 4.63.036-8.002.012 2.09.004-1.84.054 6.043.052-4.313.112 5.074-.093-6.554.096 5.45.02-6.971-.007 10.14.1-5.137.006 2.257.07-5.983.033 3.858.045 3.036-.036-3.882.042 2 .023-7.433-.01 11.15.1-6.368.006 3.24.07-5.34.033 3.337.07-6.432-.028 10.656.06-2.903.023 2.982-.01-6.675.094 1.646.106 4.67-.033-5.666.039 3.033.022-6.526-.01 10.37.1-6.602.087-1.64.032 4.47.055-11.841-.01 17.378.016-1.026.003 6.182.01-23.43.093 7.804.032 7.508.039-8.006.048 6.176.003-.042.08-12.268-.009 22.483.038-11.004.08 3.34-.035-7.323.061.963.09-1.143-.048 4.119.064-2.213.045 12.576-.01-23.921.071 13.845.007-7.08.048 9.516.055-.541.029-8.412.07 9.215.03 7.149-.01-28.285.073 15.062.004-3.1.048 8.637.054-1.896.02-5.068.077 6.37.006 4.493.02-21.024.08 11.799.019 8.004.048-9.932.045 2.48.1-15.044-.01 24.965.016-9.832.039 6.78.016-12.66.054 6.71.007-4.33.041 7.857.058-1.393.061 7.287.007-15.118.003-7.356.022 19.292.08-4.457.097-5.445-.087 5.803.103-.736.032-4.525.023 8.352.01 2.46.012-17.623.058 9.034.006-5.187.023 10.82.077-3.232.032-5.687.026 6.843.038-.6.016 5.409.013-15.01.074 4.271.013 6.82.055-7.956.045 2.865.01-.93.063 5.946.01 3.07.013-11.897.07 2.465.007.747.045 5.031.022-7.066.049 4.574.093-4.071-.026 8.609.035-3.866.004 1.105.057-4.035.049 3.456.019-4.582.093 3.68.02 1.174.064-2.705.01.472.038 1.446.054-2.041.032 1.354.045-.817.049.98.012.305.049-.847.045.554.057-1.055.074.423.045.372.077-.098.003.015.049-.281.077-.18-.02.412.045-.16.042-.143-.022.32.058-.125.041.223.03-.322.044.224.003.035.026-.23.084.218.077.077-.03-.206.059.122.118-.18.016.032.123.063.006-.017.15-.238.023.034.126.076.016-.032.147-.001.17.061.02-.029.18-.002.144-.014.315.062.193.014.376-.108.192.027.235.106.003-.003.167-.021.119-.053.215-.052.122.048.18.077.19-.009.382-.06.748.007.11-.037.022.047.465.216.01-.155.135-.5.003.17.032.287.064-.525.013.25.097-.442-.055.631.077-.352.07 1.146.052-.79.077-.422-.067.594.093-.168.045 2.276.058-2.599.003.014.055 1.695.038-2.23.023-.756.045 2.473.032 1.897.048-4.33.064 3.494.051-4.628.036 2.714.042 1.593.048-2.494.013.538.122-2.012-.061 3.644.064-3.453.093 4.838.029-3.667.022-.74-.01 2.335.04-.222.025 1.537.055-4.218.019.538.083 4.014.045-1.828.007-2.13.051 3.305.058-3.182.106 3.84-.09-4.187.116 2.85.025-2.692.052 3.315.035-1.786.11 2.158-.068-3.916.074 2.747.09-1.975-.078 3.403.1-2.497.006 1.512.078-2.415.025.751.064 1.578-.05-1.58.102.814.119-.595.003.139.112.34-.096-.506.103.494.016.137.07-.316.007.038.003.008.032-.209.026-.147.051.173.036-.08.01-.019.041.233.093.173.026-.074.048-.269.064.22.097.255.029-.068.115-.154.023.022.128.085.141-.286.02.025.16.029.003-.01.074-.033.039.027.193.144.115.017.003.002.113-.03.25-.117.47.168.892-.037.113.006-.049-.058.052.05.173-.11.007.038.003.01.074-.107.013.035.083-.045-.051.099.077-.063.048.116.048-.127.013.012.087.077.032.083.083-.035.074-.035.026.078.026.09.073-.161.01.066.074-.154-.055.16.09.011.016.028.03-.163.025-.152.067.278.013-.08.007.014.032-.166.051.066.045-.107.02.247.041.707.042-.92.029-.697.07.942.007-.079.055 1.34.041-1.517.113-.895-.052 1.29.058-1.024.045 2.946.061-3.028.01-.658.051 2.205.055-1.978.048 3.655.06-3.403.01-.496.052 2.153.051-2 .055 3.78.055-3.732.012-.331.023.986.132 3.664-.052-5.029.058 4.614.164-4.917-.151 4.957.164-4.717.032 3.554.019 1.761.058-4.996.006-.23.048 3.323.01.315.029-2.487.026-1.844.06 5.74.007.657.051-5.73.004-.37.051 4.362.055-4.028.013-.852.025 1.931.052 4.104.035-4.955.016.027.003-.437.052 4.712.057-4.47.01-.92.061 5.167.007.826.07-5.115.013.964.106-1.731-.07 5.357.076-4.33.08 4.992.03-4.477.003-.662.07 4.232.026-1.278.045-3.477.064 3.608.026 1.702.07-4.257.036 2.977.068-3.209.003-.333.064 2.955.016-.293.006.385.03-.99.07.156.029-1.08.087.706.01-.18.05.454.01-.044.032.182.033.265.045-.568.067-.38.058.008.096 1.033.045-.494.07-.353.055.137.116.58.035-.17.084-.62.067.239.11.482-.094-.581.116.504.125-.649.003.112.116.705-.055-.758.061.629.145-.97-.132.998.138-.793.142 1.676-.055-1.92.068 1.156.01.353.012-1.066.013.236.067-1.3-.01 2.142.046-.208.048-2.49.045 2.746.022 2.4.055-4.94.013.925.006-2.57.052 6.432.054-5.608.106 5.18.007-3.771.045-2.3.05 6.836.01-5.796.007 4.345.035-4.718.071 2.798.106-3.625-.032 6.754.035-6.236.048 6.405.065-3.225.006-1.552.09 2.903.01-.253.032 2.428.01-6.231.019 1.061.003-2.703.051 7.715.055-5.501.016-.034.106 3.556.029 1.571.035-6.328.039 3.31.064-1.96-.052 5.174.097-3.76.096 3.134-.064-3.724.087 2.801.032-3.833.051 4.791.03-3.113.022-1.28.035 2.287.06-1.825.046 3.168.058-3.387.003-1.38.051 4.976.055-3.257.048 2.133-.035-2.63.1 1.562.041 1.705.074-3.482.032 3.068.084-1.52.06.947-.01-1.615.056.527.109-1.65-.068 3.938.071-3.671.048 3.377.064-2.967.055 2.563.087-.363.112-1.79.003.373.071 1.122-.055-1.482.097.809.019-.5.039.855.054-.456.1-.555-.058 1.25.08-.955.052 1.249.051-1.438.016.596.112-.326-.054.869.058-.79.048.703.064-.452.103-.153-.048.43.06-.411.014-.015.01.144.009-.018.026.19.057-.324.03.179.025.124.048-.206.064.116.052-.16.157.203.003.004.03-.096.018-.003.004-.011.051.102.048-.051.013.036.119-.046.135-.072.048.085.501.045.427-.083.829.021.177-.063.362.1 6.093-.027h0" clip-path="url(#p3a139e2da0)" style="fill:none;stroke:#2ca02c;stroke-width:.5;stroke-linecap:square"/><path id="patch_3" d="M38.05 142.76V8.64" style="fill:none;stroke:#000;stroke-width:.8;stroke-linejoin:miter;stroke-linecap:square"/><path id="patch_4" d="M219.195 142.76V8.64" style="fill:none;stroke:#000;stroke-width:.8;stroke-linejoin:miter;stroke-linecap:square"/><path id="patch_5" d="M38.05 142.76h181.145" style="fill:none;stroke:#000;stroke-width:.8;stroke-linejoin:miter;stroke-linecap:square"/><path id="patch_6" d="M38.05 8.64h181.145" style="fill:none;stroke:#000;stroke-width:.8;stroke-linejoin:miter;stroke-linecap:square"/><g id="legend_1"><path id="line2d_16" d="M162.373 15.919h16" style="fill:none;stroke:#ff7f0e;stroke-linecap:square"/><g id="text_15" transform="matrix(.08 0 0 -.08 184.773 18.719)"><defs><path id="DejaVuSans-46" d="M628 4666h2681v-532H1259V2759h1850v-531H1259V0H628z" transform="scale(.01563)"/><path id="DejaVuSans-70" d="M1159 525v-1856H581v4831h578v-531q182 312 458 463 277 152 661 152 638 0 1036-506 399-506 399-1331T3314 415Q2916-91 2278-91q-384 0-661 152-276 152-458 464m1957 1222q0 634-261 995t-717 361q-457 0-718-361t-261-995 261-995 718-361q456 0 717 361t261 995" transform="scale(.01563)"/><path id="DejaVuSans-64" d="M2906 2969v1894h575V0h-575v525q-181-312-458-464-276-152-664-152-634 0-1033 506-398 507-398 1332t398 1331q399 506 1033 506 388 0 664-152 277-151 458-463M947 1747q0-634 261-995t717-361 718 361q263 361 263 995t-263 995q-262 361-718 361t-717-361-261-995" transform="scale(.01563)"/></defs><use xlink:href="#DejaVuSans-46"/><use xlink:href="#DejaVuSans-30" x="57.52"/><use xlink:href="#DejaVuSans-70" x="152.93"/><use xlink:href="#DejaVuSans-72" x="216.406"/><use xlink:href="#DejaVuSans-65" x="255.27"/><use xlink:href="#DejaVuSans-64" x="316.793"/></g><path id="line2d_17" d="M162.373 27.661h16" style="fill:none;stroke:#1f77b4;stroke-linecap:square"/><g id="text_16" transform="matrix(.08 0 0 -.08 184.773 30.461)"><defs><path id="DejaVuSans-6f" d="M1959 3097q-462 0-731-361t-269-989 267-989q268-361 733-361 460 0 728 362 269 363 269 988 0 622-269 986-268 364-728 364m0 487q750 0 1178-488 429-487 429-1349 0-859-429-1349Q2709-91 1959-91q-753 0-1180 489-426 490-426 1349 0 862 426 1349 427 488 1180 488" transform="scale(.01563)"/><path id="DejaVuSans-67" d="M2906 1791q0 625-258 968-257 344-723 344-462 0-720-344-258-343-258-968 0-622 258-966t720-344q466 0 723 344 258 344 258 966m575-1357q0-893-397-1329-396-436-1215-436-303 0-572 45t-522 139v559q253-137 500-202 247-66 503-66 566 0 847 295t281 892v285q-178-310-456-463T1784 0Q1141 0 747 490 353 981 353 1791q0 812 394 1302 394 491 1037 491 388 0 666-153t456-462v531h575z" transform="scale(.01563)"/></defs><use xlink:href="#DejaVuSans-46"/><use xlink:href="#DejaVuSans-30" x="57.52"/><use xlink:href="#DejaVuSans-6f" x="152.93"/><use xlink:href="#DejaVuSans-72" x="214.111"/><use xlink:href="#DejaVuSans-69" x="255.225"/><use xlink:href="#DejaVuSans-67" x="283.008"/></g></g></g></g><defs><clipPath id="p3a139e2da0"><path d="M38.05 8.64h181.145v134.12H38.05z"/></clipPath></defs></svg>