<svg xmlns="http://www.w3.org/2000/svg" xmlns:xlink="http://www.w3.org/1999/xlink" width="307.2" height="230.4" viewBox="0 0 230.4 172.8"><defs><style>*{stroke-linejoin:round;stroke-linecap:butt}</style></defs><g id="figure_1"><path id="patch_1" d="M0 172.8h230.4V0H0z" style="fill:#fff"/><g id="axes_1"><path id="patch_2" d="M38.05 142.76h183.71V8.64H38.05z" style="fill:#fff"/><g id="matplotlib.axis_1"><g id="xtick_1"><g id="line2d_1"><defs><path id="m873898b371" d="M0 0v3.5" style="stroke:#000;stroke-width:.8"/></defs><use xlink:href="#m873898b371" x="82.586" y="142.76" style="stroke:#000;stroke-width:.8"/></g><g id="text_1" transform="matrix(.08 0 0 -.08 80.04 155.839)"><defs><path id="DejaVuSans-31" d="M794 531h1031v3560L703 3866v575l1116 225h631V531h1031V0H794z" transform="scale(.01563)"/></defs><use xlink:href="#DejaVuSans-31"/></g></g><g id="xtick_2"><use xlink:href="#m873898b371" id="line2d_2" x="138.255" y="142.76" style="stroke:#000;stroke-width:.8"/><g id="text_2" transform="matrix(.08 0 0 -.08 135.71 155.839)"><defs><path id="DejaVuSans-32" d="M1228 531h2203V0H469v531q359 372 979 998 621 627 780 809 303 340 423 576 121 236 121 464 0 372-261 606-261 235-680 235-297 0-627-103-329-103-704-313v638q381 153 712 231 332 78 607 78 725 0 1156-363 431-362 431-968 0-288-108-546-107-257-392-607-78-91-497-524-418-433-1181-1211" transform="scale(.01563)"/></defs><use xlink:href="#DejaVuSans-32"/></g></g><g id="xtick_3"><use xlink:href="#m873898b371" id="line2d_3" x="193.925" y="142.76" style="stroke:#000;stroke-width:.8"/><g id="text_3" transform="matrix(.08 0 0 -.08 191.38 155.839)"><defs><path id="DejaVuSans-33" d="M2597 2516q453-97 707-404 255-306 255-756 0-690-475-1069Q2609-91 1734-91q-293 0-604 58T488 141v609q262-153 574-231 313-78 654-78 593 0 904 234t311 681q0 413-289 645-289 233-804 233h-544v519h569q465 0 712 186t247 536q0 359-255 551-254 193-729 193-260 0-557-57-297-56-653-174v562q360 100 674 150t592 50q719 0 1137-327 419-326 419-882 0-388-222-655t-631-370" transform="scale(.01563)"/></defs><use xlink:href="#DejaVuSans-33"/></g></g><g id="text_4" transform="matrix(.08 0 0 -.08 114.392 163.581)"><defs><path id="DejaVuSans-74" d="M1172 4494v-994h1184v-447H1172V1153q0-428 117-550t477-122h590V0h-590q-666 0-919 248-253 249-253 905v1900H172v447h422v994z" transform="scale(.01563)"/><path id="DejaVuSans-69" d="M603 3500h575V0H603zm0 1363h575v-729H603z" transform="scale(.01563)"/><path id="DejaVuSans-6d" d="M3328 2828q216 388 516 572t706 184q547 0 844-383 297-382 297-1088V0h-578v2094q0 503-179 746-178 244-543 244-447 0-707-297-259-296-259-809V0h-578v2094q0 506-178 748t-550 242q-441 0-701-298-259-298-259-808V0H581v3500h578v-544q197 322 472 475t653 153q382 0 649-194 267-193 395-562" transform="scale(.01563)"/><path id="DejaVuSans-65" d="M3597 1894v-281H953q38-594 358-905t892-311q331 0 642 81t618 244V178Q3153 47 2828-22t-659-69q-838 0-1327 487-489 488-489 1320 0 859 464 1363 464 505 1252 505 706 0 1117-455 411-454 411-1235m-575 169q-6 471-264 752-258 282-683 282-481 0-770-272t-333-766z" transform="scale(.01563)"/><path id="DejaVuSans-28" d="M1984 4856q-418-718-622-1422-203-703-203-1425 0-721 205-1429t620-1424h-500Q1016-109 783 600T550 2009q0 697 231 1403 232 707 703 1444z" transform="scale(.01563)"/><path id="DejaVuSans-73" d="M2834 3397v-544q-243 125-506 187-262 63-544 63-428 0-642-131t-214-394q0-200 153-314t616-217l197-44q612-131 870-370t258-667q0-488-386-773Q2250-91 1575-91q-281 0-586 55T347 128v594q319-166 628-249 309-82 613-82 406 0 624 139 219 139 219 392 0 234-158 359-157 125-692 241l-200 47q-534 112-772 345-237 233-237 639 0 494 350 762 350 269 994 269 318 0 599-47 282-46 519-140" transform="scale(.01563)"/><path id="DejaVuSans-29" d="M513 4856h500q468-737 701-1444 233-706 233-1403 0-700-233-1409T1013-844H513q415 716 620 1424t205 1429q0 722-205 1425-205 704-620 1422" transform="scale(.01563)"/></defs><use xlink:href="#DejaVuSans-74"/><use xlink:href="#DejaVuSans-69" x="39.209"/><use xlink:href="#DejaVuSans-6d" x="66.992"/><use xlink:href="#DejaVuSans-65" x="164.404"/><use xlink:href="#DejaVuSans-28" x="257.715"/><use xlink:href="#DejaVuSans-73" x="296.729"/><use xlink:href="#DejaVuSans-29" x="348.828"/></g></g><g id="matplotlib.axis_2"><g id="ytick_1"><g id="line2d_4"><defs><path id="m9f07530e76" d="M0 0h-3.5" style="stroke:#000;stroke-width:.8"/></defs><use xlink:href="#m9f07530e76" x="38.05" y="137.731" style="stroke:#000;stroke-width:.8"/></g><g id="text_5" transform="matrix(.08 0 0 -.08 25.96 140.77)"><defs><path id="DejaVuSans-30" d="M2034 4250q-487 0-733-480-245-479-245-1442 0-959 245-1439 246-480 733-480 491 0 736 480 246 480 246 1439 0 963-246 1442-245 480-736 480m0 500q785 0 1199-621 414-620 414-1801 0-1178-414-1799Q2819-91 2034-91q-784 0-1198 620-414 621-414 1799 0 1181 414 1801 414 621 1198 621" transform="scale(.01563)"/></defs><use xlink:href="#DejaVuSans-30"/></g></g><g id="ytick_2"><use xlink:href="#m9f07530e76" id="line2d_5" x="38.05" y="120.966" style="stroke:#000;stroke-width:.8"/><g id="text_6" transform="matrix(.08 0 0 -.08 20.87 124.005)"><defs><path id="DejaVuSans-35" d="M691 4666h2478v-532H1269V2991q137 47 274 70 138 23 276 23 781 0 1237-428 457-428 457-1159 0-753-469-1171Q2575-91 1722-91q-294 0-599 50Q819 9 494 109v635q281-153 581-228t634-75q541 0 856 284 316 284 316 772 0 487-316 771-315 285-856 285-253 0-505-56-251-56-513-175z" transform="scale(.01563)"/></defs><use xlink:href="#DejaVuSans-35"/><use xlink:href="#DejaVuSans-30" x="63.623"/></g></g><g id="ytick_3"><use xlink:href="#m9f07530e76" id="line2d_6" x="38.05" y="104.201" style="stroke:#000;stroke-width:.8"/><g id="text_7" transform="matrix(.08 0 0 -.08 15.78 107.24)"><use xlink:href="#DejaVuSans-31"/><use xlink:href="#DejaVuSans-30" x="63.623"/><use xlink:href="#DejaVuSans-30" x="127.246"/></g></g><g id="ytick_4"><use xlink:href="#m9f07530e76" id="line2d_7" x="38.05" y="87.436" style="stroke:#000;stroke-width:.8"/><g id="text_8" transform="matrix(.08 0 0 -.08 15.78 90.475)"><use xlink:href="#DejaVuSans-31"/><use xlink:href="#DejaVuSans-35" x="63.623"/><use xlink:href="#DejaVuSans-30" x="127.246"/></g></g><g id="ytick_5"><use xlink:href="#m9f07530e76" id="line2d_8" x="38.05" y="70.671" style="stroke:#000;stroke-width:.8"/><g id="text_9" transform="matrix(.08 0 0 -.08 15.78 73.71)"><use xlink:href="#DejaVuSans-32"/><use xlink:href="#DejaVuSans-30" x="63.623"/><use xlink:href="#DejaVuSans-30" x="127.246"/></g></g><g id="ytick_6"><use xlink:href="#m9f07530e76" id="line2d_9" x="38.05" y="53.906" style="stroke:#000;stroke-width:.8"/><g id="text_10" transform="matrix(.08 0 0 -.08 15.78 56.945)"><use xlink:href="#DejaVuSans-32"/><use xlink:href="#DejaVuSans-35" x="63.623"/><use xlink:href="#DejaVuSans-30" x="127.246"/></g></g><g id="ytick_7"><use xlink:href="#m9f07530e76" id="line2d_10" x="38.05" y="37.141" style="stroke:#000;stroke-width:.8"/><g id="text_11" transform="matrix(.08 0 0 -.08 15.78 40.18)"><use xlink:href="#DejaVuSans-33"/><use xlink:href="#DejaVuSans-30" x="63.623"/><use xlink:href="#DejaVuSans-30" x="127.246"/></g></g><g id="ytick_8"><use xlink:href="#m9f07530e76" id="line2d_11" x="38.05" y="20.375" style="stroke:#000;stroke-width:.8"/><g id="text_12" transform="matrix(.08 0 0 -.08 15.78 23.415)"><use xlink:href="#DejaVuSans-33"/><use xlink:href="#DejaVuSans-35" x="63.623"/><use xlink:href="#DejaVuSans-30" x="127.246"/></g></g><g id="text_13" transform="matrix(0 -.08 -.08 0 14.116 105.261)"><defs><path id="DejaVuSans-66" d="M2375 4863v-479h-550q-309 0-430-125-120-125-120-450v-309h947v-447h-947V0H697v3053H147v447h550v244q0 584 272 851 272 268 862 268z" transform="scale(.01563)"/><path id="DejaVuSans-72" d="M2631 2963q-97 56-211 82-114 27-251 27-488 0-749-317t-261-911V0H581v3500h578v-544q182 319 472 473 291 155 707 155 59 0 131-8 72-7 159-23z" transform="scale(.01563)"/><path id="DejaVuSans-71" d="M947 1747q0-634 261-995t717-361 718 361q263 361 263 995t-263 995q-262 361-718 361t-717-361-261-995M2906 525q-181-312-458-464-276-152-664-152-634 0-1033 506-398 507-398 1332t398 1331q399 506 1033 506 388 0 664-152 277-151 458-463v531h575v-4831h-575z" transform="scale(.01563)"/><path id="DejaVuSans-75" d="M544 1381v2119h575V1403q0-497 193-746 194-248 582-248 465 0 735 297 271 297 271 810v1984h575V0h-575v538q-209-319-486-474-276-155-642-155-603 0-916 375-312 375-312 1097m1447 2203" transform="scale(.01563)"/><path id="DejaVuSans-6e" d="M3513 2113V0h-575v2094q0 497-194 743-194 247-581 247-466 0-735-297-269-296-269-809V0H581v3500h578v-544q207 316 486 472 280 156 646 156 603 0 912-373 310-373 310-1098" transform="scale(.01563)"/><path id="DejaVuSans-63" d="M3122 3366v-538q-244 135-489 202t-495 67q-560 0-870-355-309-354-309-995t309-996q310-354 870-354 250 0 495 67t489 202V134Q2881 22 2623-34q-257-57-548-57-791 0-1257 497-465 497-465 1341 0 856 470 1346 471 491 1290 491 265 0 518-55 253-54 491-163" transform="scale(.01563)"/><path id="DejaVuSans-79" d="M2059-325q-243-625-475-815-231-191-618-191H506v481h338q237 0 368 113 132 112 291 531l103 262L191 3500h609L1894 763l1094 2737h609z" transform="scale(.01563)"/><path id="DejaVuSans-48" d="M628 4666h631V2753h2294v1913h631V0h-631v2222H1259V0H628z" transform="scale(.01563)"/><path id="DejaVuSans-7a" d="M353 3500h2731v-525L922 459h2162V0H275v525l2163 2516H353z" transform="scale(.01563)"/></defs><use xlink:href="#DejaVuSans-66"/><use xlink:href="#DejaVuSans-72" x="35.205"/><use xlink:href="#DejaVuSans-65" x="74.068"/><use xlink:href="#DejaVuSans-71" x="135.592"/><use xlink:href="#DejaVuSans-75" x="199.068"/><use xlink:href="#DejaVuSans-65" x="262.447"/><use xlink:href="#DejaVuSans-6e" x="323.971"/><use xlink:href="#DejaVuSans-63" x="387.35"/><use xlink:href="#DejaVuSans-79" x="442.33"/><use xlink:href="#DejaVuSans-28" x="533.297"/><use xlink:href="#DejaVuSans-48" x="572.311"/><use xlink:href="#DejaVuSans-7a" x="647.506"/><use xlink:href="#DejaVuSans-29" x="699.996"/></g></g><path id="line2d_12" d="M26.916 137.73h18.65l.278-48.213.556-6.768.279-1.44.278.882 1.114 9.783.278.296.278-.887 1.114-5.103.278-.871.278-.446.279-.018 1.67 1.089.278-.146 1.392-2.063.278-.225.279.154.278-.016.278-1.011.835-6.58.557 1.75.278-.318.279.44.835 5.918.278.72.278-.496.279-1.161.278-.5.278.674.836 3.164.278.027.278-.757.279 52.123h5.567L66.72 24.42l.835 14.715.278 2.18.279.698.278.003.557-.174.278.133.278.436.279.918 1.113 5.752.278-.93.557-2.825.279-.537.278.164.278.652.557 2.173.835 3.838 1.113 3.673.557 2.532.278.09.557-1.774.278-.12.279.443 1.392 3.595.835 5.077 1.948 12.628 1.392 5.835 1.113 3.656 1.949 7.52.278.674.278.322.279-.166.278-.897.557-3.598.556-4.192.279-1.34.278-.52.278.06.835.978.279.074.835-.17.278.233.557 1.087.557 1.707.278 1.577 1.113 9.471.279.8.278-.475.278-1.76.835-6.86.279-.617.278.133.557 1.218.835 2.636.557 1.585 1.391 2.844.835 1.944.557.877.835 1.167.557.892.278.076.279-.727.278-2.116.278-4.266 1.114-26.542.278-1.212.278.288.279-1.365.278-2.242.278.094.279 3.88.835 17.464.556 6.687 1.114 9.682.278 1.765.279.547.278-.767.557-2.094.278.752.835 8.616.278 24.756h5.846l.278-65.956.278 2.671.557 9.613.278 2.273.279-2.251.556-7.873.557-3.002 1.67-7.56.557-.865.278-.324.279-.81.278-2.019.557-6.13.278-1.65.278-.42.557.304.278-.203.279-.721.278-1.338 1.113-8.063.279-.677.557-.498.278.015.278.37.557 1.65 2.505 9.043.835 4.85.557 3.979.556 6.233 1.67 26.154.557 7.04.279 2.253.278.723.278-1.109.835-6.684.279-.656.835-1.11.278 42.748h.278l.279-47.448.278-1.709.278-4.152.836-16.774.278-1.145.278 1.662.557 4.478.278 1.11.279.133.278-.684.835-3.806.835-4.068.557-1.775.556-.914.557-.385.557-.111.557.061.556.349.557.78.557 1.642.556 2.804.557 4.899.835 10.294.278 1.054.279-1.47 1.113-17.41.279-1.916.278-.13.278 1.874.279 4.853.835 28.698.278 2.637.278-.411.557-3.746.278-.514.279 1.671 1.113 13.89.278.897.279-1.454.278-5.168.279-10.018.556-28.599.279-8.328.278-2.03.278 2.209.835 12.058.835 7.78.557 3.695.557 2.197.556.875.279.312.278.669.278 1.621.279 3.282.835 13.544.278.619.279-2.63.556-8.898.279-2.312.556-1.28 1.114-5.687.278.128 1.392 5.126.278.13.278-.133.557-.516.279-.07.556.14.835-.717.557.07.278-.211 1.114-1.96.278.03.278-.122.557-.995 1.114-2.846 1.67-4.75.278-.156.557.48.278-.56.278-.894.279-.425.278.174.557 1.33 1.113 2.737.278.603.279.896 1.113 4.82 1.114 2.56.835 1.895.835 1.383.556.693 1.114.923.556.213 1.392.033.835-.243.557-.05.278.258.279.794.835 5.089.278.098.278-1.122.557-3.113.278-.87.279-.348.556.035.557.035 1.114-.108.835.134.278.13.278.261.279.565.278 1.183.278 2.225.557 5.75.278.728.279-1.135.835-8.095.557-9.411.278-5.254.278-2.857.557-2.056.278-1.848.557-5.785.278-.557.279 2.68.835 14.713.556 4.616.557 2.475 1.67 3.945.557.798.557.273.556.16.557.504 1.67 2.592.835 1.353.278.29.279.078.278-.238.835-1.54.557 1.484.278-.83.279-4.037.835-19.082.278-3.361.278-1.38.279.187.835 2.325.278.038.278-1.113.279-1.751.278 62.704H231.4" clip-path="url(#pead2ab4a0d)" style="fill:none;stroke:#1f77b4;stroke-linecap:square"/><path id="line2d_13" d="M26.916 137.73h16.701l.278-46.28.279-2.667.278-.733.278 1.702.557 5.012.278 1.032.279-.665.278-2.534.557-8.151.278-1.104.279 1.682.556 4.53.557 2.115.278.037.279-.793.835-3.533.556-.947.557-.858 1.948-4.36.279-.329.278-.056.279.225.278.082.278-.825.835-6.304.279-.018.278 1.507.557 4.177.278-.311.278-2.758.557-6.826.278.403.279 3.27.556 11.937.279 52.342h7.515L66.442 31.2l.835 12.8.278 2.248.278 1.287.835 2.383 1.392 5.877.835 2.967.278.427.279.704.278.283.279-.867.278-1.37.278-.726.279.029.556 1.127.557 1.13.278.259 1.114.224.278.522.278.965 1.114 5.467.278.703.278-.436.836-5.3.278.935 1.67 12.768.557 1.753.835 1.644.556 1.96 1.114 5.348.556 2.23.836 4.536.278-.12 1.113-5.705.557-1.91.557-1.174.278-.128.278.117.557.675.835 1.118 1.949 2.434.278.677.278 1.216.835 6.404.279.403.278-1.27.557-3.908.278-1.306.278-.7.279-.248.278.148.278.578 1.114 3.11 1.113 2.338.557 1.286.557 1.8.278 1.214.835 5.75.278.265 1.114-2.668.278-.041.278.368 1.114 2.877.557.741.835.875.835 1.342.556 1.665.557 1.468.278.07.279-.378.556-1.493.557-1.768.278-.112.279.816.557 2.768.278 25.06h7.515l.279-39.76.278 1.873.278.975.279.026.278-2.068.278-6.246.557-19.898.278-5.329.279-1.849.278-.756.557-2.8.835-4.41.557-2.135 1.113-3.264.835-2.987.278-.55.279-.156.835.306.278-.374.557-1.123.278-.166.278.293.279.75 2.783 10.914.835 1.673.557 2.14.557 3.629.556 6.72.557 7.404 1.114 7.532.278.912.278-.984.279-1.52.278-.25.278 1.272.279 50.206h2.505l.278-72.438.557-4.258.278.23.278 1.206.279.534.278-.422.279-.214.835 2.302.278-.202.557-2.05 1.113-4.842.557-1.021.556-.718.835-2.028.279-.124.278.182.557.796.835 1.817.557 1.991.556 1.874.557.972.278 2.138.835 14.246.279.421.278.097.557 2.318.278 1.201.278 1.903.836 9.008.278 1.333.278-.892.279-3.516.556-10.38.279-2.684.278 61.22h3.062l.278-36.01.557-6.375.278-1.91.279-2.967.835-15.22.278-1.401.278 1.135.835 5.35.557 1.956 1.392 4.14.278 1.893.278 3.481.836 13.814.278.661.278-2.816.835-15.362.835-9.062.279.949.556 4.777.279 1.513.278.823.557.768.556.45.835.481.836 1.077.278-.06.557-1.26 2.226-5.507.557-1.002 1.67-4.036.279-.318.278.056.278.546.279.835.278.47.557-.738.278-.06.278.216.835 1.094.279.22.278.368.557 1.788.835 2.948.835 2.287 1.113 2.3 1.392 2.725.557.49.835.611 1.391.973.557-.036 1.392-.623.557-.107.278.249.278.82.835 4.536.279-.216 1.113-4.72.278-.295.279.095.556.603.279.421.278.721.835 3.268.279.075.556-1.297.557-1.246.278-.3.279.075.278.723.278 1.685 1.114 10.202.278.683.278-.722.279-3.21.835-18.382.278.636.557 5.052.278-.1.279-2.91.556-7.764.279-.836.278.383.278-.044.279.57 1.113 9.415.557 1.865 3.34 9.631 1.948 3.33.835.66.279.046.278-.17.835-1.245.279.942.278 1.91.278 28.536H231.4" clip-path="url(#pead2ab4a0d)" style="fill:none;stroke:#ff7f0e;stroke-linecap:square"/><path id="line2d_14" d="m38.047 120.962.448.017.912-.022.452.02.286-.006 7.487.108.056.048.049-.078.121-.376.046.07.135.637.066-.394.053-.246.066.2.038-.027.017-.062.06-.14.045.17.059.504.028.128.052-.531.049-.355.066.257.094-.209-.08.293.107-.226.105.943.042-.42.007-.059.055-.71.066.296.073-.196-.059.336.094-.125.01-.064.018.183.004-.002.066.86.059-.74.048-.714.074.373.03.152.057-.259.02.036.042.608.049.68.052-.724.077-1.032.041.562.014.2.08-.402.004-.024.031.504.007-.025.08.98.035-.849.07-1.066-.06 1.182.108-.6.007.534.063-.792.045.733.007-.077.003.04.042 2.245.042-3.888.003-.45.08 3.197.018-1.736.003.015.004-.4.059-1.331.024 2.855.028-1.866.018.573.073 4.212.027-3.435.025-6.849.028 11.66.062-8.779.014 3.165.014 3.364.028-6.49.066 3.409.017-2.367.032 4.837.035-.253.017 2.464.028-9.698.003-3.446.028 15.916.073-6.419.06-5.628-.032 8.236.083-4.023.004-.005.028-1.527.031 4.148.024-1.636.087 9.275-.027-20.199.045 14.414.024-11.913.01 13.807.08-8.914.022 6.265.097-1.79.08-13.571-.014 17.253.035-6.563.007 12.89.024-19.527.08 8.968.021-7.562.024 10.68.067-3.7.02-1.719.06 6.706.013-.809.05 8.38-.029-27.34.063 11.635.003-4.585.01 17.264.091-4.938.028-9.84.09 5.811.056 5.825.018-12.83.003-8.867.028 29.37.077-16.201.003-.098.06 6.792-.011-9.79.062 5.205.122 6.664-.076-9.282.083 8.156.01-19.916.028 28.047.077-13.766.049-5.942.01 9.962.042-3.528.111 3.687-.055-5.668.062 4.532.018 4.998.007-15.621.003-9.04.028 30.15.076-13.344.05-5.554-.032 9.552.09-4.38.122 5.44-.077-6.946.084 2.972.01-13.832.028 22.481.07-6.463.038-6.547.077 2.68.024-.198.097 7.987.025-12.484.094 6.394.017-2.922.087 2.95.01-1.546.105 4.751-.063-5.458.07.862.017-3.906.014 6.123.077-1.812.003.135.01-2.736.067 1.534.003-.494.094 1.91.049 1.62.024-3.573.035 2.132.06-2.19.065.337.14 2.795.125-2.492-.105 2.595.108-2.454.094 1.492-.062-1.504.083 1.138.02-1.04.057 1.663.01-.743.003 1.225.063-2.05.045 1.227.021-1.7-.007 2.511.105-1.9.02 1.723.053-2.431.024 1.154.042-1.546.007 2.646.062-1.488.035 1.59.007-2.644.07 1.987.007-1.427.104.282.042 1.235.007-1.76.062 1.177.056-.979-.007 1.514.063-.971.055 1.596-.007-2.63.063 1.255.084-1.494-.007 2.698.01-1.027.004 1.255.03-2.705.077 1.856.08-1.53-.006 1.876.034-1.296.018 2.365.017-4.176.077 2.147.08-.819-.007 1.645.038-1.028.1 1.388-.09-2.337.101 1.27.053 1.21-.007-2.55.062 1.232.098 1.183.007-2.21.017 1.991.094-.51.09-1.146-.007 1.543.028-.575.018-1.496.007 2.466.09-1.753.08 1.276.007-1.412.024.535.056-.537.004 1.02.045-1 .062 1.78.032-2.324.007 2.472.073-1.917.007 1.408.045-1.456.06 1.187.058-1.386-.007 1.965.06-1.468.059 1.455.007-1.963.045 1.18.07-1.18-.008 1.893.046-1.51.055 2.165-.007-3.257.063 1.781.02-1.043.067 1.86.02-1.303.109 1.343-.066-1.854.07.938.003-1.377.007 2.546.1-1.749.042-.406-.007 1.757.021-.888.018 1.689.007-3.177.087 2.225.027-2.198.007 3.078.08-1.475.056-1.43.007 2.808.045-1.847.07 1.576.007-2.404.031.666.108 1.375-.084-1.515.087 1.16.101-1.727-.017 2.807.024-.722.025-1.934.066 2.45.031-1.621.1 1.574-.044-2.351.048.418.025-.538.035 2.11.041-.472.049-1.966-.007 3.149.063-1.756.07 1.553-.008-2.847.049 2.004.063-1.715-.05 2.104.098-.541.056-1.369.028 1.886.031-1.268.042 1.73.007-2.766.063 1.605.045-2.034.007 3.863.059-3.024.035-.498.076 3.18.087-4.236-.007 4.979.032-3.98.038 3.589.045-4.18.031 3.917.042-4.079-.007 4.172.08-3.608.108-.146.007 3.795.09-4.175-.006 4.517.03-2.798.067 2.084-.007-3.297.056 3.246.059-5.16-.007 7.16.059-5.634.083 5.016-.017-5.636.045.844.007 4.183.025-4.724.087 3.254.08-2.14-.018 2.702.045-.456.105-2.71-.01 3.2.013-.382.056 2.633-.007-7.145.056 1.364.08 5.412-.007-6.397.038 2.49.004-2.05.006 4.957.101-3.965.004 3.895.007-4.56.1 2.738.063.978-.01-2.607.014 1.016.09-2.613-.007 5.881.025-2.07.111-3.17-.035 3.875.039-3.85.003 5.155.007-6.256.097 3.523.004-3.326.007 6.314.1-3.493.056 2.937-.007-5.506.063 4.022.07-3.084-.007 3.779.048-2.863.018 3.733.007-5.552.087 4.292.066-2.696.045.29.097 4.148-.006-6.86.02 4.364.067-3.655-.007 5.579.052-3.347.055 3.027.007-4.662.05 3.43.016-5.348-.006 7.888.1-5.365.025-1.124.09 5.992.007-5.833.108 1.02.06 4.037.006-4.706.045 3.652.108-2.77-.097 2.88.1-1.66.043 1.987.006-3.745.06.331.104 3.128-.007-3.163.02 2.33.057-4.455-.007 7.234.059-5.55.042 5.068-.007-6.177.076 2.18.004-.172.003 2.44.056-1.205.108 1.766-.032-3.335.035 2.843.042-3.81-.007 5.253.076-2.676.094 1.76-.007-3.598.025 2.145.1-2.716-.076 4.51.08-2.436.004 2.995.007-5.117.097 1.657.07 2.312-.056-3.222.094 1.601.1-1.586-.027 3.128.031-1.798.052 2.864.007-5.323.05 2.331.023 4.326.007-7.546.06 4.573.017-2.629-.007 3.267.1-2.277.07-.623-.006 2.493.01-.037.038.761.007-3.703.038 2.473.105.924.007-3.25.007 3.087.104-1.453.021-1.154-.007 2.275.094-.824.028.696-.018-1.914.094.524.063-.4-.007 1.664.049-.761.038.849.007-1.772.06 1.208.058-1.198.007 1.708.045-.93.004-.516.007 1.29.097-.43.028-1.62-.01 2.098.014-.538.003 1.206.007-2.377.101 1.334.097-.86-.007 1.113.021-.496.01-.348.004.48.049.893-.007-2.116.063 1.165.1-.664-.048 1.02.052-.879.06-.314.055 1.656.083-2.492.039 1.278.01-.367.004.417.041 1.74.06-2.772.01 1.22.038-1.72.06 2.77.006-.541.045 1.648.053-4.041.121 4.25.007-2.596.09-3.754-.076 8.7.098-5.742.097 6.596-.01-8.583.017 1.669.07-3.573-.01 7.797.045-2.174.083 4.49-.01-8.413.017 1.8.07-3.664-.01 8.492.048-2.511.09-4.78-.01 9.379.031-6.099.025-3.157.006 4.91.004 2.968.01-9.578.098 7.637.097-7.293-.076 9.8.097-4.717.056 3.836-.032-5.872.056 1.98.094-4.122-.08 8.583.094-4.202.09-3.218-.027 6.328.031-5.136.007 6.071.08-7.533.024 3.42.052 2.862-.034-5.022.059 1.261.038-2.14-.024 6.31.094-3.57.028-1.8.034 4.59.014-.344.004.06.003-.255.042-5.15-.024 6.25.097-3.611.06 3.21-.036-4.694.06 2.459.038-3.877-.025 6.29.098-3.374.066 3.209-.042-4.525.063.573.038-2.357-.024 6.155.094-3.023.066 3.202.024-4.333.038-1.925-.024 5.35.087-1.33.101-2.735-.028 4.965.035-2.068.017.994.01-4.883.08 3.651.084-2.333-.028 4.106.05-1.26.003.57.014-4.155.083 2.789.014-1.294.087 2.252.007.615.066-3.35.031 1.78.014-1.334.06 1.823.027-.357.01.59.074-2.375.028 2.04.02-1.689.063 2.01.028-.77.01.655.07-1.878.028 1.287.014-1.226.066 2.359.031-1.183.01.558.025-2.04.07 1.296.013-.641.06 2.347.03-1.75.011.857.021-2.9.08 2.225.08-1.394-.028 3.47.042-1.793.007.575.021-3.639.084 3.173.114-3.703-.066 6.32.077-4.622.125 4.92-.035-5.418.039 5.305.062-6.965.073 4.175.06 3.266-.032-6.214.052 1.54.049-2.82.031 6.152.032-3.434.066 5.123-.028-6.838.056.08.045-1.044.02 5.31.108 2.973-.027-7.879.038 7.357.063-7.95.073 3.808.062 4.92-.035-8.531.08 3.61.01-.953.015-2.814.028 7.846.073-7.552.035 8.67.07-8.924.034 6.181.066-5.526.031 8.37.004.199.017-4.392.052-4.622.028 7.367.035-5.636.077 7.428-.032-8.537.056.23.003-.528.067 6.515.003.8.08-6.9.014 2.786.017 5.566.032-8.85.052 1.178.017 6.442.08-7.212.004-.093.007 1.632.024 6.698.049-9.273.035 2.292.017 5.892.042-7.273.038.075.028 6.236.02 2.38.035-10.308.056 8.647.007.693.031-7.868.021 1.828.105-3.378-.035 10.685.042-7.884.055 6.861.032-8.074.024 1.406.017-.647.046 7.79.003 1.046.035-11.175.066 9.21.024-7.643.087 6.794.01 2.447.036-10.573.034 3.233.004-.072.003.97.018 4.708.028-7.428.066 3.05.003-.047.004.574.027 5.665.035-10.583.06 8.351.045-6.92.07 5.855.013 2.667.035-9.796.063 7.623.041-6.083.07 4.53.02 3.396.032-9.026.06 6.538.003.046.007-1.118.01 1 .063-4.864.045 4.615.007 1.522.052-6.42.045 3.727.08-2.606-.066 3.102.108-1.844.052 1.492.039-1.644.02.275.004.005.007-.106.066-.629-.049.665.094-.049.049 1.07.056-1.097.003.04.09-.66.021.467.06 1.163.055-.957.07-.743.042.582.041 1.03.073-.831.018-.236.052-.602.049.826.059.862.052-.756.077-.872.038.69.038.944.073-.79.08-.84.039.702.059.927.052-.816.087-.798.031.578.063 1.066.052-.881.083-.774.035.548.063 1.106.052-.824.084-.807.038.589.062 1.12.053-.993.003.014.021-.365.045-.434-.028.44.077-.062.07 1.393.048-.935.08-.835-.073.85.115-.437.066 1.561.052-.783.018-.939.055-.704.021 1.297.028-.862.031 2.384.07-2.831.017 1.917.01.26.011-1.104.004.05.042-2.015-.025 2.78.087-.238.004-.04.003.19.018 2.598.045-5.303.052 4.226.02-1.614.05-3.402.059 2.325.031 4.643.028-7.93.052 3.942.09-2.615-.073 6.041.094-3.637.07 4.82-.056-7.808.077 3.304.007-6.747.073 10.578.031-5.852.073-1.199.042 5.696.049-12.144.028 15.655.03-4.144.053 1.942-.02-8.218.069 3.994.014-2.827.076 7.458.025-13.479.027 16.797.077-7.688.007 3.708.031-6.242.07 1.432.1 9.894-.027-19.18.045 11.68.038-4.678.028 6.555.045-3.456.032-1.87.09 7 .014-14.852.028 19.159.077-10.172.006 4.448.039-7.034.066 3.767.059 4.93.02-11.247.004-5.012.028 21.776.077-12.615.01 8.347.035-10.189.066 4.746.017-3.843.046 8.162.003.732.025-15.223.003-3.72.028 25.232.07-12.598.052-4.433-.035 11.492.087-5.759.003.046.01-.51.008.232.094-13.701-.028 19.164.045-8.239.01 11.91.056-14.946.045 4.565.021-4.984.028 7.646.063-3.804.052 7.441.024-9.865.007-9.058.028 25.612.073-12.574.004-.131.003 2.696.004 2.293.038-12.18.062 6.915.039-1.975.024 6.268.01-1.33.074 9.752-.028-24.548.048 11.407.105-6.538-.038 10.998.041-7.974.025 8.027.09-.153.07-15.28-.014 16.19.035-4.652.007 12.336.027-19.294.077 7.535.017-10.243.028 15.344.07-8.688.087 8.688.007-4.702.007-12.856.028 25.172.076-17.6.073 11.248-.028-15.932.08 12.041.025-5.68.08 9.93.02-19.608.028 27.31.08-16.386.056 5.62-.014-10.483.073 9.496.028-4.845.077 4.903.062 7.54-.028-22.16.06 7.401.003-1.495.01 11.385.084-4.696.063 1.174.027-4.282.01 1.913.004-.27.007 2.064.066-.158.074 3.379-.028-9.576.048 2.391.007-1.332.025 6.16.073-3.324.007-.29.035 2.344.052-1.257.08 2.376-.042-2.639.08.738.02-2.447.029 4.32.048-1.692.007.856.028-3.322.06.765.027 2.307.136-.867.063-1.92-.028 3.66.052-.95.038-1.632.105-.604-.028 1.725.031-1.297.118 1.774.004-.195.108-.992-.028 1.456.031-1.183.042.564.035-1.334.031.66.066-.63.021.895.097.374-.066-.949.077.264.08 1.416.028-1.499.087-.544-.073 1.904.097-1.525.077.756-.06-1.082.098.729.104.726-.07-1.44.074 1.038.003-.547.056.89.049-.144.003.156.084-1.125.01.664.01-1.193.028 1.39.077-.944.055.92-.038-.983.101.916.066.304-.055-1.021.08.481.013.475.101-1.17.108.63-.031-.801.035.669.007-.756.076 1.18.032-.962.066 1.239.055-.127.09-1.285.025.791.004-.006.041-1.177.028 1.595.038-.743.094.967-.01-1.32.035 1.069.031-.989.031 1.75.053-1.468.034.869.035-1.524.035.65.007-.64.073 1.244.028-.392.007.024.003-.03.115 1.087-.076-1.714.09 1.66.104-1.902.025.874.003.404.08-1.206.028.944.115 1.484-.101-2.062.104 1.702.05-3.507.03 4.487.039-2.823.01 1.649.031-2.573.063.07.004-.294.038 2.596.045-.847.06 4.658.02-4.469.007-8.474.028 15.997.076-8.484.05-3.296-.015 5.82.073-2.36.007 1.21.115 4.891-.08-8.108.087 7.757.003.117.004-2.972.007-14.491.028 23.703.076-11.98.049-6.315-.028 11.453.09-5.386.042-1.822.087 8.917.014-18.865.028 26.361.087-15.99.007 9.074.028-15.397.076 10.091.018-4.904.076 6.166.007-.332.063 11.134-.028-26.73.06 10.84.006-5.902.01 15.794.088-2.593.003.942.028-11.68.049 2.483.003-.19.021 2.896.08 6.714.01-16.742.004-4.01.028 28.12.07-12.531.038-8.642L90 125.92l.083-4.943.038-4.13.087 9.198.014.381.003-2.524.01-16.272.029 25.044.073-10.559.02 4.54.015-12.702.07 5.819.003-.107.007 2.3.107 3.302-.076-7.878.083 7.68.014.64.007-8.109.007-10.826.028 24.248.073-8.056.021 4.563.024-13.095.06 4.969.003-1.576.077 5.785.024-3.23.014 5.476.031-14.904.004-2.359.027 19.542.07-10.871.007 9.294.038-10.513.066 1.63.122 8.229.014-1.402.004.213.003-2.444.007-13.05.06 17.423.04-7.656.025 6.122.021-6.647.066 1.353.049-.65.073 5.384.038-9.585.056 10.308.042-6.677.024 3.806-.01-3.807.104 3.473.028-2.443.073 3.035.035 1.245.017-3.465.004-2.303.059 4.908.045-1.051.01-3.097.087 3.181.018-1.052.01-.1.032-.814.059 1.498.014.986.024-1.18.024.255.007-1.882.105 1.099.017.25.02-.732.08.612.025-.43.039.578.038-.032.108.401-.087-.779.09.608.066-.83.052.295.09.19-.051-.29.07.077.003-.001.003.08.105.226-.042-.368.052.265.056.236-.035-.248.087.012.045-.232.066.202.018-.123.024.218.07-.107.007.061.059-.172.038.044.007-.065.09.194.032.158.062-.255.014.052.06-.104-.032.117.084-.05.017.069.063-.1.034.047.063-.133.004-.014.066.197.08.088-.063-.124.087.04.06-.173-.036.232.094-.14.143-.198-.07.263.073-.242.108.305-.041-.338.048.09.028-.205.038.43.007.262.073-.886.025.315.09-.204-.045.89.063-.672.007-.038.01.247.007.192.063-.669.02.12.028-.48.014.954.098 1.183-.063-1.348.066.81.01-3.122.056 4.102.046-1.831.013-.85.028 1.402.007.464.032-2.48.062 1.035.01-.566.046 1.812.035-.73.038 3.18.024-4.604.007-6.32.032 10.953.07-3.823.02 4.304.042-6.656.052 4.548.014-4.495.104 3.053.08-9.49-.035 13.903.056-3.08.007 4.627.06-9.765.041 4.839.014-4.577.049 5.748.048-1.887.004.06.028-.842.007-.623.087 2.862.01.81.042-5.762.007-7.16.028 17.5.07-6.537.072 3.808-.028-10.766.06 3.743.003-.305.035 3.892.038-2.04.09 3.37-.045-3.682.07 2.62.035-12.117.024 15.43.007 3.9.02-15.67.077 8.02.007-6.745.035 10.534.066-3.537.004.129.01-3.035.056 1.971.007-1.864.094 4.056.062 6.844-.027-22.733.045 13.31.007-8.508.024 13.755.077-7.103.017 6.284.028-7.4.063 2.292.003-1.26.09 3.606.018-2.664.083-10.939-.038 15.192.042-8.683.024 15.745.021-17.172.066 6.948.049 5.17-.031-11.357.097 6.962.003.049.007-.9.025-2.111-.01 3.902.093-1.473.056 2.166-.028-4.111.08 1.577.007-10.313.028 20.646.077-11.587.03-2.294.025 6.588.004 2.125.034-8.046.063 1.502.004-.095.003 1.403.024 1.846.014-3.211.07 1.322.017-1.182.025 3.406.003.362.052-5.708.004-3.878.031 15.588.073-10.078.031-1.31.028 7.478.042-4.398.024 1.618.032-2.804.055 1.353.073-1.425-.03 2.457.048-.35.056 1.93.02-6.461.004-3.86.028 15.723.076-9.434.06 5.11-.028-6.343.094 3.904.073-2.473.041 1.007.042-.858.035 2.036.031-1.14.014 1.53.035-4.123.003-2.547.032 11.25.073-7.443.09-.71-.031 5.113.038-3.878.025 2.506.03-2.644.057.617.01-.62.028 1.538.059-.613.06 1.197-.025-1.877.07.696.01-4.204.028 9.888.062-5.676.073 2.478.028-4.238.007.886.024 2.018.087-1.568.021.31.087 1.219-.038-1.95.056.725.09-2.99-.055 4.556.073-2.606.01 5.179.024-6.478.077 2.13.017-.547.014 2.363.004.06.02-1.558.008-1.497.03 2.684.074-1.514.07.764.024-1.31.003-.13.025 1.657.045-.428.104 3.071-.028-5.834.035 2.837.018-2.2.024 3.333.073-2.226.014 2.263.104-1.62.01-.488.025.866.07-.115.038-.676.017.842.053-.172.104 1.288-.028-2.712.038 1.782.108-1.233-.034 1.299.041-.489.018.706.041-1.139.05.518.02-.545.09.411.004.011.024-.264.004-.065.055.472.032-.225.097.827-.031-1.543.049 1.041.1-.72-.034 1.042.045-.6.017.299.053-.59.041.338.028-.23.087.142.07.283-.046-.42.108.325.073-.411.042.341.08.018-.035-.16.042.09.073-.167.035.164.07.27-.042-.349.066.095.02-.36.032.556.06-.305.017.402.027-.606.067.364.017-.361.045.451.052-.192.018.138.038-.22.052.091.021-.08.038.12.05-.027.184.048.281-.01.09.013-.024-.057.046.026.15-.103.038.09.08.1.024-.106.09-.079-.034.093.059-.046.122.07.01-.013.177-.038.282.039.703-.008.17.024.164.017.164-.07.135.073.021-.012.185-.06.215.047h.14l.087-.044.003-.008.031-.026.07.064.003-.001.341.031.192-.026.003.007.122.03.02-.02.057.058h.027l.188-.105.007.012.15.017-.136-.034.143.018.09-.05-.073.064.101-.03.16.08.004-.009.055-.085-.045.108.1-.04.098.022-.087-.086.09.059.067-.09-.056.144.098-.04.094-.148-.007.258.01-.095.094.195-.007-.439.01.155.098.404.007-.73.06.782.006-.79.045.774.007-.841.007.848.098-.173.017.166-.007-.76.077.46.055-.64.007 1.12.049-.8.083.449.028-.155.035-.344.007.581.056-.21.031.374.007-.913.066.745.08-.896-.007 1.166.038-.603.098.328.007-.6.007.51.003-.003.105.144.007-.815.034 1.254.007-1.573.073.969.05-.785.006 1.206.049-.81.073.822-.007-1.25.045.653.066-.623-.003 1.03.007-1.028.045 1.536-.007-1.917.073 1.365.045-1.091-.007 1.442.077-.765.042.86.007-1.814.059 1.177.003-.943.049 1.26.059-.698.066-.263-.031.819.056-.12.017.278-.007-1.197.097.804.014.307.007-.922.06.556.02-.841.028 1.49.06-.385.003-.018.059-.998-.007 1.27.056-.963.09 1.478-.007-2.268.024 1.798.032-1.449-.007 1.576.087-.268.038.176-.007-1.396.028.92.09-1.02-.003 1.559.024-.644.032.475.007-1.278.052.628.073-1.414.007 2.998.031-2.149.073 1.976.007-2.754.031 2.065.084-1.745-.007 2.21.035-2.074.02 2.542.008-3.242.083 1.952.06-1.478-.008 2.368.039-.401.017.317-.007-2.179.087 1.272.083-1.427-.006 2.3.038-1.864.007 1.711.062-1.922.042 1.526.101-1.532-.017 1.952.031-1.711.031 1.852-.007-2.248.087 1.065.042 1.154-.007-2.174.073 1.499.108.561.007-1.821.108 2.404-.007-2.955.01 1.535.101-1.738-.038 2.951.042-1.603.003 1.837.031-2.78.077 1.307.031-1.595.007 3.197.073-1.679.004 1.085.097-2.226.01 1.613.098-2.286-.007 3.078.01-1.21.004 1.914.007-3.601.097 1.207.056 1.899.007-2.87.035 2.168.097-2.236.007 3.088.007-2.791.049 2.97.007-3.405.06 2.343.069-2.424.007 3.458.038-2.004.063 1.981.006-3.426.039 1.441.02-1.475.008 3.447.02-2.615.004 2.367.007-3.073.1 1.85.07 1.109.007-2.634.028 1.478.06-2.085.006 3.728.042-2.608.056 2.596-.007-3.588.066 2.414.062-2.163-.006 3.032.066-1.93.076 1.795-.007-2.922.042 2.313.042-2.769.007 4.12.048-1.694.018 1.155-.007-3.398.097 1.485.108 1.624-.076-2.537.08 1.01.07-1.413-.008 3.142.049-1.872.028-1.725-.007 4.27.045-2.49.104-1.786.007 4.572.007-4.681.108 1.226.042 3.535-.007-4.84.08 3.404.031-3.636-.007 4.983.087-2.65.105-1.001.007 2.337.024-3.724.007 4.847.08-1.986.049 2.209.007-5.037.052 2.95.076-1.804.032 2.95.024-3.212.09.258.018 3.884.007-4.61.087 1.73.056-.828.007 2.552.045-1.645.111 2.347-.007-3.453.01 2.113.021-2.73.007 3.975.084-2.864.07 2.36.017-2.778.028 1.78.08-2.327-.007 3.536.038-2.127.038-1.246.007 3.138.032-.928.073 1.497-.007-3.84.038 1.39.014.922.007-1.41.003.701.06 1.706-.05-2.85.098 2.4.007-2.231.007 2.479.098-1.88.104-1.54.007 4.294.007-3.87.104.645.035 2.217.073-1.84.035-.66.007 3.005.062-1.936.105 2.214-.007-3.62.01 2.407.004-2.28.007 2.877.1-1.089.039-1.703-.007 2.52.08-1.227.09 1.713-.076-2.558.1 2.13.109-2.397-.094 2.414.108-2.256.125 2.667-.087-2.832.09 2.401.115-2.94-.104 3.444.108-2.44.031 1.757.077-2.434.104 5.65.007-4.917.003-1.433.101 3.834.004.117.02-2.8.008.363.024-1.712.06 3.905.006-.242.049 4.086.038-8.06.01 1.853.063 3.54.052-6.162.108 8.9.021-6.558.035-2.16.059 6.45.01-2.955.042-4.28.077 8.552.024 2.691-.01-10.1.013 5.268.053-7.424.034 8.302.021-.278.053-6.995.055 6.87.045 4.714-.01-10.708.014 5.275.049-8.486.059 9.955.055-8.46.042 8.501.01-.369.042 4.515.01-13.229.04 2.914.006-4.296.06 11.49.044-7.524.007-3.131.073 12.145.018-2.82.003 3.454.01-13.27.095 9.087.007 1.992.031-10.47.017 2.765.007-3.307.06 12.769.027-3.45.004 2.993.01-11.724.098 9.433.108 1.933-.05-11.497.06 11.315.003.392.042-7.492.007-4.672.06 9.932.041-4.835.09 4.574-.055-6.808.087 5.24.024-4.392.06 4.836.024-.444.003.035.004-.626.024-2.78.08 3.002.007-.367.049-1.402-.032 1.764.101-1.306.084-.945.042 2.191.076-1.513.049.71.059-2.381.017 2.774.021-.222.028 1.136.056-3.738.02 1.833.098-1.955-.056 4.334.07-2.513.063-1.415-.028 5.175.038-1.924.084.965-.053-5.777.06 3.85.052-2.812.038 6.623.007-.323.007.243.003-.166.056-8.54.066 4.75.024-2.979.056 7.856.004-.019.014.637.007-4.775.006-6.554.07 10.93.035-6.905.031-1.669.021 3.115.049 7.374.017-12.945.038 3.292.014 1.006.028 8.69.031-13 .053 5.366.038 7.372.014-10.388.087 11.543.028-15.674.003.06.084 14.19.031-9.27.01-4.965.06 13.66.003 2.003.031-16.566.066 11.004.06-10.122-.032 14.166.084-4.73.014 6.428.02-7.935.011-8.52.08 15.375.02-7.507.022-7.806.066 16.277.028-14.99.003-.521.039 8.22.017-1.53.035 9.151.031-16.873.045 8.628.007-1.195.007 4.64.007 4.44.028-14.593.077 12.021.017 3.657.028-17.444.045 7.645.06-4.056-.04 11.993.088-8.54.031 10.243.031-17.46.042 6.127.007-.987.007 3.096.007 7.063.08-12.795.028 12.284.007 1.306.035-13.604.031 2.931.014-.495.007 2.659.087-3.645.028 9.959.003.521.032-8.116.024 1.05.024-2.766.014 6.514.073-4.967.004-.112.01 3.15.018 3.944.027-7.962.046 1.068.007-1.615.024 6.381.073-2.256.02 4.476.025-8.457.045 2.368.007-2.151.028 5.87.07-3.013.02 5.478.029-9.05.048 1.403.004-.701.014 5.913.08-4.155.024 6.93.028-9.704.07 6.71.006.202.01-3.14.112-4.07-.028 10.339.032-9.041.059 6.515-.014-7.323.073 5.476.003.017.004-.45.066-5.334-.028 9.882.08-9.414.115 9.752.01-2.943.06-7.785.024 9.424.035-7.644.066 9.12-.024-10.091.08 5.318.013-6.744.028 10.65.077-8.595.02 9.138.074-10.993.028 9.016.062-6.527.035 6.928.02-6.236.029 4.629.024-6.193.077 4.633.111-3.664-.063 5.828.073-5.427.13 4.678-.091-4.866.1 3.557.021 1.348.025-4.298.003-.489.042 3.553.06-3.111.072 4.195.042-3.14.017-1.367.122 4.21.08-4.357-.059 4.875.111-2.125.09 2.438-.072-4.469.083 1.075.053-2.067.01 3.606.038-.898.094 3.446-.073-5.18.08 1.997.073-3.57.01 4.508.025-.29.073 1.304-.056-3.813.06 3.02.093-4.933-.08 7.11.101-4.894.108 4.936.004-1.43.076-5.127.035 3.093.094 4.078-.045-5.588.048 4.256.077-5.926.035 3.249.094 4.018-.046-6.1.053 2.471.073-3.707-.06 6.091.095-2.824.097 3.787-.049-5.426.056.843.09-3.074-.076 7.303.094-3.675.1 2.993-.052-4.3.056 2.077.09-3.713-.076 6.774.098-4.094.1 3.237-.066-3.949.073.905.039-2.16-.028 5.028.097-3.655.105 4.063-.07-4.618.073 3.012.042-4.005-.028 5.603.097-3.415.105 3.464-.056-4.583.063 1.26.038-2.48-.024 6.052.094-3.463.094 2.227-.046-3.892.053 1.085.073-1.792-.063 6.53.097-5.62.112 3.739-.046-4.21.05 4.127.024-5.444-.01 7.86.1-5.253.063-1.177.024 2.654.007-.585.056 3.871.007-6.364.034 1.257.021-1.507-.007 4.133.094-1.298.07 2.616-.06-4.834.067 1.453.073-2.168-.045 6.233.08-4.015.017.78-.007-1.62.049.654.08-2.302.007 7.11.014-4.025.003 3.469.01-5.952.095 1.013.038-.67.052 3.106.038 2.752.01-6.62.053 1.08.003-.492.05 2.732.048-2.074.1 4.328.018-.656.087-3.89.028 1.532.01-.931.07 2.507.014-.85.045 1.862.01-3.127.05.563.03-1.119.042 1.409.042-.971.06 1.697.058-.184.004.046.045-.861.007.204.122-.62.017-.083.112 1.094.128-.705-.111.772.118-.743.049-.269.073.235.118.69-.108-.732.15.571.104-.697.05.152.208.37.209-.24.059.09.083-.04-.076.032.08-.05.02-.013.07.095.073.183.06-.137.093-.198.039.07.115.135.052-.115.07-.05.041.071.108.088.052-.07.042-.028.07.047.09-.036.014-.015.358.059.153-.036.101-.015.028.029.167.015.783-.004.842.016.014.026.108-.058.097.068.024-.015.09.003-.02-.04.038.012.15.077.003-.004.112-.055-.052.07.055-.066.101.038-.07-.047.08.012.115-.034-.09.081.097-.066.056.09.017-.173.035.097.098-.1-.084.182.098-.09.07.112.01-.187.027.09.07-.338-.007.443.042-.251.066.472-.052-.948.09.09.094 1.372.01-2.029.028 1.987-.007-2.016.09.71.091 1.351-.073-1.623.098.718.024-.752.07 1.44.01-.312.021-.789.087.963.007-.539.076.708.028-.394.077.53-.045-1.032.083.719.004-.095.059 1.097.014-.148.034 1.037.056-2.774.111-.793-.01 1.188.014-.926.083 4.482.039-3.467.108-2.109-.042 3.415.049-2.336.139 7.524-.126-9.97.13 8.305.01-13.087.007 14.146.094-5.134.1 1.25-.052-8.397.056 7.51.083-13.684-.01 18.45.017-.647.004 6.119.01-19.905.09 7.069.043-6.451.052 10.744.01-4.727.09 10.706-.01-20.235.028 8.326.1-4.074-.051 16.996.055-15.8.07 9.249-.049-11.017.094 8.165.035 4.4.007-12.445.003-3.697.01 21.364.088-10.313.017-2.253-.007 4.511.018-3.084.007-6.055.007 8.988.094-.649.041 3.938.007-7.243.007-9.084.007 21.414.094-9.375.105 2.236-.074-10.29.077 8.26.073-12.27.01 18.699.028-7.81.025-3.34.01 10.137.004 1.89.073-14.81.017 5.79.108-8.967-.01 13.738.013-12.978.007 16.87.105-10.112.041-3.787.035 7.769.014-.806.007-.645.038 3.077.004.391.014-5.496.007-7.14.076 15.754.025-5.175.104 1.807-.073-9.61.077 8.071.076-12.029-.01 17.537.048-8.382.094-6.706-.076 14.817.087-5.759.097-10.135-.017 13.411.024-4.967.07 7.203-.056-16.778.094 8.712.038-5.872.052 10.684.01-2.712.064-10.587.059 16.13.052-12.724.062 7.297.028 4.35.032-11.626.017.215.004-2.56.055 14.494.045-8.127.028-4.505.039 6.82.034 4.973.049-13.664.01 3.979.004-.554.038 10.45.004.97.07-11.388.003-1.683.073 12.97.028-11.644.073 12.267-.056-16.59.094 8.905.038-6.336.052 10.821.01-.36.057-13.11.055 17.136.073-14.505.042 8.362.031 5.13.042-14.705.004-1.971.055 17.978.042-10.564.104 9.317-.073-13.16.09 8.323.029-11.615.055 18.118.025-3.36.052-11.37.059 11.02.007 1.923.049-15.655.034 7.898.004-.012.003.158.014 9.032.077-14.311.014 5.28.097-7.539-.042 14.91.06-10.63.041 12.03.066-10.952.007-3.339.07 12.81.028-10.865.073 11.827-.056-15.618.094 9.453.038-7.963.063 11.549.01 1.692.042-14.667.032 6.511.007-.242.007.967.013 8.565.074-14.325.017 4.813.1-5.93-.034 14.026.049-10.947.041 12.455.067-11.237.007-2.588.07 12.358.01-.053.003.056.004-1.157.03-13.045.057 15.918.024-3.484.052-10.571.056 9.742.024 3.079.035-14.58.031 7.093.101-5.125-.076 13.462.087-8.837.07 7.84.017-11.503.013 4.608.007-7.441.056 15.441.049-10.884.028-2.638.014 4.97.01-.73.06 7.572.034-13.326.007 3.243.007-1.74.042 12.874.059-10.47.083 8.97-.066-11.393.094 6.126.028-7.395.056 14.296.024-3.745.056-8.785.048 9.656.004-.094.007.647.003.49.032-7.869.024-4.735.059 14.645.02-3.642.057-8.41.052 8.276.007.346.007 1.449.055-12.202.014 2.7.105-.917-.056 11.732.06-11.41.097 10.035.017-4.532.007-7.071.08 12.955.02-3.89.043-8.105.07 7.295.027 2.566.028-9.807.049 6.452.093-6.402-.059 10.346.084-5.812.087 4.641-.077-5.697.09 2.269.008-4.362.083 8.096.014-.819.063-7.075.073 5.624.024 1.404.028-4.823.045 1.374.007-1.04.028 2.94.08-2.89.132 2.547.025-.74.076-.941-.062 1.218.107-.947.014.051.025-.27.038-.31.049.577.038.717.09-.455.115-.822.007.092.007-.068.042.543.115.531-.098-.636.122.42.111-.601.018.04.014-.107.031.264.01-.033.115.296.007-.049.035-.03-.02.144.03-.037.007.044.063-.258.028.05.056-.09.052.106.062.076.053-.041.094-.062.017.06.02-.01.053.085.007.002.042-.008-.025-.027.066-.026.056-.066.056.067.073.105.059-.065.063-.031.02-.046.522.034.206-.007.285-.01.15.027.23.02.285.007.184-.02.003.01.115-.008.108-.02.018.022.041.051.052-.063.067-.088.045.082.007-.02.07.121.006-.023.028.038.045-.18.073-.052-.059.113.084-.089.097.498.018-.372.003-.001.007.293.031-1.148.073.91.056-.37.045.664.007-.269.056.48.007-1.028.049.814.027-.52.025.806.062-.708.018.47.01-.752.08.434.046-.483.059.721.007-.331.08.451.01-.714.018.339.07-.324.006.557.031-.233.035.447-.007-1.065.077.38.038-.676.007 1.415.063-.605.02.8-.006-1.43.093.556.087-.509-.041 1.413.062-.741.004.254.007-.728.097.33.042.392.042-.826.014.338.003-.28.007.654.094-.352.052.516-.024-.767.08.236.003-.114.073 1.07.007-.276.06.324.006-1.03.032.339.115-.293-.087.524.09-.389.004.1.059-.366.041.18.101-.281-.087.301.101-.268.004-.009.059.131.097.23-.073-.268.119.224.135.102-.108-.135.112.078.01.054.108-.137.045.01.039-.076.01.035.003-.04.094.084.01-.022.088.048.035-.02.153.03-.143-.04.146.034.112-.025.003.006.157.018.212-.005.038.044-.007-.065.077.021.062.03.056-.07.01-.008.15.071.031-.037.07.078.066.049-.045-.126.087.06.017-.058.028.174.063-.091.038.039-.028-.13.094.05.045-.042.042.15.028-.132.087.146.024-.13.105-.197-.077.429.08-.4.08.92-.007-1.538.035 1.34.1-1.92-.086 2.293.1-1.936.112 1.658.004-.447.041-.596-.031.964.1-.393.004.09.073-.72.007.069.004-.11.056 1.264.006-.127.039 1.786.042-4.256.013 1.185.119-2.417-.073 5.27.08-4.918.097 6.492.021-5.26.02-3.031.057 8.914.03-4.22.046-5.178.056 5.942.003-.244.035-2.02.024 4.117.021 2.1.032-8.702.059 8.271.073-9.088.048 4.536.105 5.542-.056-7.61.063 5.957.024-10.304.06 10.956.03-6.102.025-1.698.049 5.391.031-2.321.042-1.736.028 4.386.003-.189.028 2.862.017-3.603.025-9.115.059 12.914.031-9.422.223 8.533.007-2.075.024-9.724.063 11.594.031-9.095.035 6.73.1-2.685.018-.85.052 4.71.025 2.035.01-8.659.021-4.504.06 12.827.017-1.413.014-7.802.104 2.843.125 6.75-.08-7.083.094 3.37.024-8.884.063 12.429.028-9.105.003-.233.032 5.146.017-1.63.024 3.36.063-4.51.031 2.942.063 3.697.014-3.2.024-8.275.06 11.571.03-8.12.004-.808.073 6.79.014-1.748.063-2.797.024 3.507.052 2.498-.024-2.716.045.68.025-7.69.073 9.886.014-4.2.01-3.303.077 5.26.027-2.73.122 5.017-.076-6.385.08 5.75.045-8.488-.035 8.6.104-1.17.004 1.03.073-6.209.028 3.423.07-2.12-.06 2.405.115-.618.063 2.173.01-3.27.007 1.787.007-4.49.077 5.267.027-1.352.01-1.545.06 1.709.052-.753.021-.434.07.893.014-.305.045-.487.038.753.014-.163.02.387.043-.684.024.103.038.14.073-.331.087.423.025-.328.007-.062.076.255.028-.24.22.267-.185-.312.205.233.038-.033.056.157.004.014.062-.189.056.002-.021.088.063-.04.083.027-.07-.057.098.008.08-.055.017.09.004.027.076-.13.028.093.226-.083.021.033.174.05.004-.017.121-.046.094.063-.055-.13.076.105.025-.109.066.19.024-.124.08.147.028-.136.003-.101.025.22.083-.14.056.13.045-.27.01.257.102-.594.007.758.006-.67.007.685.101-.367.046.365.03-.831.04.675.006-.594.007.597.098-.161.041.372-.031-.557.035.343.02-.5-.01.68.098-.209.073.209-.063-.494.097.451.042-1.072.063 1.086.007-.394.142 2.403.025-5.095.076 5.634.014-1.856.045-3.132.053 3.209.014-.283.003.067.024-1.328.01.174.004-.373.06 4.882.006-.236.004.01.028-9.634.076 9.968.039-6.123.062 3.064-.042-3.29.101 1.024.007-.323.056 3.386.031 1.192.021-2.383.025-6.105.076 7.945.01-3.609.014-1.898.035 3.028.028-.302.111 1.059-.062-2.39.07 2.008.055 3.162-.038-3.794.059.664.024-5.996.063 7.442.028-3.9.052 3.335-.035-4.87.101 2.414.007-.63.08 2.833.014-1.09.038 3.01.045-8.382.014 4.15.094-2.213-.08 5.72.094-2.893.094-1.02-.073 3.28.094-2.953.111 4.207.018-.265.031-7.612.094 3.668.045 2.917-.031-4.681.1 2.73.025-1.447.063 2.886.014-.633.052 2.675.028-5.763.007-2.54.028 7.329.07-1.852.01-3.293.045 4.363.062-2.697.018-.681.115 4.473.01.527.018-3.766.003.003.01-3.402.046 5.782.048-1.52.004.535.01-2.593.094 2.21.028-1.996.073 2.495.01.193.028 1.44.042-4.11.007-.95.077 3.7.017-.495.028-1.69.111.38.01-.507.084 2.378.01.716.046-2.789.045 1.342.028-.876.09.198.004.005.003-.08.007-.159.025.395.076-.164.021-.09.042 1.015.003-.001.014.22.066-.324.08-1.187.06.426.062-.099-.028.164.084-.12.108 1.123.027-.78.074-.77.045.457.042.2.052-.224.014.015.01-.028.035.27.08.8.031-.63.077-.835.045.426.007-.01.024.18.021.026.045-.25.014.005.018-.03.024.304.087.745.028-.644.08-.66.049.3.003-.006.021.162.007.058.08-.264.007.018.007-.006.007.066.094.957.031-.499.077-.805.048.336.07-.097-.031.2.087-.145.1.978.035-.584.07-.683.052.332.042.149-.028-.233.104.176.06 1.243-.046-1.295.112.228.038-.9.042 1.106.031-.432.024.2.028-.752.049.131.003-.054.039.9.014-.058.041 2.607.035-4.388.007.036.004-.233.073 2.358.01.338.024-1.228.021-.949.066 1.446.039-1.29.01-.086.007.4.077 4.03.027-4.104.01-2.366.046 5.164.049-1.38.073.35-.028-2.655.049 1.913.052-1.59.045 2.06.01-.227.042 2.805.025-4.616.01-2.884.042 7.122.052-2.12.028-2.534.045 3.129.09-2.285.063 4.605.035-6.073.007-2.03.042 7.744.052-2.359.028-3.128.028 3.62.111-2.065.063 4.49.024-5.482.01-2.641.042 7.034.052-1.863.028-3.283.028 4.321.056-1.854.118 3.64-.084-5.802.087 5.227.028-8.337.087 5.83.06 1.743-.028-5.483.076 3.621.111 3.198-.07-5.597.088 3.763.024-7.335.028 9.358.06-4.182.044 2.308-.027-5.368.094 4.443.024-2.857.07 5.215.01.571.024-6.635.01-2.287.029 8.14.041-2.68.007.957.056.822-.028-5.598.063 1.765.128 5.747.018-3.645.024-4.97.063 7.157.028-6.053.038 5.067.077-2.968.073 5.437-.035-5.981.062.294.021-2.686.06 6.771.03-5.112.116 3.25.003-.088.111-4.6-.045 7.863.052-5.545.053 4.846.027-4.995.032.476.1-.454.025 2.662.073-3.742-.042 6.442.08-3.425.021 2.252.056-4.245.031 2.025.01-1.644.091 2.456.017 2.626.063-6.78.028 4.325.07-3.116-.056 3.648.104-2.32.101 3.032-.052-3.147.073.94.038-2.487-.028 3.66.098-.68.003.06.025-1.326.01.59.021-1.639.056 1.887.034-.374.004-.188.073 1.524.017-.448.164-1.55.042.363.073 1.759.048-1.414.119-.756.139 1.913-.118-2.118.163 1.29.052-.986.073.196.136 1.657-.122-1.913.17.838.116-.71.01.108h.004l.003-.062.007-.119.07.864.052.996.052-1.09.049-.787.076.212.014-.202.049.378.076 1.493.05-.935.051-.944.077.14.014-.13.052.484.08 1.371.045-.934.056-.983.073.203.014-.095.083.945.053.782.048-.957.052-.912.074.247.142 1.606-.122-1.678.16 1.284.08-1.476.056.434.01-.168.08.342.004-.019.06 1.359.069-1.027.059-.927.063.36.003-.038.073.408.007-.122.035.542.031 1.128.066-1.701.028-.904.056 1.31.014-.594.007.83.073-1.352.028.88.007-.469.073 2.44.014-1.37.007 2.205.073-4.768.027 2.66.087-1.901-.07 2.465.102-2.152.003-.282.07 2.004.014-.05.055 1.963.028-4.584.014.791.004-1.349.073 4.471.027-1.66.014.028.004-.281.024-2.56.045 3.922.042-1.534.007-.967.07 3.769.014-1.652.007 2.89.041-6.881.06 2.029.08-1.3-.067 4.768.09-3.2.032-1.232.087 2.881.042-1.02-.01 2.29.013-.394.004 1.897.045-6.477.056 1.922.08-1.248-.066 4.238.09-3.13.042 1.429-.01-2.409.083 2.39.014.147.049 2.505.028-5.453.01 2.898.007-3.248.07 4.523.03-1.617.004 1.235.032-3.278.073 1.012.003-.372.084 2.214.007-.365.045 2.674.01-5.323.01 3.465.046-3.974-.031 4.023.094-.733.003 1.408.045-3.977.056.853.104 1.845.06 1.933.006-3.938.06-1.361-.05 5.02.091-2.687.025 1.843.066-3.421.017.462.049 1.457-.01-1.636.08 1.087.09 2.944-.01-4.343.013 1.99.063-2.748.045 4.15.126-2.99.125 2.64.115-3.196-.066 3.915.107-1.781.004.813.087-1.933.014.237.02-.543.074 1.663.01-.905.101 3.553-.007-4.98.01 4.116.063-5.033-.049 5.085.098-1.035.1-2.54-.065 2.78.08-2.308.003-.689.094 1.936.01-.728.091 3.532-.01-4.846.013 2.597.042-3.207-.028 4.276.094-.67.126-2.96.11 2.001.004-.179.073-3.556-.01 6.563.014-3.447.003 4.303.01-7.922.095 1.518.01 4.182.101-2.846.025-.852.006 2.317.074-.799.097 3.599-.007-4.209.01 3.691.025-6.73-.007 7.69.094-2.742.007-3.328.01 4.098.094-2.107.06.838-.029-2.23.08 1.7.094-.411-.01 1.644.014-1.133.024 4.402.01-8.784.07 3.95.046-1.927-.01 4.368.072-2.315.063.986-.01-2.675.052 1.811.003-.76.09 1.866.01-.511.05 3.422.007-7.962.034 1.899.004-1.507.07 5.329.027-1.72.007 1.005.056-2.467.045 1.795.007-1.569.01 1.946.094-.54.08 4.848-.01-9.647.014 5.281.003-4.884.01 7.66.095-2.327.003.724.09-3.417.011 1.85.007-1.94.045 2.417.06-1.364.097 5.045-.08-5.088.083 2.274.025-6.686-.01 10.173.097-5.284.052 1.83.06-3.671.076 2.522.038-.578.094-1.225-.014 3.563.017-1.118.025 4.686-.01-11.735.097 7.567.003 2.396.01-6.966.095 2.823.003 1.412.01-3.659.098 2.593.02-.908.063 2.19.039 3.64.007-10.905.034 4.491.056-2.67.014 8.347.035-4.22.062-2.608-.045 3.4.098-1.598.024 1.944.042-2.815.059 2.32.045-2.284-.01 3.757.014-2.42.007 5.26.01-10.66.087 4.164.003-2.497.01 7.93.095-4.144.017-2.188.01 3.71.084-1.794.105 2.62-.09-3.366.097 1.316.024-5.724-.01 10.553.09-1.575.003 1.045.01-7.154.084 2.137.039-1.355.007 2.593.062-2.021.129 4.169.031-7.748-.01 9.48.087-3.95.007 2.946.08-5.93.02 1.869.011-1.567.045 2.834.063-2.298.111 3.885.004-1.156.028-5.051-.01 7.039.09-1.34.003.435.06-3.906.02.182.004-.105.034 1.738.014-.488.007 1.127.08-1.557.021.343.004-.082.059.66.02-.067.05.864.01-1.661.042.679.027-.935-.01 1.343.09-.465.028.11-.01-.533.08.438.094-.455-.08.543.108-.533.139.744.01-.428.01.333.039-.565.017.11.073-.272-.059.61.094-.204.119-.417-.08.637.097-.348.003.156.01-.697.095.54.01-.257.049.844.017-.189.01.586.056-2.052.042 1.395.018.61.097-1.573.014.985.083-1.15.018.57.066-.641.01 1.46.028-.609.066 4.412-.01-6.723.017 1.156.004-4.062.08 8.658.024-1.778.031-4.21.087 2.79.007.09.007-.372.056-1.544.042 2.129.003-.15.08 3.124-.041-3.43.048.95.028-7.719-.01 12.981.09-2.785.056-6.515.059 3.942.01.69.021-1.66.038-1.607.053 2.55.02-1.057.084 4.245.007-5.194.024-6.472-.01 13.722.094-3.568.031-6.498.073 7.003.007-1.755.056-3.274.031 3.647.025-.957.107 4.02-.076-5.983.087 3.635.031-13.497-.01 18.779.087-4.335.003.507.032-8.38.059 5.88.07-3.363-.056 5.366.094-1.175.003.032.003-.863.046-2.98.059 4.77.062-15.016-.01 19.74.06-6.762.006 4.387.056-9.48.052 7.484.049-5.402.097.926.07 3.88-.056-3.892.097.241.028-8.58-.01 15.617.09-3.857.032-6.37.048 6.691.032-3.453.02-1.441.063 4.151.028-2.931.073 3.958-.056-4.099.094 2.752.028-11.186-.007 15.172.087-1.577.032-7.386.087 2.468.076 2.594-.042-4.404.073 1.779.032-.42.017 1.885.056 2.54.01-5.061.025-7.487-.007 15.238.087-1.366.052-8.173.066 2.999.076 2.5-.041-4.545.073 2.143.031-.59.035 2.677.066 4.689.01-15.382.032 10.029.1-5.613-.076 11.182.08-8.773.007 5.392.087-5.411.017 1.44.028 2.602.052-2.933.039 1.918.003-.126.025 2.7.017-.415.003.238.01-6.44.025-4.376.056 13.589.02-2.71.056-7.536.067 4.284.083 1.28-.038-3.7.062 2.866.039-1.922.041 4.119.021-.311.014.935.007-1.61.032-5.304.055 8.286.025-3.501.03-4.054.074 4.693.003.249.053-3.387.027 1.231.032 1.583.07-1.59.003-.154.059 1.56.024-.606.007.265.025-1.125.073.402.003-.004.004.164.007.27.055-.636.049.452.028.24.059-.82.01.263.01-.267.057.421.045-.334.087.438.038-.04.111-.157-.08.245.087-.18.052.137.053-.208.132-.16-.118.265.125-.226.118.134-.056-.224.06.222.007-.08.094.195.027.036.056-.098.024.042.164-.087.045-.039-.031.052.097-.008.192.024h.121l.004.003.254.021.435-.013h.271l2.457-.106.003-.024.021.245.08-.176.017.21.032-.32.048.068.108-.33-.028.476.035-.362.084.428.01-.558.021.406.028-.361.066.771.042.102.038-.553.049-.716.01.734.06-.585.142 3.267.003-.57.014-6.818.053 7.477.052-3.58.087-1.142-.052 4.59.062-3.022.021 2.117.042-2.874.045 1.231.1-8.375-.013 10.773.031-4.434.01 7.493.06-9.927.042 3.693.003-.05.007 3.285.101-4.765.14 5.553.037-1.843.021-12.046.028 17.628.066-8.75.01 6.043.05-7.684.052 1.976.045 1.938-.028-2.713.118 1.608.004-.272.066 3.25.017.628.007-8.878.004-5.726.028 20.062.073-5.283.003.811.031-10.713.06 7.461.02-3.533.025 5.106.066-2.25.024-2.448.028 4.559.045-.926.08 8.739-.027-21.598.048 11.069.087-4.87-.035 9.806.056-5.153.007 5.054.035-7.231.066.599.028 3.941.087-2.52.09-11.387-.055 15.29.062-5.662.021 15.31.028-20.68.063 11.283.073-7.543-.028 9.944.066-4.287.024-3.692.028 4.803.063-2.708.115 4.213-.098-5.157.104 1.873.01-10.617.029 22.803.073-13.516.087-3.397-.028 8.828.049-4.773.01 2.56.035-4.845.066 2.47.087 1.15-.045-2.926.07 1.97.055-12.372.01 15.908.01-4.39.008 13.834.028-21.878.073 3.906.031 9.61.084-6.781.003-1.004.031 5.28.07-2.558.108 2.623-.094-3.996.108 3.32.003.154.004-1.594.01-11.02.028 23.028.073-13.42.087-3.554-.031 8.363.052-4.976.01 5.023.028-7.258.073 3.507.042-1.322.045 2.664.025-1.65.003-.041.014.968.066 10.51-.028-20.91.049 7.787.007-8.128.024 13.851.073-2.096.066 1.661-.03-7.055.069 3.62.007-.372.003.455.01 2.59.025-4.837.073 1.27.087 3.514.017-1.664.01-10.297.029 20.07.076-13.372.004-.774.048 6.142.05-3.48.013 3.233.028-4.646.07 1.514.093 1.483-.041-1.68.062 1.036.07-7.272.007 9.174.014-.315.007 7.761.028-18.808.073 8.75.007 2.92.052-4.213.048 1.983.007-2.156.032 3.251.07-1.18.062 1.016-.028-2.544.08 2.371.024.467.007-.765.007.152.07-8.26-.028 15.13.077-9.905.007.96.104 3.877-.028-4.54.038 2.079.018-2.164.028 3.532.062-1.415.073.855-.027-1.85.045 1.237.094-5.397-.056 6.74.077-2.927.01 8.134.028-13.705.073 7.293.097.953-.027-2.961.034 1.857.01-2.018.025 3.188.077-1.848.073.957-.06-1.23.077.04.007-.265.024 2.251.035-.573.06 4.147-.028-9.105.052 2.092.007-2.279.028 6.815.07-2.464.017 1.35.024-2.87.045.592.007-.162.021 1.834.052-.502.007.227.066-1.265.035.906.118-2.805-.028 4.086.032-3.36.024 5.02.028-5.74.07 3.199.073-1.77-.028 2.406.09-1.473.025.56.027-.733.056.197.004-.088.048.473.049-.155.063.762.02-.942.011-1.213.028 3.27.073-2.246.073.733.07-.356.076-.186-.056.297.08-.065.032-.267.083.372.021-.19.038.39.066 1.037-.03-2.326.048.956.01-1.28.028 2.151.07-.705.062.172.018-.827.007.095.02.694.126-.386.052-.076.028.385.031-.308.101.369-.028-.621.046.364.01-.258.035.345.062-.08.039-.292-.032.309.056.005.066.38-.031-.873.076.513.066-.383-.052.492.06-.081.062.217-.028-.732.07.21.01.183.021.254.028-.489.056.092.027.354.09-.25.018-.111.025.308.059-.12.055.12-.024-.425.08.35.014-.158.104.058.074.151.006-.186.07-.268-.024.573.07-.43.093.343.038-.126.046-.435.028.921.034-.627.021.33.09-.262.06-.008-.028.13.052-.013.084.042-.014-.156.031.105.01-.151.028.173.077-.083.014-.057.024.076.077-.023.122.023-.084-.063.09.054.08-.06.042.035.112.027-.098-.036.105.01.139.014-.129.001.132.003.132.009 5.72-.008h0" clip-path="url(#pead2ab4a0d)" style="fill:none;stroke:#2ca02c;stroke-width:.5;stroke-linecap:square"/><path id="patch_3" d="M38.05 142.76V8.64" style="fill:none;stroke:#000;stroke-width:.8;stroke-linejoin:miter;stroke-linecap:square"/><path id="patch_4" d="M221.76 142.76V8.64" style="fill:none;stroke:#000;stroke-width:.8;stroke-linejoin:miter;stroke-linecap:square"/><path id="patch_5" d="M38.05 142.76h183.71" style="fill:none;stroke:#000;stroke-width:.8;stroke-linejoin:miter;stroke-linecap:square"/><path id="patch_6" d="M38.05 8.64h183.71" style="fill:none;stroke:#000;stroke-width:.8;stroke-linejoin:miter;stroke-linecap:square"/><g id="legend_1"><path id="line2d_15" d="M164.938 15.919h16" style="fill:none;stroke:#ff7f0e;stroke-linecap:square"/><g id="text_14" transform="matrix(.08 0 0 -.08 187.338 18.719)"><defs><path id="DejaVuSans-46" d="M628 4666h2681v-532H1259V2759h1850v-531H1259V0H628z" transform="scale(.01563)"/><path id="DejaVuSans-70" d="M1159 525v-1856H581v4831h578v-531q182 312 458 463 277 152 661 152 638 0 1036-506 399-506 399-1331T3314 415Q2916-91 2278-91q-384 0-661 152-276 152-458 464m1957 1222q0 634-261 995t-717 361q-457 0-718-361t-261-995 261-995 718-361q456 0 717 361t261 995" transform="scale(.01563)"/><path id="DejaVuSans-64" d="M2906 2969v1894h575V0h-575v525q-181-312-458-464-276-152-664-152-634 0-1033 506-398 507-398 1332t398 1331q399 506 1033 506 388 0 664-152 277-151 458-463M947 1747q0-634 261-995t717-361 718 361q263 361 263 995t-263 995q-262 361-718 361t-717-361-261-995" transform="scale(.01563)"/></defs><use xlink:href="#DejaVuSans-46"/><use xlink:href="#DejaVuSans-30" x="57.52"/><use xlink:href="#DejaVuSans-70" x="152.93"/><use xlink:href="#DejaVuSans-72" x="216.406"/><use xlink:href="#DejaVuSans-65" x="255.27"/><use xlink:href="#DejaVuSans-64" x="316.793"/></g><path id="line2d_16" d="M164.938 27.661h16" style="fill:none;stroke:#1f77b4;stroke-linecap:square"/><g id="text_15" transform="matrix(.08 0 0 -.08 187.338 30.461)"><defs><path id="DejaVuSans-6f" d="M1959 3097q-462 0-731-361t-269-989 267-989q268-361 733-361 460 0 728 362 269 363 269 988 0 622-269 986-268 364-728 364m0 487q750 0 1178-488 429-487 429-1349 0-859-429-1349Q2709-91 1959-91q-753 0-1180 489-426 490-426 1349 0 862 426 1349 427 488 1180 488" transform="scale(.01563)"/><path id="DejaVuSans-67" d="M2906 1791q0 625-258 968-257 344-723 344-462 0-720-344-258-343-258-968 0-622 258-966t720-344q466 0 723 344 258 344 258 966m575-1357q0-893-397-1329-396-436-1215-436-303 0-572 45t-522 139v559q253-137 500-202 247-66 503-66 566 0 847 295t281 892v285q-178-310-456-463T1784 0Q1141 0 747 490 353 981 353 1791q0 812 394 1302 394 491 1037 491 388 0 666-153t456-462v531h575z" transform="scale(.01563)"/></defs><use xlink:href="#DejaVuSans-46"/><use xlink:href="#DejaVuSans-30" x="57.52"/><use xlink:href="#DejaVuSans-6f" x="152.93"/><use xlink:href="#DejaVuSans-72" x="214.111"/><use xlink:href="#DejaVuSans-69" x="255.225"/><use xlink:href="#DejaVuSans-67" x="283.008"/></g></g></g></g><defs><clipPath id="pead2ab4a0d"><path d="M38.05 8.64h183.71v134.12H38.05z"/></clipPath></defs></svg>