<svg xmlns="http://www.w3.org/2000/svg" xmlns:xlink="http://www.w3.org/1999/xlink" width="307.2" height="230.4" viewBox="0 0 230.4 172.8"><defs><style>*{stroke-linejoin:round;stroke-linecap:butt}</style></defs><g id="figure_1"><path id="patch_1" d="M0 172.8h230.4V0H0z" style="fill:#fff"/><g id="axes_1"><path id="patch_2" d="M38.05 142.76h183.71V8.64H38.05z" style="fill:#fff"/><g id="matplotlib.axis_1"><g id="xtick_1"><g id="line2d_1"><defs><path id="m9c54374822" d="M0 0v3.5" style="stroke:#000;stroke-width:.8"/></defs><use xlink:href="#m9c54374822" x="71.966" y="142.76" style="stroke:#000;stroke-width:.8"/></g><g id="text_1" transform="matrix(.08 0 0 -.08 69.42 155.839)"><defs><path id="DejaVuSans-31" d="M794 531h1031v3560L703 3866v575l1116 225h631V531h1031V0H794z" transform="scale(.01563)"/></defs><use xlink:href="#DejaVuSans-31"/></g></g><g id="xtick_2"><use xlink:href="#m9c54374822" id="line2d_2" x="119.071" y="142.76" style="stroke:#000;stroke-width:.8"/><g id="text_2" transform="matrix(.08 0 0 -.08 116.526 155.839)"><defs><path id="DejaVuSans-32" d="M1228 531h2203V0H469v531q359 372 979 998 621 627 780 809 303 340 423 576 121 236 121 464 0 372-261 606-261 235-680 235-297 0-627-103-329-103-704-313v638q381 153 712 231 332 78 607 78 725 0 1156-363 431-362 431-968 0-288-108-546-107-257-392-607-78-91-497-524-418-433-1181-1211" transform="scale(.01563)"/></defs><use xlink:href="#DejaVuSans-32"/></g></g><g id="xtick_3"><use xlink:href="#m9c54374822" id="line2d_3" x="166.176" y="142.76" style="stroke:#000;stroke-width:.8"/><g id="text_3" transform="matrix(.08 0 0 -.08 163.63 155.839)"><defs><path id="DejaVuSans-33" d="M2597 2516q453-97 707-404 255-306 255-756 0-690-475-1069Q2609-91 1734-91q-293 0-604 58T488 141v609q262-153 574-231 313-78 654-78 593 0 904 234t311 681q0 413-289 645-289 233-804 233h-544v519h569q465 0 712 186t247 536q0 359-255 551-254 193-729 193-260 0-557-57-297-56-653-174v562q360 100 674 150t592 50q719 0 1137-327 419-326 419-882 0-388-222-655t-631-370" transform="scale(.01563)"/></defs><use xlink:href="#DejaVuSans-33"/></g></g><g id="xtick_4"><use xlink:href="#m9c54374822" id="line2d_4" x="213.281" y="142.76" style="stroke:#000;stroke-width:.8"/><g id="text_4" transform="matrix(.08 0 0 -.08 210.736 155.839)"><defs><path id="DejaVuSans-34" d="M2419 4116 825 1625h1594zm-166 550h794V1625h666v-525h-666V0h-628v1100H313v609z" transform="scale(.01563)"/></defs><use xlink:href="#DejaVuSans-34"/></g></g><g id="text_5" transform="matrix(.08 0 0 -.08 114.392 163.581)"><defs><path id="DejaVuSans-74" d="M1172 4494v-994h1184v-447H1172V1153q0-428 117-550t477-122h590V0h-590q-666 0-919 248-253 249-253 905v1900H172v447h422v994z" transform="scale(.01563)"/><path id="DejaVuSans-69" d="M603 3500h575V0H603zm0 1363h575v-729H603z" transform="scale(.01563)"/><path id="DejaVuSans-6d" d="M3328 2828q216 388 516 572t706 184q547 0 844-383 297-382 297-1088V0h-578v2094q0 503-179 746-178 244-543 244-447 0-707-297-259-296-259-809V0h-578v2094q0 506-178 748t-550 242q-441 0-701-298-259-298-259-808V0H581v3500h578v-544q197 322 472 475t653 153q382 0 649-194 267-193 395-562" transform="scale(.01563)"/><path id="DejaVuSans-65" d="M3597 1894v-281H953q38-594 358-905t892-311q331 0 642 81t618 244V178Q3153 47 2828-22t-659-69q-838 0-1327 487-489 488-489 1320 0 859 464 1363 464 505 1252 505 706 0 1117-455 411-454 411-1235m-575 169q-6 471-264 752-258 282-683 282-481 0-770-272t-333-766z" transform="scale(.01563)"/><path id="DejaVuSans-28" d="M1984 4856q-418-718-622-1422-203-703-203-1425 0-721 205-1429t620-1424h-500Q1016-109 783 600T550 2009q0 697 231 1403 232 707 703 1444z" transform="scale(.01563)"/><path id="DejaVuSans-73" d="M2834 3397v-544q-243 125-506 187-262 63-544 63-428 0-642-131t-214-394q0-200 153-314t616-217l197-44q612-131 870-370t258-667q0-488-386-773Q2250-91 1575-91q-281 0-586 55T347 128v594q319-166 628-249 309-82 613-82 406 0 624 139 219 139 219 392 0 234-158 359-157 125-692 241l-200 47q-534 112-772 345-237 233-237 639 0 494 350 762 350 269 994 269 318 0 599-47 282-46 519-140" transform="scale(.01563)"/><path id="DejaVuSans-29" d="M513 4856h500q468-737 701-1444 233-706 233-1403 0-700-233-1409T1013-844H513q415 716 620 1424t205 1429q0 722-205 1425-205 704-620 1422" transform="scale(.01563)"/></defs><use xlink:href="#DejaVuSans-74"/><use xlink:href="#DejaVuSans-69" x="39.209"/><use xlink:href="#DejaVuSans-6d" x="66.992"/><use xlink:href="#DejaVuSans-65" x="164.404"/><use xlink:href="#DejaVuSans-28" x="257.715"/><use xlink:href="#DejaVuSans-73" x="296.729"/><use xlink:href="#DejaVuSans-29" x="348.828"/></g></g><g id="matplotlib.axis_2"><g id="ytick_1"><g id="line2d_5"><defs><path id="m764373ed66" d="M0 0h-3.5" style="stroke:#000;stroke-width:.8"/></defs><use xlink:href="#m764373ed66" x="38.05" y="137.731" style="stroke:#000;stroke-width:.8"/></g><g id="text_6" transform="matrix(.08 0 0 -.08 25.96 140.77)"><defs><path id="DejaVuSans-30" d="M2034 4250q-487 0-733-480-245-479-245-1442 0-959 245-1439 246-480 733-480 491 0 736 480 246 480 246 1439 0 963-246 1442-245 480-736 480m0 500q785 0 1199-621 414-620 414-1801 0-1178-414-1799Q2819-91 2034-91q-784 0-1198 620-414 621-414 1799 0 1181 414 1801 414 621 1198 621" transform="scale(.01563)"/></defs><use xlink:href="#DejaVuSans-30"/></g></g><g id="ytick_2"><use xlink:href="#m764373ed66" id="line2d_6" x="38.05" y="120.966" style="stroke:#000;stroke-width:.8"/><g id="text_7" transform="matrix(.08 0 0 -.08 20.87 124.005)"><defs><path id="DejaVuSans-35" d="M691 4666h2478v-532H1269V2991q137 47 274 70 138 23 276 23 781 0 1237-428 457-428 457-1159 0-753-469-1171Q2575-91 1722-91q-294 0-599 50Q819 9 494 109v635q281-153 581-228t634-75q541 0 856 284 316 284 316 772 0 487-316 771-315 285-856 285-253 0-505-56-251-56-513-175z" transform="scale(.01563)"/></defs><use xlink:href="#DejaVuSans-35"/><use xlink:href="#DejaVuSans-30" x="63.623"/></g></g><g id="ytick_3"><use xlink:href="#m764373ed66" id="line2d_7" x="38.05" y="104.201" style="stroke:#000;stroke-width:.8"/><g id="text_8" transform="matrix(.08 0 0 -.08 15.78 107.24)"><use xlink:href="#DejaVuSans-31"/><use xlink:href="#DejaVuSans-30" x="63.623"/><use xlink:href="#DejaVuSans-30" x="127.246"/></g></g><g id="ytick_4"><use xlink:href="#m764373ed66" id="line2d_8" x="38.05" y="87.436" style="stroke:#000;stroke-width:.8"/><g id="text_9" transform="matrix(.08 0 0 -.08 15.78 90.475)"><use xlink:href="#DejaVuSans-31"/><use xlink:href="#DejaVuSans-35" x="63.623"/><use xlink:href="#DejaVuSans-30" x="127.246"/></g></g><g id="ytick_5"><use xlink:href="#m764373ed66" id="line2d_9" x="38.05" y="70.671" style="stroke:#000;stroke-width:.8"/><g id="text_10" transform="matrix(.08 0 0 -.08 15.78 73.71)"><use xlink:href="#DejaVuSans-32"/><use xlink:href="#DejaVuSans-30" x="63.623"/><use xlink:href="#DejaVuSans-30" x="127.246"/></g></g><g id="ytick_6"><use xlink:href="#m764373ed66" id="line2d_10" x="38.05" y="53.906" style="stroke:#000;stroke-width:.8"/><g id="text_11" transform="matrix(.08 0 0 -.08 15.78 56.945)"><use xlink:href="#DejaVuSans-32"/><use xlink:href="#DejaVuSans-35" x="63.623"/><use xlink:href="#DejaVuSans-30" x="127.246"/></g></g><g id="ytick_7"><use xlink:href="#m764373ed66" id="line2d_11" x="38.05" y="37.141" style="stroke:#000;stroke-width:.8"/><g id="text_12" transform="matrix(.08 0 0 -.08 15.78 40.18)"><use xlink:href="#DejaVuSans-33"/><use xlink:href="#DejaVuSans-30" x="63.623"/><use xlink:href="#DejaVuSans-30" x="127.246"/></g></g><g id="ytick_8"><use xlink:href="#m764373ed66" id="line2d_12" x="38.05" y="20.375" style="stroke:#000;stroke-width:.8"/><g id="text_13" transform="matrix(.08 0 0 -.08 15.78 23.415)"><use xlink:href="#DejaVuSans-33"/><use xlink:href="#DejaVuSans-35" x="63.623"/><use xlink:href="#DejaVuSans-30" x="127.246"/></g></g><g id="text_14" transform="matrix(0 -.08 -.08 0 14.116 105.261)"><defs><path id="DejaVuSans-66" d="M2375 4863v-479h-550q-309 0-430-125-120-125-120-450v-309h947v-447h-947V0H697v3053H147v447h550v244q0 584 272 851 272 268 862 268z" transform="scale(.01563)"/><path id="DejaVuSans-72" d="M2631 2963q-97 56-211 82-114 27-251 27-488 0-749-317t-261-911V0H581v3500h578v-544q182 319 472 473 291 155 707 155 59 0 131-8 72-7 159-23z" transform="scale(.01563)"/><path id="DejaVuSans-71" d="M947 1747q0-634 261-995t717-361 718 361q263 361 263 995t-263 995q-262 361-718 361t-717-361-261-995M2906 525q-181-312-458-464-276-152-664-152-634 0-1033 506-398 507-398 1332t398 1331q399 506 1033 506 388 0 664-152 277-151 458-463v531h575v-4831h-575z" transform="scale(.01563)"/><path id="DejaVuSans-75" d="M544 1381v2119h575V1403q0-497 193-746 194-248 582-248 465 0 735 297 271 297 271 810v1984h575V0h-575v538q-209-319-486-474-276-155-642-155-603 0-916 375-312 375-312 1097m1447 2203" transform="scale(.01563)"/><path id="DejaVuSans-6e" d="M3513 2113V0h-575v2094q0 497-194 743-194 247-581 247-466 0-735-297-269-296-269-809V0H581v3500h578v-544q207 316 486 472 280 156 646 156 603 0 912-373 310-373 310-1098" transform="scale(.01563)"/><path id="DejaVuSans-63" d="M3122 3366v-538q-244 135-489 202t-495 67q-560 0-870-355-309-354-309-995t309-996q310-354 870-354 250 0 495 67t489 202V134Q2881 22 2623-34q-257-57-548-57-791 0-1257 497-465 497-465 1341 0 856 470 1346 471 491 1290 491 265 0 518-55 253-54 491-163" transform="scale(.01563)"/><path id="DejaVuSans-79" d="M2059-325q-243-625-475-815-231-191-618-191H506v481h338q237 0 368 113 132 112 291 531l103 262L191 3500h609L1894 763l1094 2737h609z" transform="scale(.01563)"/><path id="DejaVuSans-48" d="M628 4666h631V2753h2294v1913h631V0h-631v2222H1259V0H628z" transform="scale(.01563)"/><path id="DejaVuSans-7a" d="M353 3500h2731v-525L922 459h2162V0H275v525l2163 2516H353z" transform="scale(.01563)"/></defs><use xlink:href="#DejaVuSans-66"/><use xlink:href="#DejaVuSans-72" x="35.205"/><use xlink:href="#DejaVuSans-65" x="74.068"/><use xlink:href="#DejaVuSans-71" x="135.592"/><use xlink:href="#DejaVuSans-75" x="199.068"/><use xlink:href="#DejaVuSans-65" x="262.447"/><use xlink:href="#DejaVuSans-6e" x="323.971"/><use xlink:href="#DejaVuSans-63" x="387.35"/><use xlink:href="#DejaVuSans-79" x="442.33"/><use xlink:href="#DejaVuSans-28" x="533.297"/><use xlink:href="#DejaVuSans-48" x="572.311"/><use xlink:href="#DejaVuSans-7a" x="647.506"/><use xlink:href="#DejaVuSans-29" x="699.996"/></g></g><path id="line2d_13" d="M24.86 137.73h18.843l.235-33.268.471-10.05.236-1.434.235 2.9.471 9.018.236 1.094.706-2.085.236.147.471.778.471.483.236.695.706 3.692.471 1.775.236-.961.235-3.936.471-14.06.236-3.73.235-1.167.236-.114.706.066.236-.052.235-.201.472-.994.706-2.428.942-3.794.471-3.411.707-5.535 1.649-9.75.942-4.371.47-1.24.236-.372.236.036.235.728.471 2.607.236.305.235-.83.471-4.34 1.414-15.92.235.545.471 3.687.471 2.244.471 1.014.471.17 1.178-.017.471.279.471.475.471.815 1.178 2.612.47.23.472.16.235.248.236.492.235.855.471 3.12.471 5.017.472 7.349.706 12.954.236 1.574.235-.35.236-1.26.235-1.996.471-9.107.236-4.758.235-1.079.471 5.046.236.202.235-3.69.471-11.26.236-1.415.942 5.197.236.159.47-.233.707-.678.471-.535.236-.103.235.126.236.39.47 1.51.472 2.555.707 5.289 1.648 14.938.707 4.314 1.177 10.706.472 8.581.235 2.13.236-1.397.235-6.087.471-17.19.236-1.999.235 2.25.471 6.921.236 1.615.47.723.236.206.236-1.094.47-6.721.943-15.02.236 2.322.47 7.548.236 1.27.236-.506.47-1.787.707-1.677.471-1.366.471-.663.471-.046.471.229.472.676.706 2.093 1.413 4.965.236 2.231.706 9.172.236-.703.47-9.644.236-4.33.236-.952.471 2.265.236-.388.235-.915.236-.018.235 1.585.236 2.647.235 1.1.707-3.85.47 2.347.707 3.035 1.178 3.862.471 2.592.471 2.57.236-.05.47-.417.472-.262.235.018.236.178 1.177 1.466.471.455.236.512.471 1.955.471 2.263.471 1.437.471.983.236.284.235-.11.236-.885.706-5.09.236-.752.235-.182.236.175.471 1.02.707 2.753.706 2.362.942 2.216 1.413 2.916.707.82.236.148.235-.028.236-.365.47-1.067.236.334.471 3.247.471 2.45.236.248.235-.264.471-1.415.236.065.235.739.236 25.19h9.42l.236-42.006.472 1.859.942 4.621.942 1.16 1.177 3.44.236.173.235-.023.236-.205.471-1.03.707-1.557.47-1.074.472-2.373.942-7.22.235-.351.471.435.236-.005.235.162.707 2.792.236-1.845.47-11.238.472-10.977.47-4.417.236.133.471 2.511.236-.148 1.648-7.674 1.178-4.597.471-.833.707-.584.235-.02.471.377.707 1.033 1.177 1.971.472.573.47.224.472-.1.706-.24.236.058.47.508.472.66.47.112.236.024.236.167 1.413 2.3.471 1.2.471 1.808 1.178 5.738.706 4.151.942 2.796 1.178 4.45.471.894.471.53.471.071.236-.012.235.224 1.178 3.115.471 2.264.236.435.235-.958.707-8.101.235 1.119.471 5.122.236.948.235-.295.471-2.071.236-1.946.47-8.002.472-7.368.235-1.504.236.587.236 1.042.235-.115 1.178-6.843.706-2.233.471-.644.236-.06.235.083.471.563 1.178 2.42.471.953.236.277.235-.022.236-.392.47-1.368.236-.004.236 1.09.47 4.615.707 8.132.236 1.264.235.519.236-.347.236-1.536.47-4.389.472-1.917.47-2.457.472-3.29.235-.702.236-.064.706.63.471.812.471 1.047.707.774.236.8.706 4.24.236.309.235-.439.942-4.552.236.336.942 3.351.235.24.471-.005.472-.253.235-.294.471-1.162.236-.6.235-.233.236.278.47 1.652.707 2.7.471.809.236.082.47-.24.236-.162.236-.027.236.27.235.711.707 3.028.47.748.472.49.47.897.707 1.656.236.074.235-.597.471-3.086.236-.42.471 2.004.471 2.19.236.374.235-.523.236-1.643.47-4.879.236-.866.236 2.522.47 9.383.236 2.019.236-.096.235-1.026.236 50.13h2.12l.235-42.375.707-17.493.235-2.048.236-.548.235-.073.236.173.235 1.082.942 6.206.236.332.236-1.126.47-4.538.236-.202.942 5.41.236.267.235.556.236 2.466.47 10.624.236 1.143.236-2.762.47-8.926.236-1.623.236.097.236.383.706.54.236.854.235 1.626.942 9.32.236.596.235-.272.471-1.286.236-.276.235.14.236.536.471 2.022 1.413 7.706.707 1.956 1.413 2.631.235.501.236.167.235-.22.707-1.264.236.3.942 3.128.235 24.27h8.715l.235-29.562.236 2.908.235.848.236-1.06.706-4.805.236-.447.235.593.471 2.043.707 1.848.236.722.235.341.219.049h0" clip-path="url(#pab6e888db9)" style="fill:none;stroke:#1f77b4;stroke-linecap:square"/><path id="line2d_14" d="M24.86 137.73h18.843l.235-32.127.942-6.231.236-.288.235.2.471 1.045 1.885 5.854.47 1.484.236.183.236-.533.235-1.514.471-5.67.707-9.216.235-1.445 1.413-3.576 1.414-3.353.706-2.694 1.649-7.946.942-7.313.236.189.47 1.768.236-.6.942-8.2.236-.165.235.626.471 2.864.942 8.123.471 4.597.236.346.236-3.752.706-21.71.236-1.98 1.177 4.43 1.178 1.758.47.176.472-.034.471.403.707.838.706.233.236.298.47 1.254 1.178 4.24.942 6.112.472-1.463.235 1.517.471 7.526.236 1.356.235-1.173.707-7.357.235-1.178.236-.31.235-.69.236-2.415.235-5.59.471-16.536.236-1.306.235 2.316.707 11.423.471 3.469.471 1.582.707 1.537.47.465.472.416.47 1.187 1.414 6.081.707 3.994 1.884 13.64.706 6.803.943 10.39.235 1.193.236-.466 1.413-11.753.47.567.236-1.354.236-3.369.706-13.025.236-.779.235 2.162.236 3.292.235 1.728.236-1.63.236-5.186.706-26.995.236-1.28.942 16.814.47 4.4.236 1.344.236.653.706.914.943 2.336.942 1.732.47 1.32.472 2.173.706 4.367.236.315.235-.926.471-2.246.236.403.471 2.21.471 2.147.236-.731.706-7.318.236.461.47 3.594.236.597.236-.129.235.442 1.649 6.854.471 1.47.471 2.424.236 1.476.235.748.471-.276.236.486.706 2.012.236.252.706.233.471.579.471.84.236.574.236.879.47 3.264.472 3.75.47 1.768.236.506.236.137.235-1.184.707-8.996.235-.824.236.372.942 5.577.707 2.053.706 1.934.471 1.006.471.472.471-.104.471-.086.471.372.471.674.943 1.79.235.098.236-.109.47-.794.707-1.889.236.559.47 2.284.236-.34.471-1.92.236.177.235 28.568h9.657l.236-36.641.235-.372.236-.898.235-.276.236.886.706 3.802.236.452.235.095.471-.048.942.262.236-.323.235-.894.472-3.889.47-3.837.472-2.32.47-1.094.236-.334.236-.14.235.225.942 1.804.236.118.235-.345.236-1.06.235-3.118.471-12.834.236-3.235.236-1.457.235-.582.236-1.206.706-8.795.236.059.235.682.236.32.235-.075.471-.44.471-.966 1.178-3.7.236-.297.235-.028.707.297.47-.193.472-.162.47-.121.707-.334.471.107.471.492.472.591.235-.158.471-.64.471-.14.236.053.235-.07.236-.292.47-.942.236-.167.707.724.47.062.236.191.236.385.471 1.522.942 3.623.471 1.773.707 3.887.942 5.735.47 1.886.472 1.455.707 4.194.706 3.733.471 1.447.471.6.471.581.471.706.236.038.235-.157.236.03.235.479.236.892.235 1.385.472 4.806.47 5.288.236.762.236-1.344.706-9.757.236-.604.47 1.228.236-1.71.236-4.887.47-15.14.236-3.858.236-.479.707 1.394.235.138.707-.954.47-.161.472-.651.942-1.533.706-.8.471-.32.472-.078.47.285.472.568.706 1.008.236.118.235.274.236 1.042.47 6.214.472 5.532.235.512.236-1.913.707-12.637.235-.548.471 2.56.236-.635.47-3.341.472 1.472.235-.189.236-.792.235-.223.471 1.396 2.12 7.497.236.167.942-.873.235-.126.236.016.235.335.471 1.484.707 2.465.47.899.943 1.393.707 2.218.706 2.259.236.478.235.217.236-.04.47-.48.707-.761.236-.045.235.204.943 1.724.706.927 1.413 2.438.471.728.236.614.47 2.264.472 2.189.236-.307.235-1.024.236-.512.47 1.135.236-1.193.471-5.424.236.054.706 4.06.236-.112.47-.745.236.322.471 1.702.236-.341.707-5.701.235 1.897.471 4.805.236 1.908.47 5.035.236-2.157.707-16.812.235-.994.236.53.706 4.294.236-.705.471-5.152.236.515.47 6.065.236 1.627.707 2.488.706 6.74.236-.074.235-2.058.942-11.357.236-.085.471 4.7.471 4.216.471 1.384.471.929.236 1.026.47 4.268.472 3.643.235.217.707-1.435.235.226.471 1.725.707 2.805.942 2.431.471 1.043.236-.156.235-1.062.471-3.593.236-.811.235.723.236 1.484.235 34.586H231.4" clip-path="url(#pab6e888db9)" style="fill:none;stroke:#ff7f0e;stroke-linecap:square"/><path id="line2d_15" d="m38.047 120.97 8.862.108.047.022.053-.068.262-.157.003.004.159.177.07-.071.195-.098.13.111.12.094.041-.068.315-.097.003.01.144.116.236-.103.062-.066.059.043.138.027-.112-.087.118.016.018-.043.035.192.041-.057.106.072-.041-.2.044.126.097-.307-.026.504.044-.333.003.006.006-.246.014.082.01-.294.023.797.062-.13.047.542.047-1.126.009.155.073-.245-.032.71.07-.502.118 1.671.036-1 .026-1.202.035 1.745.06-1.443.026-.572.118 3.195.026.552.024-5.83.003-1.164.064 8.2.036-4.231.02 2.647.03-4.468.056.18.097 5.292.015-2.3.02-8.966.05 13.235.038-3.136.077 3.184.02-10.052.007-1.236.07 10.4.018-3.158.02 3.068.006-5.761.006-9.222.024 18.823.076-7.374.006 7.003.027-14.461.076 6.5.089 4.712-.053-7.923.067 3.876.006-12.97.027 22.923.076-7.226.006 4.104.027-16.133.073 8.912.11-14.469-.021 18.684.035-11.999.009 20.732.032-26.037.068 8.092.006-4.121.017 15.753.083-6.26.067 4.26.012-8.494.006-9.379.024 26.722.076-14.331.006 8.626.024-18.13.08 6.835.079 9.17.017-8.899.006-11.318.024 26.65.076-14.67.006 10.391.024-19.733.08 11.104.096-13.725-.017 20.715.035-11.18.006 18.31.035-26.615.068 9.338.006-6.414.03 17.86.07-7.359.094 10.68-.023-22.754.038 15.787.018-15.848.05 17.845.04-4.377.016 6.225.02-12.053.077 6.829.094-10.12-.024 14.696.045-5.588.085 4.402-.024-12.032.036 6.18.112-7.594-.027 11.855.038-8.855.015 12.32.03-14.675.07 4.298.006-3.084.03 10.072.067-3.373.083 6.778-.027-15.603.047 6.55.01-7.235.023 12.243.073-2.556.097 3.181-.064-7.495.08 5.64.067-8.925-.02 13.654.067-7.89.018 5.686.023-11.88.068 5.575.094 7.317-.026-12.509.04 6.988.095-5.65-.024 8.71.039-5.386.073 5.894.033-6.846.009-2.239.02 8.13.074-4.267.12 4.834-.082-7.182.094 5.929.024-6.92.023 7.941.071-5.124.118 5.66-.068-6.801.082 2.802.018-4.358.024 6.933.07-3.775.006-.44.08 2.584.02 1.686.033-4.32.053 2.538.05-2.268-.036 2.368.1-.703.027 1.812.032-2.834.036.681.08-.671-.048 1.567.086-1.187.076 1.09.068-.562.009.009.003-.041.026-.828.08.978.167-1.117-.132 1.765.144-1.54.07 1.728.063-.997.061-1.083.042 1.166.006-.082.044 1.123.047-1.33.015.168.061-1.007.045 1.073.044 1.067.047-1.257.015.143.061-1.087.042 1.19.005-.083.042 1.038-.033-1.13.094.075.053-1.084.045 1.222.014-.302.045 1.308.061-1.226.042-.95.064 1.476.15-1.462-.114 2.148.117-2.035.083 1.91.041-.642.074-1.304.04.704.045 1.146.065-1.185.032-.659.044.963.012-.234.044 1.048.065-1.104.03-.694.064 1.148.139-1.168-.103 1.778.123-1.17.07 1.134.063-.773.041-.99.065 1.234.023.477.07-1.028.007.004.03-.63.061 1.194.024.45.076-.966.027-.647.067 1.314.021.244.062-.67.038-.834.065 1.008.026.44.074-.847.03-.529.061.913.027.404.07-.721.033-.507.062.761.029.384.07-.55.03-.433.074.546.032.288.065-.382.035-.333.07.41.054.305.044-.42.044-.29.06.382.046.32.053-.416.041-.226.06.333.05.267.046-.336.042-.207.056.298.047.2.05-.297.032-.168.065.292.035.132.06-.253.029-.106.061.221.033.093.056-.207.038-.077.047.181.047.04.038-.114.033-.08.059.177.044.02.026-.102.042-.096.058.156.045.036.04-.13.027-.103.065.202h.006l.044.094.02-.182.018-.123.092.15.02.186.056-.299.027.035.047.003.012.113.006-.003.017.214.083-.396.017-.148.047.502.003-.02.01.067.02-.205.062-.642.035.795.023.983.077-1.576.015-.288.059 2.35.006.74.038-3.381.05.69.012-.791.064 3.037.018.94.024-5.56.053 2.757.114-3.506-.023 6.286.026-5.36.139 5.832-.13-6.2.133 4.838.02-5.726.092 2.832.029 2.399.009 1.903.038-7.342.056 3.863.02-1.13.048 3.26.02 1.29.024-7.171.056 3.936.023-1.107.056 3.748.006-.207.006.773.024-7.018.064 3.219.106-3.212-.023 7.1.038-6.103.133 6.483.023-7.676.1 3.24.003-.015.006.307.038 4.1.024-7.542.053 4.566.018-1.895.076 4.498.003.06.003-1.355.02-5.783.095 2.915.003-.057.02 1.205.03 3.015.023-7.103.056 3.693.092 3.328-.065-4.356.08 1.06.008-3.567.047 5.186.056-2.3.003-.043.015 1.41.026 2.55.024-6.672.059 3.573.088 3.15-.065-4.34.08 1.229.02-3.586.036 5.19.059-2.585.003-.016.003.42.035 3.773.035-6.7.041 4.155.121-3.991-.026 6.5.03-6.011.008-.576.012 1.782.123 4.83.024-6.596.1 2.463.006-.156.018 2.231.023 2.065.035-6.513.048 3.312.088 3.295-.05-4.465.065 1.453.02-3.595.035 4.53.06-2.301.002-.013.003.344.036 4.191.038-6.724.041 3.39.053-1.369.024 3.44.017 1.557.027-7.025.05 3.746.053-1.868.041 5.065.003.16.018-4.78.006-2.619.047 4.764.059-2.703.044 5.32.023-7.754.062 4.117.044-1.958.041 5.42.003.219.018-4.952.006-3.228.047 5.268.059-3.069.006.239.03 5.707.035-8.23.061 4.443.045-2.625.026 5.78.006 1.254.035-9.066.053 3.679.056-2.379.03 7.777.003.589.035-9.634.047 4.624.062-4.015-.033 5.953.05-.42.015 3.87.036-9.58.053 3.554.055-3.537.033 9.227.009-3.427.009.646.02-6.275.062 7.25.032-6.45.015-.773.032 8.61.042-6.257.059 5.21.035-7.115.018 2.533.029 5.23.035-7.462.036 1.773.073-1.864-.047 6.684.07-1.197.048-5.274-.035 7.412.094-2.314.085 2.12-.035-7.26.053 4.08.08 2.055.035-6.062.047 7.21-.036-7.242.106 1.954.074-1.76-.044 5.936.07-1.52.01 2.635.061-7.178.041 5.058.115-5.114-.038 7.183.044-5.39.056 4.22-.038-5.861.067.911.112-.957-.059 7.018.062-6.968.118 6.883.006-1.534.056-5.289-.047 6.483.112-4.723.056 5.398.058-7.08.124 7.036.018-2.902.02-4.16.05 4.7.042-3.565.014-.494.018 1.989.02 4.353.06-6.968.035 4.074.088 3.112-.032-6.658.053 3.505.041-4.5.03 5.419.044-3.686.017-1.058.015 2.5.018 3.931.064-6.985.03 5.045.065-4.259.038 5.856.003.238.032-5.81.01.372.014-1.1.03 4.851.064-4.355.041 5.753.06-6.138.02 2.288.064-1.669-.044 3.315.077-.147.026 1.54.056-4.712.006 1.758.006-1.727.027 3.47.076-1.956.035 3.004.065-4.627.01 1.064.06-1.095-.04 3.448.088-2.308.018 3.032.09-2.594.072-1.152-.018 2.037.053-.768.026 1.398.083-1.33.082-.523-.073 1.085.103-.6.115.956.014-.118.094-.887.021.028.1.984-.076-.994.09.69.11-.607.003.271.085.185-.05-.546.053.244.003-.273.082.629.018-.136.003.336.006-.877.1.69.038-.742.047.85.027-.352.041.315.006-.919.062.652.035-.857.006 1.544.068-1.006.07 1.04.006-1.576.033.466.085.67-.006-.916.033.499.097-.713-.006 1.437.018-.82.029.675.07-1.023.01.796.038-.798.023.804.047-.099.042-.796-.024 1.165.118-.742.05.508.006-.872.056.48.047-.558-.006 1.082.07-.692.086.687-.009-.962.033.324.029-.337-.02.844.1-.575.105-.133.006.58.106-.665-.023.872.026-.27.018.072.059-.453.03.357.023-.687.006 1.14.082-.97.115.905.003-.202.003-.814.023 1.008.086-.644.02-.211.024.853.023-.628.018.715.006-1.111.088.595.01-.174-.004.208.006-.049.083.656-.042-1.073.065.145.068-.268.006 1.272.032-.697.003.622.015-.976.091.314.053.694-.041-1.021.088.436.012-.24.062.62.035-.292.118-.982-.062 1.39.08-.932.061 3.836.036-5.25.003-.192.026 2.651.059-1.121.053 5.268.012-6.518.006.926.005-3.912.065 6.106.041-2.63.006-.2.086-6.188-.024 12.257.036-5.032.014 4.121.056-8.572.035 1.057.056 8.789.006-9.992.01.36.005-3.775.027 12.522.07-2.153.077 5.626-.056-11.94.059 8.9.017-13.9.03 14.594.065-4.587.082 7.59-.056-13.214.059 7.712.018-11.64.017 14.453.074-2.215.109-13.097-.024 17.961.027-13.009.012 9.662.097-11.22.003-.156.011 5.19.045 9.365.026-18.188.038 9.214.074-5.54-.024 11.506.042-4.827.04 8.093.024-18.827.039 11.143.076-6.676-.026 11.536.059-3.492.035-13.475-.009 19.482.07-5.858.015-8.3.106 13.152.006.6.003-4.596.006-15.582.024 20.689.08-2.027.093-17.875-.011 18.877.03-7.416.002 7.666.053-14.459.053 3.123.003-.283.03 7.329.026 3.56-.02-4.506.023.054.006-14.51.023 19.345.08-2.39.094-16.188-.015 18.16.033-5.377.03 5.42.026-14.48.05 6.737.07-9.624-.014 17.72.05-6.93.011 6.846.027-14.52.056 3.817.006-.535.011 5.076.033 6.667.012-17.843.064 11.042.012-7.33.089 11.05.005-.293.012 3.348.006-9.837.006-6.949.05 16.256.05-6.982.082 7.006.01-16.451.014 5.33.035 11.148.047-11.63.033 2.296.009-1.584.03 8.701.014 1.757.006-6.044.006-9.873.05 16.553.053-8.307.08 7.624.01-15.882.022 10.576.079-7.759-.05 14.097.088-8.659.106 8.675-.05-16.854.062 9.678.038-7.167.012 11.582.056-3.174.082 5.652-.05-15.953.077 10.65.02-7.744.074 11.707.003.495.027-12.17.017 1.593.01-2.212.023 11.28.059-3.436.064 4.108.03-9.462.009 4.815.008-6.381.05 10.252.053-6.012.074 7.504.009-9.063.003-4.159.05 11.108.056-6.505.103-3.366-.024 11.889.027-11.111.068 10.005-.042-11.493.083 2.154.088 9.434.012-7.707.003-3.837.07 9.862.036-4.16.082 4.853.033-10.996.064 10.735.045-9.009.002-.743.074 8.451.015 1.219.02-5.092.003-3.88.065 9.172.044-7.751.003-1.159.091 6.884.012 1.111.015-2.861.032-5.871-.02 10.176.1-5.985.018-2.748.085 5.924.038 3.06.009-10.341.065 8 .044-6.563.07 4.164.062 5.83-.008-10.702.014.408.003-1.327.047 9.272.05-3.775.012-3.325.106 5.62.036 3.093.008-10.96.053 5.802.077-4.718-.041 7.543.073-3.061.083 4.032-.065-4.492.074 1.35.02-7.21-.009 13.955.097-5.238.039-8.345.044 8.552.03-2.336.017.559.009-.094.041 6.314.009-11.939.05 5.974.08-5.525-.065 7.932.097-4.124.003-.53.076 3.958.015-.791.024 3.5.047-9.546.035 4.488.056-3.612-.03 6.518.086-3.161.103 2.652-.009-2.977.015.655.041-2.629-.032 3.476.1-.435.026-1.648-.009 1.891.098-.961.088.637-.065-.898.088.534.056-.623.065.333.044-.386.05.556.012-.15.065.542-.053-.566.1.197.124-.452.008.162.01-.133.061.248.033-.116.079.385-.065-.399.11.244.076-.384.056.175.04.098.077-.04.05-.076.045.144.061.058.048-.066.13-.051-.122.066.133-.045.168-.07-.153.1.191-.015.065.073.05-.05.08.03-.068-.04.103.026.209-.086.162.067.005-.006.357-.016.009-.008.105.01.136-.025.003.013.088.028-.065-.054.083.036.059-.077.05.06.085.06-.076-.105.109.07.1.023-.092-.088.095.043.1-.11-.006.229.012-.024.058.032-.035-.224.074.111.067-.174.006.396.033-.11h.003l.003-.108.061-.13-.053.324.1-.128.027-.286.006.527.076-.272.018.268.05-.492.033.131.014-.294-.006.737.1-.469.106.308-.005-.431.008.189.086-.15.006.392.014-.155.012.173.006-.49.08.12.003-.017.002.28.08-.145.05.205.006-.361.053.255.062-.343-.006.485.056-.264.02.366-.006-.668.077.14.003-.173.006.748.094-.368.094.359-.006-.728.024.44.088-.487-.026.773.03-.063.002.13.05-.76.05.341.07-.307-.06.69.1-.579.058-.102.056.542.053-.622.003.777.056-.434.023.387-.005-.71.088.421.08-.553.005.876.024-.679.023.61-.006-.685.095.221.094-.193.006.609.05-.783.006.987.053-.585.085.5.006-.756.015.491.003-.604.006.816.103-.403.023-.473-.006.97.094-.66.092.536.006-.675.014.38.095-.37-.077.656.08-.233.002.323.006-.758.097.098.053.875-.005-1.215.073.65.05-.59.006 1.128.056-.771.024.72-.006-.87.094.671.106-.833-.006 1.031.009-.396.003.35.085-.729.024.497.064-.876-.005.923.058-.33.006-.38.047 1.204.018-.126.024.342.035-1.283.009.116.05.393.065-1.101.088 2.46.03-1.09.038-2 .006 2.11.07-1.727.056-.202.065 3.444.065-4.407-.05 4.872.1-1.768.023-2.342.068 2.489.02-.68.048 2.892.009-5.181.023 1.148.033-2.14.05 4.728.026-2.363.009-1.53.07 4.155.036 1.395.009-5.828.038 1.46.02-2.888.05 5.796.039-3.31.097 5.757-.088-6.372.094 2.16.062-4.021-.01 6.512.057-.729.118 2.363-.106-7.153.109 7.105.067-8.889-.05 10.382.097-4.355.021 1.36-.009-3.749.012.415.02-3.802.08 8.47.006-.544h.003l.02 2.197.024-11.592.024 4.548.082-4.323-.068 12.181.097-10.356.012 3.564.003-.131.08 5.056.006-10.291.011 3.125.042 9.516.07-12.542.05 9.086.07-1.588.007-6.684.053 9.816.053-7.783.1 6.025-.085-7.62.103 5.306.023-5.276.053 9.276.03-4.367.005 2.245.036-6.524.07 4.96.039-5.193-.024 7.795.088-1.622.003 2.426.074-7.834.03 2.82.052 3.94.024-7.356.015 2.132.017-1.93.039 7.922.056-7.843.1 6.946.017-2.916.006-4.16.07 7.143.033-1.578.024-5.421.091 4.426.009 2.136.023-5.97.077 3.339.05-3.916-.038 5.349.097-1.704.05 2.57.02-5.303.03 1.248.097-2.298-.059 5.858.074-4.811.091 5.579.024-5.175.017-.232.036 3.477.017 1.55.056-5.852.012 1.04.006-.774.032 4.355.053-.376.01 1.686.04-4.949.056 3.54.053-4.594-.04 4.915.1-1.436.067 2.52.026-4.743.012 1.714.115-3.18-.074 5.884.077-5.229.109 5.811.012-1.958.05-3.215.023 4.31.039-1.47.082.728-.053-5.03.074 3.688.014-.217.024 2.827.006-.12.006.995.056-6.114.04 3.681.054-4.965.05 5.395.009-.968.067 2.317-.04-3.783.061 1.057.038-2.671.036 3.891.03-.114.002.097.015-2.96.017-1.666.053 4.607.036-1.426.097-2.192-.059 5.15.077-3.175.047 1.636.032-3.72.027 1.77.005-.145.01.976.09 1.419-.026-2.098.05.89.044-1.912-.03 2.325.124-1.148.048.492-.027-.789.091.337.062.524.053-.388.088.113-.061-.341.073.18.006-.085.065.188.038-.082.133.252-.118-.26.12.254.021-.106.097-.2.027.047.318.104.023-.05.11.018-.039.029.041-.02.033.04.053-.07.023.024.068-.041.041.06.115-.016.003-.006.059-.033.059.037.1.009.026-.031.094-.013.027.021.135.035 1.054-.015.103-.287-.038.524.041-.297.039.451.005-.767.065.298.036-.199-.006.578.082-.47.041.312.047-.378.01.108.005-.202.065.558.038-.271.038-.176.01.475.05-.269.026.337.065-.749.017.306.062-.256.038.56.089.99-.08-1.046.083.644.08-1.704.032.558.108 2.589-.097-3.601.115 3.451.027-6.223-.01 8.132.092-1.712.003.197.038-4.371.024-1.29.053 4.515.02-.58.06 5.828.008-12.626.024 3.79.106-1.296-.065 7.939.068-7.613.1 5.449-.086-5.839.103 5.566.012 2.452.006-3.84.024-8.222-.01 16.28.095-5.379.047-7.455.077 3.551.08 9.275-.01-12.763.015 2.82.003-6.706.068 14.687.038-8.12.026-2.955.036 7.075.044-4.405.085 11.175.006-15.525.003-4.318.068 17.48.035-8.51.03-3.391.032 7.4.047-5.244.091 8.105-.006-10.003.012 1.44.003-6.743.068 17.676.038-10.197.006-2.668.059 7.439.044-4.756.053 6.777.033-8.894.02-4.866.047 14.98.036-5.54.008-2.24.021-3.013.041 7.201.05-4.608.003-.057.015 1.698.047 5.17.035-7.206.021-4.555.05 13.08.038-6.506.027-3.255.044 6.995.041-3.98.009-1.696.065 6.803.014-1.901.015.587.006-5.785.02-4.013.048 12.211.038-4.22.03-4.781.04 6.782.045-4.1.003-.389.05 2.872.038-.143.003-.009.047-2.599.01 2.806.055-.888.003.27.009-1.459.094.893.053.08.026-.485.012.106.003-.19.091 1.072.01-.475.008.548.068-1.01.012.114.029-.279.038.707.036-.22.109.448-.068-.792.07.692.104-1.337-.05 2.002.055-1.045.062.605-.053-1.383.097.532.033-.903.032 1.493.047-.84.097 3.429-.008-4.659.011 2.735.021-4.638.035 5.646.053-.427.003.343.044-3.544.05 1.682.03-1.768.056 3.072.018-.516.055 3.671.01-10.772.011 3.464.003-1.945.032 8.458.071-5.402.041 3.661.065-4.162.006 1.46.106 3.094-.091-3.267.097.554.02-5.736-.005 10.812.094-3.584.026-4.825.044 6.295.045-3.915.005-.63.048 3.386.044-1.001.056 4.225.008-11.858.05 11.14.045-7.317.07 3.623.003.028.006-.661.018-2.316.065 4.121.026-1.865.047 4.492.015-3.573.024-8.937.05 14.83.038-8.566.006-1.913.044 6.719.059-3.966.006-.695.032 3.927.053-2.495.035 4.454.047-11.629.033 8.33.02 4.963.042-9.626.053 6.817.047-5.298.07 2.46.003.017.006-.461.086-5.329-.03 9.614.036-2.557.061 3.495-.05-10.823.092 3.141.003-.525.05 6.215.05-4.778.135 5.674.03-9.434.052 9.928.03-1.865.003.791.009-6.968.088 3.446.015-1.394.053 3.285.04-1.996.057 3.696.032-7.056.01 3.55.005-4.201.053 8.12.053-4.977.003-.273.056 3.363.038-2.25.138 2.983-.067-3.203.07 3.17.039-4.194.085 2.836.003.12.041-2.26.06 1.935.055-1.352.062.775.073.588-.044-.967.083.4.03-.485.1.082.029.432.006.126.064-.677.027.205.006-.098.091.317.024.316.08-.388.093-.1.015.093.041.176.06-.298.161.414-.097-.454.132.434.092-.284.082.13.006.006.05-.148.07-.179.05.137.104.356.044-.163.22-.263.004.003.218.437-.183-.451.191.417.133-.33.018.02.02.106.08-.221.008.07.01-.106.032.322.035-.034.059.735.035-.972.012.131.112-.431-.038.948.044-.746.044.367.023-.535.01.01.002-.06.053.66.03-.23.067 2.51.01-3.648.008.843.006-3.012.053 5.92.05-2.447.044 1.959-.032-3.107.067.51.027-.79.026 2.36.056-1.551.003-.026.012.622.047 2.857.024-7.84.009 1.987.005-3.405.024 10.382.074-3.63.006 3.524.032-6.002.07 1.002.006-.577.024 2.893.07-.862.06 2.722.008-8.234.012.7.003-2.144.024 10.697.073-3.427.01 4.427.029-8.748.067 2.405.006-1.51.024 5.306.076-2.925.056 3.161-.041-3.6.056 1.298.02-6.835.012 11.504.077-3.61.032-5.987.024 8.313.067-4.144.01 1.862.032-3.716.07 2.134.077-7.75-.024 10.204.042-7.113.005 12.392.103-10.72.006-.614.024 7.713.059-4.096.065 1.463-.024-3.33.07 2.328.11-7.477-.012 8.645.015-4.928.02 12.232.024-15.121.067 8.492.01-6.26.026 7.724.08-3.308.082.727-.024-2.689.041.86.006-1.175.027 3.884.07-.85.018-6.92.024 12.976.056-5.013.002.088.006-2.5.086-2.092-.02 4.687.04-.904.003.365.024-3.64.073 2.1.045-1.667.023 2.009.044-.44.086 3.896-.027-7.016.041 4.206.01-5.163.029 5.945.073-1.359.012-1.094.056-.742-.02 1.96.076-1.687.085 1.178.033-.061.056.606.023-2.19.056-.896-.026 4.745.08-3.49.002-.332.091 2.073.012-1.298.012-.45.026 1.39.06-.35.1.593-.071-1.81.08 1.166.076-1.842-.027 2.677.044-.69.006 1.757.027-3.667.076 1.287.024.851.068-.999.023.763.1-.77.02.543.095.597-.026-1.161.061 1.031.068-1.914-.023 2.944.082-2.004.044 1.043.024-1.194.041.27.006-.117.02.7.08-.423.1.431-.065-.532.08.285.009-.097.04.41.066.853-.027-2.13.077 1.704.014-.738.083-.352-.024.7.044-.026.003.059.024-.793.062.324.003-.002.006.123.002.038.036-.399.05.116.003-.027.073.351.062.57.018-.89.009-.497.023 1.492.077-.875.05.243.023-.36.033.156.015-.208.029.32.068-.156.07-.16-.023.302.041-.066.035-.08.089.38.023-.364.124.102.138-.127.015.04.15.116-.12-.128.126.116.112.012-.086.011.092-.007.285-.082.006.013.227.053.153-.041.006.005.162-.022.377.014 12.088-.106.05-.102.059.111.132.297.033-.044.076-.221.053.136.006.013.06-.214.026-.086.076.13.133.322.035-.162.035-.155.077.135.124-.232.058.112.103.278.056-.127.133-.12.003.002.003.011.053-.171.017.002.039.012.03.074.126.3.035-.052.094-.185.027.059.023.005.042-.12.064-.133.047.129.162.342-.153-.351.197.222.112-.28-.006.334.01-.218.002.138.089-.37.014.1.012.066-.006-.18.009.078.003-.125.082.512.018-.12.009-.11.047.283.015-.04.056.156-.006-.333.044.126.085-.353.006.489.018-.205.062.324.006-1.018.035.45.044-.376-.006.745.062-.12.003.005.088-.48-.006 1.043.027-.609.065.613.006-1.056.038.287.065.62-.024-.957.026.527.048-.665.005 1.19.056-.867.048 1.108-.006-1.916.067.51.071 1.459.006-1.794.068 1.518.014-1.019-.006 1.245.103-.626.062-.937-.006 1.262.01-.491.002.815.006-1.763.097.642.06-.533.005 1.52.041-.461.074.608-.047-1.259.05.591.047-.937-.038 1.941.1-.513.085-1.734-.006 2.293.036-1.909.097 2.134-.006-3.18.017 2.798.015-3.315.006 4.065.088-1.695.083 1.048-.006-2.027.03.475.076-.848.006 2.478.02-.843.083.808-.006-2.725.009.384.003-.03.044 3.282-.006-4.764.074 4.005.006-2.92.105 2.665.003.03.048-2.48.005 2.854.06-2.111.026 2.254-.006-3.447.088 2.159.003-2.334.024 3.104.085-1.767.074-.7-.003 2.757.006-2.217.003 2.53.005-2.815.104 1.229.008-.708.01 1.25.005-2.025.006 2.494.1-1.001.097 1.177-.006-3.055.01.792.026-.31.017 2.388.044-.483.012.34.036-1.55.008 1.235.006-1.709.006 1.921.1-1.515.103 2.005-.09-2.405.093.932.003-2.14.006 3.815.1-.281.018-2.602.006 3.14.091-2.61.015 1.816.03-2.172.064 1.345.026-1.437.05 2.744.033-.93.003.396.07-2.021.033 1.047.091-.503-.05.914.065-.46.032.307.047-.5.033.324.026.114.065-.425.015.275.085-.442-.068.605.162-.296.062.119-.053-.226.097.064.012-.028.032.163.021-.024.018.034.08-.153.02-.055.076.124.006-.033.036.098.08-.092 1.283.022.047.13.05-.253.012.075.094.214-.006-.286.03.136.052-.135-.017.33.065-.228.103.543-.05-.693.052.391.05-1.54.05 1.859.01-.957.026 1.24-.018-1.722.103 1.179.003.333.018-1.16.085.563.047-.257.05.521.068.53-.05-1.088.083.464.032-1.364.07 1.646.006-.482.033 3.328.023-6.18.056 3.706.042-3.737-.033 4.28.1-.655.106 3.865-.05-11.644.06 10.507.046-6.31.077 4.535.03 1.359.02-7.208.056 4.979.067-2.812-.047 3.43.095-.916.07 3.362.009-6.053.003-2.178.062 7.025.041-1.712.118 3.527-.094-6.287.097 5.445.009-12.6.032 13.699.068-2.356.003 1.968.023-10.433.086 10.304.002.031.003-.94.012-13.506.033 16.666.067-3.66.092 1.49-.068-11.47.085 10.192.015-15.288.024 20.782.073-6.43.009 1.644.006-5.455.109-10.2-.033 18.167.039-12.421.017 14.665.095-13.881.1-6.981-.027 19.356.035-11.564.015 13.458.094-15.787.003-.89.065 13.624.056 3.395-.026-23.296.07 15.302.05-8.082.027 11.142.03-2.201.061 9.084-.024-24.766.068 15.73.047-7.137.033 8.763.026-1.737.059 8.612-.024-23.407.071 14.778.059-6.542.047 8.404.056 7.875-.023-25.856.07 15.32.059-6.802-.024 10.825.068-2.83.056 8.334-.026-22.793.08 12.67.052-6.493-.023 10.92.067-.563.06 4.724-.033-20.085.076 12.423.006-.954.05-5.888.047 10.373.006.563.012-10.343.012-4.181.023 17.774.071-8.969.08 5.037.023-12.12.003-.488.02 14.74.004.882.023-14.592.065 8.83.076-8.81.024 11.932.006-.018.003 1.482.023-12.276.068 6 .074-6.943.023 11.518.006-.406.003 1.072.024-10.704.067 5.74.074-6.298.032 10.335.106-9.104.015 4.367.024 4.607.017-10.26.068 6.51.074-4.984.026 8.14.009.63.015-6.27.003-3.281.035 8.257.07-3.256.071 4.436-.035-8.446.053.074.003-.993.032 7.68.068-5.48.076 7.225.018-9.256.015 1.608.1 5.794-.024-6.238.045 1.363.058-2.26-.017 8.796.065-4.709.123 4.86-.03-8.097.033 8.062.006-.318.015-8.248.109 3.29.064 5.397.024-8.234.024 4.972.073-4.75.018 5.327.032-4.55.027 6.994.02-7.431.086 3.396.014-3.904.077 8.136.026-7.7.121 5.359-.026-5.94.038 1.852.012-1.32.017 6.026.01 1.785.035-8.146.061 5.412.047.456-.023-6.323.041 2.642.07-2.692-.035 8.614.071-4.372.05-3.952-.02 6.008.082-3.142.02 5.449.03-9.044.068 6.523.02-5.042.077 6.81.006 1.078.026-9.394.056 3.698.003.004.115 5.425-.074-7.724.08 6.54.02-7.173.1 1.225.068 4.858.006 1.426.038-6.485.056 2.109.106 3.478-.059-4.61.074 3.242.027-3.718.109.94.011-.451.024 2.609.018 1.87.04-4.616.042 2.004.08-2.033.023 2.677.018 1.836.038-4.327.044 1.887.08-2.239.023 2.472.02 2.146.039-4.026.047 1.389.074-1.942.026 2.375.024 2.191.044-4.062.038 1.396.003.002.12 2.666-.052-4.3.065 3.18.03-2.94.096.639.02-.748.027 2.45.018 1.649.044-3.97.044 1.75.071-1.803.026 1.977.021 1.909.044-3.815.044 1.746.068-1.722.03 1.919.02 1.73.044-3.659.044 1.72.065-1.67.03 1.66.023 1.93.041-3.607.045 1.662.003.005.005-.195.056-1.457.033 1.818.02 1.838.045-3.759.044 1.813.059-1.59.005-.182.045 3.4.008.47.045-4.066.04 2.082.004.026.023-.663.042-1.323.035 2.726.015 1.426.047-4.413.044 2.343.065-2.194.032 2.564.018 1.92.047-4.778.044 2.53.068-2.456.026 2.462.02 2.516.048-5.145.041 2.31.006.161.044-1.453.02-1.149.05 5.476.048-5.382.035 2.696.07-2.893.004-.131.03 3.392.023 2.42.035-5.928.05 3.228.062-3.258.038 3.519.024 2.845.038-7.112.047 4.555.062-4.17.044 4.772.018 2.461.038-8.685.05 5.687.05-4.579.056 5.1.018 3.333.038-10.376.05 6.316.047-5.517.06 6.467.017 4.296.023-13.304.068 8.184.003.01.112 5.49-.082-11.393.09 9.253.021-12.673.098 2.6.076 11.97.035-11.362.003-1.04.062 9.472.038-5.85.074 7.459-.032-8.607.064 1.238.01-4.074.032 9.786.064-5.706.077 7.617.024-9.27.005.759.01-3.893.035 10.74.061-5.947.077 7.114.026-9.588.003.27.012-3.086.018 10.637.003 1.19.062-7.967.035 3.343.094-7.332-.03 12.22.045-4.561.009 5.052.062-8.803.035 2.653.097-6.72-.032 12.596.038-5.675.015 6.491.061-9.399.033 2.661.012-3.867.047 8.785.006-.238.056 2.133-.021-13.325.065 8.6.062-5.98-.021 8.25.062-2.098.07 4.557-.02-13.217.053 8.361.076-5.751-.023 8.214.056-1.33.059-9.636.02 13.252.038-6.368.045 4.117.023-8.15.047 7.461.01.765.058 1.874-.02-13.02.064 9.468.065-6.293-.024 8.127.068-1.476.07 2.506-.02-11.78.053 8.563.077-5.55-.024 7.026.059-2.7.062-6.491-.036 10.69.083-4.215.062 2.822-.024-6.998.07 4.307.074-6.785-.035 11.225.053-3.677.006 3.16.065-8.768.035 3.83.112-5.264-.038 10.686.04-8.86.019 7.586.064-8.193.03 4.293.006.41.006-1.628.111-3.543-.04 9.214.043-8.255.05 6.598.065-2.804.083 4.147-.068-5.683.088 3.205.02-5.61.066 6.568.03-4.195.123 4.704.006-.907.02-4.283.097 1.234.133 2.864-.097-3.437.103 3.054.02-2.123.095.628.014.509.027-1.293.065.648.003-.015.008.397.068.892.032-.947.01.179.105-1.055.02.267.092 1.773.027-1.013.082-1.157-.068 1.32.11-1.203.102 2.161.024-.564.1-1.72.02.224.127 1.95.003-.054.085-2.169.083.706.127 1.53-.115-1.812.123 1.043.06-1.505.061.487.118 1.627.009-.152.008.266.05-1.53.012.208.027-.932.065.987.017-.088.121 1.237-.109-1.492.13 1.193.064-1.723.062.688.015-.13.112 1.32.023.119.042-1.03.044-.984.064.979.148.998-.136-1.247.144.993.01.12.005-.282.062-1.543.059.57.138 1.337.003-.05.103-1.815-.088 2.015.13-1.458.026.494.088-.097.06 1.035.043-1.015.045-.94.064.874.133.928-.083-1.268.089 1.231.1-1.728-.086 1.84.171-1.008.136.972-.106-1.429.14.851.05-1.265.08.696.127 1.264-.091-1.572.1 1.362.009.082.03-.453.055-1.224.07.493.048-.296.03.751.011-.121.032 1.367.065-1.46.02-.982.069 1.306.023-.596.07-.268.021.47.062 2.09.041-2.394.003.094.065.999-.035-1.969.082 1.081.02-.777.04.955.04-.148.065 2.499.035-3.074.039-.281.02 1.085.015 1.012.074-2.217.011.284.127 3.523.012-.9.065-2.893.055 1.48.05-1.645.039 1.68.03-.535.005-.01.012.238.015-.016.014.223.03 1.467.053-2.357.012.016.005-.097.053.86.027-.25.023-.156.036.286.056-.18.009-.02.04.32.03.171.08-.17.07-.495.062.155.147.523.047-.223.056-.334.08.203.124-.023.014.048.033.12.064-.187.03-.036.08.052.035.029.076-.052.153.103.039.056.061-.1.06-.09.067.083.174-.014.162.036h.15l.18-.02.002.004.118.03.018-.015.262.02.035.01.065-.051.465.01.003.02.08.006-.039-.085.065.052.138-.062.003.015.092.08-.039-.121.053.058.003-.042.05.159.05-.064.089.113-.021-.218.038.067.018-.08.053.309.009-.05.003.067.076-.74.006.124.018-.674.03 1.361.055-.189.06.561-.033-.953.064.286.003-.387.05.936.06-.91.005-.112.041.729.033-.085.015.174.07-.374.039-.785.061 1.069.05 1.194.036-1.897.014-.424.053 1.45.045-1.237.005-.368.06 2.768.005-.076.006.076.033-1.62.067.564.05-1.598.112 2.363-.088-2.595.106 1.696.032-2.283.05 2.569.036-1.96.023-.722.027 2.136.038 2.39.026-3.085.024-2.276.05 4.33.009-.485.115 2.183-.062-6.123.065 5.841.05-6.128.067 3.718.03-4.032.05 6.679.006-.217.009.998.038-5.45.07 4.197.048-6.651.003-.027.014.823.044 7.816.056-9.001.01 1.095.04 6.279.05-7.34.01.491.002-.032.006.768.044 8.143.053-9.6.02 3.794.004-.01.003.117.073-4.044.056 9.539.003.216.027-5.805.023-3.648.053 7.391.006-.564.006.14.006-1.065.032-6.347.053 10.32.012-1.122.153-9.238.012 2.384.03 7.898.052-9.482.065 6.909.05-7.565.039 10.139.017-1.73.036-7.608.079 5.715.035-6.47.039 10.089.053-9.157.064 6.381.039-6.691.006.23.005-.924.036 9.87.003.418.038-8.713.009.492.109-1.29-.039 6.488.045-6.322.006-1.057.038 10.307.056-8.208.062 5.196.038-6.307.003.063.009-.941.017 4.717.02 5.292.054-8.62.035 3.61.08-4.977-.05 7.192.067-2.307.02 5.197.054-8.707.035 3.674.006-.391.02 2.245.092 3.251-.038-10.236.056 7.92.035-6.717.077 5.341.038-6.634.03 8.409.008 1.996.056-9.34.027 2.685.038 4.024.032-6.3.009-1.598.047 10.345.056-9.157.003-.282.044 5.688.106 3.86-.047-10.844.059 10.211.153-10.124.015 2.217.035 8.79.059-10.459.024 4.844.026 3.788.032-5.683.018-3.671.053 11.2.047-10.985.065 9.253.044-8.73.006-1.01.059 11.244.044-10.398.059 8.894-.05-8.99.097.071.006-.797.059 11.17.015-3.194.008-3.875.018-4.17.05 9.901.047-7.44.018-2.232.044 10.62.015.263.006-.896.038-10.157.085 5.077.027-4.42.044 9.725.018.364.023-5.375.02-5.226.05 9.349.045-6.65.018-1.832.047 9.438.006-.428.008.429.021-3.735.024-6.261.05 8.72.047-6.677.014-1.212.021 2.886.038 6.128.047-9.194.033 5.582.015 1.787.053-5.647.011-1.103.039 6.524.02 1.86.044-8.252.042 5.052.067-4.578.056 6.824.006.414.035-5.11.018-1.666.059 4.55.038-3.945.01-.37.017 1.563.032 4.15.05-4.79.03 1.334.03 1.115.031-1.534.015-1.024.047 4 .047-2.837.071 1.145.035-1.317.01-.398.043 2.019.033-.721.02.453.042-.868.038.275.03-.696.07.894.032.448.065-.701.044-.288.06.283.05.487.064-.377.082-.357.039.303.062.403.053-.372.085-.27.038.107.062.463.08-.297.061-.258.062.23.08.247.053-.243.076-.14.041.101.068.14.062-.072.074-.113.067.089.1.055.036-.054.13-.049.002.003.13.075.017-.012.148-.019.008.012.039.057.067-.09.383.046.05.04.047-.089.006-.028.083.068.014-.003.036.073.05-.131.02.033.115-.271-.085.408.094-.338.05.512.05-.517.015.231.106-.287-.077.393.086-.312.082.56-.018-.722.053.428.06-.96-.048 1.048.103-.407.059-.093-.03.523.05-.02.007.39.053-.958.047.193.04-.288.05 1.219.024.881.05-2.139.01.247.011.614.032-1.06.036-.393.03 1.025.052 2.49.044-4.369.006 1.188.024 2.66.03-3.605.055.929.05 4.341.012-2.667.006-4.77.065 7.305.04-4.824.024-.722.045 5.7.017-.81.006 1.703.018-10.339.073 4.463.024-2.76.065 4.516.038 4.927.012-3.314.006-10.54.053 13.543.05-4.82.1 5.67-.068-9.292.077 3.458.006-10.263.05 15.563.053-4.375.1 5.102-.068-9.848.074 7.467.008-13.987.048 16.547.055-4.208.1 4.366-.067-9.589.073 6.453.01-15.626.046 18.432.053-4.797.106 4.273-.085-8.954.088 7.135.012-15.119.047 17.05.05-3.24.106 3.403-.085-9.886.088 8.794.015-17.418.023 18.933.074-3.501.106 2.337-.082-8.393.088 6.706.015-14.957.023 17.886.074-4.27.006.152.003-1.093.117-12.192-.02 15.894.023-12.963.021 13.395.094-6.298.106-8.912-.02 14.6.029-6.71.041 7.369.03-11.13.04 4.215.03.915.056 5.584.012-5.587.006-8.253.053 13.34.05-2.864.02-2.827.065 3.29.015 1.604.02-9.91.068 8.044.012-4.804.1 4.164.003.16.038-1.97.042.587.07-.563-.047 1.215.086-.75.088 1.74-.05-2.03.07.187.021 1.036.056-1.12.035.34.045-.205.038.996.012.287.076-1.153.035.291-.026-.303.068-.024.014-.297.065.983.012-.136.015.486.062-1.505.029.884.053-.79-.024 1.058.083-.334.044.98.053-1.496.012-.328.023 1.042.08-.903.059 1.414.014 1.23.027-3.046.068 2.013.053-2.671.061 1.928.11 3.34-.054-6.957.062 5.128.02-4.603.092 3.579.006-.04.003.524.018 3.43.029-9.728.059 6.01.012-5.178.094 6.19.032 2.725.015-10.138.003-2.04.026 12.289.071-3.567.112 2.801-.08-7.498.083 6.94.015-12.441.026 14.01.07-2.892.033-5.643.083 8.1.017-13.718.027 14.695.073-3.35.115 2.752-.085-8.333.088 7.853.018-14.136.023 14.853.074-3.303.032-5.455.089 8.437.017-14.149.027 15.5.07-3.86.11 1.204-.071-6.98.073 6.597.033-12.894.023 16.62.065-6.195.115 2.906-.074-7.646.077 7.274.032-14.078.024 18.706.062-8.362.02 4.131.027-8.238.073 7.604.033-14.01.023 18.018.065-6.97.018 3.343.026-8.033.077 7.235.032-12.942.024 16.48.067-6.144.003-.029.006.862.115 3.542-.082-8.636.085 8.592.02-14.512.024 15.584.074-6.797.117 6.048-.082-8.447.085 8.017.021-14.3.047 15.587.05-8.438.033-.158.085 7.55.02-14.398.048 15.203.053-7.102.006 5.978.053-6.062.055 5.784.015-3.502.006-8.79.05 13.626.053-4.74.05-2.913.062 6.388.02-12.008.048 13.56.053-5.448.011-4.036.1 8.594.015-10.955.068 11.581.047-10.83.1 10.924.009-12.107.003-.623.006 12.904.053-4.514.006 4.716.047-12.166.056 6.121.065 6.085-.006-13.577.05 7.808.076-5.16-.062 11.266.095-5.69.07-6.214-.02 9.612.026-1.313.003 4.36.009-12.563.094 2.944.015-2.42.062 7.75.014-1.109.039 4.633.009-11.798.003-1.076.044 11.897.04-3.712.086 1.836-.047-8.173.077 7.835.05-10.197-.024 13.237.086-3.418.05-7.263.059 7.014.032.456.006-3.74.02-4.753-.008 11.766.094-5.408.003 2.503.035-7.516.074 5.787.017 1.61.012-6.927.003-.052.006 11.14.023-14.366.083 5.462.112 4.551-.083-6.645.1 5.052.036-8.593-.024 13.832.097-3.724.003.565.036-7.41.061 6.121.077-9.48-.024 13.591.065-6.544.036 3.822.035-6.823.038 2.497.08 6.863.006-9.78.002-2.035.006 9.42.098-4.67.111 4.163-.088-6.054.094 5.023.033-8.76-.01 13.005.095-6.877.006 3.322.035-6.658.07 4.612.045 5.706.009-13.664.053 7.106.076-3.125-.064 6.734.097-3.166.073-6.184.006 11.065.003 1.95.01-14.665.09 8.086.021-4.488.059 5.96.026-.767.006-.274.01 2.617.01-.17.074 4.035-.047-14.099.077 8.67.035-6.813.08 5.014.044-8.099.009 13.24.05-4.555.006 7.235.047-12.993.056 3.729.064 6.4.021-11.675.003-3.514.065 17.536.035-8.69.02 5.891-.008-8.66.103 5.154.05-10.936-.027 13.995.068-.134.006 1.383.041-10.811.05 5.436.012-5.497.094 9.676.068 4.134-.044-21.177.053 13.285.097-8.19-.047 15.38.059-5.717.094 5.134-.047-11.24.053 4.874.006-16.452.047 24.764.056-3.699.003 3.882.023-18.193.08 8.383.062-12.36-.015 19.8.035-3.504.027 4.553.014-16.67.062 5.68.01-7.685.043 15.429.053-3.996.068 8.14-.024-23.52.056 11.833.074-8.282-.047 17.61.082-7.46.083 8.76-.053-12.617.067 5.597.01-14.953.023 22.649.076-9.21.05 5.617-.017-15.052.062 5.989.003-.351.04 7.618.06 6.572-.024-26.027.059 12.678.015-7.594.011 17.514.062-5.027.103 5.762-.053-11.542.065 9.003.015-21.084.023 27.372.077-9.581.056 2.593-.024-11.34.062 3.84.083-10.173-.021 20.073.038-7.617.01 9.536.05-15.822.05 7.477.005-5.03.044 8.01.06-.574.029 3.359.014-10.557.003-6.184.027 18.192.076-3.701.003 1.653.024-7.99.07.431.003-.295.053 5.623.01 1.456.02-9.828.07 6.578.012-3.68.024 5.782.07-1.97.01.805.02-3.135.076 2.314.062-1.824.05 1.362.039-.746.076.611.033.05.017-.606.05.375.041-.32-.023.528.035-.138.006.172.024-.345.076.06.07.107-.05-.235.06.121.014-.256.098.21.064.124.012-.159.032.04.018-.065.012.155.082-.106.133.171.038-.14.07-.119-.05.138.095-.037.091.04-.076-.066.106.042.103-.045.009-.022.103.037.008.018.095.01.014-.04.086.001-.06.034.08-.003.112.009.006.006.124.003.362-.009.215-.01.3.008.135-.01.245-.004.277.02.653.002.754-.02.768.022.722-.013.385.017.25-.006.133.007.091-.001-.076.01.094.006.109.022-.091-.037.094.03.1-.007.012.015.097.012.017-.023.092-.04-.08.064.11-.047.111.016-.07-.047.073.037.077-.094.044.032.12.15-.035-.23.038.194.068-.205-.012.289.053-.148.033.374-.006-.649.056.058.003-.334.03.755.076-.27.006-.583.008.933.092-.253.035.494.068-1.014.03-.262.052.719.006-.02.059 2.396.023-4.091.03 2.078.068-3.52-.048 5.48.1-3.218.086 5.539.006-6.529.003-3.915.065 10.754.038-2.72.03-6.347.085 3.733.044 5.897.006-8.756.003-3.77.008 14.66.095-5.531.03-7.652.085 2.79.002-.33.042 7.814.023 6.621-.009-22.266.089 11.174.044-6.672-.03 9.474.092-2.333.076 5.312-.047-7.52.053 4.39.065-9.091-.053 12.559.1-5.453.026-4.55.065 5.781.018-.932.076 1.627.048-4.591.07 2.579-.05-3.466.091 1.872.003-.216.05 2.115.05-1.6.056 1.02.042-1.048.014.133.074.715-.05-.798.1.238.003-.062.044.511.056-.407.12.345.03.091.047-.3.02-.171-.008.27.103-.21.033.098.035.225.05-.244.035.165.053-.318.094.165.042.127.023.056.053-.133.027.017.044-.1.094.054.009-.003.041.106.012.005.035-.11.012-.002.1-.033-.062.072.083-.021.12.076.012-.015.142-.107.017.03.127.08.009-.005.332-.053.118.027.003.004.389-.038.088-.005-.07.021.088.013.153-.072.009.015.111.14-.082-.31.094.265.035-.144.05.276.024-.122.091.1-.067-.307.082.215.006-.162.08.312.023-.225.106.195-.08-.42.083.326.003-.097.076.77.012-.203.003.16.091-1.008.01.219.038-.417.008.024.003-.023.039.555.005-.042.077 1.59.03-1.163.035-2.174.047 2.677.032-1.572.018-1.057.062 2.281.02-.133.027-.383.018 1.432.008-.042.027.983.047-4.724.003-.352.047 4.339.053-3.744.132 5.083.068-6.761-.05 6.891.097-1.034.003.24.036-4.35.008.256.006-1.427.047 4.186.053-.733.05 3.426.03-5.189.02-3.672.05 8.413.039-5.33.059 3.212-.047-4.908.106 4.03.003-.11.023 2.817.02 1.16.054-9.615.032 7.644.065-6.308-.05 7.503.097-2.806.091 3.764-.047-5.456.056 1.016.062-5.166-.05 10.181.094-3.815.006 1.902.047-5.925.053 2.568.1 4.14-.056-5.169.062 1.198.02-3.22-.008 8.056.094-2.543.003 1.374.009-4.603.094 1.31.05-.898.053 1.16.006-.425.009.881.038-1.255.059.123.041-.486-.032.7.076-.198.033-.252.085.649.024-.353.053.45.032-.06.13-.627.02.222.02.129.03.144.047-.541.03.386.006-.248.094.587.009-.25.006.47.047-1.17.056.622.058-.459-.044.721.1-.6.162 1.804-.1-2.061.106.7.02-1.564-.008 3.54.091-1.604.006 1.092.05-2.566.05.865.074-.578-.044 1.022.082-.665.07 4.053.007-5.484.003-2.203.088 6.586.015-1.898.003.37.029-2.64.07 1.826.021-1.35.083 2.15.006-.357.064-4.316-.006 6.923.053-4.619.021 4.42.068-5.223.023 2.076.027 1.208.041-2.112.038.61.006-.36.08 2.198.011-.493.098.576-.027-3.342.035 2.292.042-2.048-.027 3.08.091-.966.003.114.056-1.837.024.691.003-.077.065.725.008-.286.062 2.197.024-4.087.02 2.002.006-1.763.024 3.66.08-2.284.035 1.369.062-1.878.017.789.077-.41-.047.908.08-.51.067 1.724.009-3.95.011.69.003-1.13.05 5.18.053-3.412.062 2.154-.05-2.494.097.63.045 1.09.061-1.15.01.312.002-.239.091 1.393.042 1.27.023-4.057.038 1.872.062-1.19-.05 3.558.094-1.74.018.255.062-1.26.03.912.076-1.041.035.93.02-.333.05.9.033-.31.094 1.17-.064-3.409.07 1.765.045-1.16-.036 1.985.097-.256.071-1.146.044.654.006.28.047-1.023.056.6.118.868-.077-1.012.08.864.035-1.698.05 2.038.027-.665.035-.911.047 1.098.038-.443.003.003.083.014.035-.43.103.486-.091-.579.109.462.103-.385-.05.94.056-.51.003.008.003-.234.003-.182.05.787.058-.768.048.674.073-.58.091-.046-.05.286.065-.226.15.418.003-.019.06-.153-.048.215.103-.17.006.038.012-.111.085.043.115-.175.012.041.02-.031.047.074.036-.007.012-.028.117.136.097.054-.088-.068.133.022.453-.042.236-.031.153-.07.014.01.242.12.28-.11.182.052.274.018 3.465-.01h0" clip-path="url(#pab6e888db9)" style="fill:none;stroke:#2ca02c;stroke-width:.5;stroke-linecap:square"/><path id="patch_3" d="M38.05 142.76V8.64" style="fill:none;stroke:#000;stroke-width:.8;stroke-linejoin:miter;stroke-linecap:square"/><path id="patch_4" d="M221.76 142.76V8.64" style="fill:none;stroke:#000;stroke-width:.8;stroke-linejoin:miter;stroke-linecap:square"/><path id="patch_5" d="M38.05 142.76h183.71" style="fill:none;stroke:#000;stroke-width:.8;stroke-linejoin:miter;stroke-linecap:square"/><path id="patch_6" d="M38.05 8.64h183.71" style="fill:none;stroke:#000;stroke-width:.8;stroke-linejoin:miter;stroke-linecap:square"/><g id="legend_1"><path id="line2d_16" d="M164.938 15.919h16" style="fill:none;stroke:#ff7f0e;stroke-linecap:square"/><g id="text_15" transform="matrix(.08 0 0 -.08 187.338 18.719)"><defs><path id="DejaVuSans-46" d="M628 4666h2681v-532H1259V2759h1850v-531H1259V0H628z" transform="scale(.01563)"/><path id="DejaVuSans-70" d="M1159 525v-1856H581v4831h578v-531q182 312 458 463 277 152 661 152 638 0 1036-506 399-506 399-1331T3314 415Q2916-91 2278-91q-384 0-661 152-276 152-458 464m1957 1222q0 634-261 995t-717 361q-457 0-718-361t-261-995 261-995 718-361q456 0 717 361t261 995" transform="scale(.01563)"/><path id="DejaVuSans-64" d="M2906 2969v1894h575V0h-575v525q-181-312-458-464-276-152-664-152-634 0-1033 506-398 507-398 1332t398 1331q399 506 1033 506 388 0 664-152 277-151 458-463M947 1747q0-634 261-995t717-361 718 361q263 361 263 995t-263 995q-262 361-718 361t-717-361-261-995" transform="scale(.01563)"/></defs><use xlink:href="#DejaVuSans-46"/><use xlink:href="#DejaVuSans-30" x="57.52"/><use xlink:href="#DejaVuSans-70" x="152.93"/><use xlink:href="#DejaVuSans-72" x="216.406"/><use xlink:href="#DejaVuSans-65" x="255.27"/><use xlink:href="#DejaVuSans-64" x="316.793"/></g><path id="line2d_17" d="M164.938 27.661h16" style="fill:none;stroke:#1f77b4;stroke-linecap:square"/><g id="text_16" transform="matrix(.08 0 0 -.08 187.338 30.461)"><defs><path id="DejaVuSans-6f" d="M1959 3097q-462 0-731-361t-269-989 267-989q268-361 733-361 460 0 728 362 269 363 269 988 0 622-269 986-268 364-728 364m0 487q750 0 1178-488 429-487 429-1349 0-859-429-1349Q2709-91 1959-91q-753 0-1180 489-426 490-426 1349 0 862 426 1349 427 488 1180 488" transform="scale(.01563)"/><path id="DejaVuSans-67" d="M2906 1791q0 625-258 968-257 344-723 344-462 0-720-344-258-343-258-968 0-622 258-966t720-344q466 0 723 344 258 344 258 966m575-1357q0-893-397-1329-396-436-1215-436-303 0-572 45t-522 139v559q253-137 500-202 247-66 503-66 566 0 847 295t281 892v285q-178-310-456-463T1784 0Q1141 0 747 490 353 981 353 1791q0 812 394 1302 394 491 1037 491 388 0 666-153t456-462v531h575z" transform="scale(.01563)"/></defs><use xlink:href="#DejaVuSans-46"/><use xlink:href="#DejaVuSans-30" x="57.52"/><use xlink:href="#DejaVuSans-6f" x="152.93"/><use xlink:href="#DejaVuSans-72" x="214.111"/><use xlink:href="#DejaVuSans-69" x="255.225"/><use xlink:href="#DejaVuSans-67" x="283.008"/></g></g></g></g><defs><clipPath id="pab6e888db9"><path d="M38.05 8.64h183.71v134.12H38.05z"/></clipPath></defs></svg>