<svg xmlns="http://www.w3.org/2000/svg" xmlns:xlink="http://www.w3.org/1999/xlink" width="307.2" height="230.4" viewBox="0 0 230.4 172.8"><defs><style>*{stroke-linejoin:round;stroke-linecap:butt}</style></defs><g id="figure_1"><path id="patch_1" d="M0 172.8h230.4V0H0z" style="fill:#fff"/><g id="axes_1"><path id="patch_2" d="M38.05 142.76h183.71V8.64H38.05z" style="fill:#fff"/><g id="matplotlib.axis_1"><g id="xtick_1"><g id="line2d_1"><defs><path id="m6f46bb10ad" d="M0 0v3.5" style="stroke:#000;stroke-width:.8"/></defs><use xlink:href="#m6f46bb10ad" x="75.047" y="142.76" style="stroke:#000;stroke-width:.8"/></g><g id="text_1" transform="matrix(.08 0 0 -.08 72.502 155.839)"><defs><path id="DejaVuSans-31" d="M794 531h1031v3560L703 3866v575l1116 225h631V531h1031V0H794z" transform="scale(.01563)"/></defs><use xlink:href="#DejaVuSans-31"/></g></g><g id="xtick_2"><use xlink:href="#m6f46bb10ad" id="line2d_2" x="126.078" y="142.76" style="stroke:#000;stroke-width:.8"/><g id="text_2" transform="matrix(.08 0 0 -.08 123.533 155.839)"><defs><path id="DejaVuSans-32" d="M1228 531h2203V0H469v531q359 372 979 998 621 627 780 809 303 340 423 576 121 236 121 464 0 372-261 606-261 235-680 235-297 0-627-103-329-103-704-313v638q381 153 712 231 332 78 607 78 725 0 1156-363 431-362 431-968 0-288-108-546-107-257-392-607-78-91-497-524-418-433-1181-1211" transform="scale(.01563)"/></defs><use xlink:href="#DejaVuSans-32"/></g></g><g id="xtick_3"><use xlink:href="#m6f46bb10ad" id="line2d_3" x="177.108" y="142.76" style="stroke:#000;stroke-width:.8"/><g id="text_3" transform="matrix(.08 0 0 -.08 174.563 155.839)"><defs><path id="DejaVuSans-33" d="M2597 2516q453-97 707-404 255-306 255-756 0-690-475-1069Q2609-91 1734-91q-293 0-604 58T488 141v609q262-153 574-231 313-78 654-78 593 0 904 234t311 681q0 413-289 645-289 233-804 233h-544v519h569q465 0 712 186t247 536q0 359-255 551-254 193-729 193-260 0-557-57-297-56-653-174v562q360 100 674 150t592 50q719 0 1137-327 419-326 419-882 0-388-222-655t-631-370" transform="scale(.01563)"/></defs><use xlink:href="#DejaVuSans-33"/></g></g><g id="text_4" transform="matrix(.08 0 0 -.08 114.392 163.581)"><defs><path id="DejaVuSans-74" d="M1172 4494v-994h1184v-447H1172V1153q0-428 117-550t477-122h590V0h-590q-666 0-919 248-253 249-253 905v1900H172v447h422v994z" transform="scale(.01563)"/><path id="DejaVuSans-69" d="M603 3500h575V0H603zm0 1363h575v-729H603z" transform="scale(.01563)"/><path id="DejaVuSans-6d" d="M3328 2828q216 388 516 572t706 184q547 0 844-383 297-382 297-1088V0h-578v2094q0 503-179 746-178 244-543 244-447 0-707-297-259-296-259-809V0h-578v2094q0 506-178 748t-550 242q-441 0-701-298-259-298-259-808V0H581v3500h578v-544q197 322 472 475t653 153q382 0 649-194 267-193 395-562" transform="scale(.01563)"/><path id="DejaVuSans-65" d="M3597 1894v-281H953q38-594 358-905t892-311q331 0 642 81t618 244V178Q3153 47 2828-22t-659-69q-838 0-1327 487-489 488-489 1320 0 859 464 1363 464 505 1252 505 706 0 1117-455 411-454 411-1235m-575 169q-6 471-264 752-258 282-683 282-481 0-770-272t-333-766z" transform="scale(.01563)"/><path id="DejaVuSans-28" d="M1984 4856q-418-718-622-1422-203-703-203-1425 0-721 205-1429t620-1424h-500Q1016-109 783 600T550 2009q0 697 231 1403 232 707 703 1444z" transform="scale(.01563)"/><path id="DejaVuSans-73" d="M2834 3397v-544q-243 125-506 187-262 63-544 63-428 0-642-131t-214-394q0-200 153-314t616-217l197-44q612-131 870-370t258-667q0-488-386-773Q2250-91 1575-91q-281 0-586 55T347 128v594q319-166 628-249 309-82 613-82 406 0 624 139 219 139 219 392 0 234-158 359-157 125-692 241l-200 47q-534 112-772 345-237 233-237 639 0 494 350 762 350 269 994 269 318 0 599-47 282-46 519-140" transform="scale(.01563)"/><path id="DejaVuSans-29" d="M513 4856h500q468-737 701-1444 233-706 233-1403 0-700-233-1409T1013-844H513q415 716 620 1424t205 1429q0 722-205 1425-205 704-620 1422" transform="scale(.01563)"/></defs><use xlink:href="#DejaVuSans-74"/><use xlink:href="#DejaVuSans-69" x="39.209"/><use xlink:href="#DejaVuSans-6d" x="66.992"/><use xlink:href="#DejaVuSans-65" x="164.404"/><use xlink:href="#DejaVuSans-28" x="257.715"/><use xlink:href="#DejaVuSans-73" x="296.729"/><use xlink:href="#DejaVuSans-29" x="348.828"/></g></g><g id="matplotlib.axis_2"><g id="ytick_1"><g id="line2d_4"><defs><path id="m012fae63cf" d="M0 0h-3.5" style="stroke:#000;stroke-width:.8"/></defs><use xlink:href="#m012fae63cf" x="38.05" y="137.731" style="stroke:#000;stroke-width:.8"/></g><g id="text_5" transform="matrix(.08 0 0 -.08 25.96 140.77)"><defs><path id="DejaVuSans-30" d="M2034 4250q-487 0-733-480-245-479-245-1442 0-959 245-1439 246-480 733-480 491 0 736 480 246 480 246 1439 0 963-246 1442-245 480-736 480m0 500q785 0 1199-621 414-620 414-1801 0-1178-414-1799Q2819-91 2034-91q-784 0-1198 620-414 621-414 1799 0 1181 414 1801 414 621 1198 621" transform="scale(.01563)"/></defs><use xlink:href="#DejaVuSans-30"/></g></g><g id="ytick_2"><use xlink:href="#m012fae63cf" id="line2d_5" x="38.05" y="120.966" style="stroke:#000;stroke-width:.8"/><g id="text_6" transform="matrix(.08 0 0 -.08 20.87 124.005)"><defs><path id="DejaVuSans-35" d="M691 4666h2478v-532H1269V2991q137 47 274 70 138 23 276 23 781 0 1237-428 457-428 457-1159 0-753-469-1171Q2575-91 1722-91q-294 0-599 50Q819 9 494 109v635q281-153 581-228t634-75q541 0 856 284 316 284 316 772 0 487-316 771-315 285-856 285-253 0-505-56-251-56-513-175z" transform="scale(.01563)"/></defs><use xlink:href="#DejaVuSans-35"/><use xlink:href="#DejaVuSans-30" x="63.623"/></g></g><g id="ytick_3"><use xlink:href="#m012fae63cf" id="line2d_6" x="38.05" y="104.201" style="stroke:#000;stroke-width:.8"/><g id="text_7" transform="matrix(.08 0 0 -.08 15.78 107.24)"><use xlink:href="#DejaVuSans-31"/><use xlink:href="#DejaVuSans-30" x="63.623"/><use xlink:href="#DejaVuSans-30" x="127.246"/></g></g><g id="ytick_4"><use xlink:href="#m012fae63cf" id="line2d_7" x="38.05" y="87.436" style="stroke:#000;stroke-width:.8"/><g id="text_8" transform="matrix(.08 0 0 -.08 15.78 90.475)"><use xlink:href="#DejaVuSans-31"/><use xlink:href="#DejaVuSans-35" x="63.623"/><use xlink:href="#DejaVuSans-30" x="127.246"/></g></g><g id="ytick_5"><use xlink:href="#m012fae63cf" id="line2d_8" x="38.05" y="70.671" style="stroke:#000;stroke-width:.8"/><g id="text_9" transform="matrix(.08 0 0 -.08 15.78 73.71)"><use xlink:href="#DejaVuSans-32"/><use xlink:href="#DejaVuSans-30" x="63.623"/><use xlink:href="#DejaVuSans-30" x="127.246"/></g></g><g id="ytick_6"><use xlink:href="#m012fae63cf" id="line2d_9" x="38.05" y="53.906" style="stroke:#000;stroke-width:.8"/><g id="text_10" transform="matrix(.08 0 0 -.08 15.78 56.945)"><use xlink:href="#DejaVuSans-32"/><use xlink:href="#DejaVuSans-35" x="63.623"/><use xlink:href="#DejaVuSans-30" x="127.246"/></g></g><g id="ytick_7"><use xlink:href="#m012fae63cf" id="line2d_10" x="38.05" y="37.141" style="stroke:#000;stroke-width:.8"/><g id="text_11" transform="matrix(.08 0 0 -.08 15.78 40.18)"><use xlink:href="#DejaVuSans-33"/><use xlink:href="#DejaVuSans-30" x="63.623"/><use xlink:href="#DejaVuSans-30" x="127.246"/></g></g><g id="ytick_8"><use xlink:href="#m012fae63cf" id="line2d_11" x="38.05" y="20.375" style="stroke:#000;stroke-width:.8"/><g id="text_12" transform="matrix(.08 0 0 -.08 15.78 23.415)"><use xlink:href="#DejaVuSans-33"/><use xlink:href="#DejaVuSans-35" x="63.623"/><use xlink:href="#DejaVuSans-30" x="127.246"/></g></g><g id="text_13" transform="matrix(0 -.08 -.08 0 14.116 105.261)"><defs><path id="DejaVuSans-66" d="M2375 4863v-479h-550q-309 0-430-125-120-125-120-450v-309h947v-447h-947V0H697v3053H147v447h550v244q0 584 272 851 272 268 862 268z" transform="scale(.01563)"/><path id="DejaVuSans-72" d="M2631 2963q-97 56-211 82-114 27-251 27-488 0-749-317t-261-911V0H581v3500h578v-544q182 319 472 473 291 155 707 155 59 0 131-8 72-7 159-23z" transform="scale(.01563)"/><path id="DejaVuSans-71" d="M947 1747q0-634 261-995t717-361 718 361q263 361 263 995t-263 995q-262 361-718 361t-717-361-261-995M2906 525q-181-312-458-464-276-152-664-152-634 0-1033 506-398 507-398 1332t398 1331q399 506 1033 506 388 0 664-152 277-151 458-463v531h575v-4831h-575z" transform="scale(.01563)"/><path id="DejaVuSans-75" d="M544 1381v2119h575V1403q0-497 193-746 194-248 582-248 465 0 735 297 271 297 271 810v1984h575V0h-575v538q-209-319-486-474-276-155-642-155-603 0-916 375-312 375-312 1097m1447 2203" transform="scale(.01563)"/><path id="DejaVuSans-6e" d="M3513 2113V0h-575v2094q0 497-194 743-194 247-581 247-466 0-735-297-269-296-269-809V0H581v3500h578v-544q207 316 486 472 280 156 646 156 603 0 912-373 310-373 310-1098" transform="scale(.01563)"/><path id="DejaVuSans-63" d="M3122 3366v-538q-244 135-489 202t-495 67q-560 0-870-355-309-354-309-995t309-996q310-354 870-354 250 0 495 67t489 202V134Q2881 22 2623-34q-257-57-548-57-791 0-1257 497-465 497-465 1341 0 856 470 1346 471 491 1290 491 265 0 518-55 253-54 491-163" transform="scale(.01563)"/><path id="DejaVuSans-79" d="M2059-325q-243-625-475-815-231-191-618-191H506v481h338q237 0 368 113 132 112 291 531l103 262L191 3500h609L1894 763l1094 2737h609z" transform="scale(.01563)"/><path id="DejaVuSans-48" d="M628 4666h631V2753h2294v1913h631V0h-631v2222H1259V0H628z" transform="scale(.01563)"/><path id="DejaVuSans-7a" d="M353 3500h2731v-525L922 459h2162V0H275v525l2163 2516H353z" transform="scale(.01563)"/></defs><use xlink:href="#DejaVuSans-66"/><use xlink:href="#DejaVuSans-72" x="35.205"/><use xlink:href="#DejaVuSans-65" x="74.068"/><use xlink:href="#DejaVuSans-71" x="135.592"/><use xlink:href="#DejaVuSans-75" x="199.068"/><use xlink:href="#DejaVuSans-65" x="262.447"/><use xlink:href="#DejaVuSans-6e" x="323.971"/><use xlink:href="#DejaVuSans-63" x="387.35"/><use xlink:href="#DejaVuSans-79" x="442.33"/><use xlink:href="#DejaVuSans-28" x="533.297"/><use xlink:href="#DejaVuSans-48" x="572.311"/><use xlink:href="#DejaVuSans-7a" x="647.506"/><use xlink:href="#DejaVuSans-29" x="699.996"/></g></g><path id="line2d_12" d="M24.017 137.73h20.667l.255-37.185 1.276 3.17.51.508.255.542.51 2.154.511 2.37.255.478.255 27.964h.255l.256-35.282.255-.8.255-1.246.51-4.194.51-4.126.51-2.442.511-1.186.255-.325.255-.085.256.446.255 1.377.51 4.358.255-.202.255 43.707h2.297l.255-84.978.255-1.204.255.54.766 6.334.255.542.255-.418.51-2.151.766-4.387.765-4.848.255-.33.255 1.016.51 4.624.256.866.51.106.51.866.51.93.256.117.255-.431.766-2.899.255-.158.51.578.51.514.51.264.766.048.51.11.256.183.255.39.51 1.77.51 1.772.51.48.766.574.766.21.51.263.765 1.118.766 1.545.765 1.667.51.537.766.172.765 1.243.256.026.255-.282 1.02-1.671.256-.114.255.071.255.256.51 1.03.51 1.161.51.635.511.128.255.07.255.467.256 1.434 1.02 10.825.255.528.255-.762.51-4.044.511-4.89.51-7.95.51-10.361.256 85.868h5.868l.255-85.883.256-.908.255-1.95.51-7.04.255.554.51 13.008.51 9.466.256 1.736.51 1.375.766 1.604.51 2.046.766 3.861.255.547.51.48 1.276 2.244.765.365.51 1.291.51 1.004 1.277 1.03.51.643.255.134.255-.428.255-1.46.51-5.052.256-1.097.255.805.51 2.413.51 1.705.256.204.255-2.1.765-16.23.255-2.282.256-.957.255.461.255 1.737 1.02 9.742 1.021 4.312.51 3.928.256-.147.765-5.134.255-2.903.766-14.737.255-1.628.255.66.51 3.488.51 3.662.256 1.208.255.658.255.222.766-.152.255.238.255.723.255 1.529.51 6.483.51 6.598.256.991.255-.421.255-1.869.51-6.904.51-7.643.256-2.082.255 1.077.255 5.517.766 32.641.255 4.67.255 1.339.255-.078.255.125.766 3.006.255-1.305.255-4.274 1.02-29.379.256-1.013.255-.041.255.098.255-.09.51-.798.51-.771.511-.294.51.088.51.084.511.082.255.308.51 1.454.51 2.202 1.021 5.305.256-.837.765-5.907.255-.724.51-3.063.256-.027.51 3.958.255-.85.766-8.43.255-.476.255.471.255 1.044 1.02 6.085 1.021 5.272.255 1.24.256.26.255-1.01.51-2.506.765-.33.256.614.51 3.785.255 2.325.255.084.255-4.4.51-15.18.256-1.187.765 18.943.255.197.256-1.308.255-.694.255-.186.255.654.765 3.43.51 2.43.511.689.255.709.51 2.15.256.373.255-.726.765-5.2.255-.448.256-.037.255.108.255.276.255.548 1.02 3.34.766 1.034.766 1.237 1.02 1.575 1.02 1.306 1.021 2.248.51 2.08.511 3.269.51 4.642.766 7.416.255 1.207.255 24.426h3.827l.256-31.918.255.33.765 2.967.255-1.901.255-7.13.766-36.553.255-4.246 1.531-12.518.255-.954.255-.27.255.321.51 1.024.511.825.51 1.786 2.042 10.278.51 4.467.51 7.706.51 7.751.256 1.07.255-.98.51-3.356 1.02-11.285.256.275.255.64.255-.502.255-1.022.256.637.255 3.576.51 10.624.255.723.255-3.966.255-5.719.256-2.66.255 1.398 2.041 32.892.255 4.457.255 1.87.255-1.154.51-9.556 1.021-20.985.255-3.024.256.462.51 9.298.51 7.842.255 1.19.256-1.59.51-4.82.255-.015.765 1.606.766 1.451.51 1.616.766 3.147.51.253.255.323.255.132.255-.153.766-.894.51-.153.51.283.256.357.255.696.255 1.28.765 5.887.256.988.51.577.765.722.256-.17.255-.628.255-1.154.255-1.853 1.02-10.944.256-.524.51.258.766.174.765.123.51-.053 1.276-.505.51.395.51.787.51 1.184.766 1.869 1.276 2.24 1.02 2.524.511.39.255.184.255.37.51 1.325 1.532 5.09.255-.525.51-4.056.255-1.952.255-1.012.256-.062.51 1.288 1.53 4.675.511.737 1.276 1.588.765 1.27.766 1.264.255.29.255.083.255-.224.255-.619.51-2.243.511-2.324.255-.637.255 34.974h17.55" clip-path="url(#pafdcdc992a)" style="fill:none;stroke:#1f77b4;stroke-linecap:square"/><path id="line2d_13" d="M24.017 137.73h19.902l.255-46.934.255-.407.255.822.51 4.228.766 6.705.255 1.129.255-.008.255-.275.255.157.766 1.723.255.177.255-.108.255-.559.51-2.947.766-5.644.51-2.59.766-2.648.51-1.428.255-.439.255.019.256.894.255 2.235 1.02 13.415.255-2.235.256-11.375.765-60.798.255-3.172.255 4.313.766 24.7.255 3.83.255 2.074.255.87.255-.027.51-1.19.511-1.697.51-2.5.51-3.283.766-5.81.255-.936.255.49.256 1.224.255.514.255-.268.255-.576.51-2.069.51-2.287.256-.25.255.485.51 1.642.255.357.51-.167 1.021.545 1.021 1.237.255-.082.51-.306.256.267.255.834.51 2.441.255.553.255.026.51-.846.256-.4.255-.148.255-.004.255-.359.255-1.188.51-3.189.256.883 1.02 7.897.51 2.347.511 1.444.766 1.38.51 1.612 1.276 5.467.51 1.305.255.073.255-.546.766-2.934.51-.888 1.786-1.975.51-1.083.256-.133.255.509.51 1.924.255.032.766-1.927.255-.046.51-.623.255.631.255 1.024.256.497.255-.207.255-.866.51-2.178.255.778.51 4.864.766 8.27.255.067.255.28.51 4.879.256-.06.255-.743.255.216.255.4.255-1.172.256-2.293.255 62.139h2.551l.255-82.308.256.543.765 7.136.255.97.51.678.51.551.511 1.178.51 2.094.51 2.608 1.787 4.842.255-.14 1.02-2.383.256.182.765 1.27.51.416.766.261.255.023.255.223.255.673 1.276 5.726.766 6.805.255-.305.255-3.166.51-13.9.51-12.249.256-1.756.255.402.51 1.523.255.229.51-.015.51-.175.256.162.255.59.255 1.305.766 5.861.255.631.255-.072.255-.737.51-2.347.256-1.839.765-11.855.255.379.51 4.058.256 1.098.51.871.51.935.766 2.06.255 1.175.51 3.605.255.583.256-1.284.255-1.983.255-.25.255 2.92.51 9.347.256 1.895.255-1.302.51-8.122.765-12.388.256.15.51 8.28.51 8.179.255 1.434.51-3.631.511-1.251.255-.708.255.226.51 1.741.256.218.255-.406 1.53-4.736.511-.7.51-.245.51.188.511.699.51 1.406.51 2.51.51 4.037.766 8.256.256 1.262.255-.642.765-6.87.766 1.001.255-.344.255-.802.255-2.122.766-12.252.51 1.177.255.256 2.041 8.177.255 2.341.766 9.85.255-.78.51-5.703.255-1.21.256.97.51 4.079.255-.287.255-3.177.51-13.394.256-8.146.255-3.605.255 3.493.51 11.737.51 5.68.256.996.255.14.255.769 1.02 6.859.256.172.255-.01.255.695.766 5.86.255-.833 1.02-8.866.255-.462.256.257 1.275 2.998.766.971 1.02 2.23.51 1.14.256.372.255.16.255-.04 1.02-.56.256.099.255.325.51 1.313 1.531 5.446.256.594.255-.075.255-1.151.51-4.5.255-.149.255 51.682h2.297l.255-111.55.255 1.45.51 5.944.51 12.127.766 19.197.255 3.25.255.735.256-.98 1.786-12.439.765-6.849.255-1.164.255-.332.766.237.255-.004.255.125.255.387.51 1.82 1.021 4.299.766 2.327.255 1.116.255 1.664.766 7.852.255.638.255-1.534.255-2.407.255-.944.51 1.29.51-.574.511.512.51-.344.256.684.255 1.927 1.02 12.96.255-2.26.51-10.757.256.345 1.786 38.418.255 3.114.255.285.255-2.426 1.021-16.824.255 1.012.255.473.255-1.174.51-4.142.256.762.51 3.889.255.485.256-1.005.51-3.657.255-.629.255.347.51 1.02.256.218.51.157.255.36.255.916.766 4.303.255-.249.51-.908.51-.166.51-.777.511-.821.255-.094.255.122.51.702.511 1.413.255.73.255-.364.255-3.26.766-25.495.255-1.481.255 2.761.766 13.43.765 12.984.255 1.192.255-2.633.51-8.713.256-.415 1.02 8.787.256.419.51.163.51.571.766.964.51.211.51-.023.766-.147.255.09.255.209.255.373.255.64 1.021 3.676.255-.317.51-.941.256-.237.255-.006.765.447.51.637.766 1.275.51 1.262 1.02 4.077.256.197.255-.922.766-5.172.255.057.51 2.115.51 1.939 1.787 4.92 1.275 1.541 1.02.418.766 1.034.51.918.766 2.057.255-.539.255-3.643.766-27.784.255-2.588.51-1.529.255-.045.51 2.372.511 5.246.255 54.67H231.4" clip-path="url(#pafdcdc992a)" style="fill:none;stroke:#ff7f0e;stroke-linecap:square"/><path id="line2d_14" d="m38.047 120.97 7.253.11.133-.006.074-.118.07-.098.064.048.095.14.07.122.048-.109.055-.121.067.083.044-.106.06-.192.068.124.112.287.038.083.054-.167.045-.107.067.113.05-.108.077-.197.06.083.08.162.068.195.054-.147.05-.137.061.137.03.016.037-.117.083-.165.055.06.153.331.086-.179.274-.182.029.04.21.263.048-.053.233-.164.22.009.102.053.026-.03.082-.044.03.052.085.026-.044-.097.06.03.07.104.045-.122.08.1.016-.181.012-.07.067.303h.01l.035-.692.08.907.057-.888-.032 1.083.096-.738.057-.221.093 1.156.02.09.037.695.045-.997.06.579.07-1.652.01-.126.016.368.029.533.067-.912.003-.014.035.284.125.927.012-.19.032-.761.077.792.013.088.012-.237.032-.473.042.565.054-.522.112 1.34-.1-1.524.125.73.032-1.744.057 2.028.02-.226.006.18.064-1.688.006-.257.038 1.382.048-.204.086 3.024-.064-3.119.09.499.019-3.993.07 6.715.02-2.139.034-3.11.055 3.561.031-2.36.01-.722.026 1.525.07 4.698.025-6.058.02-4.49.07 10.616.01-2.676.028-5.31.067 5.772.067-2.809.073 4.452.016-4.403.02-7.23.07 13.277.022-7.26.01-2.024.07 7.085.031-5.494.102 6.955.016-2.233.026-10.082.054 14.292.035-8.555.067 4.534-.029-7.927.077 5.37.022-3.243.07 8.53.045-12.362.057 12.697.058-7.876.07 4.36-.057-8.163.105 5.307.083 6.508.01-7.99.015-5.131.055 11.4.003 2.63.07-13.204.032 6.811.006-2 .029 3.88.073-2.382.045 2.956.06-4.745.004 1.073.05 2.193-.04-2.469.101.678.045 1.093.051-1.177h.013l.038.903-.025-1.024.092.018.003-.01.003.27.048.93.064-.626.006-.285.074.459.028-.17.042.148.006.133.058-.378.038.102.09-.136-.061.32.08-.158.009.144.073-.288.013.042.166.249-.096-.317.128.168.019-.087.099.02.057.14.042-.178.019-.05.06.19.007-.014.086.118-.045-.14.083.072.144-.172.003.006.195.174.003-.01.134-.083.114.045.004.013.118.057.003-.006.14-.16.007.032.095-.06.007.078.073.117.02-.152.018.105.064-.018-.054-.043.057.003.067-.137.013.183.035-.132.064.223-.048-.295.102.259.073-.275.007.37.038-.22.038.131.042-.426.006-.196.045.763.054-.426.073.658-.035-.665.077.078.102-.318-.02.787.023-.38.077.632-.067-.67.099.055.038-.885.064 1.456.032 2.311.054-4.52.016-1.134.054 3.225.029-1.315.06 5.574.01-8.032.022 2.776.016-4.755.01 7.9.086-4.987.032 4.628.025 4.948.013-14.427.032 2.035.006-1.809.003 1.613.045 11.494.051-12.205.016 5.168.077-7.647-.042 17.235.067-11.348.029 12.113.032-19.136.05 8.431.064-10.053-.031 19.497.076-8.549.029 10.537.032-20.962.048 12.041.067-12.868-.02 19.65.061-9.207.029 14.537.05-24.96.03 12.301.066-10.864-.025 18.804.067-10.439.029 15.21.05-23.907.033 9.726.06-9.736-.022 19.776.067-9.862.025 12.928.051-22.687.035 10.119.074-11.01-.01 20.43.051-12.325.013 15.502.051-23.804.054 15.568.003-.14.004 2.577.095 4.231-.05-23.549.057 18.033.044-16.232.064 19.462.032 1.62.01-21.966.057 16.364.045-14.216.063 16.661.093 2.82-.054-19.705.057 14.408.045-12.94-.032 14.658.096-1.131.006 3.543.029-17.851.073 12.728.108-10.067-.01 14.817.014-11.87.006 14.512.01-19.786.092 8.751.102-6.661-.01 16.74.02-10.5.028-4.224.013 8.904.073-6.973.058 10.805.048-11.832.006 1.426.016-1.17.102 7.292.064-6.738-.048 7.927.099-4.577.073 3.244-.041-6.106.044 3.992.061-4.773-.048 8.61.1-5.18.085 3.622-.057-6.64.076 2.063.03-2.355.034 4.585.048-2.812.057 4.676.048-5.4.007 1.458h.003l.105 3.295-.092-4.99.102 3.139.083-2.429-.07 4.217.098-2.494.067 1.709-.057-2.47.102.95.016.654.054-1.675.013.474.003-.347.093 1.486.003-.088.022.362.029-1.064.01.089.05-.968.055 1.316.041.675.032-.83.01.036.066-1.102.045.905.035.88.067-1.022.058-.779.044 1.094.032.583.07-.935.051-.81.045.933.048.754.057-.886.007.008.003-.1.044-.719.051 1.276.039.434.054-.818.057-.872.045.922.048.853.06-.952.067-.822.032.987.042.795.064-.991.067-.799.031.946.045.91.06-1.005.07-.878.033.984.048.911.057-1.014.054-.896.048.985.042.905.063-.954.064-.963.042 1.022.041.894.064-1.056.064-.918.038 1.028.045.981.06-1.108.067-1.023.035 1.108.038 1.268.061-1.433.057-.646.042.872.041 1.258.064-1.747.128 2.697-.06-3.317.079 1.451.076-1.659-.067 2.41.122-1.965.05 3.23.058-2.803.003-1.2.096 2.278.01-1.19.035 3.01.06-4.43.01 1.605.003-1.562.102 3.025.003-.25.016-.678-.006 1.413.01-.331.003 1.335.06-4.822.045 2.82.006-2.162.093 4.09.01-1.698.002 1.228.045-4.194.06 2.658.007-1.913.077 4.093.025-2.61.003 1.035.032-3.46.074 2.562.07 2.603.044-4.027.007 2.406.006-3.377.099 2.803.105-3.006-.06 5.416.063-3.798.01-1.335.105 3.296.026 2.008.022-4.518.016.678.035-1.49.029 3.167.045-2.433.054 4.834.022-5.01.035.89.003-1.497.045 3.302.06-.825.1-2.372-.061 5.842.08-4.106.098 2.462-.082-4.11.095 3.105.035-2.92-.022 5.42.099-3.41.102 3.364-.057-4.746.063 1.5.039-2.288-.03 4.749.103-2.897.025-1.28.036 3.72.025 1.343.045-5.594.012 1.181.013-.8.035 2.45.055-.89.044 3.502.042-5.513.019.881.118 4.235-.109-4.77.122 1.647.003-.105.003 1.638.003 2.02.073-5.575.032 2.75.045-1.99.035 4.488.016-1.47.003 2.017.074-6.011.031 3.023.045-1.942.035 4.323.016-1.78.003 1.891.074-5.258.032 2.524.006-.172.029-1.578.044 3.835.02-.241.003.186.038-3.989.013.694.019-.7.01 1.971.073-.99.032 2.577.057-3.153.022.727.125 1.92-.045-2.568.07 1.99.137-1.848.035 1.732.007.202.06-1.382.016.002.004-.004.003.107.05.163.03-.776.006-.108.035 1.442.02-.081.021.377.064-.938.067-1.026.032 1.31.048.813.051-.914.006.07.074-1.317.035 1.322.05 1.048.052-1.153.003.012.02-.527.057-.722.032 1.208.054 1.324.054-1.296.07-1.248.035 1.241.058 1.345.031-1.421.02.142.07-1.426.035 1.412.057 1.331.035-1.57.02.303.07-1.527.035 1.58.057 1.222.032-1.677.016.468.073-1.476.032 1.53.064 1.184.029-1.673.108-.992-.092 1.426.099-1.162.073 2.381.045-1.42.016.321.01-.675.066-1.16.026 2.913.01.914.073-3.359.108-.932-.08 2.764.083-2.576.032 5.367.077-5.486.012 2.506.013 1.707.022-4.023.007.175.041-1.212.029 5.295.02 2.274.028-8.165.06 5.138.01 2.084.025-6.91.007.005.003-.567.067 7.57.006 1.5.042-10.488.057 7.748.035-7.56-.022 8.828.096-1.424.012 2.763.039-11.18.044 4.634.051-4.725-.025 10.033.045-2.403.063 3.304-.035-8.945.06.291.017-2.857.025 8.739.026-1.471.006 3.012.035-9.375.067 4.783.029 6.412.035-13.634.054 11.95.035-9.442.077 8.849.02 2.555.034-15.281.042 9.49.038-5.536-.026 9.634.1-5.377.034 7.487.02-13.729.009 2.002.006-4.97.023 15.751.076-3.49.013 2.389.02-7.794.092-7.938-.039 18.157.042-11.244.019 11.656.057-12.4.035 9.236.109-16.485-.038 19.373.041-15.062.02 17.648.092-4.654.111-17.286-.038 19.903.042-13.253.019 16.349.022-18.209.07 11.77.096-15.777-.022 18.776.041-14.48.02 18.311.021-19.313.07 13.055.1-16.032-.026 17.998.045-12.588.019 16.674.022-18.758.07 11.764.1-14.802-.026 17.791.044-13.08.02 17.66.022-18.85.07 11.398.112-14.688-.036 17.503.042-13.897.02 17.902.095-8.669.111-12.553-.038 17.33.045-11.548.019 14.577.022-15.37.07 8.533.112-12.94-.038 16.564.044-13.532.02 16.138.095-7.57.112-10.818-.042 15.894.048-9.552.016 9.787.038-10.367.058 4.435.111-8.54-.038 14.654.045-9.704.019 7.013.083-7.182.01 2.032.111-5.564-.038 13.465.045-10.102.031 6.142.07-6.352.01 1.468.007-.918.066 7.954.007-.523.035-9.432.14 3.951.06 5.224.03-7.701.003.153.006-.909.07 5.605.02-2.093.003.014.003-.14.022-2.724.07 6.82.01.323.019-4.955.02-2.668.066 5.416.003.305.051-5.345.039 3.276.038 4.167.02-5.079.018-3.376.07 6.795.01-1.214.115 2.893-.086-7.923.098 7.126.03-7.978.108.636.083 8.594.031-7.108.01-2.726.07 8.12.035-7.434.086 9.724.032-7.894.01-3.223.07 9.21.035-8.084.086 10.638.032-9.86.006-3.055.07 10.809.033-6.58.006-2.308.083 10.65.003.857.038-14.986.045 8.203.003-.142.007 3.914.012-.522.003 1.427.023-9.59.076 4.19.026 7.951.035-16.778.06 11.294.036-7.34.022 10.404.054-4.391.083 8.183-.022-20.37.044 10.5.048-4.475.02 10.379.08 3.122-.052-14.409.07 8.458.02-14.722.025 24.945.067-15.227.003.084.022 10.127.023-15.397.07 13.792.022-18.222.026 26.801.067-15.719.022 7.425.026-14.094.073 10.933.01-15.229.035 26.236.067-14.23.038-7.971.032 14.307.025-4.855.064 12.776-.025-28.257.054 10.291.006-6.658.054 17.436.042-6.646.108 13.515-.025-27.616.035 22.762.102-18.726.016 10.856.111 12.508-.025-26.765.029 21.976.108-18.104.013 11.602.067 5.334-.035-10.823.05 1.381.007-12.37.026 27.847.076-9.87.01 4.943.022-14.086.105-10-.028 22.756.032-18.886.022 24.241.092-10.744.023-8.336.073 13.85.013-5.035.041 8.252-.025-24.773.073 13.653.01-4.734.028 14.003.07-9.56.083 11.095-.025-25.108.057 17.18.03-7.843.025 13.878.054-7.368.102 7.784-.026-21.649.035 17.705.048-10.647.026 13.158.038-7.957.067 7.297.022-14.528.004-4.62.025 20.645.077-9.725.038-.92.09 9.07.009-16.021.105 6.907.108 6.051.007-1.94.019-3.616-.01 6.067.106-2.815.083.31-.036-1.849.055 1.276.006-.534.051 1.832.048-.99.003.36.07-1.568.032.88.01-.545.076.922.013-.08.048.295-.032-.636.08.087.102-.514-.07.57.083-.31.044-.02-.025.21.044-.126.055.462.057-.38.124-.295.134.401.09-.18.022-.17.092.132.007-.036.019.164.06-.016.02.04.064-.198.057-.023-.022.063.07-.015.07.159.057-.053.106-.147.044.1.192-.052.006-.008.077.105 8.34.089.105.052-.051-.216.054.153.051-.183-.01.211.068-.179.006.237.086-.533.02.438.034-1.101-.006 1.372.096-.503.003.21.041-.652.061.217.054.642.06-.451.004-.184.086.932.006-.124.007.337.08-1.298.006-.672.08 3.621.006.499.051-5.004.01.316.105-.868-.07 4.57.073-4.276.067 7.97.035-10.055.1-1.593-.052 11.164.057-9.336.077 10.333.025-10.702.004-2.718.07 13.663.035-9.621.099 9.013-.083-14.778.099 12.406.006.787.003-.416.01-12.902.07 15.702.032-12.21.112 10.306-.096-14.923.099 13.2.022-14.633.07 19.828.035-13.588.109 9.813-.093-15.104.1 12.492.021-12.537.052 17.277.015-3.812.004 3.681.054-15.133.05 11.44.071-13.15-.01 15.245.055-4.96.006 6.155.073-13.86.032 8.304.093-9.82-.013 13.523.032-7.354.051 9.55.051-13.069.01 5.616.01-4.628.05 9.026.023-.376.105 2.61-.07-13.647.073 11.48.032-9.65-.02 10.565.1-4.35.05 4.553.013-11.261.051 9.554.023 1.998.05-9.89.017 1.518.003-1.15.083 8.206.006-.55.093 2.246-.07-9.688.073 7.302.05-7.782.062 4.916.041 3.71.045-6.99.022 2.73.105-3.197-.073 8.078.076-6.813.102 6.72.01-5.13.016-2.108.054 5.843.003.784.07-7.623.03 4.877.015-1.802.026 3.249.035-.305.006 1.33.074-4.83.025 2.658.06-2.635.061 1.64.058 1.18-.039-1.467.096.623.054-1.117.067.202.131 1.679-.09-1.894.125.987.112-1.076.032.137.105 1.909.045-1.108.095-.873.039.2.01.22.088 1.644.032-1.027.093-1.084.038.078.003-.013.026.332.089 1.692.035-1.06.054-1.011.08.147.003-.014.026.346.086 1.55.038-1.045.096-.996.045.169.12 1.849.033-1.05.05-1.057.068.343.016-.135.13 1.965.074-2.26.07.565.15 1.775-.134-1.975.137 1.803.115-2.3.013.536.028-.135.032.916.016-.161.073 1.53.03-1.634.006.205.098-1.386.02.753.114 3.262-.092-3.51.099 1.891.054-3.174.06 1.54.01 1.988.029-4.085.07 2.37.02-1.064.034 4.44.016 1.546.013-5.117.022-5.102.054 10.24.036-8.26.105 5.902.016-2.932.01-1.04.047 5.526.007 2.002.019-12.972.073 10.277.022-10.796.023 13.313.07-7.181.099 7.146-.064-8.727.073 5.407.01-13.327.025 19.934.077-10.082.013 9.615.025-16.578.074 7.965.095-13.513-.022 19.183.038-8.01.01 14.22.022-17.166.077 1.87.016-4.502.019 10.362.07-4.764.105 13.952-.029-25.759.042 15.781.01-8.517.063 13.071.035-5.087.01 2.327.064-5.963.086-12.528-.026 19.634.039-5.336.012 12.015.023-20.142.07 11.958.01-9.118.031 10.778.07-8.596.109 15.119-.029-26.456.038 19.885.01-15.67.025 17.225.077-5.052.08-5.493-.07 9.609.086-2.882.05 2.48.014-16.665.003-4.923.025 30.361.07-8.867.004 1.658.025-11.92.077 8.746.111-18.488-.019 20.543.026-9.775.019 16.464.019-21.999.07 9.925.003-4.296.039 8.51.07-7.071.108 10.584-.022-18.914.032 14.885.012-10.181.051 10.265.055-4.34.048 3.254-.02-5.59.083 4.213.048-7.826-.013 10.521.07-2.434.004.52.022-5.18.08 4.114.019-2.532.02 3.172.072-.726.026 1.155.016-3.509.06 1.547.077-1.323.02 2.221.009-.825.032.728-.02-1.022.096.286.023.335.102-.915.083.761.031-.453.096-.224-.054.76.067-.546.121.388.105-.364-.067.49.077-.313.01.215.028-.394.074.233.08.164-.061-.351.102.236.076-.25-.048.271.093-.142.076.102-.022-.26.035.112.003-.024.02.263.067-.077.118-.203.012.106.112.054-.09-.141.096.131.128-.128.01.02.117.119.007-.02.143-.091-.114.128.12-.1.055.011-.032-.07.086.044.156.016.004-.032.035-.061-.016.101.09-.03.082.022-.06-.088.086.08.095-.124.007.145.006-.11.102.178-.06-.281.07.208.083-.23-.007.296.038-.126.007.182.038-.306.064.198.111-.368-.038.492.042-.26.095-.191.016.471.016-.394.08.472.016-.207.067-.192-.038.361.06-.205.035.251.06-.499.017.284.013.015.102-.47.038.323.06-.51.01.173.051-.306.099 1.782.022.933.042-3.215.01.292.003-.183.08 1.618.063 3.037.01-4.08.016.406.05.599.064-2.266.023-.882-.013 2.587.02-.829.06 6.634.028-11.422.004-.545.047 9.786.02-3.212.118 3.006-.07-6.053.073 5.739.003-.024.02 3.564.009-15.988.073 13.543.086-7.53.026 4.447.01-.95.031 4.927.016 2.176.003-4.475.007-13.431.07 16.394.035-10.17.003-.166.022 3.467.013-.1.105 7.774-.086-9.719.09 5.567.006-12.483.048 17.53.057-9.32.016-2.878.125 10.258.063 2.029-.047-16.86.082 10.868.013-6.459.109 5.38.044 5.581.01-14.45.038 5.632.067-3.095-.054 11.59.09-7.283.11 7.232-.088-8.043.092 6.697.006-9.45.109 1.254.048 5.317.07-.596.029 1.406.016-3.376.063 2.066.042-1.803.05 1.828.026-1.035.137.939-.124-1.199.128 1.027.108-1.144-.09 1.148.103-1.014.143.937-.118-1.143.122 1.142.156-1.009.003.008.128.747.003-.032.115-.567-.09.613.112-.533.016-.108.054.402.013-.01.048.182-.02-.225.077-.007.01.057.057-.288.016.085.016-.043.06.236.042.13.064-.17.067-.164.067.103.06.116.067-.042.09-.102.028.033.064.095-.019-.105.07.03.003-.027.1.105.006-.052.098.091-.08-.157.093.09.048-.09.016.156.035-.013.064.12.016-.326.003-.067.013.27.09-.159.018.175.045-.378.045.251.006-.286.025.48.08-.29.007.272.006-.358.099.118.038-.233.045.506.105.262-.073-.578.08.338.009-.148.029.635.038-.136.003.266.045-1.412.057.735.007-.238.038 3.09.003.196.022-2.469.007-4.597.067 6.439.038-3.362.092 6.642-.06-7.5.07.82.016-7.638.057 12.546.035-6.174.106 9.71-.064-12.422.07 3.358.013-10.273.019 18.98.077-8.31.105 10.268-.067-17 .076 12.879.01-20.623.025 26.446.077-8.479.105 5.488-.07-14.969.077 12.495.016-19.787.025 22.477.073-6.167.109 4.541-.067-11.858.07 11.25.022-18.294.026 20.194.067-6.525.115 4.215-.07-10.378.073 10.172.025-17.418.026 20.005.064-6.911.108 4.178-.07-9.835.077 9.71.003.378.019-7.063.006-11.087.026 20.69.076-4.687.035-7.594.061 9.497.016-2.458.006 1.244.01-13.178.003-3.994.026 21.138.07-4.027.003.102.003-1.234.035-7.758.06 10.133.014-1.574.022-16.21.025 19.52.064-6.616.109 4.638-.061-10.108.064 9.446.032-16.331.025 18.083.064-5.864.108 4.452-.06-10.614.067 9.024.019 1.428.003-2.746.007-13.034.057 17.103.048-8.025.003-.037.112 7.126-.08-11.514.086 10.463.01-14.533.054 16.352.05-9.577.116 9.58-.083-12.664.089 10.787.01-12.297.05 13.45.058-8.56.112 7.38-.08-9.71.086 9.4.016-6.83.112 2.416.095 3.062-.064-3.516.08.571.02 2.957.054-3.84.028.467.003-.17.016 3.193.061-1.57.006.738.051-1.669.055 1.313.083-.826-.016 1.21.057-.96.006.255.023-.679.08.234.009.092.051.637.073-.165.08-.51.042.134.111.396-.086-.564.096.411.111-.267-.086.406.09-.383.114.224.007-.033.086-.12-.02.258.036-.059.054-.213-.016.233.128-.14.105.06.003.01.01.018.05-.136.026.04.01-.075.092.173.035.039.154-.178.127.14.051-.088.125-.033.006.034.048.076.05-.105.014.04.118-.001-.1-.038.103.035.115-.035-.083.068.092-.059.198.015.003-.006.08-.039.038.026.099.028.025-.033.281.055.038.024.07-.021.087.052.032-.02.098-.061-.086.077.102-.05.074.01-.058-.031.09-.003.095-.055-.01.101.017-.007.08.019-.068-.12.07.034.09-.26.01.458.012-.367.09.438.01-.693.012.559.01-.466.009.523.093-.321.086.257-.07-.318.095.108.102-.157-.07.362.073-.236.045.346.045-.577.019.383.08-.747.006 1.09.029-1.007.044 1.107.007-1.52.07 1.353.006-.925.083 1.157.022-.605.004-.343.067.763.038-.387.06.621.026-1.38.016.534.102-1.59-.08 2.125.083-1.52.029-.34.083 2.306.096-1.243-.01 2.116.02-.4.009-1.442.006 1.66.128-.748.022.331.067-.921.02.44.04-1.26.007 2.036.07-1.28.08-.5-.048 1.2.054-.628.064.68.01-1.652.038 1.297.006-.731.09 2.57.006-.724.022.652.035-2.4.01.357.006-1.27.105.34.083 3.976-.07-4.415.1.84.021-2.256.064 3.98.032-3.01.115 5.977-.102-7.34.112 3.42.022-3.673-.01 7.052.1-4.483.047-2.809.041 4.123.087 7.789-.01-16.97.013 10.124.006-9.434.051 11.214.054-6.014.144 7.35-.112-9.404.115 6.011.022-8.58-.01 15.642.1-9.614.048-3.17.047 6.445.064 3.077.007-8.045.022-6.92-.01 19.744.096-11.417.051-4.51.045 8.59.012-3.226.067 10.681.01-19.323.029 9.372.032-5.277-.01 11.457.09-10.347.105 7.729.003-4.883.022-7.384-.01 18.001.096-9.416.051-5.828.048 8.33.01-3.394.063 8.668.01-15.516.038 7.1.032 6.861.048-10.447.003-.658.067 7.48.013-1.581.057 5.68.01-13.33.032 4.296.003.054.035 7.32.051-9.59.029 5.059.003-.033.096-5.762-.016 8.857.019-3.326.003 5.224.013-11.607.096 7.72.041-5.693.067 6.87.038-8.704.01 11.638.057-3.668.023 2.822.07-9.002.012 3.15.09-4.3-.013 8.722.02-1.198.002 3.621.01-11.517.096 8.839.044-7.147.067 6.486.054-8.316-.01 11.952.058-3.892.023 2.592.067-8.872.012 4.41.093-6.203-.01 9.327.016-.036.003 3.11.01-13.12.096 10.173.044-7.635.067 6.762.054-8.933-.01 12.606.058-4.478.023 2.854.07-8.744.013 3.755.092-5.317-.013 8.906.016-2.235.003 4.688.01-11.282.099 7.636.041-5.824.032 6.569.035-.648.045 2.624-.006-10.924.016 1.694.003-1.323.067 10.259.022-3.725.003 2.256.045-6.703.064 5.228.05 2.522-.009-9.955.048 6.039.092-4.073-.07 8.25.093-6.384.09 5.99.005-5.86.004-3.651.07 9.884.035-4.606.006 3.024.029-6.49.08 5.661.032 1.825.006-4.155.003-4.114.07 8.607.035-4.37.01 2.531.026-5.92.082 5.866.061-6.606-.032 7.436.077-3.22.006 4.303.07-7.588.032 3.072.01-1.887.05 4.673.013-.255.09 1.272-.07-6.875.086 4.804.08-4.47-.07 5.515.11-1.666.055 2.268.01-5.141.028 1.9.045 2.584.07-5.028.131 5.104.003-2.888.003-1.677.07 3.871.036-1.488.01.973.047-3.401.057 3.248.1-2.924-.049 4.386.061-2.244.042 1.345-.032-3.728.095 1.64.007-1.877.095 3.824.004-.099.067-2.838-.055 3.674.106-1.79.003.704.067-2.788.035 1.513.003-.166.07 1.452.01-.07.006.239.054-2.135.016 1.107.086-1.215-.047 1.3.076-1.005.01-.15.003.333.115 1.26.003-.236.006.222.08-1.063.08-.248-.045.477.054-.238.109.624-.093-.648.102.624.039.064-.013-.246.016.17.111-.62.004.179.098.388-.089-.58.102.39.042-.411-.007.765.08-.544.109-.07.006.416.073-.458.007.643.035-.557.086.438.006-.616.016.471.045-.531.025.923.039-.672.06.572-.006-.784.06.618.026-.738.006.975.08-.764.112.658.003-.108.025-.529.086.223.07-.067.045.403.045-.46.067.187.083.23-.026-.446.029.166.064-.318.006.759.038-.492.106.327-.077-.464.08.23.054-.359.007.715.044-.13.093-.552-.06.593.082-.404.102.521-.025-.887.035.885.016-.721-.007.776.102-.627.06.536.007-.609.045.344.022-.423.007.706.083-.444.098.481-.035-.817.039.18.08-.047-.064.554.07-.218.08.392-.007-.753.035.368.083-.479-.003.812.006-.731.096.925.006-1.104.01.558.073.306-.044-.705.076.53.07-.33.007.425.032-.394.07.476.006-.78.035.613.007-.4.063.664.039-.09.057-.636.045.747.01-.39.092.464-.029-.531.048.356.096-1.415-.036 1.589.058-.605.108 3.132-.092-3.632.105 1.599.105-3.046-.054 3.313.064-2.595.112 6.227-.08-6.255.09 3.573.005-9.383.036 11.192.07-8.089.127 8.29.007 2.153.016-15.336.076 10.239.026-6.55.01 7.79.076-2.29.07-10.044-.016 15.413.035-8.4.006 8.571.077-10.28.029 4.352.013-3.788.086 8.153.012 1.427.013-9.262.003-5.678.035 14.712.07-9.56.01 6.98.109-.965.044-10.785-.016 14.965.083-4.696.054 1.608-.019-8.214.035 3.559.007-2.834.095 7.342.016 2.871.02-14.516.07 11.86.025-7.278.016 7.583.077-2.741.06 4.334.026-11.896.035 10.418.124-3.714.016-2.107.074 5.27.006 1.15.029-9.234.073 7.559.029-5.246.086 2.988.086 2.83-.051-4.082.073 1.303.013-2.517.029 3.927.07-1.76.025-.913.048 1.3.007-.041.099.551-.058-1.113.07.79.109-.763-.08.883.09-.805.12.58-.098-.662.102.544.114-.363-.076.448.08-.386.108.253-.06-.39.063.347.032-.094.026.236.05-.13.093-.225.077.121.048.094.032-.13.031.075.106-.174.022.043.147.172.003-.004.108-.152.029.058.252-.003.16.054.003-.005.105-.056.025.012.16.03.127.007 1.404-.018.044-.118-.025.2.09-.104.066.133.007-.202.035.105.095-.144-.006.305.01-.148.102.248-.016-.426.019.054.003-.075.026.497.067-.136.076.172.006-.513.016.37.07-.34-.06.42.102-.326.051.417-.025-.73.066.633.077-.562.032.203.096.355-.007-.552.02.11.012-.217.016.641.077-.27.003.196.083-.37.025.227.086.206-.016-.45.03.137.002-.132.004.332.098-.088.045.155-.016-.315.08.185.096-.108-.045.21.048-.057.105.11-.057-.342.06.23.022-.213.067.484.016-.212.013.23.09-.488.006.04.006-.14.003.036.055-.27.044.51.054.984.036-1.231.016.396.114-1.05-.073 1.17.077-1.077.13 2.056.003.19.067-2.446.007.437.092-.664-.073 1.7.09-1.2.12 2.377-.114-2.411.127 1.352.051-1.875.06 1.439.014.385.028-2.293.07 2.097.122-1.358-.055 2.885.058-2.701.006-.737.045 1.973.006-.19.109.343-.045-1.905.048 1.717.054-.573.045.8.013-.288.063-.925.064.386.045-.141-.035.182.099-.046.082.519.045-.227.07-.56.055.295.038-.03.111.526.048-.188.077-.508.054.246.07-.062.032.142.067.269.045-.238.073-.336.048.187.163.313.041-.11.073-.285.07.155.058-.118.06.193.013-.038.048.16.007.018.063-.24.064-.149.02.178.034-.045.1.097-.023-.236.035.177.09-.074-.058.276.067-.152.006.063.067-.249.026.013.064.19-.02-.255.035.014.083-.544-.054.882.064-.097.048 1.562.048-2.135.012-.891.058 2.187.041-1.756.153 4.26.013-2.826.006-2.948.07 5.104.039-4.466.051 3.13-.035-3.447.099 1.42.01-.853.047 3.967.02 2.658.022-12.961.07 10.447.016-6.913.048 7.117.05-2.738.106 6.112-.06-8.77.073 7.105.016-14.685.102 9.19.01 6.41.095-9.663.003-.572.064 7.987.013 3.604.025-12.26.006-6.565.026 18.465.073-1.763.035-10.98-.022 13.278.115-4.54.054 3.407-.025-9.232.057 1.588.006-10.551.03 20.562.07-1.6.038-14.693.114 7.079.013 2.744.048 2.9.013-16.995.003-.793.02 17.974.005 7.346.02-18.343.076 3.257.013-5.225.022 16.148.074-9.775.003-.082.019 1.713.064 5.56.012-12.357.004-5.583.028 24.393.074-11.115.032-6.67.025 13.326.048-5.503.112 4.68-.083-9.284.092 6.045.013-17.388.025 25.49.074-10.612.003.006.054 6.227-.019-12.827.077 8.358.012-5.556.08 7.21.064 7.045-.029-24.359.058 8.22.083-.897-.03 10.5.033-8.985.012 11.42.03-13.034.073 6.78.054 4.254-.026-5.907.048 1.668.01-13.457.028 24.228.074-12.26.054 6.338-.016-10.856.08 6.007.019-3.652.08 7.15.006-.618.003.116.01-1.998.01-13.51.028 22.876.073-12.755.058 6.831.025-10.809.035 6.507.02-4.071.086 6.352.006 1.256.02-12.47.002-3.707.029 22.42.07-12.336.067 5.838-.025-9.721.08 6.325.019-4.99.086 7.336.012.375.007-2.353.013-11.435.028 20.54.058-6.914.003 1.04.05-9.587.04 3.388.006-2.564.025 8.135.08-6.633.013 3.14.086 8.911-.026-17.81.045 7.048.013-6.613.028 13.92.064-4.072.086-5.347-.07 6.678.092-1.904.055 2.13-.02-6.297.068 2.213.006-6.777.029 15.237.073-8.508.086-1.961-.022 5.838.035-3.787.01 4.041.025-6.662.083 6.363.05-9.736.026 13.377.004.595.031-13.988.036 6.494.095-2.474-.025 5.638.035-3.218.01 3.088.028-6.044.077 4.752.086 5.372-.029-13.068.041 6.94.016-7.161.03 10.74.063-2.423.003-.002.003.031.01.555.016-5.24.048 1.566.01-1.567.079 4.59.083 3.783-.026-10.818.042 5.833.016-6.904.025 10.657.067-3.087.007.384.006 1.004.02-5.316.079 3.661.121-5.573-.054 6.205.07-2.597.013 6.734.029-11.317.07 5.75.111-2.469-.073 4.518.08-4.065.127 3.945.023-7.28.025 10.78.058-2.513.108-5.448.025 3.45.016-2.51.007-.737.029 3.267.063-.164.003.004.004-.094.057-4.397-.013 4.817.032-.982.007 3.485.031-7.021.07 4.374.01-2.44.109 1.064.073.781-.041-1.262.082 1.249.055-4.033-.029 5.105.048-1.254.006 2.975.032-5.872.07 3.072.048-1.083.067.113.051-.21-.025.975.038-.634.115 1.717-.074-1.94.077 1.645.025-2.39.09 1.656.003.002.086-.959-.025 1.002.054-.222.032-.64-.026.703.153-.3.058.266-.026-.404.083.274.016.172.077-.475.003.003.022.225.029-.327.054.04.006-.032.026.212.118.05-.083-.158.086.15.022-.06.067.188.144.217-.115-.248.121.234.102-.062.003-.02.14-.22.218.039.054.035-.032-.008.067.039.172.04.147-.038.195-.09.248.027.743-.009.163-.025.227-.042.475-.033.12-.002.004.006.147.024.204-.039.003.007.125.008.003-.008.175-.002.192.012.095.054.003.003.1.002.015-.035.112-.015.019.043.533-.002.076.112-.032-.166.067.09.02-.114-.01.125.115-.09.067.198-.03-.207.077.121.118-.316-.095.384.102-.262.111.249-.082-.301.095.245.077.152-.067-.297.073.141.054-.159.026.289.032-.173.08.224-.055-.346.09.277.118-.292.044.193.048.062-.029-.2.032.127.007-.185.032.29.07-.035.044-.178.026.236.003.092.09-.275.015.142.035.06.042-.218.013.002.038-.19-.029.263.045-.049.006.125.083-.361.013.11.003-.121.058.308.05-.23.007-.04.067.336.01-.082.102.76-.09-.876.112.492.006.184.035-1.245.051-.336.023.67.028-.025.055 2.547.035-2.816.019.159.108-1.272-.067 2.191.083-1.531.038 3.917.067-4.38.007.641.102-1.282-.07 3.123.08-2.563.035 4.976.07-5.362.006.81.099-1.234-.067 4.144.077-3.411.035 5.488.073-5.897.003-.483.035 4.289.067-3.481.035 5.634.067-5.633.007-.889.035 3.943.064-2.444.028 4.514.067-4.528.007-1.235.035 3.183.063-1.625.03 3.829.07-5.199.012 1.61.112 3.669-.035-4.54.054 2.554.05-2.966.061 2.015.064 2.966-.035-4.711.067 1.408.038-1.595-.028 3.13.099-2.492.047 3.6.055-3.685.006.237.016-.803.073 2.166.01-.924.013 2.66.076-3.483.013.287.003-.834.093 3.968.003-.066.09-3.382.034.853.058 2.132-.032-2.373.099 1.18.022-1.618.086 1.631.01.967.086-2.51.006.628.109 1.762-.093-2.526.137 1.781.048-1.771.064 1.419.044 1.233.055-2.194.01.878.05-1.447.048 2.127.026.762.073-2.858.006 1.009.106 2.056-.093-3.343.118 2.69.09-2.813-.074 2.823.099-1.491.048 2.527.05-3.134.014 1.376.05-2.279.052 3.257.022.81.054-3.105.013 1.077.029-2.106.073 3.59.118-3.664-.096 4.228.144-2.245.048 2.39.054-3.486.01 1.789.031-2.612.055 2.849.016-.324.047 1.63.055-3.529.14 3.258-.118-3.679.147 2.247.092-1.91.023.731.054 2.363.054-2.358.067-.731.013 1.773.012-.854.051 2.11.058-2.357.121 2.131-.051-2.617.112 1.554.092-1.604.022.56.052 2.168.06-1.405.073-1.418.03 2.097.002.016.004-.53.111-1.15-.076 2.702.08-2.26.111 1.969-.054-2.85.057 2.494.112-2.414-.096 3.146.102-2.155.112 2.208-.077-3.328.083 2.291.131-2.242-.118 3.125.124-2.546.07 2.735-.054-3.052.102 1.982.051-2.157.067.556.07 2.245.048-1.28.058-1.292.064.825.054 1.686.06-1.55.055-.747.054.663.054 1.51.064-1.231.054-.81.067.418.057 1.385.064-.97.074-.687.047.316.074.933.057-.337.074-.715.057.316.003-.01.045.198.064.268.05-.216.09-.28.048.075.115.267.038-.04.003.002.038-.11.09-.14.047.088.08.166.054-.081.074-.165.07.088.073.064.055-.059.14-.033.003.002.182-.013.102-.046.032.044.076.076.045-.064.08-.087.048.07.07.074.054-.07.064-.059.054.07.07.033.045-.051.08-.038.044.061.067.024.048-.055.073-.01.042.047.083.015.038-.033h.354l.137-.01.153.006.613.015.003-.02.05-.03.01.082.051-.066.125.09.003-.01.026-.086.025.113.057-.069.074.086.038-.028.105-.128-.01.186.014-.156.067.251.006-.305.038.263.102-.474-.054.633.057-.284.061 1.194-.006-2.771.044 2.06.08-2.855-.01 4.943.042-3.41.045 2-.026-2.287.102 1.642.007-1.45.028 1.7.077-.545.105-.915-.092 1.295.095-1.087.007 1.04.105-.087.099-1.247-.01 1.534.032-.722.041.827.007-1.68.064 1.128.019.397.025-1.26.032.248.003-.393.01 1.123.096-.761.114 1.138-.098-1.296.102 1.246.102-1.5.012.224.115 1.926-.105-2.013.108 1.35.02-1.956-.007 3.975.1-2.494.018.724.07-2.494.013.864.003-.082.035 1.46.007-.044.057 2.03.007-4.413.038 1.386.025-1.08.032 2.441.051-1.589.14 2.646-.105-3.166.118 1.801.045-2.52-.032 4.772.099-2.578.003.445.07-2.153.03.76.002-.376.083 1.956.013-1.108.048 3.1.032-5.033.028 2.128.032-1.891.01 2.84.073-1.688.07 1.22.051-.875.004-.222.05 1.445.055-1.185.054.578-.032-.81.09.476.01-.53.031.582.07-.195.064.296-.057-.5.095.207.003-.223.039.75.067-.357.105-.3-.077.428.08-.208.105.308-.035-.537.039.384.054-.655.006.89.051-.587.01-.357.102.839.006-.802.105.562.026-.233.006.45.07-.265.026.382.054-.578.029.259.08-.423.006.674.026-.492.108.34-.006-.366.01.107.053-.215-.006.636.057-.387.08-.197.016.509.003-.563.026.624.083-.469.092.374-.006-.429.025.162.064.343.007-.545.035.257.105-.362-.096.588.099-.269.003.327.051-.602.054.54.016-.437.096.167.105.58-.054-.953.058.313.041-.665.006 1.44.061-.799.102.676-.025-1.028.028.282.013-.24.073.9.02-.437.054.466-.007-1.006.06.535.093-.307-.025.63.041-.463.026.622.006-.893.083.701.003-.62.109.37.076-.342.016.489.026-.266.105.373-.016-.582.02.216.101-.254-.095.573.099-.406.003.425.025-.713.08.504.016-.319-.006.578.098-.298.102.086-.006-.321.01.113.054.337.006-.536.045.372.003-.268.06.469.045-.269.06.457.007-.857.042.663.006-.5.067.523.042-.364.073.347-.045-.505.083.277.035-.454.007.877.06-.697.026.6.073-.732.013.408.013.228.006-.581.086.376.016-.41.073.678.016-.349.061.553.048-.723.019.162.057-.638.03.226.044-.173-.007.68.01-.214.102 1.49-.092-1.822.105 1.106.041-1.737-.032 1.82.102-.275.067-1.727-.054 1.784.102-.602.1 2.112-.087-2.468.099.65.044-2.53.052 3.827.012-1.569.007 1.557.05-3.86.055 2.763.022-1.235.067 2.527.016 1.034.058-5.424.003.004.07 5.94-.054-6.06.095 2.444.01-3.143.025 4.391.077-1.577.054 4.19.035-5.767.01 2.04.035-3.055.054 6.722.023-4.33.028-2.669.051 4.913.026-1.777.111 4.267-.01-5.763.014 2.748.047-4.604.055 7.896.01-4.32.092 2.049-.051-6.072.07 4.413.006-1.505.093 5.273.003.083.006-1.593.07-6.073-.054 6.977.096-3.268.01 3.615.054-8.035.035 3.695.041-1.02-.025 3.108.076-.127.039 2.497-.026-3.69.045.527.038-4.371-.026 6.455.096-2.796.013 2.906.05-6.265.04 2.185.009 2.41.105 1.03-.041-3.333.047 2.64.03 1.544.028-5.21.016.602.006-1.542.051 5.537.051-3.758.003-.159.051 2.612.016-.8.004.28.038-1.15.067.725.013-.382.082.813.007.114.05-1.218.017.585.048-.738.054.908.013-.622.025.556.093-.124.047.484.064-.359.096-.548.038.134.051.302-.032-.307.096.173.006-.065.055.669.032-.339.01.255.076-.77.012.144.093-.238-.048.373.067-.207.083-.039-.054.15.057-.099.105 1.402-.089-1.55.099.389.041-1.034-.028 1.604.099-.935.006.861.096-1.409.006.41.128 1.404-.112-1.517.121 1.374.029.939.016-1.849.016.07.048-1.856.05 3.37.01-1.251.045-1.703-.035 2.03.105-.744.128 2.184-.09-2.604.1 2.532.053-4.456.074 3.678.003.629.054-3.868.051 2.893.003.15.051-1.778.032.531.004-.16.047 2.699.004.336.047-4.71.013.387.003-.83.06 4.845.04-1.898.034-2.43.051 3.466.026-1.63.115 2.729-.086-3.593.105 2.63.041-4.507.06 5.626.01-2.912.007 2.091.057-3.988.048 2.628.057-1.546.064 2.805.083-4.9-.054 5.406.092-1.504.023 1.99.054-4.665.02.17.053 2.483.067-1.023.004-.29.08 2.443.002.18.036-3.966.012 1.44.007-1.9.057 4.815.045-2.255.028-2.02.055 2.587.032-1.411.114 2.43.023-.747.041-2.68.058 3.233.01-1.108.006.83.057-2.36.041 1.114.055-.472-.042.804.096-.268.067 1.013-.058-1.048.1.059.05-.822-.041.961.102-.296.041-.116-.012.502.08-.395.009.136.073-.49.013.087.105.874.058-.59.07-.2.041.17.055.37.057-.368.057-.22.06.154.084.46.076-.337.048-.126.054.172.052.115.047-.181.077-.222.05.139.1.441.057-.207.058-.146.067.104.035.054.048-.122.073-.199.06.09.115.411.074-.212.108-.126.042.044.015.002.045-.097.067-.094.051.085.112.38.06-.193.083-.245.048.108.007.025.073-.116.025.066.067-.11.03.161.117.263.013-.033.124-.32.039.083.118-.212-.103.232.131-.08.131.4-.118-.412.124.367.115-.488.032.092.022.228.064-.761.003-.031.042.597.01-.13.066 1.86.026-2.339.003.055.013-1.12.05 2.617.02.858.07-3.635.013 1.197.147 4.212-.08-4.925.102 4.055.029-9.214.054 10.092.045-7.421.019 6.003.095-2.795.013-2.078.026 4.651.028-.954.051 3.056.007-4.144.022-8.884.022 15.006.067-11.276.026 12.195.09-7.471.022-3.426.076 7.707.006-1.166.004-.022.003.37.067 4.564-.038-17.262.054 10.739.092-8.309-.028 14.02.047-6.91.013 3.148.048-6.633.045 2.728.083-11.84-.013 17.218.032-8.716.019 15.317.022-21.346.07 14.23.013-14.25.029 17.212.07-7.31.096 7.207-.067-8.278.076 2.867.01-15.685.025 28.335.077-14.977.064 9.162-.026-19.434.08 12.749.019-3.963.086 7.386.013 1.293.01-7.766.009-13.116.026 27.597.073-13.614.064 8.478-.026-18.98.077 12.842.012-5.18.036 6.411.041-1.748.077 12.708-.026-28.695.048 9.711.003.116.003-1.895.007-4.253.025 18.386.07-4.793.007 4.8.019-12.47.083 9.14.089-18.232-.032 20.363.051-2.453.007 11.306.031-24.689.07 10.735.01-10.484.026 16.138.08-9.594.082 7.964.023-8.993.006-8.688.026 24.654.073-11.645.064 5.334-.026-12.914.074 8.48.019-3.744.083 7.125.003-.32.006.09.016-1.432.013-14.64.025 23.017.077-10.16.06 3.1-.025-10.607.038 5.337.004-2.007.025 5.782.083-4.423.09 10.944-.026-19.126.044 9.47.093-5.34-.067 9.038.083-3.225.01 3.287.063-6.079.038 4.403.083-10.313-.035 12.94.055-3.653.006 7.416.032-11.556.07 4.208.01-5.196.028 7.605.074-3.955.076 4.48-.032-4.764.058 2.209.01-8.933.025 15.4.073-7.838.016 4.037.022-7.975.07 5.901.02-4.45.086 5.437.003-.014.013.626.016-2.442.01-8.596.025 14.327.073-6.972.016 4.57.022-7.823.07 4.728.02-4.09.08 5.213.009-.069.067 2.55-.026-11.147.055 6.03.01 2.214.047 1.557-.022-6.59.076 3.289.06-2.143-.025 4.359.074-2.19.006-.02.038 2.222.016 1.237.026-8.318.05 4.875.01.904.007 1.919.022-5.786.077 2.87.01-1.585.025 2.944.073-1.423.067 3.05.02-3.718.006-1.29.067 3.719.035-1.985.006.875.07-1.153.035.86.02-1.093.086 1.5.022 1.404.032-2.42.032.303.01-.99.07 1.853.031-1.124.01.47.07-.801.032.406.01-.093.015.237.067 1.689.058-.985.013-1.421.07 1.628.032-.925.006.545.029-.947.073.28.022-.23.061.977.038.717.048-1.028.045-.992.05 1.104.017-.217.003.21.07-.735.032.193.026-.292.063.93.042.77.048-1.172.041-.738.051 1.046.016-.385.026.322.08-.593.006.096.134 1.243-.102-1.33.114 1.047.01.187.022-.498.048-1.095.064.61.025.313.067-.558.013.206.007-.265.092.51.006-.106.048 1.027.051-1.1.01.2.032-.779.07.842.01-.15.025.266.067-.511.013.09.05-.275.049.401.047 1.11.052-1.206.012.152.029-.683.07.94.01-.13.025.24.064-.511.067-.341-.051.378.096-.042.06 1.2.06-.906.03-.77.07.852.01-.146.025.18.064-.433.067-.21-.051.277.095-.117.064 1.144.057-.866.032-.593.07.689.007-.055.134-.363-.102.447.108-.424.147 1.08-.115-1.147.156.482.032-.606.07.615.01-.066.029.112.057-.253.083-.24.045.1.089.864.038-.529.035-.462.077.445.01.088.082-.205.115-.277.016.064.102.735.051-.45.042-.207.06.247.029.062.057-.131.109-.281.041.072.106.553.07-.31.076-.12.042.053.012.022.048-.128.086-.122-.073.158.118-.094.067.124.112.343.025-.112.013.028.057-.27.1-.11-.07.164.079-.029.025.08.045-.185.092-.175-.057.306.077-.155.127.58-.095-.644.098.63.106-.702-.096.71.118-.253.003.232.067-.822.035.168.096.19-.058-.388.064.155.016-.097-.006.264.022-.18.083 2.033.013-1.812.022-2.247.048 4.961.038-2.854.013-1.192.029 2.445.07-1.392.07.735.026-1.137.022.9.006-.145.02.57.054 1.423.006-1.911.006-5.847.026 10.497.076-4.244.087 1.551-.03-3.98.052 1.969.025-1.707.03 3.2.057-2.291.098 3.296.016-1.874.01-8.212.025 13.583.074-4.357.013.935.028-4.412.058 1.563.006-1.51.048 2.71.05-1.283.042-.69.077 2.882.003.16.022-3.278.007-6.35.025 14.533.074-5.573.006 1.207.035-5.39.058 1.86.006-.951.029 3.629.07-1.941.118 2.571-.105-3.143.108 2.5.045-8.556.025 14.701.042-8.9.006 3.696.054-5.36.051 2.124.067-.462.026 1.979.013-1.162.111 1.65-.038-2.883.041 2.686.093-10.042-.026 11.126.045-3.555.006 11.544.026-16.506.076 3.838.004-.196.022 4.898.041-2.268.01 1.005.057-1.996.042 1.186.025-1.675.08 2.264.003-.011.093-6.874-.013 7.892.032-3.644.006 10.294.026-14.946.076 5.355.004-1.318.028 4.581.074-2.115.05.503-.025-1.365.08.61.013-.823.07 1.69.025-1.115.058 2.062.01-5.822.002-1.161.026 12.128.073-8.013.06 2.862-.025-3.342.08 2.115.013-1.227.025 1.277.08-.29.099.604-.067-2.1.073 1.386.09-3.94-.02 5.386.039-1.38.006 5.328.026-9.581.076 3.7.007-1.067.022 3.158.08-1.911.016.905.025-1.183.067.473.007-.65.028 1.026.074-.16.054 1.11.019-1.273.06-3.38-.025 7.74.073-4.8.058 2.144-.026-3.495.08 2.396.016-1.34.099.779.006.308.023-.958.08.525.089 1.23-.074-1.356.093.772.06-3.878-.025 7.615.076-4.257.058 1.423-.029-2.916.083 2.026.096-1.174.019.829.006.268.026-1.2.073.536.124 1.37-.105-1.393.109.863.06-3-.025 5.476.076-3.031.058 1.183.025-2.336.032 1.597.026-.885.102.32.114.283-.086-.658.09.62.019-.48.025.76.058-.16.06.463-.025-1.268.044.526.09-.524-.045.957.064-.27.006.268.029-.75.07.227.105-.278-.092.395.102-.254.041-.107.106.602.089-.397-.041.436.063-.127.007.066.025-.404.06.09.071-.095-.026.216.064-.09.128-.17.006.033.077.285-.026-.316.074.267.019.109.041-.326.042.197.086-.154-.029.171.06-.081.093.028.045-.115.16.204.006-.044.086-.147.032.064.232-.1.016.042.036-.017.098.083.536.026.058-.01.028-.058.08-.039.045.044.22-.018.44.026.172-.013.306.026.724-.005.456.03.485-.039 4.344.002h0" clip-path="url(#pafdcdc992a)" style="fill:none;stroke:#2ca02c;stroke-width:.5;stroke-linecap:square"/><path id="patch_3" d="M38.05 142.76V8.64" style="fill:none;stroke:#000;stroke-width:.8;stroke-linejoin:miter;stroke-linecap:square"/><path id="patch_4" d="M221.76 142.76V8.64" style="fill:none;stroke:#000;stroke-width:.8;stroke-linejoin:miter;stroke-linecap:square"/><path id="patch_5" d="M38.05 142.76h183.71" style="fill:none;stroke:#000;stroke-width:.8;stroke-linejoin:miter;stroke-linecap:square"/><path id="patch_6" d="M38.05 8.64h183.71" style="fill:none;stroke:#000;stroke-width:.8;stroke-linejoin:miter;stroke-linecap:square"/><g id="legend_1"><path id="line2d_15" d="M164.938 15.919h16" style="fill:none;stroke:#ff7f0e;stroke-linecap:square"/><g id="text_14" transform="matrix(.08 0 0 -.08 187.338 18.719)"><defs><path id="DejaVuSans-46" d="M628 4666h2681v-532H1259V2759h1850v-531H1259V0H628z" transform="scale(.01563)"/><path id="DejaVuSans-70" d="M1159 525v-1856H581v4831h578v-531q182 312 458 463 277 152 661 152 638 0 1036-506 399-506 399-1331T3314 415Q2916-91 2278-91q-384 0-661 152-276 152-458 464m1957 1222q0 634-261 995t-717 361q-457 0-718-361t-261-995 261-995 718-361q456 0 717 361t261 995" transform="scale(.01563)"/><path id="DejaVuSans-64" d="M2906 2969v1894h575V0h-575v525q-181-312-458-464-276-152-664-152-634 0-1033 506-398 507-398 1332t398 1331q399 506 1033 506 388 0 664-152 277-151 458-463M947 1747q0-634 261-995t717-361 718 361q263 361 263 995t-263 995q-262 361-718 361t-717-361-261-995" transform="scale(.01563)"/></defs><use xlink:href="#DejaVuSans-46"/><use xlink:href="#DejaVuSans-30" x="57.52"/><use xlink:href="#DejaVuSans-70" x="152.93"/><use xlink:href="#DejaVuSans-72" x="216.406"/><use xlink:href="#DejaVuSans-65" x="255.27"/><use xlink:href="#DejaVuSans-64" x="316.793"/></g><path id="line2d_16" d="M164.938 27.661h16" style="fill:none;stroke:#1f77b4;stroke-linecap:square"/><g id="text_15" transform="matrix(.08 0 0 -.08 187.338 30.461)"><defs><path id="DejaVuSans-6f" d="M1959 3097q-462 0-731-361t-269-989 267-989q268-361 733-361 460 0 728 362 269 363 269 988 0 622-269 986-268 364-728 364m0 487q750 0 1178-488 429-487 429-1349 0-859-429-1349Q2709-91 1959-91q-753 0-1180 489-426 490-426 1349 0 862 426 1349 427 488 1180 488" transform="scale(.01563)"/><path id="DejaVuSans-67" d="M2906 1791q0 625-258 968-257 344-723 344-462 0-720-344-258-343-258-968 0-622 258-966t720-344q466 0 723 344 258 344 258 966m575-1357q0-893-397-1329-396-436-1215-436-303 0-572 45t-522 139v559q253-137 500-202 247-66 503-66 566 0 847 295t281 892v285q-178-310-456-463T1784 0Q1141 0 747 490 353 981 353 1791q0 812 394 1302 394 491 1037 491 388 0 666-153t456-462v531h575z" transform="scale(.01563)"/></defs><use xlink:href="#DejaVuSans-46"/><use xlink:href="#DejaVuSans-30" x="57.52"/><use xlink:href="#DejaVuSans-6f" x="152.93"/><use xlink:href="#DejaVuSans-72" x="214.111"/><use xlink:href="#DejaVuSans-69" x="255.225"/><use xlink:href="#DejaVuSans-67" x="283.008"/></g></g></g></g><defs><clipPath id="pafdcdc992a"><path d="M38.05 8.64h183.71v134.12H38.05z"/></clipPath></defs></svg>