<svg xmlns="http://www.w3.org/2000/svg" xmlns:xlink="http://www.w3.org/1999/xlink" width="307.2" height="230.4" viewBox="0 0 230.4 172.8"><defs><style>*{stroke-linejoin:round;stroke-linecap:butt}</style></defs><g id="figure_1"><path id="patch_1" d="M0 172.8h230.4V0H0z" style="fill:#fff"/><g id="axes_1"><path id="patch_2" d="M38.05 142.76h183.71V8.64H38.05z" style="fill:#fff"/><g id="matplotlib.axis_1"><g id="xtick_1"><g id="line2d_1"><defs><path id="mbd46552c22" d="M0 0v3.5" style="stroke:#000;stroke-width:.8"/></defs><use xlink:href="#mbd46552c22" x="72.168" y="142.76" style="stroke:#000;stroke-width:.8"/></g><g id="text_1" transform="matrix(.08 0 0 -.08 69.623 155.839)"><defs><path id="DejaVuSans-31" d="M794 531h1031v3560L703 3866v575l1116 225h631V531h1031V0H794z" transform="scale(.01563)"/></defs><use xlink:href="#DejaVuSans-31"/></g></g><g id="xtick_2"><use xlink:href="#mbd46552c22" id="line2d_2" x="124.656" y="142.76" style="stroke:#000;stroke-width:.8"/><g id="text_2" transform="matrix(.08 0 0 -.08 122.111 155.839)"><defs><path id="DejaVuSans-32" d="M1228 531h2203V0H469v531q359 372 979 998 621 627 780 809 303 340 423 576 121 236 121 464 0 372-261 606-261 235-680 235-297 0-627-103-329-103-704-313v638q381 153 712 231 332 78 607 78 725 0 1156-363 431-362 431-968 0-288-108-546-107-257-392-607-78-91-497-524-418-433-1181-1211" transform="scale(.01563)"/></defs><use xlink:href="#DejaVuSans-32"/></g></g><g id="xtick_3"><use xlink:href="#mbd46552c22" id="line2d_3" x="177.145" y="142.76" style="stroke:#000;stroke-width:.8"/><g id="text_3" transform="matrix(.08 0 0 -.08 174.6 155.839)"><defs><path id="DejaVuSans-33" d="M2597 2516q453-97 707-404 255-306 255-756 0-690-475-1069Q2609-91 1734-91q-293 0-604 58T488 141v609q262-153 574-231 313-78 654-78 593 0 904 234t311 681q0 413-289 645-289 233-804 233h-544v519h569q465 0 712 186t247 536q0 359-255 551-254 193-729 193-260 0-557-57-297-56-653-174v562q360 100 674 150t592 50q719 0 1137-327 419-326 419-882 0-388-222-655t-631-370" transform="scale(.01563)"/></defs><use xlink:href="#DejaVuSans-33"/></g></g><g id="text_4" transform="matrix(.08 0 0 -.08 114.392 163.581)"><defs><path id="DejaVuSans-74" d="M1172 4494v-994h1184v-447H1172V1153q0-428 117-550t477-122h590V0h-590q-666 0-919 248-253 249-253 905v1900H172v447h422v994z" transform="scale(.01563)"/><path id="DejaVuSans-69" d="M603 3500h575V0H603zm0 1363h575v-729H603z" transform="scale(.01563)"/><path id="DejaVuSans-6d" d="M3328 2828q216 388 516 572t706 184q547 0 844-383 297-382 297-1088V0h-578v2094q0 503-179 746-178 244-543 244-447 0-707-297-259-296-259-809V0h-578v2094q0 506-178 748t-550 242q-441 0-701-298-259-298-259-808V0H581v3500h578v-544q197 322 472 475t653 153q382 0 649-194 267-193 395-562" transform="scale(.01563)"/><path id="DejaVuSans-65" d="M3597 1894v-281H953q38-594 358-905t892-311q331 0 642 81t618 244V178Q3153 47 2828-22t-659-69q-838 0-1327 487-489 488-489 1320 0 859 464 1363 464 505 1252 505 706 0 1117-455 411-454 411-1235m-575 169q-6 471-264 752-258 282-683 282-481 0-770-272t-333-766z" transform="scale(.01563)"/><path id="DejaVuSans-28" d="M1984 4856q-418-718-622-1422-203-703-203-1425 0-721 205-1429t620-1424h-500Q1016-109 783 600T550 2009q0 697 231 1403 232 707 703 1444z" transform="scale(.01563)"/><path id="DejaVuSans-73" d="M2834 3397v-544q-243 125-506 187-262 63-544 63-428 0-642-131t-214-394q0-200 153-314t616-217l197-44q612-131 870-370t258-667q0-488-386-773Q2250-91 1575-91q-281 0-586 55T347 128v594q319-166 628-249 309-82 613-82 406 0 624 139 219 139 219 392 0 234-158 359-157 125-692 241l-200 47q-534 112-772 345-237 233-237 639 0 494 350 762 350 269 994 269 318 0 599-47 282-46 519-140" transform="scale(.01563)"/><path id="DejaVuSans-29" d="M513 4856h500q468-737 701-1444 233-706 233-1403 0-700-233-1409T1013-844H513q415 716 620 1424t205 1429q0 722-205 1425-205 704-620 1422" transform="scale(.01563)"/></defs><use xlink:href="#DejaVuSans-74"/><use xlink:href="#DejaVuSans-69" x="39.209"/><use xlink:href="#DejaVuSans-6d" x="66.992"/><use xlink:href="#DejaVuSans-65" x="164.404"/><use xlink:href="#DejaVuSans-28" x="257.715"/><use xlink:href="#DejaVuSans-73" x="296.729"/><use xlink:href="#DejaVuSans-29" x="348.828"/></g></g><g id="matplotlib.axis_2"><g id="ytick_1"><g id="line2d_4"><defs><path id="m9a63756d0e" d="M0 0h-3.5" style="stroke:#000;stroke-width:.8"/></defs><use xlink:href="#m9a63756d0e" x="38.05" y="137.731" style="stroke:#000;stroke-width:.8"/></g><g id="text_5" transform="matrix(.08 0 0 -.08 25.96 140.77)"><defs><path id="DejaVuSans-30" d="M2034 4250q-487 0-733-480-245-479-245-1442 0-959 245-1439 246-480 733-480 491 0 736 480 246 480 246 1439 0 963-246 1442-245 480-736 480m0 500q785 0 1199-621 414-620 414-1801 0-1178-414-1799Q2819-91 2034-91q-784 0-1198 620-414 621-414 1799 0 1181 414 1801 414 621 1198 621" transform="scale(.01563)"/></defs><use xlink:href="#DejaVuSans-30"/></g></g><g id="ytick_2"><use xlink:href="#m9a63756d0e" id="line2d_5" x="38.05" y="120.966" style="stroke:#000;stroke-width:.8"/><g id="text_6" transform="matrix(.08 0 0 -.08 20.87 124.005)"><defs><path id="DejaVuSans-35" d="M691 4666h2478v-532H1269V2991q137 47 274 70 138 23 276 23 781 0 1237-428 457-428 457-1159 0-753-469-1171Q2575-91 1722-91q-294 0-599 50Q819 9 494 109v635q281-153 581-228t634-75q541 0 856 284 316 284 316 772 0 487-316 771-315 285-856 285-253 0-505-56-251-56-513-175z" transform="scale(.01563)"/></defs><use xlink:href="#DejaVuSans-35"/><use xlink:href="#DejaVuSans-30" x="63.623"/></g></g><g id="ytick_3"><use xlink:href="#m9a63756d0e" id="line2d_6" x="38.05" y="104.201" style="stroke:#000;stroke-width:.8"/><g id="text_7" transform="matrix(.08 0 0 -.08 15.78 107.24)"><use xlink:href="#DejaVuSans-31"/><use xlink:href="#DejaVuSans-30" x="63.623"/><use xlink:href="#DejaVuSans-30" x="127.246"/></g></g><g id="ytick_4"><use xlink:href="#m9a63756d0e" id="line2d_7" x="38.05" y="87.436" style="stroke:#000;stroke-width:.8"/><g id="text_8" transform="matrix(.08 0 0 -.08 15.78 90.475)"><use xlink:href="#DejaVuSans-31"/><use xlink:href="#DejaVuSans-35" x="63.623"/><use xlink:href="#DejaVuSans-30" x="127.246"/></g></g><g id="ytick_5"><use xlink:href="#m9a63756d0e" id="line2d_8" x="38.05" y="70.671" style="stroke:#000;stroke-width:.8"/><g id="text_9" transform="matrix(.08 0 0 -.08 15.78 73.71)"><use xlink:href="#DejaVuSans-32"/><use xlink:href="#DejaVuSans-30" x="63.623"/><use xlink:href="#DejaVuSans-30" x="127.246"/></g></g><g id="ytick_6"><use xlink:href="#m9a63756d0e" id="line2d_9" x="38.05" y="53.906" style="stroke:#000;stroke-width:.8"/><g id="text_10" transform="matrix(.08 0 0 -.08 15.78 56.945)"><use xlink:href="#DejaVuSans-32"/><use xlink:href="#DejaVuSans-35" x="63.623"/><use xlink:href="#DejaVuSans-30" x="127.246"/></g></g><g id="ytick_7"><use xlink:href="#m9a63756d0e" id="line2d_10" x="38.05" y="37.141" style="stroke:#000;stroke-width:.8"/><g id="text_11" transform="matrix(.08 0 0 -.08 15.78 40.18)"><use xlink:href="#DejaVuSans-33"/><use xlink:href="#DejaVuSans-30" x="63.623"/><use xlink:href="#DejaVuSans-30" x="127.246"/></g></g><g id="ytick_8"><use xlink:href="#m9a63756d0e" id="line2d_11" x="38.05" y="20.375" style="stroke:#000;stroke-width:.8"/><g id="text_12" transform="matrix(.08 0 0 -.08 15.78 23.415)"><use xlink:href="#DejaVuSans-33"/><use xlink:href="#DejaVuSans-35" x="63.623"/><use xlink:href="#DejaVuSans-30" x="127.246"/></g></g><g id="text_13" transform="matrix(0 -.08 -.08 0 14.116 105.261)"><defs><path id="DejaVuSans-66" d="M2375 4863v-479h-550q-309 0-430-125-120-125-120-450v-309h947v-447h-947V0H697v3053H147v447h550v244q0 584 272 851 272 268 862 268z" transform="scale(.01563)"/><path id="DejaVuSans-72" d="M2631 2963q-97 56-211 82-114 27-251 27-488 0-749-317t-261-911V0H581v3500h578v-544q182 319 472 473 291 155 707 155 59 0 131-8 72-7 159-23z" transform="scale(.01563)"/><path id="DejaVuSans-71" d="M947 1747q0-634 261-995t717-361 718 361q263 361 263 995t-263 995q-262 361-718 361t-717-361-261-995M2906 525q-181-312-458-464-276-152-664-152-634 0-1033 506-398 507-398 1332t398 1331q399 506 1033 506 388 0 664-152 277-151 458-463v531h575v-4831h-575z" transform="scale(.01563)"/><path id="DejaVuSans-75" d="M544 1381v2119h575V1403q0-497 193-746 194-248 582-248 465 0 735 297 271 297 271 810v1984h575V0h-575v538q-209-319-486-474-276-155-642-155-603 0-916 375-312 375-312 1097m1447 2203" transform="scale(.01563)"/><path id="DejaVuSans-6e" d="M3513 2113V0h-575v2094q0 497-194 743-194 247-581 247-466 0-735-297-269-296-269-809V0H581v3500h578v-544q207 316 486 472 280 156 646 156 603 0 912-373 310-373 310-1098" transform="scale(.01563)"/><path id="DejaVuSans-63" d="M3122 3366v-538q-244 135-489 202t-495 67q-560 0-870-355-309-354-309-995t309-996q310-354 870-354 250 0 495 67t489 202V134Q2881 22 2623-34q-257-57-548-57-791 0-1257 497-465 497-465 1341 0 856 470 1346 471 491 1290 491 265 0 518-55 253-54 491-163" transform="scale(.01563)"/><path id="DejaVuSans-79" d="M2059-325q-243-625-475-815-231-191-618-191H506v481h338q237 0 368 113 132 112 291 531l103 262L191 3500h609L1894 763l1094 2737h609z" transform="scale(.01563)"/><path id="DejaVuSans-48" d="M628 4666h631V2753h2294v1913h631V0h-631v2222H1259V0H628z" transform="scale(.01563)"/><path id="DejaVuSans-7a" d="M353 3500h2731v-525L922 459h2162V0H275v525l2163 2516H353z" transform="scale(.01563)"/></defs><use xlink:href="#DejaVuSans-66"/><use xlink:href="#DejaVuSans-72" x="35.205"/><use xlink:href="#DejaVuSans-65" x="74.068"/><use xlink:href="#DejaVuSans-71" x="135.592"/><use xlink:href="#DejaVuSans-75" x="199.068"/><use xlink:href="#DejaVuSans-65" x="262.447"/><use xlink:href="#DejaVuSans-6e" x="323.971"/><use xlink:href="#DejaVuSans-63" x="387.35"/><use xlink:href="#DejaVuSans-79" x="442.33"/><use xlink:href="#DejaVuSans-28" x="533.297"/><use xlink:href="#DejaVuSans-48" x="572.311"/><use xlink:href="#DejaVuSans-7a" x="647.506"/><use xlink:href="#DejaVuSans-29" x="699.996"/></g></g><path id="line2d_12" d="M19.679 137.73h7.873l.263-19.615.525-1.331.262-.049.262.638.525 1.889.263.12.787-1.364.263.217 1.05 2.3.262-.063.262-.335.525-1.16.525-1.675.525-2.175.262-.556.263-.058.525.41.262-.211.263-.648.262-1.402.525-3.8.262.281.263 1.63 1.05 9.226.262.305.262-.569.525-1.909.263-.134.787 2.58.263-.053.262-.787.525-2.358.262-.414.263.3.525.888.525.429.787.214.787-.43.263.438.525 1.311.262.246.262-.806.263-3.043 1.05-24.262.262-.464.787 3.685.263.165.525-1.05 2.362-5.485 1.312-3.034 1.05-2.537.525-.574.262-.08.262.085.525.457.263.02.787-.73.787.03 1.05.08.263.144.262.382.525 1.694.525 1.732.262-.066.788-2.717.525-.805.787-1.563.525-.321.787.051.525.265.525.786.787 1.98.787 3.188.525 2.01 1.05 2.59.787.596.263.86.262 2.321.525 9.571.263 4.961.262 2.376.263-2.31.524-19.805.263-8.408.262-3.644.263-.572 1.312 3.564.787 3.17.788 2.969 1.05 3.461 1.05 3.684.524 1.27 1.05 2.043.525 2.225.262 1.214.263.332.262-1.52.525-9.532.525-10.029.262-1.467.263 2.642.262 4.434.263 2.33.262-.175.263-.444.262 1.648.525 4.996.787 3.965.263-.974.787-12.42.262.143.788 5.874.787 2.284 1.05 2.975.787 1.182 1.312 1.71 1.05 1.077.525 1 .262.997.525 3.69.788 6.058 1.05 4.552.262.683.262-.612.788-5.09.262.524.787 4.83.263-.443.262-2.667.788-11.03.262-1.08.263.047.787 1.744 1.575 3.557.262-.193.525-.85.262-.212.263.04.262.28.525 1.075.787 2.242 1.05 3.644 1.312 2.439.525 2.207.263 1.104.262.162.263-1.3.524-5.08.263-1.472.262-.487.263.088 1.05 1.117.524.194.525-.093.788-.35.525-.023.787.243.525.566.787 1.311 1.05 2.383.262-.135.525-.976.263.218.525 1.29.262 21.099h.525l.262-18.942.263-.139.787-1.279.525.141 1.05.361.525.761.262-.118.525-.93.262.516.525 1.842.263.112.262-.635.525-2.093.262-.548.525-.36.263-.9.262-1.763.263 23.974h5.773l.263-18.365.262-.018.525-1.13.263-.133.787 1.81.262-.169.525-1.556.263-.21.262.725.263 19.046h2.362l.262-20.13.263-.853.262.241.525 2.375.262.385.525-.446.263.206.262.451.262 17.77h1.575l.263-59.44.262.527.262 2.32.525 6.586.263 2.116 1.574 7.197.263.303.262-.172.525-.552.263.154.262.804.525 2.6.262.338.263-.423.525-1.383.262-1.045.525-4.09.525-4.304.262-.243.525 1.153.263-.81.525-3.35.262.403.525 1.72.262.24.788-.123.525.393.525.71 1.312 2.3 2.624 3.14.263.01 1.05-.482.524.2 1.837.95.788.228.525.09.262.212.525 1.013.525 1.386.262.123.788-1.646.262-.108.262.256.788 1.387.262.168.525-.12.787-.47.525-.294.263.232.262.714.525 2.174.263.574.262-.16.525-1.719.262 38.214h1.313l.262-55.607.525-5.955.262-.39.263 2.17.525 6.419.262 1.911.263.692.787.191 1.312 1.954.525.277.787.227.263.233.262.516.263.92 1.05 4.921.262-1.24.525-3.774.262-.353.787-.455.263-.399.787-2.222 1.05-3.286.262.66.525 2.69.263.758.787 1.332.525 2.15.525 2.124.262.163.525-.64.525-.65.263-.037 1.312.573 2.624 2.399.788.833.524.186 1.313.064.262-.052.262.061.263.659.262 1.967.525 7.646.525 7.822.263 2.269.262 1.093.787.9.525.964.263-.17.262-.825.525-2.679.262-.774.263-.236.262-.052.263 22.052h2.362l.262-28.665.525-7.574.263-1.583.262-.25.787.815.263.535.262.976.525 3.755.525 3.931.525 1.972.262.407.263.053.525-.656.262.157.263 26.127h1.05l.262-44.97.262.449.263 1.717.525 4.518.524 2.552.788 2.164.787 1.414.262 1.29.525 4.625.263.983.262.064 1.05-1.255.262.169.525.795.788 1.453.525.478.787.377.525.627.787 1.322.263 21.228h.262l.262-19.968.525-1.762.263-.246.525.638.262-.271.525-1.326 1.05-.782.262.383 1.312 4.637.263.806.262 17.89h.525l.263-29.102.262-.953.263.294.787 4.563.525 1.355 1.05 5.438.262-.084.262-.364.263.07.262.572.263 18.212h.262l.263-17.877.525-1.617.262-.006.192.445h0" clip-path="url(#p16bd7ea225)" style="fill:none;stroke:#1f77b4;stroke-linecap:square"/><path id="line2d_13" d="M19.679 137.73h20.208l.263-17.725.787-1.679.525-.894.262-.526.263-.165.262.524.525 2.06.262.446.263-.236.787-2.01.788-.808.524.239.263-1.403.262-4.82.525-12.625.263-2.124.262-.093.263.483.262-.066.787-2.751.263.144.525 1.28.262-.084.525-1.37 1.05-2.945.525-1.146.524-.55 1.575-.825.787.16.525.472 1.05 1.635.263.012.524-.146.263.185.525 1.067.262.54.263.185.525-.273.262.383.787 2.46.263-.157.262-1.045.788-4.83.262-.668.262-.115.525.413 1.05.991.787.55.525.744.525 1.304.525 2.337.525 4.058.525 5.564.262.081.263-3.77.525-9.212.262-.891.262.486.263.98 1.05 6.135.262-.117 1.05-14.017.262-1.308.263.004.525 2.647.525 2.437.787 2.356.787 1.862.525.733.787.76 1.313.915 1.312 1.677.262.572.263 1.488.262 3.594.788 17.477.262 1.135.262-.606.525-1.8.263-.443.262-.104.263.17.262 20.603h2.1l.262-39.368.263-1.042.524-3.172.263.194.787 2.514 1.312 2.35.263-.056 1.05-1.313.524-.285h.525l.525.185.263.187.262.33.263.552.262.911.262 1.43.788 6.339.262-.553.788-10.825.787-2.29.262-.378.263.796.525 4.714.262 38.78h1.312l.263-29.425.525-4.452.262-.426.263.63.787 2.675.525.858.787.795.787.24.788.441 1.05.713.262.54.787 2.472.263.35.262.024.263-.263 1.574-3.615.263-.882.262-.132.263.85.787 3.872.262.776.263.34.262.028.525-.335.525-.37.262-.093.263.036.262.207.525.804 1.05 1.65.525.535.262.16.263.017.525-.458.525-.55.787-.574.262-.029.263.14.525.508.262-.158.263-.936.262-1.538.262 24.575h8.661l.262-22.264.263-.775.525-2.406.262.003.263 1.656.525 4.321.262.824.262 18.64h11.548l.262-18.987.263.178.262-.432 1.05-3.92.262-1.658.263-2.624 1.05-14.26.525.466.262-.536.525-1.569.262.127 1.05 4.329.263.19.262.575.262 1.534.788 6.278.262 30.31h2.362l.263-39.366.525-11.453.262-.932.525 3.415.525 2.769.525 1.037.525.532.524 1.105.525 1.25.525.547.525.379.787 1.095.788 1.362 1.837 1.655.525-.255 1.574-1.081.525-.072.525-.052.263-.054.262.203.262.826.788 4.954.262.271 1.05-2.406.262-.023.263-.153.262-.42.525-1.61.788-3.119.524-.92.525-.705.263-.162.262.146.263.603.787 3.948.262.092.263-1.44.787-7.234.263-.725.262-.015.263 1.387.262 4.204.525 11.203.262-2.808.525-15.128.263-2.724.262.426.525 2.64.262.78.263.346.787.245 1.05.352 1.575.292.262.236 1.312 2.007.263.045.262-.623 1.05-4.355.262-.563.263.286.525 1.778.262.464.263-.325.262-1.647.787-10.817.263.758.787 6.132.263 1.186.262.625.525.613.262.581.263 1.165.787 4.898.525 1.79.262.056.263-.634.787-3.759.263-.52.262.106.525 1.2.787 1.894.525.617 1.05.737.525.019.787-.401.263.257.262.89.262 1.701 1.05 9.584 1.312 8.44.263.884.262.478.263.032.525-.528.262.076.263.246.262.086.262-.221.788-1.342.262-.062.263.078.262 20.645h1.05l.262-24.004.263-.823.525-7.226.525-6.405.262-.967.262.336.788 2.49.525.851.262.05.263 35.698h1.837l.262-42.285.263-1.797.262.219.262 1.177.263.59.262-.572.525-3.228.263-.026.262 1.423.787 5.266.525 1.937.263.627.262.932.263 1.617.787 6.601.262.69.525.3.263.42.787 1.616.262.04.788-.582.262.018.263.237 1.312 2.09.525.412.262.164.263.337.787 1.997.262.13 1.313-1.3.787-1.128.262.468.788 3.768.262 17.842h7.349l.262-35.885.263-2.485.262-1.414.192.163h0" clip-path="url(#p16bd7ea225)" style="fill:none;stroke:#ff7f0e;stroke-linecap:square"/><path id="line2d_14" d="m38.047 120.968.731-.002 8.264.094.026.023.07-.101.071-.119.036.138.099.15-.063-.251.086.09.03-.132.055.329.013-.115.023.076.04-.214.045-.253.056.282.01-.05.05-.323.048.374.155.685-.089-.851.092.82.082-1.297.046.89.01.34.065-1.667.007-.023.013.284.144 1.979.004-.096.121-2.75-.046 3.182.069-1.976.046 1.95.052-3.099.089-.573-.056 3.07.072-2.242.007.193.131 4.611.017-.827.01-8.839.058 10.559.046-6.782.073 3.745-.06-4.47.112 3.054.007-1.375.068 3.018.03-.872.095 3.436-.026-12.818.036 7.985.023 4.96.03-8.926.062 4.843.026-1.734-.013 2.196.095-.123.121 3.317.014-14.142.026 16.217.078-10.394.02 7.939.095-4.293.017-1.174.023 4.372.052-.204.072-13.944-.026 15.99.05-4.424.006 8.606.062-15 .043 8.593.016-6.024.063 6.25.036-2.604.101 5.628-.059-7.067.076 6.243.013-18.056.03 23.936.075-15.809.013 12.663.03-13.706.075 6.837.01-2.797.003-1.046.026 8.361.07-4.784.065 12.374-.03-24.98.06 7.14.062 12.348.03-14.963.039 6.783.01-2.733.065 8.402.03-3.618.095 11.25-.03-23.634.046 16.713.105-12.994-.033 13.007.043-4.783.075-3.76-.059 9.213.086-2.801.042 2.873.03-6.384.01.094.01-10.83.026 22.8.075-15.941.072 10.221-.026-12.254.079 8.003.118-13.9-.026 17.762.032-13.37.023 20.047.096-7.94.003.096.003-1.318.02-8.334.023 10.355.075-6.177.023 3.304.043 2.563.023-9.028.006-7.867.027 24.522.075-17.574.023 11.43.023-12.019.069 7.24.033-3.16.016 4.662.043 1.836.023-8.71.006-7.606.027 23.537.075-17.425.023 13.003.023-14.363.072 9.257.056 2.616-.03-8.304.076 7.627.01-14.48.026 19.513.079-10.484.02 8.283.022-13.207.046 3.508.003-.836.073 8.057.006 2.013.053-14.823.013 1.16.003-1.495.026 17.377.072-12.123.007 9.644.026-12.19.079 7.284.095-8.792-.046 13.72.066-8.395.023 10.392.023-14.556.065 6.788.007 3.496.01-8.73.092 4.769.095-6.576-.06 12.273.066-6.359.02 8.453.026-13.635.063 5.735.003.033.006 4.067.01-8.939.092 4.866.092-6.707-.06 12.261.067-4.721.02 6.863.025-12.598.063 4.646.01 4 .023-8.16.078 4.46.089-5.609-.06 11.288.08-5.591.01 5.633.072-9.781.026 6.573.023-6.093.088 5.156.02 3.497.056-8.295.003-1.243.026 7.716.08-5.421.071 3.372.043-1.425.043 3.324.045-3.955.007.244.06-1.528-.027 2.614.079-1.47.072 1.106-.026-1.455.068 1.225.036.997.023 1.144.073-2.527.02-1.856.075 2.284.013-.414.134 2.003-.124-2.43.128 2.417.092-3.484.036.506.088 1.795-.075-1.862.108 1.614.007-.177.039.943.02.744.075-2.27.053-1.134.042 1.387.01-.172.013-.055.128 2.294.125-3.403.02.332.12 1.995.004-.082.05.957.078-2.427.05-.7.071 1.474.119 1.58-.076-1.639.128.816.075-2.05.066.861.135 1.953.006-.147.122-2.717.052 1.038.138 1.746.046-.728.082-1.995.042 1.033.007-.032.016.283.118 1.36.023-.275.092-1.981.02-.248.062 1.053.125 1.385.056-.859.072-1.516.056.909.14 1.216.024-.243.105-1.646.052.705.151 1.052.013-.11.118-1.425.06.631.13.729.014-.086.128-1.198.055.49.174.627.017-.11.091-.772.07.185.18.806.026-.296.125-1.212.033.253.006.07.121 3.02-.075-3.433.092 1.922.023-3.381.082 3.977.003-.06.033-4.91.108 2.565.053 6.042.032-6.874.014-3.95.042 8.55.043-.964.013-3.018.02-4.478.052 7.538.036-2.65.013-1.746.04 6.09.026 2.617.03-9.798.01-4.15.042 12.668.053-5.62.022-5.746.046 9.923.043-4.626.023-1.05.026 5.626.023 4.204.043-17.52.046 15.005.069-12.167.046 10.634.055-5.764.04 7.257.013 2.895.043-18.964.052 15.225.066-11.875.039 12.049.072-5.913.017 3.612.026 5.787.033-15.063.006-4.048.043 17.65.052-7.54.023-6.732.036 12.105.05-4.778.02-1.572.032 6.977.016 3.182.04-19.238.049 15.466.066-12.087.055 7.69.053-2.278.026 5.72.02 4.874.042-19.172.05 15.5.062-11.738.066 5.715.046-1.243.016 3.37.026 7.12.046-17.938.05 14.81.055-11.978.072 6.354.043-1.56.026 5.847.02 3.616.042-15.955.004-.74.042 14.72.007-.753.052-11.566.082 6.896.082 6.99-.045-8.77.068 2.913.023-10.113.043 13.608.056-10.861.003-.63.036 10.347.036-3.202.007-.092.003.127.085 6.826-.046-8.517.066 3.14.023-10.703.062 13.87.036-11.247.004-.582.036 9.2.03-1.908.104 6.767-.049-8.171.069 2.563.023-10.139.066 13.545.032-10.997.004-.585.033 8.448.032-.931.109 5.984-.056-7.974.072 4.813.026-11.742.066 12.722.033-9.208.006-1.352.056 7.607.03-2.266.088 6.554-.046-7.146.069 2.234.023-9.244.062 12.974.03-7.91.01-2.162.055 7.293.03-2.635.112 6.341-.066-7.162.069 5.218.023-14.436.069 15.542.023-6.423.013-3.705.069 6.785.01-.993.049-2.385.026 3.695.05 3.885.022-11.64.003-3.133.07 13.305.032-7.168.003-.205.046 3.216.082-1.389.036 3.752.007-.192.02 1.514.02 1.121.029-10.283.036 5.304.108-1.677-.069 4.798.072-4.106.03 3.125.089-.336.091-3.222-.049 5.446.076-4.223.023 1.826.075-2.484.01.569.01-.569.016 1.013.007-.188.023 1.451.032-2.316.06 1.837.085-1.853-.04 2.581.073-2.03.006.705.089-.85.016.283.003-.246.04 1.215.059-.827.115 1.17.105-1.138.016.157.062-.234.053 1.385.095-1.765-.085 1.859.105-1.541.026 1.513-.007-1.668.096 1.181.101-1.469-.062 2.03.072-1.489.046 1.549-.016-1.725.082 1.193.006-1.322.056 1.593.05-.71.052.713.006-1.652.036 1.056.053-1.23.016 1.894.04-.857.085 1.208-.003-2.056.006.754.102-1.365-.095 2.759.098-1.126.003 1.272.004-2.647.101.895.073.72-.046-.933.085.689.098 1.303.007-2.602.003 2.39.007-2.45.101 1.532.046-1.336.017 1.849.046-1.698.105 2.292-.086-2.77.089.535.013-.494-.007 2.873.07-1.625.045.632-.006-1.237.069.886.062-.928.016 1.256.033-.692.102.903-.007-1.203.01.333.043-.432-.017 1.14.076-.419.003.514.053-1.048.052.862.046-1.451-.007 1.638.076-1.355.098 1.432-.088-1.724.101.81.023-.747.056 1.584.026-.79.109.732-.06-1.428.063.785.046-.888-.017 1.974.08-.756.091-1.275.007 2.394.006-2.03.026 2.068-.016-2.387.102 1.206.052-1.09.017 1.548.046-1.193.062.67.016-1.265.03.618.003-.253.085.81.017-.631.108.777-.089-.889.092.4.013-.385.076 1.02.016-.222.082.69-.062-1.017.085.046.095-.622-.068.909.091-.57.102 1.442-.026-1.773.046 1.253.003-.033.01.863.026 1.325.02-5.074.013-.92.023 4.32.075-3.608.102 4.316.02-1.914.003-.002.007.068.042 4.778.007-5.184.006-4.972.073 8.872.036-8.244.003-.03.102 7.173.023-2.281.003-.019.065-7.957-.016 13.429.05-2.956.006-2.76.052-5.252-.023 11.726.08-4.54.032-5.864.075 6.268.03 4.06.02-16.678.039 10.1.072-6.481-.056 14.912.089-3.9.036-7.629.072 6.026.112 6.12-.056-19.257.059 15.86.05-12.372.071 3.286.105 10.102.013-5.262.01-12.079.056 20.815.053-18.271.006 3.388.016 9.701.099-5.115.072 5.41.01-9.608.006-6.055.053 19.314.052-14.499.004-1.476.016 11.551.072-2.714.004.088.01-2.218.036-1.55.022 7.22.027-1.107.082 3.612-.056-17.772.069 9.054.059 3.175-.02-7.357.07 3.607.006.545.114 5.097-.052-5.416.06 4.716.029-10.33.052 13.505.06-10.412.038 7.194.076-3.656.092 3.784-.076-3.952.086.836.01-6.228.055 10.37.05-7.318.006.162.04 5.647.078-4.284.003-.228.046 3.13.043 2.528.026-10.217.046 9.721.03.77.01-3.637.013-3.605.072 5.36.026-3.308.128 4.223-.105-5.803.108 5.653.03-9.047.072 9.718.003.586.046-8.092.05 6.27.072-4.442.039 3.672.079-8.058-.013 9.595.052-2.094.04 3.275.039-8.085.006 1.076.043 4.639.052-4.793.027 1.164.003-.127.026 2.645.01-.035.079 2.934-.05-3.39.053 1.668.01-9.437.075 12.464.027-5.536.01-3.516.055 5.754.046-2.616.013-1.413.076 4.236.01-.633.095-7.285-.043 9.592.066-3.035.065-4.54-.036 8.858.079-6.412.01 3.79.078-4.816.023 2.056.122 4.51.003-1.564.03-7.239.075 8.867.01-6.822.003-.65.076 5.776.016-2.209.108 1.596-.055-4.138.062 3.124.095-5.022-.016 7.686.02-4.352.088 5.075-.072-10.565.092 5.454.068 2.992-.036-5.262.08 3.702.032-3.169.052 4.13.023-.75.01-.66.046 2.001.02 2.545.006-7.256.004-2.96.01 10.925.095-6.096.042-2.768.033 5.418.026-.283.05-4.093.062 3.662.098 3.518-.078-5.123.082 2.718.026-9.002-.01 14.02.095-8.76.062-3.296-.045 7.254.072-2.608.026 2.314.052-5.109.033 3.506.007-1.506.04 2.875.058-.188.033 2.906.01-8.859.056 5.957.091-4.967-.075 7.023.098-4.907.03 2.195.072-3.232.013 2.496.007-1.155.079 2.08.016-.172.023 1.643.056-4.472.016.68.023-.514.036 3.308.04-1.366.118-1.43-.053 1.476.06-.656.091.674-.079-1.112.109.794.02-.062.016.462.013-.159.006.469.072-1.233.023.087.05.612.098-.277.102-.259-.089.32.099-.092.065.17-.056-.247.102.126.108-.12-.091.168.098-.12.108.081-.092-.143.095.1.092-.175-.075.184.102-.102.095-.015-.066.088.079-.05.338-.01.003.02.056.012.04-.054.009.006h.082l-.075.044.098-.026.003.04.076-.075.03.019.294-.023.105.14-.095-.165.105.157.086-.146.006.19.017-.166.003.12.108-.07.099-.066-.092.089.095-.018.026.072-.007-.136.09.074.1-.047-.094.087.098-.025.046.095.036-.218.026.139.072-.163.027.273.006-.173.072.177.007-.25.033.11.049.12.026-.214.033.171.026-.216-.006.272.095-.224.108-.105.003.547.105-.742-.006.788.016-.68.043.683.016-.964.053.699.02.08-.004-.469.007.415.062-.502.036.635.013-.529.007.51.003-.531.102.499.065-.607.027.76.016-.714.085 1.013-.006-1.193.03.506.042-.486-.036.89.102-.306.032.228.05-.6.006.472.036-.699-.026.991.102-.418.082-.45.006.711.007-.373.013.496.026-.854.072.725.02.12.092-.86.056 1.346.026-1.85.026 1.477.105-1.237-.036 1.386.046-1.255.046 1.127-.016-1.472.082 1.048.068-.883-.016 1.536.06-1.448.045 1.189.066-.92.088.733-.049-.782.072.615.092-.964.007 1.523.006-.723.092.907-.016-1.337.036.85.065-1.03-.016 1.545.065-.754.092.407-.072-1.025.085.842.014-.636.042.682.056-.406.007.407.052-.736.02.166.049-.424.04.973.012-.427.089 1.484.036-.397.062-2.227.066.241.069-.075.111 2.987.017.951.006-4.484.004-1.89.01 5.868.091-1.241.023-.644.027-3.46.085 2.973.043-2.44.042 4.52.007-.639.023 1.856.052-8.824.02 3.659.092-1.242-.056 6.912.062-4.687.07 3.018-.057-6.689.096 3.464.032-1.957.043 6.442.013-.395.02.828.026-5.944.003-4.158.08 12.2.025-4.516.03-5.755.072 7.345.003.235.036-4.618.007-1.165.082 5.07.003.485.056-2.713.007-8.376.078 12.539.023-4.739.01-1.067.007 2.182.069 1.97-.053-8.064.089 4.3.042-1.822.128 6.186.01-10.558.056 11.189.052-6.157.03-2.146.05 6.666.002.837.053-6.515.049 4.338.115 2.862-.102-4.32.105 3.19.007-8.6.059 10.031.046-4.278.039-3.723.05 7.002.019-3.575.118 1.943-.079-4.565.082 4.078.095-5.933-.03 9.011.05-6.01.036 5.211-.023-7.769.099 3.457.016-2.565.046 6.12.043-2.751.072 2.216-.06-5.544.096 3.11.02-.481.01 1.792.049 3.366.013-9.895.026 3.956.007-2.818.023 9.222.082-7.114.006-1.089.053 5.831.036-3.278.075 2.712-.059-5.022.095 3.058.082 4.507-.062-5.284.069.072.006-4.63.056 9.728.046-3.367.046-4.033.046 4.66.006-.264.007.97.043-4.58.059 3.663.059-2.39.04 3.226.002-.045.01 1.346.01-.258.003.586.014-8.282.068 3.557.004-.048.026 4.048.043-5.734.042 3.24.082-2.709-.062 3.962.098-1.975.076-.713-.06 1.842.073-.253.052 2.993.014-7.845.016 2.248.02-1.478.062 6.118.026-4.2.01.773.007-1.205.003-.648.062 3.913.043-2.795.006-.525.066 2.455.03-.693.085 3.245-.053-3.796.072.457.007-3.699.098 6.652.046-4.8.086 1.537.046-1.323.042 2.249.02.069.04-.819.003-.09.032 1.819.027 1.797.042-6.204.013 1.59.007-1.043.059 5.265.046-4.427.003-.05.023 1.118.04 1.294.059-2.576.177 4.431.023-2.599.04-1.842.061 3.548.004-.12.049-2.776.082.849.04-1.23.058 1.73.128 1.61-.085-2.257.105 1.149.04-2.016.072 1.919.167-1.29.03.28.137.512.013-.04.148-.29.03.118.029.186.059-.365.013.036.003-.012.04.229.02-.061.006.027.033-.167.069.134.059-.101.055.103.227.042.14.005.007-.016.128-.037.22.054.19.008.132.012.262-.003.345.04.662-.006h.109l-.096.02.102-.008.121-.023.004.01.098.012-.069-.028.079.002.207.077.006-.11.023-.068-.01.223.096-.163.068.118-.01-.14.053.05.046.123.01-.208.052.07.066-.146-.007.272.053-.165.01.15.065-.215.03.047.052-.244-.01.63.06-.326.088.433-.052-1.314.055 1.05.046-1.156-.01 1.765.076-.806.006.593.007-1.171.095.798.007-.404.049.43.056-.228.006.17.013-.274.086.066.039-.333.026.638.036-.106.004.11.046-.582.052.189.053-.117.03.253.015-.061.105.292-.072-.478.076.296.003-.227.075.367.033-.305.06-.1-.007.183.01-.099.121.897.01-.122.003-.056.066.75.065 1.28-.049-1.491.053.773.026-3.22-.01 3.834.095-1.71.01.788.056-2.464.006.394.027-.393.036 1.29.036-.7.101.859-.088-1.827.125 1.612.003-.112.052 1.3.027 1.337.01-6.287.072 4.554.026.941.01-2.664.016.517.04-1.42.039 2.275.033-1.445.036-1.185.032 1.95.017-.072.121 2.108-.065-2.72.069 2.563.065-7.534-.01 8.19.06-2.937.026 2.914.036-4.625.046 1.646.098-1.796-.052 3.586.075-2.58.115 1.988-.013-2.112.016 1.995.099-3.762-.014 5.01.02-.332.089 1.438-.076-8.13.082 5.648.03-3.444.072 4.747.01-2.316.062-1.596-.05 2.753.083-.634.075-1.268.04 1.727.095 1.348-.053-2.069.056.942.03-4.028.075 5.872.007-2.36.03-2.192.075 3.468.003-.548.066-2.711.049 1.883.023.196.013-.72.026-.614.05 1.953.012-.307.096 1.029-.01-2.132.016.418.007-2.229.078 4.324.023-.899.05-2.308.108.358.069 1.092.059-.561.01-.244.055.813.033-.347.053 1.055.042-1.485.03-.428.042 1.554.023.138.023-.785.033-.703.056 1.265.016-.324.01.06.003-.075.043-1.235.072.926.099.587-.076-1.244.099 1.027.105-1.909-.046 3.526.072-2.918.043 2.742.068-2.68.04 1.792.01.663.059-2.95.02.435.14 1.68-.045-1.732.052 1.578.053-1.103.032 1.684.013 1.489.043-5.835.056 4.416.075-2.863-.055 3.983.088-1.429.026.994.056-3.892.003-.044.014.956.032 1.958.053-2.383.04 2.023.084-.76-.059 1.2.07-.35.035 2.686.043-5.749.007-1.495.072 5.794.023-2.186.069 2.22-.05-3.982.089 1.8.03-1.436.045 2.434.04-1.433.013-.694.062 2.02.017-.475.032-.866.043 1.276.043 2.413.042-5.064.007-1.392.043 5.38.055-3.19.073 2.992-.056-3.323.098.97.01-.58.053 1.78.049-1.393.026-.417.04 1.288.137 2.041-.079-3.098.099 2.966.006.175.036-2.208.027-.11.013.657.03.307.058-.9.014.236.023.27.052-.48.03-.115.059.427.02-.257.035-.19.092.12.23.32-.217-.347.23.313.138-.087.131-.093.013.035.007.006.049-.115.033-.074.059.117.023-.055.324.248-.301-.27.308.26.141-.036.295-.128.207.1.702-.005.033.051.036-.094.043.056.075-.04.023.092.003.011.066-.093.023.003.095-.037-.026.13.042-.09.01.047.033-.277.138-.986.02.25.111.849.023-.29.003-.016.03.357.003.014.046-.298.108-.608-.072.71.089-.26.118.924.016-.008.043-.37.033.559.016-.114.098 1.436.017-1.2.02-1.849.032 2.702.063-2.048.046 1.677.072-1.37.016.267.023-.426.017-.195.039.647.043-.194.078-.041.07 1.898.035-2.21.013-2.108.033 5.05.066-3.348.02 2.841.098-1.11.118-1.69.01.089.026.804.026-.942.063.32.003-.01.01.24.138 1.313-.066-1.463.085.992.007.047.01-.434.02-1.32.026 2.244.068-1.575.023 1.613.092-.876.115-1.28-.043 1.638.053-1.453.023.844.085-.848.007-.154.04 1.703.042-1.083.082 1.27.042-.952.135.624-.115-.736.121.64.099-1.068-.026 1.292.046-.628.032.291.04-.94.026.275.023.172.013-.363.013-.348.023.707.07-.165.14.858.01.126.05-.702.009-.608.03 1.277.068-.49.017.63.04-1.13.052.651.023-.84.039.864.06-.7.015.075.037-.178.013-.06.03.262.055-.135.112.997.049-.022.036-.784.013-.31.033 1.2.059-.822.02 1.03.039-1.311.056.59.02-.727.035.945.063-.729.016.315.036-.538.056.197.013-.02.108.388.076.888.023-1.14.016-.365.04 1.257.049-.816.023.689.033-.752.059.309.02-.35.035.613.063-.423.013.061.033-.415.036.156.013-.12.075.297.089.588-.046-.719.069.167.01-.036.006.106.023.491.043-.84.046.546.095-.542-.033.917.053-.513.02.435.039-.848.052.498.115-.515.02.075.088.428-.04-.53.07.171.01-.086.039.757.046-.468.023.466.033-.813.055.403.089-.352-.036.745.056-.405.023.417.036-.879.049.58.095-.542-.043.6.063-.33.082.167-.03-.511.053.306.013-.038.033.358.049-.176.098.417-.036-.48.053.12.016-.345.03.798.059-.384.02.307.035-.584.053.356.102-.404-.043.469.059-.282.016.286.043-.554.046.248.02-.231.039.321.05-.091.078.175-.036-.268.069.106.128.247.016-.085.089-.173-.036.304.052-.13.013.108.043-.35.046.169.026-.17.033.214.056-.131.016.074.036-.168.056.074.105-.023-.063.052.07-.039.154.087 27.677.016.066-.237-.007.408.053-.193.03.184-.007-.265.082.142.075-.36-.03.687.073-.55.095.453-.046-.676.05.24.052-.701-.007 1.718.06-.842.108.577-.086-.882.089.391.098-.658-.088.844.102-.549.068.84-.006-1.459.049 1.312.062-1.118.007 1.537.04-.274.098-1.252-.072 1.513.111-1.163.102-.632.006 1.526.046-1.817.007 2.148.056-1.811.082 2.61.03-1.31.055-1.12-.046 1.598.098-.793.004.713.069-1.413.036.825.055-.969.046 1.46.007-.704.075 2.215-.046-3.017.082 2.47.056-2.687.056.99.01.822.052-1.638.046 1.02.082-1.476.023 2.101.007-2.021.115 4.582-.01-5.207.013 3.575.006-4.56.105 2.231.01 1.674.013-2.1.092 1.124.053-1.217.04 1.694.012-.321.092 2.058-.01-2.801.017.169.003-1.646.01 3.51.095-1.898.023-.583-.01 2.04.082-1.316.04.54.035-.638.033.073.004-.05.036 1.073.016-.272.033.181.046-1.022.016.08.007-.41.095.646.006-.117.02.15-.01-.193.06.013.104-.219-.092.256.102-.148.02-.056.056.196.01-.028.032.05.053-.163.013.071.065-.163.046.094.07.176.045-.103.026-.087.082.11.105.068-.095-.075.125.048.072-.081.046.053.076.105.049-.037.046-.03-.033.039.095.012.089.034.032-.04.122.032.138.01.344.053.06.01.048-.033.112.013.01.028.098-.01-.082-.024.089.002.098.03-.023.046.026-.034.086.043.02-.078.006.047.115-.076.016.066.115.082-.095-.18.098.15.063-.104.016.133.04-.078.003.045.065-.352.026.097.007-.126.062.364.033-.001.45-.076.003.044.042.16.046-.244.023.11.043-.28.04.382.035-.243.01.268.01-.495.092.306.02-.248.026.406.069-.263.01.08.065.241-.026-.606.075.511.119-.562-.017.63.02-.572.108 1.194.017-.544.006.372.043.674.046-2.465.01-.622.036 2.248.055-1.265.161 4.875.013-12.782.06 15.203.058-8.915.023 4.117.089-2.02.02-1.374.062 4.641.01-.921.003-.014.003.178.02 2.3.01-14.252.003-1.871.06 17.958.035-10.114.03 6.475.147-2.046.089-13.556-.046 16.476.069-4.48.006 7.426.06-13.56.045 8.34.03-4.433.03 5.185.055-2.217.06 3.738-.037-4.267.076 2.613.01-16.407.026 22.266.075-9.084.02 8.895.04-11.308.052 3.77.01-2.691.075 6.396.007.676.042-7.758.007-12.508.03 26.228.072-11.892.02 10.666.025-13.063.066 4.508.013-4.458.076 8.065.013-1.154.02-.363.013.872.01-20.337.029 29.419.072-14.093.02 11.178.03-14.584.062 5.755.01-4.946.078 8.185.013-.763.007.783.033-13.366.003-7.083.03 28.97.072-14.077.02 9.987.026-12.956.065 4.13.007-2.514.088 7.6.053-15.696.003-5.198.03 29.315.072-15.8.016 10.794.03-14.153.069 4.82.016-1.865.066 5.078.052 3.987.013-16.61.004-3.17.029 25.201.072-16.164.017 12.248.03-13.215.068 5.542.016-4.235.073 7.5.032-2.313.01 3.821.053 5.277-.026-22.29.075 15.237.01-8.267.033 11.644.068-9.472.115 6.829-.065-7.1.072 6.507.069-14.99.023 18.224.003 2.53.072-13.87.03 6.884.059-6.37.026 7.249.036-4.405.118 5.62.003-.46.01-12.873.027 16.15.078-10.523.017 8.09.065-8.266.04 4.298.01-2.767.068 5.414.03-1.912.052-8.155-.03 10.928.05-2.979.02 3.593.056-9.243.036 7.39.055-5.404.073 2.647.101 3.77-.088-4.721.105 3.323.023-8.13.026 11.219.065-8.877.004-.316.026 7.15.036-2.625.02-2.155.01-1.77.026 4.926.065-1.749.073 3.587.023-4.87.02-4.85.026 11.45.068-9.455.03 7.284.118-4.23.007-.965.082 4.301.039.795-.03-1.618.033 1.338.027-8.411.022 10.585.076-8.539.026 6.53.115-2.288.023-1.638.075 3.3.066-6.502-.05 7.336.122-3.16.07 1.697-.044-4.33.08 1.94.022-.876.056 1.872.026-.448.082 3.07.023-3.34.02-3.351.04 5.855.048-1.902.027-2.51.026 3.563.062-2.377.013-.381.128 2.825.007.38.02 1.315.036-6.114.042 4.096.072-3.166.04 2.902.02.15.006-.847.053-1.75.026 2.434.023-.404.088 2.867-.055-3.104.072.578.02-3.609.039 4.203.059-2.502.072 2.281-.056-3.398.095 1.275.02-.736.06 2.588.019-.18.098-3.756-.033 6.413.05-3.94.023 2.158.072-3.948.013 1.821.026 1.865.06-2.64.002-.228.076 2.32.006-.306.02-.112.03 1.463.03 1.509.016-4.359.016-2.998.023 6.097.046-.898.003.706.026-4.383.076 3.492.036-2.598.075 2.242.007-.277.066 2.143.006 1.14.046-8.499.043 6.294.055-4.987-.026 5.348.079-.101.059-3.57.085 2.108.089 3.917.006-3.51.02-7.13.026 11.503.073-10.079.036 7.978.111-3.31.01-.544.079 2.755.006-.211.007.668.04 1.726.016-8.514.003.072.01-2.868.026 13.723.043-5.733.055 3.247-.03-9.457.08 6.228.075-2.538-.03 3.651.063-1.038.102 3.22-.089-4.245.095 3.183.026-9.895.023 13.845.072-12.692.027 10.605.101-4.03.023-2.959.06 4.066.026-.968.052 3.243.02-9.985.01-1.05.016 10.284.01 3.87.072-13.214.03 10.476.02-8.023.104 2.086.122 5.229.003-.231.043-10.336.023 13.856.078-10.042.02 8.289.023-9.242.072 6.342.02-5.96.072 6.198.026-2.843.108 6.992-.022-13.99.032 10.938.063-10.26.026 12.57.036-7.874.056 4.608.023-5.97.046 2.207.003-.198.023 3.668.036-.826.043 2.682.006-2.756.023-8.356.026 12.485.07-12.218.029 12.18.111-7.233.01-.576.06 3.699.081 2.203-.056-2.8.063.081.023-6.903.023 10.262.072-9.728.003-.18.017 5.008.013 4.375.072-6.355.026 3.313.026-1.866.07 2.036.068 2.384.013-4.337.017-3.13.069 5.922.006.784.033-5.948.066 4.382.003.068.023-1.79.01-.675.072 1.865.02-.334.088 1.528.033-1.07.062-1.521.066.602.069.723.046-.504.032-.281.112 1.19.016.049.053-.247.062-1.358.082.781.036.55.056-.646.023-.479.069.796.059.838.056-.607.072-1.28.05.662.045.78.06-.762.019-.345.069.725.059.85.055-.722.073-1.12.052.596.046.704.056-.706.02-.172.065.516.066.84.049-.733.046-.951.098.527.027.645.072-.826.006.037.007-.057.056.345.085 1.244.026-1.093.06-1.393-.03 1.634.092-.724.068.848-.026-.973.07.339.025-.597.066.762.013-.09.075 2.054.017.705.03-4.066.006.538.043-.738.03 2.774.006.076.003-.07.072-2.212.056.144.052-.5.02 1.006.125 3.924.02-.959.026-5.463.075 5.544.013-1.76.023-3.243.063 4.143.039-4.12.016.142.135 3.77.003-.033.082-6.112-.046 8.594.095-4.058.027 3.042.032-6.372.056 4.083.013 1.15.027-3.265.02-1.81.078 3.937.003.04.013-1.087.01-1.196.076 5.452.003.099.016-2.4.023-7.131.076 8.73.013-2.2.023-5.307.042 5.795.06-4.29.01-.796.029 4.151.04-.319.12 3.581-.078-5.545.082 4.916.023-8.303.088 7.443.027-6.041.118.836.075 4.385.066-.369.033 1.192.026-3.489.003.173.01-1.694.072 4.066.003.062.02-1.542.02-1.262.072 1.965.013-.07.03-1.509.078 1.601.102.461-.069-1.208.082 1.139.076-1.946.046 1.172.006.086.026-.514.01.113.105-.344-.042.584.059-.484.154.566-.125-.604.128.588.092-.498.02-.051.055.199.066.145.052-.069.037-.232.072.268.108.12.023-.054.069-.284.062.09.072.254.046-.237.043-.053.062.093.072.16.05-.105.085-.132.04.09.062.144.069-.114.072-.06.042.079.06.012.052-.054.604.017.108-.03.003-.002.135.014.262.001.814-.026.12.102-.058-.165.062.124.033-.2.04.216.045-.172.01-.144.04.337.062-.191.023.147-.013-.25.062.108.108-.258-.069.324.076-.254.177 1.17.007-.196.095-1.584.033.873.039.218-.03-.495.05.05.003-.192.065 2.475.023 1.586.053-7.839.003-1.575.04 9.116.065-6.345.01-2.282.03 7.05.042-1.467.115 5.483-.072-7.919.079 6.862.036-16.289.042 17.547.033-1.881.003 1.001.036-14.066.056 8.428.125 6.782-.072-10.48.088 9.542.04-18.037.026 18.77.046-1.804.003 1.322.033-14.341.062 7.92.125 6.608-.079-10.865.085 10.05.04-17.569.04 18.64.032-5.562.072 5.301-.033-14.592.07 8.192.11 6.27-.071-11.21.101 8.748.03-16.271.026 19.5.085-14.514.03 13.292.088-6.532.004-.849.056 7.93.036-3.42.003.007.026-14.281.03 18.27.062-10.152.052 9.157-.036-13.7.102 8.084.01-4.834.072 10.558.02-.29.042-13.442.004-3.735.04 19.004.065-13.182.006-2.743.033 14.532.06-7.213.088 6.812-.072-9.67.114 8.418.03-15.903.036 18.867.056-9.962.01-2.386.006-3.106.033 15.268.059-8.017.112 6.62-.096-10.036.102 8.365.043-16.276.04 20.186.032-6.466.069 5.318-.03-15.466.066 6.545.138 7.838-.099-9.675.102 8.698.046-16.75.036 19.552.033-8.525.072 7.293-.03-14.51.066 6.42.135 6.921-.096-8.81.099 8.773.049-16.351.036 18.266.036-4.959.07 3.01-.03-12.507.062 6.248.059-1.967.03 5.3.052 3.049.033-10.148.01 2.1.006-7.4.04 16.805.062-7.65.01-5.28.032 9.938.06-1.52.003.09.01-2.506.02-3.337.035 7.579.017-.643.026 1.137-.01-2.079.036.817.027-11.744.036 14.477.049-3.927.003.127.017-2.497.023-3.931.029 7.798.053-1.94.032-3.79.033 4.897.06 1.08.019-2.357.023-5.624.036 7.18.05-1.24.002.337.04-4.176.056 2.719.036.325-.023-.637.046.036.006-.296.072 1.49.02-.464.03.779.022-1.387.073-1.155.026 2.175.006.397.037-2.466.052.966.072-.697-.036 1.661.062-.376.066.23-.03-1.036.056.443.076-.532-.04 1.199.066-.578.003.02.023-.516.013-.196.036.903.043-.53.02.521.085-.654.007-.066.03.541.045-.094.016.232.027-.368.059.053.056-.221.059.161.082.26.072-.157.02-.162.081.217.007.028.089-.108.006.016.112.047-.056-.078.069.072.197-.065.023.052.137.047.138-.063 1.765-.104.003-.016.066.187.036-.14.033.068.098.09-.049-.189.062.159.037-.191.085.094.003.003.007-.077.01-.145.065.335.033-.195.105.25.016-.25.004-.021.042.247.02-.006.105.093-.066-.44.07.316.025-.415.063.637.016-.196.105 1.247.01-.816.05-2.586-.037 2.654.112-.847.078 1.623-.059-2.307.092 1.087.079-7.4-.013 12.404.04-5.363.035 4.444.033-7.886.04 2.747.055-.19-.036 3.375.069-2.204.121 4.88-.105-7.193.109 6.221.013-14.273.059 16.24.042-10.452.03 8.212.098-4.468.01-1.763.076 5.735.033 1.923.01-10.89.006-7.19.059 19.142.043-9.788.03 8.012.032-8.366.056 3.596.02-1.769.042 3.585.013-.272.053 2.93.01-13.16.003-4.467.059 19.937.042-11.04.033 8.847.082-4.911.01.41.007-1.324.006-1.156.082 5.699.033.75.007-5.45.01-11.503.055 20.094.046-9.766.033 7.138.033-7.263.056 2.443.02-1.785.019 3.905.023-.31.05 2.208-.04-2.535.065 1.64.013-12.972.06 16.722.045-9.354.004-.005.033 5.84.095-4.178.016 2.123.036 1.345.026-2.293.05 1.284.016.44.02-2.146.023.552.006-.51.063 1.085.039-.419.02-.512.006-.141.036 1.178.063-.813.065-.242.063 1.192.13-1.357.014.387.131.677-.115-.891.122.723.036-.68.052 1.031.02-.51.01.528.082-.998.016.668.05-1.202.062 1.114.046-.955.016 1.34.056-.653.092 1.988-.073-2.091.082.08.04-2.16.056 3.873.013-1.352.065-2.237.036 2.572.102.889-.043-3.092.056 2.565.07 1.293.002-1.183.01-5.973.079 7.62.023-3.14.026-1.997.05 3.766.016-.34.105 1.582-.05-5.25.056 4.57.089-6.283.013 7.706.023-4.64.043 4.01.046-4.49.02.277h.003l.049 2.708.052-2.9.004-.244.052 3.617.013-.415.062 1.78.004-.794.01-7.227.01 8.249.091-1.903.043-2.903.046 2.95.023-.793.042-2.26.043 2.04.082 2.644.007-3.698.006-4.139.01 8.205.092-1.884.046-3.522.065 2.547.007.083.007-.163.03-2.234.071 3.21.056 1.463.007-4.514.003-2.862.098 7.973.007-2.744.043-3.344-.033 4.085.098-.704.003.173.053-2.57.016.698.007-.85.065 4.217.014-.429.02.81.012-7.09.017 2.894.003-2.872.079 7.682.026-4.211.095 2.39-.072-4.324.082 2.363.066-2.239.036 3.893.062 1.086.013-4.348.023-2.088.076 7.133.075-5.906.043 4.1.003.445.05-3.93.052 3.154.095-4.67-.05 5.597.056-1.15.092 1.62-.078-5.594.095 2.998.075 2.149-.043-4.336.08 2.765.039-3.048.052 4.721.016-1.172.07 1.688.01-5.126.002-.68.08 6.338.012-3.091.102 1.913-.043-3.888.053 2.26.065-2.376-.045 2.71.085-.023.098 2.995-.049-3.776.056.41.033-4.532.052 8.462.023-2.886.148-3.438-.056 3.98.059-3.8.125 4.343.01-.24.016 1.696.016-6.37.033-3.338.053 10.965.023-5.675.016-1.771.05 4.066.006.732.055-5.809.04 3.715.052-1.792.053 3.135.111 3.367-.052-13.963.056 12.842.039-7.812-.016 8.941.091-4.812.073 1.39-.043-4.762.066 2.276.01-1.43.062 3.874.033-1.695.049 5.29.01-13.207.003-3.28.056 18.58.049-13.182.003-.667.046 11.974.033-5.594.052 1.774.036-5.016.023 3.826.125 5.28-.098-6.366.101 3.524.01-14.632.053 21.408.052-15.081.003-1.893.017 12.765.082-5.7.043-3.649-.014 7.33.063-2.577.023-3.426.098 9.057.013-19.123.053 23.179.059-17.544.013 11.424.105-3.488.006 2.215.014-5.95.088 3.36.003-.028.004.784.075 5.96-.056-8.403.06 3.94.006-13.956.056 20.976.049-10.153.007-6.108.03 10.661.071-2.266.053-4.09.059 1.908.095 6.162-.05-6.82.056 1.198.007-9.952.056 17.706.049-9.122.007-4.419.03 9.195.071-3.466.007-1.696.02 2.253.085-.89.098 5.566-.049-5.876.052 4.108.01-9.563.056 10.302.046-3.958.01-4.357.052 5.946.05-2.809.01-.852.081 2.235.01-.184.076.966-.056-2.097.095 1.21.003-.014.004.394.003.115.056-1.633.033.903.049-.588.069.722.082-.732.042.178.082.31.043-.102.082-.169-.016.388.032-.147.007.135.085-.498.003.003.053.367.075-.09.096-.18.039.159.003.031.066-.205.03.063.134.113-.056-.201.069.171.04-.069.055.158.01-.052.233.054-.22-.123.243.07.144.007.115.026.01-.01.144-.02.282.028.246-.007.309-.024.269.004 4.376.052.007.082.045-.326.053.25.111-.676-.01.844.014-.837.042.979.07-.453.006-.623.072.766.033-.416.026.133.016-.593.037.167.052-.314.046.64.22 3.165-.207-3.204.21 3.114.135-2.664.085-.752-.072 1.057.095-.56.131 3.137.01-.201.03-3.366-.01 4.07.026-3.076.006-2.633.073 4.952.032-2.838.007.116.003-.22.03-2.797.049 2.886.036-1.312.036-.79.026 1.125.128 2.726-.072-2.866.076 2.46.042-6.197-.01 8.064.076-3.505.01 3.362.072-4.975.03 2.614.003.279.072-2.784.013.88.01-.465.049 2.345.036-1.07.082 3.703.007-3.138.026-6.675-.01 10.433.095-4.172.013 2.511.033-4.116.056 1.108.065-.959-.049 2.432.095-1.555.122 1.723.003-.049.089-3.688-.056 4.348.085-2.714.03 2.218-.01-2.236.092.515.062.555.053-.284.006-.244.036.845.066-.517.056.384-.04-.425.095.11.004-.05.055.28.046-.134.079.059-.036-.222.066.128.032-.087.06.123.02-.046.097.084-.082-.137.105.107.037-.052.055.135.013-.037.086.09-.066-.102.095.042.095-.034-.082.047.102-.029.138.044.006-.036.102-.018-.088.045.095-.02.105.017-.089-.041.098.03.155.011.128.008 1.876-.105.082-.017.036.022.148-.011-.125.036.128-.03.053.048.062-.026.079-.032.032.048.02.038.066-.112.026.073.354-.127.01.091.122.517.029-.037.089-.705.078.38.194 1.279-.167-1.393.183.796.046-1.618.06 1.737.006-.233.079-1.487-.063 1.93.18-1.617.138 2.216.014-.884.045-2.585.056 3.131.007-.336.079-2.015.042 1.472.01.136.036-1.463.02-.79.059 1.894.013-.109.036-.434.04.559.049 1.97.036-3.625.023-1.434.033 3.145.022 2.182.05-4.177.006-.801.056 4.04.036-1.155.046-2.786.056 3.05.013-.7.043-.999.045 2.037.033 1.273.033-4.067.043-.82.046 3.703.01 1.706.055-5.384.04 2.74.016 1.981.05-3.284.006-.64.079 2.188.016-.533.036-1.377.056 2.283.026-.247.04 1.158.003.187.026-3.28.03.286.006-1 .062 4.443.033-1.77.05-2.203.026 2.947.03-.097.055-2.563.095 1.688.125-.637.036.15.052.666.056-.682.05.285.016-.351.039-.203.05.57.045.221.056-.557.016.182.02-.253.06.012.012-.233.053.299.042-.013.21.383-.193-.397.226.323.125-.197.006.034.046.218.046-.33.013.08.109-.297-.092.375.101-.159.007-.093.043-.407.03.549.032-.08.111.591-.052-.779.059.414.033.675.088-.969.027-.087.026.596.03-.075.01.254.048-.664.056.531.004.048.049-.444.033.036.085-.626-.072.64.118-.358.17 1.39-.134-1.408.154.951.04-1.005.058 1.393.007.047.04-.799.032-.37.05 1.03.003-.007.036-.827.026-.397.052.832.02-.158.06-1.023.107.336.076 1.012.085-.317.05-.706.049.925.01.135.062-.851.03.505.022.141.046-.756.02-.033.02.281.039.285.052-.726.01-.119.063.414.02-.005.026-.165.055.354.132.623.013-.22.049-.775.05.958.002.035.05-.596.013-.17.072.523.026-.37.036-.213.053.337.013-.036.065-.496.122.128.177.722.036-.373.03-.304.059.683.003-.009.033-.359.023-.206.059.5.013-.082.167-.557.01-.01.03.21.02.107.052-.426.006-.032.046.405.069-.17.053.265.144.293-.095-.38.128.274.052-.414.053.453.01.02.026-.27.026-.217.056.369.049-.358.016-.066.046.257.017.03.046-.184.016-.025.046.143.013.023.06-.1.012-.002.046.095.026.042.056-.107.033.052.134.027.01-.013 3.11-.008h0" clip-path="url(#p16bd7ea225)" style="fill:none;stroke:#2ca02c;stroke-width:.5;stroke-linecap:square"/><path id="patch_3" d="M38.05 142.76V8.64" style="fill:none;stroke:#000;stroke-width:.8;stroke-linejoin:miter;stroke-linecap:square"/><path id="patch_4" d="M221.76 142.76V8.64" style="fill:none;stroke:#000;stroke-width:.8;stroke-linejoin:miter;stroke-linecap:square"/><path id="patch_5" d="M38.05 142.76h183.71" style="fill:none;stroke:#000;stroke-width:.8;stroke-linejoin:miter;stroke-linecap:square"/><path id="patch_6" d="M38.05 8.64h183.71" style="fill:none;stroke:#000;stroke-width:.8;stroke-linejoin:miter;stroke-linecap:square"/><g id="legend_1"><path id="line2d_15" d="M164.938 15.919h16" style="fill:none;stroke:#ff7f0e;stroke-linecap:square"/><g id="text_14" transform="matrix(.08 0 0 -.08 187.338 18.719)"><defs><path id="DejaVuSans-46" d="M628 4666h2681v-532H1259V2759h1850v-531H1259V0H628z" transform="scale(.01563)"/><path id="DejaVuSans-70" d="M1159 525v-1856H581v4831h578v-531q182 312 458 463 277 152 661 152 638 0 1036-506 399-506 399-1331T3314 415Q2916-91 2278-91q-384 0-661 152-276 152-458 464m1957 1222q0 634-261 995t-717 361q-457 0-718-361t-261-995 261-995 718-361q456 0 717 361t261 995" transform="scale(.01563)"/><path id="DejaVuSans-64" d="M2906 2969v1894h575V0h-575v525q-181-312-458-464-276-152-664-152-634 0-1033 506-398 507-398 1332t398 1331q399 506 1033 506 388 0 664-152 277-151 458-463M947 1747q0-634 261-995t717-361 718 361q263 361 263 995t-263 995q-262 361-718 361t-717-361-261-995" transform="scale(.01563)"/></defs><use xlink:href="#DejaVuSans-46"/><use xlink:href="#DejaVuSans-30" x="57.52"/><use xlink:href="#DejaVuSans-70" x="152.93"/><use xlink:href="#DejaVuSans-72" x="216.406"/><use xlink:href="#DejaVuSans-65" x="255.27"/><use xlink:href="#DejaVuSans-64" x="316.793"/></g><path id="line2d_16" d="M164.938 27.661h16" style="fill:none;stroke:#1f77b4;stroke-linecap:square"/><g id="text_15" transform="matrix(.08 0 0 -.08 187.338 30.461)"><defs><path id="DejaVuSans-6f" d="M1959 3097q-462 0-731-361t-269-989 267-989q268-361 733-361 460 0 728 362 269 363 269 988 0 622-269 986-268 364-728 364m0 487q750 0 1178-488 429-487 429-1349 0-859-429-1349Q2709-91 1959-91q-753 0-1180 489-426 490-426 1349 0 862 426 1349 427 488 1180 488" transform="scale(.01563)"/><path id="DejaVuSans-67" d="M2906 1791q0 625-258 968-257 344-723 344-462 0-720-344-258-343-258-968 0-622 258-966t720-344q466 0 723 344 258 344 258 966m575-1357q0-893-397-1329-396-436-1215-436-303 0-572 45t-522 139v559q253-137 500-202 247-66 503-66 566 0 847 295t281 892v285q-178-310-456-463T1784 0Q1141 0 747 490 353 981 353 1791q0 812 394 1302 394 491 1037 491 388 0 666-153t456-462v531h575z" transform="scale(.01563)"/></defs><use xlink:href="#DejaVuSans-46"/><use xlink:href="#DejaVuSans-30" x="57.52"/><use xlink:href="#DejaVuSans-6f" x="152.93"/><use xlink:href="#DejaVuSans-72" x="214.111"/><use xlink:href="#DejaVuSans-69" x="255.225"/><use xlink:href="#DejaVuSans-67" x="283.008"/></g></g></g></g><defs><clipPath id="p16bd7ea225"><path d="M38.05 8.64h183.71v134.12H38.05z"/></clipPath></defs></svg>