<svg xmlns="http://www.w3.org/2000/svg" xmlns:xlink="http://www.w3.org/1999/xlink" width="307.2" height="230.4" viewBox="0 0 230.4 172.8"><defs><style>*{stroke-linejoin:round;stroke-linecap:butt}</style></defs><g id="figure_1"><path id="patch_1" d="M0 172.8h230.4V0H0z" style="fill:#fff"/><g id="axes_1"><path id="patch_2" d="M38.05 142.76h183.71V8.64H38.05z" style="fill:#fff"/><g id="matplotlib.axis_1"><g id="xtick_1"><g id="line2d_1"><defs><path id="m500b274f28" d="M0 0v3.5" style="stroke:#000;stroke-width:.8"/></defs><use xlink:href="#m500b274f28" x="98.74" y="142.76" style="stroke:#000;stroke-width:.8"/></g><g id="text_1" transform="matrix(.08 0 0 -.08 96.195 155.839)"><defs><path id="DejaVuSans-31" d="M794 531h1031v3560L703 3866v575l1116 225h631V531h1031V0H794z" transform="scale(.01563)"/></defs><use xlink:href="#DejaVuSans-31"/></g></g><g id="xtick_2"><use xlink:href="#m500b274f28" id="line2d_2" x="164.351" y="142.76" style="stroke:#000;stroke-width:.8"/><g id="text_2" transform="matrix(.08 0 0 -.08 161.806 155.839)"><defs><path id="DejaVuSans-32" d="M1228 531h2203V0H469v531q359 372 979 998 621 627 780 809 303 340 423 576 121 236 121 464 0 372-261 606-261 235-680 235-297 0-627-103-329-103-704-313v638q381 153 712 231 332 78 607 78 725 0 1156-363 431-362 431-968 0-288-108-546-107-257-392-607-78-91-497-524-418-433-1181-1211" transform="scale(.01563)"/></defs><use xlink:href="#DejaVuSans-32"/></g></g><g id="text_3" transform="matrix(.08 0 0 -.08 114.392 163.581)"><defs><path id="DejaVuSans-74" d="M1172 4494v-994h1184v-447H1172V1153q0-428 117-550t477-122h590V0h-590q-666 0-919 248-253 249-253 905v1900H172v447h422v994z" transform="scale(.01563)"/><path id="DejaVuSans-69" d="M603 3500h575V0H603zm0 1363h575v-729H603z" transform="scale(.01563)"/><path id="DejaVuSans-6d" d="M3328 2828q216 388 516 572t706 184q547 0 844-383 297-382 297-1088V0h-578v2094q0 503-179 746-178 244-543 244-447 0-707-297-259-296-259-809V0h-578v2094q0 506-178 748t-550 242q-441 0-701-298-259-298-259-808V0H581v3500h578v-544q197 322 472 475t653 153q382 0 649-194 267-193 395-562" transform="scale(.01563)"/><path id="DejaVuSans-65" d="M3597 1894v-281H953q38-594 358-905t892-311q331 0 642 81t618 244V178Q3153 47 2828-22t-659-69q-838 0-1327 487-489 488-489 1320 0 859 464 1363 464 505 1252 505 706 0 1117-455 411-454 411-1235m-575 169q-6 471-264 752-258 282-683 282-481 0-770-272t-333-766z" transform="scale(.01563)"/><path id="DejaVuSans-28" d="M1984 4856q-418-718-622-1422-203-703-203-1425 0-721 205-1429t620-1424h-500Q1016-109 783 600T550 2009q0 697 231 1403 232 707 703 1444z" transform="scale(.01563)"/><path id="DejaVuSans-73" d="M2834 3397v-544q-243 125-506 187-262 63-544 63-428 0-642-131t-214-394q0-200 153-314t616-217l197-44q612-131 870-370t258-667q0-488-386-773Q2250-91 1575-91q-281 0-586 55T347 128v594q319-166 628-249 309-82 613-82 406 0 624 139 219 139 219 392 0 234-158 359-157 125-692 241l-200 47q-534 112-772 345-237 233-237 639 0 494 350 762 350 269 994 269 318 0 599-47 282-46 519-140" transform="scale(.01563)"/><path id="DejaVuSans-29" d="M513 4856h500q468-737 701-1444 233-706 233-1403 0-700-233-1409T1013-844H513q415 716 620 1424t205 1429q0 722-205 1425-205 704-620 1422" transform="scale(.01563)"/></defs><use xlink:href="#DejaVuSans-74"/><use xlink:href="#DejaVuSans-69" x="39.209"/><use xlink:href="#DejaVuSans-6d" x="66.992"/><use xlink:href="#DejaVuSans-65" x="164.404"/><use xlink:href="#DejaVuSans-28" x="257.715"/><use xlink:href="#DejaVuSans-73" x="296.729"/><use xlink:href="#DejaVuSans-29" x="348.828"/></g></g><g id="matplotlib.axis_2"><g id="ytick_1"><g id="line2d_3"><defs><path id="m524ac9deda" d="M0 0h-3.5" style="stroke:#000;stroke-width:.8"/></defs><use xlink:href="#m524ac9deda" x="38.05" y="137.731" style="stroke:#000;stroke-width:.8"/></g><g id="text_4" transform="matrix(.08 0 0 -.08 25.96 140.77)"><defs><path id="DejaVuSans-30" d="M2034 4250q-487 0-733-480-245-479-245-1442 0-959 245-1439 246-480 733-480 491 0 736 480 246 480 246 1439 0 963-246 1442-245 480-736 480m0 500q785 0 1199-621 414-620 414-1801 0-1178-414-1799Q2819-91 2034-91q-784 0-1198 620-414 621-414 1799 0 1181 414 1801 414 621 1198 621" transform="scale(.01563)"/></defs><use xlink:href="#DejaVuSans-30"/></g></g><g id="ytick_2"><use xlink:href="#m524ac9deda" id="line2d_4" x="38.05" y="120.966" style="stroke:#000;stroke-width:.8"/><g id="text_5" transform="matrix(.08 0 0 -.08 20.87 124.005)"><defs><path id="DejaVuSans-35" d="M691 4666h2478v-532H1269V2991q137 47 274 70 138 23 276 23 781 0 1237-428 457-428 457-1159 0-753-469-1171Q2575-91 1722-91q-294 0-599 50Q819 9 494 109v635q281-153 581-228t634-75q541 0 856 284 316 284 316 772 0 487-316 771-315 285-856 285-253 0-505-56-251-56-513-175z" transform="scale(.01563)"/></defs><use xlink:href="#DejaVuSans-35"/><use xlink:href="#DejaVuSans-30" x="63.623"/></g></g><g id="ytick_3"><use xlink:href="#m524ac9deda" id="line2d_5" x="38.05" y="104.201" style="stroke:#000;stroke-width:.8"/><g id="text_6" transform="matrix(.08 0 0 -.08 15.78 107.24)"><use xlink:href="#DejaVuSans-31"/><use xlink:href="#DejaVuSans-30" x="63.623"/><use xlink:href="#DejaVuSans-30" x="127.246"/></g></g><g id="ytick_4"><use xlink:href="#m524ac9deda" id="line2d_6" x="38.05" y="87.436" style="stroke:#000;stroke-width:.8"/><g id="text_7" transform="matrix(.08 0 0 -.08 15.78 90.475)"><use xlink:href="#DejaVuSans-31"/><use xlink:href="#DejaVuSans-35" x="63.623"/><use xlink:href="#DejaVuSans-30" x="127.246"/></g></g><g id="ytick_5"><use xlink:href="#m524ac9deda" id="line2d_7" x="38.05" y="70.671" style="stroke:#000;stroke-width:.8"/><g id="text_8" transform="matrix(.08 0 0 -.08 15.78 73.71)"><use xlink:href="#DejaVuSans-32"/><use xlink:href="#DejaVuSans-30" x="63.623"/><use xlink:href="#DejaVuSans-30" x="127.246"/></g></g><g id="ytick_6"><use xlink:href="#m524ac9deda" id="line2d_8" x="38.05" y="53.906" style="stroke:#000;stroke-width:.8"/><g id="text_9" transform="matrix(.08 0 0 -.08 15.78 56.945)"><use xlink:href="#DejaVuSans-32"/><use xlink:href="#DejaVuSans-35" x="63.623"/><use xlink:href="#DejaVuSans-30" x="127.246"/></g></g><g id="ytick_7"><use xlink:href="#m524ac9deda" id="line2d_9" x="38.05" y="37.141" style="stroke:#000;stroke-width:.8"/><g id="text_10" transform="matrix(.08 0 0 -.08 15.78 40.18)"><defs><path id="DejaVuSans-33" d="M2597 2516q453-97 707-404 255-306 255-756 0-690-475-1069Q2609-91 1734-91q-293 0-604 58T488 141v609q262-153 574-231 313-78 654-78 593 0 904 234t311 681q0 413-289 645-289 233-804 233h-544v519h569q465 0 712 186t247 536q0 359-255 551-254 193-729 193-260 0-557-57-297-56-653-174v562q360 100 674 150t592 50q719 0 1137-327 419-326 419-882 0-388-222-655t-631-370" transform="scale(.01563)"/></defs><use xlink:href="#DejaVuSans-33"/><use xlink:href="#DejaVuSans-30" x="63.623"/><use xlink:href="#DejaVuSans-30" x="127.246"/></g></g><g id="ytick_8"><use xlink:href="#m524ac9deda" id="line2d_10" x="38.05" y="20.375" style="stroke:#000;stroke-width:.8"/><g id="text_11" transform="matrix(.08 0 0 -.08 15.78 23.415)"><use xlink:href="#DejaVuSans-33"/><use xlink:href="#DejaVuSans-35" x="63.623"/><use xlink:href="#DejaVuSans-30" x="127.246"/></g></g><g id="text_12" transform="matrix(0 -.08 -.08 0 14.116 105.261)"><defs><path id="DejaVuSans-66" d="M2375 4863v-479h-550q-309 0-430-125-120-125-120-450v-309h947v-447h-947V0H697v3053H147v447h550v244q0 584 272 851 272 268 862 268z" transform="scale(.01563)"/><path id="DejaVuSans-72" d="M2631 2963q-97 56-211 82-114 27-251 27-488 0-749-317t-261-911V0H581v3500h578v-544q182 319 472 473 291 155 707 155 59 0 131-8 72-7 159-23z" transform="scale(.01563)"/><path id="DejaVuSans-71" d="M947 1747q0-634 261-995t717-361 718 361q263 361 263 995t-263 995q-262 361-718 361t-717-361-261-995M2906 525q-181-312-458-464-276-152-664-152-634 0-1033 506-398 507-398 1332t398 1331q399 506 1033 506 388 0 664-152 277-151 458-463v531h575v-4831h-575z" transform="scale(.01563)"/><path id="DejaVuSans-75" d="M544 1381v2119h575V1403q0-497 193-746 194-248 582-248 465 0 735 297 271 297 271 810v1984h575V0h-575v538q-209-319-486-474-276-155-642-155-603 0-916 375-312 375-312 1097m1447 2203" transform="scale(.01563)"/><path id="DejaVuSans-6e" d="M3513 2113V0h-575v2094q0 497-194 743-194 247-581 247-466 0-735-297-269-296-269-809V0H581v3500h578v-544q207 316 486 472 280 156 646 156 603 0 912-373 310-373 310-1098" transform="scale(.01563)"/><path id="DejaVuSans-63" d="M3122 3366v-538q-244 135-489 202t-495 67q-560 0-870-355-309-354-309-995t309-996q310-354 870-354 250 0 495 67t489 202V134Q2881 22 2623-34q-257-57-548-57-791 0-1257 497-465 497-465 1341 0 856 470 1346 471 491 1290 491 265 0 518-55 253-54 491-163" transform="scale(.01563)"/><path id="DejaVuSans-79" d="M2059-325q-243-625-475-815-231-191-618-191H506v481h338q237 0 368 113 132 112 291 531l103 262L191 3500h609L1894 763l1094 2737h609z" transform="scale(.01563)"/><path id="DejaVuSans-48" d="M628 4666h631V2753h2294v1913h631V0h-631v2222H1259V0H628z" transform="scale(.01563)"/><path id="DejaVuSans-7a" d="M353 3500h2731v-525L922 459h2162V0H275v525l2163 2516H353z" transform="scale(.01563)"/></defs><use xlink:href="#DejaVuSans-66"/><use xlink:href="#DejaVuSans-72" x="35.205"/><use xlink:href="#DejaVuSans-65" x="74.068"/><use xlink:href="#DejaVuSans-71" x="135.592"/><use xlink:href="#DejaVuSans-75" x="199.068"/><use xlink:href="#DejaVuSans-65" x="262.447"/><use xlink:href="#DejaVuSans-6e" x="323.971"/><use xlink:href="#DejaVuSans-63" x="387.35"/><use xlink:href="#DejaVuSans-79" x="442.33"/><use xlink:href="#DejaVuSans-28" x="533.297"/><use xlink:href="#DejaVuSans-48" x="572.311"/><use xlink:href="#DejaVuSans-7a" x="647.506"/><use xlink:href="#DejaVuSans-29" x="699.996"/></g></g><path id="line2d_11" d="M33.13 137.73h12.465l.328-19.205.328-2.384.328-4.321.985-19.299.328-2.947.328-.476.328.185.328.592.328 2.29.656 8.58.328 1.808.328-.951.656-3.62.328.018 1.312 4.63.328.058.329-.425.656-1.182.984-.922.328-.626.984-2.76.328-.287.328.306 1.312 3.335.328 1.23.985 5.444.328.929.328.306.656.03.328 29.665h.984l.328-20.19.328-.5.656-2.23.328-1.323.328-1.808 1.313-10.05.656.9.328-.734.328-1.775.328-2.597 1.312-14.808.328-.756.328.41 1.312 3.115.656 3.282.328 1.804.329 1.093.328.19.656-.767.328-.05.984.861.656.118.328.217.656 1.073.984 2.09.656 2.188.657 2.146.656.76.656.967.984 2.032.328.44.328.156.328-.25.656-.909.328-.007.328.409.656 1.47 2.297 6.435.656 2.64.328.583.328-.149.656-1.3.328-.265.656.18.328-.722.328-1.665.985-6.972.328-1.285.328-.253.328.49.984 2.302.328 1.137.984 4.69.328.689.328.18.984-.235.328-.236.328-.588.985-3.26.328-.418.328.124.984 1.423.656.794 1.312 1.183.656.192.656.102.328.205.329.404.656 1.34.656 1.88.656 1.816.328.206.328-.36.656-1.272.328-.206.656.162.328.383.328 1.145.656 3.088.328.577.329-.006.328 17.875h5.248l.328-34.743.657-2.474.328-1.005.328-2.639.656-7.665.328.487.656 4.484.328-.411.984-6.633.328.03.656 1.946.656 1.176.657 1.851.328.38.328-.498.984-3.168L124 83.675l.328-.736.328-.429.328-.165.328.058.328.24.328.412.656 1.458 1.313 4.353 1.312 4.328 1.64 4.336.656 3.143.656 4.102.985 7.825.328 1.356.328.584.328.01.656-.462.328.1.328 23.543h2.296l.328-45.498.328-1 .328-.178.657.79.328.165.984.167.656.568.984 1.36 2.953 4.582.328 1.102.656 3.775.328 1.924.328 1.066.328-.107.984-3.558.328-.167.328 35.009h3.937l.328-36.599.328.223.328.497.328-.05.656-1.685.328.096.328 1.4.656 3.416.328.946.656 1.012.657.89.328.73.656 2.756.328 1.432.328.907.328.326.328.122.328.483.656 2.43.328 1.223.328 19.445h.656l.328-37.843.328-3.123.328-.883.329 1.126 1.312 7.976.328.636 1.312 1.147.328.227.328.022.656-.183.984.156 1.64-.727.657-.443.328-.09.656.24 1.64 1.139.984 1.217 1.313.767.656.666.328.1.656-.182.656-.18 2.624-.234 1.969-.677.656.264.984.52.984.345.328.219.328.366.984 1.63.328.083 1.64-1 1.969-.253.984.179.656.15.328.193.656.825.657.805 1.64 1.414.984 1.34.656 1.707.328 20.359h1.968l.329-17.84.328-.648.328-1.243.656-3.364.328-1.143.328-.574.328-.174.656.092.984.32.656-.196 1.969-1.082.328.104.656.626.656.872.328.265.328.082.328-.078.656-.508.328.052.656 1.098.328-.115.656-2.201.328-.968.329-.376.328.499.656 2.33.656 1.135.656 1.386.328.67.328.374 1.312.683.656-.167.328.392.657 1.8.328 17.897h11.81" clip-path="url(#p27dc5b54a5)" style="fill:none;stroke:#1f77b4;stroke-linecap:square"/><path id="line2d_12" d="M33.13 137.73h7.872l.329-17.721 1.312-1.456.656-.25.656-.673.328.035.328.555.656 1.65.328.264.328-.267.328-.58.328-.996.328-2.713.329-6.905.656-24.929.328-6.194.328.489.984 12.368.328 1.32.328-.518.328-1.537.328-.917.328.833.656 4.401.328 1.339.328.43.328.066.328.261.985 1.427.984-.262.984.335.328.284.656 1.208 1.312 3.014.328.166.328.407.328 1.342.329 2 .328.912.328-1.496.984-9.509.328.452.656 4.6.328 1.322.328.028.328-1.218.656-3.48.328 40.114h3.28l.329-54.048.656-3.794.328.057.984 3.225.656 1.797 1.313 4.97.984.346.328.246.984-.314.328.25.656 1.075 2.296 4.504.657 1.541.328.293.328-.376.656-1.543.328-.02 1.312 2.554.656.76.656.373.656.395.328.41.328.62.657 2.051.656 2.17.328.433.984-.122.328-.347.328-2.462.328-4.444.328-2.477.328 1.194.656 6.346.328 1.73.328-.005.656-2.4.985-4.504.328-.445.328.112 1.312 1.25.328.742.328 1.233 1.312 6.826.328.829.328.478.328.05.328-.441.657-1.943.656-1.753.328-.104.328.743.656 2.372.656 1.576.656 1.017 2.625 3.214.328.263.328.04.656-.249.656.126.328.066.328-.063.328-.25.656-.958.328-.17.328.393.656 1.702.656 2.971.329 19.889h8.529l.328-39.47.656-3.87.328-.95.328-.17.328.547.656 2.095.656 2.39.328.41.329-.305.328-.744.656-2.447.984-4.711.656-2.02.656-.923 1.64-1.45.328.017.328.22.657.885 2.296 3.626.656 1.016.328.82.984 3.275.328-.32.984-5.032.329-.159.328-.656.656-2.067.328-.253.328.697.656 3.132.328.69.656.246.328.623.328 1.09.328.477.984-2.083.328.07.657.822.656 1.052.328.322.328.156.328-.002.656-.38.656-.364.656.02 1.64.669.985-.182.328.243.328.738.984 3.495.328-.398.984-2.833.656-.866.656-.487.328.062.328.247.328.395.328.723.329 1.453.984 5.67.328 1.401.328 33.348h.328l.328-31.613.984-6 .328-1.165.328-.11.656 1.605.656 1.342.985 1.03.328.723.328 1.23 1.64 8.179.328.901.328.069.656-1.085.328-.067.328.752.328 1.077.328.157.328-2.46.985-17.135.328.79.984 7.812.328 1.058.656.988.328.282.328.052.328-.301.656-1.03.328-.215.328.063.656.354.328-.07.985-.634.656.08.984.511 1.968 1.278.328.104.328-.06.656-.522.329-.016.328.239.984 1.37.656.762.656.566.328.146.328-.153.328-.512.984-2.164.328-.32.656-.064.985.034.656.275 1.64 1.029.984.433 1.312.877.656 1.107.328.23.329-.351.984-2.02.328-.244.328.106.656.907.984 1.417.656.595 1.312.892.656 1.092.657 1.1.656.303 2.296.883.328 23.51h1.968l.329-28.78.328.176.328.015.328-.26.328-.85.984-4.93.328.507.984 6.568.328.864.328.325.984.45.656.547.657.905.656.98.328.27.328.013.984-.742.328.133.328.532.328.8.328 22.478h.328l.328-20.739.656-1.845.328-.395.328-.052.329.24.656.925.328.176.656-.337.328.414.656 2.597.328 19.016h15.09" clip-path="url(#p27dc5b54a5)" style="fill:none;stroke:#ff7f0e;stroke-linecap:square"/><path id="line2d_13" d="m38.046 120.958.16-.006.512.014 12.643.103.086.092.04-.07.144-.348.078.05.259.652.061-.285.078-.469.07.176.094-.11.074-.21.045.174.176.932.058-.475.065-.694.07.3.086.45.037-.346.066-.5.061.28.197 1.074.02-.148.115-1.103.058.315.061.61.05-.568.061-.495.066.138.004-.01.012.196.045.64.094-.077.005-.002.016.085.033.59.057-.927.029-.821.082.696.053.162.029-.493.094.114.045-1.08.07 1.556.053-.207.12 2.786.032-6.697.008-1.355.045 10.086.046-6.863.086 3.474.032-2.644.009-.187.04 1.357.046-.685.135 1.502-.086-1.777.098 1.152.004-.23.058 2.843.004-.121.037 1.132.024-6.218.021-5.022.041 15.356.05-10.854.077 4.49.041-2.845.025 1.808.033-1.818.057.476.012-.462.066 2.305.135 2.754-.094-4.444.106 3.813.037-11.132.03 13.9.007 2.185.037-13.125.05 5.441.065-2.945.033 4.178.02-2.766.017-.632.2 3.99.042 1.884.024-2.405.029-8.546.037 13.055.05-8.562.015 3.855.107-.5.029-3.084.094 1.269.152 4.542.016-1.894.02-7.473.042 10.113.053-5.46.012.402.033 1.832.037-3.45.045 2.033.017-1.363.028 1.71.07-.809.025 1.541.13 3.001-.09-3.161.099 2.123.033-9.08.037 9.97.061-6.054.037 3.686.127-1.873.058-1.028.037 2.193.098.771-.033-1.816.045 1.154.004-.063.013 1.064.033 1.575.036-7.089.009-.541.032 6.312.041-2.286.021-2.602.029 3.716.065-2.388.004-.165.058 1.572.033-.832.11 2.347-.065-2.94.086 2.1.016-.43.082 2.433.008.647.058-5.49.004-.208.037 3.54.004.05.025-.996.114-1.419.004.063.242 1.794.005-.143.07 1.05.028.477.061-1.812.005.231.049-1.013.07.63.004.078.049-.732.033.429.004-.27.032.822.066-.612.078.96.041-.121.05-.745.007 1.184.05-.474.106 1.227.017-.327.061-1.336.033 1.365.02-1.28.05.743.045-1.628.008 1.38.033-1.837.045 2.455.033-1.153.024-1.55.082 2.992.074-3.555-.008 5.037.045-3.25.029-.793-.02 2.76.024-1.863.004 2.384.008-3.643.099 1.714.061 2.738-.008-4.464.05 2.962.093 3.205.02-8.85.046 7.766.066-4.338.008 1.93.008-2.634.082 4.03-.057-6.022.082 5.755.02-5.475-.008 6.761.094-6.149.004 6.629.009-8.834.102 8.312.025.242.09-7.751.008 9.127.033-10.534.074 5.341.074-4.01.008 7.655.02-6.453.09 7.082-.02-8.39.045 5.83.094-6.285-.02 9.699.037-5.514.004 3.508.098-4.86.008 2.202.058-6.689-.02 11.052.073-6.13.066 5.799-.02-9.66.036 8.35.074-10.28-.02 15.066.057-4.913.09-10.704-.008 14.718.025-8.171.045 6.598-.009-11.597.07 2.262.066 9.896-.008-13.497.053 8.207.033-8.686.008 13.773.07-5.43.073-5.068.009 8.458.028-3.433.103-5.644-.05 8.588.054-.024.008-10.347.008 12.875.095-5.412.016 4.478.008-10.327.086 6.921.082-4.088-.008 4.376.037-1.77.078 3.264-.008-5.861.012.505.004-.154.004 5.185.062-5.434.045 5.071.09-8.303.008 12.914.009-12.723.09 10.42.02-5.867.078 6.786-.008-12.109.033 7.147.102-5.871-.09 9.589.094-5.724.004 5.653.009-7.844.094 4.98.004-5.702.062 7.35.045-6.655.037 6.687.008-6.789.065 5.282.058-5.565.008 7.419.045-6.62.062 7.803.008-9.976.045 6.002.07-4.336-.009 6.835.046-1.982.004-.04.073-6.152.009 10.146.033-7.088.057 6.226-.033-10.228.086 5.652.004.036.004-.264.087-3.928.008 8.26.008-6.46.082 6.319-.008-8.272.037 5.593.028-4.973.009 8.194.073-3.37.103 5.973-.058-13.107.062 6.915.004-7.521.008 13.383.095-3.282.106-7.307-.008 8.255.012-3.584.086 4.276.009-9.182.012 3.002.057 4.2.03-6.608.032 8.986.008-10.702.074 7.776.024-6.879-.008 9.02.095-5.185.02 6.306.074-11.134.012 4.267.004-3.007.009 7.469.094-4.968.106 5.706-.008-8.404.013 7.65.008-7.5.057 8.296.045-6.368.004 6.878.009-8.859.098 2.726.02-2.553-.008 7.345.078-2.233.037 2.265.008-6.723.062 4.298.106-5.528-.008 8.729.013-4.267.004 4.28.008-7.377.098 3.075.041-1.54.008 3.048.058-2.014.074 4.036-.009-6.468.05 4.295.09-4.975.008 7.783.012-4.661.03 3.726.007-6.412.074 3.977.058-4.404.008 7.46.049-4.86.016-.168-.008 2.478.012-1.68.033 5.128.008-9.049.07 4.987.02 2.21-.008-4.19.013.809.004-2.947.008 7.687.094-4.92.095 4.156-.008-6.693.024 5.556.045-5.308-.008 5.62.078-3.493.066 3.201.008-4.797.028 3.304.009-2.841.008 3.907.094-2.278.05 1.632.032-2.066.033 1.9.094-2.675-.012 3.146.033-2.175.11 1.74-.008-2.27.013 1.97.04-2.214.046 3.657.024-2.333.013 1.352.102-.29.066-2.49-.045 2.715.102-2.23.103 2.104-.009-2.605.05 2.384.061 2.806.05-3.765.008.756.032-2.709.07 2.446.029.56.033-1.805.008.215.024-.928.062 2.288.008-.218.058 3.387.049-3.983.04-2.692.062 2.854.029 1.273.041-2.981.012.042.029-1.347.057 3.422.013-.841.094 4.306.025-2.345.037-5.212.082 4.06.082-4.318-.066 5.49.11-2.921.144 6.552.054-10.26.07 6.166.024 1.312.033-3.234.037-3.556.049 4.226.123 4.003-.054-4.478.058 4.09.012 2.448.029-4.565.033-8.288.07 9.58.008-2.649.106-4.992-.09 10.265.098-6.217.054 3.531.04-4.81.017 3.36.115-8.734-.062 13.686.066-12.212.094 11.776.025-2.023.037-9.393.078 6.667.057-2.743-.04 5.272.085-1.562.009-.188.016 2.196.016-.218.004.631.062-6.62.008.255.09 3.703.037-2.013.008-.82.066 1.76.033-.214.061-1.303.05 1.011.004-.012.004.252.037.74.065-1.242.004.104.009.255.09-.73.029-.398.04.871.017-.113.115.56-.095-.637.099.453.008-.273.07.59.024-.04.054.19-.017-.312.025.014.082-.78-.07.939.127-.739.041-.3.09.954.005.002.004-.068.053-.566.05.768.028.182.041-.463.037.34.11-1.64.009 1.034.004.504.04-1.353.066.919.037-.445-.012.81.086-.463.086 1.904-.07-1.964.115.59.066-1.96.041 2.251.016.11.021-.82.033-2.051.07 2.454.102.775-.037-2.521.045 1.911.004-.127.025 2.313.04 1.448.026-3.436.061-4.068.045 4.398.02 1.969.05-4.286.016-1.861.062 5.066.004.257.053-3.006.012-1.775.066 5.253.016-1.174.066 2.166.016-4.782.058-2.666.02 5.415.03-1.358.016 3.426.065-7.152.004-.388.054 4.56.012 1.486.07-4.077.028 2.657.103 2.783-.09-3.193.106 1.377.066-6.308.016 6.502.033-2.389.016 5.072.062-7.768.008-.956.062 6.07.032-3.284.054-.332.02 2.348.008-.346.037 2.312.062 1.545.012-5.623.008-4.605.066 8.899.033-3.1.086-3.61-.07 8.235.09-5.203.045 2.987.041-4.757.017.788.008-.466.045 3.883.004-.073.025-.361.016 1.557.054 1.231.016-1.867.012-10.676.07 13.023.033-5.985.119 4.609-.082-7.56.09 5.484.057-5.067.054 4.049.14 6.39.003-1.5.017-14.083.102 7.012.115 5.872-.07-8.884.078 7.618.066-6.537.049 3.644.148 7.051-.12-7.157.124 5.457.016-15.282.082 15.948.02-9.594.115 7.992-.07-10.287.079 8.543.028-5.342.086 2.872.009.158.032-1 .009-.786.07 5.146.036 1.32.017-9.858.008-3.415.082 13.802.016-8.228.05-1.799.024 6.624.045.969-.016-2.895.033.76.024-2.91.074 3.556.025-1.742.135 4.393-.098-5.674.127 2.79.012-5.67.086 8.02.016-4.593.013.94.028-.936.013-1.698.04 4.475.046-.687.094-1.973.095.835.008-.02.037.715.057 1.877.041-1.976.012.109.03-2.08.097 1.5.09.817.034-.65.086-1.28.037.793.012-.228.033.756.102 1.98.029-.714.057-2.943.082 1.275.062 1.296.061-.943.107-1.152.04.513.153 2.28.049-1.17.065-1.99.062 1.243.057 1.147.07-.769.074-1.208.066.519.172 1.871.04-.66.075-1.978.065 1.268.07.968.057-.609.082-1.353.058.608.164 1.151.053.121-.029-.19.041.053.078-1.689.062.92.053.77.066-.49.102-1.103.05.65.147.437.008-.005.095.54.024-.52.066-.871.053.586.045.703.062-.637.143-1.267.008.204.16 2.594.03 1.043.024-1.746.032-4.056.054 5.035.024-1.159.037-2.876.05 4.42.008-.376.135-3.31.016.676.136 1.515-.041-2.12.045 1.937.012-.542.074 2.155.033 1.13.024-3.612.02-4.806.034 8.845.061-5.243.012-1.273.037 5.823.046-2.809.032-.632.013.837.016 1.121.037-3.26.053 1.645.033-.895.082.867.02-.03.132 3.79.004.368.024-5.631.013-5.123.037 11.973.061-6.747.008-1.176.041 6.72.054-4.983.049 1.91.04-2.708.034 2.528.024-1.91.095-1.5-.041 3.967.053-2.853.143 3.698.005.045.028-.637.013.142.036-5.949.041 8.35.037-5.917.136 2.578.012.912.041-3.016.05 1.702.114-2.707-.037 3.444.053-2.276.107 2.437.016-1.212.017-1.726.033 3.774.049-1.135.029 1.863.02-4.496.017-3.744.036 10.725.05-5.407.016 2.424.037-3.707.061 2.23.009.016.004-.256.033-2.103.036 2.439.05-1.83.106 1.366-.04-1.923.06 1.628.034-1.354.04 1.63.042-.705.008.129.115 1.262-.062-1.428.078.826.016-.853.054 1.7.012-.256.008.372.033-2.197.053.62.013-.857.037 1.983.057-1.219.02.645.05-1.19.045.87.074.1-.037-1.266.057 1.154.029-1.09.033 1.673.049-.662.094.732-.037-1.272.05.614.016-.736.033 1.375.053-.44.078.628-.037-1.158.061.546.082-.654-.024 1.35.05-.611.024.38.028-1.078.087-.302-.046 1.458.058-.898.09.738-.037-1.638.045.551.025-.49.033 1.229.053-.786.078-.32-.033.965.045-.366.041-.366.074.942.012-1.12.115.367.058.891-.033-1.07.086.416.074-.318-.037 1.061.061-.435.013.497.032-1.17.05.427.09-1.045-.033 2.24.05-1.06.016.795.032-1.33.025.287.008-.206.012.44.082-.242.054.924.033-1.534.032 1.347.107-1.293.016.549.09 1.153-.036-1.7.061.874.008-1.008.033 1.34.07-.727.061-.155-.04.954.045-.679.053.345-.008-.674.061.181.004.002.074.675-.057-.797.086.016.004-.177.016.817.078-.344.074.414-.033-1.211.062.581.016-.41.025.786.098.478-.045-.998.057.64.095-.709-.029 1.062.053-.898.03 1.374.032-1.882.053 1.058.037-.718.037.949.033-.563.053.675-.04-.98.098.305.102.67-.029-1.2.037.665.062.049.053-.943.025 1.454.032-1.604.058 1.182.012-.882.037 1.2.058-.604.057.937.008-1.276.045.506.066-.416.016 1.133.02-.344.013-.38.053 1.211.013-.286.004.317.074-1.59.02.357.115-1.058-.029 1.446.045-1.145.099 1.26-.033-1.51.05.527.147 1.514-.095-1.758.103.684.025-.856.028 2.074.037-.937.029 2.115.05-4.67.036 4.057.119-3.06.012.578.017 1 .028-1.632.066.696.053-.44.029.953.025-.517.176 4.549.008-1.025.025-7.266.098 3.437.025 2.041.033-2.434.053.428.024 1.456.033-2.3.058 1.095.008-.419.078 1.622.024-1.467.185 5.475.008-1.918.02-7.99.095 4.953.07-.872-.041 2.421.061-1.021.053.556.03-1.669.007.13.009.048.012-.558.012-.414.033 2.654.061-2.217.033 2.196.09-1.048.005-.019.008.445.102 3.016.008-1.752.021-6.508.033 6.857.061-2.607.004-.204.07 1.389.029-.805.02.746.074-1.177.017-.594.053 1.603.024-.412.037-.879.03 1.376.003.084.02-.513.07.143.013-.223.061.973.02.774.058-2.27.012-.503.066 1.946.016-.392.095-.822-.07.9.098-.416.041.637.05-1.057.02-.411.062.963.008.085.07-.559.012-.035.037.18.053.158.037-.193.029.115.037.112.065.481.045-.485.037-.215.058.338.004-.01.057-.137.058.117.036.227.058-.29.152-.291.315.509.082-.109.09-.062.05.066.065.033.05-.08.221-.248.193.134.172.141.016-.013.152-.02.004.004.008.008.062-.097.238-.152.045.078.131.081.135.12.009-.01.14-.108.007.037.045.037.033-.121.144-.168-.074.229.082-.134.086-.069.033.12.016-.035.066.15.098.326-.061-.367.094.181.033-.297.082.18.057.105.045-.136.156-.505-.119.524.185-.29.258 1.272-.23-1.364.234 1.299.062-1.706.065 1.343.004.02.017-.458.045-.387.041.458.02-.027.025.147.033-.36.107-.641.028.022.09 1.172-.049-1.548.086.602.013-.279.037 1.177.004-.027.11 1.875-.053-2.574.066 1.427.024-4.091.07 5.451.033-4.266.061 3.535.066-2.06.029 1.474.04-1.897.103-.713-.049 1.939.061-1.492.111 1.414-.037-1.747.045 1.386.041-.547.054.955.098 1.473-.057-2.162.07.755.024-3.91.07 5.193.033-3.947.061 3.46.07-.66.016.136.017-.469.127-3.26-.058 3.702.07-2.71.02 3.74.054-4.037.049 3.21.016-2.324.099.69.078 2.38.045-1.548.004.041.012-.85.013-1.478.032 3.746.07-2.883.033 2.551.11-.806.115-1.322-.032 1.387.04-1.112.095-1.357-.025 2.499.05-1.47.098 1.797-.033-2.92.05 1.954.008-.537.065 1.495.033-1.201.025 1.7.077-2.517.005-.126.024 2.593.008.06.004-.556.046-1.585.037 2.076.032-1.803.074 1.579.029-1.756.008.156.066 1 .028-1.43.025.896.074-1.72-.033 2.247.078-1.383.004-.026.008.61.062 1.055-.025-2.067.074 1.166.008-.432.05 1.413.04-.651.111.987-.033-2.264.037 2.195.053-1.905.07.84.004.012.008-.291.013-.466.037 1.624.065-1.33.029.966.05-1.108.032.422.061-1.394-.032 1.943.086-.972.065.805-.02-1.198.074.858.123.788-.111-1.097.123.803.033-1.443.033 1.802.049-1.337.012-.016.025 1.214.008.137.057-1.661.033 1.98.058-2.064.049 1.044.123-1.154-.053 1.954.057-1.954.008-.53.025 2.545.004-.103.004.69.05-2.868.052 1.437.017-1.323.061 1.676.037-.963.103 1.023.012-.221.057-1.013.025 1.178.033-.68.008.01.103-.389-.062 1.135.066-.833.028.797.05-1.215.04.921.05-.801.05.863.003.049.033-.827.061.674.017-.242.11-.276-.032.502.037-.448.074.536.02-.672.008.071.103-.154-.05.629.054-.48.029.533.098-.088.061-.237.066.189.098.111-.049-.26.054.174.028-.21.05.228.036-.133.103.084-.066-.19.078.124.107-.208-.033.273.045-.217.115.21-.037-.278.041.269.008.02.029-.186.107-.07-.05.267.058-.24.127.211.012-.058.107-.092-.033.153.045-.147.127.106.029-.083.11-.029-.044.061.053-.056.119.043.016-.016.127-.036.009.012.123.077.012-.036.11-.022-.032.054.04-.048.202.05.13-.024.026.033 1.197-.04.189.003.455.012.106-.002-.094.014.098-.005.169.029.004-.014.057-.036-.02.048.073-.02.25-.02.005-.03.139-.043-.127.089.131-.071.066.079-.008-.103.057.066.074-.006-.02-.074.024-.011.004-.044.05.155.044-.02.078.105-.065-.238.09.09.053-.112-.033.196.074-.13.053.194.054-.28.004.084.078.142.016-.289.008.282.074-.873.008 1.263.03-.39.09-.709-.009 1.436.025-.828.074.925-.021-1.364.062 1.11.004.032.004-.762.024.118.017-.704.008 2.215.074-1.623.102 2.18-.008-3.087.012.152.045-1.618-.008 5.895.037-4.926.004 5.361.008-6.816.099 3.773.029 1.173.008-3.02.065 1.59.087-2.498.008 5.042.02-3.864.041 2.988.008-3.633.062.757.098-2.198.009 5.736.053-5.513.057 3.15.045-2.362-.008 3.724.074-2.685.02 3.733.046-5.41.04.807.005-.141.049 6.299-.008-9.323.074 6.932.07-5.02-.009 5.947.057-3.187.103 2.387-.078-4.617.082 3.91.033-4.663.008 6.723.07-3.212.016 3.606.008-7.532.082 2.216.017-1.97-.008 6.358.094-2.609.05 1.89.007-5.01.037 1.436.074-1.194.008 4.864.008-3.88.05 4.649-.037-6.338.098 2.435.082 4.254-.008-7.392.037 4.868.065-4.363-.02 6.067.066-2.304.102 2.318-.078-5.803.082 3.48.004-4.498.02 7.637.083-5.414.045 4.767-.033-6.052.099 2.91.082 2.008-.009-4.008.033 2.35.062-3.788-.009 6.269.058-2.357.004 2.421.008-5.42.103 5.23.094-5.745-.008 6.097.024-4.202.074 3.006.008-3.343.03 2.515.081-3.593-.057 5.034.061-1.461.004 2.055.009-4.757.09 2.856.078-3.34.008 5.152.029-4.29.065 3.968-.008-4.738.045 1.453.004-2.189.008 5.983.099-4.371.086 4.15.008-5.996.012 3.67.041-3.335.009 5.547.061-3.505.017-1.995.02 5.172.062-2.448.053 3.479-.02-7.194.077 4.515.07 1.709-.033-5.063.05 2.006.02-3.485.008 8.376.074-3.99.02 3.83.009-7.678.082 4.919.016-3.47.008 4.718.086-2.507.037 1.581-.008-2.866.012 1.861.004-3.1.009 5.093.098-2.876.053-2.062-.008 4.56.062-1.884.028 1.607.009-4.216.065 4.07.095-6.357-.009 9.017.029-7.119.037 4.612.082-2.493.02-2.013-.008 5.373.099-3.284.061 5.858-.008-10.343.053 4.446.054-2.828-.009 6.501.013-3.902.024 5.021.009-8.147.077 4.955.066-5.524-.008 9.157.049-5.772.07 3.485.008-4.302.033 1.608.04-4.806-.012 10.143.054-4.047.02 2.667.013-7.831.077 6.391.066-4.907.008 6.042.041-2.666.004.045.087-3.154-.009 4.645.037-3.142.008 3.917.009-6.818.102 3.835.025-1.498-.008 2.696.012-.583.045 3.342.008-7.36.058 4.254.065-4.028.008 6.381.041-4.7.054 4.51.008-6.46.053 3.432.025-1.588.033 3.494.04-.819.005.714.008-2.787.09.85.094-1.76-.008 4.314.017-1.045.004.18.008-2.363.05.023.028-1.328.053 4.404.02-1.862.025-1.214-.004 1.384.008-.773.025 2.165.008-3.604.082 3.477.058-2.433.053.588.078 1.577.012-3.05.017 1.007.053-.488.012 1.903.033-.82.041.69.008-1.483.058.98.077-.988.013 1.933.012-1.168.008 1.079.009-1.503.094.72.102-.96-.032 1.275.04-.901.066-.657-.012 1.249.065-1.23.111 2.033-.086-2.05.09 1.293.004-.383.078 1.837.02-.688.075-3.207.086 2.182.004.19.074-1.595.016 1.056.012-.825.058 2.81.012-.738.066 2.034.008-5.195.029-6.321-.013 15.375.09-9.253.013 6.012.09-8.803.057 6.17.082-.502.009-1.64.065 5.939.02-.304.034 2.91.012-16.772.053 7.4.025-.626-.008 4.937.016-1.021.004 3.835.09-11.715.013 5.052.012-3.02.033 5.676.032-.658.128 5.315-.107-7.755.11 6.936.062-15.625-.04 17.666.102-7.812.028 7.797.07-13.405.008 4.2.004.15.005-2.69.004-2.692.07 8.954.028-1.087.033-3.715.065 7.529.009-.087.012 1.476.033-5.424.028-9.272.074 13.51.008-3.853.107-5.271-.09 10.125.098-6.74.045 3.224.07-1.91.008-1.456.066 4.301.033-2.238.012 1.392.029-3 .016.402.008-.56.05 1.923.053-1.85.094 1.865-.061-2.323.094 1.705.037-1.036.057 1.266.02-.506.112.874-.078-1.305.086.98.115-1.204-.099 1.292.11-.746.017-.578.099.387.078-.115.049.588.008-.094.033.773.029-.126.008.234.074-1.238.024.02.029-.25.033.122.102-.608-.065.99.094-.55.168 1.873.008.055.025-.83.057-1.745.058 1.308.004.193.082-1.305.016-.431.164 2.622.037 1.716.045-2.845.033-1.905.057 3.322.017-.695.102-3.09-.078 3.295.103-.833.04.68.034-2.325.04 2.04.042 4.2.049-5.078.029-3.988.061 7.977.008-.643.033-2.347.041-4.878.062 5.499.004-.143.037-2.154.012-.641.057 3.857.03 5.052.048-10.109.025-4.114.061 12.48.013-.665.004-.001.061-10.299.07 5.723.05-2.473.04 2.912.037 7.677.041-8.744.012-8.117.078 14.716.013-1.5.004.008.04-11.66.124 5.007.016-.61.045 4.99.029 6.375.05-16.138.007-2.203.074 15.544.004-.274.054-12.793.078 8.105.057-3.432.041 3.907.033 6.848.04-10.522.017-7.764.074 15.363.004-.378.053-12.111.099 5.4.11 9.812-.086-10.08.111 5.3.033-13.41.07 15.824.004-.023.053-12.687.082 7.64.041-2.984.058 4.037.036 6.517.041-11.185.013-7.63.074 17.2.012-1.761.045-11.2.135 4.464.004-.09.03 1.042.04 8.775.05-11.047.016-7.343.07 17.308.012-1.633.053-11.245.078 7.484.004.042.004-.347.033-3.367.061 4.946.025 5.117.053-12.662.013-5.097.073 16.754.009-1.066.061-13.096.062 9.065.008 1.405.066-7.116.028 3.851.004-.044.009 1.01.028 7.468.054-10.627.012-6.458.074 15.677.016-3.724.041-7.755.016-2.392.066 9.996.025-1.456.045-5.64.057 6.688.017 4.957.065-13.822.004-.93.062 9.787.037 3.563.053-10.749.02-2.704.046 8.9.02 2.33.045-6.363.017-2.358.057 9.036.012 2.687.066-11.92.033-3.057.037 9.788.028 5.687.05-9.451.02-4.38.07 9.47.008.74.057-7.81.005-.342.049 4.901.045 6.705.05-11.016.032-4.47.061 12.346.004 1.501.074-10.094.008.246.013-1.288.049 6.746.004-.07.016 1.604.042-4.22.02-2.338.062 5.613.032 4.677.054-9.523.016 2.951.012-8.327.09 13.44.005.988.065-9.229.004-1.235.074 5.87.017-.344.004.034.004-.762.061-2.494.037 3.76.008-1.067.054 4.817.028-6.233.017 4.144.012-10.766.094 11.85.005-1.524.065-6.816-.045 9.145.094-7.791.066 3.774.053-1.47.013-2.02.065 4.763.078 4.005-.012-8.283.016 4.243.008-10.61.013 12.734.09-7.652.004-.055.012 7.736.086-7.896.013 3.356.012-2.815.078 3.231.02-.42.128 4.304-.111-5.268.119 3.689.074-9.9-.013 12.785.062-6.336.078 3.312-.066-4.845.099 2.177.045-2.783-.013 3.486.078-.959.07.882-.053-1.783.09 1.042.004-.676.086 3.787.016-3.944.009 6.482.008-5.638.004-4.871.012 9.982.095-5.721.045 2.3.057-2.609.017 1.77.012-2.05.098 1.06.103.611-.037-.825.053.791.041 1.115-.012-1.118.082.06.008.008.004-.215.05-1.217-.033 1.329.098-.602.066.92.057-.526.094-.483-.078.622.115-.556.11.516-.093-.532.123.447.061-.125.012.346.033-.274.008.19.078-.449.017.115.012-.15.053.227.037-.033.066.118-.012-.221.049.045.078-.18-.062.187.099-.07.119.237-.107-.286.135.217.107-.209-.094.213.118-.179.099.171.033-.028.049.041.012-.074.045.015.12.019.016.027.758.013.148.004.2-.048 1.325.058.12.015h.167l.205-.004h.099l-.086-.01.098-.016.062-.027.032.059.017-.044.119.045.004-.007.082-.043-.062.05.095-.007.115-.05-.062.115.066-.076.004.029.082-.173.012.076.074-.236.053.144.004.129.082-.434.013.023.008-.076.07.28.028.147.07-.536.008.116.008-.261.033.425.058-1.013.016.62.045-1.115.053 1.424.013-.47.114 1.725.107-.389-.033.534.041-.357.107.897-.09-1.198.106 1.03.029-.285.057.797.017-.436.078.689.012-1.171.02.622.078-1.24-.061 1.261.098-.407.173 2.38-.16-2.455.164 2.082.123-4.916-.107 5.312.115-4.173.033.774-.017-1.776.066.052.033-1.367-.017 2.063.082-.041.054-.977-.013 1.663.017-.954.094 4.843-.074-5.14.078 2.434.029-8.93-.012 13.343.094-5.598.04 3.649.058-6.748.004.414.082 3.817-.057-5.64.102 4.936.013-2.797.078 4.522.057 4.632.012-12.417.017 3.612.004-8.042.09 14.866.012-3.87.017 2.715.045-6.487.041-2.534.037 7.026.012-1.442.008 1.814.086-5.492.017 3.776.098-5.807-.012 12.299.016-9.598.009 9.302.012-18.271.09 16.597.11-9.365.009 2.772.029 4.527-.013-5.372.09.479.005.005.098 8.682-.074-10.286.107 3.19.029-11.815-.013 18.603.09-5.438.013 4.935.086-10.678.004 1.151.078 6.945-.057-7.303.102 4.087.041-3.258.041 7.193.008-.997.054 3.803.008-9.953.029-11.328-.013 23.09.086-8.386.017 6.755.07-10.513.012.175.004-1.007.061 7.339.017-1.114.004 1.206.057-5.757.045 4.635.103-10.462-.012 14.729.016-9.745.008 12.441.013-23.79.09 21.447.09-11.3.029 2.999.008 4.976.086-5.93.016 1.503.009-1.245.07 7.812.008-1.73.012 1.99.04-4.438.034-16.246-.013 23.773.086-7.247.017 5.339.07-12.682.012 4.97.008-2.719.062 6.61.04-4.097.132 6.718-.107-8.664.11 7.956.083-21.384-.012 26.03.049-9.298.004-.032.004.79.045 6.004.041-9.858.017 3.905.012-7.113.078 9.245.02-2.19.004.266.05-3.998.016 1.868.008-1.16.053 5.88.021-.276.086 5.582-.012-17.437.016 5.756.004-11.998.017 22.38.09-10.376.012 7.685.045-11.099.058 9.29.074-6.25.045 1.78.14 6.516.036-20.99-.012 26.745.09-10.656.082-6.051-.07 11.764.099-7.767.057 5.367-.041-6.08.09.396.017-1.012.032 3.469.013-.655.11 4.424.058-17.336-.012 23.138.073-11.764.03 7.599.069-11.414.012 5.899.012-4.25.066 7.416.041-5.948.094 5.783-.07-7.543.107 5.501.004-.104.02 1.696.046 3.074.008-9.634.029-10.644-.012 24.7.094-13.577.012 11.765.045-14.356.058 6.448.102-3.545-.045 6.244.057-5.66.009-1.538.07 6.245.016-.716.033.104-.017-1.148.025.317.004-.4.053 5.546.004-.02.037-18.735-.012 22.513.094-14.565.013 12.024.098-7.899.107-2.626-.05 5.454.058-4.338.086 4.991-.07-5.955.115 4.122.086-4.71-.012 10.448.02-6.136.02-5.787.095 10.078.07-7.462.09 3.772.057-3.736.066 2.951.14 1.962.004-.091.094-2.952-.082 2.973.193-2.087.004.394.012-.837.09.391.008-.185.066-.622-.012.772.053-.257.033.539-.017-.834.095.455.106.385-.082-.488.09.325.09-.39-.069.525.099-.488.02.289.037-.43.057.194.12-.127-.103.302.106-.259.066.11.012-.249.029.117.008-.039.033.268.016-.132.009.164.07-.263.032.09.037.171.045-.198.02.028.005-.068.09.253h.004l.07-.15.061.069.004.015.041-.089.058.035.213-.014.18.028.148.006.168-.055.004.003.136.06.299-.073.123-.165.033.03.164-.2-.135.236.139-.198.033.334.094-.244.041-.413.066.444.032.182.021-.376.045.13.004-.085.07.522.02-.112.033-.039.029.245.037-.114.123.5.057.354-.045-.417.094.105.009-.27.078.614.02-.129.008.098.07-.472.09-.152-.029.522.037-.186.066.353-.045-.493.094.316.066.222.094-1.639.012.162.037-.248.03.07.056-.456.054.45.037-.179.143 1.105.062.838.049-.716.04-1.02.083.75.016.07.013-.249.053-.335.037.336.074.446.049-.183.057-.17.066.056.037-.062.045.088.033-.044.04-.172.144-.147.066.097.008.016.057-.129.066-.058.057.054.083.082.045-.03.13-.007.554.154.624.027.127.018-.062-.059.066.053.143-.103.136-.086.024.033.066-.013-.045-.03.07-.009.008-.02.078.102.098.078.017-.142.061-.344.029.435.016-.08h.004l.004-.037.14-.622.164.834-.103-1.016.107.99.074-.115.008.357.016-.102.132.987.053.404.074-.76.012-.151.037.14.09-.844.242 3.573.008-.845.045-4.527.07 3.633.004.305.053-4.084.009.458.061 2.065.02.3.033-3.36.03.9.011-.008.054 1.952-.037-1.954.11 1.388.009-.134.029 1.8.036 1.284.017 1.24.024-2.345.03-10.755.032 13.303.045-1.082.05-8.323-.034 8.728.099-2.569.024 2.893.033-6.664.045 1.811.045 2.144.05-2.914.012.884.008-.73.09 1.937.128 4.077-.09-4.827.098 3.625.045-11.824.033 12.779.037-2.147.02 1.144.037-7.405.05 5.091.093-3.393-.053 5.379.086-3.62.041 1.616.029-2.248.02-.919.054 2.01.012-.304.07 1.405-.029-1.732.074 1.087.004-.359.066 3.41.008 1.806.053-13.108.037 10.64.09-6.001-.037 7.045.062-4.6.07 3.88.032-4.65.005.144.09 2.73-.074-3.208.098 1.503.025-.991.074 1.885.008-.446.131 2.047-.049-2.405.053 2.346.111-6.613-.033 8.973.058-7.12.07 6.204.04-4.371.009-.653.07 3.062.024 1.069.074-3.239.008.09.033 1.36.094-.726.008-.017.004.105.082.863.029-.628.053-.185.029.58.012.162.078-.529.008-.07.066.495.016-.173.005.054.032-.585.045.182.013-.095.024.19.086.288-.049-.342.078.135.12-.52-.103.592.13-.5.124.172.033-.04.045-.074.04.14.009-.01.168.23.041-.023.152.008-.127.046.135-.025.037-.02.029-.067.151-.15.013.013h.123l-.082.053.086-.047.151.05.419.134.418-.088.328.007.398.015.147.012.156-.012.004.006.033.019.078-.029.222-.032.143.007.004.006.033.074.078-.084.082.015-.012.044.02-.013.098-.003-.057-.093.066.076.156-.193.028.055.05.056.045-.205.012-.101.086.233.004-.02.05-.142.032.187.012-.028.03.092.077-.136.062.049-.033-.195.04.062.1-.39-.087.413.115-.295.057-.12.086.451.004-.03.037.414.009-.013.114.963.045-.123.058-1.452.07.978.127-1.329.045.439.156 2.614.106-6.646-.057 7.6.082-4.345.07 3.411.032-4.213.009.984.008-.373.008.84.066 2.555.037-2.797.004.153.004-.01.012-1.227.078 2.062.012-.196.05-1.38.049 1.541.164 2.964-.09-3.322.094 2.864.049-8.463.033 8.493.037-2.05.004.707.053-3.87.053 3.593.103-2.628.025.807.024.62.078-.93.016-.278.025.856.123 1.002.057 1.923.03-2.736.028-4.314.053 7.62.029-3.239.066-1.607.032 2.717.004-.004.005.062.008.56.061-2.574.008.053.013-.382.053 1.499.053-1.498.086 1.203.14 2.064.02.756.025-1.134.033-4.764.053 5.16.025-.503.094-2.949.025 1.49.028 1.717.062-3.21.004.065.061 1.54.07-.847.025-.186.057 1.077.156 1.025-.115-1.2.152.7.094-1.408.05.451.09.872.037-.305.118-.966.05.093.213 1.736.02-.096.12-2.006.057 1.035.086.676.033-.51.098-.986.045.329.27 1.549.01-.055.11-1.867.09.858.053.586.062-.536.061-.695.017-.135.057.377.025-.067.016-.036.05.135.172 1.55.049-.911.07-.908.057.347.086.835.053-.557.086-.638.115.238.013-.037.094.709.09 1.398.029-1.046.04-2.062.075 1.644.024.767.05-1.61.02-.33.053 1.519.013-.185.016-.228.07-1.495.04 1.372.013.153.037-1.12.008-.236.086.788.148 3.231.024-2.284.033-3.485.058 4.174.016-.071.008.364.062-3.645.008-.256.037 3.966h.004l.012.501.041-2.203.045-1.723.041 2.565.009-.103.012-.223.053-1.934.062 1.625.004.024.012-.484.012.083.009-.225.04 1.826.013-.026.025-.502.028 1.263.029 1.205.037-7.166.016 1.558.004-.349.033 4.402.033-1.188.012 1.714.05-5.452.057 4.775.074-4.588.04 3.645.009.42.061-2.423.02-.868.03 1.74.024 1.365.037-1.814.053.866.09 3.622.025-2.209.029-5.765.078 7.113.029-3.52.024-2.555.033 4.987.045-.097.012.41.025-2.67.008-1.456.086 2.81.008-.144.042-2.404.07 1.92.044-1.154.074 2.267.012-.37.046 1.17.008-.049.012 1.296.05-6.514.003-.642.07 5.509.004 1.127.033-4.434.07 2.642.016.884.07-2.984.012-.586.037 2.38.057-1.532.02-1.073.03 1.452.11.883-.045-1.296.05 1.08.004-.189.073 1.688.062 1.915.012-6.294.012 1.467.009-3.28.078 6.969.02-2.155.041-1.586.041 2.483.017.345.024-.915.185-1.91-.082 1.948.09-1.387.106 1.043-.065-1.086.078.946.131 2.679-.066-2.714.086 2.422.062-5.279.057 3.368.02.306.017-1.912.074 1.706.004.067.058-.837.057-.342.041.346.016-.112.005.087.061-.794.02.208.005-.048.037.666.012-.185.123.808.045.67.05-.77.057-1.298.061.723.02.14-.012-.154.02.13.034.538.086-.368.106-.687.025.152.185.695-.156-.995.164.894.024-.076.037.436.008-.03.037.334.058-.708.074-.759.049.457.074.753.053-.416.189-.698.016.036.045.245.205.911.02.072.09-.984.03-.175.057.37.078.722.057-.417.086-.674.074.043.332.986.017-.084.094-.863.078.553.061.304.046-.284.16-.706.024.032.127.46.168.803.107-1.472.045.484.033.43.033.341.073-.404.136-.664.008.085.07-.38.012.107.008-.21.07.735.008-.035.135 1.342.005-.018.135-2.062-.099 2.416.107-2.162.123 1.93-.107-2.09.115 1.439.095-.96-.078 1.225.102-1.158.037.43.033-.579.016.028.066-.625-.053.672.102-.272.082 1.223.05-.606.003-.101.05 1.364.012-.223.029.823.057-2.666.012.947.013-1.256.082 1.825.012-.214.037.78.057-1.276.009.205.012-.487.102.131.009.187.065-1.12.012.543.009-.823.082 1.276.016-.245.119 1.044.004-.208.004-.147.05 1.292.016-.164.004.516.057-4.015.02.313.005-.379.078 2.571.049.79.041-1.476.012.404.029-.624.082.477.029.202.033-1.565.016.53.008-.788.086 1.468.013-.566.032.962.082-.253.004-.066.037.986.066 1.049.029-1.921.049-2.297-.033 3.544.094-1.525.03 1.635.081-1.024.012-1.003.099.754.029.142.032-1.215.03-.747.077 1.095.033.943.086-.423.029-.117.012 1.231.012-.702.09 2.21.009-3.284.028-1.913-.012 4.015.09-2.103.013 2.902.094-3.404.008 1.165.016-1.305.062 1.754.033.436.04-1.851.013.746.037-2.238.07 2.598.11-1.255-.086 1.56.09-1.206.107 3.132.017-.573.057-5-.037 5.685.098-3.527.033 4.065.07-4.255.008 1.216.013-1.567.07 2.72.016-.241.02.353.033-1.75.012.163.033-2.05.07 2.478.008-.61.004-.207.012 1.154.095-.985.11 2.803.037-.381.037-4.34-.012 4.384.094-3.008.013 4.01.09-4.39.008.801.086 2.19-.074-2.701.115 1.837.053-2.832.062 1.503.033 1.107.07-1.673.012 1.087.012-.776.066 1.797.02-.09.086 1.92.013-2.82.082-1.843-.07 3.574.082-.88.029 1.812.07-3.452.114 2.56-.09-2.973.119 1.773.065-2.114.054 1.204.086-.82-.07 1.352.099-.825.123 1.347.139-3.068-.074 5.143.086-4.424.054 3.074.008 1.046.074-3.678.012.007.008-.316.05 3.061.012-.218.008.902.078-3.442.004.055.09 1.313-.074-1.596.12.702.011-.57.07 1.74.008-.235.017.404.057-.819.017.117.004-.101.032 1.745.046 1.718.032-3.674.009.46.016-2.23.07 3.834.008-.171.016 1.187.05-2.994.008.11.012-1.2.07 3.303.008-.476.012.745.062-2.724.012-.912.07 1.924.016-.22.008.256.066-2.093.016.845.009-.353.07 1.955.016-1.054.13 2.844-.106-3.114.12 2.775.077-4.389.05 2.985.028 1.296.066-2.802.012.79.012-.554.07 1.462.02-.51.005.08.04-.77.037.16.037.31.037-.463.037-.452.053.378.033.201.041-.414.037.362.013-.153.049.385.037-.14.106.407.008-.148.058-.1.012.134.037-.052.004.04.066-.321.02.093.037.294.074-.314.05.148.012-.269.012.17.07-.474.049.126.106.374-.032-.462.036.342.107-.418-.012.97.016-.8.107 1.353-.086-1.698.09.871.053-1.159-.037 2.388.09-1.866.033 1.95.058-3.29.016 1.004.004-1.226.058 3.633.045-1.18.086-1.765.05.583.007.644.037-.87.066.369.106.757.009-.188.004-.1.057.687.037-.449.074 1.86.029-2.22.028-1.371.07 3.272.09-2.93-.07 2.996.111-1.36.033 1.027.05-1.695.036-.944.066 1.173.004.01.004-.12.045-1.265.062 1.401.045.832.053-1.105.008-.251.053 2.668.03.68.04-3.666.029-1.707.05 4.276.02 1.254.036-2.907.03-1.95.057 4.066.008.231.053-2.683.029-1.254.053 3.297.008.161.041-2.139.037-2.358.066 3.356.004.014.004-.276.062-2.249.045 2.36.02.92.025-1.376.04-.999.042 3.289.02.298.033-2.477.037-2.527.062 4.164.004.316.061-3.685.004-.061.029 1.166.045 2.382.057-3.166.009-.247.053 2.153.025.328.028-2.053.033-1.292.066 2.62.012-.32.05-1.432.048 1.74.013.292.057-1.477.025.568.028 1.433.017.756.065-2.9.017-.458.057 2.777.004.047.033-.705.037-1.626.066 2.117.004-.006.008.115.004.078.037-1.255.033-.822.065 1.397.05-1.835.02-.547.066 1.551.004.053.04-.77.017-.115.045 1.062.164 1.821-.086-2.312.09 2.285.066-3.074.074 2.243.008.043.025-.731.04-.925.054 1.466.016.24.058-1.254.152-.966-.087 1.244.103-1.17.156 1.236.028-.166.03-.323.04.796.037 1.02.057-1.365.041-.939.05 1.449.033.344.045-1.173.016-.26.05.918.032.497.05-1.007.13-.62.021-.082.033.176.061.552.082-.266.045-.043.046.129.217.696.057-.055.09.052.017-.056.18-.604.008.018.12.066.036-.046.062-.05.045.066.189.25.016-.01.763-.17.434.048.214-.073 3.317-.108.09-.05-.012.188.033-.155.004.035.05-.222.032.1.102-.43-.061.553.078-.502.09.365.02-.252.005.022.032-.343.107-.515-.053.679.07-.475.237 1.763.004-.004.033-.255.062.465.008-.05.119.375-.066-.5.078.37.008-.033.02.48.058 1.357.066-.967.127-1.329.05.515.024.465.061-1.845.017-1.08.065 2.935.02-1.041.05-1.558.086.167.02-.449.087.54.119.928.053-.393.012-.332.074 1.513.008.215.058-1.694.012-1.047.045 2.17.062-1.75.147 1.786.008-.255.14-1.846.016.353.062-.179.07.954.02-.627.082.89.02-.326.033.674.045-.238.058 1.341.053-1.048.02-1.175.054 1.816.05-1.72.147 2.073.123-2.886.04 1.19.091.505-.033-1.413.045.782.082.736.033-1.173.131 2.013.02-.365.107-1.786-.07 2.774.083-1.992.02 1.788.07-2.188.033 2.035.008.086.025-1.5.008-.204.061 1.2.009-.046.004.03.012-.444.119-1.585-.053 1.917.061-1.768.033 1.125.045-1.268.053.79.02-.375.034.679.061-.46.176 1.636.03-.174.057-1.707.032 1.851.033-.538.033-1.007.025 1.276.008.359.033-1.447.061.79.012.044.03-.315.114-1.479-.041 1.707.053-1.25.025 1.019.057-1.367.041 1.158.099-.557.02.371.11 1.304-.044-1.955.061 1.571.127-1.412-.061 2.081.07-1.603.024 1.632.053-2.234.05 2.028.14-1.891.016.39.02.747.07-1.536.008.125.119 1.142-.045-1.323.057 1.14.02-.882.095.642.008-.055.05.457.118.676.013-.37.028-1.143.045 1.715.05-1.362.049 1.123.098-.436.136-1.21.012.11.127.754-.041-.994.05.956.028-.75.037.782.049-.237.082.663-.037-.717.078.448.074-.66-.041 1.03.07-.438.024.437.037-.657.05.296.04.159.025-.268.115-.202-.07.267.078-.25.025.168.032-.316.09-.24-.036.376.057-.181.107.221-.045-.352.061.325.033-.128.037.328.024-.108.082.327.054-.288.012-.055.033.198.057-.09.013-.055.053.216.082.044-.037-.341.053.23.123-.453-.053.459.061-.415.03.332.048-.55.05.436.032-.344.095.099.135.3.012-.027.02-.046.058.124.099.022-.062-.108.074.064.012-.039.07.082.025-.017.118-.128.025.066.008.017.037-.16.05.082.106-.162.025.044.119.052-.037-.079.04.073.025-.027.05.11.094.05-.058-.103.086.044.128.048.172.038.004-.006.148-.075.295.04.123.029.016-.019.136.028.287-.041.48-.006.41-.01.385.016.16.007.488-.008.619-.034 1.103-.028.168.014 6.594.014h0" clip-path="url(#p27dc5b54a5)" style="fill:none;stroke:#2ca02c;stroke-width:.5;stroke-linecap:square"/><path id="patch_3" d="M38.05 142.76V8.64" style="fill:none;stroke:#000;stroke-width:.8;stroke-linejoin:miter;stroke-linecap:square"/><path id="patch_4" d="M221.76 142.76V8.64" style="fill:none;stroke:#000;stroke-width:.8;stroke-linejoin:miter;stroke-linecap:square"/><path id="patch_5" d="M38.05 142.76h183.71" style="fill:none;stroke:#000;stroke-width:.8;stroke-linejoin:miter;stroke-linecap:square"/><path id="patch_6" d="M38.05 8.64h183.71" style="fill:none;stroke:#000;stroke-width:.8;stroke-linejoin:miter;stroke-linecap:square"/><g id="legend_1"><path id="line2d_14" d="M164.938 15.919h16" style="fill:none;stroke:#ff7f0e;stroke-linecap:square"/><g id="text_13" transform="matrix(.08 0 0 -.08 187.338 18.719)"><defs><path id="DejaVuSans-46" d="M628 4666h2681v-532H1259V2759h1850v-531H1259V0H628z" transform="scale(.01563)"/><path id="DejaVuSans-70" d="M1159 525v-1856H581v4831h578v-531q182 312 458 463 277 152 661 152 638 0 1036-506 399-506 399-1331T3314 415Q2916-91 2278-91q-384 0-661 152-276 152-458 464m1957 1222q0 634-261 995t-717 361q-457 0-718-361t-261-995 261-995 718-361q456 0 717 361t261 995" transform="scale(.01563)"/><path id="DejaVuSans-64" d="M2906 2969v1894h575V0h-575v525q-181-312-458-464-276-152-664-152-634 0-1033 506-398 507-398 1332t398 1331q399 506 1033 506 388 0 664-152 277-151 458-463M947 1747q0-634 261-995t717-361 718 361q263 361 263 995t-263 995q-262 361-718 361t-717-361-261-995" transform="scale(.01563)"/></defs><use xlink:href="#DejaVuSans-46"/><use xlink:href="#DejaVuSans-30" x="57.52"/><use xlink:href="#DejaVuSans-70" x="152.93"/><use xlink:href="#DejaVuSans-72" x="216.406"/><use xlink:href="#DejaVuSans-65" x="255.27"/><use xlink:href="#DejaVuSans-64" x="316.793"/></g><path id="line2d_15" d="M164.938 27.661h16" style="fill:none;stroke:#1f77b4;stroke-linecap:square"/><g id="text_14" transform="matrix(.08 0 0 -.08 187.338 30.461)"><defs><path id="DejaVuSans-6f" d="M1959 3097q-462 0-731-361t-269-989 267-989q268-361 733-361 460 0 728 362 269 363 269 988 0 622-269 986-268 364-728 364m0 487q750 0 1178-488 429-487 429-1349 0-859-429-1349Q2709-91 1959-91q-753 0-1180 489-426 490-426 1349 0 862 426 1349 427 488 1180 488" transform="scale(.01563)"/><path id="DejaVuSans-67" d="M2906 1791q0 625-258 968-257 344-723 344-462 0-720-344-258-343-258-968 0-622 258-966t720-344q466 0 723 344 258 344 258 966m575-1357q0-893-397-1329-396-436-1215-436-303 0-572 45t-522 139v559q253-137 500-202 247-66 503-66 566 0 847 295t281 892v285q-178-310-456-463T1784 0Q1141 0 747 490 353 981 353 1791q0 812 394 1302 394 491 1037 491 388 0 666-153t456-462v531h575z" transform="scale(.01563)"/></defs><use xlink:href="#DejaVuSans-46"/><use xlink:href="#DejaVuSans-30" x="57.52"/><use xlink:href="#DejaVuSans-6f" x="152.93"/><use xlink:href="#DejaVuSans-72" x="214.111"/><use xlink:href="#DejaVuSans-69" x="255.225"/><use xlink:href="#DejaVuSans-67" x="283.008"/></g></g></g></g><defs><clipPath id="p27dc5b54a5"><path d="M38.05 8.64h183.71v134.12H38.05z"/></clipPath></defs></svg>