<svg xmlns="http://www.w3.org/2000/svg" xmlns:xlink="http://www.w3.org/1999/xlink" width="307.2" height="230.4" viewBox="0 0 230.4 172.8"><defs><style>*{stroke-linejoin:round;stroke-linecap:butt}</style></defs><g id="figure_1"><path id="patch_1" d="M0 172.8h230.4V0H0z" style="fill:#fff"/><g id="axes_1"><path id="patch_2" d="M38.05 142.76h183.71V8.64H38.05z" style="fill:#fff"/><g id="matplotlib.axis_1"><g id="xtick_1"><g id="line2d_1"><defs><path id="m779fe98a7e" d="M0 0v3.5" style="stroke:#000;stroke-width:.8"/></defs><use xlink:href="#m779fe98a7e" x="88.422" y="142.76" style="stroke:#000;stroke-width:.8"/></g><g id="text_1" transform="matrix(.08 0 0 -.08 85.877 155.839)"><defs><path id="DejaVuSans-31" d="M794 531h1031v3560L703 3866v575l1116 225h631V531h1031V0H794z" transform="scale(.01563)"/></defs><use xlink:href="#DejaVuSans-31"/></g></g><g id="xtick_2"><use xlink:href="#m779fe98a7e" id="line2d_2" x="147.683" y="142.76" style="stroke:#000;stroke-width:.8"/><g id="text_2" transform="matrix(.08 0 0 -.08 145.138 155.839)"><defs><path id="DejaVuSans-32" d="M1228 531h2203V0H469v531q359 372 979 998 621 627 780 809 303 340 423 576 121 236 121 464 0 372-261 606-261 235-680 235-297 0-627-103-329-103-704-313v638q381 153 712 231 332 78 607 78 725 0 1156-363 431-362 431-968 0-288-108-546-107-257-392-607-78-91-497-524-418-433-1181-1211" transform="scale(.01563)"/></defs><use xlink:href="#DejaVuSans-32"/></g></g><g id="xtick_3"><use xlink:href="#m779fe98a7e" id="line2d_3" x="206.945" y="142.76" style="stroke:#000;stroke-width:.8"/><g id="text_3" transform="matrix(.08 0 0 -.08 204.4 155.839)"><defs><path id="DejaVuSans-33" d="M2597 2516q453-97 707-404 255-306 255-756 0-690-475-1069Q2609-91 1734-91q-293 0-604 58T488 141v609q262-153 574-231 313-78 654-78 593 0 904 234t311 681q0 413-289 645-289 233-804 233h-544v519h569q465 0 712 186t247 536q0 359-255 551-254 193-729 193-260 0-557-57-297-56-653-174v562q360 100 674 150t592 50q719 0 1137-327 419-326 419-882 0-388-222-655t-631-370" transform="scale(.01563)"/></defs><use xlink:href="#DejaVuSans-33"/></g></g><g id="text_4" transform="matrix(.08 0 0 -.08 114.392 163.581)"><defs><path id="DejaVuSans-74" d="M1172 4494v-994h1184v-447H1172V1153q0-428 117-550t477-122h590V0h-590q-666 0-919 248-253 249-253 905v1900H172v447h422v994z" transform="scale(.01563)"/><path id="DejaVuSans-69" d="M603 3500h575V0H603zm0 1363h575v-729H603z" transform="scale(.01563)"/><path id="DejaVuSans-6d" d="M3328 2828q216 388 516 572t706 184q547 0 844-383 297-382 297-1088V0h-578v2094q0 503-179 746-178 244-543 244-447 0-707-297-259-296-259-809V0h-578v2094q0 506-178 748t-550 242q-441 0-701-298-259-298-259-808V0H581v3500h578v-544q197 322 472 475t653 153q382 0 649-194 267-193 395-562" transform="scale(.01563)"/><path id="DejaVuSans-65" d="M3597 1894v-281H953q38-594 358-905t892-311q331 0 642 81t618 244V178Q3153 47 2828-22t-659-69q-838 0-1327 487-489 488-489 1320 0 859 464 1363 464 505 1252 505 706 0 1117-455 411-454 411-1235m-575 169q-6 471-264 752-258 282-683 282-481 0-770-272t-333-766z" transform="scale(.01563)"/><path id="DejaVuSans-28" d="M1984 4856q-418-718-622-1422-203-703-203-1425 0-721 205-1429t620-1424h-500Q1016-109 783 600T550 2009q0 697 231 1403 232 707 703 1444z" transform="scale(.01563)"/><path id="DejaVuSans-73" d="M2834 3397v-544q-243 125-506 187-262 63-544 63-428 0-642-131t-214-394q0-200 153-314t616-217l197-44q612-131 870-370t258-667q0-488-386-773Q2250-91 1575-91q-281 0-586 55T347 128v594q319-166 628-249 309-82 613-82 406 0 624 139 219 139 219 392 0 234-158 359-157 125-692 241l-200 47q-534 112-772 345-237 233-237 639 0 494 350 762 350 269 994 269 318 0 599-47 282-46 519-140" transform="scale(.01563)"/><path id="DejaVuSans-29" d="M513 4856h500q468-737 701-1444 233-706 233-1403 0-700-233-1409T1013-844H513q415 716 620 1424t205 1429q0 722-205 1425-205 704-620 1422" transform="scale(.01563)"/></defs><use xlink:href="#DejaVuSans-74"/><use xlink:href="#DejaVuSans-69" x="39.209"/><use xlink:href="#DejaVuSans-6d" x="66.992"/><use xlink:href="#DejaVuSans-65" x="164.404"/><use xlink:href="#DejaVuSans-28" x="257.715"/><use xlink:href="#DejaVuSans-73" x="296.729"/><use xlink:href="#DejaVuSans-29" x="348.828"/></g></g><g id="matplotlib.axis_2"><g id="ytick_1"><g id="line2d_4"><defs><path id="m065faec036" d="M0 0h-3.5" style="stroke:#000;stroke-width:.8"/></defs><use xlink:href="#m065faec036" x="38.05" y="137.731" style="stroke:#000;stroke-width:.8"/></g><g id="text_5" transform="matrix(.08 0 0 -.08 25.96 140.77)"><defs><path id="DejaVuSans-30" d="M2034 4250q-487 0-733-480-245-479-245-1442 0-959 245-1439 246-480 733-480 491 0 736 480 246 480 246 1439 0 963-246 1442-245 480-736 480m0 500q785 0 1199-621 414-620 414-1801 0-1178-414-1799Q2819-91 2034-91q-784 0-1198 620-414 621-414 1799 0 1181 414 1801 414 621 1198 621" transform="scale(.01563)"/></defs><use xlink:href="#DejaVuSans-30"/></g></g><g id="ytick_2"><use xlink:href="#m065faec036" id="line2d_5" x="38.05" y="120.966" style="stroke:#000;stroke-width:.8"/><g id="text_6" transform="matrix(.08 0 0 -.08 20.87 124.005)"><defs><path id="DejaVuSans-35" d="M691 4666h2478v-532H1269V2991q137 47 274 70 138 23 276 23 781 0 1237-428 457-428 457-1159 0-753-469-1171Q2575-91 1722-91q-294 0-599 50Q819 9 494 109v635q281-153 581-228t634-75q541 0 856 284 316 284 316 772 0 487-316 771-315 285-856 285-253 0-505-56-251-56-513-175z" transform="scale(.01563)"/></defs><use xlink:href="#DejaVuSans-35"/><use xlink:href="#DejaVuSans-30" x="63.623"/></g></g><g id="ytick_3"><use xlink:href="#m065faec036" id="line2d_6" x="38.05" y="104.201" style="stroke:#000;stroke-width:.8"/><g id="text_7" transform="matrix(.08 0 0 -.08 15.78 107.24)"><use xlink:href="#DejaVuSans-31"/><use xlink:href="#DejaVuSans-30" x="63.623"/><use xlink:href="#DejaVuSans-30" x="127.246"/></g></g><g id="ytick_4"><use xlink:href="#m065faec036" id="line2d_7" x="38.05" y="87.436" style="stroke:#000;stroke-width:.8"/><g id="text_8" transform="matrix(.08 0 0 -.08 15.78 90.475)"><use xlink:href="#DejaVuSans-31"/><use xlink:href="#DejaVuSans-35" x="63.623"/><use xlink:href="#DejaVuSans-30" x="127.246"/></g></g><g id="ytick_5"><use xlink:href="#m065faec036" id="line2d_8" x="38.05" y="70.671" style="stroke:#000;stroke-width:.8"/><g id="text_9" transform="matrix(.08 0 0 -.08 15.78 73.71)"><use xlink:href="#DejaVuSans-32"/><use xlink:href="#DejaVuSans-30" x="63.623"/><use xlink:href="#DejaVuSans-30" x="127.246"/></g></g><g id="ytick_6"><use xlink:href="#m065faec036" id="line2d_9" x="38.05" y="53.906" style="stroke:#000;stroke-width:.8"/><g id="text_10" transform="matrix(.08 0 0 -.08 15.78 56.945)"><use xlink:href="#DejaVuSans-32"/><use xlink:href="#DejaVuSans-35" x="63.623"/><use xlink:href="#DejaVuSans-30" x="127.246"/></g></g><g id="ytick_7"><use xlink:href="#m065faec036" id="line2d_10" x="38.05" y="37.141" style="stroke:#000;stroke-width:.8"/><g id="text_11" transform="matrix(.08 0 0 -.08 15.78 40.18)"><use xlink:href="#DejaVuSans-33"/><use xlink:href="#DejaVuSans-30" x="63.623"/><use xlink:href="#DejaVuSans-30" x="127.246"/></g></g><g id="ytick_8"><use xlink:href="#m065faec036" id="line2d_11" x="38.05" y="20.375" style="stroke:#000;stroke-width:.8"/><g id="text_12" transform="matrix(.08 0 0 -.08 15.78 23.415)"><use xlink:href="#DejaVuSans-33"/><use xlink:href="#DejaVuSans-35" x="63.623"/><use xlink:href="#DejaVuSans-30" x="127.246"/></g></g><g id="text_13" transform="matrix(0 -.08 -.08 0 14.116 105.261)"><defs><path id="DejaVuSans-66" d="M2375 4863v-479h-550q-309 0-430-125-120-125-120-450v-309h947v-447h-947V0H697v3053H147v447h550v244q0 584 272 851 272 268 862 268z" transform="scale(.01563)"/><path id="DejaVuSans-72" d="M2631 2963q-97 56-211 82-114 27-251 27-488 0-749-317t-261-911V0H581v3500h578v-544q182 319 472 473 291 155 707 155 59 0 131-8 72-7 159-23z" transform="scale(.01563)"/><path id="DejaVuSans-71" d="M947 1747q0-634 261-995t717-361 718 361q263 361 263 995t-263 995q-262 361-718 361t-717-361-261-995M2906 525q-181-312-458-464-276-152-664-152-634 0-1033 506-398 507-398 1332t398 1331q399 506 1033 506 388 0 664-152 277-151 458-463v531h575v-4831h-575z" transform="scale(.01563)"/><path id="DejaVuSans-75" d="M544 1381v2119h575V1403q0-497 193-746 194-248 582-248 465 0 735 297 271 297 271 810v1984h575V0h-575v538q-209-319-486-474-276-155-642-155-603 0-916 375-312 375-312 1097m1447 2203" transform="scale(.01563)"/><path id="DejaVuSans-6e" d="M3513 2113V0h-575v2094q0 497-194 743-194 247-581 247-466 0-735-297-269-296-269-809V0H581v3500h578v-544q207 316 486 472 280 156 646 156 603 0 912-373 310-373 310-1098" transform="scale(.01563)"/><path id="DejaVuSans-63" d="M3122 3366v-538q-244 135-489 202t-495 67q-560 0-870-355-309-354-309-995t309-996q310-354 870-354 250 0 495 67t489 202V134Q2881 22 2623-34q-257-57-548-57-791 0-1257 497-465 497-465 1341 0 856 470 1346 471 491 1290 491 265 0 518-55 253-54 491-163" transform="scale(.01563)"/><path id="DejaVuSans-79" d="M2059-325q-243-625-475-815-231-191-618-191H506v481h338q237 0 368 113 132 112 291 531l103 262L191 3500h609L1894 763l1094 2737h609z" transform="scale(.01563)"/><path id="DejaVuSans-48" d="M628 4666h631V2753h2294v1913h631V0h-631v2222H1259V0H628z" transform="scale(.01563)"/><path id="DejaVuSans-7a" d="M353 3500h2731v-525L922 459h2162V0H275v525l2163 2516H353z" transform="scale(.01563)"/></defs><use xlink:href="#DejaVuSans-66"/><use xlink:href="#DejaVuSans-72" x="35.205"/><use xlink:href="#DejaVuSans-65" x="74.068"/><use xlink:href="#DejaVuSans-71" x="135.592"/><use xlink:href="#DejaVuSans-75" x="199.068"/><use xlink:href="#DejaVuSans-65" x="262.447"/><use xlink:href="#DejaVuSans-6e" x="323.971"/><use xlink:href="#DejaVuSans-63" x="387.35"/><use xlink:href="#DejaVuSans-79" x="442.33"/><use xlink:href="#DejaVuSans-28" x="533.297"/><use xlink:href="#DejaVuSans-48" x="572.311"/><use xlink:href="#DejaVuSans-7a" x="647.506"/><use xlink:href="#DejaVuSans-29" x="699.996"/></g></g><path id="line2d_12" d="M29.16 137.73h2.075l.296-22.605.593 2.744.296.976.296.471.297-.158.296-.528.296-.19.593 1.119.296.144.297-.473.592-1.397.297.039.888 1.661.297-.09.592-.97.297.054.592.8.297-.177.592-1.002.297-.087.592.715.296-.054.593-1.484.296-.225.297.638.592 2.26.297.179.296-.963.593-3.65.296-.839.296.184 1.185 3.051.297.32.296-.02.296-.998.297-2.952.296-5.736.593-14.406.296-2.142.296.835.889 4.627.296.43.297-.199.592-1.58.593-1.488.296-.363.296-.157h.297l.296.254.296.798.89 4.773.296.408.296 37.454h3.26l.296-54.563.296-2.204.296-1.164.297-.235.296.31.889 1.828.296.238.593.135.296.267.889 1.756.296-.271.297-.434.296-.157.592.202.593.324.296.043.297-.124.592-.52.297.033.592.488.593-.085.592-.092.593.19.593.688.296.36.296.032.593-.484.296.092.89.795.295-.122.297-.38.592-1.09.297-.248.296.088 1.778 1.823 1.778.903.592.014.593-.345 1.185-.985.889-.384.593-.112.889.172.592.323.593.511.296.44.296.799.89 4.305.296.167.296-.745.889-3.383.296.665.296 3.718.89 23.569.296 3.19.296.737.296-.508.297-.793.296-.366.296.34.296 20.249h1.778l.297-48.2.592-8.297.297-.31.888 2.627.89 1.685.592 1.16.889 2.092.593-.059.296.227.889 1.238.296.18.296.036.297-.138.889-.972.592-.882.297-.162.296.058 1.481.86.297.074.296.228.296.65.297 1.322.592 4.178.296.831.297-.861.592-3.627.297-.996.296.7.593 3.218.296-.808.889-8.112.296-.274.593 1.665.889 2.63.592 2.51.297.026.592-1.748.297-.24.888.312.297.308 1.185 2.746.296.972.297.223.296-2.018.593-6.746.296-1.039.296.49.593 2.558.592 3.278.593 4.417.296 1.107.297-.742.592-5.468.297 47.093h2.666l.297-47.005.592-3.457.296-.324.593.785.296.188.89.05 1.185-.096.592.239.593.493.592.813.593 1.349.296 1.044.593 3.462.593 3.886.296-.022.296-2.106.593-5.92.296-.953.296.05.297 1.05.296 1.861.593 5.561.296 1.017.296-1.432 1.185-8.935.297-.48.296.286.593 1.297.592 1.725.593 2.633.296 1.984.593 6.86.592 8.555.297 2.423.296.98.296-.007.297-.857.592-3.614.297 26.617h2.074l.296-43.9 1.185-10.134.297.806 1.185 9.362.296.776.593.352.296.05.296-.226.593-1.01 1.185-2.489.296-.257.297-.08.592.186.89.527.592.569.889 1.18.296.545.296.816 1.186 4.222.592.242.297.683.889 3.832.296.529.296-.436.296-1.564.593-5.768.889-9.485.593-3.356.592-1.88.297-.203.296.253 2.963 5.22.889 1.784.592 1.893 1.482 6.904.296 40.057h4.149l.296-41.339.592 1.104.593 2.044 1.185 4.608 1.482 9.587.296.591.296-1.802 1.186-14.288.296-1.794.593-2.039.889-5.554.296 1.49.592 5.364.593 3.829.889 4.072.593 3.638.296 1.175.296.483.296-.173 1.482-2.935.296-.194.593.035.296.122.297.262.296.534.592 2.069.593 1.928.296.403.297.018.296-.244.889-1.413.593-1.525.592-2.878.593-2.658.296-.483.593-.241.592.118.89.486.592.604.889 1.005.889.966.889 1.379.592.881.89.809 1.184 1.742.593.815.593.452.888.506.593.617.889 1.36.889 1.451.296.344.297.12.296-.162.296-.322.296 23.033h2.075l.296-19.067.593-3.162.296-.555.296.182.89 1.49.295.308.297.143.592-.185.593-.14.593.174.296-.097.889-1.143.296.272.593.992.296.04.593-.474.296.002.593.19.592-.11.296.285.593 1.491.593 1.397.296 17.967h9.482l.296-17.552.593-1.026.296.027.296.343.297.154.296-.253.593-.99.296.015.592.984.297.202.296-.208.593-.99.592-.507.89-1.684.296-.007.296.383.158 11.27h0" clip-path="url(#p6e35ad1d60)" style="fill:none;stroke:#1f77b4;stroke-linecap:square"/><path id="line2d_13" d="M29.16 137.73h9.483l.296-17.696.593-.903.296-.142.296.02.296-.124.593-.85.296-.01.297.658.296 19.048h.296l.297-18.514.592-2.479.297-.54.592.02.296-.223.297-.05.889 1.335.296-.129.296-.738.297-1.976.296-4.596.889-22.142.296-.315.889 5.646.593 1.807.592 1.194.297.306.296.023.592-.458.593-.619.296-.083.297.209.296.47.296.779.89 4.08.296.211.592-.693.296 37.475h.297l.296-29.94.296.013.297-.478.296-1.45.296-3.28.89-14.418.296-1.824.296-.593.296.087 1.185 1.633.593.444.889.555.593.835.592 1.197.296.312.593-.339.296.11.89 1.222.296-.19.592-1.469.593-1.434.592-.735.593-.206.296.117.297.397 1.185 2.479.592.59.89 2.138.296-.214.889-3.905.296-.341.296.177.89.957.592.351.889.16 1.185-.078 1.185.255 1.778-.248 1.185-.66.89-.445.295.042.297.159.296.33.593 1.442.296.815.296.426.593-.318.296.14.593.635.296-.312.593-2.113.592-1.81.297-.038.889 2.037.296 1.177.296 2.71.593 8.551.296 34.345h2.963l.296-59.001.297 1.5.889 5.949.592 1.768.89 1.925 1.777 5.331.296.39.297-.189.889-1.8.296-.121.296.26.89 1.708.295.176.593-.37.593-.46.296-.72.593-3.262.296 46.916h.296l.296-47.484.297-.309.592-.024.297.128.592 1.204.297-.536.296-2.293.593-6.29.296-.663.296.95.89 4.706.592 2.63.296.563.296-1.164.593-7.107.296 55.689h2.074l.297-21.2.296-1.2.296-2.57.297-4.205.889-15.391.296-.805.296.97.89 3.843.888 3.555.296-.714.297-2.846.889-13.86.296-1.36.296 1.771.296 3.263.297 1.377.296-1.978.593-7.365.296-1.373.296.154.297.715.296 1.145 1.185 7.803.296.693.593.45.593.448.889 1.277 1.777 2.634.297.91.592 3.148.593 3.456.296.79.297-.3.888-4.332.297-2.113.889-10.968.296 54.178h.593l.296-48.33.593-5.384.296-1.574.296-.052.593 2.31.889 3.261 1.185 3.395.296 1.9.593 7.43.296 3.99.296 2.454.297-.097.296-3.39.593-9.42.296-2.328.889-3.72.889-3.444.296-.197.593.383.296-.008.296-.452.297-1.232.296-1.737.296-.8.297 57.042h2.963l.296-38.58.593-3.522.592-4.012.593-2.318.296-.448.296-.107.297.105.592.553.593.768.593.879.592.434.593.09.296.022.296.242.297.774.592 3.51.593 3.674.296 1.068.297.36.296-.676.889-5.223.296.131.593 4.17.296.557.296-1.092.593-3.442.296-1.063.297-.575.888-.725.297-.205.296-.029.296.224.593.7.296-.2.593-1.214.296-.289.296.075.297.44.296.79.593 2.59.889 5.229.296-.072.593-3.007.296 39.414h2.37l.297-42.409.592-3.766.297-.394.296.825.592 2.96.89 5.242.888 4.555 1.186 6.877.592 2.212.296.366.297-.353.889-2.927.296.095.296-.176.297-2.112.296-5.403.593-17.27.296-3.404.296 1.773.593 6.249.889 6.628.592 1.844.593 1.602.889 3.713.296.486.296-.333.593-1.709.296-.2.297.44 1.481 3.85.593.432.592.003.297-.165 1.185-1.187.296.125.89 1.033.295.05.297-.26.592-1.341.593-1.336.889-1.242.593-.424.592-.05.889.273.593.321.592.681.593 1.395.593 1.677.296.45.296-.022.593-.518.296-.092.593.144 1.481.454.593.234.592.526 1.186 1.28.889.949.296.653.296 1.32.89 6.37.295.931.297-.058.296-.834.593-2.401.296-.712.296-.232.593.243.592.203 1.482-.098 1.778.824.592-.051.593-.386.593-.858.592-.88.297-.217.296-.003 1.778 1.19.296.335.296-.291.297-1.483.592-4.135.297-.828.296.344.592 2.946.297.425.296-1.264.593-3.64.296-.136.296 1.245.593 4.98.296 23.847h9.186l.296-24.125.296.493.297-.03.296-.25.296.001.297.37.592 1.519.751 3.121h0" clip-path="url(#p6e35ad1d60)" style="fill:none;stroke:#ff7f0e;stroke-linecap:square"/><path id="line2d_14" d="m38.046 120.966 9.02-.09.029-.147.048.21.03-.072.107.12-.048-.16.063.14.003.011.06-.128.018.018.134-.098-.09.14.093-.103.09.28.025-.155.008-.05.033.262.06-.084.136-.395.037.078.245.853.003.03.063-.272.063-1.106.06.714.003.002.011-.109.052-1.048.052 1.145.06-.292.114 2.412.045-4.188.007-.41.063 3.49.022 1.784.067-4.555.004.016.248 3.179.007-.24.085-4.79-.033 6.612.078-2.84.044 3.184.045-5.369.007-.94.07 4.442.015-.185.034-3.714.077 3.638.13 2.327-.085-3.575.089 2.924.03-7.945.08 7.453.008 1.185.034-6.98.059 2.832.066-1.622-.037 3.712.078-2.228.152 4.133.007-1.211.03-7.323.082 7.3.007 1.208.033-7.356.063 4.229.015 1.243.045-4.305.055 3.507.004-.03.01.569.097 2.304-.052-2.653.07 1.932.03-8.24.082 7.284.007 1.196.034-7.226.059 4.448.063-3.371-.045 4.263.093-1.337.111 4.339.022-.993.03-8.797.081 7.435.008 1.094.033-6.235.063 3.965.06-3.542-.045 4.042.104-.908.1 4.738.022-1.615.03-7.836.066 7.919.015-.91.004.634.063-6.648.015 1.29.003-.158.03 3.323.004.272.044-3.593.015.175.004-.345.062 4.35.056.689.007-.816.004.759.026 2.607.033-8.707.041 2.445.026 3.657.074-4.95.008-1.28.048 4.124.048-1.892.004-.003.003.023.011-1.012.07 3.6.008.823.1-1.247.115-1.1-.082 1.687.119-1.424.03.353.044-.602.015.008.104-.315-.067.507.085-.422.14.516-.129-.52.16.383.118-.282.015.07.007-.004.041.114.015-.017.07.135.048-.106.193.153-.174-.206.181.167.052-.088.048.125.015-.046.119.088-.078-.137.111.107.022-.017.063.081.037-.03.108.138.144-.074.008-.026.085.07.007-.002 1.189.09.004-.03.118-.046.111.067-.07-.082.081.075.26-.076.007-.005.045.122.018.053.082-.171.044.23.07-.104.049-.647.007.787.06-.338.044.238-.03-.45.078.29.063-.49-.04.807.088-.624.007.42.078-1 .037.926.082-1.334.133 1.207-.107-1.257.11 1.12.004-.027.03.61.007-.068.3 3.772-.292-3.803.3 3.144.06-4.925.077 1.752.148 6.126-.107-8.166.11 5.919.049-12.728.06 13.7.003.96.06-13.328.014 6.258.007-2.49.056 7.603.044-4.342.052 7.199.011-13.953.019 1.379.022-5.406.045 15.267.01-1.238.004 1.008.045-11.405.037 4.367.004-.335.033 5.68.018-1.147.097 5.581-.063-9.151.066 6.603.049-13.621.044 15.862.019-3.864.04-11.88.052 11.925.019-2.08.114 6.398-.077-10.46.081 10.096.037-17.765.06 18.35.018-3.239.044-11.19.07 9.12.004.028.034-4.643.055 9.052.023 2.023.026-13.944.014.195.004-4.828.063 16.885.044-12.694.004-2.346.082 11.274.014-3.535.041-1.604.011 3.14.041 6.453.033-12.1.015 3.2.008-9.3.059 16.983.044-7.772.008-5.387.078 10.166.022-2.81.096 6.465-.067-9.392.086 4.534.03-10.942.058 15.006.015-3.325.004 2.274.052-11.91.055 10.434.004.043.004-.838.048-4.873.052 8.077.01.461.023-5.241.03-8.366.055 11.503.019-.455.004 1.749.051-12.106.052 8.725.122 3.435-.062-7.117.066 7.066.045-11.757.074 7.66.007 2.948.052-9.746.052 7.248.004-.009.051-2.98.049 4.837.018 1.228.04-5.548.008-3.831.082 7.75.014-2.408.004 1.137.037-5.43.07 5.117.03-1.477.022-.44.052 2.641.026-1.385.008.559.051-2.63.041 1.018.048-.547.07.295.142 1.841-.123-2.094.126 2.032.119-2.91.055 1.073.167 1.634.022-.04.07-1.757.038-.852.066 1.129.185 1.669.07-1.85.042-.813.066.875.193 1.984.026-.619.081-2.244.06.717.196 2.232.018-.382.093-2.58.093 1.193.01.028.015-.108.026-.117.045.525.066 1.415.045-1.245.063-1.71.067.946.188 1.976.034-.55.085-2.472.07 1.132.182 1.867-.122-1.946.144 1.731.093-2.885.066 1.147.06-.051.048.464.081 1.604.045-1.03.07-2.265.056 1.158.126 1.098-.052-1.148.055 1.026.119-.967-.052 2.507.055-2.5.004.029.008-.592.059-.625.015 1.281.03-.244.103.694-.081-.976.092.85.026-.169-.011 1.04.015-.712.052 3.114.037-4.72.014.815.008-1.526.081 2.92.019-1.163.06-1.341.066 2.696.03-1.278.055 4.005.018-2.335.008 1.846.033-5.597.063 2.083.09-2.195-.071 3.906.096-2.272.13 5.247.01-1.595.053-6.536-.034 6.934.108-3.403.007 2.253.07-4.757.03 2.365.004-.258.015 1.72.063-.17.07 2.942.011-7.737.015 4.6.007-4.993.082 6.312.018-1.948.004.86.048-3.503.06 2.899.044-.594-.03 1.058.037-.047.041 3.582.022-4.212.015.971.007-6.151.1 7.959.004.207.011-5.507.019 1.223.018-1.74.067 3.255.104 3.884-.048-4.538.063 3.29.03-8.833-.012 11.054.093-3.063.074-5.046-.052 6.197.096-3.074.045-.94.051 3.007.075-7.626-.034 9.677.093-5.01.044 3.61.052-5.601.007.019.17 7.617.012-3.95.03-4.981-.015 7.163.092-.872.004.866.063-6.59.033 3.36.082-.938-.048 2.17.07-.766.052 3.49.044-5.432.008-1.609.085 4.159.011-.97.037-1.654.063 1.945.011-.459.104 2.34-.082-2.836.112 1.993.077-2.922.06.752.203 2.483.026-.379.082-2.774.059.729.207 2.337.023-.37.1-2.5.092 1.104.152 1.736-.13-1.762.175.952.096-2.073.044.752.193 1.868.052-.956.081-1.522.063.575.174 1.963.008-.032.14-2.42.093.675.048.373.1 2.308.026-1.648.063-2.363.037 2.43.015-.511.063-2.465.06 1.945.118 4.619-.074-5.032.092 2.327.026-4.866.07 6.007.012-.244.066-5.163.108 1.1.018 1.949.04 4.428.042-8.23.014-3.444.067 9.991.008-.674.018-3.875.011-4.34.078 8.225.018-2.343.015-3.813.074 8.779.008.994.055-10.59.019-3.37.033 12.962.034-4.008.033-8.524.033 12.208.045-4.143.114 5.49-.081-9.946.107 7.768.049-11.933.033 13.895.048-6.786.052 6.697-.033-13.19.096 8.115.007-.91.06-2.63.033 9.666.078-15.788.03 16.509.033-8.997.07 7.553-.033-12.647.059 1.315.004-1.039.018 8.326.078-4.843.018 4.246.015 5.613.067-14.836.011-2.065.007 3.513.023 14.922.074-15.234.018 6.542.011 6.743.034-13.904.063 5.867.066 7.953-.03-9.628.086 4.952.026-12.962.026 20.264.059-7.518.078-9.045-.03 14.574.048-4.885.115 3.584-.081-10.08.085 9.748.074-16.689.026 20.063.004.23.01-2.817.097 1.111.03-14.96.133 13.142.015-3.873.003-.213.023 4.291.007.954.019-16.066.007-1.98.03 21.479.051-8.734.09-10.102-.03 16.558.044-8.7.011 6.23.03-10.177.074 9.187.052 2.735.015-7.834.01-11.69.034 23.326.063-11.545.004.198.007-3.356.008-5.14.03 17.08.066-6.273.018-6.315.074 8.356.052 3.254.015-7.534.011-12.703.034 24.448.066-11.772.074-8.644-.03 17.367.049-7.406.007 4.681.03-10.051.078 9.152.055 2.165.011-9.694.011-9.702.034 23.44.063-11.231.003.109.004-1.72.011-7.074.03 17.818.063-6.151.022-6.683.074 7.823.06 3.077.014-15.233.015-3.628.026 22.16.06-11.14.051 9.759-.033-17.428.1 10.137.007-.906.06-4.732.033 10.645.015-5.413.066-13.65-.03 19.662.045-5.01.011 7.461.078-18.622.018 7.823.015 9.864.037-16.27.06 7.918.118 7.34-.081-11.584.089 8.902.03-17.834.029 22.282.052-9.207.052 7.994-.034-17.019.067 1.734.004-.19.003 1.964.122 11.545.004.097.004-1.158.078-18.245.026 21.546.007 1.059.022-14.537.034 6.202.01-9.834.038 16.638.063-7.113.1 5.849-.034-11.152.045 6.674.07-14.7.022 20.693.011 1.126.012-7.08.055-11.175.037 17.18.026-13.4.008-3.226.062 10.16.038-4.986.03 9.964.062-16.378.015-2.272.015 16.102.018 5.758.067-18.474.015 3.645.022 12.737.033-16.462.067 9.606.03-4.03.033 9.7.037-3.54.074 6.741-.033-20.973.048 9.838.052-6.777.037 15.39.03-15.057.003-.22.004 2.565.118 11.197.004.562.056-8.124.01-9.682.038 21.34.059-9.296.004.079.01-8.931.038 15.927.06-5.399.025-5.498.067 8.845.007.863.056-7.606.01-11.392.034 22.962.063-9.844.004-.005.01-9.605.038 16.708.06-5.496.025-5.563.067 9.478.007.586.019-5.453.033.564.015-15.18.033 24.354.063-10.125.015-11.045.033 18.045.048-4.39.108 3.073-.067-9.587.074 8.887.063-20.355.03 24.887.004 1.184.037-18.065.03 5.53.01-9.969.034 18.567.063-6.937.055-4.372.034 9.683.044.725-.015-5.76.034.277.01-17.438.034 28.245.067-13.834.01-10.204.03 19.644.067-7.734.056-4.552.033 10.543.004-.248.044 2.175.019-8.613.01-16.244.03 28.72.07-16.524.012-7.712.026 20.875.066-8.82.06-4.19.03 10.101.007-.599.044 3.66.019-12.362.007-12.41.033 27.677.07-18.574.008-4.896.026 20.11.07-10.543.004-.227.022 5.408.012-2.617.018-4.397.078 10.965.004.869.026-17.864.003-4.007.034 23.305.07-16.205.007-3.012.026 15.186.067-7.497.052-1.426-.022 5.854.044-2.49.07 6.962.023-11.654.007-7.617.033 19.619.07-13.675.008-1.767.063 10.209.03-4.59.14 8.593.008-.99.007.088.008-3.546.01-11.061.079 15.67.025-9.99.008-1.652.063 8.405.033-4.345.048-.177.082 5.787.01 1.02.027-7.21.022-3.921.063 11.306.019-3.49.044-5.76.033 5.944.037-1.214.086.452-.03-1.362.048.779.115-1.442-.082 1.937.093-1.356.033 1.22.063-1.579.008.051.003-.016.012.313.044.754.074-.395.007-.062.03.332.019.139.026-.533.055.236.063-.005-.015.186.037-.105.008.153.059-.665.03.173.03.14.036-.299.078.423.03-.237.04.277.041-.024.008.006.014-.16.004-.01.026.236.004.016.03-.205.025.005.115-.228-.067.26.075-.23.059.263.066-.192.037.218.126-.086.252.04.074-.035.056.066.374.007h.126l.17.022.167.005.87-.008.137-.004.878.01.193.002 2.481-.08.004-.034.078.182.015-.082.092.112-.048-.218.07.19.149-.274.03.181.029.078.015-.254.037-.342-.026.49.096-.36.019.584.048-1.206.044.682.13-.922-.122 1.128.133-.822.137 2.83-.118-2.851.14 2.38.041-1.92.085.607.034-.801.01 1.632.082 4.573.04-2.895.03-4.379.078 5.299.004.015.052-8.855.063 7.241.044-4.373.045 5.575.03 2.732.029-9.551.022-3.991.052 12.294.007.761.049-10.097.007-1.258.06 8.86.01-1.601.041-3.772.045 4.86.04 4.824.03-16.186.015 3.827.003-4.07.037 15.839.067-9.642.048 6.754-.037-9.762.108 4.513.003-.612.07 6.472.008 1.18.048-15.689.019 4.24.037 13.703.06-16.946.003-.466.026 9.918.015-2.195.014 6.745.056-9.793.04 3.15.053 7.307.044-4.973.011-10.739.056 17.818.04-7.306.078 3.794-.055-13.33.077 6.898.141 6.593-.107-7.887.133 6.504.015-11.585.06 15.15.036-8.028.052 4.914-.03-11.085.086 4.767.003-.034.004.999.107 5.598-.074-6.312.09 5.908.007 1.965.037-12.771.066 12.11.056-10.221.063 6.16.03-3.52.059 5.038.022-1.525.026 4.466.055-8.02.008-3.476.063 11.15.037-6.776.055 4.33-.033-6.653.089 4.143.033-2.08.067 4.307.011 1.64.056-3.489.026-3.06.063 5.545.018-2.5.011.265.011-1.694.004-.163.06 2.007.007.238.066-1.585.026.969.008-.151.059 1.617.007-.104.008.373.007.608.082-2.768.003.041.004.082.067-.944.015.307.003-.055.037.885.026.612.085-.505.004-.02.022.443h.004l.048 1.068.056-1.14.081-1.38.052.577.082.56.044-.2.033.476.052.998.056-.957.085-1.44.056.657.059.624.07-.168.019.135.059.89.06-.658.08-1.415.075.857.052.309.081-.076.026.362.056.59.048-.717.074-1.257.063.57.23 1.397.003.015.026-.326.1-1.567.056.464.144.617.011-.097.04.542.049.307.033-.78.09-1.096.044.423.14.638.004-.005.011-.079.048.5.03.454.056-.724.085-1.417.063.731.13.458.003-.013.008-.15.044 1.3.026.69.048-2.49.04-1.22.03 2.013.004.118.063-1.473.019-1.115.048 2.71.037-1.054.022-1.082.048 2.607.056 3.493.022-7.005.018-3.125.07 10.761.016-4.583.022-5.918.07 7.647.022-3.033.012-1.432.081 3.771.037 1.812-.026-2.005.04 1.72.012 1.86.03-10.786.003-2.4.086 13.787.014-8.041.015-5.125.026 12.34.048-4.246.048.786-.014-4.037.044.392.007-.254.023 3.843.07 4.525.026-5.393.011-10.913.033 18.04.067-10.76.015-4.645.015 8.85.007 5.881.03-11.572.07 5.979.033-5.577.034 8.231.033-.959.03 2.475.026-7.696.007-10.512.045 23.349.055-12.452.04 9.359-.025-16.903.1 9.94.048-4.53.04 7.435.023-2.932.004-.312.018 5.417.041-1.137.063 7.422-.048-25.872.066 13.692.104-9.134-.03 16.844.038-11.568.003.003.004-.775.015 8.99.078-5.75.07 8.03.048-.705.011-20.391.034 26.822.066-10.227.052 6.512.015-18.709.04 11.321.075-4.177.015 6.532.018-2.128.078 6.653-.063-9.065.067 3.56.025-17.901.015 26.718.067-9.716.052 6.691-.037-16.216.092 9.115.074-4.489-.033 6.3.067-1.3.081 4.54-.066-6.794.07 1.437.026-14.894.015 22.396.066-8.019.052 6.217-.037-14.032.09 7.908.006-3.297.034 5.387.066-2.34.034 4.801.055-5.594.026-7.814.015 12.124.07-4.521.012-3.52.037 6.363.063-3.287.126 2.962.055 1.444.019-4.179.014-2.376.067 4.43.022-.888.015-1.02.056 1.832.037-.765.059.805.04-1.084.016.623.025-.502.078.907.004.03.022-.55.03.097.026-.747.092.26.104.437.015-.087.081-.409.056.298.026.3.03-.358.062.322.008-.083.037-.532.085.235.111.173-.096-.3.118.18.008.001.018.106.008.023.063-.192.01.014.005-.012.066.128.015-.027.081.035-.01-.068.036.02.056-.07-.03.098.082-.003.1.077.026-.045.026.001.059-.07.074-.01-.03.055.056.004.918-.12.012.087.01.086.056-.221.041.13.089-.183-.052.251.074-.09.04.108.042-.236.026.079.048-.124-.015.326.081-.261.056-.072.011.205.044-.145.03.182.07-.334.008.107.015.118.007.149.085-.537.004.027.015.4.007.08.06-.245.044.232.081-.498.019.591.007-.082.115 1.59-.063-1.62.1.86.052-2.187.07.583.023-.411.01 1.424.116 1.532-.086-2.86.097 2.766.04-.848.012 2.349.007 2.372.03-10.615.066 7.19.056-7.474-.034 7.956.09-1.697.003.146.011-3.876.004-.625.022 4.416.067-.722.085 4.814.007-3.137.011-10.316.06 13.544.04-5.552.023-5.297.033 6.335.019-.123.051.764-.026-3.564.07 1.092.008-.196.022 3.777.078 2.849-.059-5.36.07 1.521.015-8.679.06 11.376.037-4.85.025-4.603.023 6.874.063-2.473.096 3.362-.06-4.65.078 2.06.004-.14.015 3.248.011-.5.107 1.955-.059-11.531.067 10.211.055-8.18.078 3.335.004-.092.018 2.149.09 1.41-.06-3.196.089 2.849.022 2.206.04-7.299.012-1.044.052 7.446.03-2.857.037-3.741.03 5.345.025-.774.004.077.026-1.582.003-.29.082 1.977.011.457.063-1.254.026.409.144-1.37.019.744.044.293.056-.573.063.77.137-.213.055-.13.023.18.03-.006.003.007.03-.192.063-.292.04.301.141.163.111-.184.056.032.089.008-.063-.075.085.064.218.062.115-.05.041.076h.13l.196-.02.47-.046.334.064.148-.02.385-.005.122-.007.004.002.2.04.004-.028.107-.026-.022.081.03-.06.1.108-.067-.203.089.11.033-.044.019.148.033-.034.004.017.055-.144.033.042.049-.172-.019.264.082-.11.003.032.041-.328.033.086.07-.311-.025.314.067-.105.092.184-.06-.73.068.578.1-.782.018.424.063-.681.03.913.007-.06.14 1.086.008-.05.008-.233.051 1.216.004-.059.026.186.063 2.185.048-1.765.134-3.308.007.75.16 6.302-.142-6.56.145 6.285.015-10.115.063 10.653.04-5.415.056 2.97-.03-9.517.078 4.444.004.015.011-2.193.015 5.47.07-1.36.056 4.325.018-17.378.034 12.259.025 8.378-.01-12.04.066.46.007-6.498.037 12.299.063-4.813.13 7.344-.1-9.271.119 8.902.014-14.825.063 17.577.037-7.903.012 1.54.01-7.632.004-1.463.067 10.65.026-4.239.1 3.736-.063-5.137.078 4.46.063-8.37-.037 12.065.089-4.146.007 3.9.063-10.555.033 3.873.056-.597-.026 4.467.067-2.813.126 3.782-.093-4.485.107 4.424.023-5.88.133.84.052 3.573.07-1.376.126 1.05-.1-2.322.104 2.127.103-1.738-.063 1.764.09-1.441.014-.373.019.972.07-.39.067.716.044-.51.008-.261.059.73.037-.076.089.26-.063-.493.078.155.051-.476.078.29.097.21-.063-.288.092.23.06-.107.003-.025.063.188.026-.044.096.14-.059-.176.074.046.093-.27.044.091.1.232.037-.062.004.006.052-.12.052-.044.048.116.01.046.064-.082.033.026.093-.053-.078.069.115.002.118.026.004-.005.133-.076.019.028.152.071.003-.008.152-.044.149.008 1.255-.075.074-.164.008.342.018-.192.004.159.007-.278.097.216.03-.257-.02.325.1-.236.027.13.066-.214.019.133.115-.158-.045.281.048-.242.067.338-.045-.374.097.246.003-.133.086.366.018-.181.045.148-.034-.385.1.275.108-.24-.082.339.093-.223.048.33.04-.464.02.065.003-.25.007.544.097-.396.037.506.04-.758.034.367.11-.33-.073.453.081-.226.115.482-.1-.73.104.676.037-.212.033.776.019-.096.003.253.078-2.003.008.354.077 1.01-.063-1.502.097.565.003-.454.067 1.815.026-.46.107 3.197-.085-3.558.09 1.77.058-5.975-.04 8.195.089-3.475.007 2.475.063-6.527.037 4.47.063-1.827-.033 2.745.081-1.213.07 4.502.012-8.375.014 6.416.011-9.447.086 10.304.014-4.734.012 3.519.037-7.534.066 6.268.03-3.205.06 3.618.014-.62.07 5.277.011-16.672.019 11.121.011-8.845.056 12.903.044-9.704.104 7.496-.085-8.515.092 4.89.008-1.805.081 7.803.011-1.435.008.241.04 3.043.008-15.112.004-4.665.085 18.679.015-8.218.01 5.394.015-11.405.09 10.16.033-5.337-.015 6.048.085-.58.07 5.77.012-22.733.018 15.186.107-9.639-.04 16.332.044-14.587.082 11.096.033-6.44.004-.836.074 8.16.033 2.633.019-12.325.026-8.25-.012 20.58.082-2.951.055-13.524-.04 16.513.103-5.984.06-5.06-.037 7.869.085-3.627.067 7.754.01-17.005.02 5.667.007-10.671.085 22.83.015-11.681.107 7.095-.082-13.742.09 10.509.029-4.544.074 8.08.04 3.337.016-17.338.018 1.899.004-6.121.085 22.54.019-11.025.103 6.11-.081-13.822.089 12.1.033-6.024-.015 6.744.085-.18.037 4.453.049-20.14.018 10.885.104-6.65-.04 16.552.047-13.342.078 8.957-.063-10.248.096 3.738.004-.392.052 5.46.055 4.803.023-14.254.026-6.044-.012 17.694.063-3.099.034 7.25.04-17.284.015 3.864.004-1.94.063 10.336.037-6.482.082 10.24.044-2.472.033-18.088.063 20.311.015-3.17.007 5.108.041-18.246.06 12.15.081-6.067-.063 7.079.093-2.933.033 6.03.056-15.494.014 5.845.008-9.143.085 19.941.015-11.469.103 6.725-.077-11.172.089 8.145.051-3.922.037 6.022.012-.66.059 3.886.007-4.283.03-10.417.063 14.635.015-4.548.007 5.518.04-12.653.06 8.476.082-5.578-.06 5.591.093-2.63.052 5.604.044-8.669.034-.577.044 5.067.011 2.343.078-6.836.01 2.341.064 2.83-.048-3.284.092.757.011-.904.056 3.984.015-.09.055.975.008-3.122.007-2.277.085 3.614.015-.78.004 1.009.04-3.675.064 2.062.096-1.025-.074 1.875.089-.877.07 1.379-.052-1.987.097 1.043.007-.185.004.47.003.535.056-2.234.044 1.236.026-.974.019 1.371.067-.51.077 1.562.008-2.733.007 1.357.015-1.408.007 2.392.086-.818.085.65-.052-1.499.067 1.056.092-1.173-.081 1.46.1-.833.081-1.092-.03 1.424.034-.539.037.772-.03-1.483.1 1.153.097-1.432.007 1.743.007-1.202.004 1.355.019-2.031.088 1.447.075-1.236.018 1.728.007-1.465.004 1.522.008-1.758.1.754.014-.556.052 1.213.041-1.094.03.865-.008-.896.09.842.007-.944.062 1.083.041-.636.004.839.096-1.276.008 1.115.003-.985.008.998.1-.662.052.464-.008-.603.056.332.015-.476.007.937.085-.076.089-1.096-.007 1.447.03-1.204.007 1.01.103-.201.052-.801.052.972.007-.87.004.834.008-.889.1.531.063-.715.007 1.273.03-1.022.1.945.007-1.202.004 1.161.03-1.329.007 1.636.074-1.387.089 1.777-.041-2.425.063 1.425.063-1.104.018 1.723.023-.764.103.785-.055-1.49.06.329.014-.572-.008 1.615.1-.694.093.557-.018-1.305.033.995.096-1.417-.03 2.261.045-1.135.085 1.186-.018-2.226.044 2.032.008-1.602.103.679.085-1.349-.018 2.747.022-.818.004.692.004-2.22.1 1.432.063-1.735-.008 2.844.056-2.128.003 1.858.008-2.433.1 1.268.003-1.8.049 2.608.059-.907.048-1.442.063.235.074 1.676.019-2.772.018 2.583.108-2.262.003 1.203.037.519-.03-1.528.09 1.036.003-.691.1 1.39.004-.53.115 1.002-.09-1.244.105.92.003-.421.06 1.407.044-.668.026.82.055-1.144.03-1.059.03 1.495.044-.313.034-.847.03.992.01-.195.134 5.112.01-1.215.016-8.024.059 8.352.04-3.002.004.997.019-6.903.074 2.603.189 7.04.007-1.718.015-10.08.06 12.37.036-5.579.008 2.44.018-8.169.078 3.874.007-.542.019 3.395.07-1.403.1 4.985.008-3.776.01-7.298.064 11.213.037-4.325.081 1.486-.055-7.224.074 3.009.003-.16.026 2.96.026-.605.145 4.51-.115-6.041.118 4.872.015-9.444.063 10.366.037-4.072.008 1.222.018-6.292.078 3.224.007-.428.019 2.373.063-1.017.118 4.556.004-1.174.015-7.092.06 7.481.04-3.269.085 1.388-.06-4.497.079 1.687.01-.575.02 2.704.059-.958.122 3.382.01-.64.03-5.13.086 2.135.089 1.108-.052-2.518.074 1.42.052-.708-.03 1.434.082-.201.122 2.3-.056-2.627.078.882.044-1.543.06 1.783.007.244.06-1.14.033.62.092-.597-.063 1.129.086-.994.03 1.2.084-.38.041.445-.033-.83.085.318.018.296.112-1.306.055.752.03-1.043.022.084.03.722.059-.927.018.63.004-.507.052.82.056-.72.03.7.08-.31.004-.238.03.481.074-.152.07.201.03-.484.007.193.004-.223.104.396.004-.323.007.313.007-.34.097.172.089-.21-.019.377.04-.302.075.232-.008-.38.045.147.063.299-.019-.397.067.193.037-.077-.007.17.077-.048.019-.052.089.145.085-.182-.018.234.044-.111.004.066.003-.137.1.061.123.05-.097-.077.1.074.078.132.03-.273.074.261-.063-.284.1.058.096.234.015-.15.004-.056.089.174.007-.09.037.133.03-.215.04.19.086-.2-.03.249.055-.133.004.086.04-.167.068.083.1-.07-.004.142.007-.021.048.125.019-.276.037.198.052-.24-.019.318.078-.224.096.312-.063-.481.078.207.004-.226.004.466.1-.233.026.281.018-.434.063.04.096.294.015-.19.015-.044-.007.22.074-.129.059.157-.019-.262.063.182.086-.335-.019.677.04-.553.079.488.03-.626.007.46.059-.543.007.705.045-.265.052.383.018-.85.007.53.015-.688.063 1.055.03-.563.104.418-.041-.597.044.024.015-.296-.007.976.07-.543.093.695-.008-1.258.022.677.052-.547-.007.936.063-.41.048-.549.052 1.104.03-1.303.062 1.396.019-1.18.037 1.104.007-1.538.067.906.022-.441.019.813.048-.666.063.787-.04-1.082.088.382.019.723.007-1.033.096.708.09.44.018-.971.04 1.225-.007-1.256.078.658.015-.403.089.821.007-.82.096 1.31.008-1.707.007 1.383.004-1.32.074 1.432.033-.777.041.924.007-1.458.063 1.374.1.125.008-1.43.052 1.565-.008-1.83.067.478.092 1.992-.055-2.915.07 2.39.056-2.585.018 3.102.037-.62.045-2.21-.019 2.505.097-2.006.07 1.8-.007-2.543.048.868.1 1.214-.074-1.232.089.495.007.096.111-1.453.122 1.52.063 1.689.063-3.435.008-.199.052 2.27.014.414.06-2.907.01-.077.016.33.048 1.372.074-.52.074 2.443.037-2.143.03-1.491.066 2.481.008.046.007-.16.04-1.664.071 1.513.004.024.03-.43.029-.378.07.624.06.364.037-.456.052-.577.063.497.03-.118.029-.107.033.17.045-.035.037-.046.055.107.019.009.015.069.044.266.052-.354.04-.325.086.085.018-.06.06.245.177.177-.1-.23.13.175.14-.253.09.143.085.08.137.105-.1-.152.126.087.118-.158.045.034.13.186.04-.079.022-.035.048.139.03.037.06-.12.133-.052.007.014.263.271.052-.12.178-.145.033.062.093-.047.048.286.044.068-.026.021.03-.003.018.044.041-.397.022-.254.063.39.026-.14.045-.176.052.231.085-.18.033.336.026.223.037.695.037-1.252.022-.808.06 1.504.022-.304.044-.785.074.49.174 2.362-.096-2.844.111 1.993.034-3.941.063 4.518.025-2.058.041-1.508.06 1.802.007-.122.081-1.132.026 1.151.085 2.354.015-2.57.019-3.782.066 6.617.034-4.904.01-.484.05 3.495.014.184.015-1.357.018-.82.026.979.063-.393.104 3.23.01-2.068.023-4.877.067 6.472.03-5.323.01-.37.012 1.895.03 2.967.055-3.045.03 2.074.025-2.106.067 3.138.008-.25.062 2.126.012-2.707.022-5.852.048 7.707.052-6.144.01.24.034 5.467.093-1.527.022-2.974.074 3.369.06 3.293.022-5.027.014-5.16.037 9.575.063-7.497.004-.082.011 1.174.022 5.6.1-1.685.026-4.776.037 5.725.041-1.167.06 3.697.025-9.17.012-3.138.033 13.233.063-8.983.01-1.006.034 8.665.048-5.36.108 4.021-.034-6.054.049 3.78.018-2.602.067 6.37.007.6.022-9.333.012-4.596.033 15.695.063-9.324.015-2.818.03 9.861.051-4.993.108 3.697-.034-6.26.045 3.88.018-2.876.04 5.172.027-.176.078 2.935-.034-14.475.056 9.987.06-8.245.032 12.099.004.446.03-9.466.004-.034.003.95.115 5.914.007-.728.026-4.379.074 6.693.008.918.04-13.942.004-1.159.03 15.418.037-2.542.004-.034.033-10.125.037 12.453.044-4.927.012.337.007-.893.067-2.82.026 4.953.007-.45.004.033.003-.268.012-3.277.085 6.841.003-.613.045-12.272-.033 12.342.155-7.057.019 4.369.096-3.21.007-.572.056 3.375.04-2.72.104 3.442.015-2.066.026-2.402.033 3.537.045-.541.004-.006.003.123.004-.005.03-3.71.03 3.763.062-1.326.104.984-.082-1.68.093.991.007-.304.041 1.633.048-.264.004-.001.03.998.033-2.833.007-.204.026 1.8.052-.8.011.433.037-1.341.067 1.333.015.274.007-.376.022-1.075.09.79.147 1.533.056-.634.03-1.4.085.933.011.068.037-1.034.044.695.075-.207-.034.456.052-.112.074.816.03-.907.003-.058.045.565.055-.41.067-.53.085-.48.034.31.155.536-.115-.657.119.636.011-.091.082.293.007.034.037-.353.044.136.156-.639.07.27.174.415.004-.01.037-.197.1.062.226-.32.026.18.122.114-.059-.293.063.283.04-.16.027.228.13.197.003-.017.1-.24-.048.384.066-.26.012.111.044-.5.019.016.01.09.034-.237.048.103.008-.072.048.32.037-.09.007-.041.03.248.037-.003.004-.005.01.142.004.031.063-.398.011.088.008-.036.066.354.008-.06.007.055.056-.32.078-.67.055.315.004-.015.04.264.023-.027.174.748.04.935.045-1.881.063-1.139.048 1.027.06-.094.03.547.003-.013.155 2.938.019-1.861.03-3.567.088 2.02.045-1.042.044 1.753.011-.198.149 3.536-.082-3.703.089 2.805.04-5.655.082 2.495.141 1.223-.081-2.496.085 2.26.003-.206.063 2.42.03 1.66.026-5.49.022-2.64.03 5.54.052-1.37.096.929-.063-4.93.07 3.824.06-.676.033 3.1.033 2.888.022-5.879.008-3.792.044 6.524.056-.382.03-6.631.092 4.604.1 5.906-.063-7.1.074 1.204.008.651.007-2.868.004-1.688.048 5.765.048-.504.004.952.033-6.35.067 4.11.063-1.116.026 3.45.018 3.053.048-8.074.011.426.008-.975.081 5.287.015-3.775.115 3.11-.096-4.747.1 4.2.026-1.905.063 5.944.018-3.217.033-4.844.078 3.72.008 1.38.033-5.097.067 3.62.026.335.018-1.444.011.33.008-.358.033 2.904.026 2.827.06-8.46.01 2.792.104-2.428-.033 5.163.04-4.156.078 2.695.04-.767.008-.766.06 5.701.018-1.515.037-6.851.082 5.373.003.045.004-1.104.03-3.339.081 3.082.111 4.226-.06-5.522.082 4.239.037-6.561.078 4.244.004.737.037-3.945.063 2.027.063-.458-.04 1.402.066-.415.04 3.51.041-4.333.008.592.01-2.869.086 4.493.015-3.111.107 2.24-.085-3.055.093 2.15.03-.708.062 2.985.026 1.484.04-5.085.056-1.394.038 4.522.014-3.125.034 2.509.01-3.28.067 2.167.034-.6.063 2.267.026 1.698.044-4.165.052-1.683.037 3.682.019-2.012.03 1.855.014-3.02.067 1.685.007-.405.089 1.66.03 1.94.051-3.8.015.103.034-1.653.037 3.233.037-2.114.01 2.04.012-2.393.092 1.474.023-.103.033.872.015-.184.03 2.468.059-3.806.015.445.033-2.022.06 3.523.018-1.688.007 1.49.011-2.586.093 1.406.003-.301.075 1.815.01-.335.038 1.782.055-3.967.03-1.299.063 3.59.011-2.09.011 2.019.037-2.26.067 1.343.007-.56.078 1.632.011-.035.033 1.138.056-2.624.03-1.465.063 2.6.014-1.349.012 1.438.037-1.803.063 1.345.01-.785.09 1.137.055.917.04-1.886.008.372.004.07.033-1.374.004-.177.063 1.507.015-.44.033.73-.015-.885.093.708.033-.409.074.555.056.78.04-1.005.012.169.063-1.137.055.517.082.675-.063-.736.1.489.01.118.068-.193.033.083.07.291.06-.277.1-.5.051.296.086.264.037-.135.077-.236.041.156.093.158.048-.126.081-.22.048.141.063.214.056-.145.074-.196.067.112.085.068.063-.059.567.042.333.02.13-.008.574-.017.07-.02-.056.053.093-.022.122.04-.11-.052.114.04.085-.122-.01.137.04-.094.033.101-.011-.14.089.066.089-.072-.078.144.1-.079.1.191-.078-.249.082.094.052-.178-.015.296.074-.222.107.39-.081-.565.085.417.007-.469.011.596.09-.105.014.073-.007-.291.01.146.1-1.176-.01 1.537.015-.453.066 2.563-.007-5.214.052 3.678.01-2.708.108 2.043.048.707-.01-2.375.07 1.344.048.479-.03-1.257.085.56.026-.629.011 1.587.067-.55.022.33-.01-1.14.095.758.012-.505.003.713.004.252.03-1.006.074.854.085-.834-.011.981.037-.656.03.632.007-1.294.074.729.03-.445-.008.84.093-.688.007.52.008-.636.096.482.004-.529.077.785.03-.53.007-.118.004.317.004.303.007-.935.093.394.048-.514-.007.677.066-.098.119 1.137-.108-1.369.111 1.362.052.526.041-1.46.037-1.017.037.94.045.617.059-1.246.026-.427.066 1.133.134 1.9.007-.041.004.356.078-2.945.007-.406.078 2.454.007-.281.008.158.018-.48.067-1.574.074.535.167 1.895-.152-2.225.215 1.592.077-1.635.037 1.037.137-1.228-.122 1.444.126-.867.026.407.07-1.219.008 1.13.03-1.69.018 3.189.063-1.948.04 2.027.071-1.507.004.316.033-1.024.07.558.008-.068.004.17.059-.703.04.964.02-1.67.018 2.08.074-.66.096-.779-.03 1.601.034-.39.07 1.22.007-2.884.008 1.678.078-2.335.007 3.95.026-1.646.107-1.408-.018 1.673.022-.631.015.824.018-2.108.078 1.502.093 1.335.018-3.895.097 3.978.014-1.491.004-2.192.004 3.107.1-1.402.07 1.236.008-2.18.03 1.139.025-1.316.019 2.306.066-1.162.004-.014.063.833.019-1.25.03.741.092.877.018-2.35.004 1.855.107-.843.041.792-.007-.973.078.786.048-.954.007 1.247.052-.57.026 1.285.018-2.672.067 1.598.048-.67.052.99.008-.873.07 1.776.03-3.07.007 2.097.037-3.023.018 4.741.052-2.622.026 1.611.041-2.095.044 1.125.041-1.217.008 2.082.066-1.209.045 1.09.007-2.075.045 1.016.107-.806-.004 1.419.008-.742.003.97.019-1.487.089.676.048.728.04-1.474.02 1.403.096.64.018-2.489.063 2.17.048-.824.104.328.007-.967.085 1.346-.007-1.675.033.8.07-.305-.018.724.022-.476.082 1.628.007-3.126.008 2.485.003-2.861.019 4.003.089-1.629.015.982-.008-2.381.1 1.893.019-1.923.03 2.01.062-.416.067-1.407-.018 2.013.059-.986.1-.957.007 1.823.052-1.874-.018 2.012.077-1.605.078 1.506.03-1.683.007 1.402.015-1.583.018 2.397.078-1.51.004.784.03-1.255.077.692.008-.145.044.477.063-1.081.052 1.366.019-1.792.04 1.048.07.339.008-.46.082.488.03-.098.018-.822.007 1.187.085-.83.104.873-.03-1.188.034.778.089-.832-.019 1.443.04-1.007.042 1.006-.03-1.223.1.911.018-1.045.078 1.169.019-.927.1.99.01-.427.042-.748-.03 1.065.104-.97.077.216.012-.487.051-.68.056.756.019-.462.051.792.004-.06.111 1.741.022-.35.056-3.159.06 2.466.055-2.138.022-1.065.052 2.11.026-.257.16 3.565-.13-4.617.148 4.04.051-6.92.06 6.751.003.931.086-6.176.059 4.632.055-3.397.008-.773.081 3.477.008-.844.026-.668.048 1.794.048 3.082.011-6.7.019 1.578.025-4.694.06 8.83.018-2.663.015 2.487.056-6.403.04 4.258.078-3.905-.06 5.277.1-3.08.008-.091.008.943.007 1.187.06-2.924.04 1.727.004-.177.022 3.048.022-.051.011.737.019-1.482.052-7.63-.03 8.102.089-.912.007 1.997.086-6.178.01 2.409.053 1.859.033-2.69.011.395.026-1.405.052 2.823.03-1.038.051-.137-.037.688.045-.124.048 1.556-.03-2.422.09.496.003.006.015 1.353.059-1.703.033.405.011-.714.06 1.556.037-.59.026-.24.059.428.04-.326.112-.325-.063.396.07-.181.056.24.014-.52.038.408.01-.293.09.619.062.35.03-.438.07-.408.052.198.108.296-.085-.306.11.26.093-.686.063.261.178.569.015.189.081-.414.03-.452.06.579.018-.122.033-.084.011-.265.063.752.033-.52.008.111.026-.518.063.088.055-.386.034.78.014-.165.026-.424-.01.65.055-.004.085 1.212.022-.943.048-1.705.056 1.88.004-.002.01.411.042-.798.018-.958.067 1.65.022-.496.015.036.003-.11.052-1.951.06 1.488.07-.825.056 2.181.01-.625.064 2.794.003.05.011-1.316.004.01.04-4.775.068 4.848.01-.362.008 1.313.063-5.89.033 3.537.034 1.756.048-4.275.018-1.092.052 3.42.011.667.067-3.585.015 1.328.003-.066.019 1.548.007-.05.112 3.607-.049-4.378.067 3.463.056-6.383.044 6.413.015-2.21.007 2.089.041-5.572.067 4.877.089-4.412.033 1.998.03.918.063-2.804.003-.138.034 2.732.077-1.624.06 4.344.037-6.662.085 5.623.004.351.059-4.774.003-.164.034 3.15.03.67.044-2.597.096 1.582-.074-1.848.208 1.598.033-.708.067.916.03.5.055-1.206.01.147.005.01.022-.197.003-.11.034.438.074-.333.007-.009.023.21.03.22.055-.281.018.05.09-.478.04.118.007-.07.074.316.004-.01.004-.003.007.105.119.249-.056-.34.063.317.052-.236.044.318.004.002.019-.095.059-.515.074.372.085.167-.067-.18.097.06.092-.515.06.186.114.298.037-.116.019-.03.056.146.092.157.04-.065.082-.153.074.06.023.011.048-.096.1-.166.048.05.315.277.448-.233.27.173.015-.038.126-.075.004.003.218-.1.026.077.134.172.007-.016.137-.062.115-.137.004.034.081.065-.03-.183.052.122.108-.333-.037.422.04-.323.082.45-.037-.527.07.315.07.31.023-.42.06-.434.018.557.033-.127.018.435.034-.786.037.092.044.468.078-1.032.178 3.434.015-1.804.026-5.523.033 8.514.044-2.882.067 1.756-.03-6.45.067 3.76.06-2.04-.041 2.889.096-1.28.007.181.06 1.085-.03-2.118.063.342.007-.337.037 3.032.019-.12.063 2.615.015-8.45.007.708.011-4.455.03 14.056.066-8.091.012-2.692.033 10.89.063-7.377.111 2.241-.037-3.044.044 2.278.06-1.458.03 2.842.01-.167.03-1.355.011 2.03.056 2.92.01-8.04.023-6.85.033 16.833.048-8.004.06 8.976.033-12.59.019 5.144.081-4.497-.063 6.253.089-2.591.011 2.699.037-3.705.063 2.323.03-.91.037 2.405.03-.552.022 3.198.01-10.132.023-4.097.03 15.233.048-7.169.059 7.658.033-11.62.019 6.6.078-4.958-.06 6.043.09-.989.007.823.033-5.211.063 3.83.011-2.04.085 3.017.004-.092.026 1.92.011-9.514.022-2.5.03 14.716.044-8.232.06 6.785.033-9.627.022 6.57.074-6.29.03 6.427.004.498.033-5.285.063 3.427.015-1.813.037 3.046.048-.148.044 2.806-.033-3.534.037.989.026-9.693.018 13.049.067-4.994.015-3.77.03 7.269.063-3.005.014-1.718.052-3.01.034 5.47.03-3.278.118 2.768.022-.86.104-7.56-.019 11.249.037-9.276.011 11.278.108-1.696.003.188.015-4.744.011-2.766.03 5.348.074-4.9.007-.686.03 3.63.063-1.518.093 1.987.04-.756.086-6.755-.034 10.22.056-4.199.007 5.198.078-7.972.026 6.075.004.159.022-3.509.004-.356.077 2.187.03-2.179.078 1.348-.034-2.06.086 1.202.014-.58.07 1.837.082 2.735-.04-3.808.062 1.173.015-6.152.03 8.524.07-5.843.008-.732.037 5.423.044-1.389.126-3.015-.074 3.656.093-1.712.014 1.13.075-1.936.03 1.852.003.068.06-.708.01-.398.052 2.867.007.162.015-2.813.019-3.39.063 5.392.033-3.462.011-.315.056 2.725.01.346.038-1.823.033.61.063-.807-.026 1.086.074-.373.063-.72.034.89.137 1.143-.063-1.55.081 1.223.108-1.374.033.383.133.4.015-.176.14-.75.03.16.167 1.193.037-.074.026-.305.063-.905.052.705.1.128.018-.045.182-.76.026.099.155.875.038.284.048-.606.048-.595.063.562.092.21.037-.065.167-.804.06.43.162.708.011-.028.008.021.033-.263.07-.705.056.492.074.25.052-.108.163-.764.056.189.222.847.03-.151.07-.59.074.394.06.176.051-.14.16-.596.029.035.081.298.186.596.022-.086.078-.639.059.36.06.195.055-.156.196-.597.007.007.267.872.033-.134.067-.551.07.362.056.186.056-.176.181-.531.019.006.055.134.24.682.038-.154.078-.427.051.232.06.212.055-.193.17-.392.067-.03.034.087.252.56.077-.223.06-.083.048.098.063.087.048-.087.185-.291.085-.014.034.04.292.373.026-.02.489-.432.126.122.207.234.123-.002.392-.264.019.021.185.132.1-.022.007.044.011.062.078-.092.019.01.096-.025-.089.062.104.014.026.063.055-.31.037-.668.048.894.2-1.135.023.542.003.05.056-.7.03.35.01-.145.008-.123.063 1.207.137 1.874.048-.15.148-1.038.015-.02.048.162.034-.098.01.117.053-.304.022-.197.048.256.033-.02.015.323.052-2.04.048 1.898.026-1.293.019-.392.052 1.588.018-.647.126-1.196.011.151.03.729.048-1.157.044.955.056-.93.052.986.037-.563.063.668.01.06.008-.04.104 1.737-.037-1.934.06 1.07.029-2.82.04 3.626.056-2.868.03 1.849.015.628.048-2.023.044 1.261.137-1.37-.052 1.53.07-.768.012.384.052-1.016.044.755.026-.694.06.758.029-.242.115.891.026-.115.103-1.123-.048 1.954.067-1.281.026 1.409.048-2.068.048 1.526.045-1.357.1.307.037.337.04-.601.026.16.085.141-.033-.279.052.109.111-.417-.04.604.051-.468.119 1.105.015-.128.026-.363.04.67.041-.314.026.797.044-1.562.052 1.119.026-1.065.052 1.191.056-1.106.04.85.048-1.06.049.726.118-.665.015.106.107.38-.04-.557.055.423.033-.315.03.365.052-.137.13.646.003-.002.015.031.022-.31.011-.16.056.846.019-.057.125-1.408-.033 1.592.052-1.195.03.871.033-.975.056.442.114-.467.011.144.019.198.048-.488.048.395.022-.372.049.413.051-.158.097.407-.037-.641.055.356.011-.166.037.598.049-.27.11.554.02-.308.025-.585.037.752.056-.457.018.38.041-.71.052.469.122-.507.015.167.026.225.037-.404.052.293.03-.195.08.153.09.168-.037-.227.063.116.014-.034.038.234.048-.168.107.237.026-.065.115-.095-.052.117.063-.101.026.089.048-.16.033.062.137-.152-.13.161.134-.145.093.022-.041-.06.063.04.015-.038.03.076.059-.014.189.178.01-.014.108-.102-.04.149.051-.114.019.072.048-.116.044.043.267-.234.018.046.097.012-.048-.054.07.032.111.06.004.01.36.12.095-.04.026.01.178-.062.622.064.148-.045.815.001.467-.014.526.03.963-.02h6.719" clip-path="url(#p6e35ad1d60)" style="fill:none;stroke:#2ca02c;stroke-width:.5;stroke-linecap:square"/><path id="patch_3" d="M38.05 142.76V8.64" style="fill:none;stroke:#000;stroke-width:.8;stroke-linejoin:miter;stroke-linecap:square"/><path id="patch_4" d="M221.76 142.76V8.64" style="fill:none;stroke:#000;stroke-width:.8;stroke-linejoin:miter;stroke-linecap:square"/><path id="patch_5" d="M38.05 142.76h183.71" style="fill:none;stroke:#000;stroke-width:.8;stroke-linejoin:miter;stroke-linecap:square"/><path id="patch_6" d="M38.05 8.64h183.71" style="fill:none;stroke:#000;stroke-width:.8;stroke-linejoin:miter;stroke-linecap:square"/><g id="legend_1"><path id="line2d_15" d="M164.938 15.919h16" style="fill:none;stroke:#ff7f0e;stroke-linecap:square"/><g id="text_14" transform="matrix(.08 0 0 -.08 187.338 18.719)"><defs><path id="DejaVuSans-46" d="M628 4666h2681v-532H1259V2759h1850v-531H1259V0H628z" transform="scale(.01563)"/><path id="DejaVuSans-70" d="M1159 525v-1856H581v4831h578v-531q182 312 458 463 277 152 661 152 638 0 1036-506 399-506 399-1331T3314 415Q2916-91 2278-91q-384 0-661 152-276 152-458 464m1957 1222q0 634-261 995t-717 361q-457 0-718-361t-261-995 261-995 718-361q456 0 717 361t261 995" transform="scale(.01563)"/><path id="DejaVuSans-64" d="M2906 2969v1894h575V0h-575v525q-181-312-458-464-276-152-664-152-634 0-1033 506-398 507-398 1332t398 1331q399 506 1033 506 388 0 664-152 277-151 458-463M947 1747q0-634 261-995t717-361 718 361q263 361 263 995t-263 995q-262 361-718 361t-717-361-261-995" transform="scale(.01563)"/></defs><use xlink:href="#DejaVuSans-46"/><use xlink:href="#DejaVuSans-30" x="57.52"/><use xlink:href="#DejaVuSans-70" x="152.93"/><use xlink:href="#DejaVuSans-72" x="216.406"/><use xlink:href="#DejaVuSans-65" x="255.27"/><use xlink:href="#DejaVuSans-64" x="316.793"/></g><path id="line2d_16" d="M164.938 27.661h16" style="fill:none;stroke:#1f77b4;stroke-linecap:square"/><g id="text_15" transform="matrix(.08 0 0 -.08 187.338 30.461)"><defs><path id="DejaVuSans-6f" d="M1959 3097q-462 0-731-361t-269-989 267-989q268-361 733-361 460 0 728 362 269 363 269 988 0 622-269 986-268 364-728 364m0 487q750 0 1178-488 429-487 429-1349 0-859-429-1349Q2709-91 1959-91q-753 0-1180 489-426 490-426 1349 0 862 426 1349 427 488 1180 488" transform="scale(.01563)"/><path id="DejaVuSans-67" d="M2906 1791q0 625-258 968-257 344-723 344-462 0-720-344-258-343-258-968 0-622 258-966t720-344q466 0 723 344 258 344 258 966m575-1357q0-893-397-1329-396-436-1215-436-303 0-572 45t-522 139v559q253-137 500-202 247-66 503-66 566 0 847 295t281 892v285q-178-310-456-463T1784 0Q1141 0 747 490 353 981 353 1791q0 812 394 1302 394 491 1037 491 388 0 666-153t456-462v531h575z" transform="scale(.01563)"/></defs><use xlink:href="#DejaVuSans-46"/><use xlink:href="#DejaVuSans-30" x="57.52"/><use xlink:href="#DejaVuSans-6f" x="152.93"/><use xlink:href="#DejaVuSans-72" x="214.111"/><use xlink:href="#DejaVuSans-69" x="255.225"/><use xlink:href="#DejaVuSans-67" x="283.008"/></g></g></g></g><defs><clipPath id="p6e35ad1d60"><path d="M38.05 8.64h183.71v134.12H38.05z"/></clipPath></defs></svg>